<svg xmlns="http://www.w3.org/2000/svg" xmlns:xlink="http://www.w3.org/1999/xlink" xmlns:lucid="lucid" width="1187.92" height="446.84"><g transform="translate(3191.8619110786367 -2843.0036192547254)" lucid:page-tab-id="0_0"><path d="M-3500-1500h14000v19000H-3500z" fill="#fff"/><path d="M-2553.78 3144.34a6 6 0 0 1 6-6h128.28a6 6 0 0 1 6 6v56.7a6 6 0 0 1-6 6h-128.28a6 6 0 0 1-6-6z" stroke="#282c33" stroke-width="2" fill="#cfe4ff"/><use xlink:href="#a" transform="matrix(1,0,0,1,-2541.7788960249227,3150.343006104842) translate(0.3619791666666714 32.189670138888886)"/><use xlink:href="#b" transform="matrix(1,0,0,1,-2541.7788960249227,3150.343006104842) translate(60.6484375 32.189670138888886)"/><path d="M-2553.78 3226.14a6 6 0 0 1 6-6h128.28a6 6 0 0 1 6 6v56.7a6 6 0 0 1-6 6h-128.28a6 6 0 0 1-6-6z" stroke="#282c33" stroke-width="2" fill="#cfe4ff"/><use xlink:href="#a" transform="matrix(1,0,0,1,-2541.7788960249227,3232.1426851767064) translate(0.3619791666666714 32.189670138888886)"/><use xlink:href="#b" transform="matrix(1,0,0,1,-2541.7788960249227,3232.1426851767064) translate(60.6484375 32.189670138888886)"/><path d="M-2679.6 2986.86a6 6 0 0 1 6-6h179a6 6 0 0 1 6 6v108a6 6 0 0 1-6 6h-179a6 6 0 0 1-6-6z" stroke="#282c33" stroke-width="2" fill="#cfe4ff"/><use xlink:href="#c" transform="matrix(1,0,0,1,-2667.595428121568,2992.8613780121323) translate(26.24175347222222 56.752170138888886)"/><use xlink:href="#d" transform="matrix(1,0,0,1,-2667.595428121568,2992.8613780121323) translate(75.015625 56.752170138888886)"/><use xlink:href="#e" transform="matrix(1,0,0,1,-2667.595428121568,2992.8613780121323) translate(129.05208333333334 56.752170138888886)"/><path d="M-2399.97 3150.7a6 6 0 0 1 6-6h120.63a6 6 0 0 1 6 6v44a6 6 0 0 1-6 6h-120.63a6 6 0 0 1-6-6z" stroke="#282c33" stroke-width="2" fill="#202c59"/><use xlink:href="#f" transform="matrix(1,0,0,1,-2387.9737962966137,3156.6887798230287) translate(-2.6676646484375155 24.08638876953125)"/><path d="M-2399.97 3232.5a6 6 0 0 1 6-6h120.63a6 6 0 0 1 6 6v44a6 6 0 0 1-6 6h-120.63a6 6 0 0 1-6-6z" stroke="#282c33" stroke-width="2" fill="#f72585"/><use xlink:href="#g" transform="matrix(1,0,0,1,-2387.9737962966133,3238.4884588948926) translate(29.47780771484375 25.0269572265625)"/><path d="M-2401.47 3172.7H-2412" stroke="#3a414a" fill="none"/><path d="M-2400.97 3173.17h-.52v-.95h.53zM-2412 3173.17h-.5v-.95h.5z" stroke="#3a414a" stroke-width=".05" fill="#3a414a"/><path d="M-2401.47 3254.5H-2412" stroke="#3a414a" fill="none"/><path d="M-2400.97 3254.97h-.52v-.95h.53zM-2412 3254.97h-.5v-.95h.5z" stroke="#3a414a" stroke-width=".05" fill="#3a414a"/><path d="M-2765.85 3144.34a6 6 0 0 1 6-6h128.27a6 6 0 0 1 6 6v56.7a6 6 0 0 1-6 6h-128.27a6 6 0 0 1-6-6z" stroke="#282c33" stroke-width="2" fill="#cfe4ff"/><use xlink:href="#a" transform="matrix(1,0,0,1,-2753.8522287286373,3150.343006104842) translate(0.3619791666666714 32.189670138888886)"/><use xlink:href="#b" transform="matrix(1,0,0,1,-2753.8522287286373,3150.343006104842) translate(60.6484375 32.189670138888886)"/><path d="M-2765.85 3226.14a6 6 0 0 1 6-6h128.27a6 6 0 0 1 6 6v56.7a6 6 0 0 1-6 6h-128.27a6 6 0 0 1-6-6z" stroke="#282c33" stroke-width="2" fill="#cfe4ff"/><use xlink:href="#a" transform="matrix(1,0,0,1,-2753.8522287286373,3232.1426851767064) translate(0.3619791666666714 32.189670138888886)"/><use xlink:href="#b" transform="matrix(1,0,0,1,-2753.8522287286373,3232.1426851767064) translate(60.6484375 32.189670138888886)"/><path d="M-2624.08 3172.7h34a6 6 0 0 0 6-6v-64.34" stroke="#3a414a" fill="none"/><path d="M-2624.07 3173.17h-.5v-.95h.5zM-2583.62 3102.37h-.95v-.5h.95z" stroke="#3a414a" stroke-width=".05" fill="#3a414a"/><path d="M-2555.28 3172.7h-22.8a6 6 0 0 1-6-6v-64.34" stroke="#3a414a" fill="none"/><path d="M-2554.78 3173.17h-.5v-.95h.5zM-2583.62 3102.37h-.95v-.5h.95z" stroke="#3a414a" stroke-width=".05" fill="#3a414a"/><path d="M-2624.08 3254.5h34a6 6 0 0 0 6-6v-146.14" stroke="#3a414a" fill="none"/><path d="M-2624.07 3254.97h-.5v-.95h.5zM-2583.62 3102.37h-.95v-.5h.95z" stroke="#3a414a" stroke-width=".05" fill="#3a414a"/><path d="M-2555.28 3254.5h-22.8a6 6 0 0 1-6-6v-146.14" stroke="#3a414a" fill="none"/><path d="M-2554.78 3254.97h-.5v-.95h.5zM-2583.62 3102.37h-.95v-.5h.95z" stroke="#3a414a" stroke-width=".05" fill="#3a414a"/><path d="M-2912.5 3232.5a6 6 0 0 1 6-6h120.62a6 6 0 0 1 6 6v44a6 6 0 0 1-6 6h-120.63a6 6 0 0 1-6-6z" stroke="#282c33" stroke-width="2" fill="#f72585"/><use xlink:href="#g" transform="matrix(1,0,0,1,-2900.51221740056,3238.4884588948926) translate(29.47780771484375 25.0269572265625)"/><path d="M-2912.5 3150.7a6 6 0 0 1 6-6h120.62a6 6 0 0 1 6 6v44a6 6 0 0 1-6 6h-120.63a6 6 0 0 1-6-6z" stroke="#282c33" stroke-width="2" fill="#f72585"/><use xlink:href="#g" transform="matrix(1,0,0,1,-2900.51221740056,3156.6887798230287) translate(29.47780771484375 25.0269572265625)"/><path d="M-2778.38 3172.7h11.03" stroke="#3a414a" fill="none"/><path d="M-2778.37 3173.17h-.5v-.95h.5zM-2766.85 3173.17h-.5v-.95h.5z" stroke="#3a414a" stroke-width=".05" fill="#3a414a"/><path d="M-2778.38 3254.5H-2767.35" stroke="#3a414a" fill="none"/><path d="M-2778.37 3254.97h-.5v-.95h.5zM-2766.85 3254.97h-.52v-.95h.52z" stroke="#3a414a" stroke-width=".05" fill="#3a414a"/><path d="M-2905.68 2850a6 6 0 0 1 6-6h120.63a6 6 0 0 1 6 6v44a6 6 0 0 1-6 6h-120.63a6 6 0 0 1-6-6z" stroke="#282c33" stroke-width="2" fill="#b8f5ed"/><use xlink:href="#h" transform="matrix(1,0,0,1,-2893.6840444210125,2856.0036193182987) translate(2.8896396484375018 25.0269572265625)"/><path d="M-2905.68 2918.67a6 6 0 0 1 6-6h120.63a6 6 0 0 1 6 6v44a6 6 0 0 1-6 6h-120.63a6 6 0 0 1-6-6z" stroke="#282c33" stroke-width="2" fill="#fc9432"/><use xlink:href="#i" transform="matrix(1,0,0,1,-2893.6840444210125,2924.6702859849656) translate(2.8896396484375018 25.0269572265625)"/><path d="M-2679.6 2918.67a6 6 0 0 1 6-6h61.8a6 6 0 0 1 6 6v43.35a6 6 0 0 1-6 6h-61.8a6 6 0 0 1-6-6z" stroke="#000" stroke-width="2" fill="#f2f3f5"/><use xlink:href="#j" transform="matrix(1,0,0,1,-2667.595428121568,2924.6702859849656) translate(7.297092013888889 23.52777777777778)"/><path d="M-2562.4 2918.67a6 6 0 0 1 6-6h61.8a6 6 0 0 1 6 6v43.35a6 6 0 0 1-6 6h-61.8a6 6 0 0 1-6-6z" stroke="#000" stroke-width="2" fill="#f2f3f5"/><use xlink:href="#j" transform="matrix(1,0,0,1,-2550.391187195179,2924.6702859849656) translate(7.297092013888889 23.52777777777778)"/><path d="M-2679.6 2850a6 6 0 0 1 6-6h61.8a6 6 0 0 1 6 6v43.36a6 6 0 0 1-6 6h-61.8a6 6 0 0 1-6-6z" stroke="#000" stroke-width="2" fill="#f2f3f5"/><use xlink:href="#j" transform="matrix(1,0,0,1,-2667.595428121568,2856.0036193182987) translate(7.297092013888889 23.52777777777778)"/><path d="M-2487.1 2940.35h147.44a6 6 0 0 1 6 6v180.95" stroke="#3a414a" fill="none"/><path d="M-2487.07 2940.82h-.52v-.95h.53z" stroke="#3a414a" stroke-width=".05" fill="#3a414a"/><path d="M-2333.66 3142.07l-4.63-14.27h9.28z" stroke="#3a414a" fill="#3a414a"/><path d="M-2681.1 2940.35h-45.06a.16.16 0 0 0-.16.16.16.16 0 0 1-.17.17h-45.05" stroke="#3a414a" fill="none"/><path d="M-2680.6 2940.82h-.5v-.95h.5zM-2771.54 2941.15h-.5v-.95h.5z" stroke="#3a414a" stroke-width=".05" fill="#3a414a"/><path d="M-2681.1 2871.68h-45.06a.16.16 0 0 0-.16.16.16.16 0 0 1-.17.17h-45.05" stroke="#3a414a" fill="none"/><path d="M-2680.6 2872.16h-.5v-.95h.5zM-2771.54 2872.48h-.5v-.95h.5z" stroke="#3a414a" stroke-width=".05" fill="#3a414a"/><path d="M-2234.72 3144.34a6 6 0 0 1 6-6h218.78a6 6 0 0 1 6 6v58.54a6 6 0 0 1-6 6h-218.78a6 6 0 0 1-6-6z" fill="none"/><use xlink:href="#k" transform="matrix(1,0,0,1,-2229.7188338510296,3143.343006104842) translate(0.11588541666668561 23.989583333333336)"/><use xlink:href="#l" transform="matrix(1,0,0,1,-2229.7188338510296,3143.343006104842) translate(84.18706597222224 23.989583333333336)"/><use xlink:href="#m" transform="matrix(1,0,0,1,-2229.7188338510296,3143.343006104842) translate(52.671223958333336 54.25217013888889)"/><use xlink:href="#n" transform="matrix(1,0,0,1,-2229.7188338510296,3143.343006104842) translate(121.12825520833334 54.25217013888889)"/><path d="M-2235.22 3173.6h-15.14a.17.17 0 0 1-.17-.16v-.18" stroke="#3a414a" fill="none"/><path d="M-2234.72 3174.1h-.5v-.96h.5z" stroke="#3a414a" stroke-width=".05" fill="#3a414a"/><path d="M-2264.72 3172.75l14.42-4.12-.34 9.27z" stroke="#3a414a" fill="#3a414a"/><path d="M-3191.86 2882.16a6 6 0 0 1 6-6h218.78a6 6 0 0 1 6 6v58.54a6 6 0 0 1-6 6h-218.78a6 6 0 0 1-6-6z" fill="none"/><use xlink:href="#k" transform="matrix(1,0,0,1,-3186.8619110786367,2881.1644284434724) translate(0.11588541666668561 23.989583333333336)"/><use xlink:href="#l" transform="matrix(1,0,0,1,-3186.8619110786367,2881.1644284434724) translate(84.18706597222224 23.989583333333336)"/><use xlink:href="#m" transform="matrix(1,0,0,1,-3186.8619110786367,2881.1644284434724) translate(52.671223958333336 54.25217013888889)"/><use xlink:href="#n" transform="matrix(1,0,0,1,-3186.8619110786367,2881.1644284434724) translate(121.12825520833334 54.25217013888889)"/><path d="M-3078.92 3151.6a6 6 0 0 1 6-6h120.63a6 6 0 0 1 6 6v44a6 6 0 0 1-6 6h-120.62a6 6 0 0 1-6-6z" stroke="#282c33" stroke-width="2" fill="#b8f5ed"/><use xlink:href="#h" transform="matrix(1,0,0,1,-3066.9189635211414,3157.6076398680148) translate(2.8896396484375018 25.0269572265625)"/><path d="M-2944.8 3173.6h14.9" stroke="#3a414a" fill="none"/><path d="M-2944.77 3174.1h-.52v-.96h.53z" stroke="#3a414a" stroke-width=".05" fill="#3a414a"/><path d="M-2915.13 3173.6l-14.27 4.65v-9.28z" stroke="#3a414a" fill="#3a414a"/><path d="M-2229.33 3232.5a6 6 0 0 1 6-6h120.63a6 6 0 0 1 6 6v44a6 6 0 0 1-6 6h-120.63a6 6 0 0 1-6-6z" stroke="#282c33" stroke-width="2" fill="#fc9432"/><g><use xlink:href="#i" transform="matrix(1,0,0,1,-2217.329136944178,3238.4884588948926) translate(2.8896396484375018 25.0269572265625)"/></g><path d="M-2230.83 3254.5h-19.13" stroke="#3a414a" fill="none"/><path d="M-2230.33 3254.97h-.5v-.95h.5z" stroke="#3a414a" stroke-width=".05" fill="#3a414a"/><path d="M-2264.72 3254.5l14.26-4.64v9.27z" stroke="#3a414a" fill="#3a414a"/><path d="M-2960.58 2911.43h20.7a6 6 0 0 0 6-6V2878a6 6 0 0 1 6-6h4.8" stroke="#3a414a" fill="none"/><path d="M-2960.57 2911.9h-.5v-.94h.5z" stroke="#3a414a" stroke-width=".05" fill="#3a414a"/><path d="M-2908.3 2872l-14.27 4.64v-9.27z" stroke="#3a414a" fill="#3a414a"/><path d="M-2960.58 2911.43h20.7a6 6 0 0 1 6 6v17.24a6 6 0 0 0 6 6h4.8" stroke="#3a414a" fill="none"/><path d="M-2960.57 2911.9h-.5v-.94h.5z" stroke="#3a414a" stroke-width=".05" fill="#3a414a"/><path d="M-2908.3 2940.67l-14.27 4.64v-9.26z" stroke="#3a414a" fill="#3a414a"/><defs><path fill="#011b3c" d="M1311 0h-170v-688H371V0H201v-1462h170v622h770v-622h170V0" id="o"/><path fill="#011b3c" d="M715 0H553c4-427-9-874 8-1288-79 77-94 81-285 239l-88-114 387-299h140V0" id="p"/><path fill="#011b3c" d="M1069-733c0 253-39 441-119 566S748 20 584 20c-157 0-277-64-359-192S102-486 102-733c0-255 40-444 119-567s200-185 363-185c159 0 280 64 362 193s123 315 123 559zm-724-463c-95 160-94 768 0 928 55 94 130 145 239 145 111 0 185-52 240-147 94-164 94-761 0-924-55-95-129-147-240-147-109 0-184 52-239 145" id="q"/><g id="a"><use transform="matrix(0.010850694444444444,0,0,0.010850694444444444,0,0)" xlink:href="#o"/><use transform="matrix(0.010850694444444444,0,0,0.010850694444444444,16.395399305555554,0)" xlink:href="#p"/><use transform="matrix(0.010850694444444444,0,0,0.010850694444444444,29.1015625,0)" xlink:href="#q"/><use transform="matrix(0.010850694444444444,0,0,0.010850694444444444,41.80772569444444,0)" xlink:href="#q"/></g><path fill="#011b3c" d="M152-1135c0-225 192-348 432-348 245 0 434 118 434 350 0 72-22 138-67 197S835-823 737-774c119 57 203 116 253 178s75 135 75 217c0 256-203 399-475 399-288 0-486-123-486-393 0-167 102-298 306-391-92-52-158-108-198-168s-60-128-60-203zM586-115c184 0 314-89 315-262 0-65-26-123-78-173s-143-99-272-146c-99 43-171 90-216 142s-67 113-67 185c1 172 134 254 318 254zm268-1013c-1-144-117-220-272-220-153 0-266 77-267 220 0 61 20 114 59 158s112 88 218 132c95-40 162-83 202-129s60-100 60-161" id="r"/><path fill="#011b3c" d="M305-731c0 386 189 602 569 602 101 0 200-12 297-35v-450H844v-152h497v711c-160 50-302 75-514 75-450 0-708-292-702-751 7-475 281-752 758-752 156 0 301 29 436 86l-66 150c-132-56-259-84-381-84-359-3-567 235-567 600" id="s"/><path fill="#011b3c" d="M1214-416C1213-138 1004 0 711 0H201v-1462h413c194 0 334 29 421 87s130 150 130 275c0 188-114 295-284 324v10c222 38 333 155 333 350zm-225-667c0-194-147-232-368-232H371v479h280c219-3 338-46 338-247zm43 655c0-204-147-264-370-264H371v547h305c220-1 356-73 356-283" id="t"/><g id="b"><use transform="matrix(0.010850694444444444,0,0,0.010850694444444444,0,0)" xlink:href="#r"/><use transform="matrix(0.010850694444444444,0,0,0.010850694444444444,12.706163194444445,0)" xlink:href="#q"/><use transform="matrix(0.010850694444444444,0,0,0.010850694444444444,25.41232638888889,0)" xlink:href="#s"/><use transform="matrix(0.010850694444444444,0,0,0.010850694444444444,41.59071180555556,0)" xlink:href="#t"/></g><path fill="#011b3c" d="M1016 0H201v-1462h815v151H371v471h606v150H371v538h645V0" id="u"/><path fill="#011b3c" d="M584-1331c-162 0-287 69-287 219 0 118 43 164 123 214 44 28 112 56 203 89 153 55 259 113 317 176s86 144 86 244c-1 276-228 409-520 409-173 0-307-22-400-67v-164c109 46 257 81 406 82 199 1 342-68 342-244 0-120-47-164-132-214-47-28-121-58-218-93-136-49-234-106-292-173s-87-154-87-261c-1-239 209-369 463-369 145 0 279 27 401 80l-53 148c-121-51-238-76-352-76" id="v"/><path fill="#011b3c" d="M1174 0H981L588-643 188 0H8l486-764-453-698h188l363 579 366-579h181L686-770" id="w"/><path fill="#011b3c" d="M342 0H176v-1096h166V0zm-82-1282c-61 0-98-43-98-111 0-69 36-110 98-110 59 0 98 43 98 110s-39 111-98 111" id="x"/><g id="c"><use transform="matrix(0.010850694444444444,0,0,0.010850694444444444,0,0)" xlink:href="#u"/><use transform="matrix(0.010850694444444444,0,0,0.010850694444444444,12.358940972222221,0)" xlink:href="#v"/><use transform="matrix(0.010850694444444444,0,0,0.010850694444444444,24.55512152777778,0)" xlink:href="#w"/><use transform="matrix(0.010850694444444444,0,0,0.010850694444444444,37.380642361111114,0)" xlink:href="#x"/></g><path fill="#011b3c" d="M621-1116c316 0 501 239 501 567 0 339-180 575-508 569S119-212 115-549c-4-339 178-567 506-567zm-5 141c-239 0-329 168-329 426 0 255 93 430 331 430s332-174 332-430-95-426-334-426" id="y"/><path fill="#011b3c" d="M502-977c-130 0-238 32-238 139 0 75 39 101 95 134 33 19 97 46 192 81 130 48 217 95 263 143s69 108 69 181C883-73 695 20 449 20 304 20 190-3 109-49v-154c91 47 216 86 344 86 149 0 270-36 270-168 0-43-21-76-55-109-56-55-367-158-434-208-74-55-128-109-128-225 0-327 490-342 754-217l-59 135c-110-45-210-68-299-68" id="z"/><path fill="#011b3c" d="M354-322c-2 123 60 204 176 205 51 1 114-10 150-20v127C647 7 557 20 506 20 294 20 188-92 188-315v-652H31v-80l157-69 70-234h96v254h318v129H354v645" id="A"/><g id="d"><use transform="matrix(0.010850694444444444,0,0,0.010850694444444444,0,0)" xlink:href="#o"/><use transform="matrix(0.010850694444444444,0,0,0.010850694444444444,16.395399305555554,0)" xlink:href="#y"/><use transform="matrix(0.010850694444444444,0,0,0.010850694444444444,29.81770833333333,0)" xlink:href="#z"/><use transform="matrix(0.010850694444444444,0,0,0.010850694444444444,40.41883680555555,0)" xlink:href="#A"/></g><use transform="matrix(0.010850694444444444,0,0,0.010850694444444444,0,0)" xlink:href="#p" id="e"/><path fill="#fff" d="M1128-1036c0 321-241 464-585 461H371V0H201v-1462h379c365 0 548 142 548 426zm-176 8c0-218-150-286-391-287H371v594h153c270-3 428-62 428-307" id="B"/><path fill="#fff" d="M588-1114c260 0 384 106 385 366V0H850l-33-156h-8C708-34 639 17 442 20 231 23 94-94 94-303c0-221 177-337 531-348l186-6c11-203-40-320-233-320-91 0-195 28-310 84l-51-127c97-53 229-94 371-94zM268-301c-1 123 81 184 207 184 203 0 334-120 332-323v-99c-257 14-539-7-539 238" id="C"/><path fill="#fff" d="M502-977c-130 0-238 32-238 139 0 75 39 101 95 134 33 19 97 46 192 81 130 48 217 95 263 143s69 108 69 181C883-73 695 20 449 20 304 20 190-3 109-49v-154c91 47 216 86 344 86 149 0 270-36 270-168 0-43-21-76-55-109-56-55-367-158-434-208-74-55-128-109-128-225 0-327 490-342 754-217l-59 135c-110-45-210-68-299-68" id="D"/><path fill="#fff" d="M354-322c-2 123 60 204 176 205 51 1 114-10 150-20v127C647 7 557 20 506 20 294 20 188-92 188-315v-652H31v-80l157-69 70-234h96v254h318v129H354v645" id="E"/><path fill="#fff" d="M690-1114c271 2 402 123 402 399V0H926v-709c-1-177-76-266-252-266-251 0-332 135-332 402V0H176v-1556h166c-4 200 8 426-8 612h10c61-100 187-171 346-170" id="F"/><path fill="#fff" d="M340-893c80-153 237-262 467-211l-23 154c-45-10-85-15-120-15-184-3-322 182-322 377V0H176v-1096h137l19 203h8" id="G"/><path fill="#fff" d="M621-1116c316 0 501 239 501 567 0 339-180 575-508 569S119-212 115-549c-4-339 178-567 506-567zm-5 141c-239 0-329 168-329 426 0 255 93 430 331 430s332-174 332-430-95-426-334-426" id="H"/><path fill="#fff" d="M563 20c-271 0-399-123-399-399v-717h168v711c1 177 76 266 252 266 250 0 331-135 331-401v-576h166V0H944l-24-147h-9C848-44 724 20 563 20" id="I"/><path fill="#fff" d="M125-741c0-247 161-377 414-375 57 0 109 7 155 20h379v105l-203 24c37 48 72 129 72 219 0 255-227 390-504 345-71 37-106 84-106 141 0 78 66 88 164 88h194c219-1 369 87 369 293 0 121-49 213-146 277s-239 96-426 96c-250 0-448-83-448-306C39 36 147-58 283-86c-52-23-102-79-99-152 4-104 57-143 133-192-107-42-192-164-192-311zM438-25c-143-1-242 70-239 209s131 181 290 181c139 0 242-21 309-63s101-98 101-169c0-147-88-158-262-158H438zm94-970c-158 0-243 88-243 250 0 153 93 233 246 233 162 0 243-79 243-236 0-165-82-247-246-247" id="J"/><g id="f"><use transform="matrix(0.009548632812500001,0,0,0.009548632812500001,0,0)" xlink:href="#B"/><use transform="matrix(0.009548632812500001,0,0,0.009548632812500001,11.7734642578125,0)" xlink:href="#C"/><use transform="matrix(0.009548632812500001,0,0,0.009548632812500001,22.649357031250002,0)" xlink:href="#D"/><use transform="matrix(0.009548632812500001,0,0,0.009548632812500001,31.978371289062505,0)" xlink:href="#D"/><use transform="matrix(0.009548632812500001,0,0,0.009548632812500001,41.307385546875004,0)" xlink:href="#E"/><use transform="matrix(0.009548632812500001,0,0,0.009548632812500001,48.2110470703125,0)" xlink:href="#F"/><use transform="matrix(0.009548632812500001,0,0,0.009548632812500001,60.213678515625006,0)" xlink:href="#G"/><use transform="matrix(0.009548632812500001,0,0,0.009548632812500001,67.80484160156252,0)" xlink:href="#H"/><use transform="matrix(0.009548632812500001,0,0,0.009548632812500001,79.61650039062502,0)" xlink:href="#I"/><use transform="matrix(0.009548632812500001,0,0,0.009548632812500001,91.61913183593752,0)" xlink:href="#J"/><use transform="matrix(0.009548632812500001,0,0,0.009548632812500001,102.33269785156253,0)" xlink:href="#F"/></g><path fill="#fff" d="M516-150c94-315 146-423 332-946h178L610 0H416L0-1096h178c98 281 253 670 330 946h8" id="K"/><path fill="#fff" d="M305-731c0 386 189 602 569 602 101 0 200-12 297-35v-450H844v-152h497v711c-160 50-302 75-514 75-450 0-708-292-702-751 7-475 281-752 758-752 156 0 301 29 436 86l-66 150c-132-56-259-84-381-84-359-3-567 235-567 600" id="L"/><path fill="#fff" d="M750-129c245 0 385-137 385-381v-952h170v946c3 336-225 536-566 536-344 0-553-202-553-540v-942h170v954c0 248 141 379 394 379" id="M"/><g id="g"><use transform="matrix(0.009548632812500001,0,0,0.009548632812500001,0,0)" xlink:href="#K"/><use transform="matrix(0.009548632812500001,0,0,0.009548632812500001,9.796897265625,0)" xlink:href="#L"/><use transform="matrix(0.009548632812500001,0,0,0.009548632812500001,24.0339087890625,0)" xlink:href="#B"/><use transform="matrix(0.009548632812500001,0,0,0.009548632812500001,35.807373046875,0)" xlink:href="#M"/></g><path d="M1311 0h-170v-688H371V0H201v-1462h170v622h770v-622h170V0" id="N"/><path d="M715 0H553c4-427-9-874 8-1288-79 77-94 81-285 239l-88-114 387-299h140V0" id="O"/><path d="M1069-733c0 253-39 441-119 566S748 20 584 20c-157 0-277-64-359-192S102-486 102-733c0-255 40-444 119-567s200-185 363-185c159 0 280 64 362 193s123 315 123 559zm-724-463c-95 160-94 768 0 928 55 94 130 145 239 145 111 0 185-52 240-147 94-164 94-761 0-924-55-95-129-147-240-147-109 0-184 52-239 145" id="P"/><path d="M649-1462c450-4 719 268 719 717 0 484-276 748-762 745H201v-1462h448zM578-147c400 1 610-197 610-592 1-379-192-576-570-576H371v1168h207" id="Q"/><path d="M84-473v-152h491v152H84" id="R"/><path d="M152-1135c0-225 192-348 432-348 245 0 434 118 434 350 0 72-22 138-67 197S835-823 737-774c119 57 203 116 253 178s75 135 75 217c0 256-203 399-475 399-288 0-486-123-486-393 0-167 102-298 306-391-92-52-158-108-198-168s-60-128-60-203zM586-115c184 0 314-89 315-262 0-65-26-123-78-173s-143-99-272-146c-99 43-171 90-216 142s-67 113-67 185c1 172 134 254 318 254zm268-1013c-1-144-117-220-272-220-153 0-266 77-267 220 0 61 20 114 59 158s112 88 218 132c95-40 162-83 202-129s60-100 60-161" id="S"/><path d="M125-733c6-459 248-750 704-750 153 0 287 28 402 84l-72 146c-111-52-221-78-332-78-334-1-520 251-520 600 0 361 171 600 518 600 102 0 218-18 349-55v149C1073 1 948 20 799 20c-445 1-680-294-674-753" id="T"/><g id="h"><use transform="matrix(0.009548632812500001,0,0,0.009548632812500001,0,0)" xlink:href="#N"/><use transform="matrix(0.009548632812500001,0,0,0.009548632812500001,14.4279841796875,0)" xlink:href="#O"/><use transform="matrix(0.009548632812500001,0,0,0.009548632812500001,25.609433203125004,0)" xlink:href="#P"/><use transform="matrix(0.009548632812500001,0,0,0.009548632812500001,36.7908822265625,0)" xlink:href="#P"/><use transform="matrix(0.009548632812500001,0,0,0.009548632812500001,47.97233125,0)" xlink:href="#Q"/><use transform="matrix(0.009548632812500001,0,0,0.009548632812500001,62.228440039062505,0)" xlink:href="#R"/><use transform="matrix(0.009548632812500001,0,0,0.009548632812500001,68.5209890625,0)" xlink:href="#S"/><use transform="matrix(0.009548632812500001,0,0,0.009548632812500001,79.7024380859375,0)" xlink:href="#P"/><use transform="matrix(0.009548632812500001,0,0,0.009548632812500001,90.883887109375,0)" xlink:href="#T"/></g><path d="M1130-336H913V0H754v-336H43v-145l694-989h176v983h217v151zM754-487c2-284-7-530 10-809h-8c-32 64-61 118-90 159L209-487h545" id="U"/><g id="i"><use transform="matrix(0.009548632812500001,0,0,0.009548632812500001,0,0)" xlink:href="#N"/><use transform="matrix(0.009548632812500001,0,0,0.009548632812500001,14.4279841796875,0)" xlink:href="#O"/><use transform="matrix(0.009548632812500001,0,0,0.009548632812500001,25.609433203125004,0)" xlink:href="#P"/><use transform="matrix(0.009548632812500001,0,0,0.009548632812500001,36.7908822265625,0)" xlink:href="#P"/><use transform="matrix(0.009548632812500001,0,0,0.009548632812500001,47.97233125,0)" xlink:href="#Q"/><use transform="matrix(0.009548632812500001,0,0,0.009548632812500001,62.228440039062505,0)" xlink:href="#R"/><use transform="matrix(0.009548632812500001,0,0,0.009548632812500001,68.5209890625,0)" xlink:href="#U"/><use transform="matrix(0.009548632812500001,0,0,0.009548632812500001,79.7024380859375,0)" xlink:href="#P"/><use transform="matrix(0.009548632812500001,0,0,0.009548632812500001,90.883887109375,0)" xlink:href="#T"/></g><path d="M600 0L52-1490h200c166 485 304 806 458 1336 156-533 285-846 449-1336h202L819 0H600" id="V"/><path d="M180 0v-1490h270l367 940c28 72 75 218 110 339 35-117 81-264 110-339l362-940h271V0h-187c2-448-5-837 7-1287-157 497-311 829-483 1287H842C666-458 514-784 354-1284c12 438 5 843 7 1284H180" id="W"/><g id="j"><use transform="matrix(0.010850694444444444,0,0,0.010850694444444444,0,0)" xlink:href="#V"/><use transform="matrix(0.010850694444444444,0,0,0.010850694444444444,15.33203125,0)" xlink:href="#W"/></g><path fill="#011b3c" d="M125-733c6-459 248-750 704-750 153 0 287 28 402 84l-72 146c-111-52-221-78-332-78-334-1-520 251-520 600 0 361 171 600 518 600 102 0 218-18 349-55v149C1073 1 948 20 799 20c-445 1-680-294-674-753" id="X"/><path fill="#011b3c" d="M690-1114c271 2 402 123 402 399V0H926v-709c-1-177-76-266-252-266-251 0-332 135-332 402V0H176v-1556h166c-4 200 8 426-8 612h10c61-100 187-171 346-170" id="Y"/><path fill="#011b3c" d="M588-1114c260 0 384 106 385 366V0H850l-33-156h-8C708-34 639 17 442 20 231 23 94-94 94-303c0-221 177-337 531-348l186-6c11-203-40-320-233-320-91 0-195 28-310 84l-51-127c97-53 229-94 371-94zM268-301c-1 123 81 184 207 184 203 0 334-120 332-323v-99c-257 14-539-7-539 238" id="Z"/><path fill="#011b3c" d="M694-1116c270 0 399 125 398 401V0H926v-709c-1-177-76-266-252-266-250 0-332 133-332 400V0H176v-1096h135l27 150h8c62-101 190-170 348-170" id="aa"/><path fill="#011b3c" d="M125-741c0-247 161-377 414-375 57 0 109 7 155 20h379v105l-203 24c37 48 72 129 72 219 0 255-227 390-504 345-71 37-106 84-106 141 0 78 66 88 164 88h194c219-1 369 87 369 293 0 121-49 213-146 277s-239 96-426 96c-250 0-448-83-448-306C39 36 147-58 283-86c-52-23-102-79-99-152 4-104 57-143 133-192-107-42-192-164-192-311zM438-25c-143-1-242 70-239 209s131 181 290 181c139 0 242-21 309-63s101-98 101-169c0-147-88-158-262-158H438zm94-970c-158 0-243 88-243 250 0 153 93 233 246 233 162 0 243-79 243-236 0-165-82-247-246-247" id="ab"/><path fill="#011b3c" d="M995-51C878-2 799 19 639 20c-329 2-524-221-524-559 0-326 172-577 481-577 278 0 451 210 446 493v105H287c4 242 121 392 358 393 118 0 235-25 350-74v148zM864-653c2-195-85-324-270-324-190 0-288 139-303 324h573" id="ac"/><g id="k"><use transform="matrix(0.010850694444444444,0,0,0.010850694444444444,0,0)" xlink:href="#X"/><use transform="matrix(0.010850694444444444,0,0,0.010850694444444444,14.019097222222221,0)" xlink:href="#Y"/><use transform="matrix(0.010850694444444444,0,0,0.010850694444444444,27.65842013888889,0)" xlink:href="#Z"/><use transform="matrix(0.010850694444444444,0,0,0.010850694444444444,40.01736111111111,0)" xlink:href="#aa"/><use transform="matrix(0.010850694444444444,0,0,0.010850694444444444,53.65668402777778,0)" xlink:href="#ab"/><use transform="matrix(0.010850694444444444,0,0,0.010850694444444444,65.83116319444444,0)" xlink:href="#ac"/></g><path fill="#011b3c" d="M287-543c-1 247 91 418 323 418 91 0 185-20 281-59v147C818 1 725 20 614 20c-329 0-499-221-499-561 0-349 172-575 510-575 96 0 221 26 282 57l-51 141c-61-25-157-50-235-51-223 0-334 142-334 426" id="ad"/><path fill="#011b3c" d="M563 20c-271 0-399-123-399-399v-717h168v711c1 177 76 266 252 266 250 0 331-135 331-401v-576h166V0H944l-24-147h-9C848-44 724 20 563 20" id="ae"/><path fill="#011b3c" d="M1368-1116c259 2 372 131 371 401V0h-166v-713c0-168-66-262-230-262-221 0-303 131-303 363V0H874v-713c-1-169-66-262-231-262-235 0-301 142-301 400V0H176v-1096h135l27 150h8c56-99 174-170 324-170 171 0 283 62 336 186h8c60-108 189-187 354-186" id="af"/><path fill="#011b3c" d="M1141-549c0 329-147 569-455 569-159 0-273-61-344-161h-12c23 199 7 418 12 633H176v-1588h135l23 150h8c77-108 175-170 344-170 311 0 455 237 455 567zm-172-2c0-242-88-424-307-424-256 0-323 154-320 426 3 280 68 430 324 430 213 0 303-196 303-432" id="ag"/><g id="l"><use transform="matrix(0.010850694444444444,0,0,0.010850694444444444,0,0)" xlink:href="#ad"/><use transform="matrix(0.010850694444444444,0,0,0.010850694444444444,10.579427083333332,0)" xlink:href="#y"/><use transform="matrix(0.010850694444444444,0,0,0.010850694444444444,24.001736111111104,0)" xlink:href="#aa"/><use transform="matrix(0.010850694444444444,0,0,0.010850694444444444,37.64105902777777,0)" xlink:href="#z"/><use transform="matrix(0.010850694444444444,0,0,0.010850694444444444,48.242187499999986,0)" xlink:href="#ae"/><use transform="matrix(0.010850694444444444,0,0,0.010850694444444444,61.88151041666666,0)" xlink:href="#af"/><use transform="matrix(0.010850694444444444,0,0,0.010850694444444444,82.55208333333331,0)" xlink:href="#ag"/><use transform="matrix(0.010850694444444444,0,0,0.010850694444444444,96.16970486111109,0)" xlink:href="#A"/><use transform="matrix(0.010850694444444444,0,0,0.010850694444444444,104.01475694444441,0)" xlink:href="#x"/><use transform="matrix(0.010850694444444444,0,0,0.010850694444444444,109.63541666666664,0)" xlink:href="#y"/><use transform="matrix(0.010850694444444444,0,0,0.010850694444444444,123.05772569444441,0)" xlink:href="#aa"/></g><g id="m"><use transform="matrix(0.010850694444444444,0,0,0.010850694444444444,0,0)" xlink:href="#z"/><use transform="matrix(0.010850694444444444,0,0,0.010850694444444444,10.601128472222221,0)" xlink:href="#Y"/><use transform="matrix(0.010850694444444444,0,0,0.010850694444444444,24.24045138888889,0)" xlink:href="#Z"/><use transform="matrix(0.010850694444444444,0,0,0.010850694444444444,36.59939236111111,0)" xlink:href="#ag"/><use transform="matrix(0.010850694444444444,0,0,0.010850694444444444,50.217013888888886,0)" xlink:href="#ac"/></g><path fill="#011b3c" d="M340-893c80-153 237-262 467-211l-23 154c-45-10-85-15-120-15-184-3-322 182-322 377V0H176v-1096h137l19 203h8" id="ah"/><g id="n"><use transform="matrix(0.010850694444444444,0,0,0.010850694444444444,0,0)" xlink:href="#Y"/><use transform="matrix(0.010850694444444444,0,0,0.010850694444444444,13.639322916666666,0)" xlink:href="#ac"/><use transform="matrix(0.010850694444444444,0,0,0.010850694444444444,26.106770833333332,0)" xlink:href="#ah"/><use transform="matrix(0.010850694444444444,0,0,0.010850694444444444,34.733072916666664,0)" xlink:href="#ac"/></g></defs></g></svg>