<?xml version="1.0" encoding="UTF-8" standalone="no"?>
<!DOCTYPE svg PUBLIC "-//W3C//DTD SVG 1.1//EN" "http://www.w3.org/Graphics/SVG/1.1/DTD/svg11.dtd">
<svg version="1.1" xmlns="http://www.w3.org/2000/svg" xmlns:dc="http://purl.org/dc/elements/1.1/" xmlns:xl="http://www.w3.org/1999/xlink" viewBox="-832 273 1519 232" width="1519" height="232">
  <defs/>
  <g id="Canvas_1" fill-opacity="1" stroke-opacity="1" stroke-dasharray="none" stroke="none" fill="none">
    <title>Canvas 1</title>
    <rect fill="white" x="-832" y="273" width="1519" height="232"/>
    <g id="Canvas_1_Layer_1">
      <title>Layer 1</title>
      <g id="Group_234">
        <g id="Graphic_83">
          <rect x="-684.0646" y="481.88306" width="19" height="19" fill="#f95700"/>
        </g>
        <g id="Graphic_82">
          <rect x="-661.13715" y="481.88306" width="19" height="19" fill="#f95700"/>
        </g>
        <g id="Graphic_81">
          <rect x="-638.20975" y="481.88306" width="19" height="19" fill="#63e5ff"/>
        </g>
        <g id="Graphic_80">
          <rect x="-615.28234" y="481.88306" width="19" height="19" fill="#63e5ff"/>
        </g>
        <g id="Graphic_79">
          <rect x="-775.7742" y="481.88306" width="19" height="19" fill="#78be20"/>
        </g>
        <g id="Graphic_78">
          <rect x="-752.8468" y="481.88306" width="19" height="19" fill="#f95700"/>
        </g>
        <g id="Graphic_77">
          <rect x="-729.9194" y="481.88306" width="19" height="19" fill="#f95700"/>
        </g>
        <g id="Graphic_76">
          <rect x="-706.992" y="481.88306" width="19" height="19" fill="#f95700"/>
        </g>
        <g id="Graphic_75">
          <rect x="-500.6453" y="481.88306" width="19" height="19" fill="#63e5ff"/>
        </g>
        <g id="Graphic_74">
          <rect x="-477.7179" y="481.88306" width="19" height="19" fill="#63e5ff"/>
        </g>
        <g id="Graphic_73">
          <rect x="-454.7905" y="481.88306" width="19" height="19" fill="#63e5ff"/>
        </g>
        <g id="Graphic_72">
          <rect x="-431.8631" y="481.88306" width="19" height="19" fill="#63e5ff"/>
        </g>
        <g id="Graphic_71">
          <rect x="-592.3549" y="481.88306" width="19" height="19" fill="#63e5ff"/>
        </g>
        <g id="Graphic_70">
          <rect x="-569.4275" y="481.88306" width="19" height="19" fill="#63e5ff"/>
        </g>
        <g id="Graphic_69">
          <rect x="-546.5001" y="481.88306" width="19" height="19" fill="#63e5ff"/>
        </g>
        <g id="Graphic_68">
          <rect x="-523.5727" y="481.88306" width="19" height="19" fill="#63e5ff"/>
        </g>
      </g>
      <g id="Graphic_165">
        <rect x="414.972" y="339.2258" width="19" height="19" fill="#63e5ff"/>
      </g>
      <g id="Graphic_164">
        <rect x="437.89943" y="339.2258" width="19" height="19" fill="#63e5ff"/>
      </g>
      <g id="Graphic_163">
        <rect x="460.82684" y="339.2258" width="19" height="19" fill="#63e5ff"/>
      </g>
      <g id="Graphic_162">
        <rect x="483.75424" y="339.2258" width="19" height="19" fill="#63e5ff"/>
      </g>
      <g id="Graphic_161">
        <rect x="323.2624" y="339.2258" width="19" height="19" fill="#63e5ff"/>
      </g>
      <g id="Graphic_160">
        <rect x="346.1898" y="339.2258" width="19" height="19" fill="#63e5ff"/>
      </g>
      <g id="Graphic_159">
        <rect x="369.1172" y="339.2258" width="19" height="19" fill="#63e5ff"/>
      </g>
      <g id="Graphic_158">
        <rect x="392.0446" y="339.2258" width="19" height="19" fill="#63e5ff"/>
      </g>
      <g id="Graphic_157">
        <rect x="598.3913" y="339.2258" width="19" height="19" fill="#63e5ff"/>
      </g>
      <g id="Graphic_156">
        <rect x="621.3187" y="339.2258" width="19" height="19" fill="#63e5ff"/>
      </g>
      <g id="Graphic_155">
        <rect x="644.2461" y="339.2258" width="19" height="19" fill="#63e5ff"/>
      </g>
      <g id="Graphic_154">
        <rect x="667.1735" y="339.2258" width="19" height="19" fill="#63e5ff"/>
      </g>
      <g id="Graphic_153">
        <rect x="506.68165" y="339.2258" width="19" height="19" fill="#63e5ff"/>
      </g>
      <g id="Graphic_152">
        <rect x="529.60906" y="339.2258" width="19" height="19" fill="#63e5ff"/>
      </g>
      <g id="Graphic_151">
        <rect x="552.5365" y="339.2258" width="19" height="19" fill="#63e5ff"/>
      </g>
      <g id="Graphic_150">
        <rect x="575.4639" y="339.2258" width="19" height="19" fill="#63e5ff"/>
      </g>
      <g id="Graphic_149">
        <rect x="48.13349" y="339.2258" width="19" height="19" fill="#63e5ff"/>
      </g>
      <g id="Graphic_148">
        <rect x="71.0609" y="339.2258" width="19" height="19" fill="#63e5ff"/>
      </g>
      <g id="Graphic_147">
        <rect x="93.98831" y="339.2258" width="19" height="19" fill="#63e5ff"/>
      </g>
      <g id="Graphic_146">
        <rect x="116.91572" y="339.2258" width="19" height="19" fill="#63e5ff"/>
      </g>
      <g id="Graphic_145">
        <rect x="-43.57614" y="339.2258" width="19" height="19" fill="#63e5ff"/>
      </g>
      <g id="Graphic_144">
        <rect x="-20.648731" y="339.2258" width="19" height="19" fill="#63e5ff"/>
      </g>
      <g id="Graphic_143">
        <rect x="2.2786767" y="339.2258" width="19" height="19" fill="#63e5ff"/>
      </g>
      <g id="Graphic_142">
        <rect x="25.206085" y="339.2258" width="19" height="19" fill="#63e5ff"/>
      </g>
      <g id="Graphic_141">
        <rect x="231.55276" y="339.2258" width="19" height="19" fill="#63e5ff"/>
      </g>
      <g id="Graphic_140">
        <rect x="254.48016" y="339.2258" width="19" height="19" fill="#63e5ff"/>
      </g>
      <g id="Graphic_139">
        <rect x="277.40757" y="339.2258" width="19" height="19" fill="#63e5ff"/>
      </g>
      <g id="Graphic_138">
        <rect x="300.33498" y="339.2258" width="19" height="19" fill="#63e5ff"/>
      </g>
      <g id="Graphic_137">
        <rect x="139.84312" y="339.2258" width="19" height="19" fill="#63e5ff"/>
      </g>
      <g id="Graphic_136">
        <rect x="162.77053" y="339.2258" width="19" height="19" fill="#63e5ff"/>
      </g>
      <g id="Graphic_135">
        <rect x="185.69794" y="339.2258" width="19" height="19" fill="#63e5ff"/>
      </g>
      <g id="Graphic_134">
        <rect x="208.62535" y="339.2258" width="19" height="19" fill="#63e5ff"/>
      </g>
      <g id="Graphic_133">
        <rect x="-318.70503" y="339.2258" width="19" height="19" fill="#63e5ff"/>
      </g>
      <g id="Graphic_132">
        <rect x="-295.77763" y="339.2258" width="19" height="19" fill="#63e5ff"/>
      </g>
      <g id="Graphic_131">
        <rect x="-272.85022" y="339.2258" width="19" height="19" fill="#63e5ff"/>
      </g>
      <g id="Graphic_130">
        <rect x="-249.9228" y="339.2258" width="19" height="19" fill="#63e5ff"/>
      </g>
      <g id="Graphic_129">
        <rect x="-410.41467" y="339.2258" width="19" height="19" fill="#63e5ff"/>
      </g>
      <g id="Graphic_128">
        <rect x="-387.48726" y="339.2258" width="19" height="19" fill="#63e5ff"/>
      </g>
      <g id="Graphic_127">
        <rect x="-364.55985" y="339.2258" width="19" height="19" fill="#63e5ff"/>
      </g>
      <g id="Graphic_126">
        <rect x="-341.63244" y="339.2258" width="19" height="19" fill="#63e5ff"/>
      </g>
      <g id="Graphic_125">
        <rect x="-135.28577" y="339.2258" width="19" height="19" fill="#63e5ff"/>
      </g>
      <g id="Graphic_124">
        <rect x="-112.35836" y="339.2258" width="19" height="19" fill="#63e5ff"/>
      </g>
      <g id="Graphic_123">
        <rect x="-89.43096" y="339.2258" width="19" height="19" fill="#63e5ff"/>
      </g>
      <g id="Graphic_122">
        <rect x="-66.50355" y="339.2258" width="19" height="19" fill="#63e5ff"/>
      </g>
      <g id="Graphic_121">
        <rect x="-226.9954" y="339.2258" width="19" height="19" fill="#63e5ff"/>
      </g>
      <g id="Graphic_120">
        <rect x="-204.068" y="339.2258" width="19" height="19" fill="#63e5ff"/>
      </g>
      <g id="Graphic_119">
        <rect x="-181.14059" y="339.2258" width="19" height="19" fill="#63e5ff"/>
      </g>
      <g id="Graphic_118">
        <rect x="-158.21318" y="339.2258" width="19" height="19" fill="#63e5ff"/>
      </g>
      <g id="Graphic_117">
        <rect x="-685.5436" y="339.2258" width="19" height="19" fill="#f95700"/>
      </g>
      <g id="Graphic_116">
        <rect x="-662.61615" y="339.2258" width="19" height="19" fill="#f95700"/>
      </g>
      <g id="Graphic_115">
        <rect x="-639.68875" y="339.2258" width="19" height="19" fill="#f95700"/>
      </g>
      <g id="Graphic_114">
        <rect x="-616.76134" y="339.2258" width="19" height="19" fill="#f95700"/>
      </g>
      <g id="Graphic_113">
        <rect x="-777.2532" y="339.2258" width="19" height="19" fill="#78be20"/>
      </g>
      <g id="Graphic_112">
        <rect x="-754.3258" y="339.2258" width="19" height="19" fill="#f95700"/>
      </g>
      <g id="Graphic_111">
        <rect x="-731.3984" y="339.2258" width="19" height="19" fill="#f95700"/>
      </g>
      <g id="Graphic_110">
        <rect x="-708.471" y="339.2258" width="19" height="19" fill="#f95700"/>
      </g>
      <g id="Graphic_109">
        <rect x="-502.1243" y="339.2258" width="19" height="19" fill="#63e5ff"/>
      </g>
      <g id="Graphic_108">
        <rect x="-479.1969" y="339.2258" width="19" height="19" fill="#63e5ff"/>
      </g>
      <g id="Graphic_107">
        <rect x="-456.2695" y="339.2258" width="19" height="19" fill="#63e5ff"/>
      </g>
      <g id="Graphic_106">
        <rect x="-433.3421" y="339.2258" width="19" height="19" fill="#63e5ff"/>
      </g>
      <g id="Graphic_105">
        <rect x="-593.8339" y="339.2258" width="19" height="19" fill="#f95700"/>
      </g>
      <g id="Graphic_104">
        <rect x="-570.9065" y="339.2258" width="19" height="19" fill="#f95700"/>
      </g>
      <g id="Graphic_103">
        <rect x="-547.9791" y="339.2258" width="19" height="19" fill="#f95700"/>
      </g>
      <g id="Graphic_102">
        <rect x="-525.0517" y="339.2258" width="19" height="19" fill="#f95700"/>
      </g>
      <g id="Group_235">
        <g id="Graphic_198">
          <rect x="-317.22603" y="411.77823" width="19" height="19" fill="#63e5ff"/>
        </g>
        <g id="Graphic_197">
          <rect x="-294.29863" y="411.77823" width="19" height="19" fill="#63e5ff"/>
        </g>
        <g id="Graphic_196">
          <rect x="-271.37122" y="411.77823" width="19" height="19" fill="#63e5ff"/>
        </g>
        <g id="Graphic_195">
          <rect x="-248.4438" y="411.77823" width="19" height="19" fill="#63e5ff"/>
        </g>
        <g id="Graphic_194">
          <rect x="-408.93567" y="411.77823" width="19" height="19" fill="#63e5ff"/>
        </g>
        <g id="Graphic_193">
          <rect x="-386.00826" y="411.77823" width="19" height="19" fill="#63e5ff"/>
        </g>
        <g id="Graphic_192">
          <rect x="-363.08085" y="411.77823" width="19" height="19" fill="#63e5ff"/>
        </g>
        <g id="Graphic_191">
          <rect x="-340.15344" y="411.77823" width="19" height="19" fill="#63e5ff"/>
        </g>
        <g id="Graphic_190">
          <rect x="-133.80677" y="411.77823" width="19" height="19" fill="#63e5ff"/>
        </g>
        <g id="Graphic_189">
          <rect x="-110.87936" y="411.77823" width="19" height="19" fill="#63e5ff"/>
        </g>
        <g id="Graphic_188">
          <rect x="-87.95196" y="411.77823" width="19" height="19" fill="#63e5ff"/>
        </g>
        <g id="Graphic_187">
          <rect x="-65.02455" y="411.77823" width="19" height="19" fill="#63e5ff"/>
        </g>
        <g id="Graphic_186">
          <rect x="-225.5164" y="411.77823" width="19" height="19" fill="#63e5ff"/>
        </g>
        <g id="Graphic_185">
          <rect x="-202.589" y="411.77823" width="19" height="19" fill="#63e5ff"/>
        </g>
        <g id="Graphic_184">
          <rect x="-179.66159" y="411.77823" width="19" height="19" fill="#63e5ff"/>
        </g>
        <g id="Graphic_183">
          <rect x="-156.73418" y="411.77823" width="19" height="19" fill="#63e5ff"/>
        </g>
        <g id="Graphic_182">
          <rect x="-684.0646" y="411.77823" width="19" height="19" fill="#f95700"/>
        </g>
        <g id="Graphic_181">
          <rect x="-661.13715" y="411.77823" width="19" height="19" fill="#f95700"/>
        </g>
        <g id="Graphic_180">
          <rect x="-638.20975" y="411.77823" width="19" height="19" fill="#f95700"/>
        </g>
        <g id="Graphic_179">
          <rect x="-615.28234" y="411.77823" width="19" height="19" fill="#f95700"/>
        </g>
        <g id="Graphic_178">
          <rect x="-775.7742" y="411.77823" width="19" height="19" fill="#78be20"/>
        </g>
        <g id="Graphic_177">
          <rect x="-752.8468" y="411.77823" width="19" height="19" fill="#f95700"/>
        </g>
        <g id="Graphic_176">
          <rect x="-729.9194" y="411.77823" width="19" height="19" fill="#f95700"/>
        </g>
        <g id="Graphic_175">
          <rect x="-706.992" y="411.77823" width="19" height="19" fill="#f95700"/>
        </g>
        <g id="Graphic_174">
          <rect x="-500.6453" y="411.77823" width="19" height="19" fill="#63e5ff"/>
        </g>
        <g id="Graphic_173">
          <rect x="-477.7179" y="411.77823" width="19" height="19" fill="#63e5ff"/>
        </g>
        <g id="Graphic_172">
          <rect x="-454.7905" y="411.77823" width="19" height="19" fill="#63e5ff"/>
        </g>
        <g id="Graphic_171">
          <rect x="-431.8631" y="411.77823" width="19" height="19" fill="#63e5ff"/>
        </g>
        <g id="Graphic_170">
          <rect x="-592.3549" y="411.77823" width="19" height="19" fill="#f95700"/>
        </g>
        <g id="Graphic_169">
          <rect x="-569.4275" y="411.77823" width="19" height="19" fill="#63e5ff"/>
        </g>
        <g id="Graphic_168">
          <rect x="-546.5001" y="411.77823" width="19" height="19" fill="#63e5ff"/>
        </g>
        <g id="Graphic_167">
          <rect x="-523.5727" y="411.77823" width="19" height="19" fill="#63e5ff"/>
        </g>
      </g>
      <g id="Line_238">
        <line x1="-765.979" y1="302.4374" x2="-765.979" y2="316.7884" stroke="#89cbdf" stroke-linecap="square" stroke-linejoin="round" stroke-dasharray="2.0,2.0" stroke-width="1"/>
      </g>
      <g id="Graphic_237">
        <text transform="translate(-797 278)" fill="#006990">
          <tspan font-family="Metropolis" font-size="14" fill="#006990" x="1.925" y="14">Sign 1 bit </tspan>
        </text>
      </g>
      <g id="Line_239">
        <line x1="-751.479" y1="321" x2="-506.0517" y2="321" stroke="#89cbdf" stroke-linecap="square" stroke-linejoin="round" stroke-dasharray="2.0,2.0" stroke-width="1"/>
      </g>
      <g id="Graphic_240">
        <rect x="-686.1252" y="307.5" width="115.308" height="27" fill="white"/>
        <text transform="translate(-681.1252 312.5)" fill="#006990">
          <tspan font-family="Metropolis" font-size="14" fill="#006990" x="4476419e-19" y="14">Exponent 11 bits</tspan>
        </text>
      </g>
      <g id="Line_241">
        <line x1="-758.2532" y1="321" x2="-777.2532" y2="321" stroke="#89cbdf" stroke-linecap="square" stroke-linejoin="round" stroke-dasharray="2.0,2.0" stroke-width="1"/>
      </g>
      <g id="Line_242">
        <line x1="-499.2775" y1="321" x2="686.1735" y2="321" stroke="#89cbdf" stroke-linecap="square" stroke-linejoin="round" stroke-dasharray="2.0,2.0" stroke-width="1"/>
      </g>
      <g id="Graphic_243">
        <rect x="35.324922" y="307.5" width="119.088" height="27" fill="white"/>
        <text transform="translate(40.32492 312.5)" fill="#006990">
          <tspan font-family="Metropolis" font-size="14" fill="#006990" x="0" y="14">Precision 52 bits</tspan>
        </text>
      </g>
      <g id="Line_244">
        <line x1="-751.479" y1="387.502" x2="-574.8339" y2="387.502" stroke="#89cbdf" stroke-linecap="square" stroke-linejoin="round" stroke-dasharray="2.0,2.0" stroke-width="1"/>
      </g>
      <g id="Graphic_245">
        <rect x="-719.9477" y="374.002" width="114.006" height="27" fill="white"/>
        <text transform="translate(-714.9477 379.002)" fill="#006990">
          <tspan font-family="Metropolis" font-size="14" fill="#006990" x="61106675e-20" y="14">Exponent 8 bits</tspan>
        </text>
      </g>
      <g id="Line_246">
        <line x1="-754.3258" y1="455.05443" x2="-643.61615" y2="455.05443" stroke="#89cbdf" stroke-linecap="square" stroke-linejoin="round" stroke-dasharray="2.0,2.0" stroke-width="1"/>
      </g>
      <g id="Graphic_247">
        <rect x="-755.6453" y="441.55443" width="113.614" height="27" fill="white"/>
        <text transform="translate(-750.6453 446.55443)" fill="#006990">
          <tspan font-family="Metropolis" font-size="14" fill="#006990" x="6963319e-19" y="14">Exponent 5 bits</tspan>
        </text>
      </g>
      <g id="Line_248">
        <line x1="-570.9065" y1="387.502" x2="-47.503547" y2="387.502" stroke="#89cbdf" stroke-linecap="square" stroke-linejoin="round" stroke-dasharray="2.0,2.0" stroke-width="1"/>
      </g>
      <g id="Graphic_249">
        <rect x="-368.04465" y="374.002" width="118.934" height="27" fill="white"/>
        <text transform="translate(-363.04465 379.002)" fill="#006990">
          <tspan font-family="Metropolis" font-size="14" fill="#006990" x="55422333e-20" y="14">Precision 23 bits</tspan>
        </text>
      </g>
      <g id="Line_250">
        <line x1="-639.68875" y1="456.33064" x2="-414.34207" y2="456.33064" stroke="#89cbdf" stroke-linecap="square" stroke-linejoin="round" stroke-dasharray="2.0,2.0" stroke-width="1"/>
      </g>
      <g id="Graphic_251">
        <rect x="-585.5193" y="442.83064" width="117.548" height="27" fill="white"/>
        <text transform="translate(-580.5193 447.83064)" fill="#006990">
          <tspan font-family="Metropolis" font-size="14" fill="#006990" x="0" y="14">Precision 10 bits</tspan>
        </text>
      </g>
      <g id="Graphic_258">
        <text transform="translate(-823 482.88306)" fill="#006990">
          <tspan font-family="Metropolis" font-size="14" fill="#006990" x="1.925" y="14">FP16 </tspan>
        </text>
      </g>
      <g id="Graphic_256">
        <text transform="translate(-825.436 412.77823)" fill="#006990">
          <tspan font-family="Metropolis" font-size="14" fill="#006990" x="1.925" y="14">FP32 </tspan>
        </text>
      </g>
      <g id="Graphic_254">
        <text transform="translate(-826.234 340.2258)" fill="#006990">
          <tspan font-family="Metropolis" font-size="14" fill="#006990" x="1.925" y="14">FP64 </tspan>
        </text>
      </g>
    </g>
  </g>
</svg>
