<?xml version="1.0" encoding="UTF-8" standalone="no"?>
<!DOCTYPE svg PUBLIC "-//W3C//DTD SVG 1.1//EN" "http://www.w3.org/Graphics/SVG/1.1/DTD/svg11.dtd">
<svg xmlns:dc="http://purl.org/dc/elements/1.1/" version="1.1" xmlns="http://www.w3.org/2000/svg" xmlns:xl="http://www.w3.org/1999/xlink" viewBox="2417 2343 2358 663" width="2358" height="663">
  <defs>
    <marker orient="auto" overflow="visible" markerUnits="strokeWidth" id="FilledArrow_Marker" stroke-linejoin="miter" stroke-miterlimit="10" viewBox="-1 -4 10 8" markerWidth="10" markerHeight="8" color="#0095d3">
      <g>
        <path d="M 8 0 L 0 -3 L 0 3 Z" fill="currentColor" stroke="currentColor" stroke-width="1"/>
      </g>
    </marker>
  </defs>
  <g id="Canvas_1" fill-opacity="1" stroke="none" stroke-dasharray="none" stroke-opacity="1" fill="none">
    <title>Canvas 1</title>
    <g id="Canvas_1_Layer_1">
      <title>Layer 1</title>
      <g id="Line_1511">
        <line x1="3927.5853" y1="2661.7528" x2="4005.0603" y2="2661.7528" stroke="#0095d3" stroke-linecap="square" stroke-linejoin="round" stroke-dasharray="2.0,2.0" stroke-width="1"/>
      </g>
      <g id="Line_1444">
        <line x1="3216.8157" y1="2661.7528" x2="3374.422" y2="2661.7528" stroke="#0095d3" stroke-linecap="square" stroke-linejoin="round" stroke-dasharray="2.0,2.0" stroke-width="1"/>
      </g>
      <g id="Graphic_1123">
        <path d="M 3357.338 2485.2528 L 3357.338 2852.2528 C 3357.338 2866.06 3346.1452 2877.2528 3332.338 2877.2528 L 3258.8996 2877.2528 C 3245.0925 2877.2528 3233.8996 2866.06 3233.8996 2852.2528 L 3233.8996 2485.2528 C 3233.8996 2471.4457 3245.0925 2460.2528 3258.8996 2460.2528 L 3332.338 2460.2528 C 3346.1452 2460.2528 3357.338 2471.4457 3357.338 2485.2528 Z" fill="#f7f7f7"/>
      </g>
      <g id="Group_1124">
        <g id="Graphic_1132">
          <rect x="3260.49" y="2765.359" width="80.02729" height="56.761696" fill="white"/>
          <rect x="3260.49" y="2765.359" width="80.02729" height="56.761696" stroke="#006990" stroke-linecap="round" stroke-linejoin="round" stroke-width="1"/>
        </g>
        <g id="Graphic_1131">
          <rect x="3251.6604" y="2755.2398" width="8.829597" height="77" fill="white"/>
          <rect x="3251.6604" y="2755.2398" width="8.829597" height="77" stroke="#006990" stroke-linecap="round" stroke-linejoin="round" stroke-width="1"/>
        </g>
        <g id="Graphic_1130">
          <rect x="3265.2833" y="2774.3147" width="24.470598" height="10.090968" fill="#006990"/>
          <rect x="3265.2833" y="2774.3147" width="24.470598" height="10.090968" stroke="#006990" stroke-linecap="round" stroke-linejoin="round" stroke-width="1"/>
        </g>
        <g id="Graphic_1129">
          <rect x="3265.2833" y="2788.6943" width="24.470598" height="10.090968" fill="#006990"/>
          <rect x="3265.2833" y="2788.6943" width="24.470598" height="10.090968" stroke="#006990" stroke-linecap="round" stroke-linejoin="round" stroke-width="1"/>
        </g>
        <g id="Graphic_1128">
          <rect x="3265.2833" y="2803.074" width="24.470598" height="10.090968" fill="#006990"/>
          <rect x="3265.2833" y="2803.074" width="24.470598" height="10.090968" stroke="#006990" stroke-linecap="round" stroke-linejoin="round" stroke-width="1"/>
        </g>
        <g id="Group_1125">
          <g id="Graphic_1127">
            <circle cx="3316.3688" cy="2793.7398" r="15.5148884873846" stroke="#006990" stroke-linecap="round" stroke-linejoin="round" stroke-width="1"/>
          </g>
          <g id="Graphic_1126">
            <circle cx="3316.3688" cy="2793.7398" r="9.58643516293671" stroke="#006990" stroke-linecap="round" stroke-linejoin="round" stroke-width="1"/>
          </g>
        </g>
      </g>
      <g id="Group_1133">
        <g id="Graphic_1162">
          <circle cx="3266.0233" cy="2639.6436" r="8.25598588848005" fill="#33d7f9"/>
          <circle cx="3266.0233" cy="2639.6436" r="8.25598588848005" stroke="black" stroke-linecap="round" stroke-linejoin="round" stroke-width="1"/>
        </g>
        <g id="Graphic_1161">
          <circle cx="3266.0233" cy="2661.473" r="8.25598588848011" fill="#33d7f9"/>
          <circle cx="3266.0233" cy="2661.473" r="8.25598588848011" stroke="black" stroke-linecap="round" stroke-linejoin="round" stroke-width="1"/>
        </g>
        <g id="Graphic_1160">
          <circle cx="3295.9687" cy="2629.0088" r="8.25598588847993" fill="#f95700"/>
          <circle cx="3295.9687" cy="2629.0088" r="8.25598588847993" stroke="black" stroke-linecap="round" stroke-linejoin="round" stroke-width="1"/>
        </g>
        <g id="Graphic_1159">
          <circle cx="3295.9687" cy="2650.838" r="8.25598588848005" fill="#f95700"/>
          <circle cx="3295.9687" cy="2650.838" r="8.25598588848005" stroke="black" stroke-linecap="round" stroke-linejoin="round" stroke-width="1"/>
        </g>
        <g id="Graphic_1158">
          <circle cx="3295.9687" cy="2672.6675" r="8.25598588847999" fill="#f95700"/>
          <circle cx="3295.9687" cy="2672.6675" r="8.25598588847999" stroke="black" stroke-linecap="round" stroke-linejoin="round" stroke-width="1"/>
        </g>
        <g id="Graphic_1157">
          <circle cx="3325.2144" cy="2646.7265" r="8.25598588848011" fill="#00a4cc"/>
          <circle cx="3325.2144" cy="2646.7265" r="8.25598588848011" stroke="black" stroke-linecap="round" stroke-linejoin="round" stroke-width="1"/>
        </g>
        <g id="Line_1156">
          <line x1="3273.805" y1="2636.88" x2="3288.187" y2="2631.7724" stroke="black" stroke-linecap="round" stroke-linejoin="round" stroke-width="1"/>
        </g>
        <g id="Line_1155">
          <line x1="3273.7585" y1="2642.5352" x2="3288.2335" y2="2647.9465" stroke="black" stroke-linecap="round" stroke-linejoin="round" stroke-width="1"/>
        </g>
        <g id="Line_1154">
          <line x1="3273.805" y1="2658.7093" x2="3288.187" y2="2653.6017" stroke="black" stroke-linecap="round" stroke-linejoin="round" stroke-width="1"/>
        </g>
        <g id="Line_1153">
          <line x1="3271.621" y1="2655.4043" x2="3290.371" y2="2635.0774" stroke="black" stroke-linecap="round" stroke-linejoin="round" stroke-width="1"/>
        </g>
        <g id="Line_1152">
          <line x1="3273.7585" y1="2664.3646" x2="3288.2335" y2="2669.7758" stroke="black" stroke-linecap="round" stroke-linejoin="round" stroke-width="1"/>
        </g>
        <g id="Line_1151">
          <line x1="3271.5692" y1="2645.7597" x2="3290.4228" y2="2666.5514" stroke="black" stroke-linecap="round" stroke-linejoin="round" stroke-width="1"/>
        </g>
        <g id="Line_1150">
          <line x1="3303.0316" y1="2633.2876" x2="3318.1516" y2="2642.4476" stroke="black" stroke-linecap="round" stroke-linejoin="round" stroke-width="1"/>
        </g>
        <g id="Line_1149">
          <line x1="3302.1453" y1="2667.189" x2="3319.038" y2="2652.205" stroke="black" stroke-linecap="round" stroke-linejoin="round" stroke-width="1"/>
        </g>
        <g id="Line_1148">
          <line x1="3304.1447" y1="2649.6887" x2="3317.0384" y2="2647.876" stroke="black" stroke-linecap="round" stroke-linejoin="round" stroke-width="1"/>
        </g>
        <g id="Graphic_1147">
          <circle cx="3266.0233" cy="2683.3023" r="8.25598588848011" fill="#33d7f9"/>
          <circle cx="3266.0233" cy="2683.3023" r="8.25598588848011" stroke="black" stroke-linecap="round" stroke-linejoin="round" stroke-width="1"/>
        </g>
        <g id="Graphic_1146">
          <circle cx="3295.9687" cy="2694.4968" r="8.25598588847999" fill="#f95700"/>
          <circle cx="3295.9687" cy="2694.4968" r="8.25598588847999" stroke="black" stroke-linecap="round" stroke-linejoin="round" stroke-width="1"/>
        </g>
        <g id="Graphic_1145">
          <circle cx="3325.2144" cy="2677.565" r="8.25598588848011" fill="#00a4cc"/>
          <circle cx="3325.2144" cy="2677.565" r="8.25598588848011" stroke="black" stroke-linecap="round" stroke-linejoin="round" stroke-width="1"/>
        </g>
        <g id="Line_1144">
          <line x1="3273.805" y1="2680.5387" x2="3288.187" y2="2675.431" stroke="black" stroke-linecap="round" stroke-linejoin="round" stroke-width="1"/>
        </g>
        <g id="Line_1143">
          <line x1="3273.7585" y1="2686.194" x2="3288.2335" y2="2691.6052" stroke="black" stroke-linecap="round" stroke-linejoin="round" stroke-width="1"/>
        </g>
        <g id="Line_1142">
          <line x1="3271.621" y1="2677.2337" x2="3290.371" y2="2656.9067" stroke="black" stroke-linecap="round" stroke-linejoin="round" stroke-width="1"/>
        </g>
        <g id="Line_1141">
          <line x1="3270.0116" y1="2676.071" x2="3291.9804" y2="2636.24" stroke="black" stroke-linecap="round" stroke-linejoin="round" stroke-width="1"/>
        </g>
        <g id="Line_1140">
          <line x1="3269.9803" y1="2646.892" x2="3292.0117" y2="2687.2485" stroke="black" stroke-linecap="round" stroke-linejoin="round" stroke-width="1"/>
        </g>
        <g id="Line_1139">
          <line x1="3271.5692" y1="2667.589" x2="3290.4228" y2="2688.3808" stroke="black" stroke-linecap="round" stroke-linejoin="round" stroke-width="1"/>
        </g>
        <g id="Line_1138">
          <line x1="3303.1154" y1="2690.3593" x2="3318.0677" y2="2681.7027" stroke="black" stroke-linecap="round" stroke-linejoin="round" stroke-width="1"/>
        </g>
        <g id="Line_1137">
          <line x1="3300.2804" y1="2687.454" x2="3320.9027" y2="2653.7693" stroke="black" stroke-linecap="round" stroke-linejoin="round" stroke-width="1"/>
        </g>
        <g id="Line_1136">
          <line x1="3304.112" y1="2674.0312" x2="3317.0712" y2="2676.2014" stroke="black" stroke-linecap="round" stroke-linejoin="round" stroke-width="1"/>
        </g>
        <g id="Line_1135">
          <line x1="3302.0632" y1="2656.4077" x2="3319.12" y2="2671.9955" stroke="black" stroke-linecap="round" stroke-linejoin="round" stroke-width="1"/>
        </g>
        <g id="Line_1134">
          <line x1="3300.2293" y1="2636.0827" x2="3320.9538" y2="2670.4912" stroke="black" stroke-linecap="round" stroke-linejoin="round" stroke-width="1"/>
        </g>
      </g>
      <g id="Group_1163">
        <g id="Graphic_1166">
          <rect x="3260.06" y="2521.551" width="14.99828" height="54.65475" fill="#33d7f9"/>
          <rect x="3260.06" y="2521.551" width="14.99828" height="54.65475" stroke="#0095d3" stroke-linecap="round" stroke-linejoin="round" stroke-width="1"/>
        </g>
        <g id="Graphic_1165">
          <rect x="3283.071" y="2501.7228" width="14.99828" height="74.48298" fill="#f95700"/>
          <rect x="3283.071" y="2501.7228" width="14.99828" height="74.48298" stroke="#0095d3" stroke-linecap="round" stroke-linejoin="round" stroke-width="1"/>
        </g>
        <g id="Graphic_1164">
          <rect x="3306.0817" y="2511.3827" width="14.99828" height="64.82307" fill="#00a4cc"/>
          <rect x="3306.0817" y="2511.3827" width="14.99828" height="64.82307" stroke="#0095d3" stroke-linecap="round" stroke-linejoin="round" stroke-width="1"/>
        </g>
      </g>
      <g id="Graphic_1167">
        <text transform="translate(3236.771 2351)" fill="#006990">
          <tspan font-family="Metropolis" font-size="16" fill="#006990" x="3.936" y="16">Training Stack</tspan>
          <tspan font-family="Metropolis" font-size="16" fill="#006990" x="0" y="35">(Container|VM)</tspan>
        </text>
      </g>
      <g id="Graphic_1120">
        <path d="M 2425.1043 2514 L 3209.8157 2514 C 3213.6817 2514 3216.8157 2517.134 3216.8157 2521 L 3216.8157 2575 C 3216.8157 2578.866 3213.6817 2582 3209.8157 2582 L 2425.1043 2582 C 2421.2383 2582 2418.1043 2578.866 2418.1043 2575 L 2418.1043 2521 C 2418.1043 2517.134 2421.2383 2514 2425.1043 2514 Z" fill="white"/>
        <path d="M 2425.1043 2514 L 3209.8157 2514 C 3213.6817 2514 3216.8157 2517.134 3216.8157 2521 L 3216.8157 2575 C 3216.8157 2578.866 3213.6817 2582 3209.8157 2582 L 2425.1043 2582 C 2421.2383 2582 2418.1043 2578.866 2418.1043 2575 L 2418.1043 2521 C 2418.1043 2517.134 2421.2383 2514 2425.1043 2514 Z" stroke="#006990" stroke-linecap="round" stroke-linejoin="round" stroke-dasharray="2.0,2.0" stroke-width="1"/>
      </g>
      <g id="Line_1367">
        <line x1="3295.619" y1="2460.2528" x2="3295.619" y2="2412" stroke="#0095d3" stroke-linecap="square" stroke-linejoin="round" stroke-dasharray="2.0,2.0" stroke-width="1"/>
      </g>
      <g id="Line_1389">
        <line x1="2940.234" y1="2627.7528" x2="2940.234" y2="2582" stroke="#0095d3" stroke-linecap="square" stroke-linejoin="round" stroke-dasharray="2.0,2.0" stroke-width="1"/>
      </g>
      <g id="Graphic_1401">
        <path d="M 2670.6524 2627.7528 L 3209.8157 2627.7528 C 3213.6817 2627.7528 3216.8157 2630.8868 3216.8157 2634.7528 L 3216.8157 2688.7528 C 3216.8157 2692.6188 3213.6817 2695.7528 3209.8157 2695.7528 L 2670.6524 2695.7528 C 2666.7864 2695.7528 2663.6524 2692.6188 2663.6524 2688.7528 L 2663.6524 2634.7528 C 2663.6524 2630.8868 2666.7864 2627.7528 2670.6524 2627.7528 Z" fill="white"/>
        <path d="M 2670.6524 2627.7528 L 3209.8157 2627.7528 C 3213.6817 2627.7528 3216.8157 2630.8868 3216.8157 2634.7528 L 3216.8157 2688.7528 C 3216.8157 2692.6188 3213.6817 2695.7528 3209.8157 2695.7528 L 2670.6524 2695.7528 C 2666.7864 2695.7528 2663.6524 2692.6188 2663.6524 2688.7528 L 2663.6524 2634.7528 C 2663.6524 2630.8868 2666.7864 2627.7528 2670.6524 2627.7528 Z" stroke="#006990" stroke-linecap="round" stroke-linejoin="round" stroke-dasharray="2.0,2.0" stroke-width="1"/>
      </g>
      <g id="Graphic_1397">
        <text transform="translate(2820.9644 2649.7528)" fill="#0b0b45">
          <tspan font-family="Metropolis" font-size="16" fill="#0b0b45" x="17053026e-20" y="16">Model Orchestrating Pipeline</tspan>
        </text>
      </g>
      <g id="Group_1404">
        <g id="Graphic_1433">
          <circle cx="2682.338" cy="2647.951" r="5.1538951541344" fill="#33d7f9"/>
          <circle cx="2682.338" cy="2647.951" r="5.1538951541344" stroke="black" stroke-linecap="round" stroke-linejoin="round" stroke-width="1"/>
        </g>
        <g id="Graphic_1432">
          <circle cx="2682.338" cy="2661.578" r="5.1538951541344" fill="#33d7f9"/>
          <circle cx="2682.338" cy="2661.578" r="5.1538951541344" stroke="black" stroke-linecap="round" stroke-linejoin="round" stroke-width="1"/>
        </g>
        <g id="Graphic_1431">
          <circle cx="2701.0318" cy="2641.312" r="5.15389515413446" fill="#f95700"/>
          <circle cx="2701.0318" cy="2641.312" r="5.15389515413446" stroke="black" stroke-linecap="round" stroke-linejoin="round" stroke-width="1"/>
        </g>
        <g id="Graphic_1430">
          <circle cx="2701.0318" cy="2654.9392" r="5.1538951541344" fill="#f95700"/>
          <circle cx="2701.0318" cy="2654.9392" r="5.1538951541344" stroke="black" stroke-linecap="round" stroke-linejoin="round" stroke-width="1"/>
        </g>
        <g id="Graphic_1429">
          <circle cx="2701.0318" cy="2668.5664" r="5.15389515413452" fill="#f95700"/>
          <circle cx="2701.0318" cy="2668.5664" r="5.15389515413452" stroke="black" stroke-linecap="round" stroke-linejoin="round" stroke-width="1"/>
        </g>
        <g id="Graphic_1428">
          <circle cx="2719.2888" cy="2652.3725" r="5.15389515413452" fill="#00a4cc"/>
          <circle cx="2719.2888" cy="2652.3725" r="5.15389515413452" stroke="black" stroke-linecap="round" stroke-linejoin="round" stroke-width="1"/>
        </g>
        <g id="Line_1427">
          <line x1="2687.196" y1="2646.2257" x2="2696.174" y2="2643.0372" stroke="black" stroke-linecap="round" stroke-linejoin="round" stroke-width="1"/>
        </g>
        <g id="Line_1426">
          <line x1="2687.1668" y1="2649.756" x2="2696.203" y2="2653.134" stroke="black" stroke-linecap="round" stroke-linejoin="round" stroke-width="1"/>
        </g>
        <g id="Line_1425">
          <line x1="2687.196" y1="2659.853" x2="2696.174" y2="2656.6644" stroke="black" stroke-linecap="round" stroke-linejoin="round" stroke-width="1"/>
        </g>
        <g id="Line_1424">
          <line x1="2685.8325" y1="2657.7897" x2="2697.5373" y2="2645.1004" stroke="black" stroke-linecap="round" stroke-linejoin="round" stroke-width="1"/>
        </g>
        <g id="Line_1423">
          <line x1="2687.1668" y1="2663.3832" x2="2696.203" y2="2666.7613" stroke="black" stroke-linecap="round" stroke-linejoin="round" stroke-width="1"/>
        </g>
        <g id="Line_1422">
          <line x1="2685.8" y1="2651.769" x2="2697.5697" y2="2664.7484" stroke="black" stroke-linecap="round" stroke-linejoin="round" stroke-width="1"/>
        </g>
        <g id="Line_1421">
          <line x1="2705.441" y1="2643.983" x2="2714.8797" y2="2649.7013" stroke="black" stroke-linecap="round" stroke-linejoin="round" stroke-width="1"/>
        </g>
        <g id="Line_1420">
          <line x1="2704.8876" y1="2665.1463" x2="2715.433" y2="2655.7925" stroke="black" stroke-linecap="round" stroke-linejoin="round" stroke-width="1"/>
        </g>
        <g id="Line_1419">
          <line x1="2706.1358" y1="2654.2216" x2="2714.1848" y2="2653.09" stroke="black" stroke-linecap="round" stroke-linejoin="round" stroke-width="1"/>
        </g>
        <g id="Graphic_1418">
          <circle cx="2682.338" cy="2675.2053" r="5.1538951541344" fill="#33d7f9"/>
          <circle cx="2682.338" cy="2675.2053" r="5.1538951541344" stroke="black" stroke-linecap="round" stroke-linejoin="round" stroke-width="1"/>
        </g>
        <g id="Graphic_1417">
          <circle cx="2701.0318" cy="2682.1936" r="5.15389515413446" fill="#f95700"/>
          <circle cx="2701.0318" cy="2682.1936" r="5.15389515413446" stroke="black" stroke-linecap="round" stroke-linejoin="round" stroke-width="1"/>
        </g>
        <g id="Graphic_1416">
          <circle cx="2719.2888" cy="2671.6238" r="5.15389515413452" fill="#00a4cc"/>
          <circle cx="2719.2888" cy="2671.6238" r="5.15389515413452" stroke="black" stroke-linecap="round" stroke-linejoin="round" stroke-width="1"/>
        </g>
        <g id="Line_1415">
          <line x1="2687.196" y1="2673.48" x2="2696.174" y2="2670.2916" stroke="black" stroke-linecap="round" stroke-linejoin="round" stroke-width="1"/>
        </g>
        <g id="Line_1414">
          <line x1="2687.1668" y1="2677.0105" x2="2696.203" y2="2680.3885" stroke="black" stroke-linecap="round" stroke-linejoin="round" stroke-width="1"/>
        </g>
        <g id="Line_1413">
          <line x1="2685.8325" y1="2671.417" x2="2697.5373" y2="2658.7276" stroke="black" stroke-linecap="round" stroke-linejoin="round" stroke-width="1"/>
        </g>
        <g id="Line_1412">
          <line x1="2684.8278" y1="2670.6912" x2="2698.542" y2="2645.826" stroke="black" stroke-linecap="round" stroke-linejoin="round" stroke-width="1"/>
        </g>
        <g id="Line_1411">
          <line x1="2684.8082" y1="2652.4757" x2="2698.5616" y2="2677.6688" stroke="black" stroke-linecap="round" stroke-linejoin="round" stroke-width="1"/>
        </g>
        <g id="Line_1410">
          <line x1="2685.8" y1="2665.396" x2="2697.5697" y2="2678.3756" stroke="black" stroke-linecap="round" stroke-linejoin="round" stroke-width="1"/>
        </g>
        <g id="Line_1409">
          <line x1="2705.4932" y1="2679.6107" x2="2714.8274" y2="2674.2067" stroke="black" stroke-linecap="round" stroke-linejoin="round" stroke-width="1"/>
        </g>
        <g id="Line_1408">
          <line x1="2703.7234" y1="2677.797" x2="2716.597" y2="2656.769" stroke="black" stroke-linecap="round" stroke-linejoin="round" stroke-width="1"/>
        </g>
        <g id="Line_1407">
          <line x1="2706.1153" y1="2669.4177" x2="2714.2053" y2="2670.7725" stroke="black" stroke-linecap="round" stroke-linejoin="round" stroke-width="1"/>
        </g>
        <g id="Line_1406">
          <line x1="2704.8363" y1="2658.416" x2="2715.4842" y2="2668.147" stroke="black" stroke-linecap="round" stroke-linejoin="round" stroke-width="1"/>
        </g>
        <g id="Line_1405">
          <line x1="2703.6915" y1="2645.728" x2="2716.629" y2="2667.208" stroke="black" stroke-linecap="round" stroke-linejoin="round" stroke-width="1"/>
        </g>
      </g>
      <g id="Graphic_1435">
        <path d="M 3381.422 2627.7528 L 3920.5853 2627.7528 C 3924.4513 2627.7528 3927.5853 2630.8868 3927.5853 2634.7528 L 3927.5853 2688.7528 C 3927.5853 2692.6188 3924.4513 2695.7528 3920.5853 2695.7528 L 3381.422 2695.7528 C 3377.556 2695.7528 3374.422 2692.6188 3374.422 2688.7528 L 3374.422 2634.7528 C 3374.422 2630.8868 3377.556 2627.7528 3381.422 2627.7528 Z" fill="white"/>
        <path d="M 3381.422 2627.7528 L 3920.5853 2627.7528 C 3924.4513 2627.7528 3927.5853 2630.8868 3927.5853 2634.7528 L 3927.5853 2688.7528 C 3927.5853 2692.6188 3924.4513 2695.7528 3920.5853 2695.7528 L 3381.422 2695.7528 C 3377.556 2695.7528 3374.422 2692.6188 3374.422 2688.7528 L 3374.422 2634.7528 C 3374.422 2630.8868 3377.556 2627.7528 3381.422 2627.7528 Z" stroke="#006990" stroke-linecap="round" stroke-linejoin="round" stroke-dasharray="2.0,2.0" stroke-width="1"/>
        <text transform="translate(3379.422 2652.2528)" fill="black">
          <tspan font-family="Metropolis" font-size="16" fill="black" x="138.35767" y="16">From Experiment to Model Serving</tspan>
        </text>
      </g>
      <g id="Line_1436">
        <line x1="2833.703" y1="2695.7528" x2="2833.703" y2="2736.456" stroke="#0095d3" stroke-linecap="square" stroke-linejoin="round" stroke-width="1"/>
      </g>
      <g id="Graphic_1445">
        <path d="M 4068.1077 2478.2528 L 4068.1077 2845.2528 C 4068.1077 2859.06 4056.915 2870.2528 4043.1077 2870.2528 L 3969.6693 2870.2528 C 3955.862 2870.2528 3944.6693 2859.06 3944.6693 2845.2528 L 3944.6693 2478.2528 C 3944.6693 2464.4457 3955.862 2453.2528 3969.6693 2453.2528 L 4043.1077 2453.2528 C 4056.915 2453.2528 4068.1077 2464.4457 4068.1077 2478.2528 Z" fill="#f7f7f7"/>
      </g>
      <g id="Group_1446">
        <g id="Graphic_1475">
          <circle cx="3976.793" cy="2639.6436" r="8.25598588848011" fill="#33d7f9"/>
          <circle cx="3976.793" cy="2639.6436" r="8.25598588848011" stroke="black" stroke-linecap="round" stroke-linejoin="round" stroke-width="1"/>
        </g>
        <g id="Graphic_1474">
          <circle cx="3976.793" cy="2661.473" r="8.25598588848011" fill="#33d7f9"/>
          <circle cx="3976.793" cy="2661.473" r="8.25598588848011" stroke="black" stroke-linecap="round" stroke-linejoin="round" stroke-width="1"/>
        </g>
        <g id="Graphic_1473">
          <circle cx="4006.7383" cy="2629.0088" r="8.25598588848005" fill="#f95700"/>
          <circle cx="4006.7383" cy="2629.0088" r="8.25598588848005" stroke="black" stroke-linecap="round" stroke-linejoin="round" stroke-width="1"/>
        </g>
        <g id="Graphic_1472">
          <circle cx="4006.7383" cy="2650.838" r="8.25598588848017" fill="#f95700"/>
          <circle cx="4006.7383" cy="2650.838" r="8.25598588848017" stroke="black" stroke-linecap="round" stroke-linejoin="round" stroke-width="1"/>
        </g>
        <g id="Graphic_1471">
          <circle cx="4006.7383" cy="2672.6675" r="8.25598588848011" fill="#f95700"/>
          <circle cx="4006.7383" cy="2672.6675" r="8.25598588848011" stroke="black" stroke-linecap="round" stroke-linejoin="round" stroke-width="1"/>
        </g>
        <g id="Graphic_1470">
          <circle cx="4035.984" cy="2646.7265" r="8.25598588848011" fill="#00a4cc"/>
          <circle cx="4035.984" cy="2646.7265" r="8.25598588848011" stroke="black" stroke-linecap="round" stroke-linejoin="round" stroke-width="1"/>
        </g>
        <g id="Line_1469">
          <line x1="3984.5747" y1="2636.88" x2="3998.9566" y2="2631.7724" stroke="black" stroke-linecap="round" stroke-linejoin="round" stroke-width="1"/>
        </g>
        <g id="Line_1468">
          <line x1="3984.528" y1="2642.5352" x2="3999.003" y2="2647.9465" stroke="black" stroke-linecap="round" stroke-linejoin="round" stroke-width="1"/>
        </g>
        <g id="Line_1467">
          <line x1="3984.5747" y1="2658.7093" x2="3998.9566" y2="2653.6017" stroke="black" stroke-linecap="round" stroke-linejoin="round" stroke-width="1"/>
        </g>
        <g id="Line_1466">
          <line x1="3982.3907" y1="2655.4043" x2="4001.1406" y2="2635.0774" stroke="black" stroke-linecap="round" stroke-linejoin="round" stroke-width="1"/>
        </g>
        <g id="Line_1465">
          <line x1="3984.528" y1="2664.3646" x2="3999.003" y2="2669.7758" stroke="black" stroke-linecap="round" stroke-linejoin="round" stroke-width="1"/>
        </g>
        <g id="Line_1464">
          <line x1="3982.339" y1="2645.7597" x2="4001.1924" y2="2666.5514" stroke="black" stroke-linecap="round" stroke-linejoin="round" stroke-width="1"/>
        </g>
        <g id="Line_1463">
          <line x1="4013.801" y1="2633.2876" x2="4028.921" y2="2642.4476" stroke="black" stroke-linecap="round" stroke-linejoin="round" stroke-width="1"/>
        </g>
        <g id="Line_1462">
          <line x1="4012.915" y1="2667.189" x2="4029.8075" y2="2652.205" stroke="black" stroke-linecap="round" stroke-linejoin="round" stroke-width="1"/>
        </g>
        <g id="Line_1461">
          <line x1="4014.9144" y1="2649.6887" x2="4027.808" y2="2647.876" stroke="black" stroke-linecap="round" stroke-linejoin="round" stroke-width="1"/>
        </g>
        <g id="Graphic_1460">
          <circle cx="3976.793" cy="2683.3023" r="8.25598588848011" fill="#33d7f9"/>
          <circle cx="3976.793" cy="2683.3023" r="8.25598588848011" stroke="black" stroke-linecap="round" stroke-linejoin="round" stroke-width="1"/>
        </g>
        <g id="Graphic_1459">
          <circle cx="4006.7383" cy="2694.4968" r="8.25598588848011" fill="#f95700"/>
          <circle cx="4006.7383" cy="2694.4968" r="8.25598588848011" stroke="black" stroke-linecap="round" stroke-linejoin="round" stroke-width="1"/>
        </g>
        <g id="Graphic_1458">
          <circle cx="4035.984" cy="2677.565" r="8.25598588848011" fill="#00a4cc"/>
          <circle cx="4035.984" cy="2677.565" r="8.25598588848011" stroke="black" stroke-linecap="round" stroke-linejoin="round" stroke-width="1"/>
        </g>
        <g id="Line_1457">
          <line x1="3984.5747" y1="2680.5387" x2="3998.9566" y2="2675.431" stroke="black" stroke-linecap="round" stroke-linejoin="round" stroke-width="1"/>
        </g>
        <g id="Line_1456">
          <line x1="3984.528" y1="2686.194" x2="3999.003" y2="2691.6052" stroke="black" stroke-linecap="round" stroke-linejoin="round" stroke-width="1"/>
        </g>
        <g id="Line_1455">
          <line x1="3982.3907" y1="2677.2337" x2="4001.1406" y2="2656.9067" stroke="black" stroke-linecap="round" stroke-linejoin="round" stroke-width="1"/>
        </g>
        <g id="Line_1454">
          <line x1="3980.7812" y1="2676.071" x2="4002.75" y2="2636.24" stroke="black" stroke-linecap="round" stroke-linejoin="round" stroke-width="1"/>
        </g>
        <g id="Line_1453">
          <line x1="3980.75" y1="2646.892" x2="4002.7813" y2="2687.2485" stroke="black" stroke-linecap="round" stroke-linejoin="round" stroke-width="1"/>
        </g>
        <g id="Line_1452">
          <line x1="3982.339" y1="2667.589" x2="4001.1924" y2="2688.3808" stroke="black" stroke-linecap="round" stroke-linejoin="round" stroke-width="1"/>
        </g>
        <g id="Line_1451">
          <line x1="4013.885" y1="2690.3593" x2="4028.8374" y2="2681.7027" stroke="black" stroke-linecap="round" stroke-linejoin="round" stroke-width="1"/>
        </g>
        <g id="Line_1450">
          <line x1="4011.05" y1="2687.454" x2="4031.6723" y2="2653.7693" stroke="black" stroke-linecap="round" stroke-linejoin="round" stroke-width="1"/>
        </g>
        <g id="Line_1449">
          <line x1="4014.8815" y1="2674.0312" x2="4027.841" y2="2676.2014" stroke="black" stroke-linecap="round" stroke-linejoin="round" stroke-width="1"/>
        </g>
        <g id="Line_1448">
          <line x1="4012.833" y1="2656.4077" x2="4029.8896" y2="2671.9955" stroke="black" stroke-linecap="round" stroke-linejoin="round" stroke-width="1"/>
        </g>
        <g id="Line_1447">
          <line x1="4010.999" y1="2636.0827" x2="4031.7234" y2="2670.4912" stroke="black" stroke-linecap="round" stroke-linejoin="round" stroke-width="1"/>
        </g>
      </g>
      <g id="Group_1476">
        <g id="Graphic_1479">
          <rect x="3972.9174" y="2513.3225" width="14.99828" height="54.65475" fill="#33d7f9"/>
          <rect x="3972.9174" y="2513.3225" width="14.99828" height="54.65475" stroke="#0095d3" stroke-linecap="round" stroke-linejoin="round" stroke-width="1"/>
        </g>
        <g id="Graphic_1478">
          <rect x="3995.9282" y="2493.4943" width="14.99828" height="74.48298" fill="#f95700"/>
          <rect x="3995.9282" y="2493.4943" width="14.99828" height="74.48298" stroke="#0095d3" stroke-linecap="round" stroke-linejoin="round" stroke-width="1"/>
        </g>
        <g id="Graphic_1477">
          <rect x="4018.939" y="2503.1542" width="14.99828" height="64.82307" fill="#00a4cc"/>
          <rect x="4018.939" y="2503.1542" width="14.99828" height="64.82307" stroke="#0095d3" stroke-linecap="round" stroke-linejoin="round" stroke-width="1"/>
        </g>
      </g>
      <g id="Group_1480">
        <g id="Graphic_1509">
          <rect x="3972.226" y="2759.6617" width="66.72653" height="63.699236" fill="white"/>
          <rect x="3972.226" y="2759.6617" width="66.72653" height="63.699236" stroke="#006990" stroke-linecap="round" stroke-linejoin="round" stroke-width="1"/>
          <text transform="translate(3977.226 2784.5113)" fill="black">
            <tspan font-family="Metropolis" font-size="12" fill="black" x="14.473264" y="12">ARM</tspan>
          </text>
        </g>
        <g id="Graphic_1508">
          <rect x="3978.533" y="2765.9686" width="10.090968" height="10.090968" fill="#006990"/>
        </g>
        <g id="Graphic_1507">
          <rect x="3993.249" y="2766.0526" width="10.090968" height="10.090968" fill="#006990"/>
        </g>
        <g id="Graphic_1506">
          <rect x="4007.965" y="2766.1367" width="10.090968" height="10.090968" fill="#006990"/>
        </g>
        <g id="Graphic_1505">
          <rect x="4022.681" y="2766.2208" width="10.090968" height="10.090968" fill="#006990"/>
        </g>
        <g id="Graphic_1504">
          <rect x="3978.47" y="2806.963" width="10.090968" height="10.090968" fill="#006990"/>
        </g>
        <g id="Graphic_1503">
          <rect x="3993.186" y="2807.0472" width="10.090968" height="10.090968" fill="#006990"/>
        </g>
        <g id="Graphic_1502">
          <rect x="4007.902" y="2807.1313" width="10.090968" height="10.090968" fill="#006990"/>
        </g>
        <g id="Graphic_1501">
          <rect x="4022.681" y="2807.2154" width="10.090968" height="10.090968" fill="#006990"/>
        </g>
        <g id="Graphic_1500">
          <rect x="3978.47" y="2793.2983" width="10.090968" height="10.090968" fill="#006990"/>
        </g>
        <g id="Graphic_1499">
          <rect x="3978.2177" y="2779.6334" width="10.090968" height="10.090968" fill="#006990"/>
        </g>
        <g id="Graphic_1498">
          <rect x="4022.681" y="2793.2983" width="10.090968" height="10.090968" fill="#006990"/>
        </g>
        <g id="Graphic_1497">
          <rect x="4022.681" y="2779.6334" width="10.090968" height="10.090968" fill="#006990"/>
        </g>
        <g id="Line_1496">
          <line x1="3978.533" y1="2823.361" x2="3978.533" y2="2830.0113" stroke="#006990" stroke-linecap="square" stroke-linejoin="round" stroke-width="1"/>
        </g>
        <g id="Line_1495">
          <line x1="3998.2315" y1="2823.361" x2="3998.2315" y2="2830.0113" stroke="#006990" stroke-linecap="square" stroke-linejoin="round" stroke-width="1"/>
        </g>
        <g id="Line_1494">
          <line x1="4012.9475" y1="2823.361" x2="4012.9475" y2="2830.0113" stroke="#006990" stroke-linecap="square" stroke-linejoin="round" stroke-width="1"/>
        </g>
        <g id="Line_1493">
          <line x1="4031.5107" y1="2823.361" x2="4031.5107" y2="2830.0113" stroke="#006990" stroke-linecap="square" stroke-linejoin="round" stroke-width="1"/>
        </g>
        <g id="Line_1492">
          <line x1="3978.533" y1="2753.0113" x2="3978.533" y2="2759.6617" stroke="#006990" stroke-linecap="square" stroke-linejoin="round" stroke-width="1"/>
        </g>
        <g id="Line_1491">
          <line x1="3998.2315" y1="2753.0113" x2="3998.2315" y2="2759.6617" stroke="#006990" stroke-linecap="square" stroke-linejoin="round" stroke-width="1"/>
        </g>
        <g id="Line_1490">
          <line x1="4012.9475" y1="2753.0113" x2="4012.9475" y2="2759.6617" stroke="#006990" stroke-linecap="square" stroke-linejoin="round" stroke-width="1"/>
        </g>
        <g id="Line_1489">
          <line x1="4031.5107" y1="2753.0113" x2="4031.5107" y2="2759.6617" stroke="#006990" stroke-linecap="square" stroke-linejoin="round" stroke-width="1"/>
        </g>
        <g id="Line_1488">
          <line x1="4045.603" y1="2766.2208" x2="4038.953" y2="2766.2208" stroke="#006990" stroke-linecap="square" stroke-linejoin="round" stroke-width="1"/>
        </g>
        <g id="Line_1487">
          <line x1="4045.603" y1="2784.0482" x2="4038.953" y2="2784.0482" stroke="#006990" stroke-linecap="square" stroke-linejoin="round" stroke-width="1"/>
        </g>
        <g id="Line_1486">
          <line x1="4045.603" y1="2797.713" x2="4038.953" y2="2797.713" stroke="#006990" stroke-linecap="square" stroke-linejoin="round" stroke-width="1"/>
        </g>
        <g id="Line_1485">
          <line x1="4045.603" y1="2815.7927" x2="4038.953" y2="2815.7927" stroke="#006990" stroke-linecap="square" stroke-linejoin="round" stroke-width="1"/>
        </g>
        <g id="Line_1484">
          <line x1="3972.226" y1="2766.2208" x2="3965.576" y2="2766.2208" stroke="#006990" stroke-linecap="square" stroke-linejoin="round" stroke-width="1"/>
        </g>
        <g id="Line_1483">
          <line x1="3972.226" y1="2784.0482" x2="3965.576" y2="2784.0482" stroke="#006990" stroke-linecap="square" stroke-linejoin="round" stroke-width="1"/>
        </g>
        <g id="Line_1482">
          <line x1="3972.226" y1="2797.713" x2="3965.576" y2="2797.713" stroke="#006990" stroke-linecap="square" stroke-linejoin="round" stroke-width="1"/>
        </g>
        <g id="Line_1481">
          <line x1="3972.226" y1="2815.7927" x2="3965.576" y2="2815.7927" stroke="#006990" stroke-linecap="square" stroke-linejoin="round" stroke-width="1"/>
        </g>
      </g>
      <g id="Graphic_1513">
        <text transform="translate(3946.7085 2351)" fill="#006990">
          <tspan font-family="Metropolis" font-size="16" fill="#006990" x="29132252e-20" y="16">Inference Stack</tspan>
          <tspan font-family="Metropolis" font-size="16" fill="#006990" x=".832" y="35">(Container|VM)</tspan>
        </text>
      </g>
      <g id="Line_1514">
        <line x1="4006.3885" y1="2453.2528" x2="4006.3885" y2="2394" stroke="#0095d3" stroke-linecap="square" stroke-linejoin="round" stroke-dasharray="2.0,2.0" stroke-width="1"/>
      </g>
      <g id="Graphic_1515">
        <text transform="translate(2737.4124 2536)" fill="#0b0b45">
          <tspan font-family="Metropolis" font-size="16" fill="#0b0b45" x="2.192" y="16">Data Orchestration Pipeline - Ingestion to Training </tspan>
        </text>
      </g>
      <g id="Group_1516">
        <g id="Graphic_1519">
          <rect x="2431" y="2538.2588" width="8.390216" height="30.574516" fill="#33d7f9"/>
          <rect x="2431" y="2538.2588" width="8.390216" height="30.574516" stroke="#0095d3" stroke-linecap="round" stroke-linejoin="round" stroke-width="1"/>
        </g>
        <g id="Graphic_1518">
          <rect x="2443.8725" y="2527.1667" width="8.390216" height="41.666667" fill="#f95700"/>
          <rect x="2443.8725" y="2527.1667" width="8.390216" height="41.666667" stroke="#0095d3" stroke-linecap="round" stroke-linejoin="round" stroke-width="1"/>
        </g>
        <g id="Graphic_1517">
          <rect x="2456.745" y="2532.5705" width="8.390216" height="36.2628" fill="#00a4cc"/>
          <rect x="2456.745" y="2532.5705" width="8.390216" height="36.2628" stroke="#0095d3" stroke-linecap="round" stroke-linejoin="round" stroke-width="1"/>
        </g>
      </g>
      <g id="Line_1520">
        <line x1="3216.8157" y1="2548" x2="3233.8996" y2="2548" stroke="#0095d3" stroke-linecap="square" stroke-linejoin="round" stroke-dasharray="2.0,2.0" stroke-width="1"/>
      </g>
      <g id="Graphic_1521">
        <path d="M 3424 2514 L 3920.5853 2514 C 3924.4513 2514 3927.5853 2517.134 3927.5853 2521 L 3927.5853 2575 C 3927.5853 2578.866 3924.4513 2582 3920.5853 2582 L 3424 2582 C 3420.134 2582 3417 2578.866 3417 2575 L 3417 2521 C 3417 2517.134 3420.134 2514 3424 2514 Z" fill="white"/>
        <path d="M 3424 2514 L 3920.5853 2514 C 3924.4513 2514 3927.5853 2517.134 3927.5853 2521 L 3927.5853 2575 C 3927.5853 2578.866 3924.4513 2582 3920.5853 2582 L 3424 2582 C 3420.134 2582 3417 2578.866 3417 2575 L 3417 2521 C 3417 2517.134 3420.134 2514 3424 2514 Z" stroke="#006990" stroke-linecap="round" stroke-linejoin="round" stroke-dasharray="2.0,2.0" stroke-width="1"/>
        <text transform="translate(3422 2538.5)" fill="black">
          <tspan font-family="Metropolis" font-size="16" fill="black" x="54.804664" y="16">Data Orchestration Pipeline for Inference Workload</tspan>
        </text>
      </g>
      <g id="Line_1523">
        <line x1="3927.5853" y1="2548" x2="3944.6693" y2="2548" stroke="#0095d3" stroke-linecap="square" stroke-linejoin="round" stroke-width="1"/>
      </g>
      <g id="Graphic_1531">
        <path d="M 4117.6973 2564.335 L 4592.2827 2564.335 C 4596.1487 2564.335 4599.2827 2567.469 4599.2827 2571.335 L 4599.2827 2625.335 C 4599.2827 2629.201 4596.1487 2632.335 4592.2827 2632.335 L 4117.6973 2632.335 C 4113.8314 2632.335 4110.6973 2629.201 4110.6973 2625.335 L 4110.6973 2571.335 C 4110.6973 2567.469 4113.8314 2564.335 4117.6973 2564.335 Z" fill="white"/>
        <path d="M 4117.6973 2564.335 L 4592.2827 2564.335 C 4596.1487 2564.335 4599.2827 2567.469 4599.2827 2571.335 L 4599.2827 2625.335 C 4599.2827 2629.201 4596.1487 2632.335 4592.2827 2632.335 L 4117.6973 2632.335 C 4113.8314 2632.335 4110.6973 2629.201 4110.6973 2625.335 L 4110.6973 2571.335 C 4110.6973 2567.469 4113.8314 2564.335 4117.6973 2564.335 Z" stroke="#006990" stroke-linecap="round" stroke-linejoin="round" stroke-dasharray="2.0,2.0" stroke-width="1"/>
        <text transform="translate(4115.6973 2589.835)" fill="black">
          <tspan font-family="Metropolis" font-size="14" fill="black" x="176.27166" y="14">ML Infused Service</tspan>
        </text>
      </g>
      <g id="Line_1532">
        <line x1="4110" y1="2599" x2="4068.1077" y2="2599" stroke="#0095d3" stroke-linecap="square" stroke-linejoin="round" stroke-width="1"/>
      </g>
      <g id="Group_1533">
        <g id="Graphic_1536">
          <rect x="3430" y="2540.5133" width="8.390216" height="30.574516" fill="#33d7f9"/>
          <rect x="3430" y="2540.5133" width="8.390216" height="30.574516" stroke="#0095d3" stroke-linecap="round" stroke-linejoin="round" stroke-width="1"/>
        </g>
        <g id="Graphic_1535">
          <rect x="3442.8725" y="2529.421" width="8.390216" height="41.666667" fill="#f95700"/>
          <rect x="3442.8725" y="2529.421" width="8.390216" height="41.666667" stroke="#0095d3" stroke-linecap="round" stroke-linejoin="round" stroke-width="1"/>
        </g>
        <g id="Graphic_1534">
          <rect x="3455.745" y="2534.825" width="8.390216" height="36.2628" fill="#00a4cc"/>
          <rect x="3455.745" y="2534.825" width="8.390216" height="36.2628" stroke="#0095d3" stroke-linecap="round" stroke-linejoin="round" stroke-width="1"/>
        </g>
      </g>
      <g id="Group_1537">
        <g id="Graphic_1566">
          <circle cx="3392.154" cy="2647.951" r="5.15389515413452" fill="#33d7f9"/>
          <circle cx="3392.154" cy="2647.951" r="5.15389515413452" stroke="black" stroke-linecap="round" stroke-linejoin="round" stroke-width="1"/>
        </g>
        <g id="Graphic_1565">
          <circle cx="3392.154" cy="2661.578" r="5.15389515413458" fill="#33d7f9"/>
          <circle cx="3392.154" cy="2661.578" r="5.15389515413458" stroke="black" stroke-linecap="round" stroke-linejoin="round" stroke-width="1"/>
        </g>
        <g id="Graphic_1564">
          <circle cx="3410.8476" cy="2641.312" r="5.15389515413446" fill="#f95700"/>
          <circle cx="3410.8476" cy="2641.312" r="5.15389515413446" stroke="black" stroke-linecap="round" stroke-linejoin="round" stroke-width="1"/>
        </g>
        <g id="Graphic_1563">
          <circle cx="3410.8476" cy="2654.9392" r="5.15389515413446" fill="#f95700"/>
          <circle cx="3410.8476" cy="2654.9392" r="5.15389515413446" stroke="black" stroke-linecap="round" stroke-linejoin="round" stroke-width="1"/>
        </g>
        <g id="Graphic_1562">
          <circle cx="3410.8476" cy="2668.5664" r="5.15389515413452" fill="#f95700"/>
          <circle cx="3410.8476" cy="2668.5664" r="5.15389515413452" stroke="black" stroke-linecap="round" stroke-linejoin="round" stroke-width="1"/>
        </g>
        <g id="Graphic_1561">
          <circle cx="3429.1046" cy="2652.3725" r="5.15389515413458" fill="#00a4cc"/>
          <circle cx="3429.1046" cy="2652.3725" r="5.15389515413458" stroke="black" stroke-linecap="round" stroke-linejoin="round" stroke-width="1"/>
        </g>
        <g id="Line_1560">
          <line x1="3397.0117" y1="2646.2257" x2="3405.99" y2="2643.0372" stroke="black" stroke-linecap="round" stroke-linejoin="round" stroke-width="1"/>
        </g>
        <g id="Line_1559">
          <line x1="3396.9827" y1="2649.756" x2="3406.019" y2="2653.134" stroke="black" stroke-linecap="round" stroke-linejoin="round" stroke-width="1"/>
        </g>
        <g id="Line_1558">
          <line x1="3397.0117" y1="2659.853" x2="3405.99" y2="2656.6644" stroke="black" stroke-linecap="round" stroke-linejoin="round" stroke-width="1"/>
        </g>
        <g id="Line_1557">
          <line x1="3395.6484" y1="2657.7897" x2="3407.353" y2="2645.1004" stroke="black" stroke-linecap="round" stroke-linejoin="round" stroke-width="1"/>
        </g>
        <g id="Line_1556">
          <line x1="3396.9827" y1="2663.3832" x2="3406.019" y2="2666.7613" stroke="black" stroke-linecap="round" stroke-linejoin="round" stroke-width="1"/>
        </g>
        <g id="Line_1555">
          <line x1="3395.616" y1="2651.769" x2="3407.3855" y2="2664.7484" stroke="black" stroke-linecap="round" stroke-linejoin="round" stroke-width="1"/>
        </g>
        <g id="Line_1554">
          <line x1="3415.2567" y1="2643.983" x2="3424.6956" y2="2649.7013" stroke="black" stroke-linecap="round" stroke-linejoin="round" stroke-width="1"/>
        </g>
        <g id="Line_1553">
          <line x1="3414.7034" y1="2665.1463" x2="3425.249" y2="2655.7925" stroke="black" stroke-linecap="round" stroke-linejoin="round" stroke-width="1"/>
        </g>
        <g id="Line_1552">
          <line x1="3415.9516" y1="2654.2216" x2="3424.0006" y2="2653.09" stroke="black" stroke-linecap="round" stroke-linejoin="round" stroke-width="1"/>
        </g>
        <g id="Graphic_1551">
          <circle cx="3392.154" cy="2675.2053" r="5.15389515413458" fill="#33d7f9"/>
          <circle cx="3392.154" cy="2675.2053" r="5.15389515413458" stroke="black" stroke-linecap="round" stroke-linejoin="round" stroke-width="1"/>
        </g>
        <g id="Graphic_1550">
          <circle cx="3410.8476" cy="2682.1936" r="5.15389515413458" fill="#f95700"/>
          <circle cx="3410.8476" cy="2682.1936" r="5.15389515413458" stroke="black" stroke-linecap="round" stroke-linejoin="round" stroke-width="1"/>
        </g>
        <g id="Graphic_1549">
          <circle cx="3429.1046" cy="2671.6238" r="5.15389515413452" fill="#00a4cc"/>
          <circle cx="3429.1046" cy="2671.6238" r="5.15389515413452" stroke="black" stroke-linecap="round" stroke-linejoin="round" stroke-width="1"/>
        </g>
        <g id="Line_1548">
          <line x1="3397.0117" y1="2673.48" x2="3405.99" y2="2670.2916" stroke="black" stroke-linecap="round" stroke-linejoin="round" stroke-width="1"/>
        </g>
        <g id="Line_1547">
          <line x1="3396.9827" y1="2677.0105" x2="3406.019" y2="2680.3885" stroke="black" stroke-linecap="round" stroke-linejoin="round" stroke-width="1"/>
        </g>
        <g id="Line_1546">
          <line x1="3395.6484" y1="2671.417" x2="3407.353" y2="2658.7276" stroke="black" stroke-linecap="round" stroke-linejoin="round" stroke-width="1"/>
        </g>
        <g id="Line_1545">
          <line x1="3394.6436" y1="2670.6912" x2="3408.358" y2="2645.826" stroke="black" stroke-linecap="round" stroke-linejoin="round" stroke-width="1"/>
        </g>
        <g id="Line_1544">
          <line x1="3394.624" y1="2652.4757" x2="3408.3774" y2="2677.6688" stroke="black" stroke-linecap="round" stroke-linejoin="round" stroke-width="1"/>
        </g>
        <g id="Line_1543">
          <line x1="3395.616" y1="2665.396" x2="3407.3855" y2="2678.3756" stroke="black" stroke-linecap="round" stroke-linejoin="round" stroke-width="1"/>
        </g>
        <g id="Line_1542">
          <line x1="3415.309" y1="2679.6107" x2="3424.6432" y2="2674.2067" stroke="black" stroke-linecap="round" stroke-linejoin="round" stroke-width="1"/>
        </g>
        <g id="Line_1541">
          <line x1="3413.5393" y1="2677.797" x2="3426.413" y2="2656.769" stroke="black" stroke-linecap="round" stroke-linejoin="round" stroke-width="1"/>
        </g>
        <g id="Line_1540">
          <line x1="3415.931" y1="2669.4177" x2="3424.021" y2="2670.7725" stroke="black" stroke-linecap="round" stroke-linejoin="round" stroke-width="1"/>
        </g>
        <g id="Line_1539">
          <line x1="3414.6522" y1="2658.416" x2="3425.3" y2="2668.147" stroke="black" stroke-linecap="round" stroke-linejoin="round" stroke-width="1"/>
        </g>
        <g id="Line_1538">
          <line x1="3413.5074" y1="2645.728" x2="3426.445" y2="2667.208" stroke="black" stroke-linecap="round" stroke-linejoin="round" stroke-width="1"/>
        </g>
      </g>
      <g id="Graphic_1571">
        <path d="M 4170.8655 2449.704 L 4209.7947 2487.341 C 4212.574 2490.0282 4212.649 2494.4597 4209.9617 2497.239 C 4209.907 2497.2957 4209.8513 2497.3514 4209.7947 2497.4062 L 4170.8655 2535.0432 C 4168.152 2537.6664 4163.848 2537.6664 4161.1345 2535.0432 L 4122.2053 2497.4062 C 4119.426 2494.719 4119.351 2490.2875 4122.0383 2487.508 C 4122.093 2487.4515 4122.1487 2487.3958 4122.2053 2487.341 L 4161.1345 2449.704 C 4163.848 2447.0808 4168.152 2447.0808 4170.8655 2449.704 Z" fill="white"/>
        <path d="M 4170.8655 2449.704 L 4209.7947 2487.341 C 4212.574 2490.0282 4212.649 2494.4597 4209.9617 2497.239 C 4209.907 2497.2957 4209.8513 2497.3514 4209.7947 2497.4062 L 4170.8655 2535.0432 C 4168.152 2537.6664 4163.848 2537.6664 4161.1345 2535.0432 L 4122.2053 2497.4062 C 4119.426 2494.719 4119.351 2490.2875 4122.0383 2487.508 C 4122.093 2487.4515 4122.1487 2487.3958 4122.2053 2487.341 L 4161.1345 2449.704 C 4163.848 2447.0808 4168.152 2447.0808 4170.8655 2449.704 Z" stroke="#006990" stroke-linecap="round" stroke-linejoin="round" stroke-dasharray="2.0,2.0" stroke-width="1"/>
        <text transform="translate(4135.23 2482.926)" fill="black">
          <tspan font-family="Metropolis" font-size="14" fill="black" x="3.113" y="14">Tracking</tspan>
        </text>
      </g>
      <g id="Graphic_1572">
        <path d="M 4291.8655 2449.704 L 4330.7947 2487.341 C 4333.574 2490.0282 4333.649 2494.4597 4330.9617 2497.239 C 4330.907 2497.2957 4330.8513 2497.3514 4330.7947 2497.4062 L 4291.8655 2535.0432 C 4289.152 2537.6664 4284.848 2537.6664 4282.1345 2535.0432 L 4243.2053 2497.4062 C 4240.426 2494.719 4240.351 2490.2875 4243.0383 2487.508 C 4243.093 2487.4515 4243.1487 2487.3958 4243.2053 2487.341 L 4282.1345 2449.704 C 4284.848 2447.0808 4289.152 2447.0808 4291.8655 2449.704 Z" fill="white"/>
        <path d="M 4291.8655 2449.704 L 4330.7947 2487.341 C 4333.574 2490.0282 4333.649 2494.4597 4330.9617 2497.239 C 4330.907 2497.2957 4330.8513 2497.3514 4330.7947 2497.4062 L 4291.8655 2535.0432 C 4289.152 2537.6664 4284.848 2537.6664 4282.1345 2535.0432 L 4243.2053 2497.4062 C 4240.426 2494.719 4240.351 2490.2875 4243.0383 2487.508 C 4243.093 2487.4515 4243.1487 2487.3958 4243.2053 2487.341 L 4282.1345 2449.704 C 4284.848 2447.0808 4289.152 2447.0808 4291.8655 2449.704 Z" stroke="#006990" stroke-linecap="round" stroke-linejoin="round" stroke-dasharray="2.0,2.0" stroke-width="1"/>
        <text transform="translate(4256.23 2474.426)" fill="black">
          <tspan font-family="Metropolis" font-size="14" fill="black" x="2.553" y="14">Business </tspan>
          <tspan font-family="Metropolis" font-size="14" fill="black" x="13.543" y="31">Rules</tspan>
        </text>
      </g>
      <g id="Graphic_1573">
        <path d="M 4400.778 2449.704 L 4439.707 2487.341 C 4442.4866 2490.0282 4442.5614 2494.4597 4439.874 2497.239 C 4439.8195 2497.2957 4439.764 2497.3514 4439.707 2497.4062 L 4400.778 2535.0432 C 4398.065 2537.6664 4393.7603 2537.6664 4391.047 2535.0432 L 4352.118 2497.4062 C 4349.3385 2494.719 4349.2637 2490.2875 4351.951 2487.508 C 4352.0056 2487.4515 4352.0613 2487.3958 4352.118 2487.341 L 4391.047 2449.704 C 4393.7603 2447.0808 4398.065 2447.0808 4400.778 2449.704 Z" fill="white"/>
        <path d="M 4400.778 2449.704 L 4439.707 2487.341 C 4442.4866 2490.0282 4442.5614 2494.4597 4439.874 2497.239 C 4439.8195 2497.2957 4439.764 2497.3514 4439.707 2497.4062 L 4400.778 2535.0432 C 4398.065 2537.6664 4393.7603 2537.6664 4391.047 2535.0432 L 4352.118 2497.4062 C 4349.3385 2494.719 4349.2637 2490.2875 4351.951 2487.508 C 4352.0056 2487.4515 4352.0613 2487.3958 4352.118 2487.341 L 4391.047 2449.704 C 4393.7603 2447.0808 4398.065 2447.0808 4400.778 2449.704 Z" stroke="#006990" stroke-linecap="round" stroke-linejoin="round" stroke-dasharray="2.0,2.0" stroke-width="1"/>
        <text transform="translate(4365.1426 2482.926)" fill="black">
          <tspan font-family="Metropolis" font-size="14" fill="black" x="1.825" y="14">Analytics</tspan>
        </text>
      </g>
      <g id="Graphic_1574">
        <path d="M 4519.274 2449.704 L 4558.203 2487.341 C 4560.9825 2490.0282 4561.0573 2494.4597 4558.37 2497.239 C 4558.3154 2497.2957 4558.2597 2497.3514 4558.203 2497.4062 L 4519.274 2535.0432 C 4516.5606 2537.6664 4512.256 2537.6664 4509.543 2535.0432 L 4470.614 2497.4062 C 4467.8344 2494.719 4467.7596 2490.2875 4470.4467 2487.508 C 4470.5015 2487.4515 4470.557 2487.3958 4470.614 2487.341 L 4509.543 2449.704 C 4512.256 2447.0808 4516.5606 2447.0808 4519.274 2449.704 Z" fill="white"/>
        <path d="M 4519.274 2449.704 L 4558.203 2487.341 C 4560.9825 2490.0282 4561.0573 2494.4597 4558.37 2497.239 C 4558.3154 2497.2957 4558.2597 2497.3514 4558.203 2497.4062 L 4519.274 2535.0432 C 4516.5606 2537.6664 4512.256 2537.6664 4509.543 2535.0432 L 4470.614 2497.4062 C 4467.8344 2494.719 4467.7596 2490.2875 4470.4467 2487.508 C 4470.5015 2487.4515 4470.557 2487.3958 4470.614 2487.341 L 4509.543 2449.704 C 4512.256 2447.0808 4516.5606 2447.0808 4519.274 2449.704 Z" stroke="#006990" stroke-linecap="round" stroke-linejoin="round" stroke-dasharray="2.0,2.0" stroke-width="1"/>
        <text transform="translate(4483.6384 2482.926)" fill="black">
          <tspan font-family="Metropolis" font-size="14" fill="black" x="6.9" y="14">Actions</tspan>
        </text>
      </g>
      <g id="Line_1575">
        <line x1="4564" y1="2495" x2="4660.851" y2="2495" marker-end="url(#FilledArrow_Marker)" stroke="#0095d3" stroke-linecap="square" stroke-linejoin="round" stroke-width="1"/>
      </g>
      <g id="Line_1577">
        <line x1="4166" y1="2537.0106" x2="4166" y2="2564.335" stroke="#0095d3" stroke-linecap="square" stroke-linejoin="round" stroke-width="1"/>
      </g>
      <g id="Line_1578">
        <line x1="4287" y1="2541" x2="4287" y2="2564.335" stroke="#0095d3" stroke-linecap="square" stroke-linejoin="round" stroke-width="1"/>
      </g>
      <g id="Line_1579">
        <line x1="4395.9126" y1="2541" x2="4395.9126" y2="2564.335" stroke="#0095d3" stroke-linecap="square" stroke-linejoin="round" stroke-width="1"/>
      </g>
      <g id="Line_1580">
        <line x1="4514.4084" y1="2537.0106" x2="4514.4084" y2="2564.335" stroke="#0095d3" stroke-linecap="square" stroke-linejoin="round" stroke-width="1"/>
      </g>
      <g id="Graphic_1588">
        <path d="M 4678.0426 2344.492 L 4772.0426 2344.492 C 4773.147 2344.492 4774.0426 2345.3875 4774.0426 2346.492 L 4774.0426 2437.2393 C 4774.0426 2438.3438 4773.147 2439.2393 4772.0426 2439.2393 L 4678.0426 2439.2393 C 4676.938 2439.2393 4676.0426 2438.3438 4676.0426 2437.2393 L 4676.0426 2346.492 C 4676.0426 2345.3875 4676.938 2344.492 4678.0426 2344.492 Z" fill="white"/>
        <path d="M 4678.0426 2344.492 L 4772.0426 2344.492 C 4773.147 2344.492 4774.0426 2345.3875 4774.0426 2346.492 L 4774.0426 2437.2393 C 4774.0426 2438.3438 4773.147 2439.2393 4772.0426 2439.2393 L 4678.0426 2439.2393 C 4676.938 2439.2393 4676.0426 2438.3438 4676.0426 2437.2393 L 4676.0426 2346.492 C 4676.0426 2345.3875 4676.938 2344.492 4678.0426 2344.492 Z" stroke="#006990" stroke-linecap="round" stroke-linejoin="round" stroke-dasharray="2.0,2.0" stroke-width="1"/>
        <text transform="translate(4681.0426 2374.8657)" fill="black">
          <tspan font-family="Metropolis" font-size="14" fill="black" x="19.381" y="14">Control </tspan>
          <tspan font-family="Metropolis" font-size="14" fill="black" x="7.453" y="31">Robot Arm</tspan>
        </text>
      </g>
      <g id="Graphic_1589">
        <path d="M 4678.0426 2447.9865 L 4772.0426 2447.9865 C 4773.147 2447.9865 4774.0426 2448.882 4774.0426 2449.9865 L 4774.0426 2541.0135 C 4774.0426 2542.118 4773.147 2543.0135 4772.0426 2543.0135 L 4678.0426 2543.0135 C 4676.938 2543.0135 4676.0426 2542.118 4676.0426 2541.0135 L 4676.0426 2449.9865 C 4676.0426 2448.882 4676.938 2447.9865 4678.0426 2447.9865 Z" fill="white"/>
        <path d="M 4678.0426 2447.9865 L 4772.0426 2447.9865 C 4773.147 2447.9865 4774.0426 2448.882 4774.0426 2449.9865 L 4774.0426 2541.0135 C 4774.0426 2542.118 4773.147 2543.0135 4772.0426 2543.0135 L 4678.0426 2543.0135 C 4676.938 2543.0135 4676.0426 2542.118 4676.0426 2541.0135 L 4676.0426 2449.9865 C 4676.0426 2448.882 4676.938 2447.9865 4678.0426 2447.9865 Z" stroke="#006990" stroke-linecap="round" stroke-linejoin="round" stroke-dasharray="2.0,2.0" stroke-width="1"/>
        <text transform="translate(4681.0426 2470)" fill="black">
          <tspan font-family="Metropolis" font-size="14" fill="black" x="13.214" y="14">Generate</tspan>
          <tspan font-family="Metropolis" font-size="14" fill="black" x="1.734" y="31">Recommend</tspan>
          <tspan font-family="Metropolis" font-size="14" fill="black" x="27.417" y="48">ation</tspan>
        </text>
      </g>
      <g id="Graphic_1590">
        <path d="M 4678.0426 2551.7607 L 4772.0426 2551.7607 C 4773.147 2551.7607 4774.0426 2552.656 4774.0426 2553.7607 L 4774.0426 2644.508 C 4774.0426 2645.6125 4773.147 2646.508 4772.0426 2646.508 L 4678.0426 2646.508 C 4676.938 2646.508 4676.0426 2645.6125 4676.0426 2644.508 L 4676.0426 2553.7607 C 4676.0426 2552.656 4676.938 2551.7607 4678.0426 2551.7607 Z" fill="white"/>
        <path d="M 4678.0426 2551.7607 L 4772.0426 2551.7607 C 4773.147 2551.7607 4774.0426 2552.656 4774.0426 2553.7607 L 4774.0426 2644.508 C 4774.0426 2645.6125 4773.147 2646.508 4772.0426 2646.508 L 4678.0426 2646.508 C 4676.938 2646.508 4676.0426 2645.6125 4676.0426 2644.508 L 4676.0426 2553.7607 C 4676.0426 2552.656 4676.938 2551.7607 4678.0426 2551.7607 Z" stroke="#006990" stroke-linecap="round" stroke-linejoin="round" stroke-dasharray="2.0,2.0" stroke-width="1"/>
        <text transform="translate(4681.0426 2582.1343)" fill="black">
          <tspan font-family="Metropolis" font-size="14" fill="black" x="19.381" y="14">Control </tspan>
          <tspan font-family="Metropolis" font-size="14" fill="black" x="4.576" y="31">Traffic Light</tspan>
        </text>
      </g>
      <g id="Graphic_1591">
        <path d="M 3596.202 2394.606 L 3639.5063 2436.473 C 3642.2857 2439.1602 3642.3605 2443.5917 3639.6734 2446.371 C 3639.6186 2446.4278 3639.563 2446.4834 3639.5063 2446.5382 L 3596.202 2488.4053 C 3593.4885 2491.0286 3589.184 2491.0286 3586.4708 2488.4053 L 3543.1662 2446.5382 C 3540.387 2443.851 3540.312 2439.4195 3542.999 2436.64 C 3543.054 2436.5835 3543.1096 2436.5278 3543.1662 2436.473 L 3586.4708 2394.606 C 3589.184 2391.9826 3593.4885 2391.9826 3596.202 2394.606 Z" fill="white"/>
        <path d="M 3596.202 2394.606 L 3639.5063 2436.473 C 3642.2857 2439.1602 3642.3605 2443.5917 3639.6734 2446.371 C 3639.6186 2446.4278 3639.563 2446.4834 3639.5063 2446.5382 L 3596.202 2488.4053 C 3593.4885 2491.0286 3589.184 2491.0286 3586.4708 2488.4053 L 3543.1662 2446.5382 C 3540.387 2443.851 3540.312 2439.4195 3542.999 2436.64 C 3543.054 2436.5835 3543.1096 2436.5278 3543.1662 2436.473 L 3586.4708 2394.606 C 3589.184 2391.9826 3593.4885 2391.9826 3596.202 2394.606 Z" stroke="#006990" stroke-linecap="round" stroke-linejoin="round" stroke-dasharray="2.0,2.0" stroke-width="1"/>
        <text transform="translate(3552.3722 2424.4735)" fill="black">
          <tspan font-family="Metropolis" font-size="13" fill="black" x="8.32454" y="13">Streaming </tspan>
          <tspan font-family="Metropolis" font-size="13" fill="black" x="25.54954" y="29">Data</tspan>
        </text>
      </g>
      <g id="Graphic_1592">
        <path d="M 3758.1146 2394.606 L 3801.419 2436.473 C 3804.1985 2439.1602 3804.2733 2443.5917 3801.586 2446.371 C 3801.5314 2446.4278 3801.4757 2446.4834 3801.419 2446.5382 L 3758.1146 2488.4053 C 3755.4013 2491.0286 3751.097 2491.0286 3748.3835 2488.4053 L 3705.079 2446.5382 C 3702.2996 2443.851 3702.225 2439.4195 3704.912 2436.64 C 3704.9667 2436.5835 3705.0224 2436.5278 3705.079 2436.473 L 3748.3835 2394.606 C 3751.097 2391.9826 3755.4013 2391.9826 3758.1146 2394.606 Z" fill="white"/>
        <path d="M 3758.1146 2394.606 L 3801.419 2436.473 C 3804.1985 2439.1602 3804.2733 2443.5917 3801.586 2446.371 C 3801.5314 2446.4278 3801.4757 2446.4834 3801.419 2446.5382 L 3758.1146 2488.4053 C 3755.4013 2491.0286 3751.097 2491.0286 3748.3835 2488.4053 L 3705.079 2446.5382 C 3702.2996 2443.851 3702.225 2439.4195 3704.912 2436.64 C 3704.9667 2436.5835 3705.0224 2436.5278 3705.079 2436.473 L 3748.3835 2394.606 C 3751.097 2391.9826 3755.4013 2391.9826 3758.1146 2394.606 Z" stroke="#006990" stroke-linecap="round" stroke-linejoin="round" stroke-dasharray="2.0,2.0" stroke-width="1"/>
        <text transform="translate(3714.285 2424.4735)" fill="black">
          <tspan font-family="Metropolis" font-size="13" fill="black" x="26.41404" y="13">Pre-</tspan>
          <tspan font-family="Metropolis" font-size="13" fill="black" x="5.99754" y="29">Processing</tspan>
        </text>
      </g>
      <g id="Graphic_1593">
        <path d="M 3596.202 2721.3783 L 3639.5063 2763.2455 C 3642.2857 2765.9326 3642.3605 2770.364 3639.6734 2773.1435 C 3639.6186 2773.2 3639.563 2773.256 3639.5063 2773.3106 L 3596.202 2815.1778 C 3593.4885 2817.801 3589.184 2817.801 3586.4708 2815.1778 L 3543.1662 2773.3106 C 3540.387 2770.6234 3540.312 2766.192 3542.999 2763.4125 C 3543.054 2763.356 3543.1096 2763.3002 3543.1662 2763.2455 L 3586.4708 2721.3783 C 3589.184 2718.755 3593.4885 2718.755 3596.202 2721.3783 Z" fill="white"/>
        <path d="M 3596.202 2721.3783 L 3639.5063 2763.2455 C 3642.2857 2765.9326 3642.3605 2770.364 3639.6734 2773.1435 C 3639.6186 2773.2 3639.563 2773.256 3639.5063 2773.3106 L 3596.202 2815.1778 C 3593.4885 2817.801 3589.184 2817.801 3586.4708 2815.1778 L 3543.1662 2773.3106 C 3540.387 2770.6234 3540.312 2766.192 3542.999 2763.4125 C 3543.054 2763.356 3543.1096 2763.3002 3543.1662 2763.2455 L 3586.4708 2721.3783 C 3589.184 2718.755 3593.4885 2718.755 3596.202 2721.3783 Z" stroke="#006990" stroke-linecap="round" stroke-linejoin="round" stroke-dasharray="2.0,2.0" stroke-width="1"/>
        <text transform="translate(3552.3722 2751.246)" fill="black">
          <tspan font-family="Metropolis" font-size="13" fill="black" x="20.73954" y="13">Model</tspan>
          <tspan font-family="Metropolis" font-size="13" fill="black" x="7.68104" y="29">Packaging</tspan>
        </text>
      </g>
      <g id="Graphic_1594">
        <path d="M 3758.1146 2721.3783 L 3801.419 2763.2455 C 3804.1985 2765.9326 3804.2733 2770.364 3801.586 2773.1435 C 3801.5314 2773.2 3801.4757 2773.256 3801.419 2773.3106 L 3758.1146 2815.1778 C 3755.4013 2817.801 3751.097 2817.801 3748.3835 2815.1778 L 3705.079 2773.3106 C 3702.2996 2770.6234 3702.225 2766.192 3704.912 2763.4125 C 3704.9667 2763.356 3705.0224 2763.3002 3705.079 2763.2455 L 3748.3835 2721.3783 C 3751.097 2718.755 3755.4013 2718.755 3758.1146 2721.3783 Z" fill="white"/>
        <path d="M 3758.1146 2721.3783 L 3801.419 2763.2455 C 3804.1985 2765.9326 3804.2733 2770.364 3801.586 2773.1435 C 3801.5314 2773.2 3801.4757 2773.256 3801.419 2773.3106 L 3758.1146 2815.1778 C 3755.4013 2817.801 3751.097 2817.801 3748.3835 2815.1778 L 3705.079 2773.3106 C 3702.2996 2770.6234 3702.225 2766.192 3704.912 2763.4125 C 3704.9667 2763.356 3705.0224 2763.3002 3705.079 2763.2455 L 3748.3835 2721.3783 C 3751.097 2718.755 3755.4013 2718.755 3758.1146 2721.3783 Z" stroke="#006990" stroke-linecap="round" stroke-linejoin="round" stroke-dasharray="2.0,2.0" stroke-width="1"/>
        <text transform="translate(3714.285 2751.246)" fill="black">
          <tspan font-family="Metropolis" font-size="13" fill="black" x="20.73954" y="13">Model</tspan>
          <tspan font-family="Metropolis" font-size="13" fill="black" x="2.18204" y="29">Deployment</tspan>
        </text>
      </g>
      <g id="Line_1595">
        <line x1="3591.3363" y1="2490.3728" x2="3591.3363" y2="2514" stroke="#0095d3" stroke-linecap="square" stroke-linejoin="round" stroke-width="1"/>
      </g>
      <g id="Line_1596">
        <line x1="3753.249" y1="2490.3728" x2="3753.249" y2="2514" stroke="#0095d3" stroke-linecap="square" stroke-linejoin="round" stroke-width="1"/>
      </g>
      <g id="Line_1597">
        <line x1="3591.3363" y1="2719.411" x2="3591.3363" y2="2695.7528" stroke="#0095d3" stroke-linecap="square" stroke-linejoin="round" stroke-width="1"/>
      </g>
      <g id="Line_1599">
        <line x1="3753.249" y1="2719.411" x2="3753.249" y2="2695.7528" stroke="#0095d3" stroke-linecap="square" stroke-linejoin="round" stroke-width="1"/>
      </g>
      <g id="Graphic_1600">
        <path d="M 2839.0685 2721.3783 L 2882.373 2763.2455 C 2885.1524 2765.9326 2885.2272 2770.364 2882.54 2773.1435 C 2882.4853 2773.2 2882.4296 2773.256 2882.373 2773.3106 L 2839.0685 2815.1778 C 2836.355 2817.801 2832.0507 2817.801 2829.3374 2815.1778 L 2786.033 2773.3106 C 2783.2535 2770.6234 2783.1787 2766.192 2785.866 2763.4125 C 2785.9206 2763.356 2785.9763 2763.3002 2786.033 2763.2455 L 2829.3374 2721.3783 C 2832.0507 2718.755 2836.355 2718.755 2839.0685 2721.3783 Z" fill="white"/>
        <path d="M 2839.0685 2721.3783 L 2882.373 2763.2455 C 2885.1524 2765.9326 2885.2272 2770.364 2882.54 2773.1435 C 2882.4853 2773.2 2882.4296 2773.256 2882.373 2773.3106 L 2839.0685 2815.1778 C 2836.355 2817.801 2832.0507 2817.801 2829.3374 2815.1778 L 2786.033 2773.3106 C 2783.2535 2770.6234 2783.1787 2766.192 2785.866 2763.4125 C 2785.9206 2763.356 2785.9763 2763.3002 2786.033 2763.2455 L 2829.3374 2721.3783 C 2832.0507 2718.755 2836.355 2718.755 2839.0685 2721.3783 Z" stroke="#006990" stroke-linecap="round" stroke-linejoin="round" stroke-dasharray="2.0,2.0" stroke-width="1"/>
        <text transform="translate(2795.239 2751.246)" fill="black">
          <tspan font-family="Metropolis" font-size="13" fill="black" x="20.73954" y="13">Model</tspan>
          <tspan font-family="Metropolis" font-size="13" fill="black" x="14.57104" y="29">Building</tspan>
        </text>
      </g>
      <g id="Graphic_1601">
        <path d="M 3065.6045 2721.3783 L 3108.909 2763.2455 C 3111.6885 2765.9326 3111.7632 2770.364 3109.076 2773.1435 C 3109.0214 2773.2 3108.9657 2773.256 3108.909 2773.3106 L 3065.6045 2815.1778 C 3062.8912 2817.801 3058.5868 2817.801 3055.8735 2815.1778 L 3012.569 2773.3106 C 3009.7895 2770.6234 3009.7148 2766.192 3012.402 2763.4125 C 3012.4566 2763.356 3012.5123 2763.3002 3012.569 2763.2455 L 3055.8735 2721.3783 C 3058.5868 2718.755 3062.8912 2718.755 3065.6045 2721.3783 Z" fill="white"/>
        <path d="M 3065.6045 2721.3783 L 3108.909 2763.2455 C 3111.6885 2765.9326 3111.7632 2770.364 3109.076 2773.1435 C 3109.0214 2773.2 3108.9657 2773.256 3108.909 2773.3106 L 3065.6045 2815.1778 C 3062.8912 2817.801 3058.5868 2817.801 3055.8735 2815.1778 L 3012.569 2773.3106 C 3009.7895 2770.6234 3009.7148 2766.192 3012.402 2763.4125 C 3012.4566 2763.356 3012.5123 2763.3002 3012.569 2763.2455 L 3055.8735 2721.3783 C 3058.5868 2718.755 3062.8912 2718.755 3065.6045 2721.3783 Z" stroke="#006990" stroke-linecap="round" stroke-linejoin="round" stroke-dasharray="2.0,2.0" stroke-width="1"/>
        <text transform="translate(3021.775 2751.246)" fill="black">
          <tspan font-family="Metropolis" font-size="13" fill="black" x="20.73954" y="13">Model</tspan>
          <tspan font-family="Metropolis" font-size="13" fill="black" x="14.57104" y="29">Building</tspan>
        </text>
      </g>
      <g id="Line_1602">
        <line x1="3060.739" y1="2719.411" x2="3060.739" y2="2695.7528" stroke="#0095d3" stroke-linecap="square" stroke-linejoin="round" stroke-width="1"/>
      </g>
      <g id="Graphic_1603">
        <path d="M 2531.8506 2394.606 L 2575.1552 2436.473 C 2577.9346 2439.1602 2578.0094 2443.5917 2575.3222 2446.371 C 2575.2675 2446.4278 2575.2118 2446.4834 2575.1552 2446.5382 L 2531.8506 2488.4053 C 2529.1373 2491.0286 2524.833 2491.0286 2522.1196 2488.4053 L 2478.815 2446.5382 C 2476.0357 2443.851 2475.961 2439.4195 2478.648 2436.64 C 2478.7028 2436.5835 2478.7584 2436.5278 2478.815 2436.473 L 2522.1196 2394.606 C 2524.833 2391.9826 2529.1373 2391.9826 2531.8506 2394.606 Z" fill="white"/>
        <path d="M 2531.8506 2394.606 L 2575.1552 2436.473 C 2577.9346 2439.1602 2578.0094 2443.5917 2575.3222 2446.371 C 2575.2675 2446.4278 2575.2118 2446.4834 2575.1552 2446.5382 L 2531.8506 2488.4053 C 2529.1373 2491.0286 2524.833 2491.0286 2522.1196 2488.4053 L 2478.815 2446.5382 C 2476.0357 2443.851 2475.961 2439.4195 2478.648 2436.64 C 2478.7028 2436.5835 2478.7584 2436.5278 2478.815 2436.473 L 2522.1196 2394.606 C 2524.833 2391.9826 2529.1373 2391.9826 2531.8506 2394.606 Z" stroke="#006990" stroke-linecap="round" stroke-linejoin="round" stroke-dasharray="2.0,2.0" stroke-width="1"/>
        <text transform="translate(2488.021 2424.4735)" fill="black">
          <tspan font-family="Metropolis" font-size="13" fill="black" x="25.54954" y="13">Data</tspan>
          <tspan font-family="Metropolis" font-size="13" fill="black" x="11.43154" y="29">Ingestion</tspan>
        </text>
      </g>
      <g id="Graphic_1604">
        <path d="M 2638.6014 2394.606 L 2681.906 2436.473 C 2684.6853 2439.1602 2684.76 2443.5917 2682.073 2446.371 C 2682.0182 2446.4278 2681.9626 2446.4834 2681.906 2446.5382 L 2638.6014 2488.4053 C 2635.888 2491.0286 2631.5837 2491.0286 2628.8704 2488.4053 L 2585.5658 2446.5382 C 2582.7864 2443.851 2582.7116 2439.4195 2585.3988 2436.64 C 2585.4535 2436.5835 2585.5092 2436.5278 2585.5658 2436.473 L 2628.8704 2394.606 C 2631.5837 2391.9826 2635.888 2391.9826 2638.6014 2394.606 Z" fill="white"/>
        <path d="M 2638.6014 2394.606 L 2681.906 2436.473 C 2684.6853 2439.1602 2684.76 2443.5917 2682.073 2446.371 C 2682.0182 2446.4278 2681.9626 2446.4834 2681.906 2446.5382 L 2638.6014 2488.4053 C 2635.888 2491.0286 2631.5837 2491.0286 2628.8704 2488.4053 L 2585.5658 2446.5382 C 2582.7864 2443.851 2582.7116 2439.4195 2585.3988 2436.64 C 2585.4535 2436.5835 2585.5092 2436.5278 2585.5658 2436.473 L 2628.8704 2394.606 C 2631.5837 2391.9826 2635.888 2391.9826 2638.6014 2394.606 Z" stroke="#006990" stroke-linecap="round" stroke-linejoin="round" stroke-dasharray="2.0,2.0" stroke-width="1"/>
        <text transform="translate(2594.772 2424.4735)" fill="black">
          <tspan font-family="Metropolis" font-size="13" fill="black" x="25.54954" y="13">Data</tspan>
          <tspan font-family="Metropolis" font-size="13" fill="black" x="9.34504" y="29">Collection</tspan>
        </text>
      </g>
      <g id="Graphic_1605">
        <path d="M 2745.3522 2394.606 L 2788.6567 2436.473 C 2791.436 2439.1602 2791.511 2443.5917 2788.8238 2446.371 C 2788.769 2446.4278 2788.7133 2446.4834 2788.6567 2446.5382 L 2745.3522 2488.4053 C 2742.639 2491.0286 2738.3345 2491.0286 2735.621 2488.4053 L 2692.3166 2446.5382 C 2689.5372 2443.851 2689.4624 2439.4195 2692.1496 2436.64 C 2692.2043 2436.5835 2692.26 2436.5278 2692.3166 2436.473 L 2735.621 2394.606 C 2738.3345 2391.9826 2742.639 2391.9826 2745.3522 2394.606 Z" fill="white"/>
        <path d="M 2745.3522 2394.606 L 2788.6567 2436.473 C 2791.436 2439.1602 2791.511 2443.5917 2788.8238 2446.371 C 2788.769 2446.4278 2788.7133 2446.4834 2788.6567 2446.5382 L 2745.3522 2488.4053 C 2742.639 2491.0286 2738.3345 2491.0286 2735.621 2488.4053 L 2692.3166 2446.5382 C 2689.5372 2443.851 2689.4624 2439.4195 2692.1496 2436.64 C 2692.2043 2436.5835 2692.26 2436.5278 2692.3166 2436.473 L 2735.621 2394.606 C 2738.3345 2391.9826 2742.639 2391.9826 2745.3522 2394.606 Z" stroke="#006990" stroke-linecap="round" stroke-linejoin="round" stroke-dasharray="2.0,2.0" stroke-width="1"/>
        <text transform="translate(2701.5226 2424.4735)" fill="black">
          <tspan font-family="Metropolis" font-size="13" fill="black" x="25.54954" y="13">Data</tspan>
          <tspan font-family="Metropolis" font-size="13" fill="black" x="8.83154" y="29">Validation</tspan>
        </text>
      </g>
      <g id="Graphic_1606">
        <path d="M 2852.103 2394.606 L 2895.4075 2436.473 C 2898.187 2439.1602 2898.2617 2443.5917 2895.5745 2446.371 C 2895.5198 2446.4278 2895.464 2446.4834 2895.4075 2446.5382 L 2852.103 2488.4053 C 2849.3897 2491.0286 2845.0852 2491.0286 2842.372 2488.4053 L 2799.0674 2446.5382 C 2796.288 2443.851 2796.2132 2439.4195 2798.9004 2436.64 C 2798.955 2436.5835 2799.0108 2436.5278 2799.0674 2436.473 L 2842.372 2394.606 C 2845.0852 2391.9826 2849.3897 2391.9826 2852.103 2394.606 Z" fill="white"/>
        <path d="M 2852.103 2394.606 L 2895.4075 2436.473 C 2898.187 2439.1602 2898.2617 2443.5917 2895.5745 2446.371 C 2895.5198 2446.4278 2895.464 2446.4834 2895.4075 2446.5382 L 2852.103 2488.4053 C 2849.3897 2491.0286 2845.0852 2491.0286 2842.372 2488.4053 L 2799.0674 2446.5382 C 2796.288 2443.851 2796.2132 2439.4195 2798.9004 2436.64 C 2798.955 2436.5835 2799.0108 2436.5278 2799.0674 2436.473 L 2842.372 2394.606 C 2845.0852 2391.9826 2849.3897 2391.9826 2852.103 2394.606 Z" stroke="#006990" stroke-linecap="round" stroke-linejoin="round" stroke-dasharray="2.0,2.0" stroke-width="1"/>
        <text transform="translate(2808.2734 2424.4735)" fill="black">
          <tspan font-family="Metropolis" font-size="13" fill="black" x="25.54954" y="13">Data</tspan>
          <tspan font-family="Metropolis" font-size="13" fill="black" x="12.97854" y="29">Cleaning</tspan>
        </text>
      </g>
      <g id="Graphic_1607">
        <path d="M 2958.8537 2394.606 L 3002.1583 2436.473 C 3004.9377 2439.1602 3005.0125 2443.5917 3002.3253 2446.371 C 3002.2706 2446.4278 3002.215 2446.4834 3002.1583 2446.5382 L 2958.8537 2488.4053 C 2956.1404 2491.0286 2951.836 2491.0286 2949.1227 2488.4053 L 2905.818 2446.5382 C 2903.0388 2443.851 2902.964 2439.4195 2905.651 2436.64 C 2905.706 2436.5835 2905.7616 2436.5278 2905.818 2436.473 L 2949.1227 2394.606 C 2951.836 2391.9826 2956.1404 2391.9826 2958.8537 2394.606 Z" fill="white"/>
        <path d="M 2958.8537 2394.606 L 3002.1583 2436.473 C 3004.9377 2439.1602 3005.0125 2443.5917 3002.3253 2446.371 C 3002.2706 2446.4278 3002.215 2446.4834 3002.1583 2446.5382 L 2958.8537 2488.4053 C 2956.1404 2491.0286 2951.836 2491.0286 2949.1227 2488.4053 L 2905.818 2446.5382 C 2903.0388 2443.851 2902.964 2439.4195 2905.651 2436.64 C 2905.706 2436.5835 2905.7616 2436.5278 2905.818 2436.473 L 2949.1227 2394.606 C 2951.836 2391.9826 2956.1404 2391.9826 2958.8537 2394.606 Z" stroke="#006990" stroke-linecap="round" stroke-linejoin="round" stroke-dasharray="2.0,2.0" stroke-width="1"/>
        <text transform="translate(2915.0242 2416.4735)" fill="black">
          <tspan font-family="Metropolis" font-size="13" fill="black" x="25.54954" y="13">Data</tspan>
          <tspan font-family="Metropolis" font-size="13" fill="black" x="22.98854" y="29">Trans</tspan>
          <tspan font-family="Metropolis" font-size="13" fill="black" x="10.10554" y="45">formation</tspan>
        </text>
      </g>
      <g id="Graphic_1608">
        <path d="M 3065.6045 2394.606 L 3108.909 2436.473 C 3111.6885 2439.1602 3111.7632 2443.5917 3109.076 2446.371 C 3109.0214 2446.4278 3108.9657 2446.4834 3108.909 2446.5382 L 3065.6045 2488.4053 C 3062.8912 2491.0286 3058.5868 2491.0286 3055.8735 2488.4053 L 3012.569 2446.5382 C 3009.7895 2443.851 3009.7148 2439.4195 3012.402 2436.64 C 3012.4566 2436.5835 3012.5123 2436.5278 3012.569 2436.473 L 3055.8735 2394.606 C 3058.5868 2391.9826 3062.8912 2391.9826 3065.6045 2394.606 Z" fill="white"/>
        <path d="M 3065.6045 2394.606 L 3108.909 2436.473 C 3111.6885 2439.1602 3111.7632 2443.5917 3109.076 2446.371 C 3109.0214 2446.4278 3108.9657 2446.4834 3108.909 2446.5382 L 3065.6045 2488.4053 C 3062.8912 2491.0286 3058.5868 2491.0286 3055.8735 2488.4053 L 3012.569 2446.5382 C 3009.7895 2443.851 3009.7148 2439.4195 3012.402 2436.64 C 3012.4566 2436.5835 3012.5123 2436.5278 3012.569 2436.473 L 3055.8735 2394.606 C 3058.5868 2391.9826 3062.8912 2391.9826 3065.6045 2394.606 Z" stroke="#006990" stroke-linecap="round" stroke-linejoin="round" stroke-dasharray="2.0,2.0" stroke-width="1"/>
        <text transform="translate(3021.775 2424.4735)" fill="black">
          <tspan font-family="Metropolis" font-size="13" fill="black" x="25.54954" y="13">Data</tspan>
          <tspan font-family="Metropolis" font-size="13" fill="black" x="13.44004" y="29">Labeling</tspan>
        </text>
      </g>
      <g id="Line_1609">
        <line x1="3060.739" y1="2490.3728" x2="3060.739" y2="2514" stroke="#0095d3" stroke-linecap="square" stroke-linejoin="round" stroke-width="1"/>
      </g>
      <g id="Line_1610">
        <line x1="2953.9882" y1="2490.3728" x2="2953.9882" y2="2514" stroke="#0095d3" stroke-linecap="square" stroke-linejoin="round" stroke-width="1"/>
      </g>
      <g id="Line_1611">
        <line x1="2847.2374" y1="2490.3728" x2="2847.2374" y2="2514" stroke="#0095d3" stroke-linecap="square" stroke-linejoin="round" stroke-width="1"/>
      </g>
      <g id="Line_1612">
        <line x1="2740.4867" y1="2490.3728" x2="2740.4867" y2="2514" stroke="#0095d3" stroke-linecap="square" stroke-linejoin="round" stroke-width="1"/>
      </g>
      <g id="Line_1613">
        <line x1="2633.736" y1="2490.3728" x2="2633.736" y2="2514" stroke="#0095d3" stroke-linecap="square" stroke-linejoin="round" stroke-width="1"/>
      </g>
      <g id="Line_1614">
        <line x1="2527" y1="2491" x2="2527" y2="2514" stroke="#0095d3" stroke-linecap="square" stroke-linejoin="round" stroke-width="1"/>
      </g>
      <g id="Graphic_1615">
        <path d="M 3247.4512 2919 L 4061.1077 2919 C 4064.9737 2919 4068.1077 2922.134 4068.1077 2926 L 4068.1077 2980 C 4068.1077 2983.866 4064.9737 2987 4061.1077 2987 L 3247.4512 2987 C 3243.5852 2987 3240.4512 2983.866 3240.4512 2980 L 3240.4512 2926 C 3240.4512 2922.134 3243.5852 2919 3247.4512 2919 Z" fill="white"/>
        <path d="M 3247.4512 2919 L 4061.1077 2919 C 4064.9737 2919 4068.1077 2922.134 4068.1077 2926 L 4068.1077 2980 C 4068.1077 2983.866 4064.9737 2987 4061.1077 2987 L 3247.4512 2987 C 3243.5852 2987 3240.4512 2983.866 3240.4512 2980 L 3240.4512 2926 C 3240.4512 2922.134 3243.5852 2919 3247.4512 2919 Z" stroke="#006990" stroke-linecap="round" stroke-linejoin="round" stroke-dasharray="2.0,2.0" stroke-width="1"/>
        <text transform="translate(3245.4512 2943.5)" fill="black">
          <tspan font-family="Metropolis" font-size="16" fill="black" x="209.75625" y="16">Continuous Training Pipeline (Manage Model Decay)</tspan>
        </text>
      </g>
      <g id="Group_1616">
        <g id="Graphic_1645">
          <circle cx="3256.8143" cy="2939.198" r="5.15389515413452" fill="#33d7f9"/>
          <circle cx="3256.8143" cy="2939.198" r="5.15389515413452" stroke="black" stroke-linecap="round" stroke-linejoin="round" stroke-width="1"/>
        </g>
        <g id="Graphic_1644">
          <circle cx="3256.8143" cy="2952.8253" r="5.15389515413464" fill="#33d7f9"/>
          <circle cx="3256.8143" cy="2952.8253" r="5.15389515413464" stroke="black" stroke-linecap="round" stroke-linejoin="round" stroke-width="1"/>
        </g>
        <g id="Graphic_1643">
          <circle cx="3275.508" cy="2932.559" r="5.15389515413452" fill="#f95700"/>
          <circle cx="3275.508" cy="2932.559" r="5.15389515413452" stroke="black" stroke-linecap="round" stroke-linejoin="round" stroke-width="1"/>
        </g>
        <g id="Graphic_1642">
          <circle cx="3275.508" cy="2946.1864" r="5.15389515413452" fill="#f95700"/>
          <circle cx="3275.508" cy="2946.1864" r="5.15389515413452" stroke="black" stroke-linecap="round" stroke-linejoin="round" stroke-width="1"/>
        </g>
        <g id="Graphic_1641">
          <circle cx="3275.508" cy="2959.8136" r="5.15389515413458" fill="#f95700"/>
          <circle cx="3275.508" cy="2959.8136" r="5.15389515413458" stroke="black" stroke-linecap="round" stroke-linejoin="round" stroke-width="1"/>
        </g>
        <g id="Graphic_1640">
          <circle cx="3293.765" cy="2943.6196" r="5.15389515413452" fill="#00a4cc"/>
          <circle cx="3293.765" cy="2943.6196" r="5.15389515413452" stroke="black" stroke-linecap="round" stroke-linejoin="round" stroke-width="1"/>
        </g>
        <g id="Line_1639">
          <line x1="3261.672" y1="2937.473" x2="3270.6502" y2="2934.2844" stroke="black" stroke-linecap="round" stroke-linejoin="round" stroke-width="1"/>
        </g>
        <g id="Line_1638">
          <line x1="3261.643" y1="2941.0032" x2="3270.6793" y2="2944.3812" stroke="black" stroke-linecap="round" stroke-linejoin="round" stroke-width="1"/>
        </g>
        <g id="Line_1637">
          <line x1="3261.672" y1="2951.1" x2="3270.6502" y2="2947.9116" stroke="black" stroke-linecap="round" stroke-linejoin="round" stroke-width="1"/>
        </g>
        <g id="Line_1636">
          <line x1="3260.3088" y1="2949.037" x2="3272.0136" y2="2936.3476" stroke="black" stroke-linecap="round" stroke-linejoin="round" stroke-width="1"/>
        </g>
        <g id="Line_1635">
          <line x1="3261.643" y1="2954.6304" x2="3270.6793" y2="2958.0085" stroke="black" stroke-linecap="round" stroke-linejoin="round" stroke-width="1"/>
        </g>
        <g id="Line_1634">
          <line x1="3260.2764" y1="2943.016" x2="3272.046" y2="2955.9956" stroke="black" stroke-linecap="round" stroke-linejoin="round" stroke-width="1"/>
        </g>
        <g id="Line_1633">
          <line x1="3279.917" y1="2935.2303" x2="3289.356" y2="2940.9485" stroke="black" stroke-linecap="round" stroke-linejoin="round" stroke-width="1"/>
        </g>
        <g id="Line_1632">
          <line x1="3279.364" y1="2956.3935" x2="3289.9093" y2="2947.0397" stroke="black" stroke-linecap="round" stroke-linejoin="round" stroke-width="1"/>
        </g>
        <g id="Line_1631">
          <line x1="3280.612" y1="2945.4688" x2="3288.661" y2="2944.3372" stroke="black" stroke-linecap="round" stroke-linejoin="round" stroke-width="1"/>
        </g>
        <g id="Graphic_1630">
          <circle cx="3256.8143" cy="2966.4525" r="5.15389515413464" fill="#33d7f9"/>
          <circle cx="3256.8143" cy="2966.4525" r="5.15389515413464" stroke="black" stroke-linecap="round" stroke-linejoin="round" stroke-width="1"/>
        </g>
        <g id="Graphic_1629">
          <circle cx="3275.508" cy="2973.441" r="5.1538951541344" fill="#f95700"/>
          <circle cx="3275.508" cy="2973.441" r="5.1538951541344" stroke="black" stroke-linecap="round" stroke-linejoin="round" stroke-width="1"/>
        </g>
        <g id="Graphic_1628">
          <circle cx="3293.765" cy="2962.871" r="5.15389515413446" fill="#00a4cc"/>
          <circle cx="3293.765" cy="2962.871" r="5.15389515413446" stroke="black" stroke-linecap="round" stroke-linejoin="round" stroke-width="1"/>
        </g>
        <g id="Line_1627">
          <line x1="3261.672" y1="2964.7273" x2="3270.6502" y2="2961.539" stroke="black" stroke-linecap="round" stroke-linejoin="round" stroke-width="1"/>
        </g>
        <g id="Line_1626">
          <line x1="3261.643" y1="2968.2577" x2="3270.6793" y2="2971.6357" stroke="black" stroke-linecap="round" stroke-linejoin="round" stroke-width="1"/>
        </g>
        <g id="Line_1625">
          <line x1="3260.3088" y1="2962.664" x2="3272.0136" y2="2949.9748" stroke="black" stroke-linecap="round" stroke-linejoin="round" stroke-width="1"/>
        </g>
        <g id="Line_1624">
          <line x1="3259.304" y1="2961.9384" x2="3273.0183" y2="2937.0733" stroke="black" stroke-linecap="round" stroke-linejoin="round" stroke-width="1"/>
        </g>
        <g id="Line_1623">
          <line x1="3259.2845" y1="2943.723" x2="3273.038" y2="2968.916" stroke="black" stroke-linecap="round" stroke-linejoin="round" stroke-width="1"/>
        </g>
        <g id="Line_1622">
          <line x1="3260.2764" y1="2956.6433" x2="3272.046" y2="2969.6228" stroke="black" stroke-linecap="round" stroke-linejoin="round" stroke-width="1"/>
        </g>
        <g id="Line_1621">
          <line x1="3279.9695" y1="2970.858" x2="3289.3037" y2="2965.454" stroke="black" stroke-linecap="round" stroke-linejoin="round" stroke-width="1"/>
        </g>
        <g id="Line_1620">
          <line x1="3278.1997" y1="2969.0443" x2="3291.0734" y2="2948.0162" stroke="black" stroke-linecap="round" stroke-linejoin="round" stroke-width="1"/>
        </g>
        <g id="Line_1619">
          <line x1="3280.5916" y1="2960.665" x2="3288.6816" y2="2962.0197" stroke="black" stroke-linecap="round" stroke-linejoin="round" stroke-width="1"/>
        </g>
        <g id="Line_1618">
          <line x1="3279.3126" y1="2949.6633" x2="3289.9605" y2="2959.394" stroke="black" stroke-linecap="round" stroke-linejoin="round" stroke-width="1"/>
        </g>
        <g id="Line_1617">
          <line x1="3278.168" y1="2936.975" x2="3291.1053" y2="2958.455" stroke="black" stroke-linecap="round" stroke-linejoin="round" stroke-width="1"/>
        </g>
      </g>
      <g id="Group_1646">
        <g id="Graphic_1649">
          <rect x="3312" y="2943.2588" width="8.390216" height="30.574516" fill="#33d7f9"/>
          <rect x="3312" y="2943.2588" width="8.390216" height="30.574516" stroke="#0095d3" stroke-linecap="round" stroke-linejoin="round" stroke-width="1"/>
        </g>
        <g id="Graphic_1648">
          <rect x="3324.8725" y="2932.1667" width="8.390216" height="41.666667" fill="#f95700"/>
          <rect x="3324.8725" y="2932.1667" width="8.390216" height="41.666667" stroke="#0095d3" stroke-linecap="round" stroke-linejoin="round" stroke-width="1"/>
        </g>
        <g id="Graphic_1647">
          <rect x="3337.745" y="2937.5705" width="8.390216" height="36.2628" fill="#00a4cc"/>
          <rect x="3337.745" y="2937.5705" width="8.390216" height="36.2628" stroke="#0095d3" stroke-linecap="round" stroke-linejoin="round" stroke-width="1"/>
        </g>
      </g>
      <g id="Line_1650">
        <line x1="3295.619" y1="2919" x2="3295.619" y2="2877.2528" stroke="#0095d3" stroke-linecap="square" stroke-linejoin="round" stroke-width="1"/>
      </g>
      <g id="Line_1651">
        <line x1="4006.3885" y1="2870.2528" x2="4006.3885" y2="2919" stroke="#0095d3" stroke-linecap="square" stroke-linejoin="round" stroke-width="1"/>
      </g>
      <g id="Graphic_1655">
        <path d="M 4183.241 2906.1003 L 4226.5454 2947.9674 C 4229.325 2950.6546 4229.3996 2955.086 4226.7125 2957.8655 C 4226.6577 2957.922 4226.602 2957.978 4226.5454 2958.0326 L 4183.241 2999.8997 C 4180.5276 3002.523 4176.223 3002.523 4173.51 2999.8997 L 4130.2053 2958.0326 C 4127.426 2955.3454 4127.351 2950.914 4130.0383 2948.1345 C 4130.093 2948.078 4130.1487 2948.022 4130.2053 2947.9674 L 4173.51 2906.1003 C 4176.223 2903.477 4180.5276 2903.477 4183.241 2906.1003 Z" fill="white"/>
        <path d="M 4183.241 2906.1003 L 4226.5454 2947.9674 C 4229.325 2950.6546 4229.3996 2955.086 4226.7125 2957.8655 C 4226.6577 2957.922 4226.602 2957.978 4226.5454 2958.0326 L 4183.241 2999.8997 C 4180.5276 3002.523 4176.223 3002.523 4173.51 2999.8997 L 4130.2053 2958.0326 C 4127.426 2955.3454 4127.351 2950.914 4130.0383 2948.1345 C 4130.093 2948.078 4130.1487 2948.022 4130.2053 2947.9674 L 4173.51 2906.1003 C 4176.223 2903.477 4180.5276 2903.477 4183.241 2906.1003 Z" stroke="#006990" stroke-linecap="round" stroke-linejoin="round" stroke-dasharray="2.0,2.0" stroke-width="1"/>
        <text transform="translate(4139.4114 2943.968)" fill="black">
          <tspan font-family="Metropolis" font-size="13" fill="black" x="6.30304" y="13">Monitoring</tspan>
        </text>
      </g>
      <g id="Line_1656">
        <line x1="4178.3754" y1="2904.133" x2="4178.3754" y2="2632.335" stroke="#0095d3" stroke-linecap="square" stroke-linejoin="round" stroke-width="1"/>
      </g>
      <g id="Line_1657">
        <line x1="4128.071" y1="2953" x2="4068.1077" y2="2953" stroke="#0095d3" stroke-linecap="square" stroke-linejoin="round" stroke-width="1"/>
      </g>
      <g id="Graphic_1658">
        <path d="M 4296.241 2906.1003 L 4339.5454 2947.9674 C 4342.325 2950.6546 4342.3996 2955.086 4339.7125 2957.8655 C 4339.658 2957.922 4339.602 2957.978 4339.5454 2958.0326 L 4296.241 2999.8997 C 4293.5276 3002.523 4289.223 3002.523 4286.51 2999.8997 L 4243.2053 2958.0326 C 4240.426 2955.3454 4240.351 2950.914 4243.0383 2948.1345 C 4243.093 2948.078 4243.1487 2948.022 4243.2053 2947.9674 L 4286.51 2906.1003 C 4289.223 2903.477 4293.5276 2903.477 4296.241 2906.1003 Z" fill="white"/>
        <path d="M 4296.241 2906.1003 L 4339.5454 2947.9674 C 4342.325 2950.6546 4342.3996 2955.086 4339.7125 2957.8655 C 4339.658 2957.922 4339.602 2957.978 4339.5454 2958.0326 L 4296.241 2999.8997 C 4293.5276 3002.523 4289.223 3002.523 4286.51 2999.8997 L 4243.2053 2958.0326 C 4240.426 2955.3454 4240.351 2950.914 4243.0383 2948.1345 C 4243.093 2948.078 4243.1487 2948.022 4243.2053 2947.9674 L 4286.51 2906.1003 C 4289.223 2903.477 4293.5276 2903.477 4296.241 2906.1003 Z" stroke="#006990" stroke-linecap="round" stroke-linejoin="round" stroke-dasharray="2.0,2.0" stroke-width="1"/>
        <text transform="translate(4252.4114 2943.968)" fill="black">
          <tspan font-family="Metropolis" font-size="13" fill="black" x="14.39554" y="13">Logging</tspan>
        </text>
      </g>
      <g id="Line_1659">
        <line x1="4241.071" y1="2953" x2="4228.68" y2="2953" stroke="#0095d3" stroke-linecap="square" stroke-linejoin="round" stroke-width="1"/>
      </g>
      <g id="Line_1660">
        <line x1="4291.3754" y1="2904.133" x2="4291.3754" y2="2632.335" stroke="#0095d3" stroke-linecap="square" stroke-linejoin="round" stroke-width="1"/>
      </g>
      <g id="Graphic_1661">
        <path d="M 4409.241 2906.1003 L 4452.5454 2947.9674 C 4455.325 2950.6546 4455.3996 2955.086 4452.7125 2957.8655 C 4452.658 2957.922 4452.602 2957.978 4452.5454 2958.0326 L 4409.241 2999.8997 C 4406.5276 3002.523 4402.223 3002.523 4399.51 2999.8997 L 4356.2053 2958.0326 C 4353.426 2955.3454 4353.351 2950.914 4356.0383 2948.1345 C 4356.093 2948.078 4356.1487 2948.022 4356.2053 2947.9674 L 4399.51 2906.1003 C 4402.223 2903.477 4406.5276 2903.477 4409.241 2906.1003 Z" fill="white"/>
        <path d="M 4409.241 2906.1003 L 4452.5454 2947.9674 C 4455.325 2950.6546 4455.3996 2955.086 4452.7125 2957.8655 C 4452.658 2957.922 4452.602 2957.978 4452.5454 2958.0326 L 4409.241 2999.8997 C 4406.5276 3002.523 4402.223 3002.523 4399.51 2999.8997 L 4356.2053 2958.0326 C 4353.426 2955.3454 4353.351 2950.914 4356.0383 2948.1345 C 4356.093 2948.078 4356.1487 2948.022 4356.2053 2947.9674 L 4399.51 2906.1003 C 4402.223 2903.477 4406.5276 2903.477 4409.241 2906.1003 Z" stroke="#006990" stroke-linecap="round" stroke-linejoin="round" stroke-dasharray="2.0,2.0" stroke-width="1"/>
        <text transform="translate(4365.4114 2927.968)" fill="black">
          <tspan font-family="Metropolis" font-size="13" fill="black" x="9.44254" y="13">Capturing </tspan>
          <tspan font-family="Metropolis" font-size="13" fill="black" x="5.80904" y="29">Production</tspan>
          <tspan font-family="Metropolis" font-size="13" fill="black" x="25.54954" y="45">Data</tspan>
        </text>
      </g>
      <g id="Line_1662">
        <line x1="4405.08" y1="2903.6105" x2="4405.08" y2="2632.9455" stroke="#0095d3" stroke-linecap="square" stroke-linejoin="round" stroke-width="1"/>
      </g>
      <g id="Line_1663">
        <line x1="4354.071" y1="2953" x2="4341.68" y2="2953" stroke="#0095d3" stroke-linecap="square" stroke-linejoin="round" stroke-width="1"/>
      </g>
    </g>
  </g>
</svg>
