<svg xmlns="http://www.w3.org/2000/svg" xmlns:xlink="http://www.w3.org/1999/xlink" xmlns:lucid="lucid" width="679.46" height="433.45"><g transform="translate(-250.93445622266026 -132.61072041643973)" lucid:page-tab-id="0_0"><path d="M-500 0h2500v3500H-500z" fill="#fff"/><path d="M395.9 169.3a6 6 0 0 1 6-6h150a6 6 0 0 1 6 6v124.07a6 6 0 0 1-6 6h-150a6 6 0 0 1-6-6z" fill="#fff"/><path d="M395.14 169.32a.75.75 0 0 1 .75-.76.75.75 0 0 1 .74.75.75.75 0 0 1-.75.76.75.75 0 0 1-.76-.75m.82-2.97a.75.75 0 0 1 .75-.76.75.75 0 0 1 .76.75.75.75 0 0 1-.75.75.75.75 0 0 1-.74-.75m2.2-2.18a.75.75 0 0 1 .74-.76.75.75 0 0 1 .75.75.75.75 0 0 1-.75.75.75.75 0 0 1-.75-.75m3-.8v-.02a.75.75 0 0 1 .74-.74.75.75 0 0 1 .74.75.75.75 0 0 1-.75.76.75.75 0 0 1-.76-.75m3 .02a.75.75 0 0 1 .75-.76.75.75 0 0 1 .74.75.75.75 0 0 1-.75.76.75.75 0 0 1-.76-.75m3 .02a.75.75 0 0 1 .75-.76.75.75 0 0 1 .74.75.75.75 0 0 1-.75.76.75.75 0 0 1-.76-.75m3 .02a.75.75 0 0 1 .75-.76.75.75 0 0 1 .74.75.75.75 0 0 1-.75.76.75.75 0 0 1-.76-.75m3 .02a.75.75 0 0 1 .75-.76.75.75 0 0 1 .74.75.75.75 0 0 1-.75.76.75.75 0 0 1-.76-.75m3 .02a.75.75 0 0 1 .75-.76.75.75 0 0 1 .74.75.75.75 0 0 1-.75.76.75.75 0 0 1-.76-.75m3 .02a.75.75 0 0 1 .75-.76.75.75 0 0 1 .74.75.75.75 0 0 1-.75.76.75.75 0 0 1-.76-.75m3 .02a.75.75 0 0 1 .75-.76.75.75 0 0 1 .74.75.75.75 0 0 1-.75.76.75.75 0 0 1-.76-.75m3 .02a.75.75 0 0 1 .75-.76.75.75 0 0 1 .74.75.75.75 0 0 1-.75.76.75.75 0 0 1-.76-.75m3 .02a.75.75 0 0 1 .75-.76.75.75 0 0 1 .74.75.75.75 0 0 1-.75.76.75.75 0 0 1-.76-.75m3 .02a.75.75 0 0 1 .75-.76.75.75 0 0 1 .74.75.75.75 0 0 1-.75.76.75.75 0 0 1-.76-.75m3 .02a.75.75 0 0 1 .75-.76.75.75 0 0 1 .74.75.75.75 0 0 1-.75.76.75.75 0 0 1-.76-.75m3 .02a.75.75 0 0 1 .75-.76.75.75 0 0 1 .74.75.75.75 0 0 1-.75.76.75.75 0 0 1-.76-.75m3 .02a.75.75 0 0 1 .75-.76.75.75 0 0 1 .74.75.75.75 0 0 1-.75.76.75.75 0 0 1-.76-.75m3 .02a.75.75 0 0 1 .75-.76.75.75 0 0 1 .74.75.75.75 0 0 1-.75.76.75.75 0 0 1-.76-.75m3 .02a.75.75 0 0 1 .75-.76.75.75 0 0 1 .74.75.75.75 0 0 1-.75.76.75.75 0 0 1-.76-.75m3 .02a.75.75 0 0 1 .75-.76.75.75 0 0 1 .74.75.75.75 0 0 1-.75.76.75.75 0 0 1-.76-.75m3 .02a.75.75 0 0 1 .75-.76.75.75 0 0 1 .74.75.75.75 0 0 1-.75.76.75.75 0 0 1-.76-.75m3 .02a.75.75 0 0 1 .75-.76.75.75 0 0 1 .74.75.75.75 0 0 1-.75.76.75.75 0 0 1-.76-.75m3 .02a.75.75 0 0 1 .75-.76.75.75 0 0 1 .74.75.75.75 0 0 1-.75.76.75.75 0 0 1-.76-.75m3 .02a.75.75 0 0 1 .75-.76.75.75 0 0 1 .74.75.75.75 0 0 1-.75.76.75.75 0 0 1-.76-.75m3 .02a.75.75 0 0 1 .75-.76.75.75 0 0 1 .74.75.75.75 0 0 1-.75.76.75.75 0 0 1-.76-.75m3 .02a.75.75 0 0 1 .75-.76.75.75 0 0 1 .74.75.75.75 0 0 1-.75.76.75.75 0 0 1-.76-.75m3 .02a.75.75 0 0 1 .75-.76.75.75 0 0 1 .74.75.75.75 0 0 1-.75.76.75.75 0 0 1-.76-.75m3 .02a.75.75 0 0 1 .75-.76.75.75 0 0 1 .74.75.75.75 0 0 1-.75.76.75.75 0 0 1-.76-.75m3 .02a.75.75 0 0 1 .75-.76.75.75 0 0 1 .74.75.75.75 0 0 1-.75.76.75.75 0 0 1-.76-.75m3 .02a.75.75 0 0 1 .75-.76.75.75 0 0 1 .74.75.75.75 0 0 1-.75.76.75.75 0 0 1-.76-.75m3 .02a.75.75 0 0 1 .75-.76.75.75 0 0 1 .74.75.75.75 0 0 1-.75.76.75.75 0 0 1-.76-.75m3 .02a.75.75 0 0 1 .75-.76.75.75 0 0 1 .74.75.75.75 0 0 1-.75.76.75.75 0 0 1-.76-.75m3 .02a.75.75 0 0 1 .75-.76.75.75 0 0 1 .74.75.75.75 0 0 1-.75.76.75.75 0 0 1-.76-.75m3 .02a.75.75 0 0 1 .75-.76.75.75 0 0 1 .74.75.75.75 0 0 1-.75.76.75.75 0 0 1-.76-.75m3 .02a.75.75 0 0 1 .75-.76.75.75 0 0 1 .74.75.75.75 0 0 1-.75.76.75.75 0 0 1-.76-.75m3 .02a.75.75 0 0 1 .75-.76.75.75 0 0 1 .74.75.75.75 0 0 1-.75.76.75.75 0 0 1-.76-.75m3 .02a.75.75 0 0 1 .75-.76.75.75 0 0 1 .74.75.75.75 0 0 1-.75.76.75.75 0 0 1-.76-.75m3 .02a.75.75 0 0 1 .75-.76.75.75 0 0 1 .74.75.75.75 0 0 1-.75.76.75.75 0 0 1-.76-.75m3 .02a.75.75 0 0 1 .75-.76.75.75 0 0 1 .74.75.75.75 0 0 1-.75.76.75.75 0 0 1-.76-.75m3 .02a.75.75 0 0 1 .75-.76.75.75 0 0 1 .74.75.75.75 0 0 1-.75.76.75.75 0 0 1-.76-.75m3 .02a.75.75 0 0 1 .75-.76.75.75 0 0 1 .74.75.75.75 0 0 1-.75.76.75.75 0 0 1-.76-.75m3 .02a.75.75 0 0 1 .75-.76.75.75 0 0 1 .74.75.75.75 0 0 1-.75.76.75.75 0 0 1-.76-.75m3 .02a.75.75 0 0 1 .75-.76.75.75 0 0 1 .74.75.75.75 0 0 1-.75.76.75.75 0 0 1-.76-.75m3 .02a.75.75 0 0 1 .75-.76.75.75 0 0 1 .74.75.75.75 0 0 1-.75.76.75.75 0 0 1-.76-.75m3 .02a.75.75 0 0 1 .75-.76.75.75 0 0 1 .74.75.75.75 0 0 1-.75.76.75.75 0 0 1-.76-.75m3 .02a.75.75 0 0 1 .75-.76.75.75 0 0 1 .74.75.75.75 0 0 1-.75.76.75.75 0 0 1-.76-.75m3 .02a.75.75 0 0 1 .75-.76.75.75 0 0 1 .74.75.75.75 0 0 1-.75.76.75.75 0 0 1-.76-.75m3 .02a.75.75 0 0 1 .75-.76.75.75 0 0 1 .74.75.75.75 0 0 1-.75.76.75.75 0 0 1-.76-.75m3 .02a.75.75 0 0 1 .75-.76.75.75 0 0 1 .74.75.75.75 0 0 1-.75.76.75.75 0 0 1-.76-.75m3 .02a.75.75 0 0 1 .75-.76.75.75 0 0 1 .74.75.75.75 0 0 1-.75.76.75.75 0 0 1-.76-.75m3 .02a.75.75 0 0 1 .75-.76.75.75 0 0 1 .74.75.75.75 0 0 1-.75.76.75.75 0 0 1-.76-.75m3 .02a.75.75 0 0 1 .75-.76.75.75 0 0 1 .74.75.75.75 0 0 1-.75.76.75.75 0 0 1-.76-.75m3 .02a.75.75 0 0 1 .75-.76.75.75 0 0 1 .74.75.75.75 0 0 1-.75.76.75.75 0 0 1-.76-.75m3 .02a.75.75 0 0 1 .75-.76.75.75 0 0 1 .74.75.75.75 0 0 1-.75.76.75.75 0 0 1-.76-.75m3 .84a.75.75 0 0 1 .74-.76.75.75 0 0 1 .75.75.75.75 0 0 1-.75.75.75.75 0 0 1-.75-.75m2.2 2.2a.75.75 0 0 1 .74-.76.75.75 0 0 1 .75.75.75.75 0 0 1-.75.75.75.75 0 0 1-.75-.75m.82 3a.75.75 0 0 1 .75-.76.75.75 0 0 1 .74.75.75.75 0 0 1-.75.76.75.75 0 0 1-.76-.75m0 3.04a.75.75 0 0 1 .75-.75.75.75 0 0 1 .74.74.75.75 0 0 1-.75.75.75.75 0 0 1-.76-.76m0 3.03a.75.75 0 0 1 .75-.76.75.75 0 0 1 .74.76.75.75 0 0 1-.75.75.75.75 0 0 1-.76-.74m0 3.04a.75.75 0 0 1 .75-.76.75.75 0 0 1 .74.75.75.75 0 0 1-.75.74.75.75 0 0 1-.76-.75v-.02m0 3.04a.75.75 0 0 1 .75-.76.75.75 0 0 1 .74.75.75.75 0 0 1-.75.76.75.75 0 0 1-.76-.75m0 3.05a.75.75 0 0 1 .75-.76.75.75 0 0 1 .74.74.75.75 0 0 1-.75.75.75.75 0 0 1-.76-.76m0 3.03a.75.75 0 0 1 .75-.75.75.75 0 0 1 .74.75.75.75 0 0 1-.75.75.75.75 0 0 1-.76-.75m0 3.03a.75.75 0 0 1 .75-.76.75.75 0 0 1 .74.75.75.75 0 0 1-.75.74.75.75 0 0 1-.76-.75v-.02m0 3.04a.75.75 0 0 1 .75-.75.75.75 0 0 1 .74.75.75.75 0 0 1-.75.75.75.75 0 0 1-.76-.75m0 3.03a.75.75 0 0 1 .75-.76.75.75 0 0 1 .74.74.75.75 0 0 1-.75.75.75.75 0 0 1-.76-.76m0 3.04a.75.75 0 0 1 .75-.76.75.75 0 0 1 .74.75.75.75 0 0 1-.75.75.75.75 0 0 1-.76-.75m0 3.03a.75.75 0 0 1 .75-.76.75.75 0 0 1 .74.75.75.75 0 0 1-.75.74.75.75 0 0 1-.76-.75m0 3.03a.75.75 0 0 1 .75-.76.75.75 0 0 1 .74.75.75.75 0 0 1-.75.75.75.75 0 0 1-.76-.75m0 3.03a.75.75 0 0 1 .75-.75.75.75 0 0 1 .74.75.75.75 0 0 1-.75.75.75.75 0 0 1-.76-.75m0 3.03a.75.75 0 0 1 .75-.76.75.75 0 0 1 .74.75.75.75 0 0 1-.75.75.75.75 0 0 1-.76-.75m0 3.04a.75.75 0 0 1 .75-.75.75.75 0 0 1 .74.75.75.75 0 0 1-.75.75.75.75 0 0 1-.76-.75m0 3.03a.75.75 0 0 1 .75-.76.75.75 0 0 1 .74.75.75.75 0 0 1-.75.75.75.75 0 0 1-.76-.75m0 3.04a.75.75 0 0 1 .75-.76.75.75 0 0 1 .74.75.75.75 0 0 1-.75.75.75.75 0 0 1-.76-.75m0 3.03a.75.75 0 0 1 .75-.75.75.75 0 0 1 .74.75.75.75 0 0 1-.75.75.75.75 0 0 1-.76-.75m0 3.03a.75.75 0 0 1 .75-.75.75.75 0 0 1 .74.75.75.75 0 0 1-.75.75.75.75 0 0 1-.76-.75m0 3.03a.75.75 0 0 1 .75-.75.75.75 0 0 1 .74.75.75.75 0 0 1-.75.75.75.75 0 0 1-.76-.75m0 3.03a.75.75 0 0 1 .75-.76.75.75 0 0 1 .74.75.75.75 0 0 1-.75.75.75.75 0 0 1-.76-.75m0 3.04v-.02a.75.75 0 0 1 .75-.75.75.75 0 0 1 .74.75.75.75 0 0 1-.75.75.75.75 0 0 1-.76-.75m0 3.03a.75.75 0 0 1 .75-.75.75.75 0 0 1 .74.75.75.75 0 0 1-.75.75.75.75 0 0 1-.76-.75m0 3.04a.75.75 0 0 1 .75-.76.75.75 0 0 1 .74.75.75.75 0 0 1-.75.75.75.75 0 0 1-.76-.75m0 3.03a.75.75 0 0 1 .75-.75.75.75 0 0 1 .74.76.75.75 0 0 1-.75.75.75.75 0 0 1-.76-.74m0 3.03v-.02a.75.75 0 0 1 .75-.75.75.75 0 0 1 .74.75.75.75 0 0 1-.75.75.75.75 0 0 1-.76-.75m0 3.03a.75.75 0 0 1 .75-.74.75.75 0 0 1 .74.75.75.75 0 0 1-.75.76.75.75 0 0 1-.76-.75m0 3.04a.75.75 0 0 1 .75-.76.75.75 0 0 1 .74.75.75.75 0 0 1-.75.75.75.75 0 0 1-.76-.75m0 3.04a.75.75 0 0 1 .75-.76.75.75 0 0 1 .74.76.75.75 0 0 1-.75.75.75.75 0 0 1-.76-.74m0 3.03v-.02a.75.75 0 0 1 .75-.75.75.75 0 0 1 .74.75.75.75 0 0 1-.75.75.75.75 0 0 1-.76-.75m0 3.04a.75.75 0 0 1 .75-.76.75.75 0 0 1 .74.75.75.75 0 0 1-.75.76.75.75 0 0 1-.76-.75m0 3.04a.75.75 0 0 1 .75-.75.75.75 0 0 1 .74.74.75.75 0 0 1-.75.75.75.75 0 0 1-.76-.76m0 3.03a.75.75 0 0 1 .75-.76.75.75 0 0 1 .74.76.75.75 0 0 1-.75.75.75.75 0 0 1-.76-.74m0 3.03a.75.75 0 0 1 .75-.76.75.75 0 0 1 .74.75.75.75 0 0 1-.75.74.75.75 0 0 1-.76-.75v-.02m0 3.04a.75.75 0 0 1 .75-.76.75.75 0 0 1 .74.75.75.75 0 0 1-.75.76.75.75 0 0 1-.76-.75m0 3.05a.75.75 0 0 1 .75-.76.75.75 0 0 1 .74.74.75.75 0 0 1-.75.75.75.75 0 0 1-.76-.76m0 3.03a.75.75 0 0 1 .75-.75.75.75 0 0 1 .74.75.75.75 0 0 1-.75.75.75.75 0 0 1-.76-.75m0 3.03a.75.75 0 0 1 .75-.76.75.75 0 0 1 .74.75.75.75 0 0 1-.75.74.75.75 0 0 1-.76-.75v-.02m0 3.04a.75.75 0 0 1 .75-.75.75.75 0 0 1 .74.75.75.75 0 0 1-.75.75.75.75 0 0 1-.76-.75m0 3.03a.75.75 0 0 1 .75-.76.75.75 0 0 1 .74.74.75.75 0 0 1-.75.75.75.75 0 0 1-.76-.76m0 3.04a.75.75 0 0 1 .75-.76.75.75 0 0 1 .74.75.75.75 0 0 1-.75.75.75.75 0 0 1-.76-.75m-.82 3a.75.75 0 0 1 .75-.76.75.75 0 0 1 .75.76.75.75 0 0 1-.75.75.75.75 0 0 1-.75-.74m-2.2 2.2a.75.75 0 0 1 .76-.76.75.75 0 0 1 .75.75.75.75 0 0 1-.75.75.75.75 0 0 1-.75-.75m-3 .83a.75.75 0 0 1 .76-.76.75.75 0 0 1 .74.75.75.75 0 0 1-.75.75.75.75 0 0 1-.76-.75m-3 0a.75.75 0 0 1 .75-.75.75.75 0 0 1 .74.75.75.75 0 0 1-.75.75.75.75 0 0 1-.76-.75m-3 0a.75.75 0 0 1 .75-.75.75.75 0 0 1 .74.75.75.75 0 0 1-.75.75.75.75 0 0 1-.76-.75m-3 0a.75.75 0 0 1 .75-.75.75.75 0 0 1 .74.75.75.75 0 0 1-.75.75.75.75 0 0 1-.76-.75m-3 0a.75.75 0 0 1 .75-.75.75.75 0 0 1 .74.75.75.75 0 0 1-.75.75.75.75 0 0 1-.76-.75m-3 0a.75.75 0 0 1 .75-.75.75.75 0 0 1 .74.75.75.75 0 0 1-.75.75.75.75 0 0 1-.76-.75m-3 0a.75.75 0 0 1 .75-.75.75.75 0 0 1 .74.75.75.75 0 0 1-.75.75.75.75 0 0 1-.76-.75m-3 0a.75.75 0 0 1 .75-.75.75.75 0 0 1 .74.75.75.75 0 0 1-.75.75.75.75 0 0 1-.76-.75m-3 0a.75.75 0 0 1 .75-.75.75.75 0 0 1 .74.75.75.75 0 0 1-.75.75.75.75 0 0 1-.76-.75m-3 0a.75.75 0 0 1 .75-.75.75.75 0 0 1 .74.75.75.75 0 0 1-.75.75.75.75 0 0 1-.76-.75m-3 0a.75.75 0 0 1 .75-.75.75.75 0 0 1 .74.75.75.75 0 0 1-.75.75.75.75 0 0 1-.76-.75m-3 0a.75.75 0 0 1 .75-.75.75.75 0 0 1 .74.75.75.75 0 0 1-.75.75.75.75 0 0 1-.76-.75m-3 0a.75.75 0 0 1 .75-.75.75.75 0 0 1 .74.75.75.75 0 0 1-.75.75.75.75 0 0 1-.76-.75m-3 0a.75.75 0 0 1 .75-.75.75.75 0 0 1 .74.75.75.75 0 0 1-.75.75.75.75 0 0 1-.76-.75m-3 0a.75.75 0 0 1 .75-.75.75.75 0 0 1 .74.75.75.75 0 0 1-.75.75.75.75 0 0 1-.76-.75m-3 0a.75.75 0 0 1 .75-.75.75.75 0 0 1 .74.75.75.75 0 0 1-.75.75.75.75 0 0 1-.76-.75m-3 0a.75.75 0 0 1 .75-.75.75.75 0 0 1 .74.75.75.75 0 0 1-.75.75.75.75 0 0 1-.76-.75m-3 0a.75.75 0 0 1 .75-.75.75.75 0 0 1 .74.75.75.75 0 0 1-.75.75.75.75 0 0 1-.76-.75m-3 0a.75.75 0 0 1 .75-.75.75.75 0 0 1 .74.75.75.75 0 0 1-.75.75.75.75 0 0 1-.76-.75m-3 0a.75.75 0 0 1 .75-.75.75.75 0 0 1 .74.75.75.75 0 0 1-.75.75.75.75 0 0 1-.76-.75m-3 0a.75.75 0 0 1 .75-.75.75.75 0 0 1 .74.75.75.75 0 0 1-.75.75.75.75 0 0 1-.76-.75m-3 0a.75.75 0 0 1 .75-.75.75.75 0 0 1 .74.75.75.75 0 0 1-.75.75.75.75 0 0 1-.76-.75m-3 0a.75.75 0 0 1 .75-.75.75.75 0 0 1 .74.75.75.75 0 0 1-.75.75.75.75 0 0 1-.76-.75m-3 0a.75.75 0 0 1 .75-.75.75.75 0 0 1 .74.75.75.75 0 0 1-.75.75.75.75 0 0 1-.76-.75m-3 0a.75.75 0 0 1 .75-.75.75.75 0 0 1 .74.75.75.75 0 0 1-.75.75.75.75 0 0 1-.76-.75m-3 0a.75.75 0 0 1 .75-.75.75.75 0 0 1 .74.75.75.75 0 0 1-.75.75.75.75 0 0 1-.76-.75m-3 0a.75.75 0 0 1 .75-.75.75.75 0 0 1 .74.75.75.75 0 0 1-.75.75.75.75 0 0 1-.76-.75m-3 0a.75.75 0 0 1 .75-.75.75.75 0 0 1 .74.75.75.75 0 0 1-.75.75.75.75 0 0 1-.76-.75m-3 0a.75.75 0 0 1 .75-.75.75.75 0 0 1 .74.75.75.75 0 0 1-.75.75.75.75 0 0 1-.76-.75m-3 0a.75.75 0 0 1 .75-.75.75.75 0 0 1 .74.75.75.75 0 0 1-.75.75.75.75 0 0 1-.76-.75m-3 0a.75.75 0 0 1 .75-.75.75.75 0 0 1 .74.75.75.75 0 0 1-.75.75.75.75 0 0 1-.76-.75m-3 0a.75.75 0 0 1 .75-.75.75.75 0 0 1 .74.75.75.75 0 0 1-.75.75.75.75 0 0 1-.76-.75m-3 0a.75.75 0 0 1 .75-.75.75.75 0 0 1 .74.75.75.75 0 0 1-.75.75.75.75 0 0 1-.76-.75m-3 0a.75.75 0 0 1 .75-.75.75.75 0 0 1 .74.75.75.75 0 0 1-.75.75.75.75 0 0 1-.76-.75m-3 0a.75.75 0 0 1 .75-.75.75.75 0 0 1 .74.75.75.75 0 0 1-.75.75.75.75 0 0 1-.76-.75m-3 0a.75.75 0 0 1 .75-.75.75.75 0 0 1 .74.75.75.75 0 0 1-.75.75.75.75 0 0 1-.76-.75m-3 0a.75.75 0 0 1 .75-.75.75.75 0 0 1 .74.75.75.75 0 0 1-.75.75.75.75 0 0 1-.76-.75m-3 0a.75.75 0 0 1 .75-.75.75.75 0 0 1 .74.75.75.75 0 0 1-.75.75.75.75 0 0 1-.76-.75m-3 0a.75.75 0 0 1 .75-.75.75.75 0 0 1 .74.75.75.75 0 0 1-.75.75.75.75 0 0 1-.76-.75m-3 0a.75.75 0 0 1 .75-.75.75.75 0 0 1 .74.75.75.75 0 0 1-.75.75.75.75 0 0 1-.76-.75m-3 0a.75.75 0 0 1 .75-.75.75.75 0 0 1 .74.75.75.75 0 0 1-.75.75.75.75 0 0 1-.76-.75m-3 0a.75.75 0 0 1 .75-.75.75.75 0 0 1 .74.75.75.75 0 0 1-.75.75.75.75 0 0 1-.76-.75m-3 0a.75.75 0 0 1 .75-.75.75.75 0 0 1 .74.75.75.75 0 0 1-.75.75.75.75 0 0 1-.76-.75m-3 0a.75.75 0 0 1 .75-.75.75.75 0 0 1 .74.75.75.75 0 0 1-.75.75.75.75 0 0 1-.76-.75m-3 0a.75.75 0 0 1 .75-.75.75.75 0 0 1 .74.75.75.75 0 0 1-.75.75.75.75 0 0 1-.76-.75m-3 0a.75.75 0 0 1 .75-.75.75.75 0 0 1 .74.75.75.75 0 0 1-.75.75.75.75 0 0 1-.76-.75m-3 0a.75.75 0 0 1 .75-.75.75.75 0 0 1 .74.75.75.75 0 0 1-.75.75.75.75 0 0 1-.76-.75m-3 0a.75.75 0 0 1 .75-.75.75.75 0 0 1 .74.75.75.75 0 0 1-.75.75.75.75 0 0 1-.76-.75m-3 0a.75.75 0 0 1 .75-.75.75.75 0 0 1 .74.75.75.75 0 0 1-.75.75.75.75 0 0 1-.76-.75m-3 0a.75.75 0 0 1 .75-.75.75.75 0 0 1 .74.75.75.75 0 0 1-.75.75.75.75 0 0 1-.76-.75m-3 0a.75.75 0 0 1 .75-.75.75.75 0 0 1 .74.75.75.75 0 0 1-.75.75.75.75 0 0 1-.76-.75m-3-.8v-.02a.75.75 0 0 1 .76-.75.75.75 0 0 1 .75.75.75.75 0 0 1-.75.75.75.75 0 0 1-.75-.75m-2.2-2.18a.75.75 0 0 1 .76-.76.75.75 0 0 1 .76.76.75.75 0 0 1-.75.75.75.75 0 0 1-.74-.74m-.82-2.98a.75.75 0 0 1 .75-.76.75.75 0 0 1 .74.75.75.75 0 0 1-.75.75.75.75 0 0 1-.76-.75m0-3.02a.75.75 0 0 1 .75-.76.75.75 0 0 1 .74.74.75.75 0 0 1-.75.75.75.75 0 0 1-.76-.76m0-3.02a.75.75 0 0 1 .75-.75.75.75 0 0 1 .74.75.75.75 0 0 1-.75.75.75.75 0 0 1-.76-.75m0-3.02a.75.75 0 0 1 .75-.76.75.75 0 0 1 .74.75.75.75 0 0 1-.75.74.75.75 0 0 1-.76-.75v-.02m0-3a.75.75 0 0 1 .75-.76.75.75 0 0 1 .74.75.75.75 0 0 1-.75.75.75.75 0 0 1-.76-.75m0-3.02a.75.75 0 0 1 .75-.76.75.75 0 0 1 .74.74.75.75 0 0 1-.75.75.75.75 0 0 1-.76-.76m0-3.02a.75.75 0 0 1 .75-.76.75.75 0 0 1 .74.75.75.75 0 0 1-.75.76.75.75 0 0 1-.76-.75m0-3a.75.75 0 0 1 .75-.76.75.75 0 0 1 .74.75.75.75 0 0 1-.75.74.75.75 0 0 1-.76-.75v-.02m0-3v-.02a.75.75 0 0 1 .75-.75.75.75 0 0 1 .74.76.75.75 0 0 1-.75.75.75.75 0 0 1-.76-.74m0-3.02a.75.75 0 0 1 .75-.75.75.75 0 0 1 .74.74.75.75 0 0 1-.75.75.75.75 0 0 1-.76-.76m0-3.02a.75.75 0 0 1 .75-.76.75.75 0 0 1 .74.75.75.75 0 0 1-.75.76.75.75 0 0 1-.76-.75m0-3v-.02a.75.75 0 0 1 .75-.75.75.75 0 0 1 .74.75.75.75 0 0 1-.75.75.75.75 0 0 1-.76-.75m0-3v-.02a.75.75 0 0 1 .75-.75.75.75 0 0 1 .74.76.75.75 0 0 1-.75.75.75.75 0 0 1-.76-.74m0-3.02a.75.75 0 0 1 .75-.76.75.75 0 0 1 .74.75.75.75 0 0 1-.75.75.75.75 0 0 1-.76-.75m0-3.02a.75.75 0 0 1 .75-.74.75.75 0 0 1 .74.75.75.75 0 0 1-.75.76.75.75 0 0 1-.76-.75m0-3v-.02a.75.75 0 0 1 .75-.75.75.75 0 0 1 .74.75.75.75 0 0 1-.75.75.75.75 0 0 1-.76-.75m0-3.02a.75.75 0 0 1 .75-.75.75.75 0 0 1 .74.76.75.75 0 0 1-.75.75.75.75 0 0 1-.76-.74m0-3.02a.75.75 0 0 1 .75-.76.75.75 0 0 1 .74.75.75.75 0 0 1-.75.75.75.75 0 0 1-.76-.75m0-3.02a.75.75 0 0 1 .75-.75.75.75 0 0 1 .74.75.75.75 0 0 1-.75.75.75.75 0 0 1-.76-.75m0-3v-.02a.75.75 0 0 1 .75-.75.75.75 0 0 1 .74.75.75.75 0 0 1-.75.75.75.75 0 0 1-.76-.75m0-3.02a.75.75 0 0 1 .75-.76.75.75 0 0 1 .74.75.75.75 0 0 1-.75.75.75.75 0 0 1-.76-.75m0-3.02a.75.75 0 0 1 .75-.75.75.75 0 0 1 .74.75.75.75 0 0 1-.75.75.75.75 0 0 1-.76-.75m0-3.02a.75.75 0 0 1 .75-.75.75.75 0 0 1 .74.75.75.75 0 0 1-.75.75.75.75 0 0 1-.76-.75m0-3.02a.75.75 0 0 1 .75-.75.75.75 0 0 1 .74.75.75.75 0 0 1-.75.75.75.75 0 0 1-.76-.75m0-3.02a.75.75 0 0 1 .75-.76.75.75 0 0 1 .74.75.75.75 0 0 1-.75.75.75.75 0 0 1-.76-.75m0-3.02a.75.75 0 0 1 .75-.76.75.75 0 0 1 .74.75.75.75 0 0 1-.75.75.75.75 0 0 1-.76-.75m0-3v-.02a.75.75 0 0 1 .75-.75.75.75 0 0 1 .74.75.75.75 0 0 1-.75.75.75.75 0 0 1-.76-.75m0-3.02a.75.75 0 0 1 .75-.76.75.75 0 0 1 .74.75.75.75 0 0 1-.75.75.75.75 0 0 1-.76-.75m0-3.02a.75.75 0 0 1 .75-.75.75.75 0 0 1 .74.75.75.75 0 0 1-.75.75.75.75 0 0 1-.76-.75m0-3.02a.75.75 0 0 1 .75-.76.75.75 0 0 1 .74.75.75.75 0 0 1-.75.75.75.75 0 0 1-.76-.75m0-3.02a.75.75 0 0 1 .75-.76.75.75 0 0 1 .74.75.75.75 0 0 1-.75.74.75.75 0 0 1-.76-.75m0-3.02a.75.75 0 0 1 .75-.76.75.75 0 0 1 .74.75.75.75 0 0 1-.75.75.75.75 0 0 1-.76-.75m0-3.02a.75.75 0 0 1 .75-.76.75.75 0 0 1 .74.74.75.75 0 0 1-.75.75.75.75 0 0 1-.76-.76m0-3.02a.75.75 0 0 1 .75-.75.75.75 0 0 1 .74.75.75.75 0 0 1-.75.75.75.75 0 0 1-.76-.75m0-3.02a.75.75 0 0 1 .75-.76.75.75 0 0 1 .74.75.75.75 0 0 1-.75.74.75.75 0 0 1-.76-.75v-.02m0-3a.75.75 0 0 1 .75-.76.75.75 0 0 1 .74.75.75.75 0 0 1-.75.75.75.75 0 0 1-.76-.75m0-3.02a.75.75 0 0 1 .75-.76.75.75 0 0 1 .74.74.75.75 0 0 1-.75.75.75.75 0 0 1-.76-.76m0-3.02a.75.75 0 0 1 .75-.76.75.75 0 0 1 .74.75.75.75 0 0 1-.75.76.75.75 0 0 1-.76-.75m0-3a.75.75 0 0 1 .75-.76.75.75 0 0 1 .74.75.75.75 0 0 1-.75.74.75.75 0 0 1-.76-.75v-.02m0-3v-.02a.75.75 0 0 1 .75-.75.75.75 0 0 1 .74.76.75.75 0 0 1-.75.75.75.75 0 0 1-.76-.74m0-3.02a.75.75 0 0 1 .75-.75.75.75 0 0 1 .74.74.75.75 0 0 1-.75.75.75.75 0 0 1-.76-.76" fill="#1e6091"/><path d="M444.56 138.6a6 6 0 0 1 6-6H498a6 6 0 0 1 6 6v17.1a6 6 0 0 1-6 6h-47.44a6 6 0 0 1-6-6z" fill="none"/><use xlink:href="#a" transform="matrix(1,0,0,1,444.56425372282456,132.61072041643973) translate(12.29709201388889 23.08376736111111)"/><path d="M381.2 329.6a6 6 0 0 1 6-6h179.02a6 6 0 0 1 6 6v108a6 6 0 0 1-6 6h-179a6 6 0 0 1-6-6z" stroke="#1e6091" stroke-width="1.5" fill="#cfe4ff"/><use xlink:href="#b" transform="matrix(1,0,0,1,393.20794501710907,335.59560043857863) translate(32.312717013888886 56.61631944444444)"/><use xlink:href="#c" transform="matrix(1,0,0,1,393.20794501710907,335.59560043857863) translate(88.45421006944444 56.61631944444444)"/><path d="M404.73 226.4a6 6 0 0 1 6-6H542.7a6 6 0 0 1 6 6v53.37a6 6 0 0 1-6 6H410.73a6 6 0 0 1-6-6z" stroke="#1e6091" stroke-width="1.5" fill="#f72585"/><use xlink:href="#d" transform="matrix(1,0,0,1,416.72555389746776,232.39147915600887) translate(-2.6681857638888857 20.616319444444443)"/><use xlink:href="#e" transform="matrix(1,0,0,1,416.72555389746776,232.39147915600887) translate(38.21723090277778 46.65798611111111)"/><path d="M476.7 287.27v34.83" stroke="#1e6091" stroke-width="1.5" fill="none"/><path d="M477.44 287.3H476v-.78h1.44zM477.44 322.85H476v-.78h1.44z" stroke="#1e6091" stroke-width=".05" fill="#1e6091"/><path d="M404.65 183.98a6 6 0 0 1 6-6H542.7a6 6 0 0 1 6 6v30.4a6 6 0 0 1-6 6H410.65a6 6 0 0 1-6-6z" stroke="#1e6091" stroke-width="1.5" fill="#cfe4ff"/><use xlink:href="#f" transform="matrix(1,0,0,1,416.64887706358513,189.9843175898929) translate(36.671875 20.616319444444443)"/><path d="M585.22 183.98a6 6 0 0 1 6-6h332.43a6 6 0 0 1 6 6v30.4a6 6 0 0 1-6 6H591.22a6 6 0 0 1-6-6z" stroke="#1e6091" stroke-width="1.5" fill="#f72585"/><use xlink:href="#g" transform="matrix(1,0,0,1,597.2243026002602,189.984317589893) translate(6.127170138888914 20.616319444444443)"/><use xlink:href="#h" transform="matrix(1,0,0,1,597.2243026002602,189.984317589893) translate(165.54557291666666 20.616319444444443)"/><use xlink:href="#i" transform="matrix(1,0,0,1,597.2243026002602,189.984317589893) translate(183.24305555555554 20.616319444444443)"/><path d="M550.2 199.2h33.52" stroke="#1e6091" stroke-width="1.5" fill="none"/><path d="M550.22 199.9h-.77v-1.44h.77zM584.47 199.9h-.76v-1.44h.77z" stroke="#1e6091" stroke-width=".05" fill="#1e6091"/><path d="M460.57 495.22a6 6 0 0 1 6-6H607.9a6 6 0 0 1 6 6v64.1a6 6 0 0 1-6 6H466.58a6 6 0 0 1-6-6z" stroke="#1e6091" stroke-width="1.5" fill="#f72585"/><use xlink:href="#j" transform="matrix(1,0,0,1,472.56632036269684,501.2226129168935) translate(43.21723090277778 21.07465277777778)"/><use xlink:href="#k" transform="matrix(1,0,0,1,472.56632036269684,501.2226129168935) translate(-0.8148871527777857 47.11631944444444)"/><path d="M356.13 496.73a6 6 0 0 1 6-6h76.34a6 6 0 0 1 6 6v62.58a6 6 0 0 1-6 6h-76.35a6 6 0 0 1-6-6z" stroke="#1e6091" stroke-width="1.5" fill="#cfe4ff"/><use xlink:href="#l" transform="matrix(1,0,0,1,368.1253883162226,502.72523453440925) translate(10.717230902777779 33.36631944444444)"/><path d="M476.7 445.1v16.06a6 6 0 0 1-6 6h-64.4a6 6 0 0 0-6 6v16.06" stroke="#1e6091" stroke-width="1.5" fill="none"/><path d="M477.44 445.1H476v-.75h1.44zM401.02 489.98h-1.45v-.77h1.45z" stroke="#1e6091" stroke-width=".05" fill="#1e6091"/><path d="M476.7 445.1v15.3a6 6 0 0 0 6 6h48.54a6 6 0 0 1 6 6v15.32" stroke="#1e6091" stroke-width="1.5" fill="none"/><path d="M477.44 445.1H476v-.75h1.44zM537.96 488.47h-1.45v-.77h1.46z" stroke="#1e6091" stroke-width=".05" fill="#1e6091"/><path d="M251.68 496.73a6 6 0 0 1 6-6h76.34a6 6 0 0 1 6 6v62.58a6 6 0 0 1-6 6h-76.34a6 6 0 0 1-6-6z" stroke="#1e6091" stroke-width="1.5" fill="#cfe4ff"/><use xlink:href="#l" transform="matrix(1,0,0,1,263.6844562697479,502.72523453440925) translate(10.717230902777779 33.36631944444444)"/><path d="M635.47 495.97a6 6 0 0 1 6-6h76.35a6 6 0 0 1 6 6v62.58a6 6 0 0 1-6 6h-76.35a6 6 0 0 1-6-6z" stroke="#1e6091" stroke-width="1.5" fill="#cfe4ff"/><use xlink:href="#l" transform="matrix(1,0,0,1,647.4741187854506,501.97392372565236) translate(10.717230902777779 33.36631944444444)"/><path d="M295.86 489.23v-16.07a6 6 0 0 1 6-6H470.7a6 6 0 0 0 6-6V445.1" stroke="#1e6091" stroke-width="1.5" fill="none"/><path d="M296.58 489.98h-1.45v-.77h1.45zM477.44 445.1H476v-.75h1.44z" stroke="#1e6091" stroke-width=".05" fill="#1e6091"/><path d="M679.64 488.47v-15.7a6 6 0 0 0-6-5.98H482.7a6 6 0 0 1-6-6v-15.7" stroke="#1e6091" stroke-width="1.5" fill="none"/><path d="M680.37 489.22h-1.45v-.77h1.45zM477.44 445.1H476v-.75h1.44z" stroke="#1e6091" stroke-width=".05" fill="#1e6091"/><defs><path d="M600 0L52-1490h200c166 485 304 806 458 1336 156-533 285-846 449-1336h202L819 0H600" id="m"/><path d="M180 0v-1490h270l367 940c28 72 75 218 110 339 35-117 81-264 110-339l362-940h271V0h-187c2-448-5-837 7-1287-157 497-311 829-483 1287H842C666-458 514-784 354-1284c12 438 5 843 7 1284H180" id="n"/><g id="a"><use transform="matrix(0.010850694444444444,0,0,0.010850694444444444,0,0)" xlink:href="#m"/><use transform="matrix(0.010850694444444444,0,0,0.010850694444444444,15.33203125,0)" xlink:href="#n"/></g><path d="M992-673H361v516h733V0H169v-1456h915v158H361v468h631v157" id="o"/><path d="M631-137c179 0 314-70 314-231 0-71-25-127-75-166s-141-77-272-115c-165-47-285-106-360-175s-112-154-112-255c0-245 231-397 495-397 206 0 369 89 449 218 43 68 65 142 65 223H942c0-184-129-283-321-283-172 0-299 76-301 236 0 59 26 109 76 150s135 78 256 113c205 59 345 116 436 256 35 53 50 119 50 193-2 256-231 398-507 390C333 12 90-129 80-422h193c0 187 160 285 358 285" id="p"/><path d="M644-898l349-558h226L759-734 1230 0h-228L644-568 284 0H57l472-734-461-722h225" id="q"/><path d="M341 0H156v-1082h185V0zm-91-1264c-68 0-108-42-109-105 0-62 41-107 109-107s110 44 110 107-42 105-110 105" id="r"/><g id="b"><use transform="matrix(0.010850694444444444,0,0,0.010850694444444444,0,0)" xlink:href="#o"/><use transform="matrix(0.010850694444444444,0,0,0.010850694444444444,12.630208333333332,0)" xlink:href="#p"/><use transform="matrix(0.010850694444444444,0,0,0.010850694444444444,25.813802083333332,0)" xlink:href="#q"/><use transform="matrix(0.010850694444444444,0,0,0.010850694444444444,39.74609375,0)" xlink:href="#r"/></g><path d="M1288 0h-193v-673H361V0H169v-1456h192v626h734v-626h193V0" id="s"/><path d="M584 20C278 26 81-227 91-551c10-320 175-545 491-551 308-5 503 247 494 573-9 322-175 543-492 549zm-2-970c-208 0-305 185-305 421 0 216 106 398 307 398 211 0 307-186 307-420 0-214-109-399-309-399" id="t"/><path d="M538-131c121 0 232-49 232-156 0-50-20-88-56-117-73-60-334-92-420-143-92-55-162-110-162-238 0-190 192-317 400-317 223 0 414 129 413 338H759c0-108-110-186-227-186-119 0-215 53-215 159 0 45 18 78 53 101 76 52 331 90 416 139 98 57 169 115 169 251C955-92 760 20 538 20c-176 0-314-68-386-174-38-55-57-115-57-179h185c6 129 116 202 258 202" id="u"/><path d="M456 20C285 20 205-92 206-268v-671H9v-143h197v-262h185v262h202v143H391v671c-9 125 92 149 207 118V0c-49 13-96 20-142 20" id="v"/><g id="c"><use transform="matrix(0.010850694444444444,0,0,0.010850694444444444,0,0)" xlink:href="#s"/><use transform="matrix(0.010850694444444444,0,0,0.010850694444444444,15.842013888888888,0)" xlink:href="#t"/><use transform="matrix(0.010850694444444444,0,0,0.010850694444444444,28.515625,0)" xlink:href="#u"/><use transform="matrix(0.010850694444444444,0,0,0.010850694444444444,39.97395833333333,0)" xlink:href="#v"/></g><path fill="#fff" d="M1216-1011c-1 297-202 441-512 441H361V0H169v-1456h537c297-6 510 164 510 445zm-192 2c1-178-126-288-307-289H361v571h345c196 1 318-92 318-282" id="w"/><path fill="#fff" d="M561-1102c238-4 403 126 403 351v498c0 99 13 178 38 237V0H808c-11-21-19-59-26-114C696-25 593 20 474 20c-199 0-368-130-365-320 4-251 214-359 490-356h180v-85c-1-135-86-212-229-212-115 0-232 67-233 171H131c20-205 206-316 430-320zM294-326c0 117 90 185 207 185 122 0 239-75 278-162v-222H634c-227 0-340 66-340 199" id="x"/><path fill="#fff" d="M538-131c121 0 232-49 232-156 0-50-20-88-56-117-73-60-334-92-420-143-92-55-162-110-162-238 0-190 192-317 400-317 223 0 414 129 413 338H759c0-108-110-186-227-186-119 0-215 53-215 159 0 45 18 78 53 101 76 52 331 90 416 139 98 57 169 115 169 251C955-92 760 20 538 20c-176 0-314-68-386-174-38-55-57-115-57-179h185c6 129 116 202 258 202" id="y"/><path fill="#fff" d="M456 20C285 20 205-92 206-268v-671H9v-143h197v-262h185v262h202v143H391v671c-9 125 92 149 207 118V0c-49 13-96 20-142 20" id="z"/><path fill="#fff" d="M589-945c-131 0-219 81-264 174V0H140v-1536h185v585c82-101 189-151 320-151 229 0 346 129 346 387V0H806v-716c-2-153-65-229-217-229" id="A"/><path fill="#fff" d="M663-916c-163-27-288 18-338 148V0H140v-1082h180l3 125c61-97 147-145 258-145 36 0 63 5 82 14v172" id="B"/><path fill="#fff" d="M584 20C278 26 81-227 91-551c10-320 175-545 491-551 308-5 503 247 494 573-9 322-175 543-492 549zm-2-970c-208 0-305 185-305 421 0 216 106 398 307 398 211 0 307-186 307-420 0-214-109-399-309-399" id="C"/><path fill="#fff" d="M491 20c-241-1-355-148-355-398v-704h185v699c0 164 67 246 200 246 141 0 235-53 282-158v-787h185V0H812l-4-107C736-22 630 20 491 20" id="D"/><path fill="#fff" d="M521 20C240 20 96-239 96-550c0-303 147-552 427-552 132 0 235 47 309 140l9-120h169V-26c4 277-183 454-459 452-165-1-334-81-400-187l96-111c79 98 176 147 291 147 180 1 288-109 286-290v-93C750-23 649 20 521 20zm48-965c-209 0-287 178-287 416 0 217 86 392 285 392 117 0 202-53 257-159v-494c-57-103-142-155-255-155" id="E"/><g id="d"><use transform="matrix(0.010850694444444444,0,0,0.010850694444444444,0,0)" xlink:href="#w"/><use transform="matrix(0.010850694444444444,0,0,0.010850694444444444,13.899739583333332,0)" xlink:href="#x"/><use transform="matrix(0.010850694444444444,0,0,0.010850694444444444,25.987413194444443,0)" xlink:href="#y"/><use transform="matrix(0.010850694444444444,0,0,0.010850694444444444,37.44574652777777,0)" xlink:href="#y"/><use transform="matrix(0.010850694444444444,0,0,0.010850694444444444,48.9040798611111,0)" xlink:href="#z"/><use transform="matrix(0.010850694444444444,0,0,0.010850694444444444,56.163194444444436,0)" xlink:href="#A"/><use transform="matrix(0.010850694444444444,0,0,0.010850694444444444,68.40277777777777,0)" xlink:href="#B"/><use transform="matrix(0.010850694444444444,0,0,0.010850694444444444,75.70529513888889,0)" xlink:href="#C"/><use transform="matrix(0.010850694444444444,0,0,0.010850694444444444,88.37890625,0)" xlink:href="#D"/><use transform="matrix(0.010850694444444444,0,0,0.010850694444444444,100.62934027777777,0)" xlink:href="#E"/><use transform="matrix(0.010850694444444444,0,0,0.010850694444444444,113.09678819444444,0)" xlink:href="#A"/></g><path fill="#fff" d="M730-137c145 0 253-29 323-105v-327H716v-156h528v534C1148-51 964 20 729 20c-394 0-598-279-607-678v-127c-5-410 194-690 585-691 310-1 499 171 537 447h-192c-36-193-151-289-344-289-285 0-393 220-393 528v119c-5 296 140 534 415 534" id="F"/><path fill="#fff" d="M665-137c214 0 337-121 336-332v-987h193v990c-3 300-218 486-529 486-309 0-526-181-525-484v-992h190v986c-1 210 123 333 335 333" id="G"/><g id="e"><use transform="matrix(0.010850694444444444,0,0,0.010850694444444444,0,0)" xlink:href="#F"/><use transform="matrix(0.010850694444444444,0,0,0.010850694444444444,15.13671875,0)" xlink:href="#w"/><use transform="matrix(0.010850694444444444,0,0,0.010850694444444444,29.15581597222222,0)" xlink:href="#G"/></g><path d="M651-255l416-1201h210L737 0H567L28-1456h209" id="H"/><path d="M417-1456L893-268l476-1188h249V0h-192c-4-403 4-794 18-1179L966 0H819L342-1176c15 384 23 773 19 1176H169v-1456h248" id="I"/><g id="f"><use transform="matrix(0.010850694444444444,0,0,0.010850694444444444,0,0)" xlink:href="#H"/><use transform="matrix(0.010850694444444444,0,0,0.010850694444444444,14.13845486111111,0)" xlink:href="#I"/><use transform="matrix(0.010850694444444444,0,0,0.010850694444444444,33.72395833333333,0)" xlink:href="#q"/></g><path fill="#fff" d="M632-1102c291 0 422 251 422 573 0 297-141 548-419 549-131 0-235-42-310-125v521H140v-1498h169l9 120c75-93 180-140 314-140zm-53 971c207 0 290-180 290-419 0-218-92-395-292-395-112 0-196 50-252 149v517c55 99 140 148 254 148" id="J"/><path fill="#fff" d="M277-555c0 244 77 420 297 424 127 2 249-93 255-210h175C980-127 805 20 574 20 258 20 81-222 92-562c11-319 164-533 481-540 237-5 426 165 431 392H829c-7-133-115-242-256-240-209 4-296 166-296 395" id="K"/><path fill="#fff" d="M341 0H156v-1082h185V0zm-91-1264c-68 0-108-42-109-105 0-62 41-107 109-107s110 44 110 107-42 105-110 105" id="L"/><path fill="#fff" d="M574-1476c351 0 454 237 460 615v240c0 217-37 378-111 483S733 20 576 20c-346 0-454-246-461-616v-247c0-214 37-373 111-477s190-156 348-156zm275 905c0-337 59-752-275-753-95 0-160 38-207 107-80 118-66 409-67 625 0 157 22 273 68 348s115 113 208 113c91 0 160-35 204-106s69-182 69-334" id="M"/><path fill="#fff" d="M258 11c-71 0-114-43-114-108 0-67 42-112 114-112s116 45 116 112c-1 65-45 108-116 108" id="N"/><path fill="#fff" d="M520 20C244 20 95-247 95-550c0-298 151-550 427-552 127 0 227 43 301 130v-564h185V0H838l-9-116C755-25 652 20 520 20zm48-965c-210 0-288 177-288 416 0 218 87 392 286 392 117 0 203-53 257-158v-497c-55-102-140-153-255-153" id="O"/><g id="g"><use transform="matrix(0.010850694444444444,0,0,0.010850694444444444,0,0)" xlink:href="#J"/><use transform="matrix(0.010850694444444444,0,0,0.010850694444444444,12.467447916666666,0)" xlink:href="#K"/><use transform="matrix(0.010850694444444444,0,0,0.010850694444444444,24.09939236111111,0)" xlink:href="#L"/><use transform="matrix(0.010850694444444444,0,0,0.010850694444444444,29.4921875,0)" xlink:href="#w"/><use transform="matrix(0.010850694444444444,0,0,0.010850694444444444,43.39192708333333,0)" xlink:href="#x"/><use transform="matrix(0.010850694444444444,0,0,0.010850694444444444,55.47960069444444,0)" xlink:href="#y"/><use transform="matrix(0.010850694444444444,0,0,0.010850694444444444,66.93793402777777,0)" xlink:href="#y"/><use transform="matrix(0.010850694444444444,0,0,0.010850694444444444,78.3962673611111,0)" xlink:href="#z"/><use transform="matrix(0.010850694444444444,0,0,0.010850694444444444,85.65538194444443,0)" xlink:href="#A"/><use transform="matrix(0.010850694444444444,0,0,0.010850694444444444,97.89496527777776,0)" xlink:href="#B"/><use transform="matrix(0.010850694444444444,0,0,0.010850694444444444,105.41449652777776,0)" xlink:href="#D"/><use transform="matrix(0.010850694444444444,0,0,0.010850694444444444,117.66493055555553,0)" xlink:href="#M"/><use transform="matrix(0.010850694444444444,0,0,0.010850694444444444,130.14322916666663,0)" xlink:href="#N"/><use transform="matrix(0.010850694444444444,0,0,0.010850694444444444,135.99175347222217,0)" xlink:href="#L"/><use transform="matrix(0.010850694444444444,0,0,0.010850694444444444,141.38454861111106,0)" xlink:href="#O"/></g><path fill="#fff" d="M986-814H152v-161h834v161zm0 415H152v-160h834v160" id="P"/><use transform="matrix(0.010850694444444444,0,0,0.010850694444444444,0,0)" xlink:href="#P" id="h"/><path fill="#fff" d="M248 11c-71 0-114-43-114-108 0-67 42-112 114-112s116 45 116 112c-1 65-45 108-116 108zm1-883c-71 0-114-43-114-108 0-67 42-112 114-112s116 45 116 112c-1 65-45 108-116 108" id="Q"/><path fill="#fff" d="M1160-420C1159-145 963 0 674 0H169v-1456h476c294-1 476 112 476 388 0 153-99 253-216 302 146 38 255 167 255 346zM678-157c171 2 289-95 289-261 0-175-95-263-286-263H361v524h317zm250-912c-2-172-104-229-283-229H361v463h290c157 3 278-84 277-234" id="R"/><g id="i"><use transform="matrix(0.010850694444444444,0,0,0.010850694444444444,0,0)" xlink:href="#M"/><use transform="matrix(0.010850694444444444,0,0,0.010850694444444444,12.47829861111111,0)" xlink:href="#M"/><use transform="matrix(0.010850694444444444,0,0,0.010850694444444444,24.95659722222222,0)" xlink:href="#M"/><use transform="matrix(0.010850694444444444,0,0,0.010850694444444444,37.43489583333333,0)" xlink:href="#M"/><use transform="matrix(0.010850694444444444,0,0,0.010850694444444444,49.91319444444444,0)" xlink:href="#Q"/><use transform="matrix(0.010850694444444444,0,0,0.010850694444444444,55.295138888888886,0)" xlink:href="#R"/><use transform="matrix(0.010850694444444444,0,0,0.010850694444444444,69.12977430555556,0)" xlink:href="#R"/><use transform="matrix(0.010850694444444444,0,0,0.010850694444444444,82.96440972222223,0)" xlink:href="#Q"/><use transform="matrix(0.010850694444444444,0,0,0.010850694444444444,88.34635416666667,0)" xlink:href="#M"/><use transform="matrix(0.010850694444444444,0,0,0.010850694444444444,100.8246527777778,0)" xlink:href="#M"/><use transform="matrix(0.010850694444444444,0,0,0.010850694444444444,113.3029513888889,0)" xlink:href="#N"/><use transform="matrix(0.010850694444444444,0,0,0.010850694444444444,119.15147569444446,0)" xlink:href="#M"/></g><g id="j"><use transform="matrix(0.010850694444444444,0,0,0.010850694444444444,0,0)" xlink:href="#F"/><use transform="matrix(0.010850694444444444,0,0,0.010850694444444444,15.13671875,0)" xlink:href="#w"/><use transform="matrix(0.010850694444444444,0,0,0.010850694444444444,29.15581597222222,0)" xlink:href="#G"/></g><g id="k"><use transform="matrix(0.010850694444444444,0,0,0.010850694444444444,0,0)" xlink:href="#M"/><use transform="matrix(0.010850694444444444,0,0,0.010850694444444444,12.47829861111111,0)" xlink:href="#M"/><use transform="matrix(0.010850694444444444,0,0,0.010850694444444444,24.95659722222222,0)" xlink:href="#M"/><use transform="matrix(0.010850694444444444,0,0,0.010850694444444444,37.43489583333333,0)" xlink:href="#M"/><use transform="matrix(0.010850694444444444,0,0,0.010850694444444444,49.91319444444444,0)" xlink:href="#Q"/><use transform="matrix(0.010850694444444444,0,0,0.010850694444444444,55.295138888888886,0)" xlink:href="#R"/><use transform="matrix(0.010850694444444444,0,0,0.010850694444444444,69.12977430555556,0)" xlink:href="#R"/><use transform="matrix(0.010850694444444444,0,0,0.010850694444444444,82.96440972222223,0)" xlink:href="#Q"/><use transform="matrix(0.010850694444444444,0,0,0.010850694444444444,88.34635416666667,0)" xlink:href="#M"/><use transform="matrix(0.010850694444444444,0,0,0.010850694444444444,100.8246527777778,0)" xlink:href="#M"/><use transform="matrix(0.010850694444444444,0,0,0.010850694444444444,113.3029513888889,0)" xlink:href="#N"/><use transform="matrix(0.010850694444444444,0,0,0.010850694444444444,119.15147569444446,0)" xlink:href="#M"/></g><path d="M730-137c145 0 253-29 323-105v-327H716v-156h528v534C1148-51 964 20 729 20c-394 0-598-279-607-678v-127c-5-410 194-690 585-691 310-1 499 171 537 447h-192c-36-193-151-289-344-289-285 0-393 220-393 528v119c-5 296 140 534 415 534" id="S"/><path d="M1216-1011c-1 297-202 441-512 441H361V0H169v-1456h537c297-6 510 164 510 445zm-192 2c1-178-126-288-307-289H361v571h345c196 1 318-92 318-282" id="T"/><path d="M665-137c214 0 337-121 336-332v-987h193v990c-3 300-218 486-529 486-309 0-526-181-525-484v-992h190v986c-1 210 123 333 335 333" id="U"/><g id="l"><use transform="matrix(0.010850694444444444,0,0,0.010850694444444444,0,0)" xlink:href="#S"/><use transform="matrix(0.010850694444444444,0,0,0.010850694444444444,15.13671875,0)" xlink:href="#T"/><use transform="matrix(0.010850694444444444,0,0,0.010850694444444444,29.15581597222222,0)" xlink:href="#U"/></g></defs></g></svg>