<svg xmlns="http://www.w3.org/2000/svg" xmlns:xlink="http://www.w3.org/1999/xlink" xmlns:lucid="lucid" width="986.01" height="763.54"><g transform="translate(-150.994728177166 -728.8969726084601)" lucid:page-tab-id="0_0"><path d="M-500 0h2500v3500H-500z" fill="#fff"/><path d="M553.3 771.14a6 6 0 0 1 6-6h150a6 6 0 0 1 6 6V895.2a6 6 0 0 1-6 6h-150a6 6 0 0 1-6-6z" fill="#fff"/><path d="M552.56 771.14a.75.75 0 0 1 .75-.75.75.75 0 0 1 .76.74.75.75 0 0 1-.75.75.75.75 0 0 1-.74-.76m.82-3a.75.75 0 0 1 .75-.75.75.75 0 0 1 .75.75.75.75 0 0 1-.75.75.75.75 0 0 1-.75-.75m2.2-2.2a.75.75 0 0 1 .74-.75.75.75 0 0 1 .75.75.75.75 0 0 1-.75.75.75.75 0 0 1-.75-.75m3-.8a.75.75 0 0 1 .74-.76.75.75 0 0 1 .76.74.75.75 0 0 1-.75.75.75.75 0 0 1-.74-.76m3 0a.75.75 0 0 1 .75-.75.75.75 0 0 1 .76.74.75.75 0 0 1-.75.75.75.75 0 0 1-.74-.76m3 0a.75.75 0 0 1 .75-.75.75.75 0 0 1 .76.74.75.75 0 0 1-.75.75.75.75 0 0 1-.74-.76m3 0a.75.75 0 0 1 .75-.75.75.75 0 0 1 .76.74.75.75 0 0 1-.75.75.75.75 0 0 1-.74-.76m3 0a.75.75 0 0 1 .75-.75.75.75 0 0 1 .76.74.75.75 0 0 1-.75.75.75.75 0 0 1-.74-.76m3 0a.75.75 0 0 1 .75-.75.75.75 0 0 1 .76.74.75.75 0 0 1-.75.75.75.75 0 0 1-.74-.76m3 0a.75.75 0 0 1 .75-.75.75.75 0 0 1 .76.74.75.75 0 0 1-.75.75.75.75 0 0 1-.74-.76m3 0a.75.75 0 0 1 .75-.75.75.75 0 0 1 .76.74.75.75 0 0 1-.75.75.75.75 0 0 1-.74-.76m3 0a.75.75 0 0 1 .75-.75.75.75 0 0 1 .76.74.75.75 0 0 1-.75.75.75.75 0 0 1-.74-.76m3 0a.75.75 0 0 1 .75-.75.75.75 0 0 1 .76.74.75.75 0 0 1-.75.75.75.75 0 0 1-.74-.76m3 0a.75.75 0 0 1 .75-.75.75.75 0 0 1 .76.74.75.75 0 0 1-.75.75.75.75 0 0 1-.74-.76m3 0a.75.75 0 0 1 .75-.75.75.75 0 0 1 .76.74.75.75 0 0 1-.75.75.75.75 0 0 1-.74-.76m3 0a.75.75 0 0 1 .75-.75.75.75 0 0 1 .76.74.75.75 0 0 1-.75.75.75.75 0 0 1-.74-.76m3 0a.75.75 0 0 1 .75-.75.75.75 0 0 1 .76.74.75.75 0 0 1-.75.75.75.75 0 0 1-.74-.76m3 0a.75.75 0 0 1 .75-.75.75.75 0 0 1 .76.74.75.75 0 0 1-.75.75.75.75 0 0 1-.74-.76m3 0a.75.75 0 0 1 .75-.75.75.75 0 0 1 .76.74.75.75 0 0 1-.75.75.75.75 0 0 1-.74-.76m3 0a.75.75 0 0 1 .75-.75.75.75 0 0 1 .76.74.75.75 0 0 1-.75.75.75.75 0 0 1-.74-.76m3 0a.75.75 0 0 1 .75-.75.75.75 0 0 1 .76.74.75.75 0 0 1-.75.75.75.75 0 0 1-.74-.76m3 0a.75.75 0 0 1 .75-.75.75.75 0 0 1 .76.74.75.75 0 0 1-.75.75.75.75 0 0 1-.74-.76m3 0a.75.75 0 0 1 .75-.75.75.75 0 0 1 .76.74.75.75 0 0 1-.75.75.75.75 0 0 1-.74-.76m3 0a.75.75 0 0 1 .75-.75.75.75 0 0 1 .76.74.75.75 0 0 1-.75.75.75.75 0 0 1-.74-.76m3 0a.75.75 0 0 1 .75-.75.75.75 0 0 1 .76.74.75.75 0 0 1-.75.75.75.75 0 0 1-.74-.76m3 0a.75.75 0 0 1 .75-.75.75.75 0 0 1 .76.74.75.75 0 0 1-.75.75.75.75 0 0 1-.74-.76m3 0a.75.75 0 0 1 .75-.75.75.75 0 0 1 .76.74.75.75 0 0 1-.75.75.75.75 0 0 1-.74-.76m3 0a.75.75 0 0 1 .75-.75.75.75 0 0 1 .76.74.75.75 0 0 1-.75.75.75.75 0 0 1-.74-.76m3 0a.75.75 0 0 1 .75-.75.75.75 0 0 1 .76.74.75.75 0 0 1-.75.75.75.75 0 0 1-.74-.76m3 0a.75.75 0 0 1 .75-.75.75.75 0 0 1 .76.74.75.75 0 0 1-.75.75.75.75 0 0 1-.74-.76m3 0a.75.75 0 0 1 .75-.75.75.75 0 0 1 .76.74.75.75 0 0 1-.75.75.75.75 0 0 1-.74-.76m3 0a.75.75 0 0 1 .75-.75.75.75 0 0 1 .76.74.75.75 0 0 1-.75.75.75.75 0 0 1-.74-.76m3 0a.75.75 0 0 1 .75-.75.75.75 0 0 1 .76.74.75.75 0 0 1-.75.75.75.75 0 0 1-.74-.76m3 0a.75.75 0 0 1 .75-.75.75.75 0 0 1 .76.74.75.75 0 0 1-.75.75.75.75 0 0 1-.74-.76m3 0a.75.75 0 0 1 .75-.75.75.75 0 0 1 .76.74.75.75 0 0 1-.75.75.75.75 0 0 1-.74-.76m3 0a.75.75 0 0 1 .75-.75.75.75 0 0 1 .76.74.75.75 0 0 1-.75.75.75.75 0 0 1-.74-.76m3 0a.75.75 0 0 1 .75-.75.75.75 0 0 1 .76.74.75.75 0 0 1-.75.75.75.75 0 0 1-.74-.76m3 0a.75.75 0 0 1 .75-.75.75.75 0 0 1 .76.74.75.75 0 0 1-.75.75.75.75 0 0 1-.74-.76m3 0a.75.75 0 0 1 .75-.75.75.75 0 0 1 .76.74.75.75 0 0 1-.75.75.75.75 0 0 1-.74-.76m3 0a.75.75 0 0 1 .75-.75.75.75 0 0 1 .76.74.75.75 0 0 1-.75.75.75.75 0 0 1-.74-.76m3 0a.75.75 0 0 1 .75-.75.75.75 0 0 1 .76.74.75.75 0 0 1-.75.75.75.75 0 0 1-.74-.76m3 0a.75.75 0 0 1 .75-.75.75.75 0 0 1 .76.74.75.75 0 0 1-.75.75.75.75 0 0 1-.74-.76m3 0a.75.75 0 0 1 .75-.75.75.75 0 0 1 .76.74.75.75 0 0 1-.75.75.75.75 0 0 1-.74-.76m3 0a.75.75 0 0 1 .75-.75.75.75 0 0 1 .76.74.75.75 0 0 1-.75.75.75.75 0 0 1-.74-.76m3 0a.75.75 0 0 1 .75-.75.75.75 0 0 1 .76.74.75.75 0 0 1-.75.75.75.75 0 0 1-.74-.76m3 0a.75.75 0 0 1 .75-.75.75.75 0 0 1 .76.74.75.75 0 0 1-.75.75.75.75 0 0 1-.74-.76m3 0a.75.75 0 0 1 .75-.75.75.75 0 0 1 .76.74.75.75 0 0 1-.75.75.75.75 0 0 1-.74-.76m3 0a.75.75 0 0 1 .75-.75.75.75 0 0 1 .76.74.75.75 0 0 1-.75.75.75.75 0 0 1-.74-.76m3 0a.75.75 0 0 1 .75-.75.75.75 0 0 1 .76.74.75.75 0 0 1-.75.75.75.75 0 0 1-.74-.76m3 0a.75.75 0 0 1 .75-.75.75.75 0 0 1 .76.74.75.75 0 0 1-.75.75.75.75 0 0 1-.74-.76m3 0a.75.75 0 0 1 .75-.75.75.75 0 0 1 .76.74.75.75 0 0 1-.75.75.75.75 0 0 1-.74-.76m3 0a.75.75 0 0 1 .75-.75.75.75 0 0 1 .76.74.75.75 0 0 1-.75.75.75.75 0 0 1-.74-.76m3 0a.75.75 0 0 1 .75-.75.75.75 0 0 1 .76.74.75.75 0 0 1-.75.75.75.75 0 0 1-.74-.76m3 0a.75.75 0 0 1 .75-.75.75.75 0 0 1 .76.74.75.75 0 0 1-.75.75.75.75 0 0 1-.74-.76m3 .82a.75.75 0 0 1 .74-.76.75.75 0 0 1 .75.75.75.75 0 0 1-.75.75.75.75 0 0 1-.75-.75m2.2 2.2a.75.75 0 0 1 .74-.75.75.75 0 0 1 .74.75.75.75 0 0 1-.75.75.75.75 0 0 1-.76-.75m.82 3a.75.75 0 0 1 .75-.76.75.75 0 0 1 .76.74.75.75 0 0 1-.75.75.75.75 0 0 1-.74-.76m0 3.03a.75.75 0 0 1 .75-.76.75.75 0 0 1 .76.76.75.75 0 0 1-.75.75.75.75 0 0 1-.74-.74m0 3.04a.75.75 0 0 1 .75-.76.75.75 0 0 1 .76.75.75.75 0 0 1-.75.74.75.75 0 0 1-.74-.75v-.02m0 3.04a.75.75 0 0 1 .75-.76.75.75 0 0 1 .76.75.75.75 0 0 1-.75.76.75.75 0 0 1-.74-.75m0 3.05a.75.75 0 0 1 .75-.76.75.75 0 0 1 .76.74.75.75 0 0 1-.75.75.75.75 0 0 1-.74-.76m0 3.03a.75.75 0 0 1 .75-.75.75.75 0 0 1 .76.75.75.75 0 0 1-.75.75.75.75 0 0 1-.74-.75m0 3.03a.75.75 0 0 1 .75-.76.75.75 0 0 1 .76.75.75.75 0 0 1-.75.74.75.75 0 0 1-.74-.75v-.02m0 3.04a.75.75 0 0 1 .75-.75.75.75 0 0 1 .76.75.75.75 0 0 1-.75.75.75.75 0 0 1-.74-.75m0 3.03a.75.75 0 0 1 .75-.76.75.75 0 0 1 .76.74.75.75 0 0 1-.75.75.75.75 0 0 1-.74-.76m0 3.04a.75.75 0 0 1 .75-.76.75.75 0 0 1 .76.75.75.75 0 0 1-.75.75.75.75 0 0 1-.74-.75m0 3.03a.75.75 0 0 1 .75-.76.75.75 0 0 1 .76.75.75.75 0 0 1-.75.74.75.75 0 0 1-.74-.75m0 3.03a.75.75 0 0 1 .75-.76.75.75 0 0 1 .76.75.75.75 0 0 1-.75.75.75.75 0 0 1-.74-.75m0 3.03a.75.75 0 0 1 .75-.75.75.75 0 0 1 .76.75.75.75 0 0 1-.75.75.75.75 0 0 1-.74-.75m0 3.03a.75.75 0 0 1 .75-.76.75.75 0 0 1 .76.75.75.75 0 0 1-.75.75.75.75 0 0 1-.74-.75m0 3.03a.75.75 0 0 1 .75-.75.75.75 0 0 1 .76.75.75.75 0 0 1-.75.75.75.75 0 0 1-.74-.75m0 3.03a.75.75 0 0 1 .75-.76.75.75 0 0 1 .76.75.75.75 0 0 1-.75.75.75.75 0 0 1-.74-.75m0 3.04a.75.75 0 0 1 .75-.76.75.75 0 0 1 .76.75.75.75 0 0 1-.75.75.75.75 0 0 1-.74-.75m0 3.03a.75.75 0 0 1 .75-.75.75.75 0 0 1 .76.75.75.75 0 0 1-.75.75.75.75 0 0 1-.74-.75m0 3.03a.75.75 0 0 1 .75-.75.75.75 0 0 1 .76.75.75.75 0 0 1-.75.75.75.75 0 0 1-.74-.75m0 3.03a.75.75 0 0 1 .75-.75.75.75 0 0 1 .76.75.75.75 0 0 1-.75.75.75.75 0 0 1-.74-.75m0 3.03a.75.75 0 0 1 .75-.76.75.75 0 0 1 .76.75.75.75 0 0 1-.75.75.75.75 0 0 1-.74-.75m0 3.03a.75.75 0 0 1 .75-.75.75.75 0 0 1 .76.75.75.75 0 0 1-.75.75.75.75 0 0 1-.74-.75m0 3.03a.75.75 0 0 1 .75-.75.75.75 0 0 1 .76.75.75.75 0 0 1-.75.75.75.75 0 0 1-.74-.75m0 3.04a.75.75 0 0 1 .75-.76.75.75 0 0 1 .76.75.75.75 0 0 1-.75.75.75.75 0 0 1-.74-.75m0 3.03a.75.75 0 0 1 .75-.75.75.75 0 0 1 .76.75.75.75 0 0 1-.75.75.75.75 0 0 1-.74-.75m0 3.04v-.02a.75.75 0 0 1 .75-.75.75.75 0 0 1 .76.75.75.75 0 0 1-.75.75.75.75 0 0 1-.74-.75m0 3.03a.75.75 0 0 1 .75-.74.75.75 0 0 1 .76.75.75.75 0 0 1-.75.76.75.75 0 0 1-.74-.75m0 3.04a.75.75 0 0 1 .75-.76.75.75 0 0 1 .76.75.75.75 0 0 1-.75.75.75.75 0 0 1-.74-.75m0 3.04a.75.75 0 0 1 .75-.76.75.75 0 0 1 .76.76.75.75 0 0 1-.75.75.75.75 0 0 1-.74-.74m0 3.03v-.02a.75.75 0 0 1 .75-.75.75.75 0 0 1 .76.75.75.75 0 0 1-.75.75.75.75 0 0 1-.74-.75m0 3.04a.75.75 0 0 1 .75-.76.75.75 0 0 1 .76.75.75.75 0 0 1-.75.76.75.75 0 0 1-.74-.75m0 3.04a.75.75 0 0 1 .75-.75.75.75 0 0 1 .76.74.75.75 0 0 1-.75.75.75.75 0 0 1-.74-.76m0 3.03a.75.75 0 0 1 .75-.76.75.75 0 0 1 .76.76.75.75 0 0 1-.75.75.75.75 0 0 1-.74-.74m0 3.03a.75.75 0 0 1 .75-.76.75.75 0 0 1 .76.75.75.75 0 0 1-.75.74.75.75 0 0 1-.74-.75v-.02m0 3.04a.75.75 0 0 1 .75-.76.75.75 0 0 1 .76.75.75.75 0 0 1-.75.76.75.75 0 0 1-.74-.75m0 3.05a.75.75 0 0 1 .75-.76.75.75 0 0 1 .76.74.75.75 0 0 1-.75.75.75.75 0 0 1-.74-.76m0 3.03a.75.75 0 0 1 .75-.75.75.75 0 0 1 .76.75.75.75 0 0 1-.75.75.75.75 0 0 1-.74-.75m0 3.03a.75.75 0 0 1 .75-.76.75.75 0 0 1 .76.75.75.75 0 0 1-.75.74.75.75 0 0 1-.74-.75v-.02m0 3.04a.75.75 0 0 1 .75-.75.75.75 0 0 1 .76.75.75.75 0 0 1-.75.75.75.75 0 0 1-.74-.75m0 3.03a.75.75 0 0 1 .75-.76.75.75 0 0 1 .76.74.75.75 0 0 1-.75.75.75.75 0 0 1-.74-.76m0 3.04a.75.75 0 0 1 .75-.76.75.75 0 0 1 .76.75.75.75 0 0 1-.75.75.75.75 0 0 1-.74-.75m0 3.03a.75.75 0 0 1 .75-.76.75.75 0 0 1 .76.75.75.75 0 0 1-.75.74.75.75 0 0 1-.74-.75m-.82 3v-.02a.75.75 0 0 1 .75-.75.75.75 0 0 1 .74.75.75.75 0 0 1-.75.75.75.75 0 0 1-.76-.75m-2.2 2.2a.75.75 0 0 1 .76-.75.75.75 0 0 1 .75.75.75.75 0 0 1-.75.75.75.75 0 0 1-.75-.75m-3 .82a.75.75 0 0 1 .76-.76.75.75 0 0 1 .76.75.75.75 0 0 1-.75.74.75.75 0 0 1-.74-.75m-3 0a.75.75 0 0 1 .75-.76.75.75 0 0 1 .76.75.75.75 0 0 1-.75.74.75.75 0 0 1-.74-.75m-3 0a.75.75 0 0 1 .75-.76.75.75 0 0 1 .76.75.75.75 0 0 1-.75.74.75.75 0 0 1-.74-.75m-3 0a.75.75 0 0 1 .75-.76.75.75 0 0 1 .76.75.75.75 0 0 1-.75.74.75.75 0 0 1-.74-.75m-3 0a.75.75 0 0 1 .75-.76.75.75 0 0 1 .76.75.75.75 0 0 1-.75.74.75.75 0 0 1-.74-.75m-3 0a.75.75 0 0 1 .75-.76.75.75 0 0 1 .76.75.75.75 0 0 1-.75.74.75.75 0 0 1-.74-.75m-3 0a.75.75 0 0 1 .75-.76.75.75 0 0 1 .76.75.75.75 0 0 1-.75.74.75.75 0 0 1-.74-.75m-3 0a.75.75 0 0 1 .75-.76.75.75 0 0 1 .76.75.75.75 0 0 1-.75.74.75.75 0 0 1-.74-.75m-3 0a.75.75 0 0 1 .75-.76.75.75 0 0 1 .76.75.75.75 0 0 1-.75.74.75.75 0 0 1-.74-.75m-3 0a.75.75 0 0 1 .75-.76.75.75 0 0 1 .76.75.75.75 0 0 1-.75.74.75.75 0 0 1-.74-.75m-3 0a.75.75 0 0 1 .75-.76.75.75 0 0 1 .76.75.75.75 0 0 1-.75.74.75.75 0 0 1-.74-.75m-3 0a.75.75 0 0 1 .75-.76.75.75 0 0 1 .76.75.75.75 0 0 1-.75.74.75.75 0 0 1-.74-.75m-3 0a.75.75 0 0 1 .75-.76.75.75 0 0 1 .76.75.75.75 0 0 1-.75.74.75.75 0 0 1-.74-.75m-3 0a.75.75 0 0 1 .75-.76.75.75 0 0 1 .76.75.75.75 0 0 1-.75.74.75.75 0 0 1-.74-.75m-3 0a.75.75 0 0 1 .75-.76.75.75 0 0 1 .76.75.75.75 0 0 1-.75.74.75.75 0 0 1-.74-.75m-3 0a.75.75 0 0 1 .75-.76.75.75 0 0 1 .76.75.75.75 0 0 1-.75.74.75.75 0 0 1-.74-.75m-3 0a.75.75 0 0 1 .75-.76.75.75 0 0 1 .76.75.75.75 0 0 1-.75.74.75.75 0 0 1-.74-.75m-3 0a.75.75 0 0 1 .75-.76.75.75 0 0 1 .76.75.75.75 0 0 1-.75.74.75.75 0 0 1-.74-.75m-3 0a.75.75 0 0 1 .75-.76.75.75 0 0 1 .76.75.75.75 0 0 1-.75.74.75.75 0 0 1-.74-.75m-3 0a.75.75 0 0 1 .75-.76.75.75 0 0 1 .76.75.75.75 0 0 1-.75.74.75.75 0 0 1-.74-.75m-3 0a.75.75 0 0 1 .75-.76.75.75 0 0 1 .76.75.75.75 0 0 1-.75.74.75.75 0 0 1-.74-.75m-3 0a.75.75 0 0 1 .75-.76.75.75 0 0 1 .76.75.75.75 0 0 1-.75.74.75.75 0 0 1-.74-.75m-3 0a.75.75 0 0 1 .75-.76.75.75 0 0 1 .76.75.75.75 0 0 1-.75.74.75.75 0 0 1-.74-.75m-3 0a.75.75 0 0 1 .75-.76.75.75 0 0 1 .76.75.75.75 0 0 1-.75.74.75.75 0 0 1-.74-.75m-3 0a.75.75 0 0 1 .75-.76.75.75 0 0 1 .76.75.75.75 0 0 1-.75.74.75.75 0 0 1-.74-.75m-3 0a.75.75 0 0 1 .75-.76.75.75 0 0 1 .76.75.75.75 0 0 1-.75.74.75.75 0 0 1-.74-.75m-3 0a.75.75 0 0 1 .75-.76.75.75 0 0 1 .76.75.75.75 0 0 1-.75.74.75.75 0 0 1-.74-.75m-3 0a.75.75 0 0 1 .75-.76.75.75 0 0 1 .76.75.75.75 0 0 1-.75.74.75.75 0 0 1-.74-.75m-3 0a.75.75 0 0 1 .75-.76.75.75 0 0 1 .76.75.75.75 0 0 1-.75.74.75.75 0 0 1-.74-.75m-3 0a.75.75 0 0 1 .75-.76.75.75 0 0 1 .76.75.75.75 0 0 1-.75.74.75.75 0 0 1-.74-.75m-3 0a.75.75 0 0 1 .75-.76.75.75 0 0 1 .76.75.75.75 0 0 1-.75.74.75.75 0 0 1-.74-.75m-3 0a.75.75 0 0 1 .75-.76.75.75 0 0 1 .76.75.75.75 0 0 1-.75.74.75.75 0 0 1-.74-.75m-3 0a.75.75 0 0 1 .75-.76.75.75 0 0 1 .76.75.75.75 0 0 1-.75.74.75.75 0 0 1-.74-.75m-3 0a.75.75 0 0 1 .75-.76.75.75 0 0 1 .76.75.75.75 0 0 1-.75.74.75.75 0 0 1-.74-.75m-3 0a.75.75 0 0 1 .75-.76.75.75 0 0 1 .76.75.75.75 0 0 1-.75.74.75.75 0 0 1-.74-.75m-3 0a.75.75 0 0 1 .75-.76.75.75 0 0 1 .76.75.75.75 0 0 1-.75.74.75.75 0 0 1-.74-.75m-3 0a.75.75 0 0 1 .75-.76.75.75 0 0 1 .76.75.75.75 0 0 1-.75.74.75.75 0 0 1-.74-.75m-3 0a.75.75 0 0 1 .75-.76.75.75 0 0 1 .76.75.75.75 0 0 1-.75.74.75.75 0 0 1-.74-.75m-3 0a.75.75 0 0 1 .75-.76.75.75 0 0 1 .76.75.75.75 0 0 1-.75.74.75.75 0 0 1-.74-.75m-3 0a.75.75 0 0 1 .75-.76.75.75 0 0 1 .76.75.75.75 0 0 1-.75.74.75.75 0 0 1-.74-.75m-3 0a.75.75 0 0 1 .75-.76.75.75 0 0 1 .76.75.75.75 0 0 1-.75.74.75.75 0 0 1-.74-.75m-3 0a.75.75 0 0 1 .75-.76.75.75 0 0 1 .76.75.75.75 0 0 1-.75.74.75.75 0 0 1-.74-.75m-3 0a.75.75 0 0 1 .75-.76.75.75 0 0 1 .76.75.75.75 0 0 1-.75.74.75.75 0 0 1-.74-.75m-3 0a.75.75 0 0 1 .75-.76.75.75 0 0 1 .76.75.75.75 0 0 1-.75.74.75.75 0 0 1-.74-.75m-3 0a.75.75 0 0 1 .75-.76.75.75 0 0 1 .76.75.75.75 0 0 1-.75.74.75.75 0 0 1-.74-.75m-3 0a.75.75 0 0 1 .75-.76.75.75 0 0 1 .76.75.75.75 0 0 1-.75.74.75.75 0 0 1-.74-.75m-3 0a.75.75 0 0 1 .75-.76.75.75 0 0 1 .76.75.75.75 0 0 1-.75.74.75.75 0 0 1-.74-.75m-3 0a.75.75 0 0 1 .75-.76.75.75 0 0 1 .76.75.75.75 0 0 1-.75.74.75.75 0 0 1-.74-.75m-3 0a.75.75 0 0 1 .75-.76.75.75 0 0 1 .76.75.75.75 0 0 1-.75.74.75.75 0 0 1-.74-.75m-3 0a.75.75 0 0 1 .75-.76.75.75 0 0 1 .76.75.75.75 0 0 1-.75.74.75.75 0 0 1-.74-.75m-3 0a.75.75 0 0 1 .75-.76.75.75 0 0 1 .76.75.75.75 0 0 1-.75.74.75.75 0 0 1-.74-.75m-3-.82a.75.75 0 0 1 .76-.75.75.75 0 0 1 .75.75.75.75 0 0 1-.75.75.75.75 0 0 1-.75-.75m-2.2-2.2a.75.75 0 0 1 .76-.75.75.75 0 0 1 .75.75.75.75 0 0 1-.75.75.75.75 0 0 1-.75-.75m-.82-2.98a.75.75 0 0 1 .75-.76.75.75 0 0 1 .76.75.75.75 0 0 1-.75.74.75.75 0 0 1-.74-.75m0-3.02a.75.75 0 0 1 .75-.76.75.75 0 0 1 .76.75.75.75 0 0 1-.75.75.75.75 0 0 1-.74-.75m0-3.02a.75.75 0 0 1 .75-.76.75.75 0 0 1 .76.74.75.75 0 0 1-.75.75.75.75 0 0 1-.74-.76m0-3.02a.75.75 0 0 1 .75-.75.75.75 0 0 1 .76.75.75.75 0 0 1-.75.75.75.75 0 0 1-.74-.75m0-3.02a.75.75 0 0 1 .75-.76.75.75 0 0 1 .76.75.75.75 0 0 1-.75.74.75.75 0 0 1-.74-.75v-.02m0-3a.75.75 0 0 1 .75-.76.75.75 0 0 1 .76.75.75.75 0 0 1-.75.75.75.75 0 0 1-.74-.75m0-3.02a.75.75 0 0 1 .75-.76.75.75 0 0 1 .76.74.75.75 0 0 1-.75.75.75.75 0 0 1-.74-.76m0-3.02a.75.75 0 0 1 .75-.76.75.75 0 0 1 .76.75.75.75 0 0 1-.75.76.75.75 0 0 1-.74-.75m0-3a.75.75 0 0 1 .75-.76.75.75 0 0 1 .76.75.75.75 0 0 1-.75.74.75.75 0 0 1-.74-.75v-.02m0-3v-.02a.75.75 0 0 1 .75-.75.75.75 0 0 1 .76.76.75.75 0 0 1-.75.75.75.75 0 0 1-.74-.74m0-3.02a.75.75 0 0 1 .75-.75.75.75 0 0 1 .76.74.75.75 0 0 1-.75.75.75.75 0 0 1-.74-.76m0-3.02a.75.75 0 0 1 .75-.76.75.75 0 0 1 .76.75.75.75 0 0 1-.75.76.75.75 0 0 1-.74-.75m0-3v-.02a.75.75 0 0 1 .75-.75.75.75 0 0 1 .76.75.75.75 0 0 1-.75.75.75.75 0 0 1-.74-.75m0-3v-.02a.75.75 0 0 1 .75-.75.75.75 0 0 1 .76.76.75.75 0 0 1-.75.75.75.75 0 0 1-.74-.74m0-3.02a.75.75 0 0 1 .75-.76.75.75 0 0 1 .76.75.75.75 0 0 1-.75.75.75.75 0 0 1-.74-.75m0-3.02a.75.75 0 0 1 .75-.74.75.75 0 0 1 .76.75.75.75 0 0 1-.75.76.75.75 0 0 1-.74-.75m0-3v-.02a.75.75 0 0 1 .75-.75.75.75 0 0 1 .76.75.75.75 0 0 1-.75.75.75.75 0 0 1-.74-.75m0-3.02a.75.75 0 0 1 .75-.75.75.75 0 0 1 .76.75.75.75 0 0 1-.75.75.75.75 0 0 1-.74-.75m0-3v-.02a.75.75 0 0 1 .75-.75.75.75 0 0 1 .76.75.75.75 0 0 1-.75.75.75.75 0 0 1-.74-.75m0-3.02a.75.75 0 0 1 .75-.75.75.75 0 0 1 .76.75.75.75 0 0 1-.75.75.75.75 0 0 1-.74-.75m0-3.02a.75.75 0 0 1 .75-.75.75.75 0 0 1 .76.75.75.75 0 0 1-.75.75.75.75 0 0 1-.74-.75m0-3.02a.75.75 0 0 1 .75-.76.75.75 0 0 1 .76.75.75.75 0 0 1-.75.75.75.75 0 0 1-.74-.75m0-3.02a.75.75 0 0 1 .75-.75.75.75 0 0 1 .76.75.75.75 0 0 1-.75.75.75.75 0 0 1-.74-.75m0-3.02a.75.75 0 0 1 .75-.75.75.75 0 0 1 .76.75.75.75 0 0 1-.75.75.75.75 0 0 1-.74-.75m0-3.02a.75.75 0 0 1 .75-.75.75.75 0 0 1 .76.75.75.75 0 0 1-.75.75.75.75 0 0 1-.74-.75m0-3.02a.75.75 0 0 1 .75-.76.75.75 0 0 1 .76.75.75.75 0 0 1-.75.75.75.75 0 0 1-.74-.75m0-3.02a.75.75 0 0 1 .75-.76.75.75 0 0 1 .76.75.75.75 0 0 1-.75.75.75.75 0 0 1-.74-.75m0-3v-.02a.75.75 0 0 1 .75-.75.75.75 0 0 1 .76.75.75.75 0 0 1-.75.75.75.75 0 0 1-.74-.75m0-3.02a.75.75 0 0 1 .75-.76.75.75 0 0 1 .76.75.75.75 0 0 1-.75.75.75.75 0 0 1-.74-.75m0-3.02a.75.75 0 0 1 .75-.75.75.75 0 0 1 .76.75.75.75 0 0 1-.75.75.75.75 0 0 1-.74-.75m0-3.02a.75.75 0 0 1 .75-.76.75.75 0 0 1 .76.75.75.75 0 0 1-.75.75.75.75 0 0 1-.74-.75m0-3.02a.75.75 0 0 1 .75-.76.75.75 0 0 1 .76.75.75.75 0 0 1-.75.74.75.75 0 0 1-.74-.75m0-3.02a.75.75 0 0 1 .75-.76.75.75 0 0 1 .76.75.75.75 0 0 1-.75.75.75.75 0 0 1-.74-.75m0-3.02a.75.75 0 0 1 .75-.76.75.75 0 0 1 .76.74.75.75 0 0 1-.75.75.75.75 0 0 1-.74-.76m0-3.02a.75.75 0 0 1 .75-.75.75.75 0 0 1 .76.75.75.75 0 0 1-.75.75.75.75 0 0 1-.74-.75m0-3.02a.75.75 0 0 1 .75-.76.75.75 0 0 1 .76.75.75.75 0 0 1-.75.74.75.75 0 0 1-.74-.75v-.02m0-3a.75.75 0 0 1 .75-.76.75.75 0 0 1 .76.75.75.75 0 0 1-.75.75.75.75 0 0 1-.74-.75m0-3.02a.75.75 0 0 1 .75-.76.75.75 0 0 1 .76.74.75.75 0 0 1-.75.75.75.75 0 0 1-.74-.76m0-3.02a.75.75 0 0 1 .75-.76.75.75 0 0 1 .76.75.75.75 0 0 1-.75.76.75.75 0 0 1-.74-.75m0-3a.75.75 0 0 1 .75-.76.75.75 0 0 1 .76.75.75.75 0 0 1-.75.74.75.75 0 0 1-.74-.75v-.02m0-3v-.02a.75.75 0 0 1 .75-.75.75.75 0 0 1 .76.76.75.75 0 0 1-.75.75.75.75 0 0 1-.74-.74" fill="#282c33"/><path d="M538.98 1101.4a6 6 0 0 1 6-6h179a6 6 0 0 1 6 6v108a6 6 0 0 1-6 6H545a6 6 0 0 1-6-6z" stroke="#282c33" stroke-width="1.5" fill="#cfe4ff"/><use xlink:href="#a" transform="matrix(1,0,0,1,550.9772055647207,1107.3892093386712) translate(32.312717013888886 56.61631944444444)"/><use xlink:href="#b" transform="matrix(1,0,0,1,550.9772055647207,1107.3892093386712) translate(88.45421006944444 56.61631944444444)"/><path d="M480.3 918.58a6 6 0 0 1 6-6h296.38a6 6 0 0 1 6 6v108a6 6 0 0 1-6 6h-296.4a6 6 0 0 1-6-6z" stroke="#282c33" stroke-width="1.5" fill="#cfe4ff"/><use xlink:href="#c" transform="matrix(1,0,0,1,492.28465336709843,924.5825547652231) translate(64.93381076388889 56.99131944444444)"/><use xlink:href="#d" transform="matrix(1,0,0,1,492.28465336709843,924.5825547652231) translate(149.9490017361111 56.99131944444444)"/><path d="M480.3 1250.87a6 6 0 0 1 6-6h296.38a6 6 0 0 1 6 6v46.67a6 6 0 0 1-6 6h-296.4a6 6 0 0 1-6-6z" stroke="#282c33" stroke-width="1.5" fill="#fc9432"/><use xlink:href="#e" transform="matrix(1,0,0,1,492.28465336709763,1256.870729562603) translate(37.297092013888886 24.991319444444443)"/><use xlink:href="#f" transform="matrix(1,0,0,1,492.28465336709763,1256.870729562603) translate(152.05403645833331 24.991319444444443)"/><path d="M862.3 1101.4a6 6 0 0 1 6-6h179a6 6 0 0 1 6 6v108a6 6 0 0 1-6 6h-179a6 6 0 0 1-6-6z" stroke="#282c33" stroke-width="1.5" fill="#cfe4ff"/><use xlink:href="#a" transform="matrix(1,0,0,1,874.2850374573761,1107.3892093386705) translate(32.312717013888886 56.61631944444444)"/><use xlink:href="#b" transform="matrix(1,0,0,1,874.2850374573761,1107.3892093386705) translate(88.45421006944444 56.61631944444444)"/><path d="M634.48 1216.9v26.47" stroke="#3a414a" stroke-width="1.5" fill="none"/><path d="M635.2 1216.9h-1.44v-.76h1.45zM635.2 1244.12h-1.44v-.77h1.45z" stroke="#3a414a" stroke-width=".05" fill="#3a414a"/><path d="M803.9 1250.87a6 6 0 0 1 6-6h296.4a6 6 0 0 1 6 6v46.67a6 6 0 0 1-6 6H809.9a6 6 0 0 1-6-6z" stroke="#282c33" stroke-width="1.5" fill="#fc9432"/><use xlink:href="#e" transform="matrix(1,0,0,1,815.9125403709127,1256.870729562602) translate(37.297092013888886 24.991319444444443)"/><use xlink:href="#f" transform="matrix(1,0,0,1,815.9125403709127,1256.870729562602) translate(152.05403645833331 24.991319444444443)"/><path d="M957.8 1216.9v13.07a.16.16 0 0 0 .15.16.16.16 0 0 1 .16.16v13.07" stroke="#3a414a" stroke-width="1.5" fill="none"/><path d="M958.5 1216.9h-1.44v-.76h1.45zM958.83 1244.12h-1.45v-.77h1.45z" stroke="#3a414a" stroke-width=".05" fill="#3a414a"/><path d="M634.48 1034.08v59.8" stroke="#3a414a" stroke-width="1.5" fill="none"/><path d="M635.2 1034.1h-1.44v-.77h1.45zM635.2 1094.64h-1.44v-.77h1.45z" stroke="#3a414a" stroke-width=".05" fill="#3a414a"/><path d="M210.44 1101.4a6 6 0 0 1 6-6h179a6 6 0 0 1 6 6v108a6 6 0 0 1-6 6h-179a6 6 0 0 1-6-6z" stroke="#282c33" stroke-width="1.5" fill="#cfe4ff"/><use xlink:href="#a" transform="matrix(1,0,0,1,222.43728043793442,1107.3892093386705) translate(32.312717013888886 56.61631944444444)"/><use xlink:href="#b" transform="matrix(1,0,0,1,222.43728043793442,1107.3892093386705) translate(88.45421006944444 56.61631944444444)"/><path d="M151.75 1250.87a6 6 0 0 1 6-6h296.4a6 6 0 0 1 6 6v46.67a6 6 0 0 1-6 6h-296.4a6 6 0 0 1-6-6z" stroke="#282c33" stroke-width="1.5" fill="#fc9432"/><use xlink:href="#e" transform="matrix(1,0,0,1,163.74472824031125,1256.870729562602) translate(37.297092013888886 24.991319444444443)"/><use xlink:href="#f" transform="matrix(1,0,0,1,163.74472824031125,1256.870729562602) translate(152.05403645833331 24.991319444444443)"/><path d="M305.94 1216.9v26.47" stroke="#3a414a" stroke-width="1.5" fill="none"/><path d="M306.67 1216.9h-1.45v-.76h1.45zM306.67 1244.12h-1.45v-.77h1.45z" stroke="#3a414a" stroke-width=".05" fill="#3a414a"/><path d="M634.48 1034.08v23.9a6 6 0 0 1-6 6H311.94a6 6 0 0 0-6 6v23.9" stroke="#3a414a" stroke-width="1.5" fill="none"/><path d="M635.2 1034.1h-1.44v-.77h1.45zM306.67 1094.64h-1.45v-.77h1.45z" stroke="#3a414a" stroke-width=".05" fill="#3a414a"/><path d="M634.48 1034.08v23.9a6 6 0 0 0 6 6h311.3a6 6 0 0 1 6 6v23.9" stroke="#3a414a" stroke-width="1.5" fill="none"/><path d="M635.2 1034.1h-1.44v-.77h1.45zM958.5 1094.64h-1.44v-.77h1.45z" stroke="#3a414a" stroke-width=".05" fill="#3a414a"/><path d="M159.66 1341.13a6 6 0 0 1 6-6H283.2a6 6 0 0 1 6 6v64.08a6 6 0 0 1-6 6H165.66a6 6 0 0 1-6-6z" stroke="#282c33" stroke-width="1.5" fill="#cfe4ff"/><use xlink:href="#g" transform="matrix(1,0,0,1,171.65645440422657,1347.126611515246) translate(8.740017361111114 23.928819444444443)"/><use xlink:href="#h" transform="matrix(1,0,0,1,171.65645440422657,1347.126611515246) translate(53.69444444444445 23.928819444444443)"/><use xlink:href="#i" transform="matrix(1,0,0,1,171.65645440422657,1347.126611515246) translate(6.857421875 49.97048611111111)"/><path d="M491.66 1341.13a6 6 0 0 1 6-6H615.2a6 6 0 0 1 6 6v64.08a6 6 0 0 1-6 6H497.66a6 6 0 0 1-6-6z" stroke="#282c33" stroke-width="1.5" fill="#cfe4ff"/><use xlink:href="#j" transform="matrix(1,0,0,1,503.65786188575555,1347.1266115152469) translate(2.500868055555557 23.928819444444443)"/><use xlink:href="#h" transform="matrix(1,0,0,1,503.65786188575555,1347.1266115152469) translate(59.93359375000001 23.928819444444443)"/><use xlink:href="#k" transform="matrix(1,0,0,1,503.65786188575555,1347.1266115152469) translate(13.302734375 49.97048611111111)"/><path d="M647.76 1341.13a6 6 0 0 1 6-6H771.3a6 6 0 0 1 6 6v64.08a6 6 0 0 1-6 6H653.76a6 6 0 0 1-6-6z" stroke="#282c33" stroke-width="1.5" fill="#f72585"/><use xlink:href="#l" transform="matrix(1,0,0,1,659.7625721012636,1347.126611515246) translate(2.500868055555557 23.928819444444443)"/><use xlink:href="#m" transform="matrix(1,0,0,1,659.7625721012636,1347.126611515246) translate(59.93359375000001 23.928819444444443)"/><use xlink:href="#n" transform="matrix(1,0,0,1,659.7625721012636,1347.126611515246) translate(13.302734375 49.97048611111111)"/><path d="M315.76 1341.13a6 6 0 0 1 6-6H439.3a6 6 0 0 1 6 6v64.08a6 6 0 0 1-6 6H321.76a6 6 0 0 1-6-6z" stroke="#282c33" stroke-width="1.5" fill="#cfe4ff"/><use xlink:href="#g" transform="matrix(1,0,0,1,327.7611646197346,1347.126611515246) translate(8.740017361111114 23.928819444444443)"/><use xlink:href="#h" transform="matrix(1,0,0,1,327.7611646197346,1347.126611515246) translate(53.69444444444445 23.928819444444443)"/><use xlink:href="#i" transform="matrix(1,0,0,1,327.7611646197346,1347.126611515246) translate(6.857421875 49.97048611111111)"/><path d="M814.97 1341.13a6 6 0 0 1 6-6H938.5a6 6 0 0 1 6 6v64.08a6 6 0 0 1-6 6H820.98a6 6 0 0 1-6-6z" stroke="#282c33" stroke-width="1.5" fill="#cfe4ff"/><use xlink:href="#j" transform="matrix(1,0,0,1,826.9656937784109,1347.126611515246) translate(2.500868055555557 23.928819444444443)"/><use xlink:href="#h" transform="matrix(1,0,0,1,826.9656937784109,1347.126611515246) translate(59.93359375000001 23.928819444444443)"/><use xlink:href="#k" transform="matrix(1,0,0,1,826.9656937784109,1347.126611515246) translate(13.302734375 49.97048611111111)"/><path d="M971.07 1341.13a6 6 0 0 1 6-6h117.54a6 6 0 0 1 6 6v64.08a6 6 0 0 1-6 6H977.08a6 6 0 0 1-6-6z" stroke="#282c33" stroke-width="1.5" fill="#cfe4ff"/><use xlink:href="#j" transform="matrix(1,0,0,1,983.0704039939191,1347.126611515245) translate(2.500868055555557 23.928819444444443)"/><use xlink:href="#h" transform="matrix(1,0,0,1,983.0704039939191,1347.126611515245) translate(59.93359375000001 23.928819444444443)"/><use xlink:href="#k" transform="matrix(1,0,0,1,983.0704039939191,1347.126611515245) translate(13.302734375 49.97048611111111)"/><path d="M224.43 1333.63v-8.3a6 6 0 0 1 6-6h72.8a6 6 0 0 0 6-6v-8.3" stroke="#3a414a" stroke-width="1.5" fill="none"/><path d="M225.15 1334.38h-1.45v-.77h1.45zM309.97 1305.06h-1.45v-.77h1.45z" stroke="#3a414a" stroke-width=".05" fill="#3a414a"/><path d="M380.53 1333.63v-8.3a6 6 0 0 0-6-6h-62.6a6 6 0 0 1-6-6v-8.3" stroke="#3a414a" stroke-width="1.5" fill="none"/><path d="M381.26 1334.38h-1.45v-.77h1.46zM306.67 1305.06h-1.45v-.77h1.45z" stroke="#3a414a" stroke-width=".05" fill="#3a414a"/><path d="M556.43 1333.63v-8.3a6 6 0 0 1 6-6h66.05a6 6 0 0 0 6-6v-8.3" stroke="#3a414a" stroke-width="1.5" fill="none"/><path d="M557.15 1334.38h-1.45v-.77h1.45zM635.2 1305.06h-1.44v-.77h1.45z" stroke="#3a414a" stroke-width=".05" fill="#3a414a"/><path d="M712.53 1333.63v-8.3a6 6 0 0 0-6-6h-66.05a6 6 0 0 1-6-6v-8.3" stroke="#3a414a" stroke-width="1.5" fill="none"/><path d="M713.26 1334.38h-1.45v-.77h1.46zM635.2 1305.06h-1.44v-.77h1.45z" stroke="#3a414a" stroke-width=".05" fill="#3a414a"/><path d="M879.74 1333.63v-8.3a6 6 0 0 1 6-6h66.37a6 6 0 0 0 6-6v-8.3" stroke="#3a414a" stroke-width="1.5" fill="none"/><path d="M880.46 1334.38H879v-.77h1.46zM958.83 1305.06h-1.45v-.77h1.45z" stroke="#3a414a" stroke-width=".05" fill="#3a414a"/><path d="M1035.84 1333.63v-8.3a6 6 0 0 0-6-6H964.1a6 6 0 0 1-6-6v-8.3" stroke="#3a414a" stroke-width="1.5" fill="none"/><path d="M1036.57 1334.38h-1.45v-.77h1.45zM958.83 1305.06h-1.45v-.77h1.45z" stroke="#3a414a" stroke-width=".05" fill="#3a414a"/><path d="M562.5 829.54a6 6 0 0 1 6-6h131.97a6 6 0 0 1 6 6v53.38a6 6 0 0 1-6 6H568.5a6 6 0 0 1-6-6z" stroke="#000" stroke-width="1.5" fill="#f72585"/><use xlink:href="#o" transform="matrix(1,0,0,1,574.4948144450785,835.5442826725349) translate(3.22374131944445 28.491319444444443)"/><use xlink:href="#p" transform="matrix(1,0,0,1,574.4948144450785,835.5442826725349) translate(73.21072048611111 28.491319444444443)"/><path d="M562.42 787.14a6 6 0 0 1 6-6h132.05a6 6 0 0 1 6 6v30.4a6 6 0 0 1-6 6H568.42a6 6 0 0 1-6-6z" stroke="#282c33" stroke-width="1.5" fill="#cfe4ff"/><use xlink:href="#q" transform="matrix(1,0,0,1,574.4181376111959,793.1371211064189) translate(36.671875 20.616319444444443)"/><path d="M791.23 735.65a6 6 0 0 1 6-6h332.42a6 6 0 0 1 6 6v60.75a6 6 0 0 1-6 6H797.22a6 6 0 0 1-6-6z" stroke="#000" stroke-width="1.5" fill="#f72585"/><g><use xlink:href="#r" transform="matrix(1,0,0,1,803.2247464688307,741.6469726173246) translate(21.185447265624987 20.9019572265625)"/><use xlink:href="#s" transform="matrix(1,0,0,1,803.2247464688307,741.6469726173246) translate(288.6331037109375 20.9019572265625)"/><use xlink:href="#t" transform="matrix(1,0,0,1,803.2247464688307,741.6469726173246) translate(93.20601025390624 47.533094140625)"/></g><path d="M791.83 815.8a6 6 0 0 1 6-6h332.43a6 6 0 0 1 6 6v53.23a6 6 0 0 1-6 6H797.83a6 6 0 0 1-6-6z" stroke="#000" stroke-width="1.5" fill="#f72585"/><g><use xlink:href="#u" transform="matrix(1,0,0,1,803.8306972963646,821.7973599469343) translate(32.720195703125 20.9019572265625)"/><use xlink:href="#s" transform="matrix(1,0,0,1,803.8306972963646,821.7973599469343) translate(277.0983552734375 20.9019572265625)"/><use xlink:href="#v" transform="matrix(1,0,0,1,803.8306972963646,821.7973599469343) translate(124.03854560546876 47.533094140625)"/></g><path d="M707.97 802.34h34.88a6 6 0 0 0 6-6v-24.32a6 6 0 0 1 6-6h34.88" stroke="#3a414a" stroke-width="1.5" fill="none"/><path d="M708 803.07h-.78v-1.45h.77zM790.48 766.75h-.77v-1.45h.77z" stroke="#3a414a" stroke-width=".05" fill="#3a414a"/><path d="M707.97 802.34h35.18a6 6 0 0 1 6 6v25.84a6 6 0 0 0 6 6h35.18" stroke="#3a414a" stroke-width="1.5" fill="none"/><path d="M708 803.07h-.78v-1.45h.77zM791.08 840.9h-.77v-1.44h.78z" stroke="#3a414a" stroke-width=".05" fill="#3a414a"/><path d="M634.48 890.42v20.66" stroke="#3a414a" stroke-width="1.5" fill="none"/><path d="M635.2 890.44h-1.44v-.77h1.45zM635.2 911.83h-1.44v-.77h1.45z" stroke="#3a414a" stroke-width=".05" fill="#3a414a"/><path d="M644.7 1432.3a6 6 0 0 1 6-6H782.7a6 6 0 0 1 6 6v53.4a6 6 0 0 1-6 6H650.7a6 6 0 0 1-6-6z" stroke="#000" stroke-width="1.5" fill="#f72585"/><g><use xlink:href="#o" transform="matrix(1,0,0,1,656.7049755230595,1438.311223483899) translate(3.22374131944445 28.491319444444443)"/><use xlink:href="#p" transform="matrix(1,0,0,1,656.7049755230595,1438.311223483899) translate(73.21072048611111 28.491319444444443)"/></g><path d="M716.7 1424.8v-6.03h-.02v-6.06" stroke="#3a414a" stroke-width="1.5" fill="none"/><path d="M717.42 1425.56h-1.45v-.77h1.45zM717.4 1412.73h-1.46v-.77h1.45z" stroke="#3a414a" stroke-width=".05" fill="#3a414a"/><path d="M603.66 736.72a6 6 0 0 1 6-6h47.45a6 6 0 0 1 6 6v17.08a6 6 0 0 1-6 6h-47.44a6 6 0 0 1-6-6z" fill="none"/><g><use xlink:href="#w" transform="matrix(1,0,0,1,603.659939172151,730.7185655092009) translate(12.29709201388889 23.08376736111111)"/></g><defs><path d="M992-673H361v516h733V0H169v-1456h915v158H361v468h631v157" id="x"/><path d="M631-137c179 0 314-70 314-231 0-71-25-127-75-166s-141-77-272-115c-165-47-285-106-360-175s-112-154-112-255c0-245 231-397 495-397 206 0 369 89 449 218 43 68 65 142 65 223H942c0-184-129-283-321-283-172 0-299 76-301 236 0 59 26 109 76 150s135 78 256 113c205 59 345 116 436 256 35 53 50 119 50 193-2 256-231 398-507 390C333 12 90-129 80-422h193c0 187 160 285 358 285" id="y"/><path d="M644-898l349-558h226L759-734 1230 0h-228L644-568 284 0H57l472-734-461-722h225" id="z"/><path d="M341 0H156v-1082h185V0zm-91-1264c-68 0-108-42-109-105 0-62 41-107 109-107s110 44 110 107-42 105-110 105" id="A"/><g id="a"><use transform="matrix(0.010850694444444444,0,0,0.010850694444444444,0,0)" xlink:href="#x"/><use transform="matrix(0.010850694444444444,0,0,0.010850694444444444,12.630208333333332,0)" xlink:href="#y"/><use transform="matrix(0.010850694444444444,0,0,0.010850694444444444,25.813802083333332,0)" xlink:href="#z"/><use transform="matrix(0.010850694444444444,0,0,0.010850694444444444,39.74609375,0)" xlink:href="#A"/></g><path d="M1288 0h-193v-673H361V0H169v-1456h192v626h734v-626h193V0" id="B"/><path d="M584 20C278 26 81-227 91-551c10-320 175-545 491-551 308-5 503 247 494 573-9 322-175 543-492 549zm-2-970c-208 0-305 185-305 421 0 216 106 398 307 398 211 0 307-186 307-420 0-214-109-399-309-399" id="C"/><path d="M538-131c121 0 232-49 232-156 0-50-20-88-56-117-73-60-334-92-420-143-92-55-162-110-162-238 0-190 192-317 400-317 223 0 414 129 413 338H759c0-108-110-186-227-186-119 0-215 53-215 159 0 45 18 78 53 101 76 52 331 90 416 139 98 57 169 115 169 251C955-92 760 20 538 20c-176 0-314-68-386-174-38-55-57-115-57-179h185c6 129 116 202 258 202" id="D"/><path d="M456 20C285 20 205-92 206-268v-671H9v-143h197v-262h185v262h202v143H391v671c-9 125 92 149 207 118V0c-49 13-96 20-142 20" id="E"/><g id="b"><use transform="matrix(0.010850694444444444,0,0,0.010850694444444444,0,0)" xlink:href="#B"/><use transform="matrix(0.010850694444444444,0,0,0.010850694444444444,15.842013888888888,0)" xlink:href="#C"/><use transform="matrix(0.010850694444444444,0,0,0.010850694444444444,28.515625,0)" xlink:href="#D"/><use transform="matrix(0.010850694444444444,0,0,0.010850694444444444,39.97395833333333,0)" xlink:href="#E"/></g><path d="M497-251l268-831h189L566 0H425L33-1082h189" id="F"/><path d="M632-1102c291 0 422 251 422 573 0 297-141 548-419 549-131 0-235-42-310-125v521H140v-1498h169l9 120c75-93 180-140 314-140zm-53 971c207 0 290-180 290-419 0-218-92-395-292-395-112 0-196 50-252 149v517c55 99 140 148 254 148" id="G"/><path d="M589-945c-131 0-219 81-264 174V0H140v-1536h185v585c82-101 189-151 320-151 229 0 346 129 346 387V0H806v-716c-2-153-65-229-217-229" id="H"/><path d="M599-131c141 0 220-65 285-146l113 88C906-50 770 20 589 20 281 21 93-214 93-545c0-223 93-397 233-485 74-48 154-72 240-72 300 2 449 218 445 537v77H278c0 197 129 357 321 357zm227-509c-3-180-88-310-260-310-170 0-264 140-282 310h542" id="I"/><path d="M663-916c-163-27-288 18-338 148V0H140v-1082h180l3 125c61-97 147-145 258-145 36 0 63 5 82 14v172" id="J"/><g id="c"><use transform="matrix(0.010850694444444444,0,0,0.010850694444444444,0,0)" xlink:href="#F"/><use transform="matrix(0.010850694444444444,0,0,0.010850694444444444,10.76388888888889,0)" xlink:href="#y"/><use transform="matrix(0.010850694444444444,0,0,0.010850694444444444,23.94748263888889,0)" xlink:href="#G"/><use transform="matrix(0.010850694444444444,0,0,0.010850694444444444,36.41493055555556,0)" xlink:href="#H"/><use transform="matrix(0.010850694444444444,0,0,0.010850694444444444,48.654513888888886,0)" xlink:href="#I"/><use transform="matrix(0.010850694444444444,0,0,0.010850694444444444,60.42751736111111,0)" xlink:href="#J"/><use transform="matrix(0.010850694444444444,0,0,0.010850694444444444,67.74088541666666,0)" xlink:href="#I"/></g><path d="M688-137c238 0 323-102 359-325h193c-32 297-228 482-552 482-361 0-569-299-569-680 0-197 8-360 73-497 88-186 257-317 513-319 316-2 509 195 535 488h-193c-31-212-118-330-342-330-272 0-397 224-393 523v141c-3 282 115 517 376 517" id="K"/><path d="M341 0H156v-1536h185V0" id="L"/><path d="M491 20c-241-1-355-148-355-398v-704h185v699c0 164 67 246 200 246 141 0 235-53 282-158v-787h185V0H812l-4-107C736-22 630 20 491 20" id="M"/><g id="d"><use transform="matrix(0.010850694444444444,0,0,0.010850694444444444,0,0)" xlink:href="#K"/><use transform="matrix(0.010850694444444444,0,0,0.010850694444444444,14.463975694444445,0)" xlink:href="#L"/><use transform="matrix(0.010850694444444444,0,0,0.010850694444444444,19.856770833333332,0)" xlink:href="#M"/><use transform="matrix(0.010850694444444444,0,0,0.010850694444444444,32.10720486111111,0)" xlink:href="#D"/><use transform="matrix(0.010850694444444444,0,0,0.010850694444444444,43.56553819444444,0)" xlink:href="#E"/><use transform="matrix(0.010850694444444444,0,0,0.010850694444444444,50.82465277777778,0)" xlink:href="#I"/><use transform="matrix(0.010850694444444444,0,0,0.010850694444444444,62.59765625,0)" xlink:href="#J"/></g><path fill="#282c33" d="M973-380H363L226 0H28l556-1456h168L1309 0h-197zM421-538h495l-248-681" id="N"/><path fill="#282c33" d="M538-131c121 0 232-49 232-156 0-50-20-88-56-117-73-60-334-92-420-143-92-55-162-110-162-238 0-190 192-317 400-317 223 0 414 129 413 338H759c0-108-110-186-227-186-119 0-215 53-215 159 0 45 18 78 53 101 76 52 331 90 416 139 98 57 169 115 169 251C955-92 760 20 538 20c-176 0-314-68-386-174-38-55-57-115-57-179h185c6 129 116 202 258 202" id="O"/><path fill="#282c33" d="M341 0H156v-1082h185V0zm-91-1264c-68 0-108-42-109-105 0-62 41-107 109-107s110 44 110 107-42 105-110 105" id="P"/><path fill="#282c33" d="M521 20C240 20 96-239 96-550c0-303 147-552 427-552 132 0 235 47 309 140l9-120h169V-26c4 277-183 454-459 452-165-1-334-81-400-187l96-111c79 98 176 147 291 147 180 1 288-109 286-290v-93C750-23 649 20 521 20zm48-965c-209 0-287 178-287 416 0 217 86 392 285 392 117 0 202-53 257-159v-494c-57-103-142-155-255-155" id="Q"/><path fill="#282c33" d="M589-945c-131 0-219 81-264 174V0H140v-1082h175l6 136c83-104 191-156 324-156 229 0 346 129 346 387V0H806v-716c-2-153-65-229-217-229" id="R"/><path fill="#282c33" d="M561-1102c238-4 403 126 403 351v498c0 99 13 178 38 237V0H808c-11-21-19-59-26-114C696-25 593 20 474 20c-199 0-368-130-365-320 4-251 214-359 490-356h180v-85c-1-135-86-212-229-212-115 0-232 67-233 171H131c20-205 206-316 430-320zM294-326c0 117 90 185 207 185 122 0 239-75 278-162v-222H634c-227 0-340 66-340 199" id="S"/><path fill="#282c33" d="M634-1102c292 0 422 254 422 573 0 298-143 547-420 549-137 0-242-48-317-145L310 0H140v-1536h185v573c75-93 178-139 309-139zm-44 965c207 0 281-175 281-413 0-224-79-395-283-395-122 0-210 57-263 170v468c57 113 145 170 265 170" id="T"/><path fill="#282c33" d="M341 0H156v-1536h185V0" id="U"/><path fill="#282c33" d="M599-131c141 0 220-65 285-146l113 88C906-50 770 20 589 20 281 21 93-214 93-545c0-223 93-397 233-485 74-48 154-72 240-72 300 2 449 218 445 537v77H278c0 197 129 357 321 357zm227-509c-3-180-88-310-260-310-170 0-264 140-282 310h542" id="V"/><g id="e"><use transform="matrix(0.010850694444444444,0,0,0.010850694444444444,0,0)" xlink:href="#N"/><use transform="matrix(0.010850694444444444,0,0,0.010850694444444444,14.496527777777777,0)" xlink:href="#O"/><use transform="matrix(0.010850694444444444,0,0,0.010850694444444444,25.954861111111104,0)" xlink:href="#O"/><use transform="matrix(0.010850694444444444,0,0,0.010850694444444444,37.41319444444444,0)" xlink:href="#P"/><use transform="matrix(0.010850694444444444,0,0,0.010850694444444444,42.80598958333333,0)" xlink:href="#Q"/><use transform="matrix(0.010850694444444444,0,0,0.010850694444444444,55.273437499999986,0)" xlink:href="#R"/><use transform="matrix(0.010850694444444444,0,0,0.010850694444444444,67.53472222222221,0)" xlink:href="#S"/><use transform="matrix(0.010850694444444444,0,0,0.010850694444444444,79.62239583333333,0)" xlink:href="#T"/><use transform="matrix(0.010850694444444444,0,0,0.010850694444444444,92.08984375,0)" xlink:href="#U"/><use transform="matrix(0.010850694444444444,0,0,0.010850694444444444,97.48263888888889,0)" xlink:href="#V"/></g><path fill="#282c33" d="M1288 0h-193v-673H361V0H169v-1456h192v626h734v-626h193V0" id="W"/><path fill="#282c33" d="M663-916c-163-27-288 18-338 148V0H140v-1082h180l3 125c61-97 147-145 258-145 36 0 63 5 82 14v172" id="X"/><path fill="#282c33" d="M520 20C244 20 95-247 95-550c0-298 151-550 427-552 127 0 227 43 301 130v-564h185V0H838l-9-116C755-25 652 20 520 20zm48-965c-210 0-288 177-288 416 0 218 87 392 286 392 117 0 203-53 257-158v-497c-55-102-140-153-255-153" id="Y"/><path fill="#282c33" d="M1098-255l208-827h185L1176 0h-150L763-820 507 0H357L43-1082h184l213 810 252-810h149" id="Z"/><g id="f"><use transform="matrix(0.010850694444444444,0,0,0.010850694444444444,0,0)" xlink:href="#W"/><use transform="matrix(0.010850694444444444,0,0,0.010850694444444444,15.842013888888888,0)" xlink:href="#S"/><use transform="matrix(0.010850694444444444,0,0,0.010850694444444444,27.9296875,0)" xlink:href="#X"/><use transform="matrix(0.010850694444444444,0,0,0.010850694444444444,35.24305555555556,0)" xlink:href="#Y"/><use transform="matrix(0.010850694444444444,0,0,0.010850694444444444,47.775607638888886,0)" xlink:href="#Z"/><use transform="matrix(0.010850694444444444,0,0,0.010850694444444444,64.47482638888889,0)" xlink:href="#S"/><use transform="matrix(0.010850694444444444,0,0,0.010850694444444444,76.5625,0)" xlink:href="#X"/><use transform="matrix(0.010850694444444444,0,0,0.010850694444444444,83.87586805555556,0)" xlink:href="#V"/></g><path d="M973-380H363L226 0H28l556-1456h168L1309 0h-197zM421-538h495l-248-681" id="aa"/><path d="M832-402c-1-179-119-264-303-265H390v-151h139c164 0 281-91 281-250 0-171-85-256-255-256-154 0-265 99-263 250H107c-4-235 205-402 448-402 266 0 444 150 440 412-2 148-109 272-229 317 147 45 249 158 251 341 3 262-197 426-461 426C299 20 91-135 94-384h186c-2 156 116 253 276 253 176 0 277-96 276-271" id="ab"/><path d="M574-1476c351 0 454 237 460 615v240c0 217-37 378-111 483S733 20 576 20c-346 0-454-246-461-616v-247c0-214 37-373 111-477s190-156 348-156zm275 905c0-337 59-752-275-753-95 0-160 38-207 107-80 118-66 409-67 625 0 157 22 273 68 348s115 113 208 113c91 0 160-35 204-106s69-182 69-334" id="ac"/><g id="g"><use transform="matrix(0.010850694444444444,0,0,0.010850694444444444,0,0)" xlink:href="#aa"/><use transform="matrix(0.010850694444444444,0,0,0.010850694444444444,14.496527777777777,0)" xlink:href="#ab"/><use transform="matrix(0.010850694444444444,0,0,0.010850694444444444,26.97482638888889,0)" xlink:href="#ac"/></g><path d="M730-137c145 0 253-29 323-105v-327H716v-156h528v534C1148-51 964 20 729 20c-394 0-598-279-607-678v-127c-5-410 194-690 585-691 310-1 499 171 537 447h-192c-36-193-151-289-344-289-285 0-393 220-393 528v119c-5 296 140 534 415 534" id="ad"/><path d="M1216-1011c-1 297-202 441-512 441H361V0H169v-1456h537c297-6 510 164 510 445zm-192 2c1-178-126-288-307-289H361v571h345c196 1 318-92 318-282" id="ae"/><path d="M665-137c214 0 337-121 336-332v-987h193v990c-3 300-218 486-529 486-309 0-526-181-525-484v-992h190v986c-1 210 123 333 335 333" id="af"/><g id="h"><use transform="matrix(0.010850694444444444,0,0,0.010850694444444444,0,0)" xlink:href="#ad"/><use transform="matrix(0.010850694444444444,0,0,0.010850694444444444,15.13671875,0)" xlink:href="#ae"/><use transform="matrix(0.010850694444444444,0,0,0.010850694444444444,29.15581597222222,0)" xlink:href="#af"/></g><path d="M375 0H183v-1456h192V0" id="ag"/><path d="M589-945c-131 0-219 81-264 174V0H140v-1082h175l6 136c83-104 191-156 324-156 229 0 346 129 346 387V0H806v-716c-2-153-65-229-217-229" id="ah"/><path d="M704-1390c-164-38-297 28-288 194v114h231v143H416V0H231v-939H60v-143h171v-111c-12-274 208-416 483-347" id="ai"/><path d="M277-555c0 244 77 420 297 424 127 2 249-93 255-210h175C980-127 805 20 574 20 258 20 81-222 92-562c11-319 164-533 481-540 237-5 426 165 431 392H829c-7-133-115-242-256-240-209 4-296 166-296 395" id="aj"/><g id="i"><use transform="matrix(0.010850694444444444,0,0,0.010850694444444444,0,0)" xlink:href="#ag"/><use transform="matrix(0.010850694444444444,0,0,0.010850694444444444,6.043836805555555,0)" xlink:href="#ah"/><use transform="matrix(0.010850694444444444,0,0,0.010850694444444444,18.30512152777778,0)" xlink:href="#ai"/><use transform="matrix(0.010850694444444444,0,0,0.010850694444444444,25.75954861111111,0)" xlink:href="#I"/><use transform="matrix(0.010850694444444444,0,0,0.010850694444444444,37.53255208333333,0)" xlink:href="#J"/><use transform="matrix(0.010850694444444444,0,0,0.010850694444444444,44.845920138888886,0)" xlink:href="#I"/><use transform="matrix(0.010850694444444444,0,0,0.010850694444444444,56.61892361111111,0)" xlink:href="#ah"/><use transform="matrix(0.010850694444444444,0,0,0.010850694444444444,68.88020833333333,0)" xlink:href="#aj"/><use transform="matrix(0.010850694444444444,0,0,0.010850694444444444,80.51215277777777,0)" xlink:href="#I"/></g><path d="M729 0H543v-1233l-373 137v-168l530-199h29V0" id="ak"/><g id="j"><use transform="matrix(0.010850694444444444,0,0,0.010850694444444444,0,0)" xlink:href="#aa"/><use transform="matrix(0.010850694444444444,0,0,0.010850694444444444,14.496527777777777,0)" xlink:href="#ak"/><use transform="matrix(0.010850694444444444,0,0,0.010850694444444444,26.97482638888889,0)" xlink:href="#ac"/><use transform="matrix(0.010850694444444444,0,0,0.010850694444444444,39.453125,0)" xlink:href="#ac"/></g><path d="M1175-1298H707V0H516v-1298H49v-158h1126v158" id="al"/><path d="M561-1102c238-4 403 126 403 351v498c0 99 13 178 38 237V0H808c-11-21-19-59-26-114C696-25 593 20 474 20c-199 0-368-130-365-320 4-251 214-359 490-356h180v-85c-1-135-86-212-229-212-115 0-232 67-233 171H131c20-205 206-316 430-320zM294-326c0 117 90 185 207 185 122 0 239-75 278-162v-222H634c-227 0-340 66-340 199" id="am"/><path d="M521 20C240 20 96-239 96-550c0-303 147-552 427-552 132 0 235 47 309 140l9-120h169V-26c4 277-183 454-459 452-165-1-334-81-400-187l96-111c79 98 176 147 291 147 180 1 288-109 286-290v-93C750-23 649 20 521 20zm48-965c-209 0-287 178-287 416 0 217 86 392 285 392 117 0 202-53 257-159v-494c-57-103-142-155-255-155" id="an"/><g id="k"><use transform="matrix(0.010850694444444444,0,0,0.010850694444444444,0,0)" xlink:href="#al"/><use transform="matrix(0.010850694444444444,0,0,0.010850694444444444,12.445746527777777,0)" xlink:href="#J"/><use transform="matrix(0.010850694444444444,0,0,0.010850694444444444,19.53125,0)" xlink:href="#am"/><use transform="matrix(0.010850694444444444,0,0,0.010850694444444444,31.61892361111111,0)" xlink:href="#A"/><use transform="matrix(0.010850694444444444,0,0,0.010850694444444444,37.01171875,0)" xlink:href="#ah"/><use transform="matrix(0.010850694444444444,0,0,0.010850694444444444,49.27300347222222,0)" xlink:href="#A"/><use transform="matrix(0.010850694444444444,0,0,0.010850694444444444,54.66579861111111,0)" xlink:href="#ah"/><use transform="matrix(0.010850694444444444,0,0,0.010850694444444444,66.92708333333333,0)" xlink:href="#an"/></g><path fill="#fff" d="M973-380H363L226 0H28l556-1456h168L1309 0h-197zM421-538h495l-248-681" id="ao"/><path fill="#fff" d="M729 0H543v-1233l-373 137v-168l530-199h29V0" id="ap"/><path fill="#fff" d="M574-1476c351 0 454 237 460 615v240c0 217-37 378-111 483S733 20 576 20c-346 0-454-246-461-616v-247c0-214 37-373 111-477s190-156 348-156zm275 905c0-337 59-752-275-753-95 0-160 38-207 107-80 118-66 409-67 625 0 157 22 273 68 348s115 113 208 113c91 0 160-35 204-106s69-182 69-334" id="aq"/><g id="l"><use transform="matrix(0.010850694444444444,0,0,0.010850694444444444,0,0)" xlink:href="#ao"/><use transform="matrix(0.010850694444444444,0,0,0.010850694444444444,14.496527777777777,0)" xlink:href="#ap"/><use transform="matrix(0.010850694444444444,0,0,0.010850694444444444,26.97482638888889,0)" xlink:href="#aq"/><use transform="matrix(0.010850694444444444,0,0,0.010850694444444444,39.453125,0)" xlink:href="#aq"/></g><path fill="#fff" d="M730-137c145 0 253-29 323-105v-327H716v-156h528v534C1148-51 964 20 729 20c-394 0-598-279-607-678v-127c-5-410 194-690 585-691 310-1 499 171 537 447h-192c-36-193-151-289-344-289-285 0-393 220-393 528v119c-5 296 140 534 415 534" id="ar"/><path fill="#fff" d="M1216-1011c-1 297-202 441-512 441H361V0H169v-1456h537c297-6 510 164 510 445zm-192 2c1-178-126-288-307-289H361v571h345c196 1 318-92 318-282" id="as"/><path fill="#fff" d="M665-137c214 0 337-121 336-332v-987h193v990c-3 300-218 486-529 486-309 0-526-181-525-484v-992h190v986c-1 210 123 333 335 333" id="at"/><g id="m"><use transform="matrix(0.010850694444444444,0,0,0.010850694444444444,0,0)" xlink:href="#ar"/><use transform="matrix(0.010850694444444444,0,0,0.010850694444444444,15.13671875,0)" xlink:href="#as"/><use transform="matrix(0.010850694444444444,0,0,0.010850694444444444,29.15581597222222,0)" xlink:href="#at"/></g><path fill="#fff" d="M1175-1298H707V0H516v-1298H49v-158h1126v158" id="au"/><path fill="#fff" d="M663-916c-163-27-288 18-338 148V0H140v-1082h180l3 125c61-97 147-145 258-145 36 0 63 5 82 14v172" id="av"/><path fill="#fff" d="M561-1102c238-4 403 126 403 351v498c0 99 13 178 38 237V0H808c-11-21-19-59-26-114C696-25 593 20 474 20c-199 0-368-130-365-320 4-251 214-359 490-356h180v-85c-1-135-86-212-229-212-115 0-232 67-233 171H131c20-205 206-316 430-320zM294-326c0 117 90 185 207 185 122 0 239-75 278-162v-222H634c-227 0-340 66-340 199" id="aw"/><path fill="#fff" d="M341 0H156v-1082h185V0zm-91-1264c-68 0-108-42-109-105 0-62 41-107 109-107s110 44 110 107-42 105-110 105" id="ax"/><path fill="#fff" d="M589-945c-131 0-219 81-264 174V0H140v-1082h175l6 136c83-104 191-156 324-156 229 0 346 129 346 387V0H806v-716c-2-153-65-229-217-229" id="ay"/><path fill="#fff" d="M521 20C240 20 96-239 96-550c0-303 147-552 427-552 132 0 235 47 309 140l9-120h169V-26c4 277-183 454-459 452-165-1-334-81-400-187l96-111c79 98 176 147 291 147 180 1 288-109 286-290v-93C750-23 649 20 521 20zm48-965c-209 0-287 178-287 416 0 217 86 392 285 392 117 0 202-53 257-159v-494c-57-103-142-155-255-155" id="az"/><g id="n"><use transform="matrix(0.010850694444444444,0,0,0.010850694444444444,0,0)" xlink:href="#au"/><use transform="matrix(0.010850694444444444,0,0,0.010850694444444444,12.445746527777777,0)" xlink:href="#av"/><use transform="matrix(0.010850694444444444,0,0,0.010850694444444444,19.53125,0)" xlink:href="#aw"/><use transform="matrix(0.010850694444444444,0,0,0.010850694444444444,31.61892361111111,0)" xlink:href="#ax"/><use transform="matrix(0.010850694444444444,0,0,0.010850694444444444,37.01171875,0)" xlink:href="#ay"/><use transform="matrix(0.010850694444444444,0,0,0.010850694444444444,49.27300347222222,0)" xlink:href="#ax"/><use transform="matrix(0.010850694444444444,0,0,0.010850694444444444,54.66579861111111,0)" xlink:href="#ay"/><use transform="matrix(0.010850694444444444,0,0,0.010850694444444444,66.92708333333333,0)" xlink:href="#az"/></g><path fill="#fff" d="M1222-777c17 480-206 763-650 777H169v-1456h411c408 9 627 269 642 679zm-190 4c3-312-149-522-447-525H361v1141h202c308 0 473-209 469-531v-85" id="aA"/><path fill="#fff" d="M375 0H183v-1456h192V0" id="aB"/><path fill="#fff" d="M703-1476c426 0 599 333 586 795-11 408-187 701-584 701-422 0-587-333-587-793 0-282 106-507 280-617 89-56 190-86 305-86zm2 1333c312 0 393-279 393-632 0-308-116-536-395-536-269 0-394 232-394 523v107c-4 298 123 538 396 538" id="aC"/><g id="o"><use transform="matrix(0.010850694444444444,0,0,0.010850694444444444,0,0)" xlink:href="#aA"/><use transform="matrix(0.010850694444444444,0,0,0.010850694444444444,14.572482638888888,0)" xlink:href="#aA"/><use transform="matrix(0.010850694444444444,0,0,0.010850694444444444,29.144965277777775,0)" xlink:href="#as"/><use transform="matrix(0.010850694444444444,0,0,0.010850694444444444,43.1640625,0)" xlink:href="#aB"/><use transform="matrix(0.010850694444444444,0,0,0.010850694444444444,49.20789930555556,0)" xlink:href="#aC"/></g><g id="p"><use transform="matrix(0.010850694444444444,0,0,0.010850694444444444,0,0)" xlink:href="#ar"/><use transform="matrix(0.010850694444444444,0,0,0.010850694444444444,15.13671875,0)" xlink:href="#as"/><use transform="matrix(0.010850694444444444,0,0,0.010850694444444444,29.15581597222222,0)" xlink:href="#at"/></g><path d="M651-255l416-1201h210L737 0H567L28-1456h209" id="aD"/><path d="M417-1456L893-268l476-1188h249V0h-192c-4-403 4-794 18-1179L966 0H819L342-1176c15 384 23 773 19 1176H169v-1456h248" id="aE"/><g id="q"><use transform="matrix(0.010850694444444444,0,0,0.010850694444444444,0,0)" xlink:href="#aD"/><use transform="matrix(0.010850694444444444,0,0,0.010850694444444444,14.13845486111111,0)" xlink:href="#aE"/><use transform="matrix(0.010850694444444444,0,0,0.010850694444444444,33.72395833333333,0)" xlink:href="#z"/></g><path fill="#fff" d="M1141-549c0 329-147 569-455 569-159 0-273-61-344-161h-12c23 199 7 418 12 633H176v-1588h135l23 150h8c77-108 175-170 344-170 311 0 455 237 455 567zm-172-2c0-242-88-424-307-424-256 0-323 154-320 426 3 280 68 430 324 430 213 0 303-196 303-432" id="aF"/><path fill="#fff" d="M287-543c-1 247 91 418 323 418 91 0 185-20 281-59v147C818 1 725 20 614 20c-329 0-499-221-499-561 0-349 172-575 510-575 96 0 221 26 282 57l-51 141c-61-25-157-50-235-51-223 0-334 142-334 426" id="aG"/><path fill="#fff" d="M342 0H176v-1096h166V0zm-82-1282c-61 0-98-43-98-111 0-69 36-110 98-110 59 0 98 43 98 110s-39 111-98 111" id="aH"/><path fill="#fff" d="M1128-1036c0 321-241 464-585 461H371V0H201v-1462h379c365 0 548 142 548 426zm-176 8c0-218-150-286-391-287H371v594h153c270-3 428-62 428-307" id="aI"/><path fill="#fff" d="M588-1114c260 0 384 106 385 366V0H850l-33-156h-8C708-34 639 17 442 20 231 23 94-94 94-303c0-221 177-337 531-348l186-6c11-203-40-320-233-320-91 0-195 28-310 84l-51-127c97-53 229-94 371-94zM268-301c-1 123 81 184 207 184 203 0 334-120 332-323v-99c-257 14-539-7-539 238" id="aJ"/><path fill="#fff" d="M502-977c-130 0-238 32-238 139 0 75 39 101 95 134 33 19 97 46 192 81 130 48 217 95 263 143s69 108 69 181C883-73 695 20 449 20 304 20 190-3 109-49v-154c91 47 216 86 344 86 149 0 270-36 270-168 0-43-21-76-55-109-56-55-367-158-434-208-74-55-128-109-128-225 0-327 490-342 754-217l-59 135c-110-45-210-68-299-68" id="aK"/><path fill="#fff" d="M354-322c-2 123 60 204 176 205 51 1 114-10 150-20v127C647 7 557 20 506 20 294 20 188-92 188-315v-652H31v-80l157-69 70-234h96v254h318v129H354v645" id="aL"/><path fill="#fff" d="M690-1114c271 2 402 123 402 399V0H926v-709c-1-177-76-266-252-266-251 0-332 135-332 402V0H176v-1556h166c-4 200 8 426-8 612h10c61-100 187-171 346-170" id="aM"/><path fill="#fff" d="M340-893c80-153 237-262 467-211l-23 154c-45-10-85-15-120-15-184-3-322 182-322 377V0H176v-1096h137l19 203h8" id="aN"/><path fill="#fff" d="M563 20c-271 0-399-123-399-399v-717h168v711c1 177 76 266 252 266 250 0 331-135 331-401v-576h166V0H944l-24-147h-9C848-44 724 20 563 20" id="aO"/><path fill="#fff" d="M1069-733c0 253-39 441-119 566S748 20 584 20c-157 0-277-64-359-192S102-486 102-733c0-255 40-444 119-567s200-185 363-185c159 0 280 64 362 193s123 315 123 559zm-724-463c-95 160-94 768 0 928 55 94 130 145 239 145 111 0 185-52 240-147 94-164 94-761 0-924-55-95-129-147-240-147-109 0-184 52-239 145" id="aP"/><path fill="#fff" d="M270 29c-76 0-118-48-118-135 0-84 38-135 118-136 81 0 123 51 123 136 0 82-44 135-123 135" id="aQ"/><path fill="#fff" d="M342 0H176v-1556h166V0" id="aR"/><path fill="#fff" d="M621-1116c316 0 501 239 501 567 0 339-180 575-508 569S119-212 115-549c-4-339 178-567 506-567zm-5 141c-239 0-329 168-329 426 0 255 93 430 331 430s332-174 332-430-95-426-334-426" id="aS"/><path fill="#fff" d="M1169-178c39-215 75-309 230-918h172L1268 0h-197c-99-332-184-548-272-911h-8C712-564 610-319 514 0H322L23-1096h174c71 275 124 485 161 629s59 241 64 291h8c76-328 186-611 279-920h180l196 629c37 115 63 211 76 289h8" id="aT"/><path fill="#fff" d="M995-51C878-2 799 19 639 20c-329 2-524-221-524-559 0-326 172-577 481-577 278 0 451 210 446 493v105H287c4 242 121 392 358 393 118 0 235-25 350-74v148zM864-653c2-195-85-324-270-324-190 0-288 139-303 324h573" id="aU"/><path fill="#fff" d="M115-545c0-330 146-571 454-571 149 0 263 54 342 162h13c-20-185-8-401-11-602h166V0H944l-22-147h-9C836-36 722 20 569 20c-309 0-454-234-454-565zm172 2c0 249 78 424 303 424 257 0 327-150 323-426-4-282-68-432-325-432-220 0-301 191-301 434" id="aV"/><path fill="#fff" d="M649-1462c450-4 719 268 719 717 0 484-276 748-762 745H201v-1462h448zM578-147c400 1 610-197 610-592 1-379-192-576-570-576H371v1168h207" id="aW"/><path fill="#fff" d="M516-150c94-315 146-423 332-946h178L610 0H416L0-1096h178c98 281 253 670 330 946h8" id="aX"/><g id="r"><use transform="matrix(0.009548632812500001,0,0,0.009548632812500001,0,0)" xlink:href="#aF"/><use transform="matrix(0.009548632812500001,0,0,0.009548632812500001,11.983534179687501,0)" xlink:href="#aG"/><use transform="matrix(0.009548632812500001,0,0,0.009548632812500001,21.293451171875002,0)" xlink:href="#aH"/><use transform="matrix(0.009548632812500001,0,0,0.009548632812500001,26.23964296875,0)" xlink:href="#aI"/><use transform="matrix(0.009548632812500001,0,0,0.009548632812500001,38.013107226562504,0)" xlink:href="#aJ"/><use transform="matrix(0.009548632812500001,0,0,0.009548632812500001,48.889,0)" xlink:href="#aK"/><use transform="matrix(0.009548632812500001,0,0,0.009548632812500001,58.218014257812506,0)" xlink:href="#aK"/><use transform="matrix(0.009548632812500001,0,0,0.009548632812500001,67.547028515625,0)" xlink:href="#aL"/><use transform="matrix(0.009548632812500001,0,0,0.009548632812500001,74.45069003906251,0)" xlink:href="#aM"/><use transform="matrix(0.009548632812500001,0,0,0.009548632812500001,86.45332148437501,0)" xlink:href="#aN"/><use transform="matrix(0.009548632812500001,0,0,0.009548632812500001,94.43597851562501,0)" xlink:href="#aO"/><use transform="matrix(0.009548632812500001,0,0,0.009548632812500001,106.43860996093751,0)" xlink:href="#aP"/><use transform="matrix(0.009548632812500001,0,0,0.009548632812500001,117.62005898437504,0)" xlink:href="#aQ"/><use transform="matrix(0.009548632812500001,0,0,0.009548632812500001,122.8240638671875,0)" xlink:href="#aJ"/><use transform="matrix(0.009548632812500001,0,0,0.009548632812500001,133.69995664062503,0)" xlink:href="#aR"/><use transform="matrix(0.009548632812500001,0,0,0.009548632812500001,138.64614843750005,0)" xlink:href="#aR"/><use transform="matrix(0.009548632812500001,0,0,0.009548632812500001,143.59234023437506,0)" xlink:href="#aS"/><use transform="matrix(0.009548632812500001,0,0,0.009548632812500001,155.01250507812506,0)" xlink:href="#aT"/><use transform="matrix(0.009548632812500001,0,0,0.009548632812500001,170.22347714843755,0)" xlink:href="#aU"/><use transform="matrix(0.009548632812500001,0,0,0.009548632812500001,181.19485625000004,0)" xlink:href="#aV"/><use transform="matrix(0.009548632812500001,0,0,0.009548632812500001,193.17839042968754,0)" xlink:href="#aW"/><use transform="matrix(0.009548632812500001,0,0,0.009548632812500001,207.43449921875003,0)" xlink:href="#aU"/><use transform="matrix(0.009548632812500001,0,0,0.009548632812500001,218.01438437500002,0)" xlink:href="#aX"/><use transform="matrix(0.009548632812500001,0,0,0.009548632812500001,227.81128164062503,0)" xlink:href="#aH"/><use transform="matrix(0.009548632812500001,0,0,0.009548632812500001,232.7574734375,0)" xlink:href="#aG"/><use transform="matrix(0.009548632812500001,0,0,0.009548632812500001,242.06739042968755,0)" xlink:href="#aU"/><use transform="matrix(0.009548632812500001,0,0,0.009548632812500001,253.03876953125,0)" xlink:href="#aK"/></g><path fill="#fff" d="M119-858v-137h930v137H119zm0 409v-137h930v137H119" id="aY"/><use transform="matrix(0.009548632812500001,0,0,0.009548632812500001,0,0)" xlink:href="#aY" id="s"/><path fill="#fff" d="M440-561L59-1096h189l289 420 288-420h187L631-561 1032 0H844L537-444 227 0H39" id="aZ"/><path fill="#fff" d="M715 0H553c4-427-9-874 8-1288-79 77-94 81-285 239l-88-114 387-299h140V0" id="ba"/><path fill="#fff" d="M270 29c-76 0-118-48-118-135 0-84 38-135 118-136 81 0 123 51 123 136 0 82-44 135-123 135zm0-883c-76 0-118-48-118-135 0-90 39-135 118-135 82 0 123 45 123 135 0 82-44 135-123 135" id="bb"/><path fill="#fff" d="M1174 0H981L588-643 188 0H8l486-764-453-698h188l363 579 366-579h181L686-770" id="bc"/><path fill="#fff" d="M559-1483c258 0 441 142 440 389 0 93-26 184-78 275-109 192-433 475-612 657v8h752V0H100v-143c177-182 479-462 617-641 67-87 110-168 112-303 2-158-106-258-268-254-165 4-240 52-354 139l-88-113c135-112 281-168 440-168" id="bd"/><path fill="#fff" d="M575-1430c-169 0-190 146-184 334h279v129H391V0H225v-967H29v-75l196-60c-15-299 97-465 353-465 58 0 126 12 204 35l-43 133c-64-21-119-31-164-31" id="be"/><g id="t"><use transform="matrix(0.009548632812500001,0,0,0.009548632812500001,0,0)" xlink:href="#aP"/><use transform="matrix(0.009548632812500001,0,0,0.009548632812500001,11.181449023437501,0)" xlink:href="#aZ"/><use transform="matrix(0.009548632812500001,0,0,0.009548632812500001,21.427132031250004,0)" xlink:href="#ba"/><use transform="matrix(0.009548632812500001,0,0,0.009548632812500001,32.608581054687505,0)" xlink:href="#aP"/><use transform="matrix(0.009548632812500001,0,0,0.009548632812500001,43.79003007812501,0)" xlink:href="#aV"/><use transform="matrix(0.009548632812500001,0,0,0.009548632812500001,55.7735642578125,0)" xlink:href="#aU"/><use transform="matrix(0.009548632812500001,0,0,0.009548632812500001,66.74494335937501,0)" xlink:href="#bb"/><use transform="matrix(0.009548632812500001,0,0,0.009548632812500001,71.94894824218751,0)" xlink:href="#aP"/><use transform="matrix(0.009548632812500001,0,0,0.009548632812500001,83.13039726562502,0)" xlink:href="#bc"/><use transform="matrix(0.009548632812500001,0,0,0.009548632812500001,94.41688125,0)" xlink:href="#bd"/><use transform="matrix(0.009548632812500001,0,0,0.009548632812500001,105.59833027343751,0)" xlink:href="#aP"/><use transform="matrix(0.009548632812500001,0,0,0.009548632812500001,116.779779296875,0)" xlink:href="#be"/><use transform="matrix(0.009548632812500001,0,0,0.009548632812500001,123.40653046875,0)" xlink:href="#ba"/></g><path fill="#fff" d="M1368-1116c259 2 372 131 371 401V0h-166v-713c0-168-66-262-230-262-221 0-303 131-303 363V0H874v-713c-1-169-66-262-231-262-235 0-301 142-301 400V0H176v-1096h135l27 150h8c56-99 174-170 324-170 171 0 283 62 336 186h8c60-108 189-187 354-186" id="bf"/><path fill="#fff" d="M201 0v-1462h170v1308h645V0H201" id="bg"/><path fill="#fff" d="M686 20c-159 0-273-61-344-161h-12L295 0H176v-1556h166c-2 198 6 423-8 606h8c77-109 192-164 344-164 310 0 455 234 455 565 0 329-147 569-455 569zm283-571c0-257-72-424-307-424-256 0-320 146-320 426s68 430 324 430c228 0 303-184 303-432" id="bh"/><g id="u"><use transform="matrix(0.009548632812500001,0,0,0.009548632812500001,0,0)" xlink:href="#aF"/><use transform="matrix(0.009548632812500001,0,0,0.009548632812500001,11.983534179687501,0)" xlink:href="#aG"/><use transform="matrix(0.009548632812500001,0,0,0.009548632812500001,21.293451171875002,0)" xlink:href="#aH"/><use transform="matrix(0.009548632812500001,0,0,0.009548632812500001,26.23964296875,0)" xlink:href="#aI"/><use transform="matrix(0.009548632812500001,0,0,0.009548632812500001,38.013107226562504,0)" xlink:href="#aJ"/><use transform="matrix(0.009548632812500001,0,0,0.009548632812500001,48.889,0)" xlink:href="#aK"/><use transform="matrix(0.009548632812500001,0,0,0.009548632812500001,58.218014257812506,0)" xlink:href="#aK"/><use transform="matrix(0.009548632812500001,0,0,0.009548632812500001,67.547028515625,0)" xlink:href="#aL"/><use transform="matrix(0.009548632812500001,0,0,0.009548632812500001,74.45069003906251,0)" xlink:href="#aM"/><use transform="matrix(0.009548632812500001,0,0,0.009548632812500001,86.45332148437501,0)" xlink:href="#aN"/><use transform="matrix(0.009548632812500001,0,0,0.009548632812500001,94.43597851562501,0)" xlink:href="#aO"/><use transform="matrix(0.009548632812500001,0,0,0.009548632812500001,106.43860996093751,0)" xlink:href="#aP"/><use transform="matrix(0.009548632812500001,0,0,0.009548632812500001,117.62005898437504,0)" xlink:href="#aQ"/><use transform="matrix(0.009548632812500001,0,0,0.009548632812500001,122.8240638671875,0)" xlink:href="#aG"/><use transform="matrix(0.009548632812500001,0,0,0.009548632812500001,132.13398085937501,0)" xlink:href="#aO"/><use transform="matrix(0.009548632812500001,0,0,0.009548632812500001,144.1366123046875,0)" xlink:href="#aK"/><use transform="matrix(0.009548632812500001,0,0,0.009548632812500001,153.4656265625,0)" xlink:href="#aL"/><use transform="matrix(0.009548632812500001,0,0,0.009548632812500001,160.3692880859375,0)" xlink:href="#aS"/><use transform="matrix(0.009548632812500001,0,0,0.009548632812500001,172.18094687500002,0)" xlink:href="#bf"/><use transform="matrix(0.009548632812500001,0,0,0.009548632812500001,190.37109238281252,0)" xlink:href="#bg"/><use transform="matrix(0.009548632812500001,0,0,0.009548632812500001,200.52128906250002,0)" xlink:href="#aJ"/><use transform="matrix(0.009548632812500001,0,0,0.009548632812500001,211.39718183593752,0)" xlink:href="#bh"/><use transform="matrix(0.009548632812500001,0,0,0.009548632812500001,223.380716015625,0)" xlink:href="#aU"/><use transform="matrix(0.009548632812500001,0,0,0.009548632812500001,234.35209511718747,0)" xlink:href="#aR"/></g><path fill="#fff" d="M651 0H481v-1311H18v-151h1096v151H651V0" id="bi"/><path fill="#fff" d="M694-1116c270 0 399 125 398 401V0H926v-709c-1-177-76-266-252-266-250 0-332 133-332 400V0H176v-1096h135l27 150h8c62-101 190-170 348-170" id="bj"/><path fill="#fff" d="M125-741c0-247 161-377 414-375 57 0 109 7 155 20h379v105l-203 24c37 48 72 129 72 219 0 255-227 390-504 345-71 37-106 84-106 141 0 78 66 88 164 88h194c219-1 369 87 369 293 0 121-49 213-146 277s-239 96-426 96c-250 0-448-83-448-306C39 36 147-58 283-86c-52-23-102-79-99-152 4-104 57-143 133-192-107-42-192-164-192-311zM438-25c-143-1-242 70-239 209s131 181 290 181c139 0 242-21 309-63s101-98 101-169c0-147-88-158-262-158H438zm94-970c-158 0-243 88-243 250 0 153 93 233 246 233 162 0 243-79 243-236 0-165-82-247-246-247" id="bk"/><g id="v"><use transform="matrix(0.009548632812500001,0,0,0.009548632812500001,0,0)" xlink:href="#bi"/><use transform="matrix(0.009548632812500001,0,0,0.009548632812500001,9.844640429687502,0)" xlink:href="#aN"/><use transform="matrix(0.009548632812500001,0,0,0.009548632812500001,17.435803515625,0)" xlink:href="#aJ"/><use transform="matrix(0.009548632812500001,0,0,0.009548632812500001,28.311696289062503,0)" xlink:href="#aH"/><use transform="matrix(0.009548632812500001,0,0,0.009548632812500001,33.2578880859375,0)" xlink:href="#bj"/><use transform="matrix(0.009548632812500001,0,0,0.009548632812500001,45.260519531250004,0)" xlink:href="#aH"/><use transform="matrix(0.009548632812500001,0,0,0.009548632812500001,50.206711328125,0)" xlink:href="#bj"/><use transform="matrix(0.009548632812500001,0,0,0.009548632812500001,62.209342773437506,0)" xlink:href="#bk"/></g><path d="M600 0L52-1490h200c166 485 304 806 458 1336 156-533 285-846 449-1336h202L819 0H600" id="bl"/><path d="M180 0v-1490h270l367 940c28 72 75 218 110 339 35-117 81-264 110-339l362-940h271V0h-187c2-448-5-837 7-1287-157 497-311 829-483 1287H842C666-458 514-784 354-1284c12 438 5 843 7 1284H180" id="bm"/><g id="w"><use transform="matrix(0.010850694444444444,0,0,0.010850694444444444,0,0)" xlink:href="#bl"/><use transform="matrix(0.010850694444444444,0,0,0.010850694444444444,15.33203125,0)" xlink:href="#bm"/></g></defs></g></svg>