<svg xmlns="http://www.w3.org/2000/svg" xmlns:xlink="http://www.w3.org/1999/xlink" xmlns:lucid="lucid" width="2578.37" height="563.63"><g transform="translate(-1262.4406346688374 -5330.3705569452195)" lucid:page-tab-id="0_0"><path d="M-500-1000h6000v8000H-500z" fill="#fff"/><path d="M1586.13 5337.37a6 6 0 0 1 6-6h309.4a6 6 0 0 1 6 6V5887a6 6 0 0 1-6 6h-309.4a6 6 0 0 1-6-6z" stroke="#000" stroke-opacity="0" stroke-width="2" fill="#b8f5ed"/><path d="M1263.44 5436.65a6 6 0 0 1 6-6H3833.8a6 6 0 0 1 6 6v41.33a6 6 0 0 1-6 6H1269.45a6 6 0 0 1-6-6z" stroke="#282c33" stroke-width="2" fill="#cfe4ff"/><use xlink:href="#a" transform="matrix(1,0,0,1,1275.4406347638987,5442.645985693001) translate(1245.3042534722222 22.491319444444443)"/><path d="M1263.44 5489.98a6 6 0 0 1 6-6h1276.18a6 6 0 0 1 6 6v41.33a6 6 0 0 1-6 6H1269.44a6 6 0 0 1-6-6z" stroke="#282c33" stroke-width="2" fill="#cfe4ff"/><use xlink:href="#b" transform="matrix(1,0,0,1,1275.4406347638987,5495.979319026334) translate(601.3042534722222 22.491319444444443)"/><path d="M2551.63 5489.98a6 6 0 0 1 6-6H3833.8a6 6 0 0 1 6 6v41.33a6 6 0 0 1-6 6H2557.63a6 6 0 0 1-6-6z" stroke="#282c33" stroke-width="2" fill="#cfe4ff"/><use xlink:href="#b" transform="matrix(1,0,0,1,2563.625400394646,5495.979319026334) translate(601.3042534722222 22.491319444444443)"/><path d="M1263.44 5543.3a6 6 0 0 1 6-6h632.1a6 6 0 0 1 6 6v41.35a6 6 0 0 1-6 6h-632.1a6 6 0 0 1-6-6z" stroke="#282c33" stroke-width="2" fill="#cfe4ff"/><use xlink:href="#c" transform="matrix(1,0,0,1,1275.440634763899,5549.3126523596675) translate(279.30425347222223 22.491319444444443)"/><path d="M1907.53 5543.3a6 6 0 0 1 6-6h632.1a6 6 0 0 1 6 6v41.35a6 6 0 0 1-6 6h-632.1a6 6 0 0 1-6-6z" stroke="#282c33" stroke-width="2" fill="#fc9432"/><use xlink:href="#c" transform="matrix(1,0,0,1,1919.5330175792726,5549.3126523596675) translate(279.30425347222223 22.491319444444443)"/><path d="M2551.63 5543.3a6 6 0 0 1 6-6h632.1a6 6 0 0 1 6 6v41.35a6 6 0 0 1-6 6h-632.1a6 6 0 0 1-6-6z" stroke="#282c33" stroke-width="2" fill="#cfe4ff"/><use xlink:href="#c" transform="matrix(1,0,0,1,2563.625400394646,5549.3126523596675) translate(279.30425347222223 22.491319444444443)"/><path d="M3195.72 5543.3a6 6 0 0 1 6-6h632.1a6 6 0 0 1 6 6v41.35a6 6 0 0 1-6 6h-632.1a6 6 0 0 1-6-6z" stroke="#282c33" stroke-width="2" fill="#cfe4ff"/><use xlink:href="#c" transform="matrix(1,0,0,1,3207.7177832100188,5549.3126523596675) translate(279.30425347222223 22.491319444444443)"/><path d="M1263.44 5596.65a6 6 0 0 1 6-6h503.27a6 6 0 0 1 6 6v41.33a6 6 0 0 1-6 6h-503.26a6 6 0 0 1-6-6z" stroke="#282c33" stroke-width="2" fill="#cfe4ff"/><use xlink:href="#d" transform="matrix(1,0,0,1,1275.4406347638987,5602.6459856930005) translate(214.80425347222223 22.491319444444443)"/><path d="M1778.7 5596.65a6 6 0 0 1 6-6H2288a6 6 0 0 1 6 6v41.33a6 6 0 0 1-6 6h-503.3a6 6 0 0 1-6-6z" stroke="#282c33" stroke-width="2" fill="#cfe4ff"/><use xlink:href="#d" transform="matrix(1,0,0,1,1790.7145410161975,5602.6459856930005) translate(214.80425347222223 22.491319444444443)"/><path d="M2294 5596.65a6 6 0 0 1 6-6h503.26a6 6 0 0 1 6 6v41.33a6 6 0 0 1-6 6H2300a6 6 0 0 1-6-6z" stroke="#282c33" stroke-width="2" fill="#cfe4ff"/><use xlink:href="#d" transform="matrix(1,0,0,1,2305.988447268496,5602.6459856930005) translate(214.80425347222223 22.491319444444443)"/><path d="M2809.26 5596.65a6 6 0 0 1 6-6h503.28a6 6 0 0 1 6 6v41.33a6 6 0 0 1-6 6h-503.28a6 6 0 0 1-6-6z" stroke="#282c33" stroke-width="2" fill="#cfe4ff"/><use xlink:href="#d" transform="matrix(1,0,0,1,2821.262353520796,5602.6459856930005) translate(214.80425347222223 22.491319444444443)"/><path d="M3324.54 5596.65a6 6 0 0 1 6-6h503.27a6 6 0 0 1 6 6v41.33a6 6 0 0 1-6 6h-503.26a6 6 0 0 1-6-6z" stroke="#282c33" stroke-width="2" fill="#cfe4ff"/><use xlink:href="#d" transform="matrix(1,0,0,1,3336.5362597730946,5602.6459856930005) translate(214.80425347222223 22.491319444444443)"/><path d="M1263.44 5649.98a6 6 0 0 1 6-6h310.05a6 6 0 0 1 6 6v41.33a6 6 0 0 1-6 6h-310.06a6 6 0 0 1-6-6z" stroke="#282c33" stroke-width="2" fill="#fc9432"/><use xlink:href="#e" transform="matrix(1,0,0,1,1275.4406347638997,5655.9793190263335) translate(118.30425347222223 22.491319444444443)"/><path d="M1585.5 5649.98a6 6 0 0 1 6-6h310.03a6 6 0 0 1 6 6v41.33a6 6 0 0 1-6 6H1591.5a6 6 0 0 1-6-6z" stroke="#282c33" stroke-width="2" fill="#cfe4ff"/><use xlink:href="#e" transform="matrix(1,0,0,1,1597.4868261715865,5655.9793190263335) translate(118.30425347222223 22.491319444444443)"/><path d="M1907.53 5649.98a6 6 0 0 1 6-6h310.05a6 6 0 0 1 6 6v41.33a6 6 0 0 1-6 6h-310.05a6 6 0 0 1-6-6z" stroke="#282c33" stroke-width="2" fill="#cfe4ff"/><use xlink:href="#e" transform="matrix(1,0,0,1,1919.5330175792728,5655.9793190263335) translate(118.30425347222223 22.491319444444443)"/><path d="M2229.58 5649.98a6 6 0 0 1 6-6h310.05a6 6 0 0 1 6 6v41.33a6 6 0 0 1-6 6h-310.05a6 6 0 0 1-6-6z" stroke="#282c33" stroke-width="2" fill="#cfe4ff"/><use xlink:href="#e" transform="matrix(1,0,0,1,2241.5792089869597,5655.9793190263335) translate(118.30425347222223 22.491319444444443)"/><path d="M2551.63 5649.98a6 6 0 0 1 6-6h310.04a6 6 0 0 1 6 6v41.33a6 6 0 0 1-6 6h-310.05a6 6 0 0 1-6-6z" stroke="#282c33" stroke-width="2" fill="#cfe4ff"/><use xlink:href="#e" transform="matrix(1,0,0,1,2563.6254003946465,5655.9793190263335) translate(118.30425347222223 22.491319444444443)"/><path d="M2873.67 5649.98a6 6 0 0 1 6-6h310.05a6 6 0 0 1 6 6v41.33a6 6 0 0 1-6 6h-310.05a6 6 0 0 1-6-6z" stroke="#282c33" stroke-width="2" fill="#cfe4ff"/><use xlink:href="#e" transform="matrix(1,0,0,1,2885.6715918023333,5655.9793190263335) translate(118.30425347222223 22.491319444444443)"/><path d="M3195.72 5649.98a6 6 0 0 1 6-6h310.04a6 6 0 0 1 6 6v41.33a6 6 0 0 1-6 6h-310.04a6 6 0 0 1-6-6z" stroke="#282c33" stroke-width="2" fill="#cfe4ff"/><use xlink:href="#e" transform="matrix(1,0,0,1,3207.71778321002,5655.9793190263335) translate(118.30425347222223 22.491319444444443)"/><path d="M3517.76 5649.98a6 6 0 0 1 6-6h310.05a6 6 0 0 1 6 6v41.33a6 6 0 0 1-6 6h-310.04a6 6 0 0 1-6-6z" stroke="#282c33" stroke-width="2" fill="#cfe4ff"/><use xlink:href="#e" transform="matrix(1,0,0,1,3529.763974617707,5655.9793190263335) translate(118.30425347222223 22.491319444444443)"/><path d="M1263.44 5703.3a6 6 0 0 1 6-6h245.64a6 6 0 0 1 6 6v41.35a6 6 0 0 1-6 6h-245.64a6 6 0 0 1-6-6z" stroke="#282c33" stroke-width="2" fill="#cfe4ff"/><use xlink:href="#f" transform="matrix(1,0,0,1,1275.4406347638999,5709.312652359667) translate(92.04340277777777 22.491319444444443)"/><path d="M1521.08 5703.3a6 6 0 0 1 6-6h245.63a6 6 0 0 1 6 6v41.35a6 6 0 0 1-6 6H1527.1a6 6 0 0 1-6-6z" stroke="#282c33" stroke-width="2" fill="#f72585"/><use xlink:href="#g" transform="matrix(1,0,0,1,1533.0775878900492,5709.312652359667) translate(92.04340277777777 22.491319444444443)"/><path d="M1778.7 5703.3a6 6 0 0 1 6-6h245.65a6 6 0 0 1 6 6v41.35a6 6 0 0 1-6 6h-245.63a6 6 0 0 1-6-6z" stroke="#282c33" stroke-width="2" fill="#f72585"/><use xlink:href="#g" transform="matrix(1,0,0,1,1790.7145410161986,5709.312652359667) translate(92.04340277777777 22.491319444444443)"/><path d="M2036.35 5703.3a6 6 0 0 1 6-6H2288a6 6 0 0 1 6 6v41.35a6 6 0 0 1-6 6h-245.65a6 6 0 0 1-6-6z" stroke="#282c33" stroke-width="2" fill="#cfe4ff"/><use xlink:href="#f" transform="matrix(1,0,0,1,2048.3514941423473,5709.312652359667) translate(92.04340277777777 22.491319444444443)"/><path d="M2294 5703.3a6 6 0 0 1 6-6h245.63a6 6 0 0 1 6 6v41.35a6 6 0 0 1-6 6H2300a6 6 0 0 1-6-6z" stroke="#282c33" stroke-width="2" fill="#cfe4ff"/><use xlink:href="#f" transform="matrix(1,0,0,1,2305.9884472684976,5709.312652359667) translate(92.04340277777777 22.491319444444443)"/><path d="M2551.63 5703.3a6 6 0 0 1 6-6h245.63a6 6 0 0 1 6 6v41.35a6 6 0 0 1-6 6h-245.64a6 6 0 0 1-6-6z" stroke="#282c33" stroke-width="2" fill="#00c2a8"/><use xlink:href="#f" transform="matrix(1,0,0,1,2563.6254003946465,5709.312652359667) translate(92.04340277777777 22.491319444444443)"/><path d="M2809.26 5703.3a6 6 0 0 1 6-6h245.64a6 6 0 0 1 6 6v41.35a6 6 0 0 1-6 6h-245.64a6 6 0 0 1-6-6z" stroke="#282c33" stroke-width="2" fill="#cfe4ff"/><use xlink:href="#f" transform="matrix(1,0,0,1,2821.2623535207963,5709.312652359667) translate(92.04340277777777 22.491319444444443)"/><path d="M3066.9 5703.3a6 6 0 0 1 6-6h245.64a6 6 0 0 1 6 6v41.35a6 6 0 0 1-6 6H3072.9a6 6 0 0 1-6-6z" stroke="#282c33" stroke-width="2" fill="#cfe4ff"/><use xlink:href="#f" transform="matrix(1,0,0,1,3078.899306646945,5709.312652359667) translate(92.04340277777777 22.491319444444443)"/><path d="M3324.54 5703.3a6 6 0 0 1 6-6h245.63a6 6 0 0 1 6 6v41.35a6 6 0 0 1-6 6h-245.63a6 6 0 0 1-6-6z" stroke="#282c33" stroke-width="2" fill="#cfe4ff"/><use xlink:href="#f" transform="matrix(1,0,0,1,3336.536259773095,5709.312652359667) translate(92.04340277777777 22.491319444444443)"/><path d="M3582.17 5703.3a6 6 0 0 1 6-6h245.64a6 6 0 0 1 6 6v41.35a6 6 0 0 1-6 6h-245.63a6 6 0 0 1-6-6z" stroke="#282c33" stroke-width="2" fill="#cfe4ff"/><use xlink:href="#f" transform="matrix(1,0,0,1,3594.173212899244,5709.312652359667) translate(92.04340277777777 22.491319444444443)"/><path d="M1263.44 5756.65a6 6 0 0 1 6-6h149.02a6 6 0 0 1 6 6v41.33a6 6 0 0 1-6 6h-149.02a6 6 0 0 1-6-6z" stroke="#282c33" stroke-width="2" fill="#cfe4ff"/><use xlink:href="#h" transform="matrix(1,0,0,1,1275.4406347638985,5762.645985693) translate(44.04340277777778 22.491319444444443)"/><path d="M1424.46 5756.65a6 6 0 0 1 6-6h149.03a6 6 0 0 1 6 6v41.33a6 6 0 0 1-6 6h-149.04a6 6 0 0 1-6-6z" stroke="#282c33" stroke-width="2" fill="#cfe4ff"/><use xlink:href="#h" transform="matrix(1,0,0,1,1436.4637304677417,5762.645985693) translate(44.04340277777778 22.491319444444443)"/><path d="M1585.5 5756.65a6 6 0 0 1 6-6h149a6 6 0 0 1 6 6v41.33a6 6 0 0 1-6 6h-149a6 6 0 0 1-6-6z" stroke="#282c33" stroke-width="2" fill="#cfe4ff"/><use xlink:href="#h" transform="matrix(1,0,0,1,1597.4868261715853,5762.645985693) translate(44.04340277777778 22.491319444444443)"/><path d="M1746.5 5756.65a6 6 0 0 1 6-6h149.03a6 6 0 0 1 6 6v41.33a6 6 0 0 1-6 6H1752.5a6 6 0 0 1-6-6z" stroke="#282c33" stroke-width="2" fill="#cfe4ff"/><use xlink:href="#h" transform="matrix(1,0,0,1,1758.5099218754287,5762.645985693) translate(44.04340277777778 22.491319444444443)"/><path d="M1907.53 5756.65a6 6 0 0 1 6-6h149.03a6 6 0 0 1 6 6v41.33a6 6 0 0 1-6 6h-149.03a6 6 0 0 1-6-6z" stroke="#282c33" stroke-width="2" fill="#cfe4ff"/><use xlink:href="#h" transform="matrix(1,0,0,1,1919.533017579272,5762.645985693) translate(44.04340277777778 22.491319444444443)"/><path d="M2068.56 5756.65a6 6 0 0 1 6-6h149.02a6 6 0 0 1 6 6v41.33a6 6 0 0 1-6 6h-149.02a6 6 0 0 1-6-6z" stroke="#282c33" stroke-width="2" fill="#cfe4ff"/><use xlink:href="#h" transform="matrix(1,0,0,1,2080.556113283115,5762.645985693) translate(44.04340277777778 22.491319444444443)"/><path d="M2229.58 5756.65a6 6 0 0 1 6-6h149.02a6 6 0 0 1 6 6v41.33a6 6 0 0 1-6 6h-149.02a6 6 0 0 1-6-6z" stroke="#282c33" stroke-width="2" fill="#cfe4ff"/><use xlink:href="#h" transform="matrix(1,0,0,1,2241.5792089869587,5762.645985693) translate(44.04340277777778 22.491319444444443)"/><path d="M2390.6 5756.65a6 6 0 0 1 6-6h149.03a6 6 0 0 1 6 6v41.33a6 6 0 0 1-6 6H2396.6a6 6 0 0 1-6-6z" stroke="#282c33" stroke-width="2" fill="#cfe4ff"/><use xlink:href="#h" transform="matrix(1,0,0,1,2402.6023046908026,5762.645985693) translate(44.04340277777778 22.491319444444443)"/><path d="M2551.63 5756.65a6 6 0 0 1 6-6h149.02a6 6 0 0 1 6 6v41.33a6 6 0 0 1-6 6h-149.03a6 6 0 0 1-6-6z" stroke="#282c33" stroke-width="2" fill="#cfe4ff"/><use xlink:href="#h" transform="matrix(1,0,0,1,2563.6254003946456,5762.645985693) translate(44.04340277777778 22.491319444444443)"/><path d="M2712.65 5756.65a6 6 0 0 1 6-6h149.02a6 6 0 0 1 6 6v41.33a6 6 0 0 1-6 6h-149.02a6 6 0 0 1-6-6z" stroke="#282c33" stroke-width="2" fill="#cfe4ff"/><use xlink:href="#h" transform="matrix(1,0,0,1,2724.6484960984885,5762.645985693) translate(44.04340277777778 22.491319444444443)"/><path d="M2873.67 5756.65a6 6 0 0 1 6-6h149.03a6 6 0 0 1 6 6v41.33a6 6 0 0 1-6 6h-149.03a6 6 0 0 1-6-6z" stroke="#282c33" stroke-width="2" fill="#cfe4ff"/><use xlink:href="#h" transform="matrix(1,0,0,1,2885.6715918023324,5762.645985693) translate(44.04340277777778 22.491319444444443)"/><path d="M3034.7 5756.65a6 6 0 0 1 6-6h149.02a6 6 0 0 1 6 6v41.33a6 6 0 0 1-6 6H3040.7a6 6 0 0 1-6-6z" stroke="#282c33" stroke-width="2" fill="#cfe4ff"/><use xlink:href="#h" transform="matrix(1,0,0,1,3046.6946875061753,5762.645985693) translate(44.04340277777778 22.491319444444443)"/><path d="M3195.72 5756.65a6 6 0 0 1 6-6h149.02a6 6 0 0 1 6 6v41.33a6 6 0 0 1-6 6h-149.02a6 6 0 0 1-6-6z" stroke="#282c33" stroke-width="2" fill="#cfe4ff"/><use xlink:href="#h" transform="matrix(1,0,0,1,3207.717783210019,5762.645985693) translate(44.04340277777778 22.491319444444443)"/><path d="M3356.74 5756.65a6 6 0 0 1 6-6h149.02a6 6 0 0 1 6 6v41.33a6 6 0 0 1-6 6h-149.02a6 6 0 0 1-6-6z" stroke="#282c33" stroke-width="2" fill="#cfe4ff"/><use xlink:href="#h" transform="matrix(1,0,0,1,3368.740878913862,5762.645985693) translate(44.04340277777778 22.491319444444443)"/><path d="M3517.76 5756.65a6 6 0 0 1 6-6h149.03a6 6 0 0 1 6 6v41.33a6 6 0 0 1-6 6h-149.04a6 6 0 0 1-6-6z" stroke="#282c33" stroke-width="2" fill="#cfe4ff"/><use xlink:href="#h" transform="matrix(1,0,0,1,3529.763974617706,5762.645985693) translate(44.04340277777778 22.491319444444443)"/><path d="M3678.8 5756.65a6 6 0 0 1 6-6h149a6 6 0 0 1 6 6v41.33a6 6 0 0 1-6 6h-149a6 6 0 0 1-6-6z" stroke="#282c33" stroke-width="2" fill="#cfe4ff"/><use xlink:href="#h" transform="matrix(1,0,0,1,3690.787070321549,5762.645985693) translate(44.04340277777778 22.491319444444443)"/><path d="M1263.44 5809.98a6 6 0 0 1 6-6h116.82a6 6 0 0 1 6 6v41.33a6 6 0 0 1-6 6h-116.82a6 6 0 0 1-6-6z" stroke="#282c33" stroke-width="2" fill="#cfe4ff"/><use xlink:href="#i" transform="matrix(1,0,0,1,1275.4406347639,5815.979319026333) translate(27.54340277777778 22.491319444444443)"/><path d="M1392.26 5809.98a6 6 0 0 1 6-6h116.82a6 6 0 0 1 6 6v41.33a6 6 0 0 1-6 6h-116.82a6 6 0 0 1-6-6z" stroke="#282c33" stroke-width="2" fill="#cfe4ff"/><use xlink:href="#i" transform="matrix(1,0,0,1,1404.2591113269746,5815.979319026333) translate(27.54340277777778 22.491319444444443)"/><path d="M1521.08 5809.98a6 6 0 0 1 6-6h116.82a6 6 0 0 1 6 6v41.33a6 6 0 0 1-6 6h-116.82a6 6 0 0 1-6-6z" stroke="#282c33" stroke-width="2" fill="#cfe4ff"/><use xlink:href="#i" transform="matrix(1,0,0,1,1533.0775878900488,5815.979319026333) translate(27.54340277777778 22.491319444444443)"/><path d="M1649.9 5809.98a6 6 0 0 1 6-6h116.8a6 6 0 0 1 6 6v41.33a6 6 0 0 1-6 6h-116.8a6 6 0 0 1-6-6z" stroke="#282c33" stroke-width="2" fill="#cfe4ff"/><use xlink:href="#i" transform="matrix(1,0,0,1,1661.8960644531232,5815.979319026333) translate(27.54340277777778 22.491319444444443)"/><path d="M1778.7 5809.98a6 6 0 0 1 6-6h116.83a6 6 0 0 1 6 6v41.33a6 6 0 0 1-6 6H1784.7a6 6 0 0 1-6-6z" stroke="#282c33" stroke-width="2" fill="#cfe4ff"/><use xlink:href="#i" transform="matrix(1,0,0,1,1790.714541016198,5815.979319026333) translate(27.54340277777778 22.491319444444443)"/><path d="M1907.53 5809.98a6 6 0 0 1 6-6h116.82a6 6 0 0 1 6 6v41.33a6 6 0 0 1-6 6h-116.82a6 6 0 0 1-6-6z" stroke="#282c33" stroke-width="2" fill="#cfe4ff"/><use xlink:href="#i" transform="matrix(1,0,0,1,1919.5330175792728,5815.979319026333) translate(27.54340277777778 22.491319444444443)"/><path d="M2036.35 5809.98a6 6 0 0 1 6-6h116.82a6 6 0 0 1 6 6v41.33a6 6 0 0 1-6 6h-116.82a6 6 0 0 1-6-6z" stroke="#282c33" stroke-width="2" fill="#cfe4ff"/><use xlink:href="#i" transform="matrix(1,0,0,1,2048.351494142348,5815.979319026333) translate(27.54340277777778 22.491319444444443)"/><path d="M2165.17 5809.98a6 6 0 0 1 6-6H2288a6 6 0 0 1 6 6v41.33a6 6 0 0 1-6 6h-116.83a6 6 0 0 1-6-6z" stroke="#282c33" stroke-width="2" fill="#cfe4ff"/><use xlink:href="#i" transform="matrix(1,0,0,1,2177.1699707054217,5815.979319026333) translate(27.54340277777778 22.491319444444443)"/><path d="M2294 5809.98a6 6 0 0 1 6-6h116.8a6 6 0 0 1 6 6v41.33a6 6 0 0 1-6 6H2300a6 6 0 0 1-6-6z" stroke="#282c33" stroke-width="2" fill="#cfe4ff"/><use xlink:href="#i" transform="matrix(1,0,0,1,2305.9884472684967,5815.979319026333) translate(27.54340277777778 22.491319444444443)"/><path d="M2422.8 5809.98a6 6 0 0 1 6-6h116.82a6 6 0 0 1 6 6v41.33a6 6 0 0 1-6 6h-116.8a6 6 0 0 1-6-6z" stroke="#282c33" stroke-width="2" fill="#cfe4ff"/><use xlink:href="#i" transform="matrix(1,0,0,1,2434.8069238315707,5815.979319026333) translate(27.54340277777778 22.491319444444443)"/><path d="M2551.63 5809.98a6 6 0 0 1 6-6h116.8a6 6 0 0 1 6 6v41.33a6 6 0 0 1-6 6h-116.8a6 6 0 0 1-6-6z" stroke="#282c33" stroke-width="2" fill="#cfe4ff"/><use xlink:href="#i" transform="matrix(1,0,0,1,2563.6254003946456,5815.979319026333) translate(27.54340277777778 22.491319444444443)"/><path d="M2680.44 5809.98a6 6 0 0 1 6-6h116.82a6 6 0 0 1 6 6v41.33a6 6 0 0 1-6 6h-116.82a6 6 0 0 1-6-6z" stroke="#282c33" stroke-width="2" fill="#cfe4ff"/><use xlink:href="#i" transform="matrix(1,0,0,1,2692.4438769577196,5815.979319026333) translate(27.54340277777778 22.491319444444443)"/><path d="M2809.26 5809.98a6 6 0 0 1 6-6h116.82a6 6 0 0 1 6 6v41.33a6 6 0 0 1-6 6h-116.82a6 6 0 0 1-6-6z" stroke="#282c33" stroke-width="2" fill="#cfe4ff"/><use xlink:href="#i" transform="matrix(1,0,0,1,2821.2623535207945,5815.979319026333) translate(27.54340277777778 22.491319444444443)"/><path d="M2938.08 5809.98a6 6 0 0 1 6-6h116.82a6 6 0 0 1 6 6v41.33a6 6 0 0 1-6 6h-116.82a6 6 0 0 1-6-6z" stroke="#282c33" stroke-width="2" fill="#cfe4ff"/><use xlink:href="#i" transform="matrix(1,0,0,1,2950.0808300838694,5815.979319026333) translate(27.54340277777778 22.491319444444443)"/><path d="M3066.9 5809.98a6 6 0 0 1 6-6h116.82a6 6 0 0 1 6 6v41.33a6 6 0 0 1-6 6H3072.9a6 6 0 0 1-6-6z" stroke="#282c33" stroke-width="2" fill="#cfe4ff"/><use xlink:href="#i" transform="matrix(1,0,0,1,3078.899306646944,5815.979319026333) translate(27.54340277777778 22.491319444444443)"/><path d="M3195.72 5809.98a6 6 0 0 1 6-6h116.82a6 6 0 0 1 6 6v41.33a6 6 0 0 1-6 6h-116.82a6 6 0 0 1-6-6z" stroke="#282c33" stroke-width="2" fill="#cfe4ff"/><use xlink:href="#i" transform="matrix(1,0,0,1,3207.7177832100183,5815.979319026333) translate(27.54340277777778 22.491319444444443)"/><path d="M3324.54 5809.98a6 6 0 0 1 6-6h116.82a6 6 0 0 1 6 6v41.33a6 6 0 0 1-6 6h-116.82a6 6 0 0 1-6-6z" stroke="#282c33" stroke-width="2" fill="#cfe4ff"/><use xlink:href="#i" transform="matrix(1,0,0,1,3336.5362597730923,5815.979319026333) translate(27.54340277777778 22.491319444444443)"/><path d="M3453.36 5809.98a6 6 0 0 1 6-6h116.8a6 6 0 0 1 6 6v41.33a6 6 0 0 1-6 6h-116.8a6 6 0 0 1-6-6z" stroke="#282c33" stroke-width="2" fill="#cfe4ff"/><use xlink:href="#i" transform="matrix(1,0,0,1,3465.354736336167,5815.979319026333) translate(27.54340277777778 22.491319444444443)"/><path d="M3582.17 5809.98a6 6 0 0 1 6-6H3705a6 6 0 0 1 6 6v41.33a6 6 0 0 1-6 6h-116.83a6 6 0 0 1-6-6z" stroke="#282c33" stroke-width="2" fill="#cfe4ff"/><use xlink:href="#i" transform="matrix(1,0,0,1,3594.173212899242,5815.979319026333) translate(27.54340277777778 22.491319444444443)"/><path d="M3711 5809.98a6 6 0 0 1 6-6h116.8a6 6 0 0 1 6 6v41.33a6 6 0 0 1-6 6H3717a6 6 0 0 1-6-6z" stroke="#282c33" stroke-width="2" fill="#cfe4ff"/><use xlink:href="#i" transform="matrix(1,0,0,1,3722.991689462317,5815.979319026333) translate(27.54340277777778 22.491319444444443)"/><path d="M1263.44 5383.3a6 6 0 0 1 6-6h20.2a6 6 0 0 1 6 6v41.35a6 6 0 0 1-6 6h-20.2a6 6 0 0 1-6-6z" stroke="#282c33" stroke-width="2" fill="#cfe4ff"/><use xlink:href="#j" transform="matrix(1,0,0,1,1275.4406347638949,5389.312652359668) translate(-1.7391493055555554 22.59548611111111)"/><path d="M1295.64 5383.3a6 6 0 0 1 6-6h20.2a6 6 0 0 1 6 6v41.35a6 6 0 0 1-6 6h-20.2a6 6 0 0 1-6-6z" stroke="#282c33" stroke-width="2" fill="#cfe4ff"/><use xlink:href="#k" transform="matrix(1,0,0,1,1307.6452539046636,5389.312652359668) translate(-1.7391493055555554 22.59548611111111)"/><path d="M1327.85 5383.3a6 6 0 0 1 6-6h20.2a6 6 0 0 1 6 6v41.35a6 6 0 0 1-6 6h-20.2a6 6 0 0 1-6-6z" stroke="#282c33" stroke-width="2" fill="#cfe4ff"/><use xlink:href="#l" transform="matrix(1,0,0,1,1339.849873045432,5389.312652359668) translate(-1.7391493055555554 22.59548611111111)"/><path d="M1360.05 5383.3a6 6 0 0 1 6-6h20.2a6 6 0 0 1 6 6v41.35a6 6 0 0 1-6 6h-20.2a6 6 0 0 1-6-6z" stroke="#282c33" stroke-width="2" fill="#cfe4ff"/><use xlink:href="#m" transform="matrix(1,0,0,1,1372.0544921862006,5389.312652359668) translate(-1.7391493055555554 22.59548611111111)"/><path d="M1392.26 5383.3a6 6 0 0 1 6-6h20.2a6 6 0 0 1 6 6v41.35a6 6 0 0 1-6 6h-20.2a6 6 0 0 1-6-6z" stroke="#282c33" stroke-width="2" fill="#cfe4ff"/><use xlink:href="#n" transform="matrix(1,0,0,1,1404.259111326969,5389.312652359668) translate(-1.7391493055555554 22.59548611111111)"/><path d="M1424.46 5383.3a6 6 0 0 1 6-6h20.2a6 6 0 0 1 6 6v41.35a6 6 0 0 1-6 6h-20.2a6 6 0 0 1-6-6z" stroke="#282c33" stroke-width="2" fill="#cfe4ff"/><use xlink:href="#o" transform="matrix(1,0,0,1,1436.4637304677376,5389.312652359668) translate(-1.7391493055555554 22.59548611111111)"/><path d="M1456.67 5383.3a6 6 0 0 1 6-6h20.2a6 6 0 0 1 6 6v41.35a6 6 0 0 1-6 6h-20.2a6 6 0 0 1-6-6z" stroke="#282c33" stroke-width="2" fill="#cfe4ff"/><use xlink:href="#p" transform="matrix(1,0,0,1,1468.668349608506,5389.312652359668) translate(-1.7391493055555554 22.59548611111111)"/><path d="M1488.87 5383.3a6 6 0 0 1 6-6h20.2a6 6 0 0 1 6 6v41.35a6 6 0 0 1-6 6h-20.2a6 6 0 0 1-6-6z" stroke="#282c33" stroke-width="2" fill="#cfe4ff"/><use xlink:href="#q" transform="matrix(1,0,0,1,1500.8729687492746,5389.312652359668) translate(-1.7391493055555554 22.59548611111111)"/><path d="M1521.08 5383.3a6 6 0 0 1 6-6h20.2a6 6 0 0 1 6 6v41.35a6 6 0 0 1-6 6h-20.2a6 6 0 0 1-6-6z" stroke="#282c33" stroke-width="2" fill="#cfe4ff"/><use xlink:href="#r" transform="matrix(1,0,0,1,1533.0775878900433,5389.312652359668) translate(-1.7391493055555554 22.59548611111111)"/><path d="M1553.28 5383.3a6 6 0 0 1 6-6h20.2a6 6 0 0 1 6 6v41.35a6 6 0 0 1-6 6h-20.2a6 6 0 0 1-6-6z" stroke="#282c33" stroke-width="2" fill="#cfe4ff"/><use xlink:href="#s" transform="matrix(1,0,0,1,1565.2822070308118,5389.312652359668) translate(-1.7391493055555554 22.59548611111111)"/><path d="M1585.5 5383.3a6 6 0 0 1 6-6h20.2a6 6 0 0 1 6 6v41.35a6 6 0 0 1-6 6h-20.2a6 6 0 0 1-6-6z" stroke="#282c33" stroke-width="2" fill="#cfe4ff"/><use xlink:href="#t" transform="matrix(1,0,0,1,1597.4868261715803,5389.312652359668) translate(-7.978298611111111 22.59548611111111)"/><path d="M1617.7 5383.3a6 6 0 0 1 6-6h20.2a6 6 0 0 1 6 6v41.35a6 6 0 0 1-6 6h-20.2a6 6 0 0 1-6-6z" stroke="#282c33" stroke-width="2" fill="#cfe4ff"/><use xlink:href="#u" transform="matrix(1,0,0,1,1629.6914453123488,5389.312652359668) translate(-7.978298611111111 22.59548611111111)"/><path d="M1649.9 5383.3a6 6 0 0 1 6-6h20.2a6 6 0 0 1 6 6v41.35a6 6 0 0 1-6 6h-20.2a6 6 0 0 1-6-6z" stroke="#282c33" stroke-width="2" fill="#cfe4ff"/><use xlink:href="#v" transform="matrix(1,0,0,1,1661.8960644531173,5389.312652359668) translate(-7.978298611111111 22.59548611111111)"/><path d="M1682.1 5383.3a6 6 0 0 1 6-6h20.2a6 6 0 0 1 6 6v41.35a6 6 0 0 1-6 6h-20.2a6 6 0 0 1-6-6z" stroke="#282c33" stroke-width="2" fill="#cfe4ff"/><use xlink:href="#w" transform="matrix(1,0,0,1,1694.1006835938858,5389.312652359668) translate(-7.978298611111111 22.59548611111111)"/><path d="M1714.3 5383.3a6 6 0 0 1 6-6h20.2a6 6 0 0 1 6 6v41.35a6 6 0 0 1-6 6h-20.2a6 6 0 0 1-6-6z" stroke="#282c33" stroke-width="2" fill="#cfe4ff"/><use xlink:href="#x" transform="matrix(1,0,0,1,1726.3053027346543,5389.312652359668) translate(-7.978298611111111 22.59548611111111)"/><path d="M1746.5 5383.3a6 6 0 0 1 6-6h20.2a6 6 0 0 1 6 6v41.35a6 6 0 0 1-6 6h-20.2a6 6 0 0 1-6-6z" stroke="#282c33" stroke-width="2" fill="#cfe4ff"/><use xlink:href="#y" transform="matrix(1,0,0,1,1758.5099218754228,5389.312652359668) translate(-7.978298611111111 22.59548611111111)"/><path d="M1778.7 5383.3a6 6 0 0 1 6-6h20.22a6 6 0 0 1 6 6v41.35a6 6 0 0 1-6 6h-20.2a6 6 0 0 1-6-6z" stroke="#282c33" stroke-width="2" fill="#cfe4ff"/><use xlink:href="#z" transform="matrix(1,0,0,1,1790.7145410161913,5389.312652359668) translate(-7.978298611111111 22.59548611111111)"/><path d="M1810.92 5383.3a6 6 0 0 1 6-6h20.2a6 6 0 0 1 6 6v41.35a6 6 0 0 1-6 6h-20.2a6 6 0 0 1-6-6z" stroke="#282c33" stroke-width="2" fill="#cfe4ff"/><use xlink:href="#A" transform="matrix(1,0,0,1,1822.9191601569598,5389.312652359668) translate(-7.978298611111111 22.59548611111111)"/><path d="M1843.12 5383.3a6 6 0 0 1 6-6h20.2a6 6 0 0 1 6 6v41.35a6 6 0 0 1-6 6h-20.2a6 6 0 0 1-6-6z" stroke="#282c33" stroke-width="2" fill="#cfe4ff"/><use xlink:href="#B" transform="matrix(1,0,0,1,1855.1237792977283,5389.312652359668) translate(-7.978298611111111 22.59548611111111)"/><path d="M1875.33 5383.3a6 6 0 0 1 6-6h20.2a6 6 0 0 1 6 6v41.35a6 6 0 0 1-6 6h-20.2a6 6 0 0 1-6-6z" stroke="#282c33" stroke-width="2" fill="#cfe4ff"/><use xlink:href="#C" transform="matrix(1,0,0,1,1887.3283984384968,5389.312652359668) translate(-7.978298611111111 22.59548611111111)"/><path d="M1907.53 5383.3a6 6 0 0 1 6-6h20.2a6 6 0 0 1 6 6v41.35a6 6 0 0 1-6 6h-20.2a6 6 0 0 1-6-6z" stroke="#282c33" stroke-width="2" fill="#cfe4ff"/><use xlink:href="#D" transform="matrix(1,0,0,1,1919.5330175792656,5389.312652359668) translate(-7.978298611111111 22.59548611111111)"/><path d="M1939.74 5383.3a6 6 0 0 1 6-6h20.2a6 6 0 0 1 6 6v41.35a6 6 0 0 1-6 6h-20.2a6 6 0 0 1-6-6z" stroke="#282c33" stroke-width="2" fill="#cfe4ff"/><use xlink:href="#E" transform="matrix(1,0,0,1,1951.737636720034,5389.312652359668) translate(-7.978298611111111 22.59548611111111)"/><path d="M1971.94 5383.3a6 6 0 0 1 6-6h20.2a6 6 0 0 1 6 6v41.35a6 6 0 0 1-6 6h-20.2a6 6 0 0 1-6-6z" stroke="#282c33" stroke-width="2" fill="#cfe4ff"/><use xlink:href="#F" transform="matrix(1,0,0,1,1983.9422558608026,5389.312652359668) translate(-7.978298611111111 22.59548611111111)"/><path d="M2004.15 5383.3a6 6 0 0 1 6-6h20.2a6 6 0 0 1 6 6v41.35a6 6 0 0 1-6 6h-20.2a6 6 0 0 1-6-6z" stroke="#282c33" stroke-width="2" fill="#cfe4ff"/><use xlink:href="#G" transform="matrix(1,0,0,1,2016.1468750015717,5389.312652359668) translate(-7.978298611111111 22.59548611111111)"/><path d="M2036.35 5383.3a6 6 0 0 1 6-6h20.2a6 6 0 0 1 6 6v41.35a6 6 0 0 1-6 6h-20.2a6 6 0 0 1-6-6z" stroke="#282c33" stroke-width="2" fill="#cfe4ff"/><use xlink:href="#H" transform="matrix(1,0,0,1,2048.351494142339,5389.312652359668) translate(-7.978298611111111 22.59548611111111)"/><path d="M2068.56 5383.3a6 6 0 0 1 6-6h20.2a6 6 0 0 1 6 6v41.35a6 6 0 0 1-6 6h-20.2a6 6 0 0 1-6-6z" stroke="#282c33" stroke-width="2" fill="#cfe4ff"/><use xlink:href="#I" transform="matrix(1,0,0,1,2080.556113283109,5389.312652359668) translate(-7.978298611111111 22.59548611111111)"/><path d="M2100.76 5383.3a6 6 0 0 1 6-6h20.2a6 6 0 0 1 6 6v41.35a6 6 0 0 1-6 6h-20.2a6 6 0 0 1-6-6z" stroke="#282c33" stroke-width="2" fill="#cfe4ff"/><use xlink:href="#J" transform="matrix(1,0,0,1,2112.760732423877,5389.312652359668) translate(-7.978298611111111 22.59548611111111)"/><path d="M2132.97 5383.3a6 6 0 0 1 6-6h20.2a6 6 0 0 1 6 6v41.35a6 6 0 0 1-6 6h-20.2a6 6 0 0 1-6-6z" stroke="#282c33" stroke-width="2" fill="#cfe4ff"/><use xlink:href="#K" transform="matrix(1,0,0,1,2144.965351564646,5389.312652359668) translate(-7.978298611111111 22.59548611111111)"/><path d="M2165.17 5383.3a6 6 0 0 1 6-6h20.2a6 6 0 0 1 6 6v41.35a6 6 0 0 1-6 6h-20.2a6 6 0 0 1-6-6z" stroke="#282c33" stroke-width="2" fill="#cfe4ff"/><use xlink:href="#L" transform="matrix(1,0,0,1,2177.169970705415,5389.312652359668) translate(-7.978298611111111 22.59548611111111)"/><path d="M2197.38 5383.3a6 6 0 0 1 6-6h20.2a6 6 0 0 1 6 6v41.35a6 6 0 0 1-6 6h-20.2a6 6 0 0 1-6-6z" stroke="#282c33" stroke-width="2" fill="#cfe4ff"/><use xlink:href="#M" transform="matrix(1,0,0,1,2209.374589846184,5389.312652359668) translate(-7.978298611111111 22.59548611111111)"/><path d="M2229.58 5383.3a6 6 0 0 1 6-6h20.2a6 6 0 0 1 6 6v41.35a6 6 0 0 1-6 6h-20.2a6 6 0 0 1-6-6z" stroke="#282c33" stroke-width="2" fill="#cfe4ff"/><use xlink:href="#N" transform="matrix(1,0,0,1,2241.579208986953,5389.312652359668) translate(-7.978298611111111 22.59548611111111)"/><path d="M2261.78 5383.3a6 6 0 0 1 6-6h20.2a6 6 0 0 1 6 6v41.35a6 6 0 0 1-6 6h-20.2a6 6 0 0 1-6-6z" stroke="#282c33" stroke-width="2" fill="#cfe4ff"/><use xlink:href="#O" transform="matrix(1,0,0,1,2273.783828127722,5389.312652359668) translate(-7.978298611111111 22.59548611111111)"/><path d="M2294 5383.3a6 6 0 0 1 6-6h20.2a6 6 0 0 1 6 6v41.35a6 6 0 0 1-6 6H2300a6 6 0 0 1-6-6z" stroke="#282c33" stroke-width="2" fill="#cfe4ff"/><use xlink:href="#P" transform="matrix(1,0,0,1,2305.98844726849,5389.312652359668) translate(-7.978298611111111 22.59548611111111)"/><path d="M2326.2 5383.3a6 6 0 0 1 6-6h20.2a6 6 0 0 1 6 6v41.35a6 6 0 0 1-6 6h-20.2a6 6 0 0 1-6-6z" stroke="#282c33" stroke-width="2" fill="#cfe4ff"/><use xlink:href="#Q" transform="matrix(1,0,0,1,2338.193066409259,5389.312652359668) translate(-7.978298611111111 22.59548611111111)"/><path d="M2358.4 5383.3a6 6 0 0 1 6-6h20.2a6 6 0 0 1 6 6v41.35a6 6 0 0 1-6 6h-20.2a6 6 0 0 1-6-6z" stroke="#282c33" stroke-width="2" fill="#cfe4ff"/><use xlink:href="#R" transform="matrix(1,0,0,1,2370.3976855500277,5389.312652359668) translate(-7.978298611111111 22.59548611111111)"/><path d="M2390.6 5383.3a6 6 0 0 1 6-6h20.2a6 6 0 0 1 6 6v41.35a6 6 0 0 1-6 6h-20.2a6 6 0 0 1-6-6z" stroke="#282c33" stroke-width="2" fill="#cfe4ff"/><use xlink:href="#S" transform="matrix(1,0,0,1,2402.6023046907967,5389.312652359668) translate(-7.978298611111111 22.59548611111111)"/><path d="M2422.8 5383.3a6 6 0 0 1 6-6h20.2a6 6 0 0 1 6 6v41.35a6 6 0 0 1-6 6h-20.2a6 6 0 0 1-6-6z" stroke="#282c33" stroke-width="2" fill="#cfe4ff"/><use xlink:href="#T" transform="matrix(1,0,0,1,2434.8069238315647,5389.312652359668) translate(-7.978298611111111 22.59548611111111)"/><path d="M2455 5383.3a6 6 0 0 1 6-6h20.22a6 6 0 0 1 6 6v41.35a6 6 0 0 1-6 6h-20.2a6 6 0 0 1-6-6z" stroke="#282c33" stroke-width="2" fill="#cfe4ff"/><use xlink:href="#U" transform="matrix(1,0,0,1,2467.0115429723337,5389.312652359668) translate(-7.978298611111111 22.59548611111111)"/><path d="M2487.22 5383.3a6 6 0 0 1 6-6h20.2a6 6 0 0 1 6 6v41.35a6 6 0 0 1-6 6h-20.2a6 6 0 0 1-6-6z" stroke="#282c33" stroke-width="2" fill="#cfe4ff"/><use xlink:href="#V" transform="matrix(1,0,0,1,2499.2161621131027,5389.312652359668) translate(-7.978298611111111 22.59548611111111)"/><path d="M2519.42 5383.3a6 6 0 0 1 6-6h20.2a6 6 0 0 1 6 6v41.35a6 6 0 0 1-6 6h-20.2a6 6 0 0 1-6-6z" stroke="#282c33" stroke-width="2" fill="#cfe4ff"/><use xlink:href="#W" transform="matrix(1,0,0,1,2531.4207812538716,5389.312652359668) translate(-7.978298611111111 22.59548611111111)"/><path d="M2551.63 5383.3a6 6 0 0 1 6-6h20.2a6 6 0 0 1 6 6v41.35a6 6 0 0 1-6 6h-20.2a6 6 0 0 1-6-6z" stroke="#282c33" stroke-width="2" fill="#cfe4ff"/><use xlink:href="#X" transform="matrix(1,0,0,1,2563.6254003946406,5389.312652359668) translate(-7.978298611111111 22.59548611111111)"/><path d="M2583.83 5383.3a6 6 0 0 1 6-6h20.2a6 6 0 0 1 6 6v41.35a6 6 0 0 1-6 6h-20.2a6 6 0 0 1-6-6z" stroke="#282c33" stroke-width="2" fill="#cfe4ff"/><use xlink:href="#Y" transform="matrix(1,0,0,1,2595.8300195354086,5389.312652359668) translate(-7.978298611111111 22.59548611111111)"/><path d="M2616.03 5383.3a6 6 0 0 1 6-6h20.2a6 6 0 0 1 6 6v41.35a6 6 0 0 1-6 6h-20.2a6 6 0 0 1-6-6z" stroke="#282c33" stroke-width="2" fill="#cfe4ff"/><use xlink:href="#Z" transform="matrix(1,0,0,1,2628.0346386761776,5389.312652359668) translate(-7.978298611111111 22.59548611111111)"/><path d="M2648.24 5383.3a6 6 0 0 1 6-6h20.2a6 6 0 0 1 6 6v41.35a6 6 0 0 1-6 6h-20.2a6 6 0 0 1-6-6z" stroke="#282c33" stroke-width="2" fill="#cfe4ff"/><use xlink:href="#aa" transform="matrix(1,0,0,1,2660.2392578169465,5389.312652359668) translate(-7.978298611111111 22.59548611111111)"/><path d="M2680.44 5383.3a6 6 0 0 1 6-6h20.2a6 6 0 0 1 6 6v41.35a6 6 0 0 1-6 6h-20.2a6 6 0 0 1-6-6z" stroke="#282c33" stroke-width="2" fill="#cfe4ff"/><use xlink:href="#ab" transform="matrix(1,0,0,1,2692.4438769577155,5389.312652359668) translate(-7.978298611111111 22.59548611111111)"/><path d="M2712.65 5383.3a6 6 0 0 1 6-6h20.2a6 6 0 0 1 6 6v41.35a6 6 0 0 1-6 6h-20.2a6 6 0 0 1-6-6z" stroke="#282c33" stroke-width="2" fill="#cfe4ff"/><use xlink:href="#ac" transform="matrix(1,0,0,1,2724.6484960984844,5389.312652359668) translate(-7.978298611111111 22.59548611111111)"/><path d="M2744.85 5383.3a6 6 0 0 1 6-6h20.2a6 6 0 0 1 6 6v41.35a6 6 0 0 1-6 6h-20.2a6 6 0 0 1-6-6z" stroke="#282c33" stroke-width="2" fill="#cfe4ff"/><use xlink:href="#ad" transform="matrix(1,0,0,1,2756.853115239253,5389.312652359668) translate(-7.978298611111111 22.59548611111111)"/><path d="M2777.06 5383.3a6 6 0 0 1 6-6h20.2a6 6 0 0 1 6 6v41.35a6 6 0 0 1-6 6h-20.2a6 6 0 0 1-6-6z" stroke="#282c33" stroke-width="2" fill="#cfe4ff"/><use xlink:href="#ae" transform="matrix(1,0,0,1,2789.057734380021,5389.312652359668) translate(-7.978298611111111 22.59548611111111)"/><path d="M2809.26 5383.3a6 6 0 0 1 6-6h20.2a6 6 0 0 1 6 6v41.35a6 6 0 0 1-6 6h-20.2a6 6 0 0 1-6-6z" stroke="#282c33" stroke-width="2" fill="#cfe4ff"/><use xlink:href="#af" transform="matrix(1,0,0,1,2821.2623535207904,5389.312652359668) translate(-7.978298611111111 22.59548611111111)"/><path d="M2841.47 5383.3a6 6 0 0 1 6-6h20.2a6 6 0 0 1 6 6v41.35a6 6 0 0 1-6 6h-20.2a6 6 0 0 1-6-6z" stroke="#282c33" stroke-width="2" fill="#cfe4ff"/><use xlink:href="#ag" transform="matrix(1,0,0,1,2853.4669726615593,5389.312652359668) translate(-7.978298611111111 22.59548611111111)"/><path d="M2873.67 5383.3a6 6 0 0 1 6-6h20.2a6 6 0 0 1 6 6v41.35a6 6 0 0 1-6 6h-20.2a6 6 0 0 1-6-6z" stroke="#282c33" stroke-width="2" fill="#cfe4ff"/><use xlink:href="#ah" transform="matrix(1,0,0,1,2885.6715918023283,5389.312652359668) translate(-7.978298611111111 22.59548611111111)"/><path d="M2905.88 5383.3a6 6 0 0 1 6-6h20.2a6 6 0 0 1 6 6v41.35a6 6 0 0 1-6 6h-20.2a6 6 0 0 1-6-6z" stroke="#282c33" stroke-width="2" fill="#cfe4ff"/><use xlink:href="#ai" transform="matrix(1,0,0,1,2917.8762109430972,5389.312652359668) translate(-7.978298611111111 22.59548611111111)"/><path d="M2938.08 5383.3a6 6 0 0 1 6-6h20.2a6 6 0 0 1 6 6v41.35a6 6 0 0 1-6 6h-20.2a6 6 0 0 1-6-6z" stroke="#282c33" stroke-width="2" fill="#cfe4ff"/><use xlink:href="#aj" transform="matrix(1,0,0,1,2950.0808300838653,5389.312652359668) translate(-7.978298611111111 22.59548611111111)"/><path d="M2970.28 5383.3a6 6 0 0 1 6-6h20.2a6 6 0 0 1 6 6v41.35a6 6 0 0 1-6 6h-20.2a6 6 0 0 1-6-6z" stroke="#282c33" stroke-width="2" fill="#cfe4ff"/><use xlink:href="#ak" transform="matrix(1,0,0,1,2982.2854492246342,5389.312652359668) translate(-7.978298611111111 22.59548611111111)"/><path d="M3002.5 5383.3a6 6 0 0 1 6-6h20.2a6 6 0 0 1 6 6v41.35a6 6 0 0 1-6 6h-20.2a6 6 0 0 1-6-6z" stroke="#282c33" stroke-width="2" fill="#cfe4ff"/><use xlink:href="#al" transform="matrix(1,0,0,1,3014.490068365403,5389.312652359668) translate(-7.978298611111111 22.59548611111111)"/><path d="M3034.7 5383.3a6 6 0 0 1 6-6h20.2a6 6 0 0 1 6 6v41.35a6 6 0 0 1-6 6h-20.2a6 6 0 0 1-6-6z" stroke="#282c33" stroke-width="2" fill="#cfe4ff"/><use xlink:href="#am" transform="matrix(1,0,0,1,3046.6946875061717,5389.312652359668) translate(-7.978298611111111 22.59548611111111)"/><path d="M3066.9 5383.3a6 6 0 0 1 6-6h20.2a6 6 0 0 1 6 6v41.35a6 6 0 0 1-6 6h-20.2a6 6 0 0 1-6-6z" stroke="#282c33" stroke-width="2" fill="#cfe4ff"/><use xlink:href="#an" transform="matrix(1,0,0,1,3078.899306646941,5389.312652359668) translate(-7.978298611111111 22.59548611111111)"/><path d="M3099.1 5383.3a6 6 0 0 1 6-6h20.2a6 6 0 0 1 6 6v41.35a6 6 0 0 1-6 6h-20.2a6 6 0 0 1-6-6z" stroke="#282c33" stroke-width="2" fill="#cfe4ff"/><use xlink:href="#ao" transform="matrix(1,0,0,1,3111.10392578771,5389.312652359668) translate(-7.978298611111111 22.59548611111111)"/><path d="M3131.3 5383.3a6 6 0 0 1 6-6h20.2a6 6 0 0 1 6 6v41.35a6 6 0 0 1-6 6h-20.2a6 6 0 0 1-6-6z" stroke="#282c33" stroke-width="2" fill="#cfe4ff"/><use xlink:href="#ap" transform="matrix(1,0,0,1,3143.308544928478,5389.312652359668) translate(-7.978298611111111 22.59548611111111)"/><path d="M3163.5 5383.3a6 6 0 0 1 6-6h20.22a6 6 0 0 1 6 6v41.35a6 6 0 0 1-6 6h-20.2a6 6 0 0 1-6-6z" stroke="#282c33" stroke-width="2" fill="#cfe4ff"/><use xlink:href="#aq" transform="matrix(1,0,0,1,3175.513164069247,5389.312652359668) translate(-7.978298611111111 22.59548611111111)"/><path d="M3195.72 5383.3a6 6 0 0 1 6-6h20.2a6 6 0 0 1 6 6v41.35a6 6 0 0 1-6 6h-20.2a6 6 0 0 1-6-6z" stroke="#282c33" stroke-width="2" fill="#cfe4ff"/><use xlink:href="#ar" transform="matrix(1,0,0,1,3207.717783210016,5389.312652359668) translate(-7.978298611111111 22.59548611111111)"/><path d="M3227.92 5383.3a6 6 0 0 1 6-6h20.2a6 6 0 0 1 6 6v41.35a6 6 0 0 1-6 6h-20.2a6 6 0 0 1-6-6z" stroke="#282c33" stroke-width="2" fill="#cfe4ff"/><use xlink:href="#as" transform="matrix(1,0,0,1,3239.922402350785,5389.312652359668) translate(-7.978298611111111 22.59548611111111)"/><path d="M3260.13 5383.3a6 6 0 0 1 6-6h20.2a6 6 0 0 1 6 6v41.35a6 6 0 0 1-6 6h-20.2a6 6 0 0 1-6-6z" stroke="#282c33" stroke-width="2" fill="#cfe4ff"/><use xlink:href="#at" transform="matrix(1,0,0,1,3272.127021491553,5389.312652359668) translate(-7.978298611111111 22.59548611111111)"/><path d="M3292.33 5383.3a6 6 0 0 1 6-6h20.2a6 6 0 0 1 6 6v41.35a6 6 0 0 1-6 6h-20.2a6 6 0 0 1-6-6z" stroke="#282c33" stroke-width="2" fill="#cfe4ff"/><use xlink:href="#au" transform="matrix(1,0,0,1,3304.331640632322,5389.312652359668) translate(-7.978298611111111 22.59548611111111)"/><path d="M3324.54 5383.3a6 6 0 0 1 6-6h20.2a6 6 0 0 1 6 6v41.35a6 6 0 0 1-6 6h-20.2a6 6 0 0 1-6-6z" stroke="#282c33" stroke-width="2" fill="#cfe4ff"/><use xlink:href="#av" transform="matrix(1,0,0,1,3336.536259773091,5389.312652359668) translate(-7.978298611111111 22.59548611111111)"/><path d="M3356.74 5383.3a6 6 0 0 1 6-6h20.2a6 6 0 0 1 6 6v41.35a6 6 0 0 1-6 6h-20.2a6 6 0 0 1-6-6z" stroke="#282c33" stroke-width="2" fill="#cfe4ff"/><use xlink:href="#aw" transform="matrix(1,0,0,1,3368.74087891386,5389.312652359668) translate(-7.978298611111111 22.59548611111111)"/><path d="M3388.95 5383.3a6 6 0 0 1 6-6h20.2a6 6 0 0 1 6 6v41.35a6 6 0 0 1-6 6h-20.2a6 6 0 0 1-6-6z" stroke="#282c33" stroke-width="2" fill="#cfe4ff"/><use xlink:href="#ax" transform="matrix(1,0,0,1,3400.945498054629,5389.312652359668) translate(-7.978298611111111 22.59548611111111)"/><path d="M3421.15 5383.3a6 6 0 0 1 6-6h20.2a6 6 0 0 1 6 6v41.35a6 6 0 0 1-6 6h-20.2a6 6 0 0 1-6-6z" stroke="#282c33" stroke-width="2" fill="#cfe4ff"/><use xlink:href="#ay" transform="matrix(1,0,0,1,3433.150117195398,5389.312652359668) translate(-7.978298611111111 22.59548611111111)"/><path d="M3453.36 5383.3a6 6 0 0 1 6-6h20.2a6 6 0 0 1 6 6v41.35a6 6 0 0 1-6 6h-20.2a6 6 0 0 1-6-6z" stroke="#282c33" stroke-width="2" fill="#cfe4ff"/><use xlink:href="#az" transform="matrix(1,0,0,1,3465.3547363361668,5389.312652359668) translate(-7.978298611111111 22.59548611111111)"/><path d="M3485.56 5383.3a6 6 0 0 1 6-6h20.2a6 6 0 0 1 6 6v41.35a6 6 0 0 1-6 6h-20.2a6 6 0 0 1-6-6z" stroke="#282c33" stroke-width="2" fill="#cfe4ff"/><use xlink:href="#aA" transform="matrix(1,0,0,1,3497.559355476935,5389.312652359668) translate(-7.978298611111111 22.59548611111111)"/><path d="M3517.76 5383.3a6 6 0 0 1 6-6h20.2a6 6 0 0 1 6 6v41.35a6 6 0 0 1-6 6h-20.2a6 6 0 0 1-6-6z" stroke="#282c33" stroke-width="2" fill="#cfe4ff"/><use xlink:href="#aB" transform="matrix(1,0,0,1,3529.7639746177038,5389.312652359668) translate(-7.978298611111111 22.59548611111111)"/><path d="M3549.97 5383.3a6 6 0 0 1 6-6h20.2a6 6 0 0 1 6 6v41.35a6 6 0 0 1-6 6h-20.2a6 6 0 0 1-6-6z" stroke="#282c33" stroke-width="2" fill="#cfe4ff"/><use xlink:href="#aC" transform="matrix(1,0,0,1,3561.9685937584727,5389.312652359668) translate(-7.978298611111111 22.59548611111111)"/><path d="M3582.17 5383.3a6 6 0 0 1 6-6h20.2a6 6 0 0 1 6 6v41.35a6 6 0 0 1-6 6h-20.2a6 6 0 0 1-6-6z" stroke="#282c33" stroke-width="2" fill="#cfe4ff"/><use xlink:href="#aD" transform="matrix(1,0,0,1,3594.1732128992417,5389.312652359668) translate(-7.978298611111111 22.59548611111111)"/><path d="M3614.38 5383.3a6 6 0 0 1 6-6h20.2a6 6 0 0 1 6 6v41.35a6 6 0 0 1-6 6h-20.2a6 6 0 0 1-6-6z" stroke="#282c33" stroke-width="2" fill="#cfe4ff"/><use xlink:href="#aE" transform="matrix(1,0,0,1,3626.3778320400097,5389.312652359668) translate(-7.978298611111111 22.59548611111111)"/><path d="M3646.58 5383.3a6 6 0 0 1 6-6h20.2a6 6 0 0 1 6 6v41.35a6 6 0 0 1-6 6h-20.2a6 6 0 0 1-6-6z" stroke="#282c33" stroke-width="2" fill="#cfe4ff"/><use xlink:href="#aF" transform="matrix(1,0,0,1,3658.5824511807787,5389.312652359668) translate(-7.978298611111111 22.59548611111111)"/><path d="M3678.8 5383.3a6 6 0 0 1 6-6h20.2a6 6 0 0 1 6 6v41.35a6 6 0 0 1-6 6h-20.2a6 6 0 0 1-6-6z" stroke="#282c33" stroke-width="2" fill="#cfe4ff"/><use xlink:href="#aG" transform="matrix(1,0,0,1,3690.7870703215476,5389.312652359668) translate(-7.978298611111111 22.59548611111111)"/><path d="M3711 5383.3a6 6 0 0 1 6-6h20.2a6 6 0 0 1 6 6v41.35a6 6 0 0 1-6 6H3717a6 6 0 0 1-6-6z" stroke="#282c33" stroke-width="2" fill="#cfe4ff"/><use xlink:href="#aH" transform="matrix(1,0,0,1,3722.9916894623166,5389.312652359668) translate(-7.978298611111111 22.59548611111111)"/><path d="M3743.2 5383.3a6 6 0 0 1 6-6h20.2a6 6 0 0 1 6 6v41.35a6 6 0 0 1-6 6h-20.2a6 6 0 0 1-6-6z" stroke="#282c33" stroke-width="2" fill="#cfe4ff"/><use xlink:href="#aI" transform="matrix(1,0,0,1,3755.1963086030855,5389.312652359668) translate(-7.978298611111111 22.59548611111111)"/><path d="M3775.4 5383.3a6 6 0 0 1 6-6h20.2a6 6 0 0 1 6 6v41.35a6 6 0 0 1-6 6h-20.2a6 6 0 0 1-6-6z" stroke="#282c33" stroke-width="2" fill="#cfe4ff"/><use xlink:href="#aJ" transform="matrix(1,0,0,1,3787.4009277438545,5389.312652359668) translate(-7.978298611111111 22.59548611111111)"/><path d="M3807.6 5383.3a6 6 0 0 1 6-6h20.2a6 6 0 0 1 6 6v41.35a6 6 0 0 1-6 6h-20.2a6 6 0 0 1-6-6z" stroke="#282c33" stroke-width="2" fill="#cfe4ff"/><use xlink:href="#aK" transform="matrix(1,0,0,1,3819.6055468846225,5389.312652359668) translate(-7.978298611111111 22.59548611111111)"/><path d="M1585.88 5337.37a6 6 0 0 1 6-6h309.65a6 6 0 0 1 6 6V5887a6 6 0 0 1-6 6h-309.65a6 6 0 0 1-6-6z" fill-opacity="0"/><path d="M1584.88 5337.38a1 1 0 0 1 1-1 1 1 0 0 1 1 1 1 1 0 0 1-1 1 1 1 0 0 1-1-1v-.02m1.76-4.22a1 1 0 0 1 1-1 1 1 0 0 1 1 1 1 1 0 0 1-1 1 1 1 0 0 1-1-1v-.02m4.24-1.74a1 1 0 0 1 1-1 1 1 0 0 1 1 1 1 1 0 0 1-1 1 1 1 0 0 1-1-1v-.02m4.02.02a1 1 0 0 1 1-1 1 1 0 0 1 1 1 1 1 0 0 1-1 1 1 1 0 0 1-1-1v-.02m4.02.02a1 1 0 0 1 1-1 1 1 0 0 1 1 1 1 1 0 0 1-1 1 1 1 0 0 1-1-1v-.02m4.02.02a1 1 0 0 1 1-1 1 1 0 0 1 1 1 1 1 0 0 1-1 1 1 1 0 0 1-1-1v-.02m4.02.02a1 1 0 0 1 1-1 1 1 0 0 1 1 1 1 1 0 0 1-1 1 1 1 0 0 1-1-1v-.02m4.03.02a1 1 0 0 1 1-1 1 1 0 0 1 1 1 1 1 0 0 1-1 1 1 1 0 0 1-1-1v-.02m4 .02a1 1 0 0 1 1-1 1 1 0 0 1 1 1 1 1 0 0 1-1 1 1 1 0 0 1-1-1v-.02m4.03.02a1 1 0 0 1 1-1 1 1 0 0 1 1 1 1 1 0 0 1-1 1 1 1 0 0 1-1-1v-.02m4.02.02a1 1 0 0 1 1-1 1 1 0 0 1 1 1 1 1 0 0 1-1 1 1 1 0 0 1-1-1v-.02m4.02.02a1 1 0 0 1 1-1 1 1 0 0 1 1 1 1 1 0 0 1-1 1 1 1 0 0 1-1-1v-.02m4.02.02a1 1 0 0 1 1-1 1 1 0 0 1 1 1 1 1 0 0 1-1 1 1 1 0 0 1-1-1v-.02m4.02.02a1 1 0 0 1 1-1 1 1 0 0 1 1 1 1 1 0 0 1-1 1 1 1 0 0 1-1-1v-.02m4.02.02a1 1 0 0 1 1-1 1 1 0 0 1 1 1 1 1 0 0 1-1 1 1 1 0 0 1-1-1v-.02m4.02.02a1 1 0 0 1 1-1 1 1 0 0 1 1 1 1 1 0 0 1-1 1 1 1 0 0 1-1-1v-.02m4.02.02a1 1 0 0 1 1-1 1 1 0 0 1 1 1 1 1 0 0 1-1 1 1 1 0 0 1-1-1v-.02m4.02.02a1 1 0 0 1 1-1 1 1 0 0 1 1 1 1 1 0 0 1-1 1 1 1 0 0 1-1-1v-.02m4.02.02a1 1 0 0 1 1-1 1 1 0 0 1 1 1 1 1 0 0 1-1 1 1 1 0 0 1-1-1v-.02m4.02.02a1 1 0 0 1 1-1 1 1 0 0 1 1 1 1 1 0 0 1-1 1 1 1 0 0 1-1-1v-.02m4.03.02a1 1 0 0 1 1-1 1 1 0 0 1 1 1 1 1 0 0 1-1 1 1 1 0 0 1-1-1v-.02m4.02.02a1 1 0 0 1 1-1 1 1 0 0 1 1 1 1 1 0 0 1-1 1 1 1 0 0 1-1-1v-.02m4 .02a1 1 0 0 1 1-1 1 1 0 0 1 1 1 1 1 0 0 1-1 1 1 1 0 0 1-1-1v-.02m4.03.02a1 1 0 0 1 1-1 1 1 0 0 1 1 1 1 1 0 0 1-1 1 1 1 0 0 1-1-1v-.02m4.02.02a1 1 0 0 1 1-1 1 1 0 0 1 1 1 1 1 0 0 1-1 1 1 1 0 0 1-1-1v-.02m4.02.02a1 1 0 0 1 1-1 1 1 0 0 1 1 1 1 1 0 0 1-1 1 1 1 0 0 1-1-1v-.02m4.02.02a1 1 0 0 1 1-1 1 1 0 0 1 1 1 1 1 0 0 1-1 1 1 1 0 0 1-1-1v-.02m4.02.02a1 1 0 0 1 1-1 1 1 0 0 1 1 1 1 1 0 0 1-1 1 1 1 0 0 1-1-1v-.02m4.02.02a1 1 0 0 1 1-1 1 1 0 0 1 1 1 1 1 0 0 1-1 1 1 1 0 0 1-1-1v-.02m4.02.02a1 1 0 0 1 1-1 1 1 0 0 1 1 1 1 1 0 0 1-1 1 1 1 0 0 1-1-1v-.02m4.02.02a1 1 0 0 1 1-1 1 1 0 0 1 1 1 1 1 0 0 1-1 1 1 1 0 0 1-1-1v-.02m4.02.02a1 1 0 0 1 1-1 1 1 0 0 1 1 1 1 1 0 0 1-1 1 1 1 0 0 1-1-1v-.02m4.02.02a1 1 0 0 1 1-1 1 1 0 0 1 1 1 1 1 0 0 1-1 1 1 1 0 0 1-1-1v-.02m4.03.02a1 1 0 0 1 1-1 1 1 0 0 1 1 1 1 1 0 0 1-1 1 1 1 0 0 1-1-1v-.02m4.02.02a1 1 0 0 1 1-1 1 1 0 0 1 1 1 1 1 0 0 1-1 1 1 1 0 0 1-1-1v-.02m4.02.02a1 1 0 0 1 1-1 1 1 0 0 1 1 1 1 1 0 0 1-1 1 1 1 0 0 1-1-1v-.02m4 .02a1 1 0 0 1 1-1 1 1 0 0 1 1 1 1 1 0 0 1-1 1 1 1 0 0 1-1-1v-.02m4.03.02a1 1 0 0 1 1-1 1 1 0 0 1 1 1 1 1 0 0 1-1 1 1 1 0 0 1-1-1v-.02m4.02.02a1 1 0 0 1 1-1 1 1 0 0 1 1 1 1 1 0 0 1-1 1 1 1 0 0 1-1-1v-.02m4.02.02a1 1 0 0 1 1-1 1 1 0 0 1 1 1 1 1 0 0 1-1 1 1 1 0 0 1-1-1v-.02m4.02.02a1 1 0 0 1 1-1 1 1 0 0 1 1 1 1 1 0 0 1-1 1 1 1 0 0 1-1-1v-.02m4.02.02a1 1 0 0 1 1-1 1 1 0 0 1 1 1 1 1 0 0 1-1 1 1 1 0 0 1-1-1v-.02m4.02.02a1 1 0 0 1 1-1 1 1 0 0 1 1 1 1 1 0 0 1-1 1 1 1 0 0 1-1-1v-.02m4.02.02a1 1 0 0 1 1-1 1 1 0 0 1 1 1 1 1 0 0 1-1 1 1 1 0 0 1-1-1v-.02m4.02.02a1 1 0 0 1 1-1 1 1 0 0 1 1 1 1 1 0 0 1-1 1 1 1 0 0 1-1-1v-.02m4.02.02a1 1 0 0 1 1-1 1 1 0 0 1 1 1 1 1 0 0 1-1 1 1 1 0 0 1-1-1v-.02m4.02.02a1 1 0 0 1 1-1 1 1 0 0 1 1 1 1 1 0 0 1-1 1 1 1 0 0 1-1-1v-.02m4.03.02a1 1 0 0 1 1-1 1 1 0 0 1 1 1 1 1 0 0 1-1 1 1 1 0 0 1-1-1v-.02m4.02.02a1 1 0 0 1 1-1 1 1 0 0 1 1 1 1 1 0 0 1-1 1 1 1 0 0 1-1-1v-.02m4.02.02a1 1 0 0 1 1-1 1 1 0 0 1 1 1 1 1 0 0 1-1 1 1 1 0 0 1-1-1v-.02m4 .02a1 1 0 0 1 1-1 1 1 0 0 1 1 1 1 1 0 0 1-1 1 1 1 0 0 1-1-1v-.02m4.03.02a1 1 0 0 1 1-1 1 1 0 0 1 1 1 1 1 0 0 1-1 1 1 1 0 0 1-1-1v-.02m4.02.02a1 1 0 0 1 1-1 1 1 0 0 1 1 1 1 1 0 0 1-1 1 1 1 0 0 1-1-1v-.02m4.02.02a1 1 0 0 1 1-1 1 1 0 0 1 1 1 1 1 0 0 1-1 1 1 1 0 0 1-1-1v-.02m4.03.02a1 1 0 0 1 1-1 1 1 0 0 1 1 1 1 1 0 0 1-1 1 1 1 0 0 1-1-1v-.02m4.02.02a1 1 0 0 1 1-1 1 1 0 0 1 1 1 1 1 0 0 1-1 1 1 1 0 0 1-1-1v-.02m4.02.02a1 1 0 0 1 1-1 1 1 0 0 1 1 1 1 1 0 0 1-1 1 1 1 0 0 1-1-1v-.02m4.02.02a1 1 0 0 1 1-1 1 1 0 0 1 1 1 1 1 0 0 1-1 1 1 1 0 0 1-1-1v-.02m4.02.02a1 1 0 0 1 1-1 1 1 0 0 1 1 1 1 1 0 0 1-1 1 1 1 0 0 1-1-1v-.02m4.02.02a1 1 0 0 1 1-1 1 1 0 0 1 1 1 1 1 0 0 1-1 1 1 1 0 0 1-1-1v-.02m4.03.02a1 1 0 0 1 1-1 1 1 0 0 1 1 1 1 1 0 0 1-1 1 1 1 0 0 1-1-1v-.02m4.02.02a1 1 0 0 1 1-1 1 1 0 0 1 1 1 1 1 0 0 1-1 1 1 1 0 0 1-1-1v-.02m4.02.02a1 1 0 0 1 1-1 1 1 0 0 1 1 1 1 1 0 0 1-1 1 1 1 0 0 1-1-1v-.02m4.02.02a1 1 0 0 1 1-1 1 1 0 0 1 1 1 1 1 0 0 1-1 1 1 1 0 0 1-1-1v-.02m4 .02a1 1 0 0 1 1-1 1 1 0 0 1 1 1 1 1 0 0 1-1 1 1 1 0 0 1-1-1v-.02m4.03.02a1 1 0 0 1 1-1 1 1 0 0 1 1 1 1 1 0 0 1-1 1 1 1 0 0 1-1-1v-.02m4.02.02a1 1 0 0 1 1-1 1 1 0 0 1 1 1 1 1 0 0 1-1 1 1 1 0 0 1-1-1v-.02m4.03.02a1 1 0 0 1 1-1 1 1 0 0 1 1 1 1 1 0 0 1-1 1 1 1 0 0 1-1-1v-.02m4.02.02a1 1 0 0 1 1-1 1 1 0 0 1 1 1 1 1 0 0 1-1 1 1 1 0 0 1-1-1v-.02m4.02.02a1 1 0 0 1 1-1 1 1 0 0 1 1 1 1 1 0 0 1-1 1 1 1 0 0 1-1-1v-.02m4.02.02a1 1 0 0 1 1-1 1 1 0 0 1 1 1 1 1 0 0 1-1 1 1 1 0 0 1-1-1v-.02m4.02.02a1 1 0 0 1 1-1 1 1 0 0 1 1 1 1 1 0 0 1-1 1 1 1 0 0 1-1-1v-.02m4.02.02a1 1 0 0 1 1-1 1 1 0 0 1 1 1 1 1 0 0 1-1 1 1 1 0 0 1-1-1v-.02m4.02.02a1 1 0 0 1 1-1 1 1 0 0 1 1 1 1 1 0 0 1-1 1 1 1 0 0 1-1-1v-.02m4.03.02a1 1 0 0 1 1-1 1 1 0 0 1 1 1 1 1 0 0 1-1 1 1 1 0 0 1-1-1v-.02m4.02.02a1 1 0 0 1 1-1 1 1 0 0 1 1 1 1 1 0 0 1-1 1 1 1 0 0 1-1-1v-.02m4.02.02a1 1 0 0 1 1-1 1 1 0 0 1 1 1 1 1 0 0 1-1 1 1 1 0 0 1-1-1v-.02m4.02.02a1 1 0 0 1 1-1 1 1 0 0 1 1 1 1 1 0 0 1-1 1 1 1 0 0 1-1-1v-.02m4 .02a1 1 0 0 1 1-1 1 1 0 0 1 1 1 1 1 0 0 1-1 1 1 1 0 0 1-1-1v-.02m4.03.02a1 1 0 0 1 1-1 1 1 0 0 1 1 1 1 1 0 0 1-1 1 1 1 0 0 1-1-1v-.02m4.25 1.78a1 1 0 0 1 1-1 1 1 0 0 1 1 1 1 1 0 0 1-1 1 1 1 0 0 1-1-1v-.02m1.75 4.26a1 1 0 0 1 1-1 1 1 0 0 1 1 1 1 1 0 0 1-1 1 1 1 0 0 1-1-1v-.02m0 4.03v-.02a1 1 0 0 1 1-1 1 1 0 0 1 1 1 1 1 0 0 1-1 1 1 1 0 0 1-1-1m0 4.02a1 1 0 0 1 1-1 1 1 0 0 1 1 1 1 1 0 0 1-1 1 1 1 0 0 1-1-1v-.02m0 4.04a1 1 0 0 1 1-1 1 1 0 0 1 1 1 1 1 0 0 1-1 1 1 1 0 0 1-1-1v-.02m0 4.03a1 1 0 0 1 1-1 1 1 0 0 1 1 1 1 1 0 0 1-1 1 1 1 0 0 1-1-1v-.02m0 4.04a1 1 0 0 1 1-1 1 1 0 0 1 1 1 1 1 0 0 1-1 1 1 1 0 0 1-1-1v-.02m0 4.03a1 1 0 0 1 1-1 1 1 0 0 1 1 1 1 1 0 0 1-1 1 1 1 0 0 1-1-1v-.02m0 4.03a1 1 0 0 1 1-1 1 1 0 0 1 1 1 1 1 0 0 1-1 1 1 1 0 0 1-1-1v-.02m0 4.04a1 1 0 0 1 1-1 1 1 0 0 1 1 1 1 1 0 0 1-1 1 1 1 0 0 1-1-1v-.02m0 4.03v-.02a1 1 0 0 1 1-1 1 1 0 0 1 1 1 1 1 0 0 1-1 1 1 1 0 0 1-1-1m0 4.02a1 1 0 0 1 1-1 1 1 0 0 1 1 1 1 1 0 0 1-1 1 1 1 0 0 1-1-1v-.02m0 4.03a1 1 0 0 1 1-1 1 1 0 0 1 1 1 1 1 0 0 1-1 1 1 1 0 0 1-1-1m0 4.02a1 1 0 0 1 1-1 1 1 0 0 1 1 1 1 1 0 0 1-1 1 1 1 0 0 1-1-1v-.02m0 4.03a1 1 0 0 1 1-1 1 1 0 0 1 1 1 1 1 0 0 1-1 1 1 1 0 0 1-1-1m0 4.02a1 1 0 0 1 1-1 1 1 0 0 1 1 1 1 1 0 0 1-1 1 1 1 0 0 1-1-1v-.02m0 4.03a1 1 0 0 1 1-1 1 1 0 0 1 1 1 1 1 0 0 1-1 1 1 1 0 0 1-1-1v-.02m0 4.03a1 1 0 0 1 1-1 1 1 0 0 1 1 1 1 1 0 0 1-1 1 1 1 0 0 1-1-1v-.02m0 4.03a1 1 0 0 1 1-1 1 1 0 0 1 1 1 1 1 0 0 1-1 1 1 1 0 0 1-1-1v-.02m0 4.03v-.02a1 1 0 0 1 1-1 1 1 0 0 1 1 1 1 1 0 0 1-1 1 1 1 0 0 1-1-1m0 4.03a1 1 0 0 1 1-1 1 1 0 0 1 1 1 1 1 0 0 1-1 1 1 1 0 0 1-1-1m0 4.02a1 1 0 0 1 1-1 1 1 0 0 1 1 1 1 1 0 0 1-1 1 1 1 0 0 1-1-1v-.02m0 4.03a1 1 0 0 1 1-1 1 1 0 0 1 1 1 1 1 0 0 1-1 1 1 1 0 0 1-1-1v-.02m0 4.04a1 1 0 0 1 1-1 1 1 0 0 1 1 1 1 1 0 0 1-1 1 1 1 0 0 1-1-1v-.02m0 4.03a1 1 0 0 1 1-1 1 1 0 0 1 1 1 1 1 0 0 1-1 1 1 1 0 0 1-1-1m0 4.02a1 1 0 0 1 1-1 1 1 0 0 1 1 1 1 1 0 0 1-1 1 1 1 0 0 1-1-1v-.02m0 4.03a1 1 0 0 1 1-1 1 1 0 0 1 1 1 1 1 0 0 1-1 1 1 1 0 0 1-1-1v-.02m0 4.03v-.02a1 1 0 0 1 1-1 1 1 0 0 1 1 1 1 1 0 0 1-1 1 1 1 0 0 1-1-1m0 4.02a1 1 0 0 1 1-1 1 1 0 0 1 1 1 1 1 0 0 1-1 1 1 1 0 0 1-1-1v-.02m0 4.03a1 1 0 0 1 1-1 1 1 0 0 1 1 1 1 1 0 0 1-1 1 1 1 0 0 1-1-1m0 4.03a1 1 0 0 1 1-1 1 1 0 0 1 1 1 1 1 0 0 1-1 1 1 1 0 0 1-1-1v-.02m0 4.04a1 1 0 0 1 1-1 1 1 0 0 1 1 1 1 1 0 0 1-1 1 1 1 0 0 1-1-1v-.02m0 4.03a1 1 0 0 1 1-1 1 1 0 0 1 1 1 1 1 0 0 1-1 1 1 1 0 0 1-1-1v-.02m0 4.03a1 1 0 0 1 1-1 1 1 0 0 1 1 1 1 1 0 0 1-1 1 1 1 0 0 1-1-1v-.02m0 4.03a1 1 0 0 1 1-1 1 1 0 0 1 1 1 1 1 0 0 1-1 1 1 1 0 0 1-1-1v-.02m0 4.04v-.02a1 1 0 0 1 1-1 1 1 0 0 1 1 1 1 1 0 0 1-1 1 1 1 0 0 1-1-1m0 4.02a1 1 0 0 1 1-1 1 1 0 0 1 1 1 1 1 0 0 1-1 1 1 1 0 0 1-1-1v-.02m0 4.03a1 1 0 0 1 1-1 1 1 0 0 1 1 1 1 1 0 0 1-1 1 1 1 0 0 1-1-1m0 4.02a1 1 0 0 1 1-1 1 1 0 0 1 1 1 1 1 0 0 1-1 1 1 1 0 0 1-1-1v-.02m0 4.03a1 1 0 0 1 1-1 1 1 0 0 1 1 1 1 1 0 0 1-1 1 1 1 0 0 1-1-1v-.02m0 4.05v-.02a1 1 0 0 1 1-1 1 1 0 0 1 1 1 1 1 0 0 1-1 1 1 1 0 0 1-1-1m0 4.03a1 1 0 0 1 1-1 1 1 0 0 1 1 1 1 1 0 0 1-1 1 1 1 0 0 1-1-1v-.02m0 4.03a1 1 0 0 1 1-1 1 1 0 0 1 1 1 1 1 0 0 1-1 1 1 1 0 0 1-1-1v-.02m0 4.03a1 1 0 0 1 1-1 1 1 0 0 1 1 1 1 1 0 0 1-1 1 1 1 0 0 1-1-1v-.02m0 4.03v-.02a1 1 0 0 1 1-1 1 1 0 0 1 1 1 1 1 0 0 1-1 1 1 1 0 0 1-1-1m0 4.02a1 1 0 0 1 1-1 1 1 0 0 1 1 1 1 1 0 0 1-1 1 1 1 0 0 1-1-1m0 4.02a1 1 0 0 1 1-1 1 1 0 0 1 1 1 1 1 0 0 1-1 1 1 1 0 0 1-1-1v-.02m0 4.03a1 1 0 0 1 1-1 1 1 0 0 1 1 1 1 1 0 0 1-1 1 1 1 0 0 1-1-1v-.02m0 4.04a1 1 0 0 1 1-1 1 1 0 0 1 1 1 1 1 0 0 1-1 1 1 1 0 0 1-1-1v-.02m0 4.03a1 1 0 0 1 1-1 1 1 0 0 1 1 1 1 1 0 0 1-1 1 1 1 0 0 1-1-1v-.02m0 4.03a1 1 0 0 1 1-1 1 1 0 0 1 1 1 1 1 0 0 1-1 1 1 1 0 0 1-1-1v-.02m0 4.04a1 1 0 0 1 1-1 1 1 0 0 1 1 1 1 1 0 0 1-1 1 1 1 0 0 1-1-1v-.02m0 4.03v-.02a1 1 0 0 1 1-1 1 1 0 0 1 1 1 1 1 0 0 1-1 1 1 1 0 0 1-1-1m0 4.02a1 1 0 0 1 1-1 1 1 0 0 1 1 1 1 1 0 0 1-1 1 1 1 0 0 1-1-1v-.02m0 4.03a1 1 0 0 1 1-1 1 1 0 0 1 1 1 1 1 0 0 1-1 1 1 1 0 0 1-1-1m0 4.02a1 1 0 0 1 1-1 1 1 0 0 1 1 1 1 1 0 0 1-1 1 1 1 0 0 1-1-1v-.02m0 4.04a1 1 0 0 1 1-1 1 1 0 0 1 1 1 1 1 0 0 1-1 1 1 1 0 0 1-1-1v-.02m0 4.03a1 1 0 0 1 1-1 1 1 0 0 1 1 1 1 1 0 0 1-1 1 1 1 0 0 1-1-1v-.02m0 4.03a1 1 0 0 1 1-1 1 1 0 0 1 1 1 1 1 0 0 1-1 1 1 1 0 0 1-1-1v-.02m0 4.03a1 1 0 0 1 1-1 1 1 0 0 1 1 1 1 1 0 0 1-1 1 1 1 0 0 1-1-1v-.02m0 4.03a1 1 0 0 1 1-1 1 1 0 0 1 1 1 1 1 0 0 1-1 1 1 1 0 0 1-1-1v-.02m0 4.04a1 1 0 0 1 1-1 1 1 0 0 1 1 1 1 1 0 0 1-1 1 1 1 0 0 1-1-1v-.02m0 4.03a1 1 0 0 1 1-1 1 1 0 0 1 1 1 1 1 0 0 1-1 1 1 1 0 0 1-1-1m0 4.02a1 1 0 0 1 1-1 1 1 0 0 1 1 1 1 1 0 0 1-1 1 1 1 0 0 1-1-1v-.02m0 4.03a1 1 0 0 1 1-1 1 1 0 0 1 1 1 1 1 0 0 1-1 1 1 1 0 0 1-1-1v-.02m0 4.04a1 1 0 0 1 1-1 1 1 0 0 1 1 1 1 1 0 0 1-1 1 1 1 0 0 1-1-1v-.02m0 4.03a1 1 0 0 1 1-1 1 1 0 0 1 1 1 1 1 0 0 1-1 1 1 1 0 0 1-1-1m0 4.02a1 1 0 0 1 1-1 1 1 0 0 1 1 1 1 1 0 0 1-1 1 1 1 0 0 1-1-1v-.02m0 4.03a1 1 0 0 1 1-1 1 1 0 0 1 1 1 1 1 0 0 1-1 1 1 1 0 0 1-1-1v-.02m0 4.03v-.02a1 1 0 0 1 1-1 1 1 0 0 1 1 1 1 1 0 0 1-1 1 1 1 0 0 1-1-1m0 4.02a1 1 0 0 1 1-1 1 1 0 0 1 1 1 1 1 0 0 1-1 1 1 1 0 0 1-1-1v-.02m0 4.03a1 1 0 0 1 1-1 1 1 0 0 1 1 1 1 1 0 0 1-1 1 1 1 0 0 1-1-1m0 4.03a1 1 0 0 1 1-1 1 1 0 0 1 1 1 1 1 0 0 1-1 1 1 1 0 0 1-1-1v-.02m0 4.04a1 1 0 0 1 1-1 1 1 0 0 1 1 1 1 1 0 0 1-1 1 1 1 0 0 1-1-1v-.02m0 4.03a1 1 0 0 1 1-1 1 1 0 0 1 1 1 1 1 0 0 1-1 1 1 1 0 0 1-1-1v-.02m0 4.03a1 1 0 0 1 1-1 1 1 0 0 1 1 1 1 1 0 0 1-1 1 1 1 0 0 1-1-1v-.02m0 4.03a1 1 0 0 1 1-1 1 1 0 0 1 1 1 1 1 0 0 1-1 1 1 1 0 0 1-1-1v-.02m0 4.04v-.02a1 1 0 0 1 1-1 1 1 0 0 1 1 1 1 1 0 0 1-1 1 1 1 0 0 1-1-1m0 4.02a1 1 0 0 1 1-1 1 1 0 0 1 1 1 1 1 0 0 1-1 1 1 1 0 0 1-1-1v-.02m0 4.03a1 1 0 0 1 1-1 1 1 0 0 1 1 1 1 1 0 0 1-1 1 1 1 0 0 1-1-1m0 4.02a1 1 0 0 1 1-1 1 1 0 0 1 1 1 1 1 0 0 1-1 1 1 1 0 0 1-1-1v-.02m0 4.03a1 1 0 0 1 1-1 1 1 0 0 1 1 1 1 1 0 0 1-1 1 1 1 0 0 1-1-1v-.02m0 4.05a1 1 0 0 1 1-1 1 1 0 0 1 1 1 1 1 0 0 1-1 1 1 1 0 0 1-1-1v-.02m0 4.03a1 1 0 0 1 1-1 1 1 0 0 1 1 1 1 1 0 0 1-1 1 1 1 0 0 1-1-1v-.02m0 4.03a1 1 0 0 1 1-1 1 1 0 0 1 1 1 1 1 0 0 1-1 1 1 1 0 0 1-1-1v-.02m0 4.03a1 1 0 0 1 1-1 1 1 0 0 1 1 1 1 1 0 0 1-1 1 1 1 0 0 1-1-1v-.02m0 4.03v-.02a1 1 0 0 1 1-1 1 1 0 0 1 1 1 1 1 0 0 1-1 1 1 1 0 0 1-1-1m0 4.02a1 1 0 0 1 1-1 1 1 0 0 1 1 1 1 1 0 0 1-1 1 1 1 0 0 1-1-1m0 4.02a1 1 0 0 1 1-1 1 1 0 0 1 1 1 1 1 0 0 1-1 1 1 1 0 0 1-1-1v-.02m0 4.03a1 1 0 0 1 1-1 1 1 0 0 1 1 1 1 1 0 0 1-1 1 1 1 0 0 1-1-1v-.02m0 4.04a1 1 0 0 1 1-1 1 1 0 0 1 1 1 1 1 0 0 1-1 1 1 1 0 0 1-1-1v-.02m0 4.03a1 1 0 0 1 1-1 1 1 0 0 1 1 1 1 1 0 0 1-1 1 1 1 0 0 1-1-1v-.02m0 4.03a1 1 0 0 1 1-1 1 1 0 0 1 1 1 1 1 0 0 1-1 1 1 1 0 0 1-1-1v-.02m0 4.04a1 1 0 0 1 1-1 1 1 0 0 1 1 1 1 1 0 0 1-1 1 1 1 0 0 1-1-1v-.02m0 4.03v-.02a1 1 0 0 1 1-1 1 1 0 0 1 1 1 1 1 0 0 1-1 1 1 1 0 0 1-1-1m0 4.02a1 1 0 0 1 1-1 1 1 0 0 1 1 1 1 1 0 0 1-1 1 1 1 0 0 1-1-1v-.02m0 4.03a1 1 0 0 1 1-1 1 1 0 0 1 1 1 1 1 0 0 1-1 1 1 1 0 0 1-1-1m0 4.02a1 1 0 0 1 1-1 1 1 0 0 1 1 1 1 1 0 0 1-1 1 1 1 0 0 1-1-1v-.02m0 4.04a1 1 0 0 1 1-1 1 1 0 0 1 1 1 1 1 0 0 1-1 1 1 1 0 0 1-1-1v-.02m0 4.03a1 1 0 0 1 1-1 1 1 0 0 1 1 1 1 1 0 0 1-1 1 1 1 0 0 1-1-1v-.02m0 4.03a1 1 0 0 1 1-1 1 1 0 0 1 1 1 1 1 0 0 1-1 1 1 1 0 0 1-1-1v-.02m0 4.03a1 1 0 0 1 1-1 1 1 0 0 1 1 1 1 1 0 0 1-1 1 1 1 0 0 1-1-1v-.02m0 4.03a1 1 0 0 1 1-1 1 1 0 0 1 1 1 1 1 0 0 1-1 1 1 1 0 0 1-1-1v-.02m0 4.04a1 1 0 0 1 1-1 1 1 0 0 1 1 1 1 1 0 0 1-1 1 1 1 0 0 1-1-1v-.02m0 4.03a1 1 0 0 1 1-1 1 1 0 0 1 1 1 1 1 0 0 1-1 1 1 1 0 0 1-1-1m0 4.02a1 1 0 0 1 1-1 1 1 0 0 1 1 1 1 1 0 0 1-1 1 1 1 0 0 1-1-1v-.02m0 4.03a1 1 0 0 1 1-1 1 1 0 0 1 1 1 1 1 0 0 1-1 1 1 1 0 0 1-1-1v-.02m0 4.04a1 1 0 0 1 1-1 1 1 0 0 1 1 1 1 1 0 0 1-1 1 1 1 0 0 1-1-1v-.02m0 4.04a1 1 0 0 1 1-1 1 1 0 0 1 1 1 1 1 0 0 1-1 1 1 1 0 0 1-1-1v-.02m0 4.03a1 1 0 0 1 1-1 1 1 0 0 1 1 1 1 1 0 0 1-1 1 1 1 0 0 1-1-1v-.02m0 4.03a1 1 0 0 1 1-1 1 1 0 0 1 1 1 1 1 0 0 1-1 1 1 1 0 0 1-1-1v-.02m0 4.03v-.02a1 1 0 0 1 1-1 1 1 0 0 1 1 1 1 1 0 0 1-1 1 1 1 0 0 1-1-1m0 4.02a1 1 0 0 1 1-1 1 1 0 0 1 1 1 1 1 0 0 1-1 1 1 1 0 0 1-1-1v-.02m0 4.03a1 1 0 0 1 1-1 1 1 0 0 1 1 1 1 1 0 0 1-1 1 1 1 0 0 1-1-1m0 4.03a1 1 0 0 1 1-1 1 1 0 0 1 1 1 1 1 0 0 1-1 1 1 1 0 0 1-1-1v-.02m0 4.04a1 1 0 0 1 1-1 1 1 0 0 1 1 1 1 1 0 0 1-1 1 1 1 0 0 1-1-1v-.02m0 4.03a1 1 0 0 1 1-1 1 1 0 0 1 1 1 1 1 0 0 1-1 1 1 1 0 0 1-1-1v-.02m0 4.03a1 1 0 0 1 1-1 1 1 0 0 1 1 1 1 1 0 0 1-1 1 1 1 0 0 1-1-1v-.02m0 4.03a1 1 0 0 1 1-1 1 1 0 0 1 1 1 1 1 0 0 1-1 1 1 1 0 0 1-1-1v-.02m0 4.04v-.02a1 1 0 0 1 1-1 1 1 0 0 1 1 1 1 1 0 0 1-1 1 1 1 0 0 1-1-1m0 4.02a1 1 0 0 1 1-1 1 1 0 0 1 1 1 1 1 0 0 1-1 1 1 1 0 0 1-1-1v-.02m0 4.03a1 1 0 0 1 1-1 1 1 0 0 1 1 1 1 1 0 0 1-1 1 1 1 0 0 1-1-1m0 4.02a1 1 0 0 1 1-1 1 1 0 0 1 1 1 1 1 0 0 1-1 1 1 1 0 0 1-1-1v-.02m0 4.03a1 1 0 0 1 1-1 1 1 0 0 1 1 1 1 1 0 0 1-1 1 1 1 0 0 1-1-1v-.02m0 4.05a1 1 0 0 1 1-1 1 1 0 0 1 1 1 1 1 0 0 1-1 1 1 1 0 0 1-1-1v-.02m0 4.03a1 1 0 0 1 1-1 1 1 0 0 1 1 1 1 1 0 0 1-1 1 1 1 0 0 1-1-1v-.02m0 4.03a1 1 0 0 1 1-1 1 1 0 0 1 1 1 1 1 0 0 1-1 1 1 1 0 0 1-1-1v-.02m0 4.03a1 1 0 0 1 1-1 1 1 0 0 1 1 1 1 1 0 0 1-1 1 1 1 0 0 1-1-1v-.02m0 4.03v-.02a1 1 0 0 1 1-1 1 1 0 0 1 1 1 1 1 0 0 1-1 1 1 1 0 0 1-1-1m0 4.03a1 1 0 0 1 1-1 1 1 0 0 1 1 1 1 1 0 0 1-1 1 1 1 0 0 1-1-1m0 4.02a1 1 0 0 1 1-1 1 1 0 0 1 1 1 1 1 0 0 1-1 1 1 1 0 0 1-1-1v-.02m0 4.03a1 1 0 0 1 1-1 1 1 0 0 1 1 1 1 1 0 0 1-1 1 1 1 0 0 1-1-1v-.02m0 4.04a1 1 0 0 1 1-1 1 1 0 0 1 1 1 1 1 0 0 1-1 1 1 1 0 0 1-1-1v-.02m0 4.03a1 1 0 0 1 1-1 1 1 0 0 1 1 1 1 1 0 0 1-1 1 1 1 0 0 1-1-1v-.02m0 4.04a1 1 0 0 1 1-1 1 1 0 0 1 1 1 1 1 0 0 1-1 1 1 1 0 0 1-1-1v-.02m0 4.03a1 1 0 0 1 1-1 1 1 0 0 1 1 1 1 1 0 0 1-1 1 1 1 0 0 1-1-1v-.02m0 4.03v-.02a1 1 0 0 1 1-1 1 1 0 0 1 1 1 1 1 0 0 1-1 1 1 1 0 0 1-1-1m0 4.02a1 1 0 0 1 1-1 1 1 0 0 1 1 1 1 1 0 0 1-1 1 1 1 0 0 1-1-1v-.02m0 4.03a1 1 0 0 1 1-1 1 1 0 0 1 1 1 1 1 0 0 1-1 1 1 1 0 0 1-1-1m-1.75 4.26a1 1 0 0 1 1-1 1 1 0 0 1 1 1 1 1 0 0 1-1 1 1 1 0 0 1-1-1v-.02m-4.25 1.77a1 1 0 0 1 1-1 1 1 0 0 1 1 1 1 1 0 0 1-1 1 1 1 0 0 1-1-1m-4.02 0a1 1 0 0 1 1-1 1 1 0 0 1 1 1 1 1 0 0 1-1 1 1 1 0 0 1-1-1m-4 0a1 1 0 0 1 1-1 1 1 0 0 1 1 1 1 1 0 0 1-1 1 1 1 0 0 1-1-1m-4.03 0a1 1 0 0 1 1-1 1 1 0 0 1 1 1 1 1 0 0 1-1 1 1 1 0 0 1-1-1m-4.02 0a1 1 0 0 1 1-1 1 1 0 0 1 1 1 1 1 0 0 1-1 1 1 1 0 0 1-1-1m-4.02 0a1 1 0 0 1 1-1 1 1 0 0 1 1 1 1 1 0 0 1-1 1 1 1 0 0 1-1-1m-4.03 0a1 1 0 0 1 1-1 1 1 0 0 1 1 1 1 1 0 0 1-1 1 1 1 0 0 1-1-1m-4.02 0a1 1 0 0 1 1-1 1 1 0 0 1 1 1 1 1 0 0 1-1 1 1 1 0 0 1-1-1m-4.02 0a1 1 0 0 1 1-1 1 1 0 0 1 1 1 1 1 0 0 1-1 1 1 1 0 0 1-1-1m-4.02 0a1 1 0 0 1 1-1 1 1 0 0 1 1 1 1 1 0 0 1-1 1 1 1 0 0 1-1-1m-4.02 0a1 1 0 0 1 1-1 1 1 0 0 1 1 1 1 1 0 0 1-1 1 1 1 0 0 1-1-1m-4.02 0a1 1 0 0 1 1-1 1 1 0 0 1 1 1 1 1 0 0 1-1 1 1 1 0 0 1-1-1m-4.02 0a1 1 0 0 1 1-1 1 1 0 0 1 1 1 1 1 0 0 1-1 1 1 1 0 0 1-1-1m-4.03 0a1 1 0 0 1 1-1 1 1 0 0 1 1 1 1 1 0 0 1-1 1 1 1 0 0 1-1-1m-4.02 0a1 1 0 0 1 1-1 1 1 0 0 1 1 1 1 1 0 0 1-1 1 1 1 0 0 1-1-1m-4.02 0a1 1 0 0 1 1-1 1 1 0 0 1 1 1 1 1 0 0 1-1 1 1 1 0 0 1-1-1m-4 0a1 1 0 0 1 1-1 1 1 0 0 1 1 1 1 1 0 0 1-1 1 1 1 0 0 1-1-1m-4.03 0a1 1 0 0 1 1-1 1 1 0 0 1 1 1 1 1 0 0 1-1 1 1 1 0 0 1-1-1m-4.02 0a1 1 0 0 1 1-1 1 1 0 0 1 1 1 1 1 0 0 1-1 1 1 1 0 0 1-1-1m-4.03 0a1 1 0 0 1 1-1 1 1 0 0 1 1 1 1 1 0 0 1-1 1 1 1 0 0 1-1-1m-4.02 0a1 1 0 0 1 1-1 1 1 0 0 1 1 1 1 1 0 0 1-1 1 1 1 0 0 1-1-1m-4.02 0a1 1 0 0 1 1-1 1 1 0 0 1 1 1 1 1 0 0 1-1 1 1 1 0 0 1-1-1m-4.02 0a1 1 0 0 1 1-1 1 1 0 0 1 1 1 1 1 0 0 1-1 1 1 1 0 0 1-1-1m-4.02 0a1 1 0 0 1 1-1 1 1 0 0 1 1 1 1 1 0 0 1-1 1 1 1 0 0 1-1-1m-4.02 0a1 1 0 0 1 1-1 1 1 0 0 1 1 1 1 1 0 0 1-1 1 1 1 0 0 1-1-1m-4.02 0a1 1 0 0 1 1-1 1 1 0 0 1 1 1 1 1 0 0 1-1 1 1 1 0 0 1-1-1m-4.03 0a1 1 0 0 1 1-1 1 1 0 0 1 1 1 1 1 0 0 1-1 1 1 1 0 0 1-1-1m-4.02 0a1 1 0 0 1 1-1 1 1 0 0 1 1 1 1 1 0 0 1-1 1 1 1 0 0 1-1-1m-4.02 0a1 1 0 0 1 1-1 1 1 0 0 1 1 1 1 1 0 0 1-1 1 1 1 0 0 1-1-1m-4.02 0a1 1 0 0 1 1-1 1 1 0 0 1 1 1 1 1 0 0 1-1 1 1 1 0 0 1-1-1m-4 0a1 1 0 0 1 1-1 1 1 0 0 1 1 1 1 1 0 0 1-1 1 1 1 0 0 1-1-1m-4.03 0a1 1 0 0 1 1-1 1 1 0 0 1 1 1 1 1 0 0 1-1 1 1 1 0 0 1-1-1m-4.02 0a1 1 0 0 1 1-1 1 1 0 0 1 1 1 1 1 0 0 1-1 1 1 1 0 0 1-1-1m-4.03 0a1 1 0 0 1 1-1 1 1 0 0 1 1 1 1 1 0 0 1-1 1 1 1 0 0 1-1-1m-4.02 0a1 1 0 0 1 1-1 1 1 0 0 1 1 1 1 1 0 0 1-1 1 1 1 0 0 1-1-1m-4.02 0a1 1 0 0 1 1-1 1 1 0 0 1 1 1 1 1 0 0 1-1 1 1 1 0 0 1-1-1m-4.02 0a1 1 0 0 1 1-1 1 1 0 0 1 1 1 1 1 0 0 1-1 1 1 1 0 0 1-1-1m-4.02 0a1 1 0 0 1 1-1 1 1 0 0 1 1 1 1 1 0 0 1-1 1 1 1 0 0 1-1-1m-4.02 0a1 1 0 0 1 1-1 1 1 0 0 1 1 1 1 1 0 0 1-1 1 1 1 0 0 1-1-1m-4.03 0a1 1 0 0 1 1-1 1 1 0 0 1 1 1 1 1 0 0 1-1 1 1 1 0 0 1-1-1m-4.03 0a1 1 0 0 1 1-1 1 1 0 0 1 1 1 1 1 0 0 1-1 1 1 1 0 0 1-1-1m-4.02 0a1 1 0 0 1 1-1 1 1 0 0 1 1 1 1 1 0 0 1-1 1 1 1 0 0 1-1-1m-4.02 0a1 1 0 0 1 1-1 1 1 0 0 1 1 1 1 1 0 0 1-1 1 1 1 0 0 1-1-1m-4.02 0a1 1 0 0 1 1-1 1 1 0 0 1 1 1 1 1 0 0 1-1 1 1 1 0 0 1-1-1m-4 0a1 1 0 0 1 1-1 1 1 0 0 1 1 1 1 1 0 0 1-1 1 1 1 0 0 1-1-1m-4.03 0a1 1 0 0 1 1-1 1 1 0 0 1 1 1 1 1 0 0 1-1 1 1 1 0 0 1-1-1m-4.02 0a1 1 0 0 1 1-1 1 1 0 0 1 1 1 1 1 0 0 1-1 1 1 1 0 0 1-1-1m-4.03 0a1 1 0 0 1 1-1 1 1 0 0 1 1 1 1 1 0 0 1-1 1 1 1 0 0 1-1-1m-4.02 0a1 1 0 0 1 1-1 1 1 0 0 1 1 1 1 1 0 0 1-1 1 1 1 0 0 1-1-1m-4.02 0a1 1 0 0 1 1-1 1 1 0 0 1 1 1 1 1 0 0 1-1 1 1 1 0 0 1-1-1m-4.02 0a1 1 0 0 1 1-1 1 1 0 0 1 1 1 1 1 0 0 1-1 1 1 1 0 0 1-1-1m-4.02 0a1 1 0 0 1 1-1 1 1 0 0 1 1 1 1 1 0 0 1-1 1 1 1 0 0 1-1-1m-4.02 0a1 1 0 0 1 1-1 1 1 0 0 1 1 1 1 1 0 0 1-1 1 1 1 0 0 1-1-1m-4.03 0a1 1 0 0 1 1-1 1 1 0 0 1 1 1 1 1 0 0 1-1 1 1 1 0 0 1-1-1m-4.03 0a1 1 0 0 1 1-1 1 1 0 0 1 1 1 1 1 0 0 1-1 1 1 1 0 0 1-1-1m-4.02 0a1 1 0 0 1 1-1 1 1 0 0 1 1 1 1 1 0 0 1-1 1 1 1 0 0 1-1-1m-4.02 0a1 1 0 0 1 1-1 1 1 0 0 1 1 1 1 1 0 0 1-1 1 1 1 0 0 1-1-1m-4.02 0a1 1 0 0 1 1-1 1 1 0 0 1 1 1 1 1 0 0 1-1 1 1 1 0 0 1-1-1m-4 0a1 1 0 0 1 1-1 1 1 0 0 1 1 1 1 1 0 0 1-1 1 1 1 0 0 1-1-1m-4.03 0a1 1 0 0 1 1-1 1 1 0 0 1 1 1 1 1 0 0 1-1 1 1 1 0 0 1-1-1m-4.03 0a1 1 0 0 1 1-1 1 1 0 0 1 1 1 1 1 0 0 1-1 1 1 1 0 0 1-1-1m-4.02 0a1 1 0 0 1 1-1 1 1 0 0 1 1 1 1 1 0 0 1-1 1 1 1 0 0 1-1-1m-4.02 0a1 1 0 0 1 1-1 1 1 0 0 1 1 1 1 1 0 0 1-1 1 1 1 0 0 1-1-1m-4.02 0a1 1 0 0 1 1-1 1 1 0 0 1 1 1 1 1 0 0 1-1 1 1 1 0 0 1-1-1m-4.02 0a1 1 0 0 1 1-1 1 1 0 0 1 1 1 1 1 0 0 1-1 1 1 1 0 0 1-1-1m-4.02 0a1 1 0 0 1 1-1 1 1 0 0 1 1 1 1 1 0 0 1-1 1 1 1 0 0 1-1-1m-4.03 0h.02a1 1 0 0 1 1-1 1 1 0 0 1 1 1 1 1 0 0 1-1 1 1 1 0 0 1-1-1m-4.03 0a1 1 0 0 1 1-1 1 1 0 0 1 1 1 1 1 0 0 1-1 1 1 1 0 0 1-1-1m-4.03 0a1 1 0 0 1 1-1 1 1 0 0 1 1 1 1 1 0 0 1-1 1 1 1 0 0 1-1-1m-4.02 0a1 1 0 0 1 1-1 1 1 0 0 1 1 1 1 1 0 0 1-1 1 1 1 0 0 1-1-1m-4.02 0a1 1 0 0 1 1-1 1 1 0 0 1 1 1 1 1 0 0 1-1 1 1 1 0 0 1-1-1m-4.02 0a1 1 0 0 1 1-1 1 1 0 0 1 1 1 1 1 0 0 1-1 1 1 1 0 0 1-1-1m-4 0a1 1 0 0 1 1-1 1 1 0 0 1 1 1 1 1 0 0 1-1 1 1 1 0 0 1-1-1m-4.04 0a1 1 0 0 1 1-1 1 1 0 0 1 1 1 1 1 0 0 1-1 1 1 1 0 0 1-1-1m-4.02 0a1 1 0 0 1 1-1 1 1 0 0 1 1 1 1 1 0 0 1-1 1 1 1 0 0 1-1-1m-4.02 0a1 1 0 0 1 1-1 1 1 0 0 1 1 1 1 1 0 0 1-1 1 1 1 0 0 1-1-1m-4.02 0a1 1 0 0 1 1-1 1 1 0 0 1 1 1 1 1 0 0 1-1 1 1 1 0 0 1-1-1m-4.02 0a1 1 0 0 1 1-1 1 1 0 0 1 1 1 1 1 0 0 1-1 1 1 1 0 0 1-1-1m-4.24-1.74a1 1 0 0 1 1-1 1 1 0 0 1 1 1 1 1 0 0 1-1 1 1 1 0 0 1-1-1v-.02m-1.76-4.23a1 1 0 0 1 1-1 1 1 0 0 1 1 1 1 1 0 0 1-1 1 1 1 0 0 1-1-1m0-4a1 1 0 0 1 1-1 1 1 0 0 1 1 1 1 1 0 0 1-1 1 1 1 0 0 1-1-1v-.02m0-4a1 1 0 0 1 1-1 1 1 0 0 1 1 1 1 1 0 0 1-1 1 1 1 0 0 1-1-1m0-4a1 1 0 0 1 1-1 1 1 0 0 1 1 1 1 1 0 0 1-1 1 1 1 0 0 1-1-1v-.02m0-4a1 1 0 0 1 1-1 1 1 0 0 1 1 1 1 1 0 0 1-1 1 1 1 0 0 1-1-1m0-4v-.02a1 1 0 0 1 1-1 1 1 0 0 1 1 1 1 1 0 0 1-1 1 1 1 0 0 1-1-1m0-4a1 1 0 0 1 1-1 1 1 0 0 1 1 1 1 1 0 0 1-1 1 1 1 0 0 1-1-1v-.02m0-4a1 1 0 0 1 1-1 1 1 0 0 1 1 1 1 1 0 0 1-1 1 1 1 0 0 1-1-1m0-4a1 1 0 0 1 1-1 1 1 0 0 1 1 1 1 1 0 0 1-1 1 1 1 0 0 1-1-1v-.02m0-4a1 1 0 0 1 1-1 1 1 0 0 1 1 1 1 1 0 0 1-1 1 1 1 0 0 1-1-1m0-4v-.02a1 1 0 0 1 1-1 1 1 0 0 1 1 1 1 1 0 0 1-1 1 1 1 0 0 1-1-1m0-4a1 1 0 0 1 1-1 1 1 0 0 1 1 1 1 1 0 0 1-1 1 1 1 0 0 1-1-1v-.02m0-4a1 1 0 0 1 1-1 1 1 0 0 1 1 1 1 1 0 0 1-1 1 1 1 0 0 1-1-1m0-4a1 1 0 0 1 1-1 1 1 0 0 1 1 1 1 1 0 0 1-1 1 1 1 0 0 1-1-1v-.02m0-4a1 1 0 0 1 1-1 1 1 0 0 1 1 1 1 1 0 0 1-1 1 1 1 0 0 1-1-1m0-4v-.02a1 1 0 0 1 1-1 1 1 0 0 1 1 1 1 1 0 0 1-1 1 1 1 0 0 1-1-1m0-4a1 1 0 0 1 1-1 1 1 0 0 1 1 1 1 1 0 0 1-1 1 1 1 0 0 1-1-1v-.02m0-4a1 1 0 0 1 1-1 1 1 0 0 1 1 1 1 1 0 0 1-1 1 1 1 0 0 1-1-1m0-4a1 1 0 0 1 1-1 1 1 0 0 1 1 1 1 1 0 0 1-1 1 1 1 0 0 1-1-1v-.02m0-4a1 1 0 0 1 1-1 1 1 0 0 1 1 1 1 1 0 0 1-1 1 1 1 0 0 1-1-1m0-4a1 1 0 0 1 1-1 1 1 0 0 1 1 1 1 1 0 0 1-1 1 1 1 0 0 1-1-1v-.02m0-4a1 1 0 0 1 1-1 1 1 0 0 1 1 1 1 1 0 0 1-1 1 1 1 0 0 1-1-1v-.02m0-4a1 1 0 0 1 1-1 1 1 0 0 1 1 1 1 1 0 0 1-1 1 1 1 0 0 1-1-1m0-4a1 1 0 0 1 1-1 1 1 0 0 1 1 1 1 1 0 0 1-1 1 1 1 0 0 1-1-1v-.02m0-4a1 1 0 0 1 1-1 1 1 0 0 1 1 1 1 1 0 0 1-1 1 1 1 0 0 1-1-1m0-4v-.02a1 1 0 0 1 1-1 1 1 0 0 1 1 1 1 1 0 0 1-1 1 1 1 0 0 1-1-1m0-4a1 1 0 0 1 1-1 1 1 0 0 1 1 1 1 1 0 0 1-1 1 1 1 0 0 1-1-1v-.02m0-4a1 1 0 0 1 1-1 1 1 0 0 1 1 1 1 1 0 0 1-1 1 1 1 0 0 1-1-1m0-4a1 1 0 0 1 1-1 1 1 0 0 1 1 1 1 1 0 0 1-1 1 1 1 0 0 1-1-1v-.02m0-4a1 1 0 0 1 1-1 1 1 0 0 1 1 1 1 1 0 0 1-1 1 1 1 0 0 1-1-1m0-4a1 1 0 0 1 1-1 1 1 0 0 1 1 1 1 1 0 0 1-1 1 1 1 0 0 1-1-1v-.02m0-4a1 1 0 0 1 1-1 1 1 0 0 1 1 1 1 1 0 0 1-1 1 1 1 0 0 1-1-1v-.02m0-4a1 1 0 0 1 1-1 1 1 0 0 1 1 1 1 1 0 0 1-1 1 1 1 0 0 1-1-1m0-4a1 1 0 0 1 1-1 1 1 0 0 1 1 1 1 1 0 0 1-1 1 1 1 0 0 1-1-1v-.02m0-4a1 1 0 0 1 1-1 1 1 0 0 1 1 1 1 1 0 0 1-1 1 1 1 0 0 1-1-1m0-4a1 1 0 0 1 1-1 1 1 0 0 1 1 1 1 1 0 0 1-1 1 1 1 0 0 1-1-1v-.02m0-4a1 1 0 0 1 1-1 1 1 0 0 1 1 1 1 1 0 0 1-1 1 1 1 0 0 1-1-1v-.02m0-4a1 1 0 0 1 1-1 1 1 0 0 1 1 1 1 1 0 0 1-1 1 1 1 0 0 1-1-1m0-4a1 1 0 0 1 1-1 1 1 0 0 1 1 1 1 1 0 0 1-1 1 1 1 0 0 1-1-1v-.02m0-4a1 1 0 0 1 1-1 1 1 0 0 1 1 1 1 1 0 0 1-1 1 1 1 0 0 1-1-1m0-4a1 1 0 0 1 1-1 1 1 0 0 1 1 1 1 1 0 0 1-1 1 1 1 0 0 1-1-1v-.02m0-4a1 1 0 0 1 1-1 1 1 0 0 1 1 1 1 1 0 0 1-1 1 1 1 0 0 1-1-1v-.02m0-4a1 1 0 0 1 1-1 1 1 0 0 1 1 1 1 1 0 0 1-1 1 1 1 0 0 1-1-1m0-4a1 1 0 0 1 1-1 1 1 0 0 1 1 1 1 1 0 0 1-1 1 1 1 0 0 1-1-1v-.02m0-4a1 1 0 0 1 1-1 1 1 0 0 1 1 1 1 1 0 0 1-1 1 1 1 0 0 1-1-1m0-4a1 1 0 0 1 1-1 1 1 0 0 1 1 1 1 1 0 0 1-1 1 1 1 0 0 1-1-1v-.02m0-4a1 1 0 0 1 1-1 1 1 0 0 1 1 1 1 1 0 0 1-1 1 1 1 0 0 1-1-1v-.02m0-4a1 1 0 0 1 1-1 1 1 0 0 1 1 1 1 1 0 0 1-1 1 1 1 0 0 1-1-1m0-4a1 1 0 0 1 1-1 1 1 0 0 1 1 1 1 1 0 0 1-1 1 1 1 0 0 1-1-1v-.02m0-4a1 1 0 0 1 1-1 1 1 0 0 1 1 1 1 1 0 0 1-1 1 1 1 0 0 1-1-1m0-4a1 1 0 0 1 1-1 1 1 0 0 1 1 1 1 1 0 0 1-1 1 1 1 0 0 1-1-1v-.02m0-4a1 1 0 0 1 1-1 1 1 0 0 1 1 1 1 1 0 0 1-1 1 1 1 0 0 1-1-1m0-4v-.02a1 1 0 0 1 1-1 1 1 0 0 1 1 1 1 1 0 0 1-1 1 1 1 0 0 1-1-1m0-4a1 1 0 0 1 1-1 1 1 0 0 1 1 1 1 1 0 0 1-1 1 1 1 0 0 1-1-1v-.02m0-4a1 1 0 0 1 1-1 1 1 0 0 1 1 1 1 1 0 0 1-1 1 1 1 0 0 1-1-1m0-4a1 1 0 0 1 1-1 1 1 0 0 1 1 1 1 1 0 0 1-1 1 1 1 0 0 1-1-1v-.02m0-4a1 1 0 0 1 1-1 1 1 0 0 1 1 1 1 1 0 0 1-1 1 1 1 0 0 1-1-1m0-4v-.02a1 1 0 0 1 1-1 1 1 0 0 1 1 1 1 1 0 0 1-1 1 1 1 0 0 1-1-1m0-4a1 1 0 0 1 1-1 1 1 0 0 1 1 1 1 1 0 0 1-1 1 1 1 0 0 1-1-1v-.02m0-4a1 1 0 0 1 1-1 1 1 0 0 1 1 1 1 1 0 0 1-1 1 1 1 0 0 1-1-1m0-4a1 1 0 0 1 1-1 1 1 0 0 1 1 1 1 1 0 0 1-1 1 1 1 0 0 1-1-1v-.02m0-4a1 1 0 0 1 1-1 1 1 0 0 1 1 1 1 1 0 0 1-1 1 1 1 0 0 1-1-1m0-4v-.02a1 1 0 0 1 1-1 1 1 0 0 1 1 1 1 1 0 0 1-1 1 1 1 0 0 1-1-1m0-4a1 1 0 0 1 1-1 1 1 0 0 1 1 1 1 1 0 0 1-1 1 1 1 0 0 1-1-1v-.02m0-4a1 1 0 0 1 1-1 1 1 0 0 1 1 1 1 1 0 0 1-1 1 1 1 0 0 1-1-1m0-4a1 1 0 0 1 1-1 1 1 0 0 1 1 1 1 1 0 0 1-1 1 1 1 0 0 1-1-1v-.02m0-4a1 1 0 0 1 1-1 1 1 0 0 1 1 1 1 1 0 0 1-1 1 1 1 0 0 1-1-1m0-4v-.02a1 1 0 0 1 1-1 1 1 0 0 1 1 1 1 1 0 0 1-1 1 1 1 0 0 1-1-1m0-4a1 1 0 0 1 1-1 1 1 0 0 1 1 1 1 1 0 0 1-1 1 1 1 0 0 1-1-1v-.02m0-4a1 1 0 0 1 1-1 1 1 0 0 1 1 1 1 1 0 0 1-1 1 1 1 0 0 1-1-1m0-4a1 1 0 0 1 1-1 1 1 0 0 1 1 1 1 1 0 0 1-1 1 1 1 0 0 1-1-1v-.02m0-4a1 1 0 0 1 1-1 1 1 0 0 1 1 1 1 1 0 0 1-1 1 1 1 0 0 1-1-1m0-4a1 1 0 0 1 1-1 1 1 0 0 1 1 1 1 1 0 0 1-1 1 1 1 0 0 1-1-1v-.02m0-4a1 1 0 0 1 1-1 1 1 0 0 1 1 1 1 1 0 0 1-1 1 1 1 0 0 1-1-1v-.02m0-4a1 1 0 0 1 1-1 1 1 0 0 1 1 1 1 1 0 0 1-1 1 1 1 0 0 1-1-1m0-4a1 1 0 0 1 1-1 1 1 0 0 1 1 1 1 1 0 0 1-1 1 1 1 0 0 1-1-1v-.02m0-4a1 1 0 0 1 1-1 1 1 0 0 1 1 1 1 1 0 0 1-1 1 1 1 0 0 1-1-1m0-4a1 1 0 0 1 1-1 1 1 0 0 1 1 1 1 1 0 0 1-1 1 1 1 0 0 1-1-1v-.02m0-4a1 1 0 0 1 1-1 1 1 0 0 1 1 1 1 1 0 0 1-1 1 1 1 0 0 1-1-1v-.02m0-4a1 1 0 0 1 1-1 1 1 0 0 1 1 1 1 1 0 0 1-1 1 1 1 0 0 1-1-1m0-4a1 1 0 0 1 1-1 1 1 0 0 1 1 1 1 1 0 0 1-1 1 1 1 0 0 1-1-1v-.02m0-4a1 1 0 0 1 1-1 1 1 0 0 1 1 1 1 1 0 0 1-1 1 1 1 0 0 1-1-1m0-4a1 1 0 0 1 1-1 1 1 0 0 1 1 1 1 1 0 0 1-1 1 1 1 0 0 1-1-1v-.02m0-4a1 1 0 0 1 1-1 1 1 0 0 1 1 1 1 1 0 0 1-1 1 1 1 0 0 1-1-1v-.02m0-4a1 1 0 0 1 1-1 1 1 0 0 1 1 1 1 1 0 0 1-1 1 1 1 0 0 1-1-1m0-4a1 1 0 0 1 1-1 1 1 0 0 1 1 1 1 1 0 0 1-1 1 1 1 0 0 1-1-1v-.02m0-4a1 1 0 0 1 1-1 1 1 0 0 1 1 1 1 1 0 0 1-1 1 1 1 0 0 1-1-1m0-4a1 1 0 0 1 1-1 1 1 0 0 1 1 1 1 1 0 0 1-1 1 1 1 0 0 1-1-1v-.02m0-4a1 1 0 0 1 1-1 1 1 0 0 1 1 1 1 1 0 0 1-1 1 1 1 0 0 1-1-1v-.02m0-4a1 1 0 0 1 1-1 1 1 0 0 1 1 1 1 1 0 0 1-1 1 1 1 0 0 1-1-1m0-4a1 1 0 0 1 1-1 1 1 0 0 1 1 1 1 1 0 0 1-1 1 1 1 0 0 1-1-1v-.02m0-4a1 1 0 0 1 1-1 1 1 0 0 1 1 1 1 1 0 0 1-1 1 1 1 0 0 1-1-1m0-4a1 1 0 0 1 1-1 1 1 0 0 1 1 1 1 1 0 0 1-1 1 1 1 0 0 1-1-1v-.02m0-4a1 1 0 0 1 1-1 1 1 0 0 1 1 1 1 1 0 0 1-1 1 1 1 0 0 1-1-1m0-4v-.02a1 1 0 0 1 1-1 1 1 0 0 1 1 1 1 1 0 0 1-1 1 1 1 0 0 1-1-1m0-4a1 1 0 0 1 1-1 1 1 0 0 1 1 1 1 1 0 0 1-1 1 1 1 0 0 1-1-1v-.02m0-4a1 1 0 0 1 1-1 1 1 0 0 1 1 1 1 1 0 0 1-1 1 1 1 0 0 1-1-1m0-4a1 1 0 0 1 1-1 1 1 0 0 1 1 1 1 1 0 0 1-1 1 1 1 0 0 1-1-1v-.02m0-4a1 1 0 0 1 1-1 1 1 0 0 1 1 1 1 1 0 0 1-1 1 1 1 0 0 1-1-1v-.02m0-4a1 1 0 0 1 1-1 1 1 0 0 1 1 1 1 1 0 0 1-1 1 1 1 0 0 1-1-1m0-4a1 1 0 0 1 1-1 1 1 0 0 1 1 1 1 1 0 0 1-1 1 1 1 0 0 1-1-1v-.02m0-4a1 1 0 0 1 1-1 1 1 0 0 1 1 1 1 1 0 0 1-1 1 1 1 0 0 1-1-1m0-4a1 1 0 0 1 1-1 1 1 0 0 1 1 1 1 1 0 0 1-1 1 1 1 0 0 1-1-1v-.02m0-4a1 1 0 0 1 1-1 1 1 0 0 1 1 1 1 1 0 0 1-1 1 1 1 0 0 1-1-1m0-4v-.02a1 1 0 0 1 1-1 1 1 0 0 1 1 1 1 1 0 0 1-1 1 1 1 0 0 1-1-1m0-4a1 1 0 0 1 1-1 1 1 0 0 1 1 1 1 1 0 0 1-1 1 1 1 0 0 1-1-1v-.02m0-4a1 1 0 0 1 1-1 1 1 0 0 1 1 1 1 1 0 0 1-1 1 1 1 0 0 1-1-1m0-4a1 1 0 0 1 1-1 1 1 0 0 1 1 1 1 1 0 0 1-1 1 1 1 0 0 1-1-1v-.02m0-4a1 1 0 0 1 1-1 1 1 0 0 1 1 1 1 1 0 0 1-1 1 1 1 0 0 1-1-1m0-4v-.02a1 1 0 0 1 1-1 1 1 0 0 1 1 1 1 1 0 0 1-1 1 1 1 0 0 1-1-1m0-4a1 1 0 0 1 1-1 1 1 0 0 1 1 1 1 1 0 0 1-1 1 1 1 0 0 1-1-1v-.02m0-4a1 1 0 0 1 1-1 1 1 0 0 1 1 1 1 1 0 0 1-1 1 1 1 0 0 1-1-1m0-4a1 1 0 0 1 1-1 1 1 0 0 1 1 1 1 1 0 0 1-1 1 1 1 0 0 1-1-1v-.02m0-4a1 1 0 0 1 1-1 1 1 0 0 1 1 1 1 1 0 0 1-1 1 1 1 0 0 1-1-1m0-4a1 1 0 0 1 1-1 1 1 0 0 1 1 1 1 1 0 0 1-1 1 1 1 0 0 1-1-1v-.02m0-4a1 1 0 0 1 1-1 1 1 0 0 1 1 1 1 1 0 0 1-1 1 1 1 0 0 1-1-1v-.02m0-4a1 1 0 0 1 1-1 1 1 0 0 1 1 1 1 1 0 0 1-1 1 1 1 0 0 1-1-1m0-4a1 1 0 0 1 1-1 1 1 0 0 1 1 1 1 1 0 0 1-1 1 1 1 0 0 1-1-1v-.02m0-4a1 1 0 0 1 1-1 1 1 0 0 1 1 1 1 1 0 0 1-1 1 1 1 0 0 1-1-1m0-4v-.02a1 1 0 0 1 1-1 1 1 0 0 1 1 1 1 1 0 0 1-1 1 1 1 0 0 1-1-1m0-4a1 1 0 0 1 1-1 1 1 0 0 1 1 1 1 1 0 0 1-1 1 1 1 0 0 1-1-1v-.02m0-4a1 1 0 0 1 1-1 1 1 0 0 1 1 1 1 1 0 0 1-1 1 1 1 0 0 1-1-1m0-4a1 1 0 0 1 1-1 1 1 0 0 1 1 1 1 1 0 0 1-1 1 1 1 0 0 1-1-1v-.02m0-4a1 1 0 0 1 1-1 1 1 0 0 1 1 1 1 1 0 0 1-1 1 1 1 0 0 1-1-1m0-4v-.02a1 1 0 0 1 1-1 1 1 0 0 1 1 1 1 1 0 0 1-1 1 1 1 0 0 1-1-1m0-4a1 1 0 0 1 1-1 1 1 0 0 1 1 1 1 1 0 0 1-1 1 1 1 0 0 1-1-1v-.02m0-4a1 1 0 0 1 1-1 1 1 0 0 1 1 1 1 1 0 0 1-1 1 1 1 0 0 1-1-1m0-4a1 1 0 0 1 1-1 1 1 0 0 1 1 1 1 1 0 0 1-1 1 1 1 0 0 1-1-1v-.02m0-4a1 1 0 0 1 1-1 1 1 0 0 1 1 1 1 1 0 0 1-1 1 1 1 0 0 1-1-1m0-4a1 1 0 0 1 1-1 1 1 0 0 1 1 1 1 1 0 0 1-1 1 1 1 0 0 1-1-1v-.02m0-4a1 1 0 0 1 1-1 1 1 0 0 1 1 1 1 1 0 0 1-1 1 1 1 0 0 1-1-1v-.02m0-4a1 1 0 0 1 1-1 1 1 0 0 1 1 1 1 1 0 0 1-1 1 1 1 0 0 1-1-1m0-4a1 1 0 0 1 1-1 1 1 0 0 1 1 1 1 1 0 0 1-1 1 1 1 0 0 1-1-1v-.02m0-4a1 1 0 0 1 1-1 1 1 0 0 1 1 1 1 1 0 0 1-1 1 1 1 0 0 1-1-1m0-4a1 1 0 0 1 1-1 1 1 0 0 1 1 1 1 1 0 0 1-1 1 1 1 0 0 1-1-1v-.02m0-4a1 1 0 0 1 1-1 1 1 0 0 1 1 1 1 1 0 0 1-1 1 1 1 0 0 1-1-1v-.02m0-4a1 1 0 0 1 1-1 1 1 0 0 1 1 1 1 1 0 0 1-1 1 1 1 0 0 1-1-1"/><defs><path fill="#011b3c" d="M575-1476c247 0 432 154 429 400-2 161-97 271-213 327 135 56 245 179 247 356 3 257-200 413-463 413-265 0-466-156-463-413 2-176 108-302 243-357-115-56-207-166-209-326-4-246 181-400 429-400zm0 1345c168 0 278-101 278-266 0-161-118-276-280-276-163 0-276 113-276 276 0 167 108 266 278 266zm244-942c0-143-104-251-244-251-146 0-244 102-244 251 0 145 98 248 244 248s244-103 244-248" id="aL"/><path fill="#011b3c" d="M729 0H543v-1233l-373 137v-168l530-199h29V0" id="aM"/><path fill="#011b3c" d="M1016-874C1016-303 841 2 305 1v-156c342 4 512-148 525-485-69 82-173 153-315 153-275 0-415-209-415-485 0-296 155-504 451-504 312 0 465 266 465 602zM282-982c0 180 93 342 263 342 134 0 246-99 286-198v-74c5-208-96-410-279-410-174 0-270 155-270 340" id="aN"/><path fill="#011b3c" d="M569-1476c255 0 440 146 439 390 0 143-91 314-274 512L344-151h731V0H121v-133l504-560c75-85 125-155 155-207 105-184 6-424-211-424-183 0-293 113-291 297H93c-3-270 199-449 476-449" id="aO"/><path fill="#011b3c" d="M574-1476c351 0 454 237 460 615v240c0 217-37 378-111 483S733 20 576 20c-346 0-454-246-461-616v-247c0-214 37-373 111-477s190-156 348-156zm275 905c0-337 59-752-275-753-95 0-160 38-207 107-80 118-66 409-67 625 0 157 22 273 68 348s115 113 208 113c91 0 160-35 204-106s69-182 69-334" id="aP"/><g id="a"><use transform="matrix(0.010850694444444444,0,0,0.010850694444444444,0,0)" xlink:href="#aL"/><use transform="matrix(0.010850694444444444,0,0,0.010850694444444444,12.47829861111111,0)" xlink:href="#aM"/><use transform="matrix(0.010850694444444444,0,0,0.010850694444444444,24.95659722222222,0)" xlink:href="#aN"/><use transform="matrix(0.010850694444444444,0,0,0.010850694444444444,37.43489583333333,0)" xlink:href="#aO"/><use transform="matrix(0.010850694444444444,0,0,0.010850694444444444,49.91319444444444,0)" xlink:href="#aP"/></g><path fill="#011b3c" d="M902-489h202v151H902V0H716v-338H53v-109l652-1009h197v967zm-639 0h453v-714l-22 40" id="aQ"/><path fill="#011b3c" d="M132-554c0-555 187-908 715-903v157c-320-8-501 179-526 477 77-88 181-132 314-132 259 0 417 214 417 480 0 286-172 495-451 495-293 0-469-266-469-574zm737 88c0-181-95-335-265-335-133 0-252 96-286 200v68c-6 207 101 397 283 400 175 3 268-150 268-333" id="aR"/><g id="b"><use transform="matrix(0.010850694444444444,0,0,0.010850694444444444,0,0)" xlink:href="#aQ"/><use transform="matrix(0.010850694444444444,0,0,0.010850694444444444,12.47829861111111,0)" xlink:href="#aP"/><use transform="matrix(0.010850694444444444,0,0,0.010850694444444444,24.95659722222222,0)" xlink:href="#aN"/><use transform="matrix(0.010850694444444444,0,0,0.010850694444444444,37.43489583333333,0)" xlink:href="#aR"/><use transform="matrix(0.010850694444444444,0,0,0.010850694444444444,49.91319444444444,0)" xlink:href="#aP"/></g><g id="c"><use transform="matrix(0.010850694444444444,0,0,0.010850694444444444,0,0)" xlink:href="#aO"/><use transform="matrix(0.010850694444444444,0,0,0.010850694444444444,12.47829861111111,0)" xlink:href="#aP"/><use transform="matrix(0.010850694444444444,0,0,0.010850694444444444,24.95659722222222,0)" xlink:href="#aQ"/><use transform="matrix(0.010850694444444444,0,0,0.010850694444444444,37.43489583333333,0)" xlink:href="#aL"/><use transform="matrix(0.010850694444444444,0,0,0.010850694444444444,49.91319444444444,0)" xlink:href="#aP"/></g><path fill="#011b3c" d="M832-402c-1-179-119-264-303-265H390v-151h139c164 0 281-91 281-250 0-171-85-256-255-256-154 0-265 99-263 250H107c-4-235 205-402 448-402 266 0 444 150 440 412-2 148-109 272-229 317 147 45 249 158 251 341 3 262-197 426-461 426C299 20 91-135 94-384h186c-2 156 116 253 276 253 176 0 277-96 276-271" id="aS"/><g id="d"><use transform="matrix(0.010850694444444444,0,0,0.010850694444444444,0,0)" xlink:href="#aM"/><use transform="matrix(0.010850694444444444,0,0,0.010850694444444444,12.47829861111111,0)" xlink:href="#aR"/><use transform="matrix(0.010850694444444444,0,0,0.010850694444444444,24.95659722222222,0)" xlink:href="#aS"/><use transform="matrix(0.010850694444444444,0,0,0.010850694444444444,37.43489583333333,0)" xlink:href="#aL"/><use transform="matrix(0.010850694444444444,0,0,0.010850694444444444,49.91319444444444,0)" xlink:href="#aQ"/></g><g id="e"><use transform="matrix(0.010850694444444444,0,0,0.010850694444444444,0,0)" xlink:href="#aM"/><use transform="matrix(0.010850694444444444,0,0,0.010850694444444444,12.47829861111111,0)" xlink:href="#aP"/><use transform="matrix(0.010850694444444444,0,0,0.010850694444444444,24.95659722222222,0)" xlink:href="#aO"/><use transform="matrix(0.010850694444444444,0,0,0.010850694444444444,37.43489583333333,0)" xlink:href="#aQ"/><use transform="matrix(0.010850694444444444,0,0,0.010850694444444444,49.91319444444444,0)" xlink:href="#aP"/></g><g id="f"><use transform="matrix(0.010850694444444444,0,0,0.010850694444444444,0,0)" xlink:href="#aL"/><use transform="matrix(0.010850694444444444,0,0,0.010850694444444444,12.47829861111111,0)" xlink:href="#aM"/><use transform="matrix(0.010850694444444444,0,0,0.010850694444444444,24.95659722222222,0)" xlink:href="#aN"/><use transform="matrix(0.010850694444444444,0,0,0.010850694444444444,37.43489583333333,0)" xlink:href="#aO"/></g><path fill="#fff" d="M575-1476c247 0 432 154 429 400-2 161-97 271-213 327 135 56 245 179 247 356 3 257-200 413-463 413-265 0-466-156-463-413 2-176 108-302 243-357-115-56-207-166-209-326-4-246 181-400 429-400zm0 1345c168 0 278-101 278-266 0-161-118-276-280-276-163 0-276 113-276 276 0 167 108 266 278 266zm244-942c0-143-104-251-244-251-146 0-244 102-244 251 0 145 98 248 244 248s244-103 244-248" id="aT"/><path fill="#fff" d="M729 0H543v-1233l-373 137v-168l530-199h29V0" id="aU"/><path fill="#fff" d="M1016-874C1016-303 841 2 305 1v-156c342 4 512-148 525-485-69 82-173 153-315 153-275 0-415-209-415-485 0-296 155-504 451-504 312 0 465 266 465 602zM282-982c0 180 93 342 263 342 134 0 246-99 286-198v-74c5-208-96-410-279-410-174 0-270 155-270 340" id="aV"/><path fill="#fff" d="M569-1476c255 0 440 146 439 390 0 143-91 314-274 512L344-151h731V0H121v-133l504-560c75-85 125-155 155-207 105-184 6-424-211-424-183 0-293 113-291 297H93c-3-270 199-449 476-449" id="aW"/><g id="g"><use transform="matrix(0.010850694444444444,0,0,0.010850694444444444,0,0)" xlink:href="#aT"/><use transform="matrix(0.010850694444444444,0,0,0.010850694444444444,12.47829861111111,0)" xlink:href="#aU"/><use transform="matrix(0.010850694444444444,0,0,0.010850694444444444,24.95659722222222,0)" xlink:href="#aV"/><use transform="matrix(0.010850694444444444,0,0,0.010850694444444444,37.43489583333333,0)" xlink:href="#aW"/></g><path fill="#011b3c" d="M884-462c0-185-111-323-291-323-113 0-183 39-239 93l-148-38 74-726h746v171H437l-44 397c71-42 152-63 243-63 273-2 433 205 433 487 0 293-170 484-461 484-260 0-436-159-454-403h175c20 156 111 252 279 252 182 0 276-140 276-331" id="aX"/><g id="h"><use transform="matrix(0.010850694444444444,0,0,0.010850694444444444,0,0)" xlink:href="#aX"/><use transform="matrix(0.010850694444444444,0,0,0.010850694444444444,12.47829861111111,0)" xlink:href="#aM"/><use transform="matrix(0.010850694444444444,0,0,0.010850694444444444,24.95659722222222,0)" xlink:href="#aO"/><use transform="matrix(0.010850694444444444,0,0,0.010850694444444444,37.43489583333333,0)" xlink:href="#aP"/></g><g id="i"><use transform="matrix(0.010850694444444444,0,0,0.010850694444444444,0,0)" xlink:href="#aQ"/><use transform="matrix(0.010850694444444444,0,0,0.010850694444444444,12.47829861111111,0)" xlink:href="#aP"/><use transform="matrix(0.010850694444444444,0,0,0.010850694444444444,24.95659722222222,0)" xlink:href="#aN"/><use transform="matrix(0.010850694444444444,0,0,0.010850694444444444,37.43489583333333,0)" xlink:href="#aR"/></g><use transform="matrix(0.010850694444444444,0,0,0.010850694444444444,0,0)" xlink:href="#aP" id="j"/><use transform="matrix(0.010850694444444444,0,0,0.010850694444444444,0,0)" xlink:href="#aM" id="k"/><use transform="matrix(0.010850694444444444,0,0,0.010850694444444444,0,0)" xlink:href="#aO" id="l"/><use transform="matrix(0.010850694444444444,0,0,0.010850694444444444,0,0)" xlink:href="#aS" id="m"/><use transform="matrix(0.010850694444444444,0,0,0.010850694444444444,0,0)" xlink:href="#aQ" id="n"/><use transform="matrix(0.010850694444444444,0,0,0.010850694444444444,0,0)" xlink:href="#aX" id="o"/><use transform="matrix(0.010850694444444444,0,0,0.010850694444444444,0,0)" xlink:href="#aR" id="p"/><path fill="#011b3c" d="M1061-1352L458 0H264l601-1304H77v-152h984v104" id="aY"/><use transform="matrix(0.010850694444444444,0,0,0.010850694444444444,0,0)" xlink:href="#aY" id="q"/><use transform="matrix(0.010850694444444444,0,0,0.010850694444444444,0,0)" xlink:href="#aL" id="r"/><use transform="matrix(0.010850694444444444,0,0,0.010850694444444444,0,0)" xlink:href="#aN" id="s"/><g id="t"><use transform="matrix(0.010850694444444444,0,0,0.010850694444444444,0,0)" xlink:href="#aM"/><use transform="matrix(0.010850694444444444,0,0,0.010850694444444444,12.47829861111111,0)" xlink:href="#aP"/></g><g id="u"><use transform="matrix(0.010850694444444444,0,0,0.010850694444444444,0,0)" xlink:href="#aM"/><use transform="matrix(0.010850694444444444,0,0,0.010850694444444444,12.47829861111111,0)" xlink:href="#aM"/></g><g id="v"><use transform="matrix(0.010850694444444444,0,0,0.010850694444444444,0,0)" xlink:href="#aM"/><use transform="matrix(0.010850694444444444,0,0,0.010850694444444444,12.47829861111111,0)" xlink:href="#aO"/></g><g id="w"><use transform="matrix(0.010850694444444444,0,0,0.010850694444444444,0,0)" xlink:href="#aM"/><use transform="matrix(0.010850694444444444,0,0,0.010850694444444444,12.47829861111111,0)" xlink:href="#aS"/></g><g id="x"><use transform="matrix(0.010850694444444444,0,0,0.010850694444444444,0,0)" xlink:href="#aM"/><use transform="matrix(0.010850694444444444,0,0,0.010850694444444444,12.47829861111111,0)" xlink:href="#aQ"/></g><g id="y"><use transform="matrix(0.010850694444444444,0,0,0.010850694444444444,0,0)" xlink:href="#aM"/><use transform="matrix(0.010850694444444444,0,0,0.010850694444444444,12.47829861111111,0)" xlink:href="#aX"/></g><g id="z"><use transform="matrix(0.010850694444444444,0,0,0.010850694444444444,0,0)" xlink:href="#aM"/><use transform="matrix(0.010850694444444444,0,0,0.010850694444444444,12.47829861111111,0)" xlink:href="#aR"/></g><g id="A"><use transform="matrix(0.010850694444444444,0,0,0.010850694444444444,0,0)" xlink:href="#aM"/><use transform="matrix(0.010850694444444444,0,0,0.010850694444444444,12.47829861111111,0)" xlink:href="#aY"/></g><g id="B"><use transform="matrix(0.010850694444444444,0,0,0.010850694444444444,0,0)" xlink:href="#aM"/><use transform="matrix(0.010850694444444444,0,0,0.010850694444444444,12.47829861111111,0)" xlink:href="#aL"/></g><g id="C"><use transform="matrix(0.010850694444444444,0,0,0.010850694444444444,0,0)" xlink:href="#aM"/><use transform="matrix(0.010850694444444444,0,0,0.010850694444444444,12.47829861111111,0)" xlink:href="#aN"/></g><g id="D"><use transform="matrix(0.010850694444444444,0,0,0.010850694444444444,0,0)" xlink:href="#aO"/><use transform="matrix(0.010850694444444444,0,0,0.010850694444444444,12.47829861111111,0)" xlink:href="#aP"/></g><g id="E"><use transform="matrix(0.010850694444444444,0,0,0.010850694444444444,0,0)" xlink:href="#aO"/><use transform="matrix(0.010850694444444444,0,0,0.010850694444444444,12.47829861111111,0)" xlink:href="#aM"/></g><g id="F"><use transform="matrix(0.010850694444444444,0,0,0.010850694444444444,0,0)" xlink:href="#aO"/><use transform="matrix(0.010850694444444444,0,0,0.010850694444444444,12.47829861111111,0)" xlink:href="#aO"/></g><g id="G"><use transform="matrix(0.010850694444444444,0,0,0.010850694444444444,0,0)" xlink:href="#aO"/><use transform="matrix(0.010850694444444444,0,0,0.010850694444444444,12.47829861111111,0)" xlink:href="#aS"/></g><g id="H"><use transform="matrix(0.010850694444444444,0,0,0.010850694444444444,0,0)" xlink:href="#aO"/><use transform="matrix(0.010850694444444444,0,0,0.010850694444444444,12.47829861111111,0)" xlink:href="#aQ"/></g><g id="I"><use transform="matrix(0.010850694444444444,0,0,0.010850694444444444,0,0)" xlink:href="#aO"/><use transform="matrix(0.010850694444444444,0,0,0.010850694444444444,12.47829861111111,0)" xlink:href="#aX"/></g><g id="J"><use transform="matrix(0.010850694444444444,0,0,0.010850694444444444,0,0)" xlink:href="#aO"/><use transform="matrix(0.010850694444444444,0,0,0.010850694444444444,12.47829861111111,0)" xlink:href="#aR"/></g><g id="K"><use transform="matrix(0.010850694444444444,0,0,0.010850694444444444,0,0)" xlink:href="#aO"/><use transform="matrix(0.010850694444444444,0,0,0.010850694444444444,12.47829861111111,0)" xlink:href="#aY"/></g><g id="L"><use transform="matrix(0.010850694444444444,0,0,0.010850694444444444,0,0)" xlink:href="#aO"/><use transform="matrix(0.010850694444444444,0,0,0.010850694444444444,12.47829861111111,0)" xlink:href="#aL"/></g><g id="M"><use transform="matrix(0.010850694444444444,0,0,0.010850694444444444,0,0)" xlink:href="#aO"/><use transform="matrix(0.010850694444444444,0,0,0.010850694444444444,12.47829861111111,0)" xlink:href="#aN"/></g><g id="N"><use transform="matrix(0.010850694444444444,0,0,0.010850694444444444,0,0)" xlink:href="#aS"/><use transform="matrix(0.010850694444444444,0,0,0.010850694444444444,12.47829861111111,0)" xlink:href="#aP"/></g><g id="O"><use transform="matrix(0.010850694444444444,0,0,0.010850694444444444,0,0)" xlink:href="#aS"/><use transform="matrix(0.010850694444444444,0,0,0.010850694444444444,12.47829861111111,0)" xlink:href="#aM"/></g><g id="P"><use transform="matrix(0.010850694444444444,0,0,0.010850694444444444,0,0)" xlink:href="#aS"/><use transform="matrix(0.010850694444444444,0,0,0.010850694444444444,12.47829861111111,0)" xlink:href="#aO"/></g><g id="Q"><use transform="matrix(0.010850694444444444,0,0,0.010850694444444444,0,0)" xlink:href="#aS"/><use transform="matrix(0.010850694444444444,0,0,0.010850694444444444,12.47829861111111,0)" xlink:href="#aS"/></g><g id="R"><use transform="matrix(0.010850694444444444,0,0,0.010850694444444444,0,0)" xlink:href="#aS"/><use transform="matrix(0.010850694444444444,0,0,0.010850694444444444,12.47829861111111,0)" xlink:href="#aQ"/></g><g id="S"><use transform="matrix(0.010850694444444444,0,0,0.010850694444444444,0,0)" xlink:href="#aS"/><use transform="matrix(0.010850694444444444,0,0,0.010850694444444444,12.47829861111111,0)" xlink:href="#aX"/></g><g id="T"><use transform="matrix(0.010850694444444444,0,0,0.010850694444444444,0,0)" xlink:href="#aS"/><use transform="matrix(0.010850694444444444,0,0,0.010850694444444444,12.47829861111111,0)" xlink:href="#aR"/></g><g id="U"><use transform="matrix(0.010850694444444444,0,0,0.010850694444444444,0,0)" xlink:href="#aS"/><use transform="matrix(0.010850694444444444,0,0,0.010850694444444444,12.47829861111111,0)" xlink:href="#aY"/></g><g id="V"><use transform="matrix(0.010850694444444444,0,0,0.010850694444444444,0,0)" xlink:href="#aS"/><use transform="matrix(0.010850694444444444,0,0,0.010850694444444444,12.47829861111111,0)" xlink:href="#aL"/></g><g id="W"><use transform="matrix(0.010850694444444444,0,0,0.010850694444444444,0,0)" xlink:href="#aS"/><use transform="matrix(0.010850694444444444,0,0,0.010850694444444444,12.47829861111111,0)" xlink:href="#aN"/></g><g id="X"><use transform="matrix(0.010850694444444444,0,0,0.010850694444444444,0,0)" xlink:href="#aQ"/><use transform="matrix(0.010850694444444444,0,0,0.010850694444444444,12.47829861111111,0)" xlink:href="#aP"/></g><g id="Y"><use transform="matrix(0.010850694444444444,0,0,0.010850694444444444,0,0)" xlink:href="#aQ"/><use transform="matrix(0.010850694444444444,0,0,0.010850694444444444,12.47829861111111,0)" xlink:href="#aM"/></g><g id="Z"><use transform="matrix(0.010850694444444444,0,0,0.010850694444444444,0,0)" xlink:href="#aQ"/><use transform="matrix(0.010850694444444444,0,0,0.010850694444444444,12.47829861111111,0)" xlink:href="#aO"/></g><g id="aa"><use transform="matrix(0.010850694444444444,0,0,0.010850694444444444,0,0)" xlink:href="#aQ"/><use transform="matrix(0.010850694444444444,0,0,0.010850694444444444,12.47829861111111,0)" xlink:href="#aS"/></g><g id="ab"><use transform="matrix(0.010850694444444444,0,0,0.010850694444444444,0,0)" xlink:href="#aQ"/><use transform="matrix(0.010850694444444444,0,0,0.010850694444444444,12.47829861111111,0)" xlink:href="#aQ"/></g><g id="ac"><use transform="matrix(0.010850694444444444,0,0,0.010850694444444444,0,0)" xlink:href="#aQ"/><use transform="matrix(0.010850694444444444,0,0,0.010850694444444444,12.47829861111111,0)" xlink:href="#aX"/></g><g id="ad"><use transform="matrix(0.010850694444444444,0,0,0.010850694444444444,0,0)" xlink:href="#aQ"/><use transform="matrix(0.010850694444444444,0,0,0.010850694444444444,12.47829861111111,0)" xlink:href="#aR"/></g><g id="ae"><use transform="matrix(0.010850694444444444,0,0,0.010850694444444444,0,0)" xlink:href="#aQ"/><use transform="matrix(0.010850694444444444,0,0,0.010850694444444444,12.47829861111111,0)" xlink:href="#aY"/></g><g id="af"><use transform="matrix(0.010850694444444444,0,0,0.010850694444444444,0,0)" xlink:href="#aQ"/><use transform="matrix(0.010850694444444444,0,0,0.010850694444444444,12.47829861111111,0)" xlink:href="#aL"/></g><g id="ag"><use transform="matrix(0.010850694444444444,0,0,0.010850694444444444,0,0)" xlink:href="#aQ"/><use transform="matrix(0.010850694444444444,0,0,0.010850694444444444,12.47829861111111,0)" xlink:href="#aN"/></g><g id="ah"><use transform="matrix(0.010850694444444444,0,0,0.010850694444444444,0,0)" xlink:href="#aX"/><use transform="matrix(0.010850694444444444,0,0,0.010850694444444444,12.47829861111111,0)" xlink:href="#aP"/></g><g id="ai"><use transform="matrix(0.010850694444444444,0,0,0.010850694444444444,0,0)" xlink:href="#aX"/><use transform="matrix(0.010850694444444444,0,0,0.010850694444444444,12.47829861111111,0)" xlink:href="#aM"/></g><g id="aj"><use transform="matrix(0.010850694444444444,0,0,0.010850694444444444,0,0)" xlink:href="#aX"/><use transform="matrix(0.010850694444444444,0,0,0.010850694444444444,12.47829861111111,0)" xlink:href="#aO"/></g><g id="ak"><use transform="matrix(0.010850694444444444,0,0,0.010850694444444444,0,0)" xlink:href="#aX"/><use transform="matrix(0.010850694444444444,0,0,0.010850694444444444,12.47829861111111,0)" xlink:href="#aS"/></g><g id="al"><use transform="matrix(0.010850694444444444,0,0,0.010850694444444444,0,0)" xlink:href="#aX"/><use transform="matrix(0.010850694444444444,0,0,0.010850694444444444,12.47829861111111,0)" xlink:href="#aQ"/></g><g id="am"><use transform="matrix(0.010850694444444444,0,0,0.010850694444444444,0,0)" xlink:href="#aX"/><use transform="matrix(0.010850694444444444,0,0,0.010850694444444444,12.47829861111111,0)" xlink:href="#aX"/></g><g id="an"><use transform="matrix(0.010850694444444444,0,0,0.010850694444444444,0,0)" xlink:href="#aX"/><use transform="matrix(0.010850694444444444,0,0,0.010850694444444444,12.47829861111111,0)" xlink:href="#aR"/></g><g id="ao"><use transform="matrix(0.010850694444444444,0,0,0.010850694444444444,0,0)" xlink:href="#aX"/><use transform="matrix(0.010850694444444444,0,0,0.010850694444444444,12.47829861111111,0)" xlink:href="#aY"/></g><g id="ap"><use transform="matrix(0.010850694444444444,0,0,0.010850694444444444,0,0)" xlink:href="#aX"/><use transform="matrix(0.010850694444444444,0,0,0.010850694444444444,12.47829861111111,0)" xlink:href="#aL"/></g><g id="aq"><use transform="matrix(0.010850694444444444,0,0,0.010850694444444444,0,0)" xlink:href="#aX"/><use transform="matrix(0.010850694444444444,0,0,0.010850694444444444,12.47829861111111,0)" xlink:href="#aN"/></g><g id="ar"><use transform="matrix(0.010850694444444444,0,0,0.010850694444444444,0,0)" xlink:href="#aR"/><use transform="matrix(0.010850694444444444,0,0,0.010850694444444444,12.47829861111111,0)" xlink:href="#aP"/></g><g id="as"><use transform="matrix(0.010850694444444444,0,0,0.010850694444444444,0,0)" xlink:href="#aR"/><use transform="matrix(0.010850694444444444,0,0,0.010850694444444444,12.47829861111111,0)" xlink:href="#aM"/></g><g id="at"><use transform="matrix(0.010850694444444444,0,0,0.010850694444444444,0,0)" xlink:href="#aR"/><use transform="matrix(0.010850694444444444,0,0,0.010850694444444444,12.47829861111111,0)" xlink:href="#aO"/></g><g id="au"><use transform="matrix(0.010850694444444444,0,0,0.010850694444444444,0,0)" xlink:href="#aR"/><use transform="matrix(0.010850694444444444,0,0,0.010850694444444444,12.47829861111111,0)" xlink:href="#aS"/></g><g id="av"><use transform="matrix(0.010850694444444444,0,0,0.010850694444444444,0,0)" xlink:href="#aR"/><use transform="matrix(0.010850694444444444,0,0,0.010850694444444444,12.47829861111111,0)" xlink:href="#aQ"/></g><g id="aw"><use transform="matrix(0.010850694444444444,0,0,0.010850694444444444,0,0)" xlink:href="#aR"/><use transform="matrix(0.010850694444444444,0,0,0.010850694444444444,12.47829861111111,0)" xlink:href="#aX"/></g><g id="ax"><use transform="matrix(0.010850694444444444,0,0,0.010850694444444444,0,0)" xlink:href="#aR"/><use transform="matrix(0.010850694444444444,0,0,0.010850694444444444,12.47829861111111,0)" xlink:href="#aR"/></g><g id="ay"><use transform="matrix(0.010850694444444444,0,0,0.010850694444444444,0,0)" xlink:href="#aR"/><use transform="matrix(0.010850694444444444,0,0,0.010850694444444444,12.47829861111111,0)" xlink:href="#aY"/></g><g id="az"><use transform="matrix(0.010850694444444444,0,0,0.010850694444444444,0,0)" xlink:href="#aR"/><use transform="matrix(0.010850694444444444,0,0,0.010850694444444444,12.47829861111111,0)" xlink:href="#aL"/></g><g id="aA"><use transform="matrix(0.010850694444444444,0,0,0.010850694444444444,0,0)" xlink:href="#aR"/><use transform="matrix(0.010850694444444444,0,0,0.010850694444444444,12.47829861111111,0)" xlink:href="#aN"/></g><g id="aB"><use transform="matrix(0.010850694444444444,0,0,0.010850694444444444,0,0)" xlink:href="#aY"/><use transform="matrix(0.010850694444444444,0,0,0.010850694444444444,12.47829861111111,0)" xlink:href="#aP"/></g><g id="aC"><use transform="matrix(0.010850694444444444,0,0,0.010850694444444444,0,0)" xlink:href="#aY"/><use transform="matrix(0.010850694444444444,0,0,0.010850694444444444,12.47829861111111,0)" xlink:href="#aM"/></g><g id="aD"><use transform="matrix(0.010850694444444444,0,0,0.010850694444444444,0,0)" xlink:href="#aY"/><use transform="matrix(0.010850694444444444,0,0,0.010850694444444444,12.47829861111111,0)" xlink:href="#aO"/></g><g id="aE"><use transform="matrix(0.010850694444444444,0,0,0.010850694444444444,0,0)" xlink:href="#aY"/><use transform="matrix(0.010850694444444444,0,0,0.010850694444444444,12.47829861111111,0)" xlink:href="#aS"/></g><g id="aF"><use transform="matrix(0.010850694444444444,0,0,0.010850694444444444,0,0)" xlink:href="#aY"/><use transform="matrix(0.010850694444444444,0,0,0.010850694444444444,12.47829861111111,0)" xlink:href="#aQ"/></g><g id="aG"><use transform="matrix(0.010850694444444444,0,0,0.010850694444444444,0,0)" xlink:href="#aY"/><use transform="matrix(0.010850694444444444,0,0,0.010850694444444444,12.47829861111111,0)" xlink:href="#aX"/></g><g id="aH"><use transform="matrix(0.010850694444444444,0,0,0.010850694444444444,0,0)" xlink:href="#aY"/><use transform="matrix(0.010850694444444444,0,0,0.010850694444444444,12.47829861111111,0)" xlink:href="#aR"/></g><g id="aI"><use transform="matrix(0.010850694444444444,0,0,0.010850694444444444,0,0)" xlink:href="#aY"/><use transform="matrix(0.010850694444444444,0,0,0.010850694444444444,12.47829861111111,0)" xlink:href="#aY"/></g><g id="aJ"><use transform="matrix(0.010850694444444444,0,0,0.010850694444444444,0,0)" xlink:href="#aY"/><use transform="matrix(0.010850694444444444,0,0,0.010850694444444444,12.47829861111111,0)" xlink:href="#aL"/></g><g id="aK"><use transform="matrix(0.010850694444444444,0,0,0.010850694444444444,0,0)" xlink:href="#aY"/><use transform="matrix(0.010850694444444444,0,0,0.010850694444444444,12.47829861111111,0)" xlink:href="#aN"/></g></defs></g></svg>