<svg xmlns="http://www.w3.org/2000/svg" xmlns:xlink="http://www.w3.org/1999/xlink" xmlns:lucid="lucid" width="2578.37" height="428.67"><g transform="translate(-1274.8152342741948 -4147.666666665135)" lucid:page-tab-id="0_0"><path d="M-500-1000h5000v6000H-500z" fill="#fff"/><path d="M1275.82 4154.67a6 6 0 0 1 6-6h2564.36a6 6 0 0 1 6 6V4196a6 6 0 0 1-6 6H1281.82a6 6 0 0 1-6-6z" stroke="#282c33" stroke-width="2" fill="#cfe4ff"/><use xlink:href="#a" transform="matrix(1,0,0,1,1287.8152343692523,4160.666666666668) translate(1245.3042534722222 22.491319444444443)"/><path d="M1275.82 4208a6 6 0 0 1 6-6H2558a6 6 0 0 1 6 6v41.33a6 6 0 0 1-6 6H1281.82a6 6 0 0 1-6-6z" stroke="#282c33" stroke-width="2" fill="#cfe4ff"/><use xlink:href="#b" transform="matrix(1,0,0,1,1287.8152343692527,4214.000000000001) translate(601.3042534722222 22.491319444444443)"/><path d="M2564 4208a6 6 0 0 1 6-6h1276.18a6 6 0 0 1 6 6v41.33a6 6 0 0 1-6 6H2570a6 6 0 0 1-6-6z" stroke="#282c33" stroke-width="2" fill="#cfe4ff"/><use xlink:href="#b" transform="matrix(1,0,0,1,2576,4214.000000000001) translate(601.3042534722222 22.491319444444443)"/><path d="M1275.82 4261.33a6 6 0 0 1 6-6h632.1a6 6 0 0 1 6 6v41.34a6 6 0 0 1-6 6h-632.1a6 6 0 0 1-6-6z" stroke="#282c33" stroke-width="2" fill="#cfe4ff"/><use xlink:href="#c" transform="matrix(1,0,0,1,1287.8152343692527,4267.333333333334) translate(279.30425347222223 22.491319444444443)"/><path d="M1919.9 4261.33a6 6 0 0 1 6-6H2558a6 6 0 0 1 6 6v41.34a6 6 0 0 1-6 6h-632.1a6 6 0 0 1-6-6z" stroke="#282c33" stroke-width="2" fill="#cfe4ff"/><use xlink:href="#c" transform="matrix(1,0,0,1,1931.9076171846261,4267.333333333334) translate(279.30425347222223 22.491319444444443)"/><path d="M2564 4261.33a6 6 0 0 1 6-6h632.1a6 6 0 0 1 6 6v41.34a6 6 0 0 1-6 6H2570a6 6 0 0 1-6-6z" stroke="#282c33" stroke-width="2" fill="#fc9432"/><use xlink:href="#c" transform="matrix(1,0,0,1,2575.9999999999995,4267.333333333334) translate(279.30425347222223 22.491319444444443)"/><path d="M3208.1 4261.33a6 6 0 0 1 6-6h632.1a6 6 0 0 1 6 6v41.34a6 6 0 0 1-6 6h-632.1a6 6 0 0 1-6-6z" stroke="#282c33" stroke-width="2" fill="#cfe4ff"/><use xlink:href="#c" transform="matrix(1,0,0,1,3220.0923828153727,4267.333333333334) translate(279.30425347222223 22.491319444444443)"/><path d="M1275.82 4314.67a6 6 0 0 1 6-6h503.27a6 6 0 0 1 6 6V4356a6 6 0 0 1-6 6H1281.8a6 6 0 0 1-6-6z" stroke="#282c33" stroke-width="2" fill="#fc9432"/><use xlink:href="#d" transform="matrix(1,0,0,1,1287.8152343692527,4320.666666666667) translate(214.80425347222223 22.491319444444443)"/><path d="M1791.1 4314.67a6 6 0 0 1 6-6h503.26a6 6 0 0 1 6 6V4356a6 6 0 0 1-6 6H1797.1a6 6 0 0 1-6-6z" stroke="#282c33" stroke-width="2" fill="#fc9432"/><use xlink:href="#d" transform="matrix(1,0,0,1,1803.0891406215515,4320.666666666667) translate(214.80425347222223 22.491319444444443)"/><path d="M2306.36 4314.67a6 6 0 0 1 6-6h503.28a6 6 0 0 1 6 6V4356a6 6 0 0 1-6 6h-503.28a6 6 0 0 1-6-6z" stroke="#282c33" stroke-width="2" fill="#cfe4ff"/><use xlink:href="#d" transform="matrix(1,0,0,1,2318.36304687385,4320.666666666667) translate(214.80425347222223 22.491319444444443)"/><path d="M2821.64 4314.67a6 6 0 0 1 6-6h503.27a6 6 0 0 1 6 6V4356a6 6 0 0 1-6 6h-503.26a6 6 0 0 1-6-6z" stroke="#282c33" stroke-width="2" fill="#cfe4ff"/><use xlink:href="#d" transform="matrix(1,0,0,1,2833.6369531261494,4320.666666666667) translate(214.80425347222223 22.491319444444443)"/><path d="M3336.9 4314.67a6 6 0 0 1 6-6h503.28a6 6 0 0 1 6 6V4356a6 6 0 0 1-6 6H3342.9a6 6 0 0 1-6-6z" stroke="#282c33" stroke-width="2" fill="#fc9432"/><use xlink:href="#d" transform="matrix(1,0,0,1,3348.910859378448,4320.666666666667) translate(214.80425347222223 22.491319444444443)"/><path d="M1275.82 4368a6 6 0 0 1 6-6h310.04a6 6 0 0 1 6 6v41.33a6 6 0 0 1-6 6h-310.04a6 6 0 0 1-6-6z" stroke="#282c33" stroke-width="2" fill="#cfe4ff"/><use xlink:href="#e" transform="matrix(1,0,0,1,1287.8152343692534,4374) translate(118.30425347222223 22.491319444444443)"/><path d="M1597.86 4368a6 6 0 0 1 6-6h310.05a6 6 0 0 1 6 6v41.33a6 6 0 0 1-6 6h-310.04a6 6 0 0 1-6-6z" stroke="#282c33" stroke-width="2" fill="#cfe4ff"/><use xlink:href="#e" transform="matrix(1,0,0,1,1609.8614257769402,4374) translate(118.30425347222223 22.491319444444443)"/><path d="M1919.9 4368a6 6 0 0 1 6-6h310.05a6 6 0 0 1 6 6v41.33a6 6 0 0 1-6 6H1925.9a6 6 0 0 1-6-6z" stroke="#282c33" stroke-width="2" fill="#cfe4ff"/><use xlink:href="#e" transform="matrix(1,0,0,1,1931.907617184627,4374) translate(118.30425347222223 22.491319444444443)"/><path d="M2241.95 4368a6 6 0 0 1 6-6H2558a6 6 0 0 1 6 6v41.33a6 6 0 0 1-6 6h-310.05a6 6 0 0 1-6-6z" stroke="#282c33" stroke-width="2" fill="#cfe4ff"/><use xlink:href="#e" transform="matrix(1,0,0,1,2253.9538085923136,4374) translate(118.30425347222223 22.491319444444443)"/><path d="M2564 4368a6 6 0 0 1 6-6h310.05a6 6 0 0 1 6 6v41.33a6 6 0 0 1-6 6H2570a6 6 0 0 1-6-6z" stroke="#282c33" stroke-width="2" fill="#cfe4ff"/><use xlink:href="#e" transform="matrix(1,0,0,1,2576.0000000000005,4374) translate(118.30425347222223 22.491319444444443)"/><path d="M2886.05 4368a6 6 0 0 1 6-6h310.04a6 6 0 0 1 6 6v41.33a6 6 0 0 1-6 6h-310.05a6 6 0 0 1-6-6z" stroke="#282c33" stroke-width="2" fill="#cfe4ff"/><use xlink:href="#e" transform="matrix(1,0,0,1,2898.0461914076873,4374) translate(118.30425347222223 22.491319444444443)"/><path d="M3208.1 4368a6 6 0 0 1 6-6h310.04a6 6 0 0 1 6 6v41.33a6 6 0 0 1-6 6H3214.1a6 6 0 0 1-6-6z" stroke="#282c33" stroke-width="2" fill="#cfe4ff"/><use xlink:href="#e" transform="matrix(1,0,0,1,3220.0923828153736,4374) translate(118.30425347222223 22.491319444444443)"/><path d="M3530.14 4368a6 6 0 0 1 6-6h310.05a6 6 0 0 1 6 6v41.33a6 6 0 0 1-6 6h-310.06a6 6 0 0 1-6-6z" stroke="#282c33" stroke-width="2" fill="#cfe4ff"/><use xlink:href="#e" transform="matrix(1,0,0,1,3542.1385742230605,4374) translate(118.30425347222223 22.491319444444443)"/><path d="M1275.82 4421.33a6 6 0 0 1 6-6h245.63a6 6 0 0 1 6 6v41.34a6 6 0 0 1-6 6h-245.63a6 6 0 0 1-6-6z" stroke="#282c33" stroke-width="2" fill="#cfe4ff"/><use xlink:href="#f" transform="matrix(1,0,0,1,1287.8152343692536,4427.333333333333) translate(92.04340277777777 22.491319444444443)"/><path d="M1533.45 4421.33a6 6 0 0 1 6-6h245.64a6 6 0 0 1 6 6v41.34a6 6 0 0 1-6 6h-245.65a6 6 0 0 1-6-6z" stroke="#282c33" stroke-width="2" fill="#cfe4ff"/><use xlink:href="#f" transform="matrix(1,0,0,1,1545.452187495403,4427.333333333333) translate(92.04340277777777 22.491319444444443)"/><path d="M1791.1 4421.33a6 6 0 0 1 6-6h245.63a6 6 0 0 1 6 6v41.34a6 6 0 0 1-6 6H1797.1a6 6 0 0 1-6-6z" stroke="#282c33" stroke-width="2" fill="#cfe4ff"/><use xlink:href="#f" transform="matrix(1,0,0,1,1803.0891406215524,4427.333333333333) translate(92.04340277777777 22.491319444444443)"/><path d="M2048.73 4421.33a6 6 0 0 1 6-6h245.63a6 6 0 0 1 6 6v41.34a6 6 0 0 1-6 6h-245.63a6 6 0 0 1-6-6z" stroke="#282c33" stroke-width="2" fill="#cfe4ff"/><use xlink:href="#f" transform="matrix(1,0,0,1,2060.7260937477017,4427.333333333333) translate(92.04340277777777 22.491319444444443)"/><path d="M2306.36 4421.33a6 6 0 0 1 6-6H2558a6 6 0 0 1 6 6v41.34a6 6 0 0 1-6 6h-245.64a6 6 0 0 1-6-6z" stroke="#282c33" stroke-width="2" fill="#cfe4ff"/><use xlink:href="#f" transform="matrix(1,0,0,1,2318.363046873851,4427.333333333333) translate(92.04340277777777 22.491319444444443)"/><path d="M2564 4421.33a6 6 0 0 1 6-6h245.64a6 6 0 0 1 6 6v41.34a6 6 0 0 1-6 6H2570a6 6 0 0 1-6-6z" stroke="#282c33" stroke-width="2" fill="#cfe4ff"/><use xlink:href="#f" transform="matrix(1,0,0,1,2576.0000000000005,4427.333333333333) translate(92.04340277777777 22.491319444444443)"/><path d="M2821.64 4421.33a6 6 0 0 1 6-6h245.63a6 6 0 0 1 6 6v41.34a6 6 0 0 1-6 6h-245.63a6 6 0 0 1-6-6z" stroke="#282c33" stroke-width="2" fill="#cfe4ff"/><use xlink:href="#f" transform="matrix(1,0,0,1,2833.63695312615,4427.333333333333) translate(92.04340277777777 22.491319444444443)"/><path d="M3079.27 4421.33a6 6 0 0 1 6-6h245.64a6 6 0 0 1 6 6v41.34a6 6 0 0 1-6 6h-245.63a6 6 0 0 1-6-6z" stroke="#282c33" stroke-width="2" fill="#cfe4ff"/><use xlink:href="#f" transform="matrix(1,0,0,1,3091.2739062522987,4427.333333333333) translate(92.04340277777777 22.491319444444443)"/><path d="M3336.9 4421.33a6 6 0 0 1 6-6h245.65a6 6 0 0 1 6 6v41.34a6 6 0 0 1-6 6H3342.9a6 6 0 0 1-6-6z" stroke="#282c33" stroke-width="2" fill="#cfe4ff"/><use xlink:href="#f" transform="matrix(1,0,0,1,3348.9108593784485,4427.333333333333) translate(92.04340277777777 22.491319444444443)"/><path d="M3594.55 4421.33a6 6 0 0 1 6-6h245.63a6 6 0 0 1 6 6v41.34a6 6 0 0 1-6 6h-245.63a6 6 0 0 1-6-6z" stroke="#282c33" stroke-width="2" fill="#cfe4ff"/><use xlink:href="#f" transform="matrix(1,0,0,1,3606.5478125045975,4427.333333333333) translate(92.04340277777777 22.491319444444443)"/><path d="M1275.82 4474.67a6 6 0 0 1 6-6h149.02a6 6 0 0 1 6 6V4516a6 6 0 0 1-6 6h-149.02a6 6 0 0 1-6-6z" stroke="#282c33" stroke-width="2" fill="#cfe4ff"/><use xlink:href="#g" transform="matrix(1,0,0,1,1287.8152343692523,4480.666666666666) translate(44.04340277777778 22.491319444444443)"/><path d="M1436.84 4474.67a6 6 0 0 1 6-6h149.02a6 6 0 0 1 6 6V4516a6 6 0 0 1-6 6h-149.02a6 6 0 0 1-6-6z" stroke="#282c33" stroke-width="2" fill="#cfe4ff"/><use xlink:href="#g" transform="matrix(1,0,0,1,1448.8383300730954,4480.666666666666) translate(44.04340277777778 22.491319444444443)"/><path d="M1597.86 4474.67a6 6 0 0 1 6-6h149.03a6 6 0 0 1 5.98 6V4516a6 6 0 0 1-6 6h-149.02a6 6 0 0 1-6-6z" stroke="#282c33" stroke-width="2" fill="#cfe4ff"/><use xlink:href="#g" transform="matrix(1,0,0,1,1609.861425776939,4480.666666666666) translate(44.04340277777778 22.491319444444443)"/><path d="M1758.88 4474.67a6 6 0 0 1 6-6h149.03a6 6 0 0 1 6 6V4516a6 6 0 0 1-6 6H1764.9a6 6 0 0 1-6-6z" stroke="#282c33" stroke-width="2" fill="#cfe4ff"/><use xlink:href="#g" transform="matrix(1,0,0,1,1770.8845214807825,4480.666666666666) translate(44.04340277777778 22.491319444444443)"/><path d="M1919.9 4474.67a6 6 0 0 1 6-6h149.03a6 6 0 0 1 6 6V4516a6 6 0 0 1-6 6H1925.9a6 6 0 0 1-6-6z" stroke="#282c33" stroke-width="2" fill="#cfe4ff"/><use xlink:href="#g" transform="matrix(1,0,0,1,1931.907617184626,4480.666666666666) translate(44.04340277777778 22.491319444444443)"/><path d="M2080.93 4474.67a6 6 0 0 1 6-6h149.02a6 6 0 0 1 6 6V4516a6 6 0 0 1-6 6h-149.02a6 6 0 0 1-6-6z" stroke="#282c33" stroke-width="2" fill="#cfe4ff"/><use xlink:href="#g" transform="matrix(1,0,0,1,2092.930712888469,4480.666666666666) translate(44.04340277777778 22.491319444444443)"/><path d="M2241.95 4474.67a6 6 0 0 1 6-6h149.03a6 6 0 0 1 6 6V4516a6 6 0 0 1-6 6h-149.03a6 6 0 0 1-6-6z" stroke="#282c33" stroke-width="2" fill="#cfe4ff"/><use xlink:href="#g" transform="matrix(1,0,0,1,2253.9538085923123,4480.666666666666) translate(44.04340277777778 22.491319444444443)"/><path d="M2402.98 4474.67a6 6 0 0 1 6-6H2558a6 6 0 0 1 6 6V4516a6 6 0 0 1-6 6h-149.02a6 6 0 0 1-6-6z" stroke="#282c33" stroke-width="2" fill="#cfe4ff"/><use xlink:href="#g" transform="matrix(1,0,0,1,2414.976904296156,4480.666666666666) translate(44.04340277777778 22.491319444444443)"/><path d="M2564 4474.67a6 6 0 0 1 6-6h149.02a6 6 0 0 1 6 6V4516a6 6 0 0 1-6 6H2570a6 6 0 0 1-6-6z" stroke="#282c33" stroke-width="2" fill="#cfe4ff"/><use xlink:href="#g" transform="matrix(1,0,0,1,2575.999999999999,4480.666666666666) translate(44.04340277777778 22.491319444444443)"/><path d="M2725.02 4474.67a6 6 0 0 1 6-6h149.03a6 6 0 0 1 6 6V4516a6 6 0 0 1-6 6h-149.03a6 6 0 0 1-6-6z" stroke="#282c33" stroke-width="2" fill="#cfe4ff"/><use xlink:href="#g" transform="matrix(1,0,0,1,2737.0230957038425,4480.666666666666) translate(44.04340277777778 22.491319444444443)"/><path d="M2886.05 4474.67a6 6 0 0 1 6-6h149.02a6 6 0 0 1 6 6V4516a6 6 0 0 1-6 6h-149.02a6 6 0 0 1-6-6z" stroke="#282c33" stroke-width="2" fill="#cfe4ff"/><use xlink:href="#g" transform="matrix(1,0,0,1,2898.046191407686,4480.666666666666) translate(44.04340277777778 22.491319444444443)"/><path d="M3047.07 4474.67a6 6 0 0 1 6-6h149.02a6 6 0 0 1 6 6V4516a6 6 0 0 1-6 6h-149.03a6 6 0 0 1-6-6z" stroke="#282c33" stroke-width="2" fill="#cfe4ff"/><use xlink:href="#g" transform="matrix(1,0,0,1,3059.0692871115293,4480.666666666666) translate(44.04340277777778 22.491319444444443)"/><path d="M3208.1 4474.67a6 6 0 0 1 6-6h149a6 6 0 0 1 6 6V4516a6 6 0 0 1-6 6h-149a6 6 0 0 1-6-6z" stroke="#282c33" stroke-width="2" fill="#cfe4ff"/><use xlink:href="#g" transform="matrix(1,0,0,1,3220.0923828153727,4480.666666666666) translate(44.04340277777778 22.491319444444443)"/><path d="M3369.1 4474.67a6 6 0 0 1 6-6h149.04a6 6 0 0 1 6 6V4516a6 6 0 0 1-6 6H3375.1a6 6 0 0 1-6-6z" stroke="#282c33" stroke-width="2" fill="#cfe4ff"/><use xlink:href="#g" transform="matrix(1,0,0,1,3381.115478519216,4480.666666666666) translate(44.04340277777778 22.491319444444443)"/><path d="M3530.14 4474.67a6 6 0 0 1 6-6h149.02a6 6 0 0 1 6 6V4516a6 6 0 0 1-6 6h-149.02a6 6 0 0 1-6-6z" stroke="#282c33" stroke-width="2" fill="#cfe4ff"/><use xlink:href="#g" transform="matrix(1,0,0,1,3542.1385742230595,4480.666666666666) translate(44.04340277777778 22.491319444444443)"/><path d="M3691.16 4474.67a6 6 0 0 1 6-6h149.03a6 6 0 0 1 6 6V4516a6 6 0 0 1-6 6h-149.04a6 6 0 0 1-6-6z" stroke="#282c33" stroke-width="2" fill="#cfe4ff"/><use xlink:href="#g" transform="matrix(1,0,0,1,3703.1616699269025,4480.666666666666) translate(44.04340277777778 22.491319444444443)"/><path d="M1275.82 4528a6 6 0 0 1 6-6h116.8a6 6 0 0 1 6 6v41.33a6 6 0 0 1-6 6h-116.8a6 6 0 0 1-6-6z" stroke="#282c33" stroke-width="2" fill="#cfe4ff"/><use xlink:href="#h" transform="matrix(1,0,0,1,1287.8152343692539,4533.999999999999) translate(27.54340277777778 22.491319444444443)"/><path d="M1404.63 4528a6 6 0 0 1 6-6h116.82a6 6 0 0 1 6 6v41.33a6 6 0 0 1-6 6h-116.82a6 6 0 0 1-6-6z" stroke="#282c33" stroke-width="2" fill="#cfe4ff"/><use xlink:href="#h" transform="matrix(1,0,0,1,1416.6337109323283,4533.999999999999) translate(27.54340277777778 22.491319444444443)"/><path d="M1533.45 4528a6 6 0 0 1 6-6h116.82a6 6 0 0 1 6 6v41.33a6 6 0 0 1-6 6h-116.82a6 6 0 0 1-6-6z" stroke="#282c33" stroke-width="2" fill="#cfe4ff"/><use xlink:href="#h" transform="matrix(1,0,0,1,1545.4521874954025,4533.999999999999) translate(27.54340277777778 22.491319444444443)"/><path d="M1662.27 4528a6 6 0 0 1 6-6h116.82a6 6 0 0 1 6 6v41.33a6 6 0 0 1-6 6h-116.83a6 6 0 0 1-6-6z" stroke="#282c33" stroke-width="2" fill="#cfe4ff"/><use xlink:href="#h" transform="matrix(1,0,0,1,1674.270664058477,4533.999999999999) translate(27.54340277777778 22.491319444444443)"/><path d="M1791.1 4528a6 6 0 0 1 6-6h116.8a6 6 0 0 1 6 6v41.33a6 6 0 0 1-6 6h-116.8a6 6 0 0 1-6-6z" stroke="#282c33" stroke-width="2" fill="#cfe4ff"/><use xlink:href="#h" transform="matrix(1,0,0,1,1803.0891406215517,4533.999999999999) translate(27.54340277777778 22.491319444444443)"/><path d="M1919.9 4528a6 6 0 0 1 6-6h116.83a6 6 0 0 1 6 6v41.33a6 6 0 0 1-6 6H1925.9a6 6 0 0 1-6-6z" stroke="#282c33" stroke-width="2" fill="#cfe4ff"/><use xlink:href="#h" transform="matrix(1,0,0,1,1931.9076171846264,4533.999999999999) translate(27.54340277777778 22.491319444444443)"/><path d="M2048.73 4528a6 6 0 0 1 6-6h116.82a6 6 0 0 1 6 6v41.33a6 6 0 0 1-6 6h-116.82a6 6 0 0 1-6-6z" stroke="#282c33" stroke-width="2" fill="#cfe4ff"/><use xlink:href="#h" transform="matrix(1,0,0,1,2060.7260937477013,4533.999999999999) translate(27.54340277777778 22.491319444444443)"/><path d="M2177.55 4528a6 6 0 0 1 6-6h116.8a6 6 0 0 1 6 6v41.33a6 6 0 0 1-6 6h-116.8a6 6 0 0 1-6-6z" stroke="#282c33" stroke-width="2" fill="#cfe4ff"/><use xlink:href="#h" transform="matrix(1,0,0,1,2189.5445703107757,4533.999999999999) translate(27.54340277777778 22.491319444444443)"/><path d="M2306.36 4528a6 6 0 0 1 6-6h116.82a6 6 0 0 1 6 6v41.33a6 6 0 0 1-6 6h-116.82a6 6 0 0 1-6-6z" stroke="#282c33" stroke-width="2" fill="#cfe4ff"/><use xlink:href="#h" transform="matrix(1,0,0,1,2318.36304687385,4533.999999999999) translate(27.54340277777778 22.491319444444443)"/><path d="M2435.18 4528a6 6 0 0 1 6-6H2558a6 6 0 0 1 6 6v41.33a6 6 0 0 1-6 6h-116.82a6 6 0 0 1-6-6z" stroke="#282c33" stroke-width="2" fill="#cfe4ff"/><use xlink:href="#h" transform="matrix(1,0,0,1,2447.1815234369246,4533.999999999999) translate(27.54340277777778 22.491319444444443)"/><path d="M2564 4528a6 6 0 0 1 6-6h116.82a6 6 0 0 1 6 6v41.33a6 6 0 0 1-6 6H2570a6 6 0 0 1-6-6z" stroke="#282c33" stroke-width="2" fill="#cfe4ff"/><use xlink:href="#h" transform="matrix(1,0,0,1,2575.999999999999,4533.999999999999) translate(27.54340277777778 22.491319444444443)"/><path d="M2692.82 4528a6 6 0 0 1 6-6h116.82a6 6 0 0 1 6 6v41.33a6 6 0 0 1-6 6h-116.82a6 6 0 0 1-6-6z" stroke="#282c33" stroke-width="2" fill="#cfe4ff"/><use xlink:href="#h" transform="matrix(1,0,0,1,2704.8184765630735,4533.999999999999) translate(27.54340277777778 22.491319444444443)"/><path d="M2821.64 4528a6 6 0 0 1 6-6h116.82a6 6 0 0 1 6 6v41.33a6 6 0 0 1-6 6h-116.82a6 6 0 0 1-6-6z" stroke="#282c33" stroke-width="2" fill="#cfe4ff"/><use xlink:href="#h" transform="matrix(1,0,0,1,2833.636953126148,4533.999999999999) translate(27.54340277777778 22.491319444444443)"/><path d="M2950.45 4528a6 6 0 0 1 6-6h116.82a6 6 0 0 1 6 6v41.33a6 6 0 0 1-6 6h-116.82a6 6 0 0 1-6-6z" stroke="#282c33" stroke-width="2" fill="#cfe4ff"/><use xlink:href="#h" transform="matrix(1,0,0,1,2962.455429689223,4533.999999999999) translate(27.54340277777778 22.491319444444443)"/><path d="M3079.27 4528a6 6 0 0 1 6-6h116.82a6 6 0 0 1 6 6v41.33a6 6 0 0 1-6 6h-116.83a6 6 0 0 1-6-6z" stroke="#282c33" stroke-width="2" fill="#cfe4ff"/><use xlink:href="#h" transform="matrix(1,0,0,1,3091.2739062522974,4533.999999999999) translate(27.54340277777778 22.491319444444443)"/><path d="M3208.1 4528a6 6 0 0 1 6-6h116.8a6 6 0 0 1 6 6v41.33a6 6 0 0 1-6 6h-116.8a6 6 0 0 1-6-6z" stroke="#282c33" stroke-width="2" fill="#cfe4ff"/><use xlink:href="#h" transform="matrix(1,0,0,1,3220.0923828153714,4533.999999999999) translate(27.54340277777778 22.491319444444443)"/><path d="M3336.9 4528a6 6 0 0 1 6-6h116.83a6 6 0 0 1 6 6v41.33a6 6 0 0 1-6 6H3342.9a6 6 0 0 1-6-6z" stroke="#282c33" stroke-width="2" fill="#cfe4ff"/><use xlink:href="#h" transform="matrix(1,0,0,1,3348.9108593784463,4533.999999999999) translate(27.54340277777778 22.491319444444443)"/><path d="M3465.73 4528a6 6 0 0 1 6-6h116.82a6 6 0 0 1 6 6v41.33a6 6 0 0 1-6 6h-116.82a6 6 0 0 1-6-6z" stroke="#282c33" stroke-width="2" fill="#cfe4ff"/><use xlink:href="#h" transform="matrix(1,0,0,1,3477.7293359415207,4533.999999999999) translate(27.54340277777778 22.491319444444443)"/><path d="M3594.55 4528a6 6 0 0 1 6-6h116.82a6 6 0 0 1 6 6v41.33a6 6 0 0 1-6 6h-116.82a6 6 0 0 1-6-6z" stroke="#282c33" stroke-width="2" fill="#cfe4ff"/><use xlink:href="#h" transform="matrix(1,0,0,1,3606.5478125045956,4533.999999999999) translate(27.54340277777778 22.491319444444443)"/><path d="M3723.37 4528a6 6 0 0 1 6-6h116.82a6 6 0 0 1 6 6v41.33a6 6 0 0 1-6 6h-116.83a6 6 0 0 1-6-6z" stroke="#282c33" stroke-width="2" fill="#cfe4ff"/><use xlink:href="#h" transform="matrix(1,0,0,1,3735.3662890676706,4533.999999999999) translate(27.54340277777778 22.491319444444443)"/><defs><path fill="#011b3c" d="M575-1476c247 0 432 154 429 400-2 161-97 271-213 327 135 56 245 179 247 356 3 257-200 413-463 413-265 0-466-156-463-413 2-176 108-302 243-357-115-56-207-166-209-326-4-246 181-400 429-400zm0 1345c168 0 278-101 278-266 0-161-118-276-280-276-163 0-276 113-276 276 0 167 108 266 278 266zm244-942c0-143-104-251-244-251-146 0-244 102-244 251 0 145 98 248 244 248s244-103 244-248" id="i"/><path fill="#011b3c" d="M729 0H543v-1233l-373 137v-168l530-199h29V0" id="j"/><path fill="#011b3c" d="M1016-874C1016-303 841 2 305 1v-156c342 4 512-148 525-485-69 82-173 153-315 153-275 0-415-209-415-485 0-296 155-504 451-504 312 0 465 266 465 602zM282-982c0 180 93 342 263 342 134 0 246-99 286-198v-74c5-208-96-410-279-410-174 0-270 155-270 340" id="k"/><path fill="#011b3c" d="M569-1476c255 0 440 146 439 390 0 143-91 314-274 512L344-151h731V0H121v-133l504-560c75-85 125-155 155-207 105-184 6-424-211-424-183 0-293 113-291 297H93c-3-270 199-449 476-449" id="l"/><path fill="#011b3c" d="M574-1476c351 0 454 237 460 615v240c0 217-37 378-111 483S733 20 576 20c-346 0-454-246-461-616v-247c0-214 37-373 111-477s190-156 348-156zm275 905c0-337 59-752-275-753-95 0-160 38-207 107-80 118-66 409-67 625 0 157 22 273 68 348s115 113 208 113c91 0 160-35 204-106s69-182 69-334" id="m"/><g id="a"><use transform="matrix(0.010850694444444444,0,0,0.010850694444444444,0,0)" xlink:href="#i"/><use transform="matrix(0.010850694444444444,0,0,0.010850694444444444,12.47829861111111,0)" xlink:href="#j"/><use transform="matrix(0.010850694444444444,0,0,0.010850694444444444,24.95659722222222,0)" xlink:href="#k"/><use transform="matrix(0.010850694444444444,0,0,0.010850694444444444,37.43489583333333,0)" xlink:href="#l"/><use transform="matrix(0.010850694444444444,0,0,0.010850694444444444,49.91319444444444,0)" xlink:href="#m"/></g><path fill="#011b3c" d="M902-489h202v151H902V0H716v-338H53v-109l652-1009h197v967zm-639 0h453v-714l-22 40" id="n"/><path fill="#011b3c" d="M132-554c0-555 187-908 715-903v157c-320-8-501 179-526 477 77-88 181-132 314-132 259 0 417 214 417 480 0 286-172 495-451 495-293 0-469-266-469-574zm737 88c0-181-95-335-265-335-133 0-252 96-286 200v68c-6 207 101 397 283 400 175 3 268-150 268-333" id="o"/><g id="b"><use transform="matrix(0.010850694444444444,0,0,0.010850694444444444,0,0)" xlink:href="#n"/><use transform="matrix(0.010850694444444444,0,0,0.010850694444444444,12.47829861111111,0)" xlink:href="#m"/><use transform="matrix(0.010850694444444444,0,0,0.010850694444444444,24.95659722222222,0)" xlink:href="#k"/><use transform="matrix(0.010850694444444444,0,0,0.010850694444444444,37.43489583333333,0)" xlink:href="#o"/><use transform="matrix(0.010850694444444444,0,0,0.010850694444444444,49.91319444444444,0)" xlink:href="#m"/></g><g id="c"><use transform="matrix(0.010850694444444444,0,0,0.010850694444444444,0,0)" xlink:href="#l"/><use transform="matrix(0.010850694444444444,0,0,0.010850694444444444,12.47829861111111,0)" xlink:href="#m"/><use transform="matrix(0.010850694444444444,0,0,0.010850694444444444,24.95659722222222,0)" xlink:href="#n"/><use transform="matrix(0.010850694444444444,0,0,0.010850694444444444,37.43489583333333,0)" xlink:href="#i"/><use transform="matrix(0.010850694444444444,0,0,0.010850694444444444,49.91319444444444,0)" xlink:href="#m"/></g><path fill="#011b3c" d="M832-402c-1-179-119-264-303-265H390v-151h139c164 0 281-91 281-250 0-171-85-256-255-256-154 0-265 99-263 250H107c-4-235 205-402 448-402 266 0 444 150 440 412-2 148-109 272-229 317 147 45 249 158 251 341 3 262-197 426-461 426C299 20 91-135 94-384h186c-2 156 116 253 276 253 176 0 277-96 276-271" id="p"/><g id="d"><use transform="matrix(0.010850694444444444,0,0,0.010850694444444444,0,0)" xlink:href="#j"/><use transform="matrix(0.010850694444444444,0,0,0.010850694444444444,12.47829861111111,0)" xlink:href="#o"/><use transform="matrix(0.010850694444444444,0,0,0.010850694444444444,24.95659722222222,0)" xlink:href="#p"/><use transform="matrix(0.010850694444444444,0,0,0.010850694444444444,37.43489583333333,0)" xlink:href="#i"/><use transform="matrix(0.010850694444444444,0,0,0.010850694444444444,49.91319444444444,0)" xlink:href="#n"/></g><g id="e"><use transform="matrix(0.010850694444444444,0,0,0.010850694444444444,0,0)" xlink:href="#j"/><use transform="matrix(0.010850694444444444,0,0,0.010850694444444444,12.47829861111111,0)" xlink:href="#m"/><use transform="matrix(0.010850694444444444,0,0,0.010850694444444444,24.95659722222222,0)" xlink:href="#l"/><use transform="matrix(0.010850694444444444,0,0,0.010850694444444444,37.43489583333333,0)" xlink:href="#n"/><use transform="matrix(0.010850694444444444,0,0,0.010850694444444444,49.91319444444444,0)" xlink:href="#m"/></g><g id="f"><use transform="matrix(0.010850694444444444,0,0,0.010850694444444444,0,0)" xlink:href="#i"/><use transform="matrix(0.010850694444444444,0,0,0.010850694444444444,12.47829861111111,0)" xlink:href="#j"/><use transform="matrix(0.010850694444444444,0,0,0.010850694444444444,24.95659722222222,0)" xlink:href="#k"/><use transform="matrix(0.010850694444444444,0,0,0.010850694444444444,37.43489583333333,0)" xlink:href="#l"/></g><path fill="#011b3c" d="M884-462c0-185-111-323-291-323-113 0-183 39-239 93l-148-38 74-726h746v171H437l-44 397c71-42 152-63 243-63 273-2 433 205 433 487 0 293-170 484-461 484-260 0-436-159-454-403h175c20 156 111 252 279 252 182 0 276-140 276-331" id="q"/><g id="g"><use transform="matrix(0.010850694444444444,0,0,0.010850694444444444,0,0)" xlink:href="#q"/><use transform="matrix(0.010850694444444444,0,0,0.010850694444444444,12.47829861111111,0)" xlink:href="#j"/><use transform="matrix(0.010850694444444444,0,0,0.010850694444444444,24.95659722222222,0)" xlink:href="#l"/><use transform="matrix(0.010850694444444444,0,0,0.010850694444444444,37.43489583333333,0)" xlink:href="#m"/></g><g id="h"><use transform="matrix(0.010850694444444444,0,0,0.010850694444444444,0,0)" xlink:href="#n"/><use transform="matrix(0.010850694444444444,0,0,0.010850694444444444,12.47829861111111,0)" xlink:href="#m"/><use transform="matrix(0.010850694444444444,0,0,0.010850694444444444,24.95659722222222,0)" xlink:href="#k"/><use transform="matrix(0.010850694444444444,0,0,0.010850694444444444,37.43489583333333,0)" xlink:href="#o"/></g></defs></g></svg>