<svg xmlns="http://www.w3.org/2000/svg" xmlns:xlink="http://www.w3.org/1999/xlink" xmlns:lucid="lucid" width="1087.4" height="1031.06"><g transform="translate(-4278.568804687183 -3539.733844159348)" lucid:page-tab-id="0_0"><path d="M-500-1000h6000v8000H-500z" fill="#fff"/><path d="M4371.53 3948.27a6 6 0 0 1 6-6h179a6 6 0 0 1 6 6v108a6 6 0 0 1-6 6h-179a6 6 0 0 1-6-6z" stroke="#282c33" stroke-width="2" fill="#cfe4ff"/><use xlink:href="#a" transform="matrix(1,0,0,1,4383.526956042224,3954.271106997574) translate(19.888671875 56.752170138888886)"/><use xlink:href="#b" transform="matrix(1,0,0,1,4383.526956042224,3954.271106997574) translate(68.66254340277777 56.752170138888886)"/><use xlink:href="#c" transform="matrix(1,0,0,1,4383.526956042224,3954.271106997574) translate(122.69900173611111 56.752170138888886)"/><path d="M4301.3 3712.66a6 6 0 0 1 6-6h1049.26a6 6 0 0 1 6 6v44a6 6 0 0 1-6 6H4307.3a6 6 0 0 1-6-6z" stroke="#282c33" stroke-width="2" fill="#cfe4ff"/><use xlink:href="#d" transform="matrix(1,0,0,1,4313.302388853608,3718.6626334250855) translate(437.408203125 25.75217013888889)"/><use xlink:href="#e" transform="matrix(1,0,0,1,4313.302388853608,3718.6626334250855) translate(527.3279079861111 25.75217013888889)"/><path d="M4736.43 3948.27a6 6 0 0 1 6-6h179a6 6 0 0 1 6 6v108a6 6 0 0 1-6 6h-179a6 6 0 0 1-6-6z" stroke="#282c33" stroke-width="2" fill="#cfe4ff"/><use xlink:href="#a" transform="matrix(1,0,0,1,4748.429414376304,3954.271106997574) translate(19.888671875 56.752170138888886)"/><use xlink:href="#b" transform="matrix(1,0,0,1,4748.429414376304,3954.271106997574) translate(68.66254340277777 56.752170138888886)"/><use xlink:href="#f" transform="matrix(1,0,0,1,4748.429414376304,3954.271106997574) translate(122.69900173611111 56.752170138888886)"/><path d="M5101.33 3948.27a6 6 0 0 1 6-6h179a6 6 0 0 1 6 6v108a6 6 0 0 1-6 6h-179a6 6 0 0 1-6-6z" stroke="#282c33" stroke-width="2" fill="#cfe4ff"/><use xlink:href="#a" transform="matrix(1,0,0,1,5113.331872710384,3954.271106997574) translate(19.888671875 56.752170138888886)"/><use xlink:href="#b" transform="matrix(1,0,0,1,5113.331872710384,3954.271106997574) translate(68.66254340277777 56.752170138888886)"/><use xlink:href="#g" transform="matrix(1,0,0,1,5113.331872710384,3954.271106997574) translate(122.69900173611111 56.752170138888886)"/><path d="M5050.2 3612.64a6 6 0 0 1 6-6h183a6 6 0 0 1 6 6v35a6 6 0 0 1-6 6h-183a6 6 0 0 1-6-6z" fill="#fff"/><path d="M5049.2 3612.65a1 1 0 0 1 1-1 1 1 0 0 1 1 1 1 1 0 0 1-1 1 1 1 0 0 1-1-1v-.02m1.76-4.22a1 1 0 0 1 1-1 1 1 0 0 1 1 1 1 1 0 0 1-1 1 1 1 0 0 1-1-1m4.24-1.75a1 1 0 0 1 1-1 1 1 0 0 1 1 1 1 1 0 0 1-1 1 1 1 0 0 1-1-1v-.02m3.98.02a1 1 0 0 1 1-1 1 1 0 0 1 1 1 1 1 0 0 1-1 1 1 1 0 0 1-1-1v-.02m3.98.02a1 1 0 0 1 1-1 1 1 0 0 1 1 1 1 1 0 0 1-1 1 1 1 0 0 1-1-1v-.02m3.98.02a1 1 0 0 1 1-1 1 1 0 0 1 1 1 1 1 0 0 1-1 1 1 1 0 0 1-1-1v-.02m3.97.02a1 1 0 0 1 1-1 1 1 0 0 1 1 1 1 1 0 0 1-1 1 1 1 0 0 1-1-1v-.02m4 .02a1 1 0 0 1 1-1 1 1 0 0 1 1 1 1 1 0 0 1-1 1 1 1 0 0 1-1-1v-.02m3.97.02a1 1 0 0 1 1-1 1 1 0 0 1 1 1 1 1 0 0 1-1 1 1 1 0 0 1-1-1v-.02m3.98.02a1 1 0 0 1 1-1 1 1 0 0 1 1 1 1 1 0 0 1-1 1 1 1 0 0 1-1-1v-.02m3.98.02a1 1 0 0 1 1-1 1 1 0 0 1 1 1 1 1 0 0 1-1 1 1 1 0 0 1-1-1v-.02m3.97.02a1 1 0 0 1 1-1 1 1 0 0 1 1 1 1 1 0 0 1-1 1 1 1 0 0 1-1-1v-.02m3.98.02a1 1 0 0 1 1-1 1 1 0 0 1 1 1 1 1 0 0 1-1 1 1 1 0 0 1-1-1v-.02m3.98.02a1 1 0 0 1 1-1 1 1 0 0 1 1 1 1 1 0 0 1-1 1 1 1 0 0 1-1-1v-.02m3.98.02a1 1 0 0 1 1-1 1 1 0 0 1 1 1 1 1 0 0 1-1 1 1 1 0 0 1-1-1v-.02m3.98.02a1 1 0 0 1 1-1 1 1 0 0 1 1 1 1 1 0 0 1-1 1 1 1 0 0 1-1-1v-.02m3.98.02a1 1 0 0 1 1-1 1 1 0 0 1 1 1 1 1 0 0 1-1 1 1 1 0 0 1-1-1v-.02m3.97.02a1 1 0 0 1 1-1 1 1 0 0 1 1 1 1 1 0 0 1-1 1 1 1 0 0 1-1-1v-.02m3.98.02a1 1 0 0 1 1-1 1 1 0 0 1 1 1 1 1 0 0 1-1 1 1 1 0 0 1-1-1v-.02m3.98.02a1 1 0 0 1 1-1 1 1 0 0 1 1 1 1 1 0 0 1-1 1 1 1 0 0 1-1-1v-.02m3.98.02a1 1 0 0 1 1-1 1 1 0 0 1 1 1 1 1 0 0 1-1 1 1 1 0 0 1-1-1v-.02m4 .02a1 1 0 0 1 1-1 1 1 0 0 1 1 1 1 1 0 0 1-1 1 1 1 0 0 1-1-1v-.02m3.97.02a1 1 0 0 1 1-1 1 1 0 0 1 1 1 1 1 0 0 1-1 1 1 1 0 0 1-1-1v-.02m3.97.02a1 1 0 0 1 1-1 1 1 0 0 1 1 1 1 1 0 0 1-1 1 1 1 0 0 1-1-1v-.02m3.98.02a1 1 0 0 1 1-1 1 1 0 0 1 1 1 1 1 0 0 1-1 1 1 1 0 0 1-1-1v-.02m3.98.02a1 1 0 0 1 1-1 1 1 0 0 1 1 1 1 1 0 0 1-1 1 1 1 0 0 1-1-1v-.02m3.98.02a1 1 0 0 1 1-1 1 1 0 0 1 1 1 1 1 0 0 1-1 1 1 1 0 0 1-1-1v-.02m3.98.02a1 1 0 0 1 1-1 1 1 0 0 1 1 1 1 1 0 0 1-1 1 1 1 0 0 1-1-1v-.02m3.97.02a1 1 0 0 1 1-1 1 1 0 0 1 1 1 1 1 0 0 1-1 1 1 1 0 0 1-1-1v-.02m3.98.02a1 1 0 0 1 1-1 1 1 0 0 1 1 1 1 1 0 0 1-1 1 1 1 0 0 1-1-1v-.02m4 .02a1 1 0 0 1 1-1 1 1 0 0 1 1 1 1 1 0 0 1-1 1 1 1 0 0 1-1-1v-.02m3.97.02a1 1 0 0 1 1-1 1 1 0 0 1 1 1 1 1 0 0 1-1 1 1 1 0 0 1-1-1v-.02m3.98.02a1 1 0 0 1 1-1 1 1 0 0 1 1 1 1 1 0 0 1-1 1 1 1 0 0 1-1-1v-.02m3.97.02a1 1 0 0 1 1-1 1 1 0 0 1 1 1 1 1 0 0 1-1 1 1 1 0 0 1-1-1v-.02m3.98.02a1 1 0 0 1 1-1 1 1 0 0 1 1 1 1 1 0 0 1-1 1 1 1 0 0 1-1-1v-.02m3.98.02a1 1 0 0 1 1-1 1 1 0 0 1 1 1 1 1 0 0 1-1 1 1 1 0 0 1-1-1v-.02m3.98.02a1 1 0 0 1 1-1 1 1 0 0 1 1 1 1 1 0 0 1-1 1 1 1 0 0 1-1-1v-.02m3.98.02a1 1 0 0 1 1-1 1 1 0 0 1 1 1 1 1 0 0 1-1 1 1 1 0 0 1-1-1v-.02m3.98.02a1 1 0 0 1 1-1 1 1 0 0 1 1 1 1 1 0 0 1-1 1 1 1 0 0 1-1-1v-.02m3.97.02a1 1 0 0 1 1-1 1 1 0 0 1 1 1 1 1 0 0 1-1 1 1 1 0 0 1-1-1v-.02m3.97.02a1 1 0 0 1 1-1 1 1 0 0 1 1 1 1 1 0 0 1-1 1 1 1 0 0 1-1-1v-.02m3.98.02a1 1 0 0 1 1-1 1 1 0 0 1 1 1 1 1 0 0 1-1 1 1 1 0 0 1-1-1v-.02m3.98.02a1 1 0 0 1 1-1 1 1 0 0 1 1 1 1 1 0 0 1-1 1 1 1 0 0 1-1-1v-.02m3.98.02a1 1 0 0 1 1-1 1 1 0 0 1 1 1 1 1 0 0 1-1 1 1 1 0 0 1-1-1v-.02m4 .02a1 1 0 0 1 1-1 1 1 0 0 1 1 1 1 1 0 0 1-1 1 1 1 0 0 1-1-1v-.02m3.96.02a1 1 0 0 1 1-1 1 1 0 0 1 1 1 1 1 0 0 1-1 1 1 1 0 0 1-1-1v-.02m3.98.02a1 1 0 0 1 1-1 1 1 0 0 1 1 1 1 1 0 0 1-1 1 1 1 0 0 1-1-1v-.02m3.98.02a1 1 0 0 1 1-1 1 1 0 0 1 1 1 1 1 0 0 1-1 1 1 1 0 0 1-1-1v-.02m3.98.02a1 1 0 0 1 1-1 1 1 0 0 1 1 1 1 1 0 0 1-1 1 1 1 0 0 1-1-1v-.02m4.24 1.78a1 1 0 0 1 1-1 1 1 0 0 1 1 1 1 1 0 0 1-1 1 1 1 0 0 1-1-1m1.76 4.25a1 1 0 0 1 1-1 1 1 0 0 1 1 1 1 1 0 0 1-1 1 1 1 0 0 1-1-1v-.02m0 3.9a1 1 0 0 1 1-1 1 1 0 0 1 1 1 1 1 0 0 1-1 1 1 1 0 0 1-1-1m0 3.9a1 1 0 0 1 1-1 1 1 0 0 1 1 1 1 1 0 0 1-1 1 1 1 0 0 1-1-1v-.02m0 3.92a1 1 0 0 1 1-1 1 1 0 0 1 1 1 1 1 0 0 1-1 1 1 1 0 0 1-1-1v-.02m0 3.9a1 1 0 0 1 1-1 1 1 0 0 1 1 1 1 1 0 0 1-1 1 1 1 0 0 1-1-1m0 3.9a1 1 0 0 1 1-1 1 1 0 0 1 1 1 1 1 0 0 1-1 1 1 1 0 0 1-1-1v-.02m0 3.9a1 1 0 0 1 1-1 1 1 0 0 1 1 1 1 1 0 0 1-1 1 1 1 0 0 1-1-1v-.02m0 3.9a1 1 0 0 1 1-1 1 1 0 0 1 1 1 1 1 0 0 1-1 1 1 1 0 0 1-1-1m0 3.9a1 1 0 0 1 1-1 1 1 0 0 1 1 1 1 1 0 0 1-1 1 1 1 0 0 1-1-1v-.02m0 3.9a1 1 0 0 1 1-1 1 1 0 0 1 1 1 1 1 0 0 1-1 1 1 1 0 0 1-1-1m-1.76 4.25v-.02a1 1 0 0 1 1-1 1 1 0 0 1 1 1 1 1 0 0 1-1 1 1 1 0 0 1-1-1m-4.24 1.77a1 1 0 0 1 1-1 1 1 0 0 1 1 1 1 1 0 0 1-1 1 1 1 0 0 1-1-1v-.02m-3.98.02a1 1 0 0 1 1-1 1 1 0 0 1 1 1 1 1 0 0 1-1 1 1 1 0 0 1-1-1v-.02m-3.98.02a1 1 0 0 1 1-1 1 1 0 0 1 1 1 1 1 0 0 1-1 1 1 1 0 0 1-1-1v-.02m-3.98.02a1 1 0 0 1 1-1 1 1 0 0 1 1 1 1 1 0 0 1-1 1 1 1 0 0 1-1-1v-.02m-3.97.02a1 1 0 0 1 1-1 1 1 0 0 1 1 1 1 1 0 0 1-1 1 1 1 0 0 1-1-1v-.02m-4 .02a1 1 0 0 1 1-1 1 1 0 0 1 1 1 1 1 0 0 1-1 1 1 1 0 0 1-1-1v-.02m-3.97.02a1 1 0 0 1 1-1 1 1 0 0 1 1 1 1 1 0 0 1-1 1 1 1 0 0 1-1-1v-.02m-3.98.02a1 1 0 0 1 1-1 1 1 0 0 1 1 1 1 1 0 0 1-1 1 1 1 0 0 1-1-1v-.02m-3.98.02a1 1 0 0 1 1-1 1 1 0 0 1 1 1 1 1 0 0 1-1 1 1 1 0 0 1-1-1v-.02m-3.98.02a1 1 0 0 1 1-1 1 1 0 0 1 1 1 1 1 0 0 1-1 1 1 1 0 0 1-1-1v-.02m-3.98.02a1 1 0 0 1 1-1 1 1 0 0 1 1 1 1 1 0 0 1-1 1 1 1 0 0 1-1-1v-.02m-3.98.02a1 1 0 0 1 1-1 1 1 0 0 1 1 1 1 1 0 0 1-1 1 1 1 0 0 1-1-1v-.02m-3.98.02a1 1 0 0 1 1-1 1 1 0 0 1 1 1 1 1 0 0 1-1 1 1 1 0 0 1-1-1v-.02m-3.98.02a1 1 0 0 1 1-1 1 1 0 0 1 1 1 1 1 0 0 1-1 1 1 1 0 0 1-1-1v-.02m-3.98.02a1 1 0 0 1 1-1 1 1 0 0 1 1 1 1 1 0 0 1-1 1 1 1 0 0 1-1-1v-.02m-3.98.02a1 1 0 0 1 1-1 1 1 0 0 1 1 1 1 1 0 0 1-1 1 1 1 0 0 1-1-1v-.02m-3.97.02a1 1 0 0 1 1-1 1 1 0 0 1 1 1 1 1 0 0 1-1 1 1 1 0 0 1-1-1v-.02m-3.98.02a1 1 0 0 1 1-1 1 1 0 0 1 1 1 1 1 0 0 1-1 1 1 1 0 0 1-1-1v-.02m-3.98.02a1 1 0 0 1 1-1 1 1 0 0 1 1 1 1 1 0 0 1-1 1 1 1 0 0 1-1-1v-.02m-4 .02a1 1 0 0 1 1-1 1 1 0 0 1 1 1 1 1 0 0 1-1 1 1 1 0 0 1-1-1v-.02m-3.97.02a1 1 0 0 1 1-1 1 1 0 0 1 1 1 1 1 0 0 1-1 1 1 1 0 0 1-1-1v-.02m-3.97.02a1 1 0 0 1 1-1 1 1 0 0 1 1 1 1 1 0 0 1-1 1 1 1 0 0 1-1-1v-.02m-3.98.02a1 1 0 0 1 1-1 1 1 0 0 1 1 1 1 1 0 0 1-1 1 1 1 0 0 1-1-1v-.02m-3.98.02a1 1 0 0 1 1-1 1 1 0 0 1 1 1 1 1 0 0 1-1 1 1 1 0 0 1-1-1v-.02m-3.98.02a1 1 0 0 1 1-1 1 1 0 0 1 1 1 1 1 0 0 1-1 1 1 1 0 0 1-1-1v-.02m-3.98.02a1 1 0 0 1 1-1 1 1 0 0 1 1 1 1 1 0 0 1-1 1 1 1 0 0 1-1-1v-.02m-3.97.02a1 1 0 0 1 1-1 1 1 0 0 1 1 1 1 1 0 0 1-1 1 1 1 0 0 1-1-1v-.02m-3.98.02a1 1 0 0 1 1-1 1 1 0 0 1 1 1 1 1 0 0 1-1 1 1 1 0 0 1-1-1v-.02m-4 .02a1 1 0 0 1 1-1 1 1 0 0 1 1 1 1 1 0 0 1-1 1 1 1 0 0 1-1-1v-.02m-3.97.02a1 1 0 0 1 1-1 1 1 0 0 1 1 1 1 1 0 0 1-1 1 1 1 0 0 1-1-1v-.02m-3.98.02a1 1 0 0 1 1-1 1 1 0 0 1 1 1 1 1 0 0 1-1 1 1 1 0 0 1-1-1v-.02m-3.98.02a1 1 0 0 1 1-1 1 1 0 0 1 1 1 1 1 0 0 1-1 1 1 1 0 0 1-1-1v-.02m-3.97.02a1 1 0 0 1 1-1 1 1 0 0 1 1 1 1 1 0 0 1-1 1 1 1 0 0 1-1-1v-.02m-3.98.02a1 1 0 0 1 1-1 1 1 0 0 1 1 1 1 1 0 0 1-1 1 1 1 0 0 1-1-1v-.02m-3.98.02a1 1 0 0 1 1-1 1 1 0 0 1 1 1 1 1 0 0 1-1 1 1 1 0 0 1-1-1v-.02m-3.98.02a1 1 0 0 1 1-1 1 1 0 0 1 1 1 1 1 0 0 1-1 1 1 1 0 0 1-1-1v-.02m-3.98.02a1 1 0 0 1 1-1 1 1 0 0 1 1 1 1 1 0 0 1-1 1 1 1 0 0 1-1-1v-.02m-3.98.02a1 1 0 0 1 1-1 1 1 0 0 1 1 1 1 1 0 0 1-1 1 1 1 0 0 1-1-1v-.02m-3.97.02a1 1 0 0 1 1-1 1 1 0 0 1 1 1 1 1 0 0 1-1 1 1 1 0 0 1-1-1v-.02m-3.98.02a1 1 0 0 1 1-1 1 1 0 0 1 1 1 1 1 0 0 1-1 1 1 1 0 0 1-1-1v-.02m-3.98.02a1 1 0 0 1 1-1 1 1 0 0 1 1 1 1 1 0 0 1-1 1 1 1 0 0 1-1-1v-.02m-3.98.02a1 1 0 0 1 1-1 1 1 0 0 1 1 1 1 1 0 0 1-1 1 1 1 0 0 1-1-1v-.02m-4 .02a1 1 0 0 1 1-1 1 1 0 0 1 1 1 1 1 0 0 1-1 1 1 1 0 0 1-1-1v-.02m-3.97.02a1 1 0 0 1 1-1 1 1 0 0 1 1 1 1 1 0 0 1-1 1 1 1 0 0 1-1-1v-.02m-3.97.02a1 1 0 0 1 1-1 1 1 0 0 1 1 1 1 1 0 0 1-1 1 1 1 0 0 1-1-1v-.02m-3.98.02a1 1 0 0 1 1-1 1 1 0 0 1 1 1 1 1 0 0 1-1 1 1 1 0 0 1-1-1v-.02m-3.98.02a1 1 0 0 1 1-1 1 1 0 0 1 1 1 1 1 0 0 1-1 1 1 1 0 0 1-1-1v-.02m-4.24-1.74v-.02a1 1 0 0 1 1-1 1 1 0 0 1 1 1 1 1 0 0 1-1 1 1 1 0 0 1-1-1m-1.76-4.23a1 1 0 0 1 1-1 1 1 0 0 1 1 1 1 1 0 0 1-1 1 1 1 0 0 1-1-1v-.02m0-3.87a1 1 0 0 1 1-1 1 1 0 0 1 1 1 1 1 0 0 1-1 1 1 1 0 0 1-1-1v-.02m0-3.87a1 1 0 0 1 1-1 1 1 0 0 1 1 1 1 1 0 0 1-1 1 1 1 0 0 1-1-1v-.02m0-3.87a1 1 0 0 1 1-1 1 1 0 0 1 1 1 1 1 0 0 1-1 1 1 1 0 0 1-1-1v-.02m0-3.86a1 1 0 0 1 1-1 1 1 0 0 1 1 1 1 1 0 0 1-1 1 1 1 0 0 1-1-1v-.02m0-3.87a1 1 0 0 1 1-1 1 1 0 0 1 1 1 1 1 0 0 1-1 1 1 1 0 0 1-1-1m0-3.88a1 1 0 0 1 1-1 1 1 0 0 1 1 1 1 1 0 0 1-1 1 1 1 0 0 1-1-1v-.02m0-3.87a1 1 0 0 1 1-1 1 1 0 0 1 1 1 1 1 0 0 1-1 1 1 1 0 0 1-1-1v-.02m0-3.86a1 1 0 0 1 1-1 1 1 0 0 1 1 1 1 1 0 0 1-1 1 1 1 0 0 1-1-1v-.02m0-3.87a1 1 0 0 1 1-1 1 1 0 0 1 1 1 1 1 0 0 1-1 1 1 1 0 0 1-1-1v-.02" fill="#282c33"/><use xlink:href="#h" transform="matrix(1,0,0,1,5062.200215538752,3618.6410985903913) translate(22.7021484375 21.376953125)"/><use xlink:href="#i" transform="matrix(1,0,0,1,5062.200215538752,3618.6410985903913) translate(96.8134765625 21.376953125)"/><path d="M5048.2 3630.14h-45.07" stroke="#3a414a" stroke-width="2" fill="none"/><path d="M5049.2 3631.12h-1.02v-1.95h1.02zM5003.15 3631.12h-1.02v-1.95h1.02z" stroke="#3a414a" stroke-width=".05" fill="#3a414a"/><path d="M5147.7 3655.64v18.5a6 6 0 0 1-6 6h-303.77a6 6 0 0 0-6 6v3.53" stroke="#3a414a" stroke-width="2" fill="none"/><path d="M5148.67 3655.67h-1.95v-1.03h1.95z" stroke="#3a414a" stroke-width=".05" fill="#3a414a"/><path d="M4831.93 3703.66l-7.5-13h15z" stroke="#3a414a" stroke-width="2" fill="#3a414a"/><path d="M4308.77 4098.09a6 6 0 0 1 6-6.02h304.52a6 6 0 0 1 6 6v36.66a6 6 0 0 1-6 6h-304.53a6 6 0 0 1-6-6z" stroke="#282c33" stroke-width="2" fill="#fc9432"/><use xlink:href="#j" transform="matrix(1,0,0,1,4320.768957241266,4104.085159721686) translate(27.288845486111114 23.75217013888889)"/><use xlink:href="#k" transform="matrix(1,0,0,1,4320.768957241266,4104.085159721686) translate(78.79709201388889 23.75217013888889)"/><use xlink:href="#l" transform="matrix(1,0,0,1,4320.768957241266,4104.085159721686) translate(205.89127604166666 23.75217013888889)"/><path d="M4467.03 4142.74v12.32" stroke="#3a414a" stroke-width="2" fill="none"/><path d="M4468 4142.76h-1.94v-1.02h1.95zM4468 4156.06h-1.94v-1.03h1.95z" stroke="#3a414a" stroke-width=".05" fill="#3a414a"/><path d="M4308.6 4163.06a6 6 0 0 1 6-6h304.85a6 6 0 0 1 6 6v36.65a6 6 0 0 1-6 6H4314.6a6 6 0 0 1-6-6z" stroke="#282c33" stroke-width="2" fill="#1e6091"/><use xlink:href="#m" transform="matrix(1,0,0,1,4320.611107422594,4169.056093106899) translate(45.85438368055557 22.178819444444443)"/><use xlink:href="#n" transform="matrix(1,0,0,1,4320.611107422594,4169.056093106899) translate(111.18641493055557 22.178819444444443)"/><use xlink:href="#o" transform="matrix(1,0,0,1,4320.611107422594,4169.056093106899) translate(161.685546875 22.178819444444443)"/><use xlink:href="#p" transform="matrix(1,0,0,1,4320.611107422594,4169.056093106899) translate(192.12174479166666 22.178819444444443)"/><path d="M4467.03 4064.27v25.82" stroke="#3a414a" stroke-width="2" fill="none"/><path d="M4468 4064.3h-1.94v-1.03h1.95zM4468 4091.1h-1.94v-1.04h1.95z" stroke="#3a414a" stroke-width=".05" fill="#3a414a"/><path d="M4668.1 4098.09a6 6 0 0 1 6-6.02h315.66a6 6 0 0 1 6 6v36.66a6 6 0 0 1-6 6H4674.1a6 6 0 0 1-6-6z" stroke="#282c33" stroke-width="2" fill="#fc9432"/><use xlink:href="#j" transform="matrix(1,0,0,1,4680.101984905459,4104.085159721686) translate(32.788845486111114 23.75217013888889)"/><use xlink:href="#k" transform="matrix(1,0,0,1,4680.101984905459,4104.085159721686) translate(84.29709201388889 23.75217013888889)"/><use xlink:href="#l" transform="matrix(1,0,0,1,4680.101984905459,4104.085159721686) translate(211.39127604166666 23.75217013888889)"/><path d="M4831.93 4142.74v6.12a.04.04 0 0 1-.04.04.04.04 0 0 0-.05.04v6.12" stroke="#3a414a" stroke-width="2" fill="none"/><path d="M4832.9 4142.76h-1.94v-1.02h1.95zM4832.83 4156.06h-1.95v-1.03h1.95z" stroke="#3a414a" stroke-width=".05" fill="#3a414a"/><path d="M4667.94 4163.06a6 6 0 0 1 6-6h315.83a6 6 0 0 1 6 6v36.65a6 6 0 0 1-6 6h-315.83a6 6 0 0 1-6-6z" stroke="#282c33" stroke-width="2" fill="#1e6091"/><use xlink:href="#m" transform="matrix(1,0,0,1,4679.944135086787,4169.056093106899) translate(51.35438368055557 22.178819444444443)"/><use xlink:href="#n" transform="matrix(1,0,0,1,4679.944135086787,4169.056093106899) translate(116.68641493055557 22.178819444444443)"/><use xlink:href="#o" transform="matrix(1,0,0,1,4679.944135086787,4169.056093106899) translate(167.185546875 22.178819444444443)"/><use xlink:href="#p" transform="matrix(1,0,0,1,4679.944135086787,4169.056093106899) translate(197.62174479166666 22.178819444444443)"/><path d="M5034.06 4098.09a6 6 0 0 1 6-6.02h313.55a6 6 0 0 1 6 6v36.66a6 6 0 0 1-6 6h-313.54a6 6 0 0 1-6-6z" stroke="#282c33" stroke-width="2" fill="#fc9432"/><use xlink:href="#j" transform="matrix(1,0,0,1,5046.056208773853,4104.085159721686) translate(31.788845486111114 23.75217013888889)"/><use xlink:href="#k" transform="matrix(1,0,0,1,5046.056208773853,4104.085159721686) translate(83.29709201388889 23.75217013888889)"/><use xlink:href="#l" transform="matrix(1,0,0,1,5046.056208773853,4104.085159721686) translate(210.39127604166666 23.75217013888889)"/><path d="M5196.84 4142.74v6.12a.04.04 0 0 1-.04.04.04.04 0 0 0-.04.04v6.12" stroke="#3a414a" stroke-width="2" fill="none"/><path d="M5197.8 4142.76h-1.94v-1.02h1.95zM5197.73 4156.06h-1.95v-1.03h1.95z" stroke="#3a414a" stroke-width=".05" fill="#3a414a"/><path d="M5033.9 4163.06a6 6 0 0 1 6-6h313.72a6 6 0 0 1 6 6v36.65a6 6 0 0 1-6 6H5039.9a6 6 0 0 1-6-6z" stroke="#282c33" stroke-width="2" fill="#1e6091"/><use xlink:href="#m" transform="matrix(1,0,0,1,5045.898358955181,4169.056093106899) translate(50.35438368055557 22.178819444444443)"/><use xlink:href="#n" transform="matrix(1,0,0,1,5045.898358955181,4169.056093106899) translate(115.68641493055557 22.178819444444443)"/><use xlink:href="#o" transform="matrix(1,0,0,1,5045.898358955181,4169.056093106899) translate(166.185546875 22.178819444444443)"/><use xlink:href="#p" transform="matrix(1,0,0,1,5045.898358955181,4169.056093106899) translate(196.62174479166666 22.178819444444443)"/><path d="M4831.93 4090.1v-25.83" stroke="#3a414a" stroke-width="2" fill="none"/><path d="M4832.9 4091.1h-1.94v-1.04h1.95zM4832.9 4064.3h-1.94v-1.03h1.95z" stroke="#3a414a" stroke-width=".05" fill="#3a414a"/><path d="M5196.84 4064.27v25.8" stroke="#3a414a" stroke-width="2" fill="none"/><path d="M5197.8 4064.3h-1.94v-1.03h1.95zM5197.8 4091.1h-1.94v-1.04h1.95z" stroke="#3a414a" stroke-width=".05" fill="#3a414a"/><path d="M4303.7 4234.24a6 6 0 0 1 6-6h128.28a6 6 0 0 1 6 6v56.7a6 6 0 0 1-6 6H4309.7a6 6 0 0 1-6-6z" stroke="#282c33" stroke-width="2" fill="#cfe4ff"/><use xlink:href="#j" transform="matrix(1,0,0,1,4315.705076291443,4240.243561253814) translate(26.392795138888886 32.189670138888886)"/><use xlink:href="#q" transform="matrix(1,0,0,1,4315.705076291443,4240.243561253814) translate(77.90104166666666 32.189670138888886)"/><path d="M4486.55 4234.24a6 6 0 0 1 6-6h128.28a6 6 0 0 1 6 6v56.7a6 6 0 0 1-6 6h-128.28a6 6 0 0 1-6-6z" stroke="#282c33" stroke-width="2" fill="#cfe4ff"/><use xlink:href="#j" transform="matrix(1,0,0,1,4498.551389515514,4240.243561253814) translate(26.392795138888886 32.189670138888886)"/><use xlink:href="#r" transform="matrix(1,0,0,1,4498.551389515514,4240.243561253814) translate(77.90104166666666 32.189670138888886)"/><path d="M4298.35 4388.4a6 6 0 0 1 6-6h138.98a6 6 0 0 1 6 6v36.65a6 6 0 0 1-6 6h-138.98a6 6 0 0 1-6-6z" stroke="#282c33" stroke-width="2" fill="#6db1ff"/><use xlink:href="#s" transform="matrix(1,0,0,1,4310.353485838353,4394.397562495153) translate(11.427517361111114 23.75217013888889)"/><use xlink:href="#t" transform="matrix(1,0,0,1,4310.353485838353,4394.397562495153) translate(74.89322916666666 23.75217013888889)"/><path d="M4298.35 4325.48a6 6 0 0 1 6-6h138.98a6 6 0 0 1 6 6v36.65a6 6 0 0 1-6 6h-138.98a6 6 0 0 1-6-6z" stroke="#282c33" stroke-width="2" fill="#fc9432"/><use xlink:href="#u" transform="matrix(1,0,0,1,4310.353485838353,4331.477268101083) translate(2.394314236111107 23.75217013888889)"/><use xlink:href="#v" transform="matrix(1,0,0,1,4310.353485838353,4331.477268101083) translate(65.03537326388889 23.75217013888889)"/><path d="M4481.2 4388.4a6 6 0 0 1 6-6h138.98a6 6 0 0 1 6 6v36.65a6 6 0 0 1-6 6H4487.2a6 6 0 0 1-6-6z" stroke="#282c33" stroke-width="2" fill="#6db1ff"/><use xlink:href="#s" transform="matrix(1,0,0,1,4493.199799062423,4394.397562495153) translate(11.427517361111114 23.75217013888889)"/><use xlink:href="#t" transform="matrix(1,0,0,1,4493.199799062423,4394.397562495153) translate(74.89322916666666 23.75217013888889)"/><path d="M4481.2 4325.48a6 6 0 0 1 6-6h138.98a6 6 0 0 1 6 6v36.65a6 6 0 0 1-6 6H4487.2a6 6 0 0 1-6-6z" stroke="#282c33" stroke-width="2" fill="#fc9432"/><use xlink:href="#u" transform="matrix(1,0,0,1,4493.199799062423,4331.477268101083) translate(2.394314236111107 23.75217013888889)"/><use xlink:href="#v" transform="matrix(1,0,0,1,4493.199799062423,4331.477268101083) translate(65.03537326388889 23.75217013888889)"/><path d="M4373.84 4298.94v18.54" stroke="#3a414a" stroke-width="2" fill="none"/><path d="M4374.82 4298.97h-1.95v-1.03h1.95zM4374.82 4318.48h-1.95v-1.03h1.95z" stroke="#3a414a" stroke-width=".05" fill="#3a414a"/><path d="M4373.84 4370.13v10.27" stroke="#3a414a" stroke-width="2" fill="none"/><path d="M4374.82 4370.15h-1.95v-1.02h1.95zM4374.82 4381.4h-1.95v-1.03h1.95z" stroke="#3a414a" stroke-width=".05" fill="#3a414a"/><path d="M4556.7 4298.94v18.54" stroke="#3a414a" stroke-width="2" fill="none"/><path d="M4557.66 4298.97h-1.95v-1.03h1.96zM4557.66 4318.48h-1.95v-1.03h1.96z" stroke="#3a414a" stroke-width=".05" fill="#3a414a"/><path d="M4556.7 4370.13v10.27" stroke="#3a414a" stroke-width="2" fill="none"/><path d="M4557.66 4370.15h-1.95v-1.02h1.96zM4557.66 4381.4h-1.95v-1.03h1.96z" stroke="#3a414a" stroke-width=".05" fill="#3a414a"/><path d="M4467.03 4207.7v3.28a6 6 0 0 1-6 6h-81.2a6 6 0 0 0-6 6v3.26" stroke="#3a414a" stroke-width="2" fill="none"/><path d="M4468 4207.73h-1.94v-1.02h1.95zM4374.82 4227.24h-1.95v-1.02h1.95z" stroke="#3a414a" stroke-width=".05" fill="#3a414a"/><path d="M4467.03 4207.7v3.28a6 6 0 0 0 6 6h77.66a6 6 0 0 1 6 6v3.26" stroke="#3a414a" stroke-width="2" fill="none"/><path d="M4468 4207.73h-1.94v-1.02h1.95zM4557.66 4227.24h-1.95v-1.02h1.96z" stroke="#3a414a" stroke-width=".05" fill="#3a414a"/><path d="M4672.7 4234.24a6 6 0 0 1 6-6H4807a6 6 0 0 1 6 6v56.7a6 6 0 0 1-6 6H4678.7a6 6 0 0 1-6-6z" stroke="#282c33" stroke-width="2" fill="#cfe4ff"/><use xlink:href="#j" transform="matrix(1,0,0,1,4684.707767191798,4240.243561253814) translate(26.392795138888886 32.189670138888886)"/><use xlink:href="#q" transform="matrix(1,0,0,1,4684.707767191798,4240.243561253814) translate(77.90104166666666 32.189670138888886)"/><path d="M4855.55 4234.24a6 6 0 0 1 6-6h128.28a6 6 0 0 1 6 6v56.7a6 6 0 0 1-6 6h-128.28a6 6 0 0 1-6-6z" stroke="#282c33" stroke-width="2" fill="#cfe4ff"/><use xlink:href="#j" transform="matrix(1,0,0,1,4867.554080415867,4240.243561253814) translate(26.392795138888886 32.189670138888886)"/><use xlink:href="#r" transform="matrix(1,0,0,1,4867.554080415867,4240.243561253814) translate(77.90104166666666 32.189670138888886)"/><path d="M4667.36 4388.4a6 6 0 0 1 6-6h138.97a6 6 0 0 1 6 6v36.65a6 6 0 0 1-6 6h-138.97a6 6 0 0 1-6-6z" stroke="#282c33" stroke-width="2" fill="#6db1ff"/><use xlink:href="#s" transform="matrix(1,0,0,1,4679.356176738707,4394.397562495153) translate(11.427517361111114 23.75217013888889)"/><use xlink:href="#t" transform="matrix(1,0,0,1,4679.356176738707,4394.397562495153) translate(74.89322916666666 23.75217013888889)"/><path d="M4667.36 4325.48a6 6 0 0 1 6-6h138.97a6 6 0 0 1 6 6v36.65a6 6 0 0 1-6 6h-138.97a6 6 0 0 1-6-6z" stroke="#282c33" stroke-width="2" fill="#fc9432"/><use xlink:href="#u" transform="matrix(1,0,0,1,4679.356176738707,4331.477268101083) translate(2.394314236111107 23.75217013888889)"/><use xlink:href="#v" transform="matrix(1,0,0,1,4679.356176738707,4331.477268101083) translate(65.03537326388889 23.75217013888889)"/><path d="M4850.2 4388.4a6 6 0 0 1 6-6h138.98a6 6 0 0 1 6 6v36.65a6 6 0 0 1-6 6H4856.2a6 6 0 0 1-6-6z" stroke="#282c33" stroke-width="2" fill="#6db1ff"/><use xlink:href="#s" transform="matrix(1,0,0,1,4862.202489962777,4394.397562495153) translate(11.427517361111114 23.75217013888889)"/><use xlink:href="#t" transform="matrix(1,0,0,1,4862.202489962777,4394.397562495153) translate(74.89322916666666 23.75217013888889)"/><path d="M4850.2 4325.48a6 6 0 0 1 6-6h138.98a6 6 0 0 1 6 6v36.65a6 6 0 0 1-6 6H4856.2a6 6 0 0 1-6-6z" stroke="#282c33" stroke-width="2" fill="#fc9432"/><use xlink:href="#u" transform="matrix(1,0,0,1,4862.202489962777,4331.477268101083) translate(2.394314236111107 23.75217013888889)"/><use xlink:href="#v" transform="matrix(1,0,0,1,4862.202489962777,4331.477268101083) translate(65.03537326388889 23.75217013888889)"/><path d="M4742.85 4298.94v18.54" stroke="#3a414a" stroke-width="2" fill="none"/><path d="M4743.82 4298.97h-1.95v-1.03h1.95zM4743.82 4318.48h-1.95v-1.03h1.95z" stroke="#3a414a" stroke-width=".05" fill="#3a414a"/><path d="M4742.85 4370.13v10.27" stroke="#3a414a" stroke-width="2" fill="none"/><path d="M4743.82 4370.15h-1.95v-1.02h1.95zM4743.82 4381.4h-1.95v-1.03h1.95z" stroke="#3a414a" stroke-width=".05" fill="#3a414a"/><path d="M4925.7 4298.94v18.54" stroke="#3a414a" stroke-width="2" fill="none"/><path d="M4926.67 4298.97h-1.95v-1.03h1.95zM4926.67 4318.48h-1.95v-1.03h1.95z" stroke="#3a414a" stroke-width=".05" fill="#3a414a"/><path d="M4925.7 4370.13v10.27" stroke="#3a414a" stroke-width="2" fill="none"/><path d="M4926.67 4370.15h-1.95v-1.02h1.95zM4926.67 4381.4h-1.95v-1.03h1.95z" stroke="#3a414a" stroke-width=".05" fill="#3a414a"/><path d="M5036.5 4234.24a6 6 0 0 1 6-6h128.27a6 6 0 0 1 6 6v56.7a6 6 0 0 1-6 6H5042.5a6 6 0 0 1-6-6z" stroke="#282c33" stroke-width="2" fill="#cfe4ff"/><use xlink:href="#j" transform="matrix(1,0,0,1,5048.4942587322,4240.2435612538175) translate(26.392795138888886 32.189670138888886)"/><use xlink:href="#w" transform="matrix(1,0,0,1,5048.4942587322,4240.2435612538175) translate(77.90104166666666 32.189670138888886)"/><path d="M5219.34 4234.24a6 6 0 0 1 6-6h128.27a6 6 0 0 1 6 6v56.7a6 6 0 0 1-6 6h-128.26a6 6 0 0 1-6-6z" stroke="#282c33" stroke-width="2" fill="#cfe4ff"/><use xlink:href="#j" transform="matrix(1,0,0,1,5231.34057195627,4240.2435612538175) translate(26.392795138888886 32.189670138888886)"/><use xlink:href="#x" transform="matrix(1,0,0,1,5231.34057195627,4240.2435612538175) translate(77.90104166666666 32.189670138888886)"/><path d="M5031.14 4388.4a6 6 0 0 1 6-6h138.98a6 6 0 0 1 6 6v36.65a6 6 0 0 1-6 6h-138.98a6 6 0 0 1-6-6z" stroke="#282c33" stroke-width="2" fill="#6db1ff"/><use xlink:href="#s" transform="matrix(1,0,0,1,5043.14266827911,4394.3975624951545) translate(11.427517361111114 23.75217013888889)"/><use xlink:href="#t" transform="matrix(1,0,0,1,5043.14266827911,4394.3975624951545) translate(74.89322916666666 23.75217013888889)"/><path d="M5031.14 4325.48a6 6 0 0 1 6-6h138.98a6 6 0 0 1 6 6v36.65a6 6 0 0 1-6 6h-138.98a6 6 0 0 1-6-6z" stroke="#282c33" stroke-width="2" fill="#fc9432"/><use xlink:href="#u" transform="matrix(1,0,0,1,5043.14266827911,4331.4772681010845) translate(2.394314236111107 23.75217013888889)"/><use xlink:href="#v" transform="matrix(1,0,0,1,5043.14266827911,4331.4772681010845) translate(65.03537326388889 23.75217013888889)"/><path d="M5214 4388.4a6 6 0 0 1 6-6h138.97a6 6 0 0 1 6 6v36.65a6 6 0 0 1-6 6H5220a6 6 0 0 1-6-6z" stroke="#282c33" stroke-width="2" fill="#6db1ff"/><use xlink:href="#s" transform="matrix(1,0,0,1,5225.988981503179,4394.3975624951545) translate(11.427517361111114 23.75217013888889)"/><use xlink:href="#t" transform="matrix(1,0,0,1,5225.988981503179,4394.3975624951545) translate(74.89322916666666 23.75217013888889)"/><path d="M5214 4325.48a6 6 0 0 1 6-6h138.97a6 6 0 0 1 6 6v36.65a6 6 0 0 1-6 6H5220a6 6 0 0 1-6-6z" stroke="#282c33" stroke-width="2" fill="#fc9432"/><use xlink:href="#u" transform="matrix(1,0,0,1,5225.988981503179,4331.4772681010845) translate(2.394314236111107 23.75217013888889)"/><use xlink:href="#v" transform="matrix(1,0,0,1,5225.988981503179,4331.4772681010845) translate(65.03537326388889 23.75217013888889)"/><path d="M5106.63 4298.94v18.54" stroke="#3a414a" stroke-width="2" fill="none"/><path d="M5107.6 4298.97h-1.94v-1.03h1.95zM5107.6 4318.48h-1.94v-1.03h1.95z" stroke="#3a414a" stroke-width=".05" fill="#3a414a"/><path d="M5106.63 4370.13v10.27" stroke="#3a414a" stroke-width="2" fill="none"/><path d="M5107.6 4370.15h-1.94v-1.02h1.95zM5107.6 4381.4h-1.94v-1.03h1.95z" stroke="#3a414a" stroke-width=".05" fill="#3a414a"/><path d="M5289.48 4298.94v18.54" stroke="#3a414a" stroke-width="2" fill="none"/><path d="M5290.45 4298.97h-1.95v-1.03h1.95zM5290.45 4318.48h-1.95v-1.03h1.95z" stroke="#3a414a" stroke-width=".05" fill="#3a414a"/><path d="M5289.48 4370.13v10.27" stroke="#3a414a" stroke-width="2" fill="none"/><path d="M5290.45 4370.15h-1.95v-1.02h1.95zM5290.45 4381.4h-1.95v-1.03h1.95z" stroke="#3a414a" stroke-width=".05" fill="#3a414a"/><path d="M4831.85 4207.7v3.28a6 6 0 0 0 6 6h81.84a6 6 0 0 1 6 6v3.26" stroke="#3a414a" stroke-width="2" fill="none"/><path d="M4832.83 4207.73h-1.95v-1.02h1.95zM4926.67 4227.24h-1.95v-1.02h1.95z" stroke="#3a414a" stroke-width=".05" fill="#3a414a"/><path d="M4831.85 4207.7v3.28a6 6 0 0 1-6 6h-77a6 6 0 0 0-6 6v3.26" stroke="#3a414a" stroke-width="2" fill="none"/><path d="M4832.83 4207.73h-1.95v-1.02h1.95zM4743.82 4227.24h-1.95v-1.02h1.95z" stroke="#3a414a" stroke-width=".05" fill="#3a414a"/><path d="M5196.76 4207.7v3.28a6 6 0 0 1-6 6h-78.13a6 6 0 0 0-6 6v3.26" stroke="#3a414a" stroke-width="2" fill="none"/><path d="M5197.73 4207.73h-1.95v-1.02h1.95zM5107.6 4227.24h-1.94v-1.02h1.95z" stroke="#3a414a" stroke-width=".05" fill="#3a414a"/><path d="M5196.76 4207.7v3.28a6 6 0 0 0 6 6h80.72a6 6 0 0 1 6 6v3.26" stroke="#3a414a" stroke-width="2" fill="none"/><path d="M5197.73 4207.73h-1.95v-1.02h1.95zM5290.45 4227.24h-1.95v-1.02h1.95z" stroke="#3a414a" stroke-width=".05" fill="#3a414a"/><path d="M4839.86 3785.5a6 6 0 0 1 6-6h510.7a6 6 0 0 1 6 6v36.64a6 6 0 0 1-6 6h-510.7a6 6 0 0 1-6-6z" stroke="#282c33" stroke-width="2" fill="#6db1ff"/><use xlink:href="#y" transform="matrix(1,0,0,1,4851.859048618182,3791.4900479801468) translate(23.008029513888914 23.75217013888889)"/><use xlink:href="#z" transform="matrix(1,0,0,1,4851.859048618182,3791.4900479801468) translate(74.09309895833336 23.75217013888889)"/><use xlink:href="#A" transform="matrix(1,0,0,1,4851.859048618182,3791.4900479801468) translate(214.52278645833337 23.75217013888889)"/><use xlink:href="#B" transform="matrix(1,0,0,1,4851.859048618182,3791.4900479801468) translate(227.4459635416667 23.75217013888889)"/><use xlink:href="#C" transform="matrix(1,0,0,1,4851.859048618182,3791.4900479801468) translate(306.10264756944446 23.75217013888889)"/><use xlink:href="#D" transform="matrix(1,0,0,1,4851.859048618182,3791.4900479801468) translate(345.16514756944446 23.75217013888889)"/><use xlink:href="#E" transform="matrix(1,0,0,1,4851.859048618182,3791.4900479801468) translate(417.126953125 23.75217013888889)"/><path d="M4304.02 3785.5a6 6 0 0 1 6-6H4791a6 6 0 0 1 6 6v36.64a6 6 0 0 1-6 6H4310a6 6 0 0 1-6-6z" stroke="#282c33" stroke-width="2" fill="#fc9432"/><use xlink:href="#F" transform="matrix(1,0,0,1,4316.018178456951,3791.490047980145) translate(70.74674479166669 23.75217013888889)"/><use xlink:href="#G" transform="matrix(1,0,0,1,4316.018178456951,3791.490047980145) translate(118.65256076388891 23.75217013888889)"/><use xlink:href="#H" transform="matrix(1,0,0,1,4316.018178456951,3791.490047980145) translate(181.326171875 23.75217013888889)"/><use xlink:href="#I" transform="matrix(1,0,0,1,4316.018178456951,3791.490047980145) translate(296.12651909722223 23.75217013888889)"/><path d="M4798.5 3803.82h39.86" stroke="#3a414a" fill="none"/><path d="M4798.5 3804.3h-.5v-.96h.5zM4838.86 3804.3h-.5v-.96h.5z" stroke="#3a414a" stroke-width=".05" fill="#3a414a"/><path d="M5101.2 3830.14v49.07a6 6 0 0 1-6 6h-622.17a6 6 0 0 0-6 6v34.08" stroke="#3a414a" stroke-width="2" fill="none"/><path d="M5102.2 3830.17h-1.96v-1.03h1.95z" stroke="#3a414a" stroke-width=".05" fill="#3a414a"/><path d="M4467.03 3939.27l-7.5-13h15z" stroke="#3a414a" stroke-width="2" fill="#3a414a"/><path d="M5101.2 3830.14v49.07a6 6 0 0 1-6 6h-257.27a6 6 0 0 0-6 6v34.08" stroke="#3a414a" stroke-width="2" fill="none"/><path d="M5102.2 3830.17h-1.96v-1.03h1.95z" stroke="#3a414a" stroke-width=".05" fill="#3a414a"/><path d="M4831.93 3939.27l-7.5-13h15z" stroke="#3a414a" stroke-width="2" fill="#3a414a"/><path d="M5101.2 3830.14v49.07a6 6 0 0 0 6 6h83.64a6 6 0 0 1 6 6v34.08" stroke="#3a414a" stroke-width="2" fill="none"/><path d="M5102.2 3830.17h-1.96v-1.03h1.95z" stroke="#3a414a" stroke-width=".05" fill="#3a414a"/><path d="M5196.84 3939.27l-7.5-13h15z" stroke="#3a414a" stroke-width="2" fill="#3a414a"/><path d="M4718.4 4550.3c0 10.76-8.73 19.5-19.5 19.5s-19.5-8.74-19.5-19.5c0-10.77 8.73-19.5 19.5-19.5s19.5 8.73 19.5 19.5z" stroke="#3a414a" stroke-width="2" fill="#fff"/><use xlink:href="#J" transform="matrix(1,0,0,1,4684.401090288841,4535.795653314288) translate(7.7287413194444445 23.34027777777778)"/><path d="M5083.33 4550.3c0 10.76-8.73 19.5-19.5 19.5s-19.5-8.74-19.5-19.5c0-10.77 8.73-19.5 19.5-19.5s19.5 8.73 19.5 19.5z" stroke="#3a414a" stroke-width="2" fill="#fff"/><use xlink:href="#K" transform="matrix(1,0,0,1,5049.330631986453,4535.79565331429) translate(7.641935763888889 23.34027777777778)"/><path d="M4530.36 4550.3c0 10.76-8.73 19.5-19.5 19.5s-19.5-8.74-19.5-19.5c0-10.77 8.73-19.5 19.5-19.5s19.5 8.73 19.5 19.5z" stroke="#3a414a" stroke-width="2" fill="#fff"/><use xlink:href="#L" transform="matrix(1,0,0,1,4496.361658441803,4535.795653314288) translate(8.217022569444445 23.34027777777778)"/><path d="M4807.9 4550.3c0 10.76-8.73 19.5-19.5 19.5s-19.5-8.74-19.5-19.5c0-10.77 8.73-19.5 19.5-19.5s19.5 8.73 19.5 19.5z" stroke="#3a414a" stroke-width="2" fill="#fff"/><use xlink:href="#M" transform="matrix(1,0,0,1,4773.901748109037,4535.795653314288) translate(7.750442708333334 23.34027777777778)"/><path d="M5263.42 4550.3c0 10.76-8.73 19.5-19.5 19.5s-19.5-8.74-19.5-19.5c0-10.77 8.73-19.5 19.5-19.5s19.5 8.73 19.5 19.5z" stroke="#3a414a" stroke-width="2" fill="#fff"/><use xlink:href="#N" transform="matrix(1,0,0,1,5229.421254534452,4535.795653314288) translate(7.614809027777778 23.34027777777778)"/><path d="M5176.77 4550.3c0 10.76-8.73 19.5-19.5 19.5s-19.5-8.74-19.5-19.5c0-10.77 8.73-19.5 19.5-19.5s19.5 8.73 19.5 19.5z" stroke="#3a414a" stroke-width="2" fill="#fff"/><use xlink:href="#O" transform="matrix(1,0,0,1,5142.768922227622,4535.7956533142915) translate(7.614809027777778 23.34027777777778)"/><path d="M4393.34 4550.3c0 10.76-8.73 19.5-19.5 19.5s-19.5-8.74-19.5-19.5c0-10.77 8.73-19.5 19.5-19.5s19.5 8.73 19.5 19.5z" stroke="#3a414a" stroke-width="2" fill="#fff"/><use xlink:href="#P" transform="matrix(1,0,0,1,4359.342408039154,4535.795653314288) translate(7.327265625000001 23.34027777777778)"/><path d="M4668.97 4451.32a6 6 0 0 1 6-6h47.86a6 6 0 0 1 6 6v59.2a6 6 0 0 1-6 6h-47.86a6 6 0 0 1-6-6z" stroke="#282c33" stroke-width="2" fill="#1e5a9e"/><use xlink:href="#Q" transform="matrix(1,0,0,1,4680.968817257569,4457.317856889221) translate(-2.7248263888888893 31.59548611111111)"/><path d="M4279.57 4451.32a6 6 0 0 1 6-6h47.86a6 6 0 0 1 6 6v59.2a6 6 0 0 1-6 6h-47.86a6 6 0 0 1-6-6z" stroke="#282c33" stroke-width="2" fill="#ff6b35"/><use xlink:href="#R" transform="matrix(1,0,0,1,4291.568804753542,4457.317856889217) translate(-8.963975694444443 31.59548611111111)"/><path d="M5033.9 4451.32a6 6 0 0 1 6-6h47.86a6 6 0 0 1 6 6v59.2a6 6 0 0 1-6 6h-47.86a6 6 0 0 1-6-6z" stroke="#282c33" stroke-width="2" fill="#900c4b"/><use xlink:href="#S" transform="matrix(1,0,0,1,5045.898358955181,4457.317856889223) translate(-8.963975694444443 31.59548611111111)"/><path d="M4758.47 4451.32a6 6 0 0 1 6-6h47.86a6 6 0 0 1 6 6v59.2a6 6 0 0 1-6 6h-47.86a6 6 0 0 1-6-6z" stroke="#282c33" stroke-width="2" fill="#1e5a9e"/><use xlink:href="#Q" transform="matrix(1,0,0,1,4770.469475077764,4457.317856889219) translate(-2.7248263888888893 31.59548611111111)"/><path d="M5214 4451.32a6 6 0 0 1 6-6h47.85a6 6 0 0 1 6 6v59.2a6 6 0 0 1-6 6H5220a6 6 0 0 1-6-6z" stroke="#282c33" stroke-width="2" fill="#00c4b4"/><use xlink:href="#T" transform="matrix(1,0,0,1,5225.988981503179,4457.317856889223) translate(-8.963975694444443 31.59548611111111)"/><path d="M4480.93 4451.32a6 6 0 0 1 6-6h47.86a6 6 0 0 1 6 6v59.2a6 6 0 0 1-6 6h-47.87a6 6 0 0 1-6-6z" stroke="#282c33" stroke-width="2" fill="#277da1"/><use xlink:href="#U" transform="matrix(1,0,0,1,4492.929385410531,4457.317856889223) translate(-8.963975694444443 31.59548611111111)"/><path d="M5126.86 4451.32a6 6 0 0 1 6-6h47.86a6 6 0 0 1 6 6v59.2a6 6 0 0 1-6 6h-47.86a6 6 0 0 1-6-6z" stroke="#282c33" stroke-width="2" fill="#900c4b"/><use xlink:href="#S" transform="matrix(1,0,0,1,5138.85698454932,4457.317856889221) translate(-8.963975694444443 31.59548611111111)"/><path d="M4941.27 3600.54a6 6 0 0 1 6-6h47.86a6 6 0 0 1 6 6v59.2a6 6 0 0 1-6 6h-47.86a6 6 0 0 1-6-6z" stroke="#282c33" stroke-width="2" fill="#ff6b35"/><use xlink:href="#R" transform="matrix(1,0,0,1,4953.26475014061,3606.536740164498) translate(-8.963975694444443 31.59548611111111)"/><path d="M4870.45 3600.54a6 6 0 0 1 6-6h47.86a6 6 0 0 1 6 6v59.2a6 6 0 0 1-6 6h-47.85a6 6 0 0 1-6-6z" stroke="#282c33" stroke-width="2" fill="#1e5a9e"/><use xlink:href="#Q" transform="matrix(1,0,0,1,4882.445690182808,3606.536740164498) translate(-2.7248263888888893 31.59548611111111)"/><path d="M4799.63 3600.54a6 6 0 0 1 6-6h47.86a6 6 0 0 1 6 6v59.2a6 6 0 0 1-6 6h-47.87a6 6 0 0 1-6-6z" stroke="#282c33" stroke-width="2" fill="#900c4b"/><use xlink:href="#S" transform="matrix(1,0,0,1,4811.626630225006,3606.536740164498) translate(-8.963975694444443 31.59548611111111)"/><path d="M4729.34 3600.54a6 6 0 0 1 6-6h47.86a6 6 0 0 1 6 6v59.2a6 6 0 0 1-6 6h-47.86a6 6 0 0 1-6-6z" stroke="#282c33" stroke-width="2" fill="#ff6b35"/><use xlink:href="#R" transform="matrix(1,0,0,1,4741.338630849943,3606.536740164498) translate(-8.963975694444443 31.59548611111111)"/><path d="M4659.05 3600.54a6 6 0 0 1 6-6h47.86a6 6 0 0 1 6.02 6v59.2a6 6 0 0 1-6 6h-47.87a6 6 0 0 1-6-6z" stroke="#282c33" stroke-width="2" fill="#1e5a9e"/><use xlink:href="#Q" transform="matrix(1,0,0,1,4671.05063147488,3606.536740164498) translate(-2.7248263888888893 31.59548611111111)"/><path d="M4588.76 3600.54a6 6 0 0 1 6-6h47.87a6 6 0 0 1 6 6v59.2a6 6 0 0 1-6 6h-47.87a6 6 0 0 1-6-6z" stroke="#282c33" stroke-width="2" fill="#00c4b4"/><use xlink:href="#T" transform="matrix(1,0,0,1,4600.762632099817,3606.536740164498) translate(-8.963975694444443 31.59548611111111)"/><path d="M4518.48 3600.54a6 6 0 0 1 6-6h47.86a6 6 0 0 1 6 6v59.2a6 6 0 0 1-6 6h-47.86a6 6 0 0 1-6-6z" stroke="#282c33" stroke-width="2" fill="#277da1"/><use xlink:href="#U" transform="matrix(1,0,0,1,4530.474632724754,3606.536740164498) translate(-8.963975694444443 31.59548611111111)"/><path d="M4444.98 3600.54a6 6 0 0 1 6-6h47.86a6 6 0 0 1 6 6v59.2a6 6 0 0 1-6 6h-47.86a6 6 0 0 1-6-6z" stroke="#282c33" stroke-width="2" fill="#333"/><use xlink:href="#V" transform="matrix(1,0,0,1,4456.977231876127,3606.536740164498) translate(-8.963975694444443 31.59548611111111)"/><path d="M4371.48 3600.54a6 6 0 0 1 6-6h47.86a6 6 0 0 1 6 6v59.2a6 6 0 0 1-6 6h-47.86a6 6 0 0 1-6-6z" stroke="#282c33" stroke-width="2" fill="#900c4b"/><use xlink:href="#S" transform="matrix(1,0,0,1,4383.4798310275,3606.536740164498) translate(-8.963975694444443 31.59548611111111)"/><path d="M4301.2 3600.54a6 6 0 0 1 6-6h47.86a6 6 0 0 1 6 6v59.2a6 6 0 0 1-6 6h-47.87a6 6 0 0 1-6-6z" stroke="#282c33" stroke-width="2" fill="#ff6b35"/><use xlink:href="#R" transform="matrix(1,0,0,1,4313.191831652437,3606.536740164498) translate(-8.963975694444443 31.59548611111111)"/><path d="M4350.62 3560.24c0 10.76-8.73 19.5-19.5 19.5s-19.5-8.74-19.5-19.5c0-10.77 8.73-19.5 19.5-19.5s19.5 8.73 19.5 19.5z" stroke="#3a414a" stroke-width="2" fill="#fff"/><use xlink:href="#W" transform="matrix(1,0,0,1,4316.624104683709,3545.734875914699) translate(2.9761371527777793 23.34027777777778)"/><path d="M4990.7 3560.24c0 10.76-8.73 19.5-19.5 19.5s-19.5-8.74-19.5-19.5c0-10.77 8.73-19.5 19.5-19.5s19.5 8.73 19.5 19.5z" stroke="#3a414a" stroke-width="2" fill="#fff"/><use xlink:href="#X" transform="matrix(1,0,0,1,4956.697023171882,3545.734875914699) translate(9.985685763888888 23.34027777777778)"/><path d="M4919.88 3560.24c0 10.76-8.73 19.5-19.5 19.5s-19.5-8.74-19.5-19.5c0-10.77 8.73-19.5 19.5-19.5s19.5 8.73 19.5 19.5z" stroke="#3a414a" stroke-width="2" fill="#fff"/><use xlink:href="#J" transform="matrix(1,0,0,1,4885.87796321408,3545.734875914699) translate(7.7287413194444445 23.34027777777778)"/><path d="M4849.06 3560.24c0 10.76-8.73 19.5-19.5 19.5s-19.5-8.74-19.5-19.5c0-10.77 8.73-19.5 19.5-19.5s19.5 8.73 19.5 19.5z" stroke="#3a414a" stroke-width="2" fill="#fff"/><use xlink:href="#K" transform="matrix(1,0,0,1,4815.058903256278,3545.734875914699) translate(7.641935763888889 23.34027777777778)"/><path d="M4778.77 3560.24c0 10.76-8.73 19.5-19.5 19.5s-19.5-8.74-19.5-19.5c0-10.77 8.73-19.5 19.5-19.5s19.5 8.73 19.5 19.5z" stroke="#3a414a" stroke-width="2" fill="#fff"/><use xlink:href="#Y" transform="matrix(1,0,0,1,4744.770903881215,3545.734875914699) translate(7.327265625000001 23.34027777777778)"/><path d="M4708.48 3560.24c0 10.76-8.73 19.5-19.5 19.5s-19.5-8.74-19.5-19.5c0-10.77 8.73-19.5 19.5-19.5s19.5 8.73 19.5 19.5z" stroke="#3a414a" stroke-width="2" fill="#fff"/><use xlink:href="#M" transform="matrix(1,0,0,1,4674.482904506152,3545.734875914699) translate(7.750442708333334 23.34027777777778)"/><path d="M4638.2 3560.24c0 10.76-8.74 19.5-19.5 19.5-10.77 0-19.5-8.74-19.5-19.5 0-10.77 8.73-19.5 19.5-19.5 10.76 0 19.5 8.73 19.5 19.5z" stroke="#3a414a" stroke-width="2" fill="#fff"/><use xlink:href="#N" transform="matrix(1,0,0,1,4604.194905131089,3545.734875914699) translate(7.614809027777778 23.34027777777778)"/><path d="M4567.9 3560.24c0 10.76-8.72 19.5-19.5 19.5-10.76 0-19.5-8.74-19.5-19.5 0-10.77 8.74-19.5 19.5-19.5 10.78 0 19.5 8.73 19.5 19.5z" stroke="#3a414a" stroke-width="2" fill="#fff"/><use xlink:href="#Z" transform="matrix(1,0,0,1,4533.906905756026,3545.734875914699) translate(8.217022569444445 23.34027777777778)"/><path d="M4494.4 3560.24c0 10.76-8.72 19.5-19.5 19.5-10.76 0-19.5-8.74-19.5-19.5 0-10.77 8.74-19.5 19.5-19.5 10.78 0 19.5 8.73 19.5 19.5z" stroke="#3a414a" stroke-width="2" fill="#fff"/><use xlink:href="#aa" transform="matrix(1,0,0,1,4460.409504907399,3545.734875914699) translate(7.6310850694444445 23.34027777777778)"/><path d="M4420.9 3560.24c0 10.76-8.72 19.5-19.5 19.5-10.76 0-19.5-8.74-19.5-19.5 0-10.77 8.74-19.5 19.5-19.5 10.78 0 19.5 8.73 19.5 19.5z" stroke="#3a414a" stroke-width="2" fill="#fff"/><use xlink:href="#O" transform="matrix(1,0,0,1,4386.9121040587725,3545.734875914699) translate(7.614809027777778 23.34027777777778)"/><path d="M4330.12 3592.55a1 1 0 0 1 1-1 1 1 0 0 1 1 1 1 1 0 0 1-1 1 1 1 0 0 1-1-1v-.02m0-3.58a1 1 0 0 1 1-1 1 1 0 0 1 1 1 1 1 0 0 1-1 1 1 1 0 0 1-1-1v-.02m0-3.58a1 1 0 0 1 1-1 1 1 0 0 1 1 1 1 1 0 0 1-1 1 1 1 0 0 1-1-1v-.02" fill="#3a414a"/><path d="M4332.1 3593.54h-1.95v-1.03h1.95zM4331.07 3580.74l.78-.02.25-.04v1.08h-1.95v-1.14z" stroke="#3a414a" stroke-width=".05" fill="#3a414a"/><path d="M4400.4 3592.55a1 1 0 0 1 1-1 1 1 0 0 1 1 1 1 1 0 0 1-1 1 1 1 0 0 1-1-1v-.02m0-4.27a1 1 0 0 1 1-1 1 1 0 0 1 1 1 1 1 0 0 1-1 1 1 1 0 0 1-1-1v-.02m0-4.27a1 1 0 0 1 1-1 1 1 0 0 1 1 1 1 1 0 0 1-1 1 1 1 0 0 1-1-1v-.02" fill="#3a414a"/><path d="M4402.4 3593.54h-1.96v-1.03h1.95z" stroke="#3a414a" stroke-width=".05" fill="#3a414a"/><path d="M4401.4 3579.7v-1.03" stroke="#3a414a" stroke-width="2" fill="none"/><path d="M4473.9 3592.55a1 1 0 0 1 1-1 1 1 0 0 1 1 1 1 1 0 0 1-1 1 1 1 0 0 1-1-1v-.02m0-3.58a1 1 0 0 1 1-1 1 1 0 0 1 1 1 1 1 0 0 1-1 1 1 1 0 0 1-1-1v-.02m0-3.58a1 1 0 0 1 1-1 1 1 0 0 1 1 1 1 1 0 0 1-1 1 1 1 0 0 1-1-1v-.02" fill="#3a414a"/><path d="M4475.9 3593.54h-1.96v-1.03h1.95zM4474.85 3580.74l.8-.02.24-.04v1.08h-1.96v-1.14z" stroke="#3a414a" stroke-width=".05" fill="#3a414a"/><path d="M4547.4 3592.55a1 1 0 0 1 1-1 1 1 0 0 1 1 1 1 1 0 0 1-1 1 1 1 0 0 1-1-1v-.02m0-3.58a1 1 0 0 1 1-1 1 1 0 0 1 1 1 1 1 0 0 1-1 1 1 1 0 0 1-1-1v-.02m0-3.58a1 1 0 0 1 1-1 1 1 0 0 1 1 1 1 1 0 0 1-1 1 1 1 0 0 1-1-1v-.02" fill="#3a414a"/><path d="M4549.38 3593.54h-1.95v-1.03h1.95zM4548.35 3580.74l.8-.02.23-.04v1.08h-1.95v-1.14z" stroke="#3a414a" stroke-width=".05" fill="#3a414a"/><path d="M4618.2 3593.04a.5.5 0 0 1 .5-.5.5.5 0 0 1 .5.5.5.5 0 0 1-.5.5.5.5 0 0 1-.5-.5m0-1.97a.5.5 0 0 1 .5-.5.5.5 0 0 1 .5.5.5.5 0 0 1-.5.5.5.5 0 0 1-.5-.5m0-1.96a.5.5 0 0 1 .5-.5.5.5 0 0 1 .5.5.5.5 0 0 1-.5.5.5.5 0 0 1-.5-.5m0-1.96a.5.5 0 0 1 .5-.5.5.5 0 0 1 .5.5.5.5 0 0 1-.5.5.5.5 0 0 1-.5-.5m0-1.97a.5.5 0 0 1 .5-.5.5.5 0 0 1 .5.5.5.5 0 0 1-.5.5.5.5 0 0 1-.5-.5m0-1.96a.5.5 0 0 1 .5-.5.5.5 0 0 1 .5.5.5.5 0 0 1-.5.5.5.5 0 0 1-.5-.5m0-1.96a.5.5 0 0 1 .5-.5.5.5 0 0 1 .5.5.5.5 0 0 1-.5.5.5.5 0 0 1-.5-.5" fill="#3a414a"/><path d="M4619.17 3593.54h-.95v-.52h.95zM4618.64 3580.74h.53v.5h-.95v-.56z" stroke="#3a414a" stroke-width=".05" fill="#3a414a"/><path d="M4688.48 3593.04a.5.5 0 0 1 .5-.5.5.5 0 0 1 .5.5.5.5 0 0 1-.5.5.5.5 0 0 1-.5-.5m0-1.97a.5.5 0 0 1 .5-.5.5.5 0 0 1 .5.5.5.5 0 0 1-.5.5.5.5 0 0 1-.5-.5m0-1.96a.5.5 0 0 1 .5-.5.5.5 0 0 1 .5.5.5.5 0 0 1-.5.5.5.5 0 0 1-.5-.5m0-1.96a.5.5 0 0 1 .5-.5.5.5 0 0 1 .5.5.5.5 0 0 1-.5.5.5.5 0 0 1-.5-.5m0-1.97a.5.5 0 0 1 .5-.5.5.5 0 0 1 .5.5.5.5 0 0 1-.5.5.5.5 0 0 1-.5-.5m0-1.96a.5.5 0 0 1 .5-.5.5.5 0 0 1 .5.5.5.5 0 0 1-.5.5.5.5 0 0 1-.5-.5m0-1.96a.5.5 0 0 1 .5-.5.5.5 0 0 1 .5.5.5.5 0 0 1-.5.5.5.5 0 0 1-.5-.5" fill="#3a414a"/><path d="M4689.46 3593.54h-.95v-.52h.96zM4688.93 3580.74h.53v.5h-.95v-.56z" stroke="#3a414a" stroke-width=".05" fill="#3a414a"/><path d="M4758.77 3593.04a.5.5 0 0 1 .5-.5.5.5 0 0 1 .5.5.5.5 0 0 1-.5.5.5.5 0 0 1-.5-.5m0-1.97a.5.5 0 0 1 .5-.5.5.5 0 0 1 .5.5.5.5 0 0 1-.5.5.5.5 0 0 1-.5-.5m0-1.96a.5.5 0 0 1 .5-.5.5.5 0 0 1 .5.5.5.5 0 0 1-.5.5.5.5 0 0 1-.5-.5m0-1.96a.5.5 0 0 1 .5-.5.5.5 0 0 1 .5.5.5.5 0 0 1-.5.5.5.5 0 0 1-.5-.5m0-1.97a.5.5 0 0 1 .5-.5.5.5 0 0 1 .5.5.5.5 0 0 1-.5.5.5.5 0 0 1-.5-.5m0-1.96a.5.5 0 0 1 .5-.5.5.5 0 0 1 .5.5.5.5 0 0 1-.5.5.5.5 0 0 1-.5-.5m0-1.96a.5.5 0 0 1 .5-.5.5.5 0 0 1 .5.5.5.5 0 0 1-.5.5.5.5 0 0 1-.5-.5" fill="#3a414a"/><path d="M4759.75 3593.54h-.95v-.52h.95zM4759.22 3580.74h.53v.5h-.95v-.56z" stroke="#3a414a" stroke-width=".05" fill="#3a414a"/><path d="M4829.06 3593.04a.5.5 0 0 1 .5-.5.5.5 0 0 1 .5.5.5.5 0 0 1-.5.5.5.5 0 0 1-.5-.5m0-1.92a.5.5 0 0 1 .5-.5.5.5 0 0 1 .5.5.5.5 0 0 1-.5.5.5.5 0 0 1-.5-.5m0-1.92a.5.5 0 0 1 .5-.5.5.5 0 0 1 .5.5.5.5 0 0 1-.5.5.5.5 0 0 1-.5-.5m0-1.92a.5.5 0 0 1 .5-.5.5.5 0 0 1 .5.5.5.5 0 0 1-.5.5.5.5 0 0 1-.5-.5m0-1.93a.5.5 0 0 1 .5-.5.5.5 0 0 1 .5.5.5.5 0 0 1-.5.5.5.5 0 0 1-.5-.5m0-1.92a.5.5 0 0 1 .5-.5.5.5 0 0 1 .5.5.5.5 0 0 1-.5.5.5.5 0 0 1-.5-.5m0-1.92a.5.5 0 0 1 .5-.5.5.5 0 0 1 .5.5.5.5 0 0 1-.5.5.5.5 0 0 1-.5-.5m0-1.9v-.02a.5.5 0 0 1 .5-.5.5.5 0 0 1 .5.5.5.5 0 0 1-.5.5.5.5 0 0 1-.5-.5" fill="#3a414a"/><path d="M4830.03 3593.54h-.95v-.52h.95z" stroke="#3a414a" stroke-width=".05" fill="#3a414a"/><path d="M4829.56 3579.6v-.52" stroke="#3a414a" fill="none"/><path d="M4899.88 3593.04a.5.5 0 0 1 .5-.5.5.5 0 0 1 .5.5.5.5 0 0 1-.5.5.5.5 0 0 1-.5-.5m0-1.97a.5.5 0 0 1 .5-.5.5.5 0 0 1 .5.5.5.5 0 0 1-.5.5.5.5 0 0 1-.5-.5m0-1.96a.5.5 0 0 1 .5-.5.5.5 0 0 1 .5.5.5.5 0 0 1-.5.5.5.5 0 0 1-.5-.5m0-1.96a.5.5 0 0 1 .5-.5.5.5 0 0 1 .5.5.5.5 0 0 1-.5.5.5.5 0 0 1-.5-.5m0-1.97a.5.5 0 0 1 .5-.5.5.5 0 0 1 .5.5.5.5 0 0 1-.5.5.5.5 0 0 1-.5-.5m0-1.96a.5.5 0 0 1 .5-.5.5.5 0 0 1 .5.5.5.5 0 0 1-.5.5.5.5 0 0 1-.5-.5m0-1.96a.5.5 0 0 1 .5-.5.5.5 0 0 1 .5.5.5.5 0 0 1-.5.5.5.5 0 0 1-.5-.5" fill="#3a414a"/><path d="M4900.85 3593.54h-.95v-.52h.95zM4900.32 3580.74h.53v.5h-.95v-.56z" stroke="#3a414a" stroke-width=".05" fill="#3a414a"/><path d="M4970.7 3593.04a.5.5 0 0 1 .5-.5.5.5 0 0 1 .5.5.5.5 0 0 1-.5.5.5.5 0 0 1-.5-.5m0-1.97a.5.5 0 0 1 .5-.5.5.5 0 0 1 .5.5.5.5 0 0 1-.5.5.5.5 0 0 1-.5-.5m0-1.96a.5.5 0 0 1 .5-.5.5.5 0 0 1 .5.5.5.5 0 0 1-.5.5.5.5 0 0 1-.5-.5m0-1.96a.5.5 0 0 1 .5-.5.5.5 0 0 1 .5.5.5.5 0 0 1-.5.5.5.5 0 0 1-.5-.5m0-1.97a.5.5 0 0 1 .5-.5.5.5 0 0 1 .5.5.5.5 0 0 1-.5.5.5.5 0 0 1-.5-.5m0-1.96a.5.5 0 0 1 .5-.5.5.5 0 0 1 .5.5.5.5 0 0 1-.5.5.5.5 0 0 1-.5-.5m0-1.96a.5.5 0 0 1 .5-.5.5.5 0 0 1 .5.5.5.5 0 0 1-.5.5.5.5 0 0 1-.5-.5" fill="#3a414a"/><path d="M4971.67 3593.54h-.95v-.52h.95zM4971.14 3580.74h.53v.5h-.95v-.56z" stroke="#3a414a" stroke-width=".05" fill="#3a414a"/><path d="M4343.9 4451.32a6 6 0 0 1 6-6h47.88a6 6 0 0 1 6 6v59.2a6 6 0 0 1-6 6h-47.87a6 6 0 0 1-6-6z" stroke="#282c33" stroke-width="2" fill="#ff6b35"/><use xlink:href="#R" transform="matrix(1,0,0,1,4355.910135007882,4457.317856889217) translate(-8.963975694444443 31.59548611111111)"/><path d="M4329 4550.3c0 10.76-8.73 19.5-19.5 19.5s-19.5-8.74-19.5-19.5c0-10.77 8.73-19.5 19.5-19.5s19.5 8.73 19.5 19.5z" stroke="#3a414a" stroke-width="2" fill="#fff"/><use xlink:href="#X" transform="matrix(1,0,0,1,4295.001077784815,4535.795653314288) translate(9.985685763888888 23.34027777777778)"/><path d="M4309 4529.3a.5.5 0 0 1 .5-.5.5.5 0 0 1 .5.5.5.5 0 0 1-.5.5.5.5 0 0 1-.5-.5m0-1.88a.5.5 0 0 1 .5-.5.5.5 0 0 1 .5.5.5.5 0 0 1-.5.5.5.5 0 0 1-.5-.5m0-1.88a.5.5 0 0 1 .5-.5.5.5 0 0 1 .5.5.5.5 0 0 1-.5.5.5.5 0 0 1-.5-.5m0-1.87a.5.5 0 0 1 .5-.5.5.5 0 0 1 .5.5.5.5 0 0 1-.5.5.5.5 0 0 1-.5-.5m0-1.88v-.02a.5.5 0 0 1 .5-.5.5.5 0 0 1 .5.5.5.5 0 0 1-.5.5.5.5 0 0 1-.5-.5m0-1.87a.5.5 0 0 1 .5-.5.5.5 0 0 1 .5.5.5.5 0 0 1-.5.5.5.5 0 0 1-.5-.5m0-1.87a.5.5 0 0 1 .5-.5.5.5 0 0 1 .5.5.5.5 0 0 1-.5.5.5.5 0 0 1-.5-.5" fill="#3a414a"/><path d="M4309.98 4529.85l-.42-.06h-.53v-.52h.95zM4309.98 4518.04h-.95v-.5h.95z" stroke="#3a414a" stroke-width=".05" fill="#3a414a"/><path d="M4373.34 4529.3a.5.5 0 0 1 .5-.5.5.5 0 0 1 .5.5.5.5 0 0 1-.5.5.5.5 0 0 1-.5-.5m0-1.88a.5.5 0 0 1 .5-.5.5.5 0 0 1 .5.5.5.5 0 0 1-.5.5.5.5 0 0 1-.5-.5m0-1.88a.5.5 0 0 1 .5-.5.5.5 0 0 1 .5.5.5.5 0 0 1-.5.5.5.5 0 0 1-.5-.5m0-1.87a.5.5 0 0 1 .5-.5.5.5 0 0 1 .5.5.5.5 0 0 1-.5.5.5.5 0 0 1-.5-.5m0-1.88v-.02a.5.5 0 0 1 .5-.5.5.5 0 0 1 .5.5.5.5 0 0 1-.5.5.5.5 0 0 1-.5-.5m0-1.87a.5.5 0 0 1 .5-.5.5.5 0 0 1 .5.5.5.5 0 0 1-.5.5.5.5 0 0 1-.5-.5m0-1.87a.5.5 0 0 1 .5-.5.5.5 0 0 1 .5.5.5.5 0 0 1-.5.5.5.5 0 0 1-.5-.5" fill="#3a414a"/><path d="M4374.32 4529.85l-.42-.06h-.53v-.52h.95zM4374.32 4518.04h-.95v-.5h.95z" stroke="#3a414a" stroke-width=".05" fill="#3a414a"/><path d="M4510.36 4529.3a.5.5 0 0 1 .5-.5.5.5 0 0 1 .5.5.5.5 0 0 1-.5.5.5.5 0 0 1-.5-.5m0-1.88a.5.5 0 0 1 .5-.5.5.5 0 0 1 .5.5.5.5 0 0 1-.5.5.5.5 0 0 1-.5-.5m0-1.88a.5.5 0 0 1 .5-.5.5.5 0 0 1 .5.5.5.5 0 0 1-.5.5.5.5 0 0 1-.5-.5m0-1.87a.5.5 0 0 1 .5-.5.5.5 0 0 1 .5.5.5.5 0 0 1-.5.5.5.5 0 0 1-.5-.5m0-1.88v-.02a.5.5 0 0 1 .5-.5.5.5 0 0 1 .5.5.5.5 0 0 1-.5.5.5.5 0 0 1-.5-.5m0-1.87a.5.5 0 0 1 .5-.5.5.5 0 0 1 .5.5.5.5 0 0 1-.5.5.5.5 0 0 1-.5-.5m0-1.87a.5.5 0 0 1 .5-.5.5.5 0 0 1 .5.5.5.5 0 0 1-.5.5.5.5 0 0 1-.5-.5" fill="#3a414a"/><path d="M4511.34 4529.85l-.42-.06h-.53v-.52h.94zM4511.34 4518.04h-.95v-.5h.94z" stroke="#3a414a" stroke-width=".05" fill="#3a414a"/><path d="M4698.4 4529.3a.5.5 0 0 1 .5-.5.5.5 0 0 1 .5.5.5.5 0 0 1-.5.5.5.5 0 0 1-.5-.5m0-1.88a.5.5 0 0 1 .5-.5.5.5 0 0 1 .5.5.5.5 0 0 1-.5.5.5.5 0 0 1-.5-.5m0-1.88a.5.5 0 0 1 .5-.5.5.5 0 0 1 .5.5.5.5 0 0 1-.5.5.5.5 0 0 1-.5-.5m0-1.87a.5.5 0 0 1 .5-.5.5.5 0 0 1 .5.5.5.5 0 0 1-.5.5.5.5 0 0 1-.5-.5m0-1.88v-.02a.5.5 0 0 1 .5-.5.5.5 0 0 1 .5.5.5.5 0 0 1-.5.5.5.5 0 0 1-.5-.5m0-1.87a.5.5 0 0 1 .5-.5.5.5 0 0 1 .5.5.5.5 0 0 1-.5.5.5.5 0 0 1-.5-.5" fill="#3a414a"/><path d="M4699.38 4529.85l-.42-.06h-.53v-.52h.95zM4699.38 4518.04h-.95v-.5h.95z" stroke="#3a414a" stroke-width=".05" fill="#3a414a"/><path d="M4787.9 4529.3a.5.5 0 0 1 .5-.5.5.5 0 0 1 .5.5.5.5 0 0 1-.5.5.5.5 0 0 1-.5-.5m0-1.88a.5.5 0 0 1 .5-.5.5.5 0 0 1 .5.5.5.5 0 0 1-.5.5.5.5 0 0 1-.5-.5m0-1.88a.5.5 0 0 1 .5-.5.5.5 0 0 1 .5.5.5.5 0 0 1-.5.5.5.5 0 0 1-.5-.5m0-1.87a.5.5 0 0 1 .5-.5.5.5 0 0 1 .5.5.5.5 0 0 1-.5.5.5.5 0 0 1-.5-.5m0-1.88v-.02a.5.5 0 0 1 .5-.5.5.5 0 0 1 .5.5.5.5 0 0 1-.5.5.5.5 0 0 1-.5-.5m0-1.87a.5.5 0 0 1 .5-.5.5.5 0 0 1 .5.5.5.5 0 0 1-.5.5.5.5 0 0 1-.5-.5" fill="#3a414a"/><path d="M4788.88 4529.85l-.42-.06h-.53v-.52h.95zM4788.88 4518.04h-.95v-.5h.95z" stroke="#3a414a" stroke-width=".05" fill="#3a414a"/><path d="M5063.33 4529.3a.5.5 0 0 1 .5-.5.5.5 0 0 1 .5.5.5.5 0 0 1-.5.5.5.5 0 0 1-.5-.5m0-1.88a.5.5 0 0 1 .5-.5.5.5 0 0 1 .5.5.5.5 0 0 1-.5.5.5.5 0 0 1-.5-.5m0-1.88a.5.5 0 0 1 .5-.5.5.5 0 0 1 .5.5.5.5 0 0 1-.5.5.5.5 0 0 1-.5-.5m0-1.87a.5.5 0 0 1 .5-.5.5.5 0 0 1 .5.5.5.5 0 0 1-.5.5.5.5 0 0 1-.5-.5m0-1.88v-.02a.5.5 0 0 1 .5-.5.5.5 0 0 1 .5.5.5.5 0 0 1-.5.5.5.5 0 0 1-.5-.5m0-1.87a.5.5 0 0 1 .5-.5.5.5 0 0 1 .5.5.5.5 0 0 1-.5.5.5.5 0 0 1-.5-.5" fill="#3a414a"/><path d="M5064.3 4529.85l-.4-.06h-.54v-.52h.95zM5064.3 4518.04h-.94v-.5h.95z" stroke="#3a414a" stroke-width=".05" fill="#3a414a"/><path d="M5156.77 4529.3a.5.5 0 0 1 .5-.5.5.5 0 0 1 .5.5.5.5 0 0 1-.5.5.5.5 0 0 1-.5-.5m0-1.88a.5.5 0 0 1 .5-.5.5.5 0 0 1 .5.5.5.5 0 0 1-.5.5.5.5 0 0 1-.5-.5m0-1.88a.5.5 0 0 1 .5-.5.5.5 0 0 1 .5.5.5.5 0 0 1-.5.5.5.5 0 0 1-.5-.5m0-1.87a.5.5 0 0 1 .5-.5.5.5 0 0 1 .5.5.5.5 0 0 1-.5.5.5.5 0 0 1-.5-.5m0-1.88v-.02a.5.5 0 0 1 .5-.5.5.5 0 0 1 .5.5.5.5 0 0 1-.5.5.5.5 0 0 1-.5-.5m0-1.87a.5.5 0 0 1 .5-.5.5.5 0 0 1 .5.5.5.5 0 0 1-.5.5.5.5 0 0 1-.5-.5" fill="#3a414a"/><path d="M5157.74 4529.85l-.4-.06h-.55v-.52h.94zM5157.74 4518.04h-.95v-.5h.94z" stroke="#3a414a" stroke-width=".05" fill="#3a414a"/><path d="M5243.42 4529.3a.5.5 0 0 1 .5-.5.5.5 0 0 1 .5.5.5.5 0 0 1-.5.5.5.5 0 0 1-.5-.5m0-1.88a.5.5 0 0 1 .5-.5.5.5 0 0 1 .5.5.5.5 0 0 1-.5.5.5.5 0 0 1-.5-.5m0-1.88a.5.5 0 0 1 .5-.5.5.5 0 0 1 .5.5.5.5 0 0 1-.5.5.5.5 0 0 1-.5-.5m0-1.87a.5.5 0 0 1 .5-.5.5.5 0 0 1 .5.5.5.5 0 0 1-.5.5.5.5 0 0 1-.5-.5m0-1.88v-.02a.5.5 0 0 1 .5-.5.5.5 0 0 1 .5.5.5.5 0 0 1-.5.5.5.5 0 0 1-.5-.5m0-1.87a.5.5 0 0 1 .5-.5.5.5 0 0 1 .5.5.5.5 0 0 1-.5.5.5.5 0 0 1-.5-.5m0-1.87a.5.5 0 0 1 .5-.5.5.5 0 0 1 .5.5.5.5 0 0 1-.5.5.5.5 0 0 1-.5-.5" fill="#3a414a"/><path d="M5244.4 4529.85l-.42-.06h-.53v-.52h.95zM5244.4 4518.04h-.95v-.5h.95z" stroke="#3a414a" stroke-width=".05" fill="#3a414a"/><path d="M4945.2 4550.3c0 10.76-8.74 19.5-19.5 19.5-10.78 0-19.5-8.74-19.5-19.5 0-10.77 8.72-19.5 19.5-19.5 10.76 0 19.5 8.73 19.5 19.5z" stroke="#3a414a" stroke-width="2" fill="#fff"/><g><use xlink:href="#ab" transform="matrix(1,0,0,1,4911.191412163578,4535.7956533142915) translate(7.6310850694444445 23.34027777777778)"/></g><path d="M4895.76 4451.32a6 6 0 0 1 6-6h47.86a6 6 0 0 1 6 6v59.2a6 6 0 0 1-6 6h-47.86a6 6 0 0 1-6-6z" stroke="#282c33" stroke-width="2" fill="#495057"/><g><use xlink:href="#V" transform="matrix(1,0,0,1,4907.759139132306,4457.317856889226) translate(-8.963975694444443 31.59548611111111)"/></g><path d="M4925.2 4529.3a.5.5 0 0 1 .5-.5.5.5 0 0 1 .5.5.5.5 0 0 1-.5.5.5.5 0 0 1-.5-.5m0-1.88a.5.5 0 0 1 .5-.5.5.5 0 0 1 .5.5.5.5 0 0 1-.5.5.5.5 0 0 1-.5-.5m0-1.88a.5.5 0 0 1 .5-.5.5.5 0 0 1 .5.5.5.5 0 0 1-.5.5.5.5 0 0 1-.5-.5m0-1.87a.5.5 0 0 1 .5-.5.5.5 0 0 1 .5.5.5.5 0 0 1-.5.5.5.5 0 0 1-.5-.5m0-1.88v-.02a.5.5 0 0 1 .5-.5.5.5 0 0 1 .5.5.5.5 0 0 1-.5.5.5.5 0 0 1-.5-.5m0-1.87a.5.5 0 0 1 .5-.5.5.5 0 0 1 .5.5.5.5 0 0 1-.5.5.5.5 0 0 1-.5-.5m0-1.87a.5.5 0 0 1 .5-.5.5.5 0 0 1 .5.5.5.5 0 0 1-.5.5.5.5 0 0 1-.5-.5" fill="#3a414a"/><path d="M4926.17 4529.85l-.42-.06h-.53v-.52h.95zM4926.17 4518.04h-.95v-.5h.95z" stroke="#3a414a" stroke-width=".05" fill="#3a414a"/><path d="M4457.68 4550.3c0 10.76-8.73 19.5-19.5 19.5s-19.5-8.74-19.5-19.5c0-10.77 8.73-19.5 19.5-19.5s19.5 8.73 19.5 19.5z" stroke="#3a414a" stroke-width="2" fill="#fff"/><g><use xlink:href="#W" transform="matrix(1,0,0,1,4423.683738293494,4535.795653314288) translate(2.9761371527777793 23.34027777777778)"/></g><path d="M4408.25 4451.32a6 6 0 0 1 6-6h47.87a6 6 0 0 1 6 6v59.2a6 6 0 0 1-6 6h-47.87a6 6 0 0 1-6-6z" stroke="#282c33" stroke-width="2" fill="#ff6b35"/><g><use xlink:href="#R" transform="matrix(1,0,0,1,4420.251465262221,4457.317856889219) translate(-8.963975694444443 31.59548611111111)"/></g><path d="M4437.68 4529.3a.5.5 0 0 1 .5-.5.5.5 0 0 1 .5.5.5.5 0 0 1-.5.5.5.5 0 0 1-.5-.5m0-1.88a.5.5 0 0 1 .5-.5.5.5 0 0 1 .5.5.5.5 0 0 1-.5.5.5.5 0 0 1-.5-.5m0-1.88a.5.5 0 0 1 .5-.5.5.5 0 0 1 .5.5.5.5 0 0 1-.5.5.5.5 0 0 1-.5-.5m0-1.87a.5.5 0 0 1 .5-.5.5.5 0 0 1 .5.5.5.5 0 0 1-.5.5.5.5 0 0 1-.5-.5m0-1.88v-.02a.5.5 0 0 1 .5-.5.5.5 0 0 1 .5.5.5.5 0 0 1-.5.5.5.5 0 0 1-.5-.5m0-1.87a.5.5 0 0 1 .5-.5.5.5 0 0 1 .5.5.5.5 0 0 1-.5.5.5.5 0 0 1-.5-.5" fill="#3a414a"/><path d="M4438.66 4529.85l-.42-.06h-.53v-.52h.96zM4438.66 4518.04h-.95v-.5h.96z" stroke="#3a414a" stroke-width=".05" fill="#3a414a"/><path d="M4373.34 4443.82a.5.5 0 0 1 .5-.5.5.5 0 0 1 .5.5.5.5 0 0 1-.5.5.5.5 0 0 1-.5-.5m0-1.88a.5.5 0 0 1 .5-.5.5.5 0 0 1 .5.5.5.5 0 0 1-.5.5.5.5 0 0 1-.5-.5m0-1.87a.5.5 0 0 1 .5-.5.5.5 0 0 1 .5.5.5.5 0 0 1-.5.5.5.5 0 0 1-.5-.5m0-1.88v-.02a.5.5 0 0 1 .5-.5.5.5 0 0 1 .5.5.5.5 0 0 1-.5.5.5.5 0 0 1-.5-.5m0-1.87a.5.5 0 0 1 .5-.5.5.5 0 0 1 .5.5.5.5 0 0 1-.5.5.5.5 0 0 1-.5-.5m0-1.87a.5.5 0 0 1 .5-.5.5.5 0 0 1 .5.5.5.5 0 0 1-.5.5.5.5 0 0 1-.5-.5" fill="#3a414a"/><path d="M4374.32 4444.32h-.95v-.5h.95zM4374.32 4432.56h-.95v-.5h.95z" stroke="#3a414a" stroke-width=".05" fill="#3a414a"/><path d="M4309 4443.82a.5.5 0 0 1 .5-.5.5.5 0 0 1 .5.5.5.5 0 0 1-.5.5.5.5 0 0 1-.5-.5m0-1.88a.5.5 0 0 1 .5-.5.5.5 0 0 1 .5.5.5.5 0 0 1-.5.5.5.5 0 0 1-.5-.5m0-1.87a.5.5 0 0 1 .5-.5.5.5 0 0 1 .5.5.5.5 0 0 1-.5.5.5.5 0 0 1-.5-.5m0-1.88v-.02a.5.5 0 0 1 .5-.5.5.5 0 0 1 .5.5.5.5 0 0 1-.5.5.5.5 0 0 1-.5-.5m0-1.87a.5.5 0 0 1 .5-.5.5.5 0 0 1 .5.5.5.5 0 0 1-.5.5.5.5 0 0 1-.5-.5m0-1.87a.5.5 0 0 1 .5-.5.5.5 0 0 1 .5.5.5.5 0 0 1-.5.5.5.5 0 0 1-.5-.5m0-1.88a.5.5 0 0 1 .5-.5.5.5 0 0 1 .5.5.5.5 0 0 1-.5.5.5.5 0 0 1-.5-.5" fill="#3a414a"/><path d="M4309.98 4444.32h-.95v-.5h.95zM4309.98 4432.56h-.95v-.5h.95z" stroke="#3a414a" stroke-width=".05" fill="#3a414a"/><path d="M4437.68 4443.82a.5.5 0 0 1 .5-.5.5.5 0 0 1 .5.5.5.5 0 0 1-.5.5.5.5 0 0 1-.5-.5m0-1.88a.5.5 0 0 1 .5-.5.5.5 0 0 1 .5.5.5.5 0 0 1-.5.5.5.5 0 0 1-.5-.5m0-1.87a.5.5 0 0 1 .5-.5.5.5 0 0 1 .5.5.5.5 0 0 1-.5.5.5.5 0 0 1-.5-.5m0-1.88v-.02a.5.5 0 0 1 .5-.5.5.5 0 0 1 .5.5.5.5 0 0 1-.5.5.5.5 0 0 1-.5-.5m0-1.87a.5.5 0 0 1 .5-.5.5.5 0 0 1 .5.5.5.5 0 0 1-.5.5.5.5 0 0 1-.5-.5m0-1.87a.5.5 0 0 1 .5-.5.5.5 0 0 1 .5.5.5.5 0 0 1-.5.5.5.5 0 0 1-.5-.5" fill="#3a414a"/><path d="M4438.66 4444.32h-.95v-.5h.96zM4438.66 4432.56h-.95v-.5h.96z" stroke="#3a414a" stroke-width=".05" fill="#3a414a"/><path d="M4510.36 4443.82a.5.5 0 0 1 .5-.5.5.5 0 0 1 .5.5.5.5 0 0 1-.5.5.5.5 0 0 1-.5-.5m0-1.88a.5.5 0 0 1 .5-.5.5.5 0 0 1 .5.5.5.5 0 0 1-.5.5.5.5 0 0 1-.5-.5m0-1.87a.5.5 0 0 1 .5-.5.5.5 0 0 1 .5.5.5.5 0 0 1-.5.5.5.5 0 0 1-.5-.5m0-1.88v-.02a.5.5 0 0 1 .5-.5.5.5 0 0 1 .5.5.5.5 0 0 1-.5.5.5.5 0 0 1-.5-.5m0-1.87a.5.5 0 0 1 .5-.5.5.5 0 0 1 .5.5.5.5 0 0 1-.5.5.5.5 0 0 1-.5-.5m0-1.87a.5.5 0 0 1 .5-.5.5.5 0 0 1 .5.5.5.5 0 0 1-.5.5.5.5 0 0 1-.5-.5" fill="#3a414a"/><path d="M4511.34 4444.32h-.95v-.5h.94zM4511.34 4432.56h-.95v-.5h.94z" stroke="#3a414a" stroke-width=".05" fill="#3a414a"/><path d="M4698.4 4443.82a.5.5 0 0 1 .5-.5.5.5 0 0 1 .5.5.5.5 0 0 1-.5.5.5.5 0 0 1-.5-.5m0-1.88a.5.5 0 0 1 .5-.5.5.5 0 0 1 .5.5.5.5 0 0 1-.5.5.5.5 0 0 1-.5-.5m0-1.87a.5.5 0 0 1 .5-.5.5.5 0 0 1 .5.5.5.5 0 0 1-.5.5.5.5 0 0 1-.5-.5m0-1.88v-.02a.5.5 0 0 1 .5-.5.5.5 0 0 1 .5.5.5.5 0 0 1-.5.5.5.5 0 0 1-.5-.5m0-1.87a.5.5 0 0 1 .5-.5.5.5 0 0 1 .5.5.5.5 0 0 1-.5.5.5.5 0 0 1-.5-.5m0-1.87a.5.5 0 0 1 .5-.5.5.5 0 0 1 .5.5.5.5 0 0 1-.5.5.5.5 0 0 1-.5-.5m0-1.88a.5.5 0 0 1 .5-.5.5.5 0 0 1 .5.5.5.5 0 0 1-.5.5.5.5 0 0 1-.5-.5" fill="#3a414a"/><path d="M4699.38 4444.32h-.95v-.5h.95zM4699.38 4432.56h-.95v-.5h.95z" stroke="#3a414a" stroke-width=".05" fill="#3a414a"/><path d="M4787.9 4443.82a.5.5 0 0 1 .5-.5.5.5 0 0 1 .5.5.5.5 0 0 1-.5.5.5.5 0 0 1-.5-.5m0-1.88a.5.5 0 0 1 .5-.5.5.5 0 0 1 .5.5.5.5 0 0 1-.5.5.5.5 0 0 1-.5-.5m0-1.87a.5.5 0 0 1 .5-.5.5.5 0 0 1 .5.5.5.5 0 0 1-.5.5.5.5 0 0 1-.5-.5m0-1.88v-.02a.5.5 0 0 1 .5-.5.5.5 0 0 1 .5.5.5.5 0 0 1-.5.5.5.5 0 0 1-.5-.5m0-1.87a.5.5 0 0 1 .5-.5.5.5 0 0 1 .5.5.5.5 0 0 1-.5.5.5.5 0 0 1-.5-.5m0-1.87a.5.5 0 0 1 .5-.5.5.5 0 0 1 .5.5.5.5 0 0 1-.5.5.5.5 0 0 1-.5-.5m0-1.88a.5.5 0 0 1 .5-.5.5.5 0 0 1 .5.5.5.5 0 0 1-.5.5.5.5 0 0 1-.5-.5" fill="#3a414a"/><path d="M4788.88 4444.32h-.95v-.5h.95zM4788.88 4432.56h-.95v-.5h.95z" stroke="#3a414a" stroke-width=".05" fill="#3a414a"/><path d="M4925.2 4443.82a.5.5 0 0 1 .5-.5.5.5 0 0 1 .5.5.5.5 0 0 1-.5.5.5.5 0 0 1-.5-.5m0-1.88a.5.5 0 0 1 .5-.5.5.5 0 0 1 .5.5.5.5 0 0 1-.5.5.5.5 0 0 1-.5-.5m0-1.87a.5.5 0 0 1 .5-.5.5.5 0 0 1 .5.5.5.5 0 0 1-.5.5.5.5 0 0 1-.5-.5m0-1.88v-.02a.5.5 0 0 1 .5-.5.5.5 0 0 1 .5.5.5.5 0 0 1-.5.5.5.5 0 0 1-.5-.5m0-1.87a.5.5 0 0 1 .5-.5.5.5 0 0 1 .5.5.5.5 0 0 1-.5.5.5.5 0 0 1-.5-.5m0-1.87a.5.5 0 0 1 .5-.5.5.5 0 0 1 .5.5.5.5 0 0 1-.5.5.5.5 0 0 1-.5-.5" fill="#3a414a"/><path d="M4926.17 4444.32h-.95v-.5h.95zM4926.17 4432.56h-.95v-.5h.95z" stroke="#3a414a" stroke-width=".05" fill="#3a414a"/><path d="M5063.33 4443.82a.5.5 0 0 1 .5-.5.5.5 0 0 1 .5.5.5.5 0 0 1-.5.5.5.5 0 0 1-.5-.5m0-1.88a.5.5 0 0 1 .5-.5.5.5 0 0 1 .5.5.5.5 0 0 1-.5.5.5.5 0 0 1-.5-.5m0-1.87a.5.5 0 0 1 .5-.5.5.5 0 0 1 .5.5.5.5 0 0 1-.5.5.5.5 0 0 1-.5-.5m0-1.88v-.02a.5.5 0 0 1 .5-.5.5.5 0 0 1 .5.5.5.5 0 0 1-.5.5.5.5 0 0 1-.5-.5m0-1.87a.5.5 0 0 1 .5-.5.5.5 0 0 1 .5.5.5.5 0 0 1-.5.5.5.5 0 0 1-.5-.5m0-1.87a.5.5 0 0 1 .5-.5.5.5 0 0 1 .5.5.5.5 0 0 1-.5.5.5.5 0 0 1-.5-.5" fill="#3a414a"/><path d="M5064.3 4444.32h-.94v-.5h.95zM5064.3 4432.56h-.94v-.5h.95z" stroke="#3a414a" stroke-width=".05" fill="#3a414a"/><path d="M5156.3 4443.82a.5.5 0 0 1 .5-.5.5.5 0 0 1 .5.5.5.5 0 0 1-.5.5.5.5 0 0 1-.5-.5m0-1.88a.5.5 0 0 1 .5-.5.5.5 0 0 1 .5.5.5.5 0 0 1-.5.5.5.5 0 0 1-.5-.5m0-1.87a.5.5 0 0 1 .5-.5.5.5 0 0 1 .5.5.5.5 0 0 1-.5.5.5.5 0 0 1-.5-.5m0-1.88v-.02a.5.5 0 0 1 .5-.5.5.5 0 0 1 .5.5.5.5 0 0 1-.5.5.5.5 0 0 1-.5-.5m0-1.87a.5.5 0 0 1 .5-.5.5.5 0 0 1 .5.5.5.5 0 0 1-.5.5.5.5 0 0 1-.5-.5m0-1.87a.5.5 0 0 1 .5-.5.5.5 0 0 1 .5.5.5.5 0 0 1-.5.5.5.5 0 0 1-.5-.5" fill="#3a414a"/><path d="M5157.26 4444.32h-.95v-.5h.96zM5157.26 4432.56h-.95v-.5h.96z" stroke="#3a414a" stroke-width=".05" fill="#3a414a"/><path d="M5243.42 4443.82a.5.5 0 0 1 .5-.5.5.5 0 0 1 .5.5.5.5 0 0 1-.5.5.5.5 0 0 1-.5-.5m0-1.88a.5.5 0 0 1 .5-.5.5.5 0 0 1 .5.5.5.5 0 0 1-.5.5.5.5 0 0 1-.5-.5m0-1.87a.5.5 0 0 1 .5-.5.5.5 0 0 1 .5.5.5.5 0 0 1-.5.5.5.5 0 0 1-.5-.5m0-1.88v-.02a.5.5 0 0 1 .5-.5.5.5 0 0 1 .5.5.5.5 0 0 1-.5.5.5.5 0 0 1-.5-.5m0-1.87a.5.5 0 0 1 .5-.5.5.5 0 0 1 .5.5.5.5 0 0 1-.5.5.5.5 0 0 1-.5-.5m0-1.87a.5.5 0 0 1 .5-.5.5.5 0 0 1 .5.5.5.5 0 0 1-.5.5.5.5 0 0 1-.5-.5" fill="#3a414a"/><path d="M5244.4 4444.32h-.95v-.5h.95zM5244.4 4432.56h-.95v-.5h.95z" stroke="#3a414a" stroke-width=".05" fill="#3a414a"/><defs><path fill="#011b3c" d="M1016 0H201v-1462h815v151H371v471h606v150H371v538h645V0" id="ac"/><path fill="#011b3c" d="M584-1331c-162 0-287 69-287 219 0 118 43 164 123 214 44 28 112 56 203 89 153 55 259 113 317 176s86 144 86 244c-1 276-228 409-520 409-173 0-307-22-400-67v-164c109 46 257 81 406 82 199 1 342-68 342-244 0-120-47-164-132-214-47-28-121-58-218-93-136-49-234-106-292-173s-87-154-87-261c-1-239 209-369 463-369 145 0 279 27 401 80l-53 148c-121-51-238-76-352-76" id="ad"/><path fill="#011b3c" d="M1174 0H981L588-643 188 0H8l486-764-453-698h188l363 579 366-579h181L686-770" id="ae"/><path fill="#011b3c" d="M342 0H176v-1096h166V0zm-82-1282c-61 0-98-43-98-111 0-69 36-110 98-110 59 0 98 43 98 110s-39 111-98 111" id="af"/><g id="a"><use transform="matrix(0.010850694444444444,0,0,0.010850694444444444,0,0)" xlink:href="#ac"/><use transform="matrix(0.010850694444444444,0,0,0.010850694444444444,12.358940972222221,0)" xlink:href="#ad"/><use transform="matrix(0.010850694444444444,0,0,0.010850694444444444,24.55512152777778,0)" xlink:href="#ae"/><use transform="matrix(0.010850694444444444,0,0,0.010850694444444444,37.380642361111114,0)" xlink:href="#af"/></g><path fill="#011b3c" d="M1311 0h-170v-688H371V0H201v-1462h170v622h770v-622h170V0" id="ag"/><path fill="#011b3c" d="M621-1116c316 0 501 239 501 567 0 339-180 575-508 569S119-212 115-549c-4-339 178-567 506-567zm-5 141c-239 0-329 168-329 426 0 255 93 430 331 430s332-174 332-430-95-426-334-426" id="ah"/><path fill="#011b3c" d="M502-977c-130 0-238 32-238 139 0 75 39 101 95 134 33 19 97 46 192 81 130 48 217 95 263 143s69 108 69 181C883-73 695 20 449 20 304 20 190-3 109-49v-154c91 47 216 86 344 86 149 0 270-36 270-168 0-43-21-76-55-109-56-55-367-158-434-208-74-55-128-109-128-225 0-327 490-342 754-217l-59 135c-110-45-210-68-299-68" id="ai"/><path fill="#011b3c" d="M354-322c-2 123 60 204 176 205 51 1 114-10 150-20v127C647 7 557 20 506 20 294 20 188-92 188-315v-652H31v-80l157-69 70-234h96v254h318v129H354v645" id="aj"/><g id="b"><use transform="matrix(0.010850694444444444,0,0,0.010850694444444444,0,0)" xlink:href="#ag"/><use transform="matrix(0.010850694444444444,0,0,0.010850694444444444,16.395399305555554,0)" xlink:href="#ah"/><use transform="matrix(0.010850694444444444,0,0,0.010850694444444444,29.81770833333333,0)" xlink:href="#ai"/><use transform="matrix(0.010850694444444444,0,0,0.010850694444444444,40.41883680555555,0)" xlink:href="#aj"/></g><path fill="#011b3c" d="M1069-733c0 253-39 441-119 566S748 20 584 20c-157 0-277-64-359-192S102-486 102-733c0-255 40-444 119-567s200-185 363-185c159 0 280 64 362 193s123 315 123 559zm-724-463c-95 160-94 768 0 928 55 94 130 145 239 145 111 0 185-52 240-147 94-164 94-761 0-924-55-95-129-147-240-147-109 0-184 52-239 145" id="ak"/><path fill="#011b3c" d="M715 0H553c4-427-9-874 8-1288-79 77-94 81-285 239l-88-114 387-299h140V0" id="al"/><g id="c"><use transform="matrix(0.010850694444444444,0,0,0.010850694444444444,0,0)" xlink:href="#ak"/><use transform="matrix(0.010850694444444444,0,0,0.010850694444444444,12.706163194444445,0)" xlink:href="#al"/></g><path fill="#011b3c" d="M516-150c94-315 146-423 332-946h178L610 0H416L0-1096h178c98 281 253 670 330 946h8" id="am"/><path fill="#011b3c" d="M1141-549c0 329-147 569-455 569-159 0-273-61-344-161h-12c23 199 7 418 12 633H176v-1588h135l23 150h8c77-108 175-170 344-170 311 0 455 237 455 567zm-172-2c0-242-88-424-307-424-256 0-323 154-320 426 3 280 68 430 324 430 213 0 303-196 303-432" id="an"/><path fill="#011b3c" d="M690-1114c271 2 402 123 402 399V0H926v-709c-1-177-76-266-252-266-251 0-332 135-332 402V0H176v-1556h166c-4 200 8 426-8 612h10c61-100 187-171 346-170" id="ao"/><path fill="#011b3c" d="M995-51C878-2 799 19 639 20c-329 2-524-221-524-559 0-326 172-577 481-577 278 0 451 210 446 493v105H287c4 242 121 392 358 393 118 0 235-25 350-74v148zM864-653c2-195-85-324-270-324-190 0-288 139-303 324h573" id="ap"/><path fill="#011b3c" d="M340-893c80-153 237-262 467-211l-23 154c-45-10-85-15-120-15-184-3-322 182-322 377V0H176v-1096h137l19 203h8" id="aq"/><g id="d"><use transform="matrix(0.010850694444444444,0,0,0.010850694444444444,0,0)" xlink:href="#am"/><use transform="matrix(0.010850694444444444,0,0,0.010850694444444444,11.1328125,0)" xlink:href="#ad"/><use transform="matrix(0.010850694444444444,0,0,0.010850694444444444,23.328993055555554,0)" xlink:href="#an"/><use transform="matrix(0.010850694444444444,0,0,0.010850694444444444,36.946614583333336,0)" xlink:href="#ao"/><use transform="matrix(0.010850694444444444,0,0,0.010850694444444444,50.5859375,0)" xlink:href="#ap"/><use transform="matrix(0.010850694444444444,0,0,0.010850694444444444,63.053385416666664,0)" xlink:href="#aq"/><use transform="matrix(0.010850694444444444,0,0,0.010850694444444444,71.6796875,0)" xlink:href="#ap"/></g><path fill="#011b3c" d="M125-733c6-459 248-750 704-750 153 0 287 28 402 84l-72 146c-111-52-221-78-332-78-334-1-520 251-520 600 0 361 171 600 518 600 102 0 218-18 349-55v149C1073 1 948 20 799 20c-445 1-680-294-674-753" id="ar"/><path fill="#011b3c" d="M342 0H176v-1556h166V0" id="as"/><path fill="#011b3c" d="M563 20c-271 0-399-123-399-399v-717h168v711c1 177 76 266 252 266 250 0 331-135 331-401v-576h166V0H944l-24-147h-9C848-44 724 20 563 20" id="at"/><g id="e"><use transform="matrix(0.010850694444444444,0,0,0.010850694444444444,0,0)" xlink:href="#ar"/><use transform="matrix(0.010850694444444444,0,0,0.010850694444444444,14.019097222222221,0)" xlink:href="#as"/><use transform="matrix(0.010850694444444444,0,0,0.010850694444444444,19.639756944444443,0)" xlink:href="#at"/><use transform="matrix(0.010850694444444444,0,0,0.010850694444444444,33.27907986111111,0)" xlink:href="#ai"/><use transform="matrix(0.010850694444444444,0,0,0.010850694444444444,43.88020833333333,0)" xlink:href="#aj"/><use transform="matrix(0.010850694444444444,0,0,0.010850694444444444,51.725260416666664,0)" xlink:href="#ap"/><use transform="matrix(0.010850694444444444,0,0,0.010850694444444444,64.19270833333333,0)" xlink:href="#aq"/></g><path fill="#011b3c" d="M559-1483c258 0 441 142 440 389 0 93-26 184-78 275-109 192-433 475-612 657v8h752V0H100v-143c177-182 479-462 617-641 67-87 110-168 112-303 2-158-106-258-268-254-165 4-240 52-354 139l-88-113c135-112 281-168 440-168" id="au"/><g id="f"><use transform="matrix(0.010850694444444444,0,0,0.010850694444444444,0,0)" xlink:href="#ak"/><use transform="matrix(0.010850694444444444,0,0,0.010850694444444444,12.706163194444445,0)" xlink:href="#au"/></g><path fill="#011b3c" d="M557-1483c261-2 449 121 449 365 0 202-125 312-301 348v8c212 25 346 130 346 348 0 303-232 437-557 434C328 19 210-2 94-59v-158c108 55 257 96 406 96 253 0 379-99 379-297 0-177-139-266-418-266H317v-143h146c207 3 370-92 371-285 1-150-117-233-273-229-171 4-249 44-375 122l-84-112c109-87 268-150 455-152" id="av"/><g id="g"><use transform="matrix(0.010850694444444444,0,0,0.010850694444444444,0,0)" xlink:href="#ak"/><use transform="matrix(0.010850694444444444,0,0,0.010850694444444444,12.706163194444445,0)" xlink:href="#av"/></g><path fill="#011b3c" d="M588-1114c260 0 384 106 385 366V0H850l-33-156h-8C708-34 639 17 442 20 231 23 94-94 94-303c0-221 177-337 531-348l186-6c11-203-40-320-233-320-91 0-195 28-310 84l-51-127c97-53 229-94 371-94zM268-301c-1 123 81 184 207 184 203 0 334-120 332-323v-99c-257 14-539-7-539 238" id="aw"/><g id="h"><use transform="matrix(0.009765625,0,0,0.009765625,0,0)" xlink:href="#ad"/><use transform="matrix(0.009765625,0,0,0.009765625,10.9765625,0)" xlink:href="#aj"/><use transform="matrix(0.009765625,0,0,0.009765625,18.037109375,0)" xlink:href="#aw"/><use transform="matrix(0.009765625,0,0,0.009765625,29.16015625,0)" xlink:href="#aq"/><use transform="matrix(0.009765625,0,0,0.009765625,37.32421875,0)" xlink:href="#aj"/><use transform="matrix(0.009765625,0,0,0.009765625,44.384765625,0)" xlink:href="#at"/><use transform="matrix(0.009765625,0,0,0.009765625,56.66015625,0)" xlink:href="#an"/></g><path fill="#011b3c" d="M115-545c0-330 146-571 454-571 149 0 263 54 342 162h13c-20-185-8-401-11-602h166V0H944l-22-147h-9C836-36 722 20 569 20c-309 0-454-234-454-565zm172 2c0 249 78 424 303 424 257 0 327-150 323-426-4-282-68-432-325-432-220 0-301 191-301 434" id="ax"/><g id="i"><use transform="matrix(0.009765625,0,0,0.009765625,0,0)" xlink:href="#ah"/><use transform="matrix(0.009765625,0,0,0.009765625,12.080078125,0)" xlink:href="#aq"/><use transform="matrix(0.009765625,0,0,0.009765625,19.84375,0)" xlink:href="#ax"/><use transform="matrix(0.009765625,0,0,0.009765625,32.099609375,0)" xlink:href="#ap"/><use transform="matrix(0.009765625,0,0,0.009765625,43.3203125,0)" xlink:href="#aq"/></g><path fill="#011b3c" d="M305-731c0 386 189 602 569 602 101 0 200-12 297-35v-450H844v-152h497v711c-160 50-302 75-514 75-450 0-708-292-702-751 7-475 281-752 758-752 156 0 301 29 436 86l-66 150c-132-56-259-84-381-84-359-3-567 235-567 600" id="ay"/><path fill="#011b3c" d="M1128-1036c0 321-241 464-585 461H371V0H201v-1462h379c365 0 548 142 548 426zm-176 8c0-218-150-286-391-287H371v594h153c270-3 428-62 428-307" id="az"/><path fill="#011b3c" d="M750-129c245 0 385-137 385-381v-952h170v946c3 336-225 536-566 536-344 0-553-202-553-540v-942h170v954c0 248 141 379 394 379" id="aA"/><g id="j"><use transform="matrix(0.010850694444444444,0,0,0.010850694444444444,0,0)" xlink:href="#ay"/><use transform="matrix(0.010850694444444444,0,0,0.010850694444444444,16.178385416666668,0)" xlink:href="#az"/><use transform="matrix(0.010850694444444444,0,0,0.010850694444444444,29.557291666666664,0)" xlink:href="#aA"/></g><path fill="#011b3c" d="M1120 0L938-465H352L172 0H0l578-1468h143L1296 0h-176zM885-618c-81-228-168-420-238-664-57 230-159 449-235 664h473" id="aB"/><path fill="#011b3c" d="M125-741c0-247 161-377 414-375 57 0 109 7 155 20h379v105l-203 24c37 48 72 129 72 219 0 255-227 390-504 345-71 37-106 84-106 141 0 78 66 88 164 88h194c219-1 369 87 369 293 0 121-49 213-146 277s-239 96-426 96c-250 0-448-83-448-306C39 36 147-58 283-86c-52-23-102-79-99-152 4-104 57-143 133-192-107-42-192-164-192-311zM438-25c-143-1-242 70-239 209s131 181 290 181c139 0 242-21 309-63s101-98 101-169c0-147-88-158-262-158H438zm94-970c-158 0-243 88-243 250 0 153 93 233 246 233 162 0 243-79 243-236 0-165-82-247-246-247" id="aC"/><path fill="#011b3c" d="M694-1116c270 0 399 125 398 401V0H926v-709c-1-177-76-266-252-266-250 0-332 133-332 400V0H176v-1096h135l27 150h8c62-101 190-170 348-170" id="aD"/><path fill="#011b3c" d="M1368-1116c259 2 372 131 371 401V0h-166v-713c0-168-66-262-230-262-221 0-303 131-303 363V0H874v-713c-1-169-66-262-231-262-235 0-301 142-301 400V0H176v-1096h135l27 150h8c56-99 174-170 324-170 171 0 283 62 336 186h8c60-108 189-187 354-186" id="aE"/><g id="k"><use transform="matrix(0.010850694444444444,0,0,0.010850694444444444,0,0)" xlink:href="#aB"/><use transform="matrix(0.010850694444444444,0,0,0.010850694444444444,14.0625,0)" xlink:href="#ai"/><use transform="matrix(0.010850694444444444,0,0,0.010850694444444444,24.66362847222222,0)" xlink:href="#ai"/><use transform="matrix(0.010850694444444444,0,0,0.010850694444444444,35.26475694444444,0)" xlink:href="#af"/><use transform="matrix(0.010850694444444444,0,0,0.010850694444444444,40.885416666666664,0)" xlink:href="#aC"/><use transform="matrix(0.010850694444444444,0,0,0.010850694444444444,53.05989583333333,0)" xlink:href="#aD"/><use transform="matrix(0.010850694444444444,0,0,0.010850694444444444,66.69921875,0)" xlink:href="#aE"/><use transform="matrix(0.010850694444444444,0,0,0.010850694444444444,87.36979166666666,0)" xlink:href="#ap"/><use transform="matrix(0.010850694444444444,0,0,0.010850694444444444,99.83723958333333,0)" xlink:href="#aD"/><use transform="matrix(0.010850694444444444,0,0,0.010850694444444444,113.4765625,0)" xlink:href="#aj"/></g><path fill="#011b3c" d="M287-543c-1 247 91 418 323 418 91 0 185-20 281-59v147C818 1 725 20 614 20c-329 0-499-221-499-561 0-349 172-575 510-575 96 0 221 26 282 57l-51 141c-61-25-157-50-235-51-223 0-334 142-334 426" id="aF"/><path fill="#011b3c" d="M526-162c88-293 120-356 326-934h178L559 152c-47 123-102 209-163 262-93 80-237 94-380 61V342c184 39 305-9 367-180L444 6 2-1096h178c103 283 263 645 338 934h8" id="aG"/><g id="l"><use transform="matrix(0.010850694444444444,0,0,0.010850694444444444,0,0)" xlink:href="#az"/><use transform="matrix(0.010850694444444444,0,0,0.010850694444444444,13.37890625,0)" xlink:href="#ah"/><use transform="matrix(0.010850694444444444,0,0,0.010850694444444444,26.80121527777778,0)" xlink:href="#as"/><use transform="matrix(0.010850694444444444,0,0,0.010850694444444444,32.421875,0)" xlink:href="#af"/><use transform="matrix(0.010850694444444444,0,0,0.010850694444444444,38.04253472222222,0)" xlink:href="#aF"/><use transform="matrix(0.010850694444444444,0,0,0.010850694444444444,48.62196180555556,0)" xlink:href="#aG"/></g><path fill="#fafafa" d="M730-137c145 0 253-29 323-105v-327H716v-156h528v534C1148-51 964 20 729 20c-394 0-598-279-607-678v-127c-5-410 194-690 585-691 310-1 499 171 537 447h-192c-36-193-151-289-344-289-285 0-393 220-393 528v119c-5 296 140 534 415 534" id="aH"/><path fill="#fafafa" d="M663-916c-163-27-288 18-338 148V0H140v-1082h180l3 125c61-97 147-145 258-145 36 0 63 5 82 14v172" id="aI"/><path fill="#fafafa" d="M584 20C278 26 81-227 91-551c10-320 175-545 491-551 308-5 503 247 494 573-9 322-175 543-492 549zm-2-970c-208 0-305 185-305 421 0 216 106 398 307 398 211 0 307-186 307-420 0-214-109-399-309-399" id="aJ"/><path fill="#fafafa" d="M491 20c-241-1-355-148-355-398v-704h185v699c0 164 67 246 200 246 141 0 235-53 282-158v-787h185V0H812l-4-107C736-22 630 20 491 20" id="aK"/><path fill="#fafafa" d="M632-1102c291 0 422 251 422 573 0 297-141 548-419 549-131 0-235-42-310-125v521H140v-1498h169l9 120c75-93 180-140 314-140zm-53 971c207 0 290-180 290-419 0-218-92-395-292-395-112 0-196 50-252 149v517c55 99 140 148 254 148" id="aL"/><g id="m"><use transform="matrix(0.010850694444444444,0,0,0.010850694444444444,0,0)" xlink:href="#aH"/><use transform="matrix(0.010850694444444444,0,0,0.010850694444444444,15.13671875,0)" xlink:href="#aI"/><use transform="matrix(0.010850694444444444,0,0,0.010850694444444444,22.43923611111111,0)" xlink:href="#aJ"/><use transform="matrix(0.010850694444444444,0,0,0.010850694444444444,35.11284722222222,0)" xlink:href="#aK"/><use transform="matrix(0.010850694444444444,0,0,0.010850694444444444,47.36328125,0)" xlink:href="#aL"/></g><path fill="#fafafa" d="M651-255l416-1201h210L737 0H567L28-1456h209" id="aM"/><path fill="#fafafa" d="M417-1456L893-268l476-1188h249V0h-192c-4-403 4-794 18-1179L966 0H819L342-1176c15 384 23 773 19 1176H169v-1456h248" id="aN"/><path fill="#fafafa" d="M538-131c121 0 232-49 232-156 0-50-20-88-56-117-73-60-334-92-420-143-92-55-162-110-162-238 0-190 192-317 400-317 223 0 414 129 413 338H759c0-108-110-186-227-186-119 0-215 53-215 159 0 45 18 78 53 101 76 52 331 90 416 139 98 57 169 115 169 251C955-92 760 20 538 20c-176 0-314-68-386-174-38-55-57-115-57-179h185c6 129 116 202 258 202" id="aO"/><g id="n"><use transform="matrix(0.010850694444444444,0,0,0.010850694444444444,0,0)" xlink:href="#aM"/><use transform="matrix(0.010850694444444444,0,0,0.010850694444444444,14.13845486111111,0)" xlink:href="#aN"/><use transform="matrix(0.010850694444444444,0,0,0.010850694444444444,33.53949652777777,0)" xlink:href="#aO"/></g><path fill="#fafafa" d="M589-945c-131 0-219 81-264 174V0H140v-1082h175l6 136c83-104 191-156 324-156 229 0 346 129 346 387V0H806v-716c-2-153-65-229-217-229" id="aP"/><g id="o"><use transform="matrix(0.010850694444444444,0,0,0.010850694444444444,0,0)" xlink:href="#aJ"/><use transform="matrix(0.010850694444444444,0,0,0.010850694444444444,12.67361111111111,0)" xlink:href="#aP"/></g><path fill="#fafafa" d="M1216-1011c-1 297-202 441-512 441H361V0H169v-1456h537c297-6 510 164 510 445zm-192 2c1-178-126-288-307-289H361v571h345c196 1 318-92 318-282" id="aQ"/><path fill="#fafafa" d="M665-137c214 0 337-121 336-332v-987h193v990c-3 300-218 486-529 486-309 0-526-181-525-484v-992h190v986c-1 210 123 333 335 333" id="aR"/><g id="p"><use transform="matrix(0.010850694444444444,0,0,0.010850694444444444,0,0)" xlink:href="#aH"/><use transform="matrix(0.010850694444444444,0,0,0.010850694444444444,15.13671875,0)" xlink:href="#aQ"/><use transform="matrix(0.010850694444444444,0,0,0.010850694444444444,29.15581597222222,0)" xlink:href="#aR"/><use transform="matrix(0.010850694444444444,0,0,0.010850694444444444,43.56553819444444,0)" xlink:href="#aO"/></g><use transform="matrix(0.010850694444444444,0,0,0.010850694444444444,0,0)" xlink:href="#al" id="q"/><use transform="matrix(0.010850694444444444,0,0,0.010850694444444444,0,0)" xlink:href="#au" id="r"/><g id="s"><use transform="matrix(0.010850694444444444,0,0,0.010850694444444444,0,0)" xlink:href="#ad"/><use transform="matrix(0.010850694444444444,0,0,0.010850694444444444,12.196180555555555,0)" xlink:href="#aw"/><use transform="matrix(0.010850694444444444,0,0,0.010850694444444444,24.55512152777778,0)" xlink:href="#aE"/><use transform="matrix(0.010850694444444444,0,0,0.010850694444444444,45.22569444444444,0)" xlink:href="#ap"/></g><path fill="#011b3c" d="M877 0H82v-113l598-854H119v-129h743v129L272-129h605V0" id="aS"/><g id="t"><use transform="matrix(0.010850694444444444,0,0,0.010850694444444444,0,0)" xlink:href="#ad"/><use transform="matrix(0.010850694444444444,0,0,0.010850694444444444,12.196180555555555,0)" xlink:href="#af"/><use transform="matrix(0.010850694444444444,0,0,0.010850694444444444,17.81684027777778,0)" xlink:href="#aS"/><use transform="matrix(0.010850694444444444,0,0,0.010850694444444444,28.21180555555556,0)" xlink:href="#ap"/></g><g id="u"><use transform="matrix(0.010850694444444444,0,0,0.010850694444444444,0,0)" xlink:href="#am"/><use transform="matrix(0.010850694444444444,0,0,0.010850694444444444,11.1328125,0)" xlink:href="#ay"/><use transform="matrix(0.010850694444444444,0,0,0.010850694444444444,27.311197916666664,0)" xlink:href="#az"/><use transform="matrix(0.010850694444444444,0,0,0.010850694444444444,40.69010416666667,0)" xlink:href="#aA"/></g><path fill="#011b3c" d="M848 0L352-1296h-8c27 395 8 875 14 1296H201v-1462h256L920-256h8l467-1206h254V0h-170c6-439-13-873 14-1294h-8L985 0H848" id="aT"/><g id="v"><use transform="matrix(0.010850694444444444,0,0,0.010850694444444444,0,0)" xlink:href="#aT"/><use transform="matrix(0.010850694444444444,0,0,0.010850694444444444,20.06293402777778,0)" xlink:href="#ah"/><use transform="matrix(0.010850694444444444,0,0,0.010850694444444444,33.48524305555556,0)" xlink:href="#ax"/><use transform="matrix(0.010850694444444444,0,0,0.010850694444444444,47.10286458333333,0)" xlink:href="#ap"/></g><use transform="matrix(0.010850694444444444,0,0,0.010850694444444444,0,0)" xlink:href="#al" id="w"/><use transform="matrix(0.010850694444444444,0,0,0.010850694444444444,0,0)" xlink:href="#au" id="x"/><path fill="#011b3c" d="M1214-416C1213-138 1004 0 711 0H201v-1462h413c194 0 334 29 421 87s130 150 130 275c0 188-114 295-284 324v10c222 38 333 155 333 350zm-225-667c0-194-147-232-368-232H371v479h280c219-3 338-46 338-247zm43 655c0-204-147-264-370-264H371v547h305c220-1 356-73 356-283" id="aU"/><g id="y"><use transform="matrix(0.010850694444444444,0,0,0.010850694444444444,0,0)" xlink:href="#aU"/><use transform="matrix(0.010850694444444444,0,0,0.010850694444444444,14.398871527777777,0)" xlink:href="#ap"/><use transform="matrix(0.010850694444444444,0,0,0.010850694444444444,26.866319444444443,0)" xlink:href="#ai"/><use transform="matrix(0.010850694444444444,0,0,0.010850694444444444,37.467447916666664,0)" xlink:href="#aj"/></g><path fill="#011b3c" d="M575-1430c-169 0-190 146-184 334h279v129H391V0H225v-967H29v-75l196-60c-15-299 97-465 353-465 58 0 126 12 204 35l-43 133c-64-21-119-31-164-31" id="aV"/><g id="z"><use transform="matrix(0.010850694444444444,0,0,0.010850694444444444,0,0)" xlink:href="#az"/><use transform="matrix(0.010850694444444444,0,0,0.010850694444444444,13.37890625,0)" xlink:href="#ap"/><use transform="matrix(0.010850694444444444,0,0,0.010850694444444444,25.846354166666664,0)" xlink:href="#aq"/><use transform="matrix(0.010850694444444444,0,0,0.010850694444444444,34.91753472222222,0)" xlink:href="#aV"/><use transform="matrix(0.010850694444444444,0,0,0.010850694444444444,42.447916666666664,0)" xlink:href="#ah"/><use transform="matrix(0.010850694444444444,0,0,0.010850694444444444,55.87022569444444,0)" xlink:href="#aq"/><use transform="matrix(0.010850694444444444,0,0,0.010850694444444444,64.94140625,0)" xlink:href="#aE"/><use transform="matrix(0.010850694444444444,0,0,0.010850694444444444,85.61197916666666,0)" xlink:href="#aw"/><use transform="matrix(0.010850694444444444,0,0,0.010850694444444444,97.97092013888889,0)" xlink:href="#aD"/><use transform="matrix(0.010850694444444444,0,0,0.010850694444444444,111.61024305555556,0)" xlink:href="#aF"/><use transform="matrix(0.010850694444444444,0,0,0.010850694444444444,122.18967013888889,0)" xlink:href="#ap"/></g><path fill="#011b3c" d="M84-473v-152h491v152H84" id="aW"/><use transform="matrix(0.010850694444444444,0,0,0.010850694444444444,0,0)" xlink:href="#aW" id="A"/><g id="B"><use transform="matrix(0.010850694444444444,0,0,0.010850694444444444,0,0)" xlink:href="#ad"/><use transform="matrix(0.010850694444444444,0,0,0.010850694444444444,12.196180555555555,0)" xlink:href="#an"/><use transform="matrix(0.010850694444444444,0,0,0.010850694444444444,25.813802083333332,0)" xlink:href="#aq"/><use transform="matrix(0.010850694444444444,0,0,0.010850694444444444,34.440104166666664,0)" xlink:href="#ap"/><use transform="matrix(0.010850694444444444,0,0,0.010850694444444444,46.90755208333333,0)" xlink:href="#aw"/><use transform="matrix(0.010850694444444444,0,0,0.010850694444444444,59.26649305555555,0)" xlink:href="#ax"/></g><path fill="#011b3c" d="M1036-1462h183L692 0H524L0-1462h180l336 946c39 109 69 214 92 317 24-108 55-216 94-323" id="aX"/><g id="C"><use transform="matrix(0.010850694444444444,0,0,0.010850694444444444,0,0)" xlink:href="#aX"/><use transform="matrix(0.010850694444444444,0,0,0.010850694444444444,13.226996527777777,0)" xlink:href="#aT"/></g><g id="D"><use transform="matrix(0.010850694444444444,0,0,0.010850694444444444,0,0)" xlink:href="#aw"/><use transform="matrix(0.010850694444444444,0,0,0.010850694444444444,12.358940972222221,0)" xlink:href="#aF"/><use transform="matrix(0.010850694444444444,0,0,0.010850694444444444,22.938368055555554,0)" xlink:href="#aq"/><use transform="matrix(0.010850694444444444,0,0,0.010850694444444444,31.56467013888889,0)" xlink:href="#ah"/><use transform="matrix(0.010850694444444444,0,0,0.010850694444444444,44.986979166666664,0)" xlink:href="#ai"/><use transform="matrix(0.010850694444444444,0,0,0.010850694444444444,55.588107638888886,0)" xlink:href="#ai"/></g><g id="E"><use transform="matrix(0.010850694444444444,0,0,0.010850694444444444,0,0)" xlink:href="#ag"/><use transform="matrix(0.010850694444444444,0,0,0.010850694444444444,16.395399305555554,0)" xlink:href="#ah"/><use transform="matrix(0.010850694444444444,0,0,0.010850694444444444,29.81770833333333,0)" xlink:href="#ai"/><use transform="matrix(0.010850694444444444,0,0,0.010850694444444444,40.41883680555555,0)" xlink:href="#aj"/><use transform="matrix(0.010850694444444444,0,0,0.010850694444444444,48.263888888888886,0)" xlink:href="#ai"/></g><path fill="#011b3c" d="M649-1462c450-4 719 268 719 717 0 484-276 748-762 745H201v-1462h448zM578-147c400 1 610-197 610-592 1-379-192-576-570-576H371v1168h207" id="aY"/><path fill="#011b3c" d="M602-1462c329 0 526 109 526 413 0 193-98 324-294 392L1231 0h-201L676-608H371V0H201v-1462h401zm350 422c0-215-129-271-360-273H371v559h233c223 0 348-78 348-286" id="aZ"/><g id="F"><use transform="matrix(0.010850694444444444,0,0,0.010850694444444444,0,0)" xlink:href="#aY"/><use transform="matrix(0.010850694444444444,0,0,0.010850694444444444,16.200086805555554,0)" xlink:href="#aZ"/><use transform="matrix(0.010850694444444444,0,0,0.010850694444444444,29.93706597222222,0)" xlink:href="#ad"/></g><path fill="#011b3c" d="M201 0v-1462h170V0H201" id="ba"/><g id="G"><use transform="matrix(0.010850694444444444,0,0,0.010850694444444444,0,0)" xlink:href="#ba"/><use transform="matrix(0.010850694444444444,0,0,0.010850694444444444,6.195746527777778,0)" xlink:href="#aD"/><use transform="matrix(0.010850694444444444,0,0,0.010850694444444444,19.835069444444443,0)" xlink:href="#af"/><use transform="matrix(0.010850694444444444,0,0,0.010850694444444444,25.455729166666664,0)" xlink:href="#aj"/><use transform="matrix(0.010850694444444444,0,0,0.010850694444444444,33.30078125,0)" xlink:href="#af"/><use transform="matrix(0.010850694444444444,0,0,0.010850694444444444,38.92144097222222,0)" xlink:href="#aw"/><use transform="matrix(0.010850694444444444,0,0,0.010850694444444444,51.28038194444444,0)" xlink:href="#as"/></g><g id="H"><use transform="matrix(0.010850694444444444,0,0,0.010850694444444444,0,0)" xlink:href="#az"/><use transform="matrix(0.010850694444444444,0,0,0.010850694444444444,13.37890625,0)" xlink:href="#as"/><use transform="matrix(0.010850694444444444,0,0,0.010850694444444444,18.99956597222222,0)" xlink:href="#aw"/><use transform="matrix(0.010850694444444444,0,0,0.010850694444444444,31.358506944444443,0)" xlink:href="#aF"/><use transform="matrix(0.010850694444444444,0,0,0.010850694444444444,41.93793402777777,0)" xlink:href="#ap"/><use transform="matrix(0.010850694444444444,0,0,0.010850694444444444,54.405381944444436,0)" xlink:href="#aE"/><use transform="matrix(0.010850694444444444,0,0,0.010850694444444444,75.0759548611111,0)" xlink:href="#ap"/><use transform="matrix(0.010850694444444444,0,0,0.010850694444444444,87.54340277777777,0)" xlink:href="#aD"/><use transform="matrix(0.010850694444444444,0,0,0.010850694444444444,101.18272569444444,0)" xlink:href="#aj"/></g><g id="I"><use transform="matrix(0.010850694444444444,0,0,0.010850694444444444,0,0)" xlink:href="#aB"/><use transform="matrix(0.010850694444444444,0,0,0.010850694444444444,14.0625,0)" xlink:href="#as"/><use transform="matrix(0.010850694444444444,0,0,0.010850694444444444,19.68315972222222,0)" xlink:href="#aC"/><use transform="matrix(0.010850694444444444,0,0,0.010850694444444444,31.85763888888889,0)" xlink:href="#ah"/><use transform="matrix(0.010850694444444444,0,0,0.010850694444444444,45.279947916666664,0)" xlink:href="#aq"/><use transform="matrix(0.010850694444444444,0,0,0.010850694444444444,54.35112847222222,0)" xlink:href="#af"/><use transform="matrix(0.010850694444444444,0,0,0.010850694444444444,59.97178819444444,0)" xlink:href="#aj"/><use transform="matrix(0.010850694444444444,0,0,0.010850694444444444,67.81684027777777,0)" xlink:href="#ao"/><use transform="matrix(0.010850694444444444,0,0,0.010850694444444444,81.45616319444444,0)" xlink:href="#aE"/></g><path d="M154 0v-137l495-537c165-179 249-281 249-418 0-156-121-253-280-253-170 0-278 110-278 278H158c0-264 200-443 465-443 266 0 455 183 455 416 0 161-73 288-336 568L416-179v12h687V0H154" id="bb"/><use transform="matrix(0.010850694444444444,0,0,0.010850694444444444,0,0)" xlink:href="#bb" id="J"/><path d="M635 20c-292 0-500-160-510-396h192c11 142 145 229 315 229 187 0 323-105 323-260 0-161-125-274-346-274H488v-165h121c174 0 294-100 294-254 0-148-104-245-266-245-152 0-291 85-297 230H157c8-234 222-395 484-395 278 0 448 188 448 400 0 168-95 291-247 336v12c190 31 301 169 301 357 0 244-216 425-508 425" id="bc"/><use transform="matrix(0.010850694444444444,0,0,0.010850694444444444,0,0)" xlink:href="#bc" id="K"/><path d="M200 0l662-1311v-12H98v-167h963v177L400 0H200" id="bd"/><use transform="matrix(0.010850694444444444,0,0,0.010850694444444444,0,0)" xlink:href="#bd" id="L"/><path d="M626 20c-262 0-458-168-468-396h184c12 133 134 229 284 229 180 0 311-137 311-326 0-192-136-335-323-335-92 0-196 33-255 78l-178-22 88-738h784v167H429l-51 435h8c61-51 160-87 263-87 273 0 474 211 474 499 0 286-210 496-497 496" id="be"/><use transform="matrix(0.010850694444444444,0,0,0.010850694444444444,0,0)" xlink:href="#be" id="M"/><path d="M646 20c-249 0-524-159-524-708 0-524 209-822 547-822 250 0 431 161 467 395H950c-33-129-126-227-281-227-229 0-367 208-367 566h12c80-124 212-198 367-198 255 0 467 205 467 493 0 278-198 501-502 501zm0-167c179 0 318-148 318-334 0-182-133-328-313-328-181 0-322 156-322 330 0 176 134 332 317 332" id="bf"/><use transform="matrix(0.010850694444444444,0,0,0.010850694444444444,0,0)" xlink:href="#bf" id="N"/><path d="M603 20c-253 0-434-161-469-399h188c31 132 124 231 281 231 227 0 367-207 367-568h-12c-80 122-211 199-367 199-257 0-469-206-469-493 0-278 200-505 506-500 245 4 520 158 520 706 0 527-208 824-545 824zm16-703c181 0 324-157 324-332 0-171-135-328-318-328-180 0-317 148-317 332 0 183 131 328 311 328" id="bg"/><use transform="matrix(0.010850694444444444,0,0,0.010850694444444444,0,0)" xlink:href="#bg" id="O"/><path d="M120-303v-155l652-1032h231v1020h202v167h-202V0H821v-303H120zm702-167v-782h-12L323-482v12h499" id="bh"/><use transform="matrix(0.010850694444444444,0,0,0.010850694444444444,0,0)" xlink:href="#bh" id="P"/><path fill="#fafafa" d="M902-489h202v151H902V0H716v-338H53v-109l652-1009h197v967zm-639 0h453v-714l-22 40" id="bi"/><path fill="#fafafa" d="M1160-420C1159-145 963 0 674 0H169v-1456h476c294-1 476 112 476 388 0 153-99 253-216 302 146 38 255 167 255 346zM678-157c171 2 289-95 289-261 0-175-95-263-286-263H361v524h317zm250-912c-2-172-104-229-283-229H361v463h290c157 3 278-84 277-234" id="bj"/><g id="Q"><use transform="matrix(0.010850694444444444,0,0,0.010850694444444444,0,0)" xlink:href="#bi"/><use transform="matrix(0.010850694444444444,0,0,0.010850694444444444,12.47829861111111,0)" xlink:href="#aH"/><use transform="matrix(0.010850694444444444,0,0,0.010850694444444444,27.61501736111111,0)" xlink:href="#bj"/></g><path fill="#fafafa" d="M729 0H543v-1233l-373 137v-168l530-199h29V0" id="bk"/><path fill="#fafafa" d="M574-1476c351 0 454 237 460 615v240c0 217-37 378-111 483S733 20 576 20c-346 0-454-246-461-616v-247c0-214 37-373 111-477s190-156 348-156zm275 905c0-337 59-752-275-753-95 0-160 38-207 107-80 118-66 409-67 625 0 157 22 273 68 348s115 113 208 113c91 0 160-35 204-106s69-182 69-334" id="bl"/><g id="R"><use transform="matrix(0.010850694444444444,0,0,0.010850694444444444,0,0)" xlink:href="#bk"/><use transform="matrix(0.010850694444444444,0,0,0.010850694444444444,12.47829861111111,0)" xlink:href="#bl"/><use transform="matrix(0.010850694444444444,0,0,0.010850694444444444,24.95659722222222,0)" xlink:href="#aH"/><use transform="matrix(0.010850694444444444,0,0,0.010850694444444444,40.09331597222222,0)" xlink:href="#bj"/></g><path fill="#fafafa" d="M569-1476c255 0 440 146 439 390 0 143-91 314-274 512L344-151h731V0H121v-133l504-560c75-85 125-155 155-207 105-184 6-424-211-424-183 0-293 113-291 297H93c-3-270 199-449 476-449" id="bm"/><g id="S"><use transform="matrix(0.010850694444444444,0,0,0.010850694444444444,0,0)" xlink:href="#bm"/><use transform="matrix(0.010850694444444444,0,0,0.010850694444444444,12.47829861111111,0)" xlink:href="#bl"/><use transform="matrix(0.010850694444444444,0,0,0.010850694444444444,24.95659722222222,0)" xlink:href="#aH"/><use transform="matrix(0.010850694444444444,0,0,0.010850694444444444,40.09331597222222,0)" xlink:href="#bj"/></g><path fill="#1a1a1a" d="M729 0H543v-1233l-373 137v-168l530-199h29V0" id="bn"/><path fill="#1a1a1a" d="M132-554c0-555 187-908 715-903v157c-320-8-501 179-526 477 77-88 181-132 314-132 259 0 417 214 417 480 0 286-172 495-451 495-293 0-469-266-469-574zm737 88c0-181-95-335-265-335-133 0-252 96-286 200v68c-6 207 101 397 283 400 175 3 268-150 268-333" id="bo"/><path fill="#1a1a1a" d="M730-137c145 0 253-29 323-105v-327H716v-156h528v534C1148-51 964 20 729 20c-394 0-598-279-607-678v-127c-5-410 194-690 585-691 310-1 499 171 537 447h-192c-36-193-151-289-344-289-285 0-393 220-393 528v119c-5 296 140 534 415 534" id="bp"/><path fill="#1a1a1a" d="M1160-420C1159-145 963 0 674 0H169v-1456h476c294-1 476 112 476 388 0 153-99 253-216 302 146 38 255 167 255 346zM678-157c171 2 289-95 289-261 0-175-95-263-286-263H361v524h317zm250-912c-2-172-104-229-283-229H361v463h290c157 3 278-84 277-234" id="bq"/><g id="T"><use transform="matrix(0.010850694444444444,0,0,0.010850694444444444,0,0)" xlink:href="#bn"/><use transform="matrix(0.010850694444444444,0,0,0.010850694444444444,12.47829861111111,0)" xlink:href="#bo"/><use transform="matrix(0.010850694444444444,0,0,0.010850694444444444,24.95659722222222,0)" xlink:href="#bp"/><use transform="matrix(0.010850694444444444,0,0,0.010850694444444444,40.09331597222222,0)" xlink:href="#bq"/></g><g id="U"><use transform="matrix(0.010850694444444444,0,0,0.010850694444444444,0,0)" xlink:href="#bi"/><use transform="matrix(0.010850694444444444,0,0,0.010850694444444444,12.47829861111111,0)" xlink:href="#bl"/><use transform="matrix(0.010850694444444444,0,0,0.010850694444444444,24.95659722222222,0)" xlink:href="#aH"/><use transform="matrix(0.010850694444444444,0,0,0.010850694444444444,40.09331597222222,0)" xlink:href="#bj"/></g><path fill="#fafafa" d="M575-1476c247 0 432 154 429 400-2 161-97 271-213 327 135 56 245 179 247 356 3 257-200 413-463 413-265 0-466-156-463-413 2-176 108-302 243-357-115-56-207-166-209-326-4-246 181-400 429-400zm0 1345c168 0 278-101 278-266 0-161-118-276-280-276-163 0-276 113-276 276 0 167 108 266 278 266zm244-942c0-143-104-251-244-251-146 0-244 102-244 251 0 145 98 248 244 248s244-103 244-248" id="br"/><g id="V"><use transform="matrix(0.010850694444444444,0,0,0.010850694444444444,0,0)" xlink:href="#br"/><use transform="matrix(0.010850694444444444,0,0,0.010850694444444444,12.47829861111111,0)" xlink:href="#bl"/><use transform="matrix(0.010850694444444444,0,0,0.010850694444444444,24.95659722222222,0)" xlink:href="#aH"/><use transform="matrix(0.010850694444444444,0,0,0.010850694444444444,40.09331597222222,0)" xlink:href="#bj"/></g><path d="M653-1490V0H466v-1314h-10L96-1047v-204l324-239h233" id="bs"/><path d="M646 20c-332 0-524-278-524-764 0-483 194-766 524-766s524 283 524 766c0 485-191 764-524 764zm0-166c218 0 341-220 341-598 0-380-123-601-341-601s-341 222-341 601c0 378 123 598 341 598" id="bt"/><g id="W"><use transform="matrix(0.010850694444444444,0,0,0.010850694444444444,0,0)" xlink:href="#bs"/><use transform="matrix(0.010850694444444444,0,0,0.010850694444444444,9.038628472222221,0)" xlink:href="#bt"/></g><use transform="matrix(0.010850694444444444,0,0,0.010850694444444444,0,0)" xlink:href="#bs" id="X"/><use transform="matrix(0.010850694444444444,0,0,0.010850694444444444,0,0)" xlink:href="#bh" id="Y"/><use transform="matrix(0.010850694444444444,0,0,0.010850694444444444,0,0)" xlink:href="#bd" id="Z"/><path d="M633 20c-303 0-511-173-511-416 0-188 124-348 291-378v-8c-145-37-237-174-237-332 0-227 192-396 457-396 261 0 456 169 456 396 0 158-94 295-235 332v8c162 30 291 190 291 378 0 243-212 416-512 416zm0-165c197 0 322-103 322-261 0-165-138-283-322-283-188 0-324 118-324 283 0 158 123 261 324 261zm0-703c157 0 272-101 272-252 0-149-110-246-272-246-165 0-273 97-273 246 0 151 112 252 273 252" id="bu"/><use transform="matrix(0.010850694444444444,0,0,0.010850694444444444,0,0)" xlink:href="#bu" id="aa"/><use transform="matrix(0.010850694444444444,0,0,0.010850694444444444,0,0)" xlink:href="#bu" id="ab"/></defs></g></svg>