<svg xmlns="http://www.w3.org/2000/svg" xmlns:xlink="http://www.w3.org/1999/xlink" xmlns:lucid="lucid" width="1998.79" height="837.65"><g transform="translate(343.39623674262566 240.15855265116716)" lucid:page-tab-id="0_0"><path d="M-342.4-164.3a6 6 0 0 1 6-6h293.02a6 6 0 0 1 6 6v361.35a6 6 0 0 1-6 6H-336.4a6 6 0 0 1-6-6z" stroke="#000" stroke-opacity="0" stroke-width="2" fill="#f2f3f5"/><path d="M-337.5 206.53a1.92 1.92 0 0 1 1.1-3.5h293.02a1.92 1.92 0 0 1 1.1 3.5L-185 308.3a8.42 8.42 0 0 1-9.77 0z" stroke="#000" stroke-opacity="0" stroke-width="2" fill="#f2f3f5"/><path d="M-315.56-130.93a6 6 0 0 1 6-6h239.35a6 6 0 0 1 6 6v58.77a6 6 0 0 1-6 6h-239.37a6 6 0 0 1-6-6z" stroke="#282c33" stroke-width="2" fill="#cfe4ff"/><use xlink:href="#a" transform="matrix(1,0,0,1,-303.5647984133211,-124.92570865899575) translate(91.13216145833333 32.564670138888886)"/><path d="M-315.56-44.16a6 6 0 0 1 6-6h239.35a6 6 0 0 1 6 6V14.6a6 6 0 0 1-6 6h-239.37a6 6 0 0 1-6-6z" stroke="#282c33" stroke-width="2" fill="#cfe4ff"/><use xlink:href="#a" transform="matrix(1,0,0,1,-303.5647984133211,-38.15967661207628) translate(91.13216145833333 32.564670138888886)"/><path d="M-315.56 42.6a6 6 0 0 1 6-6h239.35a6 6 0 0 1 6 6v58.77a6 6 0 0 1-6 6h-239.37a6 6 0 0 1-6-6z" stroke="#282c33" stroke-width="2" fill="#cfe4ff"/><use xlink:href="#a" transform="matrix(1,0,0,1,-303.5647984133211,48.60635543484318) translate(91.13216145833333 32.564670138888886)"/><path d="M-315.56 129.37a6 6 0 0 1 6-6h239.35a6 6 0 0 1 6 6v58.77a6 6 0 0 1-6 6h-239.37a6 6 0 0 1-6-6z" stroke="#282c33" stroke-width="2" fill="#cfe4ff"/><use xlink:href="#a" transform="matrix(1,0,0,1,-303.5647984133211,135.37238748176242) translate(91.13216145833333 32.564670138888886)"/><path d="M-342.4 314.52a6 6 0 0 1 6-6h293.02a6 6 0 0 1 6 6v65.27a6 6 0 0 1-6 6H-336.4a6 6 0 0 1-6-6z" stroke="#282c33" stroke-width="2" fill="#011b3c"/><use xlink:href="#b" transform="matrix(1,0,0,1,-330.39623674262566,320.5243335674402) translate(9.190672656249973 24.2769572265625)"/><use xlink:href="#c" transform="matrix(1,0,0,1,-330.39623674262566,320.5243335674402) translate(72.70817812499998 24.2769572265625)"/><use xlink:href="#d" transform="matrix(1,0,0,1,-330.39623674262566,320.5243335674402) translate(116.85150761718748 24.2769572265625)"/><use xlink:href="#e" transform="matrix(1,0,0,1,-330.39623674262566,320.5243335674402) translate(196.821307421875 24.2769572265625)"/><use xlink:href="#f" transform="matrix(1,0,0,1,-330.39623674262566,320.5243335674402) translate(223.23282578125 24.2769572265625)"/><use xlink:href="#g" transform="matrix(1,0,0,1,-330.39623674262566,320.5243335674402) translate(67.65695136718749 50.908094140625)"/><use xlink:href="#h" transform="matrix(1,0,0,1,-330.39623674262566,320.5243335674402) translate(113.27077031249999 50.908094140625)"/><path d="M-5.05-164.3a6 6 0 0 1 6-6h293.02a6 6 0 0 1 6 6v361.35a6 6 0 0 1-6 6H.95a6 6 0 0 1-6-6z" stroke="#000" stroke-opacity="0" stroke-width="2" fill="#f2f3f5"/><path d="M-.16 206.53a1.92 1.92 0 0 1 1.1-3.5h293.03a1.92 1.92 0 0 1 1.1 3.5L152.36 308.3a8.42 8.42 0 0 1-9.78 0z" stroke="#000" stroke-opacity="0" stroke-width="2" fill="#f2f3f5"/><path d="M21.79-130.93a6 6 0 0 1 5.98-6h239.36a6 6 0 0 1 6 6v58.77a6 6 0 0 1-6 6H27.8a6 6 0 0 1-6.02-6z" stroke="#282c33" stroke-width="2" fill="#cfe4ff"/><use xlink:href="#a" transform="matrix(1,0,0,1,33.78489304530467,-124.92570865899575) translate(91.13216145833333 32.564670138888886)"/><path d="M21.79-51.36a6 6 0 0 1 5.98-6h239.36a6 6 0 0 1 6 6V7.4a6 6 0 0 1-6 6H27.8a6 6 0 0 1-6.02-6z" stroke="#282c33" stroke-width="2" fill="#cfe4ff"/><use xlink:href="#a" transform="matrix(1,0,0,1,33.78489304530467,-45.35967661207633) translate(91.13216145833333 32.564670138888886)"/><path d="M21.79 49.7a6 6 0 0 1 5.98-6h239.36a6 6 0 0 1 6 6v58.77a6 6 0 0 1-6 6H27.8a6 6 0 0 1-6.02-6z" stroke="#282c33" stroke-width="2" fill="#cfe4ff"/><use xlink:href="#a" transform="matrix(1,0,0,1,33.78489304530467,55.7000799827822) translate(91.13216145833333 32.564670138888886)"/><path d="M21.79 129.37a6 6 0 0 1 5.98-6h239.36a6 6 0 0 1 6 6v58.77a6 6 0 0 1-6 6H27.8a6 6 0 0 1-6.02-6z" stroke="#282c33" stroke-width="2" fill="#cfe4ff"/><use xlink:href="#a" transform="matrix(1,0,0,1,33.78489304530467,135.37238748176242) translate(91.13216145833333 32.564670138888886)"/><path d="M-5.05 314.52a6 6 0 0 1 6-6h293.02a6 6 0 0 1 6 6v65.27a6 6 0 0 1-6 6H.95a6 6 0 0 1-6-6z" stroke="#282c33" stroke-width="2" fill="#011b3c"/><use xlink:href="#b" transform="matrix(1,0,0,1,6.953454716000124,320.5243335674402) translate(31.443761425781247 24.2769572265625)"/><use xlink:href="#c" transform="matrix(1,0,0,1,6.953454716000124,320.5243335674402) translate(94.96126689453125 24.2769572265625)"/><use xlink:href="#i" transform="matrix(1,0,0,1,6.953454716000124,320.5243335674402) translate(139.10459638671875 24.2769572265625)"/><use xlink:href="#j" transform="matrix(1,0,0,1,6.953454716000124,320.5243335674402) translate(155.36591806640627 24.2769572265625)"/><use xlink:href="#f" transform="matrix(1,0,0,1,6.953454716000124,320.5243335674402) translate(200.97973701171875 24.2769572265625)"/><use xlink:href="#k" transform="matrix(1,0,0,1,6.953454716000124,320.5243335674402) translate(31.91164443359372 50.908094140625)"/><use xlink:href="#l" transform="matrix(1,0,0,1,6.953454716000124,320.5243335674402) translate(48.17296611328122 50.908094140625)"/><use xlink:href="#m" transform="matrix(1,0,0,1,6.953454716000124,320.5243335674402) translate(63.498521777343726 50.908094140625)"/><use xlink:href="#n" transform="matrix(1,0,0,1,6.953454716000124,320.5243335674402) translate(121.99344638671873 50.908094140625)"/><use xlink:href="#o" transform="matrix(1,0,0,1,6.953454716000124,320.5243335674402) translate(190.81999169921875 50.908094140625)"/><path d="M37.13-97.28h9.83v70.77h-9.83zM53.7-97.28h9.82v70.77H53.7zM70.25-97.28h9.84v70.77h-9.85zM37.13 83.7h9.83v70.76h-9.83zM53.7 83.7h9.82v70.76H53.7zM70.25 83.7h9.84v70.76h-9.85z" stroke="#282c33" stroke-width="2" fill="#168aad"/><path d="M332.3-164.3a6 6 0 0 1 6-6h293.02a6 6 0 0 1 6 6v361.35a6 6 0 0 1-6 6H338.3a6 6 0 0 1-6-6z" stroke="#000" stroke-opacity="0" stroke-width="2" fill="#f2f3f5"/><path d="M337.2 206.53a1.92 1.92 0 0 1 1.1-3.5h293.02a1.92 1.92 0 0 1 1.1 3.5L489.7 308.3a8.42 8.42 0 0 1-9.77 0z" stroke="#000" stroke-opacity="0" stroke-width="2" fill="#f2f3f5"/><path d="M359.04-130.93a6 6 0 0 1 6-6H604.4a6 6 0 0 1 6 6v58.77a6 6 0 0 1-6 6H365.03a6 6 0 0 1-6-6z" stroke="#282c33" stroke-width="2" fill="#cfe4ff"/><use xlink:href="#a" transform="matrix(1,0,0,1,371.03506176904284,-124.92570865899575) translate(91.13216145833333 32.564670138888886)"/><path d="M359.04-44.16a6 6 0 0 1 6-6H604.4a6 6 0 0 1 6 6V14.6a6 6 0 0 1-6 6H365.03a6 6 0 0 1-6-6z" stroke="#282c33" stroke-width="2" fill="#cfe4ff"/><use xlink:href="#a" transform="matrix(1,0,0,1,371.03506176904284,-38.15967661207628) translate(91.13216145833333 32.564670138888886)"/><path d="M359.04 42.6a6 6 0 0 1 6-6H604.4a6 6 0 0 1 6 6v58.77a6 6 0 0 1-6 6H365.03a6 6 0 0 1-6-6z" stroke="#282c33" stroke-width="2" fill="#cfe4ff"/><use xlink:href="#a" transform="matrix(1,0,0,1,371.03506176904284,48.60635543484318) translate(91.13216145833333 32.564670138888886)"/><path d="M359.04 129.37a6 6 0 0 1 6-6H604.4a6 6 0 0 1 6 6v58.77a6 6 0 0 1-6 6H365.03a6 6 0 0 1-6-6z" stroke="#282c33" stroke-width="2" fill="#cfe4ff"/><use xlink:href="#a" transform="matrix(1,0,0,1,371.03506176904284,135.37238748176242) translate(91.13216145833333 32.564670138888886)"/><path d="M332.2 314.52a6 6 0 0 1 6-6h293.02a6 6 0 0 1 6 6v65.27a6 6 0 0 1-6 6H338.2a6 6 0 0 1-6-6z" stroke="#282c33" stroke-width="2" fill="#011b3c"/><use xlink:href="#b" transform="matrix(1,0,0,1,344.2036234397383,320.5243335674402) translate(6.918098046874974 24.2769572265625)"/><use xlink:href="#c" transform="matrix(1,0,0,1,344.2036234397383,320.5243335674402) translate(70.43560351562498 24.2769572265625)"/><use xlink:href="#i" transform="matrix(1,0,0,1,344.2036234397383,320.5243335674402) translate(114.57893300781248 24.2769572265625)"/><use xlink:href="#p" transform="matrix(1,0,0,1,344.2036234397383,320.5243335674402) translate(130.84025468749996 24.2769572265625)"/><use xlink:href="#q" transform="matrix(1,0,0,1,344.2036234397383,320.5243335674402) translate(183.89245859374998 24.2769572265625)"/><use xlink:href="#f" transform="matrix(1,0,0,1,344.2036234397383,320.5243335674402) translate(225.505400390625 24.2769572265625)"/><use xlink:href="#r" transform="matrix(1,0,0,1,344.2036234397383,320.5243335674402) translate(31.91164443359372 50.908094140625)"/><use xlink:href="#l" transform="matrix(1,0,0,1,344.2036234397383,320.5243335674402) translate(48.17296611328122 50.908094140625)"/><use xlink:href="#s" transform="matrix(1,0,0,1,344.2036234397383,320.5243335674402) translate(63.498521777343726 50.908094140625)"/><use xlink:href="#n" transform="matrix(1,0,0,1,344.2036234397383,320.5243335674402) translate(121.99344638671873 50.908094140625)"/><use xlink:href="#o" transform="matrix(1,0,0,1,344.2036234397383,320.5243335674402) translate(190.81999169921875 50.908094140625)"/><path d="M378.46-97.28h9.84v251.74h-9.84zM395.02-97.28h9.84v251.74h-9.84zM411.58-97.28h9.84v251.74h-9.84z" stroke="#282c33" stroke-width="2" fill="#168aad"/><path d="M1007-159.05a6 6 0 0 1 6-6h293.02a6 6 0 0 1 6 6V202.3a6 6 0 0 1-6 6H1013a6 6 0 0 1-6-6z" stroke="#000" stroke-opacity="0" stroke-width="2" fill="#f2f3f5"/><path d="M1011.9 211.78a1.92 1.92 0 0 1 1.1-3.5h293.02a1.92 1.92 0 0 1 1.1 3.5L1164.4 313.54a8.42 8.42 0 0 1-9.78 0z" stroke="#000" stroke-opacity="0" stroke-width="2" fill="#f2f3f5"/><path d="M1012.08 318.52a6 6 0 0 1 6-6h293.02a6 6 0 0 1 6 6v65.26a6 6 0 0 1-6 6h-293.02a6 6 0 0 1-6-6z" stroke="#282c33" stroke-width="2" fill="#011b3c"/><use xlink:href="#b" transform="matrix(1,0,0,1,1024.0830533161597,324.52172066778644) translate(31.87344990234375 24.2769572265625)"/><use xlink:href="#c" transform="matrix(1,0,0,1,1024.0830533161597,324.52172066778644) translate(95.39095537109375 24.2769572265625)"/><use xlink:href="#i" transform="matrix(1,0,0,1,1024.0830533161597,324.52172066778644) translate(139.53428486328124 24.2769572265625)"/><use xlink:href="#t" transform="matrix(1,0,0,1,1024.0830533161597,324.52172066778644) translate(155.79560654296876 24.2769572265625)"/><use xlink:href="#f" transform="matrix(1,0,0,1,1024.0830533161597,324.52172066778644) translate(200.55004853515624 24.2769572265625)"/><use xlink:href="#u" transform="matrix(1,0,0,1,1024.0830533161597,324.52172066778644) translate(81.60750390625 50.908094140625)"/><use xlink:href="#v" transform="matrix(1,0,0,1,1024.0830533161597,324.52172066778644) translate(150.43404921875 50.908094140625)"/><path d="M1028.4 128.1a6 6 0 0 1 6-6h68.34a6 6 0 0 1 6 6v58.75a6 6 0 0 1-6 6h-68.33a6 6 0 0 1-6-6z" stroke="#282c33" stroke-width="2" fill="#cfe4ff"/><use xlink:href="#a" transform="matrix(1,0,0,1,1040.4144916454652,134.0866186267167) translate(5.632161458333332 32.564670138888886)"/><path d="M1199.44 128.1a6 6 0 0 1 6-6h68.33a6 6 0 0 1 6 6v58.75a6 6 0 0 1-6 6h-68.33a6 6 0 0 1-6-6z" stroke="#282c33" stroke-width="2" fill="#cfe4ff"/><use xlink:href="#a" transform="matrix(1,0,0,1,1211.4432918620732,134.0866186267167) translate(5.632161458333332 32.564670138888886)"/><path d="M1028.4-121.68a6 6 0 0 1 6-6h68.34a6 6 0 0 1 6 6v58.77a6 6 0 0 1-6 5.98h-68.33a6 6 0 0 1-6-6z" stroke="#282c33" stroke-width="2" fill="#cfe4ff"/><use xlink:href="#a" transform="matrix(1,0,0,1,1040.4144916454652,-115.6807741285777) translate(5.632161458333332 32.564670138888886)"/><path d="M1199.44-121.68a6 6 0 0 1 6-6h68.33a6 6 0 0 1 6 6v58.77a6 6 0 0 1-6 5.98h-68.33a6 6 0 0 1-6-6z" stroke="#282c33" stroke-width="2" fill="#cfe4ff"/><use xlink:href="#a" transform="matrix(1,0,0,1,1211.4432918620732,-115.6807741285777) translate(5.632161458333332 32.564670138888886)"/><path d="M1068.58 104.7V-39.53" stroke="#3a414a" fill="none"/><path d="M1068.58 119.47l-4.64-14.27h9.27zM1068.58-54.3l4.63 14.27h-9.26z" stroke="#3a414a" fill="#3a414a"/><path d="M1239.6 104.7V-39.53" stroke="#3a414a" fill="none"/><path d="M1239.6 119.47l-4.63-14.27h9.27zM1239.6-54.3l4.64 14.27h-9.27z" stroke="#3a414a" fill="#3a414a"/><path d="M1126.12-92.3h55.94" stroke="#3a414a" fill="none"/><path d="M1111.36-92.3l14.26-4.63v9.27zM1196.83-92.3l-14.27 4.64v-9.27z" stroke="#3a414a" fill="#3a414a"/><path d="M1126.12 157.47h55.94" stroke="#3a414a" fill="none"/><path d="M1111.36 157.47l14.26-4.64v9.27zM1196.83 157.47l-14.27 4.63v-9.27z" stroke="#3a414a" fill="#3a414a"/><path d="M1193.3-43.15L1115.54 109" stroke="#3a414a" fill="none"/><path d="M1200.02-56.3l-2.36 14.82-8.26-4.22zM1108.83 122.16l2.36-14.8 8.24 4.2z" stroke="#3a414a" fill="#3a414a"/><path d="M1114.1-42.52l79.06 150.9" stroke="#3a414a" fill="none"/><path d="M1107.25-55.6l10.73 10.48-8.2 4.3zM1200 121.47l-10.7-10.5 8.2-4.3z" stroke="#3a414a" fill="#3a414a"/><path d="M1344.3-157.32a6 6 0 0 1 6-6h293.02a6 6 0 0 1 6 6v361.34a6 6 0 0 1-6 6H1350.3a6 6 0 0 1-6-6z" stroke="#000" stroke-opacity="0" stroke-width="2" fill="#f2f3f5"/><path d="M1349.2 213.5a1.92 1.92 0 0 1 1.1-3.48h293.02a1.92 1.92 0 0 1 1.1 3.5L1501.7 315.26a8.42 8.42 0 0 1-9.78 0z" stroke="#000" stroke-opacity="0" stroke-width="2" fill="#f2f3f5"/><path d="M1349.38 320.25a6 6 0 0 1 6-6h293.02a6 6 0 0 1 6 6v65.26a6 6 0 0 1-6 6h-293.02a6 6 0 0 1-6-6z" stroke="#282c33" stroke-width="2" fill="#011b3c"/><use xlink:href="#b" transform="matrix(1,0,0,1,1361.3816681853123,326.2524240532505) translate(31.87344990234375 24.2769572265625)"/><use xlink:href="#c" transform="matrix(1,0,0,1,1361.3816681853123,326.2524240532505) translate(95.39095537109375 24.2769572265625)"/><use xlink:href="#w" transform="matrix(1,0,0,1,1361.3816681853123,326.2524240532505) translate(139.53428486328124 24.2769572265625)"/><use xlink:href="#x" transform="matrix(1,0,0,1,1361.3816681853123,326.2524240532505) translate(155.79560654296876 24.2769572265625)"/><use xlink:href="#f" transform="matrix(1,0,0,1,1361.3816681853123,326.2524240532505) translate(200.55004853515624 24.2769572265625)"/><use xlink:href="#y" transform="matrix(1,0,0,1,1361.3816681853123,326.2524240532505) translate(98.25554521484375 50.908094140625)"/><path d="M1449.28 100.6a6 6 0 0 1 6-6h31.77a6 6 0 0 1 6 6v83.06a6 6 0 0 1-6 6h-31.77a6 6 0 0 1-6-6z" stroke="#282c33" stroke-width="2" fill="#cfe4ff"/><use xlink:href="#z" transform="matrix(-1.8369701987210297e-16,-1,1,-1.8369701987210297e-16,1461.2810906436844,177.66092059474704) translate(-2.858506944444443 19.00173611111111)"/><path d="M1449.28-6.28a6 6 0 0 1 6-6h31.77a6 6 0 0 1 6 6V76.8a6 6 0 0 1-6 6h-31.77a6 6 0 0 1-6-6z" stroke="#282c33" stroke-width="2" fill="#cfe4ff"/><use xlink:href="#z" transform="matrix(-1.8369701987210297e-16,-1,1,-1.8369701987210297e-16,1461.2810906436844,70.78960783978437) translate(-2.858506944444443 19.00173611111111)"/><path d="M1449.28-113.15a6 6 0 0 1 6-6h31.77a6 6 0 0 1 6 6v83.07a6 6 0 0 1-6 6h-31.77a6 6 0 0 1-6-6z" stroke="#282c33" stroke-width="2" fill="#cfe4ff"/><use xlink:href="#z" transform="matrix(-1.8369701987210297e-16,-1,1,-1.8369701987210297e-16,1461.2810906436844,-36.08170491517831) translate(-2.858506944444443 19.00173611111111)"/><path d="M1500.57 100.6a6 6 0 0 1 6-6h31.77a6 6 0 0 1 6 6v83.06a6 6 0 0 1-6 6h-31.77a6 6 0 0 1-6-6z" stroke="#282c33" stroke-width="2" fill="#cfe4ff"/><use xlink:href="#z" transform="matrix(-1.8369701987210297e-16,-1,1,-1.8369701987210297e-16,1512.5683257518967,177.66092059474704) translate(-2.858506944444443 19.00173611111111)"/><path d="M1500.57-6.28a6 6 0 0 1 6-6h31.77a6 6 0 0 1 6 6V76.8a6 6 0 0 1-6 6h-31.77a6 6 0 0 1-6-6z" stroke="#282c33" stroke-width="2" fill="#cfe4ff"/><use xlink:href="#z" transform="matrix(-1.8369701987210297e-16,-1,1,-1.8369701987210297e-16,1512.5683257518967,70.78960783978437) translate(-2.858506944444443 19.00173611111111)"/><path d="M1500.57-113.15a6 6 0 0 1 6-6h31.77a6 6 0 0 1 6 6v83.07a6 6 0 0 1-6 6h-31.77a6 6 0 0 1-6-6z" stroke="#282c33" stroke-width="2" fill="#cfe4ff"/><use xlink:href="#z" transform="matrix(-1.8369701987210297e-16,-1,1,-1.8369701987210297e-16,1512.5683257518967,-36.08170491517831) translate(-2.858506944444443 19.00173611111111)"/><path d="M1555.3 128.1a6 6 0 0 1 6-6h68.32a6 6 0 0 1 6 6v58.75a6 6 0 0 1-6 6h-68.33a6 6 0 0 1-6-6z" stroke="#282c33" stroke-width="2" fill="#cfe4ff"/><use xlink:href="#a" transform="matrix(1,0,0,1,1567.2921482815773,134.0866186267167) translate(5.632161458333332 32.564670138888886)"/><path d="M1555.3-121.93a6 6 0 0 1 6-6h68.32a6 6 0 0 1 6 6v58.76a6 6 0 0 1-6 6h-68.33a6 6 0 0 1-6-6z" stroke="#282c33" stroke-width="2" fill="#cfe4ff"/><use xlink:href="#a" transform="matrix(1,0,0,1,1567.2921482815773,-115.93408277721664) translate(5.632161458333332 32.564670138888886)"/><path d="M1555.3-38.6a6 6 0 0 1 6-6h68.32a6 6 0 0 1 6 6v58.77a6 6 0 0 1-6 6h-68.33a6 6 0 0 1-6-6z" stroke="#282c33" stroke-width="2" fill="#cfe4ff"/><use xlink:href="#a" transform="matrix(1,0,0,1,1567.2921482815773,-32.59384897590553) translate(5.632161458333332 32.564670138888886)"/><path d="M1555.3 44.75a6 6 0 0 1 6-6h68.32a6 6 0 0 1 6 6v58.76a6 6 0 0 1-6 6h-68.33a6 6 0 0 1-6-6z" stroke="#282c33" stroke-width="2" fill="#cfe4ff"/><use xlink:href="#a" transform="matrix(1,0,0,1,1567.2921482815773,50.74638482540513) translate(5.632161458333332 32.564670138888886)"/><path d="M1358 128.1a6 6 0 0 1 6-6h68.33a6 6 0 0 1 6 6v58.75a6 6 0 0 1-6 6H1364a6 6 0 0 1-6-6z" stroke="#282c33" stroke-width="2" fill="#cfe4ff"/><use xlink:href="#a" transform="matrix(1,0,0,1,1370.0018165156944,134.0866186267167) translate(5.632161458333332 32.564670138888886)"/><path d="M1358-121.93a6 6 0 0 1 6-6h68.33a6 6 0 0 1 6 6v58.76a6 6 0 0 1-6 6H1364a6 6 0 0 1-6-6z" stroke="#282c33" stroke-width="2" fill="#cfe4ff"/><use xlink:href="#a" transform="matrix(1,0,0,1,1370.0018165156944,-115.93408277721664) translate(5.632161458333332 32.564670138888886)"/><path d="M1358-38.6a6 6 0 0 1 6-6h68.33a6 6 0 0 1 6 6v58.77a6 6 0 0 1-6 6H1364a6 6 0 0 1-6-6z" stroke="#282c33" stroke-width="2" fill="#cfe4ff"/><use xlink:href="#a" transform="matrix(1,0,0,1,1370.0018165156944,-32.59384897590553) translate(5.632161458333332 32.564670138888886)"/><path d="M1358 44.75a6 6 0 0 1 6-6h68.33a6 6 0 0 1 6 6v58.76a6 6 0 0 1-6 6H1364a6 6 0 0 1-6-6z" stroke="#282c33" stroke-width="2" fill="#cfe4ff"/><use xlink:href="#a" transform="matrix(1,0,0,1,1370.0018165156944,50.74638482540513) translate(5.632161458333332 32.564670138888886)"/><path d="M1439.83 157.47a3.98 3.98 0 0 0 3.97-3.98v-7.4a3.98 3.98 0 0 1 3.98-3.97" stroke="#3a414a" fill="none"/><path d="M1439.84 157.94h-.5V157h.5zM1448.28 142.6h-.5v-.95h.5z" stroke="#3a414a" stroke-width=".05" fill="#3a414a"/><path d="M1439.83 157.47a3.98 3.98 0 0 0 3.97-3.98V39.22a3.98 3.98 0 0 1 3.98-3.97" stroke="#3a414a" fill="none"/><path d="M1439.84 157.94h-.5V157h.5zM1448.28 35.73h-.5v-.95h.5z" stroke="#3a414a" stroke-width=".05" fill="#3a414a"/><path d="M1439.83 157.47a3.98 3.98 0 0 0 3.97-3.98V-67.65a3.98 3.98 0 0 1 3.98-3.97v-.02" stroke="#3a414a" fill="none"/><path d="M1439.84 157.94h-.5V157h.5zM1448.28-71.14h-.5v-.95h.5z" stroke="#3a414a" stroke-width=".05" fill="#3a414a"/><path d="M1439.83 74.13a3.98 3.98 0 0 0 3.97-3.98V39.23a3.98 3.98 0 0 1 3.98-3.97" stroke="#3a414a" fill="none"/><path d="M1439.84 74.6h-.5v-.95h.5zM1448.28 35.73h-.5v-.95h.5z" stroke="#3a414a" stroke-width=".05" fill="#3a414a"/><path d="M1439.83-9.2a3.98 3.98 0 0 1 3.97 3.97v36.5a3.98 3.98 0 0 0 3.98 4" stroke="#3a414a" fill="none"/><path d="M1439.84-8.74h-.5v-.95h.5zM1448.28 35.73h-.5v-.95h.5z" stroke="#3a414a" stroke-width=".05" fill="#3a414a"/><path d="M1439.83-92.55a3.98 3.98 0 0 1 3.97 3.98V31.28a3.98 3.98 0 0 0 3.98 3.98" stroke="#3a414a" fill="none"/><path d="M1439.84-92.08h-.5v-.95h.5zM1448.28 35.73h-.5v-.95h.5z" stroke="#3a414a" stroke-width=".05" fill="#3a414a"/><path d="M1553.8 157.47a3.98 3.98 0 0 1-4-3.98v-7.4a3.98 3.98 0 0 0-3.96-3.97" stroke="#3a414a" fill="none"/><path d="M1554.3 157.94h-.52V157h.5zM1545.85 142.6h-.5v-.95h.5z" stroke="#3a414a" stroke-width=".05" fill="#3a414a"/><path d="M1553.8 157.47a3.98 3.98 0 0 1-4-3.98V39.22a3.98 3.98 0 0 0-3.96-3.97" stroke="#3a414a" fill="none"/><path d="M1554.3 157.94h-.52V157h.5zM1545.85 35.73h-.5v-.95h.5z" stroke="#3a414a" stroke-width=".05" fill="#3a414a"/><path d="M1553.8 74.13a3.98 3.98 0 0 1-4-3.98v-137.8a3.98 3.98 0 0 0-3.96-3.96v-.02" stroke="#3a414a" fill="none"/><path d="M1554.3 74.6h-.52v-.95h.5zM1545.85-71.14h-.5v-.95h.5z" stroke="#3a414a" stroke-width=".05" fill="#3a414a"/><path d="M1553.8-9.2a3.98 3.98 0 0 0-4 3.97v36.5a3.98 3.98 0 0 1-3.96 4" stroke="#3a414a" fill="none"/><path d="M1554.3-8.74h-.52v-.95h.5zM1545.85 35.73h-.5v-.95h.5z" stroke="#3a414a" stroke-width=".05" fill="#3a414a"/><path d="M1553.8-92.55a3.98 3.98 0 0 0-4 3.98V31.28a3.98 3.98 0 0 1-3.96 3.98" stroke="#3a414a" fill="none"/><path d="M1554.3-92.08h-.52v-.95h.5zM1545.85 35.73h-.5v-.95h.5z" stroke="#3a414a" stroke-width=".05" fill="#3a414a"/><path d="M332.2 421.37a6 6 0 0 1 6-6h293.02a6 6 0 0 1 6 6v65.26a6 6 0 0 1-6 6H338.2a6 6 0 0 1-6-6z" stroke="#282c33" stroke-width="2" fill="#fff"/><use xlink:href="#A" transform="matrix(1,0,0,1,344.2036234397383,427.3724951294746) translate(78.2750310546875 34.4019572265625)"/><use xlink:href="#B" transform="matrix(1,0,0,1,344.2036234397383,427.3724951294746) translate(118.4747751953125 34.4019572265625)"/><path d="M669.75-162.93a6 6 0 0 1 6-6h293.02a6 6 0 0 1 6 6V198.4a6 6 0 0 1-6 6H675.75a6 6 0 0 1-6-6z" stroke="#000" stroke-opacity="0" stroke-width="2" fill="#f2f3f5"/><path d="M674.64 207.9a1.92 1.92 0 0 1 1.1-3.5h293.03a1.92 1.92 0 0 1 1.1 3.5L827.15 309.66a8.42 8.42 0 0 1-9.77 0z" stroke="#000" stroke-opacity="0" stroke-width="2" fill="#f2f3f5"/><path d="M669.65 315.9a6 6 0 0 1 6-6h293.02a6 6 0 0 1 6 6v65.25a6 6 0 0 1-6 6H675.65a6 6 0 0 1-6-6z" stroke="#282c33" stroke-width="2" fill="#011b3c"/><use xlink:href="#b" transform="matrix(1,0,0,1,681.6528376332499,321.8928565427775) translate(6.918098046874974 24.2769572265625)"/><use xlink:href="#c" transform="matrix(1,0,0,1,681.6528376332499,321.8928565427775) translate(70.43560351562498 24.2769572265625)"/><use xlink:href="#w" transform="matrix(1,0,0,1,681.6528376332499,321.8928565427775) translate(114.57893300781248 24.2769572265625)"/><use xlink:href="#p" transform="matrix(1,0,0,1,681.6528376332499,321.8928565427775) translate(130.84025468749996 24.2769572265625)"/><use xlink:href="#q" transform="matrix(1,0,0,1,681.6528376332499,321.8928565427775) translate(183.89245859374998 24.2769572265625)"/><use xlink:href="#f" transform="matrix(1,0,0,1,681.6528376332499,321.8928565427775) translate(225.505400390625 24.2769572265625)"/><use xlink:href="#k" transform="matrix(1,0,0,1,681.6528376332499,321.8928565427775) translate(31.91164443359372 50.908094140625)"/><use xlink:href="#l" transform="matrix(1,0,0,1,681.6528376332499,321.8928565427775) translate(48.17296611328122 50.908094140625)"/><use xlink:href="#s" transform="matrix(1,0,0,1,681.6528376332499,321.8928565427775) translate(63.498521777343726 50.908094140625)"/><use xlink:href="#n" transform="matrix(1,0,0,1,681.6528376332499,321.8928565427775) translate(121.99344638671873 50.908094140625)"/><use xlink:href="#o" transform="matrix(1,0,0,1,681.6528376332499,321.8928565427775) translate(190.81999169921875 50.908094140625)"/><path d="M684.48-129.56a6 6 0 0 1 6-6h119.26a6 6 0 0 1 6 6v58.77a6 6 0 0 1-6 6H690.48a6 6 0 0 1-6-6z" stroke="#282c33" stroke-width="2" fill="#cfe4ff"/><g><use xlink:href="#a" transform="matrix(1,0,0,1,696.4842759625553,-123.55718568365819) translate(31.132161458333332 32.564670138888886)"/></g><path d="M684.48-42.8a6 6 0 0 1 6-6h119.26a6 6 0 0 1 6 6v58.77a6 6 0 0 1-6 6H690.48a6 6 0 0 1-6-6z" stroke="#282c33" stroke-width="2" fill="#cfe4ff"/><g><use xlink:href="#a" transform="matrix(1,0,0,1,696.4842759625553,-36.79115363673873) translate(31.132161458333332 32.564670138888886)"/></g><path d="M684.48 43.98a6 6 0 0 1 6-6h119.26a6 6 0 0 1 6 6v58.76a6 6 0 0 1-6 6H690.48a6 6 0 0 1-6-6z" stroke="#282c33" stroke-width="2" fill="#cfe4ff"/><g><use xlink:href="#a" transform="matrix(1,0,0,1,696.4842759625553,49.97487841018096) translate(31.132161458333332 32.564670138888886)"/></g><path d="M684.48 130.74a6 6 0 0 1 6-6h119.26a6 6 0 0 1 6 6v58.77a6 6 0 0 1-6 6H690.48a6 6 0 0 1-6-6z" stroke="#282c33" stroke-width="2" fill="#cfe4ff"/><g><use xlink:href="#a" transform="matrix(1,0,0,1,696.4842759625553,136.74091045709974) translate(31.132161458333332 32.564670138888886)"/></g><path d="M691.46-96.25h8.5V155.5h-8.5zM705.76-96.25h8.5V155.5h-8.5zM720.07-96.25h8.5V155.5h-8.5z" stroke="#282c33" stroke-width="2" fill="#168aad"/><path d="M828.56-129.56a6 6 0 0 1 6-6h119.26a6 6 0 0 1 6 6v58.77a6 6 0 0 1-6 6H834.56a6 6 0 0 1-6-6z" stroke="#282c33" stroke-width="2" fill="#cfe4ff"/><g><use xlink:href="#a" transform="matrix(1,0,0,1,840.5618292755253,-123.55718568365819) translate(31.132161458333332 32.564670138888886)"/></g><path d="M828.56-42.8a6 6 0 0 1 6-6h119.26a6 6 0 0 1 6 6v58.77a6 6 0 0 1-6 6H834.56a6 6 0 0 1-6-6z" stroke="#282c33" stroke-width="2" fill="#cfe4ff"/><g><use xlink:href="#a" transform="matrix(1,0,0,1,840.5618292755253,-36.79115363673873) translate(31.132161458333332 32.564670138888886)"/></g><path d="M828.56 43.98a6 6 0 0 1 6-6h119.26a6 6 0 0 1 6 6v58.76a6 6 0 0 1-6 6H834.56a6 6 0 0 1-6-6z" stroke="#282c33" stroke-width="2" fill="#cfe4ff"/><g><use xlink:href="#a" transform="matrix(1,0,0,1,840.5618292755253,49.974878410180736) translate(31.132161458333332 32.564670138888886)"/></g><path d="M828.56 130.74a6 6 0 0 1 6-6h119.26a6 6 0 0 1 6 6v58.77a6 6 0 0 1-6 6H834.56a6 6 0 0 1-6-6z" stroke="#282c33" stroke-width="2" fill="#cfe4ff"/><g><use xlink:href="#a" transform="matrix(1,0,0,1,840.5618292755253,136.74091045709974) translate(31.132161458333332 32.564670138888886)"/></g><path d="M835.54-96.25h8.5V155.5h-8.5zM849.84-96.25h8.5V155.5h-8.5zM864.15-96.25h8.5V155.5h-8.5z" stroke="#282c33" stroke-width="2" fill="#168aad"/><path d="M1348.32 525.23a6 6 0 0 1 6-6h293.02a6 6 0 0 1 6 6v65.26a6 6 0 0 1-6 6h-293.02a6 6 0 0 1-6-6z" stroke="#282c33" stroke-width="2" fill="#2196f3"/><g><use xlink:href="#C" transform="matrix(1,0,0,1,1360.3213133344643,531.2296121563752) translate(68.124834375 34.4019572265625)"/><use xlink:href="#D" transform="matrix(1,0,0,1,1360.3213133344643,531.2296121563752) translate(108.324578515625 34.4019572265625)"/></g><path d="M1012.08 525.23a6 6 0 0 1 6-6h293.02a6 6 0 0 1 6 6v65.26a6 6 0 0 1-6 6h-293.02a6 6 0 0 1-6-6z" stroke="#282c33" stroke-width="2" fill="#2196f3"/><g><use xlink:href="#C" transform="matrix(1,0,0,1,1024.0830533161597,531.2296121563752) translate(87.45604150390625 34.4019572265625)"/><use xlink:href="#E" transform="matrix(1,0,0,1,1024.0830533161597,531.2296121563752) translate(127.65578564453125 34.4019572265625)"/></g><path d="M1012.08 422.75a6 6 0 0 1 6-6h293.02a6 6 0 0 1 6 6V488a6 6 0 0 1-6 6h-293.02a6 6 0 0 1-6-6z" stroke="#282c33" stroke-width="2" fill="#fff"/><g><use xlink:href="#A" transform="matrix(1,0,0,1,1024.0830533161597,428.7511989247571) translate(87.45604150390625 34.4019572265625)"/><use xlink:href="#F" transform="matrix(1,0,0,1,1024.0830533161597,428.7511989247571) translate(127.65578564453125 34.4019572265625)"/></g><path d="M669.65 421.37a6 6 0 0 1 6-6h293.02a6 6 0 0 1 6 6v65.26a6 6 0 0 1-6 6H675.65a6 6 0 0 1-6-6z" stroke="#282c33" stroke-width="2" fill="#fff"/><g><use xlink:href="#A" transform="matrix(1,0,0,1,681.6528376332499,427.3724951294746) translate(78.2750310546875 34.4019572265625)"/><use xlink:href="#B" transform="matrix(1,0,0,1,681.6528376332499,427.3724951294746) translate(118.4747751953125 34.4019572265625)"/></g><path d="M1349.38 422.74a6 6 0 0 1 6-6h293.02a6 6 0 0 1 6 6V488a6 6 0 0 1-6 6h-293.02a6 6 0 0 1-6-6z" stroke="#282c33" stroke-width="2" fill="#fff"/><g><use xlink:href="#A" transform="matrix(1,0,0,1,1361.3816681853123,428.74101810481284) translate(87.45604150390625 34.4019572265625)"/><use xlink:href="#G" transform="matrix(1,0,0,1,1361.3816681853123,428.74101810481284) translate(127.65578564453125 34.4019572265625)"/></g><path d="M-5.25 422.75a6 6 0 0 1 6-6h293.02a6 6 0 0 1 6 6V488a6 6 0 0 1-6 6H.75a6 6 0 0 1-6-6z" stroke="#282c33" stroke-width="2" fill="#fff"/><g><use xlink:href="#A" transform="matrix(1,0,0,1,6.7544092462248955,428.7511989247571) translate(87.52288193359374 24.2769572265625)"/><use xlink:href="#H" transform="matrix(1,0,0,1,6.7544092462248955,428.7511989247571) translate(127.72262607421874 24.2769572265625)"/><use xlink:href="#A" transform="matrix(1,0,0,1,6.7544092462248955,428.7511989247571) translate(78.2750310546875 50.908094140625)"/><use xlink:href="#B" transform="matrix(1,0,0,1,6.7544092462248955,428.7511989247571) translate(118.4747751953125 50.908094140625)"/></g><path d="M-342.4 421.37a6 6 0 0 1 6-6h293.02a6 6 0 0 1 6 6v65.26a6 6 0 0 1-6 6H-336.4a6 6 0 0 1-6-6z" stroke="#282c33" stroke-width="2" fill="#fff"/><g><use xlink:href="#A" transform="matrix(1,0,0,1,-330.39623674262566,427.3724951294746) translate(87.52288193359374 34.4019572265625)"/><use xlink:href="#I" transform="matrix(1,0,0,1,-330.39623674262566,427.3724951294746) translate(127.72262607421874 34.4019572265625)"/></g><path d="M740.47 545.4a6 6 0 0 1 6-6H885.7a6 6 0 0 1 6 6v24.9a6 6 0 0 1-6 6H746.47a6 6 0 0 1-6-6z" fill="none"/><g><use xlink:href="#J" transform="matrix(1,0,0,1,745.4673720803712,544.4117386537712) translate(0 21.58376736111111)"/><use xlink:href="#K" transform="matrix(1,0,0,1,745.4673720803712,544.4117386537712) translate(69.93272569444444 21.58376736111111)"/></g><path d="M891.7 557.86a1 1 0 0 1 1-1 1 1 0 0 1 1 1 1 1 0 0 1-1 1 1 1 0 0 1-1-1m4.05 0a1 1 0 0 1 1-1 1 1 0 0 1 1 1 1 1 0 0 1-1 1 1 1 0 0 1-1-1m4.04 0a1 1 0 0 1 1-1 1 1 0 0 1 1 1 1 1 0 0 1-1 1 1 1 0 0 1-1-1m4.04 0a1 1 0 0 1 1-1 1 1 0 0 1 1 1 1 1 0 0 1-1 1 1 1 0 0 1-1-1m4.05 0a1 1 0 0 1 1-1 1 1 0 0 1 1 1 1 1 0 0 1-1 1 1 1 0 0 1-1-1m4.04 0a1 1 0 0 1 1-1 1 1 0 0 1 1 1 1 1 0 0 1-1 1 1 1 0 0 1-1-1m4.04 0a1 1 0 0 1 1-1 1 1 0 0 1 1 1 1 1 0 0 1-1 1 1 1 0 0 1-1-1m4.05 0a1 1 0 0 1 1-1 1 1 0 0 1 1 1 1 1 0 0 1-1 1 1 1 0 0 1-1-1m4.05 0a1 1 0 0 1 1-1 1 1 0 0 1 1 1 1 1 0 0 1-1 1 1 1 0 0 1-1-1m4.05 0a1 1 0 0 1 1-1 1 1 0 0 1 1 1 1 1 0 0 1-1 1 1 1 0 0 1-1-1m4.05 0a1 1 0 0 1 1-1 1 1 0 0 1 1 1 1 1 0 0 1-1 1 1 1 0 0 1-1-1m4.04 0a1 1 0 0 1 1-1 1 1 0 0 1 1 1 1 1 0 0 1-1 1 1 1 0 0 1-1-1m4.05 0a1 1 0 0 1 1-1 1 1 0 0 1 1 1 1 1 0 0 1-1 1 1 1 0 0 1-1-1m4.05 0a1 1 0 0 1 1-1 1 1 0 0 1 1 1 1 1 0 0 1-1 1 1 1 0 0 1-1-1m4.05 0a1 1 0 0 1 1-1 1 1 0 0 1 1 1 1 1 0 0 1-1 1 1 1 0 0 1-1-1m4.04 0a1 1 0 0 1 1-1 1 1 0 0 1 1 1 1 1 0 0 1-1 1 1 1 0 0 1-1-1m4.06 0a1 1 0 0 1 1-1 1 1 0 0 1 1 1 1 1 0 0 1-1 1 1 1 0 0 1-1-1m4.05 0a1 1 0 0 1 1-1 1 1 0 0 1 1 1 1 1 0 0 1-1 1 1 1 0 0 1-1-1m4.06 0a1 1 0 0 1 1-1 1 1 0 0 1 1 1 1 1 0 0 1-1 1 1 1 0 0 1-1-1m4.05 0a1 1 0 0 1 1-1 1 1 0 0 1 1 1 1 1 0 0 1-1 1 1 1 0 0 1-1-1m4.05 0a1 1 0 0 1 1-1 1 1 0 0 1 1 1 1 1 0 0 1-1 1 1 1 0 0 1-1-1m4.05 0a1 1 0 0 1 1-1 1 1 0 0 1 1 1 1 1 0 0 1-1 1 1 1 0 0 1-1-1m4.05 0a1 1 0 0 1 1-1 1 1 0 0 1 1 1 1 1 0 0 1-1 1 1 1 0 0 1-1-1m4.05 0a1 1 0 0 1 1-1 1 1 0 0 1 1 1 1 1 0 0 1-1 1 1 1 0 0 1-1-1m4.04 0a1 1 0 0 1 1-1 1 1 0 0 1 1 1 1 1 0 0 1-1 1 1 1 0 0 1-1-1m4.05 0a1 1 0 0 1 1-1 1 1 0 0 1 1 1 1 1 0 0 1-1 1 1 1 0 0 1-1-1m4.04 0a1 1 0 0 1 1-1 1 1 0 0 1 1 1 1 1 0 0 1-1 1 1 1 0 0 1-1-1m4.05 0a1 1 0 0 1 1-1 1 1 0 0 1 1 1 1 1 0 0 1-1 1 1 1 0 0 1-1-1m4.03 0a1 1 0 0 1 1-1 1 1 0 0 1 1 1 1 1 0 0 1-1 1 1 1 0 0 1-1-1m4.05 0a1 1 0 0 1 1-1 1 1 0 0 1 1 1 1 1 0 0 1-1 1 1 1 0 0 1-1-1" fill="#3a414a"/><path d="M892.73 558.84h-1.03v-1.95h1.02zM1011.08 558.84h-1.02v-1.95h1.02z" stroke="#3a414a" stroke-width=".05" fill="#3a414a"/><path d="M-342.4-233.16a6 6 0 0 1 6-6H968.67a6 6 0 0 1 6 6v38.44a6 6 0 0 1-6 6H-336.4a6 6 0 0 1-6-6z" stroke="#000" stroke-opacity="0" stroke-width="2" fill="#b8f5ed"/><g><use xlink:href="#L" transform="matrix(1,0,0,1,-330.39623674262475,-227.15855265116716) translate(0 23.21527777777778)"/><use xlink:href="#M" transform="matrix(1,0,0,1,-330.39623674262475,-227.15855265116716) translate(55.59895833333333 23.21527777777778)"/><use xlink:href="#N" transform="matrix(1,0,0,1,-330.39623674262475,-227.15855265116716) translate(176.9314236111111 23.21527777777778)"/><use xlink:href="#O" transform="matrix(1,0,0,1,-330.39623674262475,-227.15855265116716) translate(292.28515624999994 23.21527777777778)"/></g><path d="M1007-233.16a6 6 0 0 1 6-6h630.32a6 6 0 0 1 6 6v38.44a6 6 0 0 1-6 6H1013a6 6 0 0 1-6-6z" stroke="#000" stroke-opacity="0" stroke-width="2" fill="#00c2a8"/><g><use xlink:href="#P" transform="matrix(1,0,0,1,1019.0025290918766,-227.15855265116716) translate(0 23.21527777777778)"/><use xlink:href="#M" transform="matrix(1,0,0,1,1019.0025290918766,-227.15855265116716) translate(55.52300347222222 23.21527777777778)"/><use xlink:href="#N" transform="matrix(1,0,0,1,1019.0025290918766,-227.15855265116716) translate(176.85546875 23.21527777777778)"/><use xlink:href="#O" transform="matrix(1,0,0,1,1019.0025290918766,-227.15855265116716) translate(292.20920138888886 23.21527777777778)"/></g><defs><path fill="#011b3c" d="M305-731c0 386 189 602 569 602 101 0 200-12 297-35v-450H844v-152h497v711c-160 50-302 75-514 75-450 0-708-292-702-751 7-475 281-752 758-752 156 0 301 29 436 86l-66 150c-132-56-259-84-381-84-359-3-567 235-567 600" id="Q"/><path fill="#011b3c" d="M1128-1036c0 321-241 464-585 461H371V0H201v-1462h379c365 0 548 142 548 426zm-176 8c0-218-150-286-391-287H371v594h153c270-3 428-62 428-307" id="R"/><path fill="#011b3c" d="M750-129c245 0 385-137 385-381v-952h170v946c3 336-225 536-566 536-344 0-553-202-553-540v-942h170v954c0 248 141 379 394 379" id="S"/><g id="a"><use transform="matrix(0.010850694444444444,0,0,0.010850694444444444,0,0)" xlink:href="#Q"/><use transform="matrix(0.010850694444444444,0,0,0.010850694444444444,16.178385416666668,0)" xlink:href="#R"/><use transform="matrix(0.010850694444444444,0,0,0.010850694444444444,29.557291666666664,0)" xlink:href="#S"/></g><path fill="#fff" d="M584-1331c-162 0-287 69-287 219 0 118 43 164 123 214 44 28 112 56 203 89 153 55 259 113 317 176s86 144 86 244c-1 276-228 409-520 409-173 0-307-22-400-67v-164c109 46 257 81 406 82 199 1 342-68 342-244 0-120-47-164-132-214-47-28-121-58-218-93-136-49-234-106-292-173s-87-154-87-261c-1-239 209-369 463-369 145 0 279 27 401 80l-53 148c-121-51-238-76-352-76" id="T"/><path fill="#fff" d="M995-51C878-2 799 19 639 20c-329 2-524-221-524-559 0-326 172-577 481-577 278 0 451 210 446 493v105H287c4 242 121 392 358 393 118 0 235-25 350-74v148zM864-653c2-195-85-324-270-324-190 0-288 139-303 324h573" id="U"/><path fill="#fff" d="M340-893c80-153 237-262 467-211l-23 154c-45-10-85-15-120-15-184-3-322 182-322 377V0H176v-1096h137l19 203h8" id="V"/><path fill="#fff" d="M516-150c94-315 146-423 332-946h178L610 0H416L0-1096h178c98 281 253 670 330 946h8" id="W"/><g id="b"><use transform="matrix(0.009548632812500001,0,0,0.009548632812500001,0,0)" xlink:href="#T"/><use transform="matrix(0.009548632812500001,0,0,0.009548632812500001,10.732663281250002,0)" xlink:href="#U"/><use transform="matrix(0.009548632812500001,0,0,0.009548632812500001,21.704042382812503,0)" xlink:href="#V"/><use transform="matrix(0.009548632812500001,0,0,0.009548632812500001,29.686699414062502,0)" xlink:href="#W"/><use transform="matrix(0.009548632812500001,0,0,0.009548632812500001,39.4835966796875,0)" xlink:href="#U"/><use transform="matrix(0.009548632812500001,0,0,0.009548632812500001,50.45497578125,0)" xlink:href="#V"/></g><path fill="#fff" d="M1169-178c39-215 75-309 230-918h172L1268 0h-197c-99-332-184-548-272-911h-8C712-564 610-319 514 0H322L23-1096h174c71 275 124 485 161 629s59 241 64 291h8c76-328 186-611 279-920h180l196 629c37 115 63 211 76 289h8" id="X"/><path fill="#fff" d="M342 0H176v-1096h166V0zm-82-1282c-61 0-98-43-98-111 0-69 36-110 98-110 59 0 98 43 98 110s-39 111-98 111" id="Y"/><path fill="#fff" d="M354-322c-2 123 60 204 176 205 51 1 114-10 150-20v127C647 7 557 20 506 20 294 20 188-92 188-315v-652H31v-80l157-69 70-234h96v254h318v129H354v645" id="Z"/><path fill="#fff" d="M690-1114c271 2 402 123 402 399V0H926v-709c-1-177-76-266-252-266-251 0-332 135-332 402V0H176v-1556h166c-4 200 8 426-8 612h10c61-100 187-171 346-170" id="aa"/><g id="c"><use transform="matrix(0.009548632812500001,0,0,0.009548632812500001,0,0)" xlink:href="#X"/><use transform="matrix(0.009548632812500001,0,0,0.009548632812500001,15.2109720703125,0)" xlink:href="#Y"/><use transform="matrix(0.009548632812500001,0,0,0.009548632812500001,20.1571638671875,0)" xlink:href="#Z"/><use transform="matrix(0.009548632812500001,0,0,0.009548632812500001,27.060825390625,0)" xlink:href="#aa"/></g><path fill="#fff" d="M1368-1116c259 2 372 131 371 401V0h-166v-713c0-168-66-262-230-262-221 0-303 131-303 363V0H874v-713c-1-169-66-262-231-262-235 0-301 142-301 400V0H176v-1096h135l27 150h8c56-99 174-170 324-170 171 0 283 62 336 186h8c60-108 189-187 354-186" id="ab"/><path fill="#fff" d="M563 20c-271 0-399-123-399-399v-717h168v711c1 177 76 266 252 266 250 0 331-135 331-401v-576h166V0H944l-24-147h-9C848-44 724 20 563 20" id="ac"/><path fill="#fff" d="M342 0H176v-1556h166V0" id="ad"/><path fill="#fff" d="M1141-549c0 329-147 569-455 569-159 0-273-61-344-161h-12c23 199 7 418 12 633H176v-1588h135l23 150h8c77-108 175-170 344-170 311 0 455 237 455 567zm-172-2c0-242-88-424-307-424-256 0-323 154-320 426 3 280 68 430 324 430 213 0 303-196 303-432" id="ae"/><g id="d"><use transform="matrix(0.009548632812500001,0,0,0.009548632812500001,0,0)" xlink:href="#ab"/><use transform="matrix(0.009548632812500001,0,0,0.009548632812500001,18.190145507812503,0)" xlink:href="#ac"/><use transform="matrix(0.009548632812500001,0,0,0.009548632812500001,30.192776953125,0)" xlink:href="#ad"/><use transform="matrix(0.009548632812500001,0,0,0.009548632812500001,35.138968750000004,0)" xlink:href="#Z"/><use transform="matrix(0.009548632812500001,0,0,0.009548632812500001,42.0426302734375,0)" xlink:href="#Y"/><use transform="matrix(0.009548632812500001,0,0,0.009548632812500001,46.9888220703125,0)" xlink:href="#ae"/><use transform="matrix(0.009548632812500001,0,0,0.009548632812500001,58.972356250000004,0)" xlink:href="#ad"/><use transform="matrix(0.009548632812500001,0,0,0.009548632812500001,63.918548046875,0)" xlink:href="#U"/></g><path fill="#fff" d="M201 0v-1462h170v1308h645V0H201" id="af"/><path fill="#fff" d="M1130-336H913V0H754v-336H43v-145l694-989h176v983h217v151zM754-487c2-284-7-530 10-809h-8c-32 64-61 118-90 159L209-487h545" id="ag"/><g id="e"><use transform="matrix(0.009548632812500001,0,0,0.009548632812500001,0,0)" xlink:href="#af"/><use transform="matrix(0.009548632812500001,0,0,0.009548632812500001,10.1501966796875,0)" xlink:href="#ag"/></g><path fill="#fff" d="M305-731c0 386 189 602 569 602 101 0 200-12 297-35v-450H844v-152h497v711c-160 50-302 75-514 75-450 0-708-292-702-751 7-475 281-752 758-752 156 0 301 29 436 86l-66 150c-132-56-259-84-381-84-359-3-567 235-567 600" id="ah"/><path fill="#fff" d="M1128-1036c0 321-241 464-585 461H371V0H201v-1462h379c365 0 548 142 548 426zm-176 8c0-218-150-286-391-287H371v594h153c270-3 428-62 428-307" id="ai"/><path fill="#fff" d="M750-129c245 0 385-137 385-381v-952h170v946c3 336-225 536-566 536-344 0-553-202-553-540v-942h170v954c0 248 141 379 394 379" id="aj"/><path fill="#fff" d="M502-977c-130 0-238 32-238 139 0 75 39 101 95 134 33 19 97 46 192 81 130 48 217 95 263 143s69 108 69 181C883-73 695 20 449 20 304 20 190-3 109-49v-154c91 47 216 86 344 86 149 0 270-36 270-168 0-43-21-76-55-109-56-55-367-158-434-208-74-55-128-109-128-225 0-327 490-342 754-217l-59 135c-110-45-210-68-299-68" id="ak"/><g id="f"><use transform="matrix(0.009548632812500001,0,0,0.009548632812500001,0,0)" xlink:href="#ah"/><use transform="matrix(0.009548632812500001,0,0,0.009548632812500001,14.237011523437502,0)" xlink:href="#ai"/><use transform="matrix(0.009548632812500001,0,0,0.009548632812500001,26.01047578125,0)" xlink:href="#aj"/><use transform="matrix(0.009548632812500001,0,0,0.009548632812500001,40.2474873046875,0)" xlink:href="#ak"/></g><path fill="#fff" d="M125-733c6-459 248-750 704-750 153 0 287 28 402 84l-72 146c-111-52-221-78-332-78-334-1-520 251-520 600 0 361 171 600 518 600 102 0 218-18 349-55v149C1073 1 948 20 799 20c-445 1-680-294-674-753" id="al"/><path fill="#fff" d="M201 0v-1462h170V0H201" id="am"/><g id="g"><use transform="matrix(0.009548632812500001,0,0,0.009548632812500001,0,0)" xlink:href="#ai"/><use transform="matrix(0.009548632812500001,0,0,0.009548632812500001,11.7734642578125,0)" xlink:href="#al"/><use transform="matrix(0.009548632812500001,0,0,0.009548632812500001,24.1102978515625,0)" xlink:href="#am"/><use transform="matrix(0.009548632812500001,0,0,0.009548632812500001,29.562567187500004,0)" xlink:href="#U"/></g><path fill="#fff" d="M287-543c-1 247 91 418 323 418 91 0 185-20 281-59v147C818 1 725 20 614 20c-329 0-499-221-499-561 0-349 172-575 510-575 96 0 221 26 282 57l-51 141c-61-25-157-50-235-51-223 0-334 142-334 426" id="an"/><path fill="#fff" d="M621-1116c316 0 501 239 501 567 0 339-180 575-508 569S119-212 115-549c-4-339 178-567 506-567zm-5 141c-239 0-329 168-329 426 0 255 93 430 331 430s332-174 332-430-95-426-334-426" id="ao"/><path fill="#fff" d="M694-1116c270 0 399 125 398 401V0H926v-709c-1-177-76-266-252-266-250 0-332 133-332 400V0H176v-1096h135l27 150h8c62-101 190-170 348-170" id="ap"/><g id="h"><use transform="matrix(0.009548632812500001,0,0,0.009548632812500001,0,0)" xlink:href="#an"/><use transform="matrix(0.009548632812500001,0,0,0.009548632812500001,9.309916992187501,0)" xlink:href="#ao"/><use transform="matrix(0.009548632812500001,0,0,0.009548632812500001,21.12157578125,0)" xlink:href="#ap"/><use transform="matrix(0.009548632812500001,0,0,0.009548632812500001,33.124207226562504,0)" xlink:href="#ap"/><use transform="matrix(0.009548632812500001,0,0,0.009548632812500001,45.12683867187501,0)" xlink:href="#U"/><use transform="matrix(0.009548632812500001,0,0,0.009548632812500001,56.09821777343751,0)" xlink:href="#an"/><use transform="matrix(0.009548632812500001,0,0,0.009548632812500001,65.40813476562501,0)" xlink:href="#Z"/><use transform="matrix(0.009548632812500001,0,0,0.009548632812500001,72.31179628906251,0)" xlink:href="#Y"/><use transform="matrix(0.009548632812500001,0,0,0.009548632812500001,77.25798808593751,0)" xlink:href="#ao"/><use transform="matrix(0.009548632812500001,0,0,0.009548632812500001,89.06964687500003,0)" xlink:href="#ap"/></g><use transform="matrix(0.009548632812500001,0,0,0.009548632812500001,0,0)" xlink:href="#ag" id="i"/><g id="j"><use transform="matrix(0.009548632812500001,0,0,0.009548632812500001,0,0)" xlink:href="#ai"/><use transform="matrix(0.009548632812500001,0,0,0.009548632812500001,11.7734642578125,0)" xlink:href="#al"/><use transform="matrix(0.009548632812500001,0,0,0.009548632812500001,24.1102978515625,0)" xlink:href="#am"/><use transform="matrix(0.009548632812500001,0,0,0.009548632812500001,29.562567187500004,0)" xlink:href="#U"/></g><path fill="#fff" d="M559-1483c258 0 441 142 440 389 0 93-26 184-78 275-109 192-433 475-612 657v8h752V0H100v-143c177-182 479-462 617-641 67-87 110-168 112-303 2-158-106-258-268-254-165 4-240 52-354 139l-88-113c135-112 281-168 440-168" id="aq"/><use transform="matrix(0.009548632812500001,0,0,0.009548632812500001,0,0)" xlink:href="#aq" id="k"/><path fill="#fff" d="M440-561L59-1096h189l289 420 288-420h187L631-561 1032 0H844L537-444 227 0H39" id="ar"/><use transform="matrix(0.009548632812500001,0,0,0.009548632812500001,0,0)" xlink:href="#ar" id="l"/><path fill="#fff" d="M84-473v-152h491v152H84" id="as"/><path fill="#fff" d="M588-1114c260 0 384 106 385 366V0H850l-33-156h-8C708-34 639 17 442 20 231 23 94-94 94-303c0-221 177-337 531-348l186-6c11-203-40-320-233-320-91 0-195 28-310 84l-51-127c97-53 229-94 371-94zM268-301c-1 123 81 184 207 184 203 0 334-120 332-323v-99c-257 14-539-7-539 238" id="at"/><path fill="#fff" d="M526-162c88-293 120-356 326-934h178L559 152c-47 123-102 209-163 262-93 80-237 94-380 61V342c184 39 305-9 367-180L444 6 2-1096h178c103 283 263 645 338 934h8" id="au"/><g id="m"><use transform="matrix(0.009548632812500001,0,0,0.009548632812500001,0,0)" xlink:href="#aq"/><use transform="matrix(0.009548632812500001,0,0,0.009548632812500001,11.181449023437501,0)" xlink:href="#as"/><use transform="matrix(0.009548632812500001,0,0,0.009548632812500001,17.473998046875003,0)" xlink:href="#X"/><use transform="matrix(0.009548632812500001,0,0,0.009548632812500001,32.684970117187504,0)" xlink:href="#at"/><use transform="matrix(0.009548632812500001,0,0,0.009548632812500001,43.560862890625,0)" xlink:href="#au"/></g><path fill="#fff" d="M1198-240c-25-390-10-810-14-1222h159V0h-194L350-1227h-8c30 405 10 805 16 1227H201v-1462h192l797 1222h8" id="av"/><path fill="#fff" d="M1036-1462h183L692 0H524L0-1462h180l336 946c39 109 69 214 92 317 24-108 55-216 94-323" id="aw"/><path fill="#fff" d="M340-561c134-179 332-366 485-535h197L578-629 1053 0H852L465-518 340-410V0H176v-1556h164c-4 336 9 669-8 995h8" id="ax"/><g id="n"><use transform="matrix(0.009548632812500001,0,0,0.009548632812500001,0,0)" xlink:href="#av"/><use transform="matrix(0.009548632812500001,0,0,0.009548632812500001,14.743089062500001,0)" xlink:href="#aw"/><use transform="matrix(0.009548632812500001,0,0,0.009548632812500001,26.382872460937502,0)" xlink:href="#af"/><use transform="matrix(0.009548632812500001,0,0,0.009548632812500001,36.533069140625,0)" xlink:href="#Y"/><use transform="matrix(0.009548632812500001,0,0,0.009548632812500001,41.4792609375,0)" xlink:href="#ap"/><use transform="matrix(0.009548632812500001,0,0,0.009548632812500001,53.481892382812504,0)" xlink:href="#ax"/></g><path fill="#fff" d="M1214-416C1213-138 1004 0 711 0H201v-1462h413c194 0 334 29 421 87s130 150 130 275c0 188-114 295-284 324v10c222 38 333 155 333 350zm-225-667c0-194-147-232-368-232H371v479h280c219-3 338-46 338-247zm43 655c0-204-147-264-370-264H371v547h305c220-1 356-73 356-283" id="ay"/><path fill="#fff" d="M115-545c0-330 146-571 454-571 149 0 263 54 342 162h13c-20-185-8-401-11-602h166V0H944l-22-147h-9C836-36 722 20 569 20c-309 0-454-234-454-565zm172 2c0 249 78 424 303 424 257 0 327-150 323-426-4-282-68-432-325-432-220 0-301 191-301 434" id="az"/><path fill="#fff" d="M125-741c0-247 161-377 414-375 57 0 109 7 155 20h379v105l-203 24c37 48 72 129 72 219 0 255-227 390-504 345-71 37-106 84-106 141 0 78 66 88 164 88h194c219-1 369 87 369 293 0 121-49 213-146 277s-239 96-426 96c-250 0-448-83-448-306C39 36 147-58 283-86c-52-23-102-79-99-152 4-104 57-143 133-192-107-42-192-164-192-311zM438-25c-143-1-242 70-239 209s131 181 290 181c139 0 242-21 309-63s101-98 101-169c0-147-88-158-262-158H438zm94-970c-158 0-243 88-243 250 0 153 93 233 246 233 162 0 243-79 243-236 0-165-82-247-246-247" id="aA"/><g id="o"><use transform="matrix(0.009548632812500001,0,0,0.009548632812500001,0,0)" xlink:href="#ay"/><use transform="matrix(0.009548632812500001,0,0,0.009548632812500001,12.6710357421875,0)" xlink:href="#V"/><use transform="matrix(0.009548632812500001,0,0,0.009548632812500001,20.653692773437502,0)" xlink:href="#Y"/><use transform="matrix(0.009548632812500001,0,0,0.009548632812500001,25.599884570312504,0)" xlink:href="#az"/><use transform="matrix(0.009548632812500001,0,0,0.009548632812500001,37.58341875000001,0)" xlink:href="#aA"/><use transform="matrix(0.009548632812500001,0,0,0.009548632812500001,48.29698476562501,0)" xlink:href="#U"/></g><path fill="#fff" d="M1311 0h-170v-688H371V0H201v-1462h170v622h770v-622h170V0" id="aB"/><path fill="#fff" d="M1069-733c0 253-39 441-119 566S748 20 584 20c-157 0-277-64-359-192S102-486 102-733c0-255 40-444 119-567s200-185 363-185c159 0 280 64 362 193s123 315 123 559zm-724-463c-95 160-94 768 0 928 55 94 130 145 239 145 111 0 185-52 240-147 94-164 94-761 0-924-55-95-129-147-240-147-109 0-184 52-239 145" id="aC"/><g id="p"><use transform="matrix(0.009548632812500001,0,0,0.009548632812500001,0,0)" xlink:href="#aB"/><use transform="matrix(0.009548632812500001,0,0,0.009548632812500001,14.4279841796875,0)" xlink:href="#aq"/><use transform="matrix(0.009548632812500001,0,0,0.009548632812500001,25.609433203125004,0)" xlink:href="#aC"/><use transform="matrix(0.009548632812500001,0,0,0.009548632812500001,36.7908822265625,0)" xlink:href="#aC"/></g><g id="q"><use transform="matrix(0.009548632812500001,0,0,0.009548632812500001,0,0)" xlink:href="#av"/><use transform="matrix(0.009548632812500001,0,0,0.009548632812500001,14.743089062500001,0)" xlink:href="#aw"/><use transform="matrix(0.009548632812500001,0,0,0.009548632812500001,26.382872460937502,0)" xlink:href="#af"/></g><path fill="#fff" d="M715 0H553c4-427-9-874 8-1288-79 77-94 81-285 239l-88-114 387-299h140V0" id="aD"/><use transform="matrix(0.009548632812500001,0,0,0.009548632812500001,0,0)" xlink:href="#aD" id="r"/><g id="s"><use transform="matrix(0.009548632812500001,0,0,0.009548632812500001,0,0)" xlink:href="#ag"/><use transform="matrix(0.009548632812500001,0,0,0.009548632812500001,11.181449023437501,0)" xlink:href="#as"/><use transform="matrix(0.009548632812500001,0,0,0.009548632812500001,17.473998046875003,0)" xlink:href="#X"/><use transform="matrix(0.009548632812500001,0,0,0.009548632812500001,32.684970117187504,0)" xlink:href="#at"/><use transform="matrix(0.009548632812500001,0,0,0.009548632812500001,43.560862890625,0)" xlink:href="#au"/></g><path fill="#fff" d="M1174 0H981L588-643 188 0H8l486-764-453-698h188l363 579 366-579h181L686-770" id="aE"/><path fill="#fff" d="M848 0L352-1296h-8c27 395 8 875 14 1296H201v-1462h256L920-256h8l467-1206h254V0h-170c6-439-13-873 14-1294h-8L985 0H848" id="aF"/><g id="t"><use transform="matrix(0.009548632812500001,0,0,0.009548632812500001,0,0)" xlink:href="#T"/><use transform="matrix(0.009548632812500001,0,0,0.009548632812500001,10.732663281250002,0)" xlink:href="#aE"/><use transform="matrix(0.009548632812500001,0,0,0.009548632812500001,22.019147265625,0)" xlink:href="#aF"/></g><g id="u"><use transform="matrix(0.009548632812500001,0,0,0.009548632812500001,0,0)" xlink:href="#av"/><use transform="matrix(0.009548632812500001,0,0,0.009548632812500001,14.743089062500001,0)" xlink:href="#aw"/><use transform="matrix(0.009548632812500001,0,0,0.009548632812500001,26.382872460937502,0)" xlink:href="#af"/><use transform="matrix(0.009548632812500001,0,0,0.009548632812500001,36.533069140625,0)" xlink:href="#Y"/><use transform="matrix(0.009548632812500001,0,0,0.009548632812500001,41.4792609375,0)" xlink:href="#ap"/><use transform="matrix(0.009548632812500001,0,0,0.009548632812500001,53.481892382812504,0)" xlink:href="#ax"/></g><g id="v"><use transform="matrix(0.009548632812500001,0,0,0.009548632812500001,0,0)" xlink:href="#aF"/><use transform="matrix(0.009548632812500001,0,0,0.009548632812500001,17.6554220703125,0)" xlink:href="#U"/><use transform="matrix(0.009548632812500001,0,0,0.009548632812500001,28.626801171875,0)" xlink:href="#ak"/><use transform="matrix(0.009548632812500001,0,0,0.009548632812500001,37.955815429687505,0)" xlink:href="#aa"/></g><path fill="#fff" d="M152-1135c0-225 192-348 432-348 245 0 434 118 434 350 0 72-22 138-67 197S835-823 737-774c119 57 203 116 253 178s75 135 75 217c0 256-203 399-475 399-288 0-486-123-486-393 0-167 102-298 306-391-92-52-158-108-198-168s-60-128-60-203zM586-115c184 0 314-89 315-262 0-65-26-123-78-173s-143-99-272-146c-99 43-171 90-216 142s-67 113-67 185c1 172 134 254 318 254zm268-1013c-1-144-117-220-272-220-153 0-266 77-267 220 0 61 20 114 59 158s112 88 218 132c95-40 162-83 202-129s60-100 60-161" id="aG"/><use transform="matrix(0.009548632812500001,0,0,0.009548632812500001,0,0)" xlink:href="#aG" id="w"/><g id="x"><use transform="matrix(0.009548632812500001,0,0,0.009548632812500001,0,0)" xlink:href="#T"/><use transform="matrix(0.009548632812500001,0,0,0.009548632812500001,10.732663281250002,0)" xlink:href="#aE"/><use transform="matrix(0.009548632812500001,0,0,0.009548632812500001,22.019147265625,0)" xlink:href="#aF"/></g><g id="y"><use transform="matrix(0.009548632812500001,0,0,0.009548632812500001,0,0)" xlink:href="#av"/><use transform="matrix(0.009548632812500001,0,0,0.009548632812500001,14.743089062500001,0)" xlink:href="#aw"/><use transform="matrix(0.009548632812500001,0,0,0.009548632812500001,26.382872460937502,0)" xlink:href="#T"/><use transform="matrix(0.009548632812500001,0,0,0.009548632812500001,37.115535742187504,0)" xlink:href="#X"/><use transform="matrix(0.009548632812500001,0,0,0.009548632812500001,52.326507812500004,0)" xlink:href="#Y"/><use transform="matrix(0.009548632812500001,0,0,0.009548632812500001,57.272699609375,0)" xlink:href="#Z"/><use transform="matrix(0.009548632812500001,0,0,0.009548632812500001,64.1763611328125,0)" xlink:href="#an"/><use transform="matrix(0.009548632812500001,0,0,0.009548632812500001,73.486278125,0)" xlink:href="#aa"/></g><path fill="#011b3c" d="M1198-240c-25-390-10-810-14-1222h159V0h-194L350-1227h-8c30 405 10 805 16 1227H201v-1462h192l797 1222h8" id="aH"/><path fill="#011b3c" d="M1036-1462h183L692 0H524L0-1462h180l336 946c39 109 69 214 92 317 24-108 55-216 94-323" id="aI"/><path fill="#011b3c" d="M584-1331c-162 0-287 69-287 219 0 118 43 164 123 214 44 28 112 56 203 89 153 55 259 113 317 176s86 144 86 244c-1 276-228 409-520 409-173 0-307-22-400-67v-164c109 46 257 81 406 82 199 1 342-68 342-244 0-120-47-164-132-214-47-28-121-58-218-93-136-49-234-106-292-173s-87-154-87-261c-1-239 209-369 463-369 145 0 279 27 401 80l-53 148c-121-51-238-76-352-76" id="aJ"/><path fill="#011b3c" d="M1169-178c39-215 75-309 230-918h172L1268 0h-197c-99-332-184-548-272-911h-8C712-564 610-319 514 0H322L23-1096h174c71 275 124 485 161 629s59 241 64 291h8c76-328 186-611 279-920h180l196 629c37 115 63 211 76 289h8" id="aK"/><path fill="#011b3c" d="M342 0H176v-1096h166V0zm-82-1282c-61 0-98-43-98-111 0-69 36-110 98-110 59 0 98 43 98 110s-39 111-98 111" id="aL"/><path fill="#011b3c" d="M354-322c-2 123 60 204 176 205 51 1 114-10 150-20v127C647 7 557 20 506 20 294 20 188-92 188-315v-652H31v-80l157-69 70-234h96v254h318v129H354v645" id="aM"/><path fill="#011b3c" d="M287-543c-1 247 91 418 323 418 91 0 185-20 281-59v147C818 1 725 20 614 20c-329 0-499-221-499-561 0-349 172-575 510-575 96 0 221 26 282 57l-51 141c-61-25-157-50-235-51-223 0-334 142-334 426" id="aN"/><path fill="#011b3c" d="M690-1114c271 2 402 123 402 399V0H926v-709c-1-177-76-266-252-266-251 0-332 135-332 402V0H176v-1556h166c-4 200 8 426-8 612h10c61-100 187-171 346-170" id="aO"/><g id="z"><use transform="matrix(0.008680555555555556,0,0,0.008680555555555556,0,0)" xlink:href="#aH"/><use transform="matrix(0.008680555555555556,0,0,0.008680555555555556,13.402777777777779,0)" xlink:href="#aI"/><use transform="matrix(0.008680555555555556,0,0,0.008680555555555556,23.984375,0)" xlink:href="#aJ"/><use transform="matrix(0.008680555555555556,0,0,0.008680555555555556,33.74131944444444,0)" xlink:href="#aK"/><use transform="matrix(0.008680555555555556,0,0,0.008680555555555556,47.56944444444445,0)" xlink:href="#aL"/><use transform="matrix(0.008680555555555556,0,0,0.008680555555555556,52.06597222222222,0)" xlink:href="#aM"/><use transform="matrix(0.008680555555555556,0,0,0.008680555555555556,58.342013888888886,0)" xlink:href="#aN"/><use transform="matrix(0.008680555555555556,0,0,0.008680555555555556,66.80555555555556,0)" xlink:href="#aO"/></g><path d="M649-1462c450-4 719 268 719 717 0 484-276 748-762 745H201v-1462h448zM578-147c400 1 610-197 610-592 1-379-192-576-570-576H371v1168h207" id="aP"/><path d="M995-51C878-2 799 19 639 20c-329 2-524-221-524-559 0-326 172-577 481-577 278 0 451 210 446 493v105H287c4 242 121 392 358 393 118 0 235-25 350-74v148zM864-653c2-195-85-324-270-324-190 0-288 139-303 324h573" id="aQ"/><path d="M342 0H176v-1556h166V0" id="aR"/><g id="A"><use transform="matrix(0.009548632812500001,0,0,0.009548632812500001,0,0)" xlink:href="#aP"/><use transform="matrix(0.009548632812500001,0,0,0.009548632812500001,14.256108789062502,0)" xlink:href="#aQ"/><use transform="matrix(0.009548632812500001,0,0,0.009548632812500001,25.227487890625003,0)" xlink:href="#aR"/><use transform="matrix(0.009548632812500001,0,0,0.009548632812500001,30.17367968750001,0)" xlink:href="#aR"/></g><path d="M1174 0H981L588-643 188 0H8l486-764-453-698h188l363 579 366-579h181L686-770" id="aS"/><path d="M1016 0H201v-1462h815v151H371v471h606v150H371v538h645V0" id="aT"/><path d="M285 0l606-1309H94v-153h973v133L469 0H285" id="aU"/><path d="M1130-336H913V0H754v-336H43v-145l694-989h176v983h217v151zM754-487c2-284-7-530 10-809h-8c-32 64-61 118-90 159L209-487h545" id="aV"/><path d="M1069-733c0 253-39 441-119 566S748 20 584 20c-157 0-277-64-359-192S102-486 102-733c0-255 40-444 119-567s200-185 363-185c159 0 280 64 362 193s123 315 123 559zm-724-463c-95 160-94 768 0 928 55 94 130 145 239 145 111 0 185-52 240-147 94-164 94-761 0-924-55-95-129-147-240-147-109 0-184 52-239 145" id="aW"/><path d="M731-1462L186 0H20l545-1462h166" id="aX"/><path d="M512-123c223 0 372-106 371-323 0-204-125-306-375-306-63 0-148 10-254 29l-86-55 55-684h727v153H365l-37 439c77-15 153-23 229-23 289 0 496 151 496 428 0 312-221 485-543 485-165 0-290-26-377-79v-160c85 57 241 96 379 96" id="aY"/><g id="B"><use transform="matrix(0.009548632812500001,0,0,0.009548632812500001,0,0)" xlink:href="#aS"/><use transform="matrix(0.009548632812500001,0,0,0.009548632812500001,11.286483984375002,0)" xlink:href="#aT"/><use transform="matrix(0.009548632812500001,0,0,0.009548632812500001,22.162376757812503,0)" xlink:href="#aU"/><use transform="matrix(0.009548632812500001,0,0,0.009548632812500001,33.343825781250004,0)" xlink:href="#aU"/><use transform="matrix(0.009548632812500001,0,0,0.009548632812500001,44.525274804687506,0)" xlink:href="#aV"/><use transform="matrix(0.009548632812500001,0,0,0.009548632812500001,55.70672382812501,0)" xlink:href="#aW"/><use transform="matrix(0.009548632812500001,0,0,0.009548632812500001,66.8881728515625,0)" xlink:href="#aX"/><use transform="matrix(0.009548632812500001,0,0,0.009548632812500001,74.0687447265625,0)" xlink:href="#aY"/></g><path fill="#fff" d="M649-1462c450-4 719 268 719 717 0 484-276 748-762 745H201v-1462h448zM578-147c400 1 610-197 610-592 1-379-192-576-570-576H371v1168h207" id="aZ"/><g id="C"><use transform="matrix(0.009548632812500001,0,0,0.009548632812500001,0,0)" xlink:href="#aZ"/><use transform="matrix(0.009548632812500001,0,0,0.009548632812500001,14.256108789062502,0)" xlink:href="#U"/><use transform="matrix(0.009548632812500001,0,0,0.009548632812500001,25.227487890625003,0)" xlink:href="#ad"/><use transform="matrix(0.009548632812500001,0,0,0.009548632812500001,30.17367968750001,0)" xlink:href="#ad"/></g><path fill="#fff" d="M1016 0H201v-1462h815v151H371v471h606v150H371v538h645V0" id="ba"/><path fill="#fff" d="M106-991c0-291 181-498 463-492 348 8 492 281 492 645 0 572-221 858-664 858-77 0-139-7-184-20v-143c53 17 114 26 182 26 356 0 482-232 496-604h-12c-67 103-189 169-351 170-262 2-422-172-422-440zm787 35c0-214-113-380-324-385-199-4-300 142-299 348 1 191 96 313 291 309 180-3 332-102 332-272" id="bb"/><path fill="#fff" d="M610 20c-332-4-493-282-493-645 0-287 55-503 167-645s277-213 496-213c75 0 135 6 178 19v143c-51-17-110-25-176-25-157 0-276 48-359 146S295-948 287-739h12c73-115 189-172 348-172 263 0 424 177 424 442 0 293-175 492-461 489zM287-506c0 212 112 385 321 385 200 0 299-137 299-348 0-191-98-312-291-311-128 1-231 59-284 139-30 43-45 88-45 135" id="bc"/><path fill="#fff" d="M731-1462L186 0H20l545-1462h166" id="bd"/><path fill="#fff" d="M512-123c223 0 372-106 371-323 0-204-125-306-375-306-63 0-148 10-254 29l-86-55 55-684h727v153H365l-37 439c77-15 153-23 229-23 289 0 496 151 496 428 0 312-221 485-543 485-165 0-290-26-377-79v-160c85 57 241 96 379 96" id="be"/><g id="D"><use transform="matrix(0.009548632812500001,0,0,0.009548632812500001,0,0)" xlink:href="#aE"/><use transform="matrix(0.009548632812500001,0,0,0.009548632812500001,11.286483984375002,0)" xlink:href="#ba"/><use transform="matrix(0.009548632812500001,0,0,0.009548632812500001,22.162376757812503,0)" xlink:href="#bb"/><use transform="matrix(0.009548632812500001,0,0,0.009548632812500001,33.343825781250004,0)" xlink:href="#bc"/><use transform="matrix(0.009548632812500001,0,0,0.009548632812500001,44.525274804687506,0)" xlink:href="#aG"/><use transform="matrix(0.009548632812500001,0,0,0.009548632812500001,55.70672382812501,0)" xlink:href="#aC"/><use transform="matrix(0.009548632812500001,0,0,0.009548632812500001,66.8881728515625,0)" xlink:href="#af"/><use transform="matrix(0.009548632812500001,0,0,0.009548632812500001,77.03836953125,0)" xlink:href="#bd"/><use transform="matrix(0.009548632812500001,0,0,0.009548632812500001,84.21894140625,0)" xlink:href="#be"/><use transform="matrix(0.009548632812500001,0,0,0.009548632812500001,95.40039042968749,0)" xlink:href="#af"/></g><g id="E"><use transform="matrix(0.009548632812500001,0,0,0.009548632812500001,0,0)" xlink:href="#aE"/><use transform="matrix(0.009548632812500001,0,0,0.009548632812500001,11.286483984375002,0)" xlink:href="#ba"/><use transform="matrix(0.009548632812500001,0,0,0.009548632812500001,22.162376757812503,0)" xlink:href="#bb"/><use transform="matrix(0.009548632812500001,0,0,0.009548632812500001,33.343825781250004,0)" xlink:href="#bc"/><use transform="matrix(0.009548632812500001,0,0,0.009548632812500001,44.525274804687506,0)" xlink:href="#ag"/><use transform="matrix(0.009548632812500001,0,0,0.009548632812500001,55.70672382812501,0)" xlink:href="#aC"/></g><path d="M152-1135c0-225 192-348 432-348 245 0 434 118 434 350 0 72-22 138-67 197S835-823 737-774c119 57 203 116 253 178s75 135 75 217c0 256-203 399-475 399-288 0-486-123-486-393 0-167 102-298 306-391-92-52-158-108-198-168s-60-128-60-203zM586-115c184 0 314-89 315-262 0-65-26-123-78-173s-143-99-272-146c-99 43-171 90-216 142s-67 113-67 185c1 172 134 254 318 254zm268-1013c-1-144-117-220-272-220-153 0-266 77-267 220 0 61 20 114 59 158s112 88 218 132c95-40 162-83 202-129s60-100 60-161" id="bf"/><path d="M610 20c-332-4-493-282-493-645 0-287 55-503 167-645s277-213 496-213c75 0 135 6 178 19v143c-51-17-110-25-176-25-157 0-276 48-359 146S295-948 287-739h12c73-115 189-172 348-172 263 0 424 177 424 442 0 293-175 492-461 489zM287-506c0 212 112 385 321 385 200 0 299-137 299-348 0-191-98-312-291-311-128 1-231 59-284 139-30 43-45 88-45 135" id="bg"/><g id="F"><use transform="matrix(0.009548632812500001,0,0,0.009548632812500001,0,0)" xlink:href="#aS"/><use transform="matrix(0.009548632812500001,0,0,0.009548632812500001,11.286483984375002,0)" xlink:href="#aT"/><use transform="matrix(0.009548632812500001,0,0,0.009548632812500001,22.162376757812503,0)" xlink:href="#bf"/><use transform="matrix(0.009548632812500001,0,0,0.009548632812500001,33.343825781250004,0)" xlink:href="#bg"/><use transform="matrix(0.009548632812500001,0,0,0.009548632812500001,44.525274804687506,0)" xlink:href="#aV"/><use transform="matrix(0.009548632812500001,0,0,0.009548632812500001,55.70672382812501,0)" xlink:href="#aW"/></g><path d="M106-991c0-291 181-498 463-492 348 8 492 281 492 645 0 572-221 858-664 858-77 0-139-7-184-20v-143c53 17 114 26 182 26 356 0 482-232 496-604h-12c-67 103-189 169-351 170-262 2-422-172-422-440zm787 35c0-214-113-380-324-385-199-4-300 142-299 348 1 191 96 313 291 309 180-3 332-102 332-272" id="bh"/><g id="G"><use transform="matrix(0.009548632812500001,0,0,0.009548632812500001,0,0)" xlink:href="#aS"/><use transform="matrix(0.009548632812500001,0,0,0.009548632812500001,11.286483984375002,0)" xlink:href="#aT"/><use transform="matrix(0.009548632812500001,0,0,0.009548632812500001,22.162376757812503,0)" xlink:href="#bh"/><use transform="matrix(0.009548632812500001,0,0,0.009548632812500001,33.343825781250004,0)" xlink:href="#bg"/><use transform="matrix(0.009548632812500001,0,0,0.009548632812500001,44.525274804687506,0)" xlink:href="#bf"/><use transform="matrix(0.009548632812500001,0,0,0.009548632812500001,55.70672382812501,0)" xlink:href="#aW"/></g><path d="M602-1462c329 0 526 109 526 413 0 193-98 324-294 392L1231 0h-201L676-608H371V0H201v-1462h401zm350 422c0-215-129-271-360-273H371v559h233c223 0 348-78 348-286" id="bi"/><path d="M440-561L59-1096h189l289 420 288-420h187L631-561 1032 0H844L537-444 227 0H39" id="bj"/><path d="M588-1114c260 0 384 106 385 366V0H850l-33-156h-8C708-34 639 17 442 20 231 23 94-94 94-303c0-221 177-337 531-348l186-6c11-203-40-320-233-320-91 0-195 28-310 84l-51-127c97-53 229-94 371-94zM268-301c-1 123 81 184 207 184 203 0 334-120 332-323v-99c-257 14-539-7-539 238" id="bk"/><g id="H"><use transform="matrix(0.009548632812500001,0,0,0.009548632812500001,0,0)" xlink:href="#bi"/><use transform="matrix(0.009548632812500001,0,0,0.009548632812500001,12.088569140625001,0)" xlink:href="#aU"/><use transform="matrix(0.009548632812500001,0,0,0.009548632812500001,23.270018164062503,0)" xlink:href="#bg"/><use transform="matrix(0.009548632812500001,0,0,0.009548632812500001,34.4514671875,0)" xlink:href="#aW"/><use transform="matrix(0.009548632812500001,0,0,0.009548632812500001,45.6329162109375,0)" xlink:href="#bj"/><use transform="matrix(0.009548632812500001,0,0,0.009548632812500001,55.878599218750004,0)" xlink:href="#bk"/></g><g id="I"><use transform="matrix(0.009548632812500001,0,0,0.009548632812500001,0,0)" xlink:href="#bi"/><use transform="matrix(0.009548632812500001,0,0,0.009548632812500001,12.088569140625001,0)" xlink:href="#aU"/><use transform="matrix(0.009548632812500001,0,0,0.009548632812500001,23.270018164062503,0)" xlink:href="#bg"/><use transform="matrix(0.009548632812500001,0,0,0.009548632812500001,34.4514671875,0)" xlink:href="#aW"/><use transform="matrix(0.009548632812500001,0,0,0.009548632812500001,45.6329162109375,0)" xlink:href="#bj"/><use transform="matrix(0.009548632812500001,0,0,0.009548632812500001,55.878599218750004,0)" xlink:href="#bk"/></g><path d="M180 0v-1490h190v1322h690V0H180" id="bl"/><path d="M158 0v-1118h180V0H158zm91-1301c-68 0-125-53-125-119s57-119 125-119c69 0 126 53 126 119s-57 119-126 119" id="bm"/><path d="M1096 418H916v-591h-14C865-111 790 24 577 24c-279 0-473-224-473-580 0-354 195-576 474-576 218 0 287 134 324 193h20v-179h174V418zM604-137c203 0 314-172 314-421 0-247-108-413-314-413-212 0-317 181-317 413 0 235 108 421 317 421" id="bn"/><path d="M537 14c-226 0-379-139-379-422v-710h180v695c0 172 97 275 253 275 160 0 281-109 281-300v-670h181V0H879v-209C806-46 684 14 537 14" id="bo"/><path d="M577 24c-279 0-473-224-473-580 0-354 195-576 474-576 218 0 287 134 324 193h14v-551h180V0H922v-173h-20C865-111 790 24 577 24zm27-161c203 0 314-172 314-421 0-247-108-413-314-413-212 0-317 181-317 413 0 235 108 421 317 421" id="bp"/><g id="J"><use transform="matrix(0.010850694444444444,0,0,0.010850694444444444,0,0)" xlink:href="#bl"/><use transform="matrix(0.010850694444444444,0,0,0.010850694444444444,12.565104166666666,0)" xlink:href="#bm"/><use transform="matrix(0.010850694444444444,0,0,0.010850694444444444,17.94704861111111,0)" xlink:href="#bn"/><use transform="matrix(0.010850694444444444,0,0,0.010850694444444444,31.553819444444443,0)" xlink:href="#bo"/><use transform="matrix(0.010850694444444444,0,0,0.010850694444444444,44.694010416666664,0)" xlink:href="#bm"/><use transform="matrix(0.010850694444444444,0,0,0.010850694444444444,50.07595486111111,0)" xlink:href="#bp"/></g><path d="M613 24c-304 0-509-231-509-576 0-350 205-580 509-580 216 0 392 114 453 309l-173 49c-33-115-133-197-280-197-223 0-326 196-326 419 0 220 103 415 326 415 150 0 252-85 285-206l172 49C1010-95 832 24 613 24" id="bq"/><path d="M613 24c-304 0-509-231-509-576 0-350 205-580 509-580 305 0 511 230 511 580 0 345-206 576-511 576zm0-161c226 0 329-195 329-415 0-222-103-419-329-419-223 0-326 196-326 419 0 220 103 415 326 415" id="br"/><path d="M338-1490V0H158v-1490h180" id="bs"/><path d="M628 24c-324 0-524-230-524-574 0-343 198-582 503-582 237 0 487 146 487 559v75H286c9 234 145 362 343 362 132 0 231-58 273-172l174 48C1024-91 857 24 628 24zM287-650h624c-17-190-120-322-304-322-192 0-309 151-320 322" id="bt"/><g id="K"><use transform="matrix(0.010850694444444444,0,0,0.010850694444444444,0,0)" xlink:href="#bq"/><use transform="matrix(0.010850694444444444,0,0,0.010850694444444444,12.6953125,0)" xlink:href="#br"/><use transform="matrix(0.010850694444444444,0,0,0.010850694444444444,26.01996527777778,0)" xlink:href="#br"/><use transform="matrix(0.010850694444444444,0,0,0.010850694444444444,39.34461805555556,0)" xlink:href="#bs"/><use transform="matrix(0.010850694444444444,0,0,0.010850694444444444,44.7265625,0)" xlink:href="#bt"/><use transform="matrix(0.010850694444444444,0,0,0.010850694444444444,57.682291666666664,0)" xlink:href="#bp"/></g><path d="M180 0v-1490h510c348 0 508 209 508 474 0 266-160 477-507 477H370V0H180zm190-706h312c236 0 327-133 327-310 0-176-91-307-329-307H370v617" id="bu"/><path d="M783 20c-382 0-661-292-661-764 0-473 279-766 661-766 302 0 548 182 601 489h-190c-42-204-217-313-411-313-268 0-476 208-476 590 0 381 209 588 476 588 195 0 369-110 411-313h190c-52 303-296 489-601 489" id="bv"/><path d="M370-1490V0H180v-1490h190" id="bw"/><g id="L"><use transform="matrix(0.010850694444444444,0,0,0.010850694444444444,0,0)" xlink:href="#bu"/><use transform="matrix(0.010850694444444444,0,0,0.010850694444444444,14.192708333333332,0)" xlink:href="#bv"/><use transform="matrix(0.010850694444444444,0,0,0.010850694444444444,30.42534722222222,0)" xlink:href="#bw"/><use transform="matrix(0.010850694444444444,0,0,0.010850694444444444,36.393229166666664,0)" xlink:href="#bt"/></g><path d="M338-670V0H158v-1118h173l1 207c72-158 192-221 342-221 226 0 378 139 378 422V0H872v-695c0-172-96-275-252-275-161 0-282 109-282 300" id="bx"/><path d="M598-1118v154H368v674c0 100 37 144 132 144 23 0 62-6 92-12L629-6c-37 13-88 20-134 20-193 0-307-107-307-290v-688H20v-154h168v-266h180v266h230" id="by"/><g id="M"><use transform="matrix(0.010850694444444444,0,0,0.010850694444444444,0,0)" xlink:href="#bv"/><use transform="matrix(0.010850694444444444,0,0,0.010850694444444444,16.23263888888889,0)" xlink:href="#br"/><use transform="matrix(0.010850694444444444,0,0,0.010850694444444444,29.557291666666664,0)" xlink:href="#bx"/><use transform="matrix(0.010850694444444444,0,0,0.010850694444444444,42.68663194444444,0)" xlink:href="#bx"/><use transform="matrix(0.010850694444444444,0,0,0.010850694444444444,55.81597222222222,0)" xlink:href="#bt"/><use transform="matrix(0.010850694444444444,0,0,0.010850694444444444,68.77170138888889,0)" xlink:href="#bq"/><use transform="matrix(0.010850694444444444,0,0,0.010850694444444444,81.46701388888889,0)" xlink:href="#by"/><use transform="matrix(0.010850694444444444,0,0,0.010850694444444444,88.51996527777777,0)" xlink:href="#bt"/><use transform="matrix(0.010850694444444444,0,0,0.010850694444444444,101.47569444444444,0)" xlink:href="#bp"/></g><path d="M180 0v-1490h270l367 940c28 72 75 218 110 339 35-117 81-264 110-339l362-940h271V0h-187c2-448-5-837 7-1287-157 497-311 829-483 1287H842C666-458 514-784 354-1284c12 438 5 843 7 1284H180" id="bz"/><path d="M798-719v166H144v-166h654" id="bA"/><path d="M789 20c-398 0-667-293-667-764 0-473 273-766 655-766 315 0 558 198 612 487h-196c-61-191-204-311-415-311-262 0-471 207-471 590 0 380 208 588 482 588 249 0 420-165 425-427H828v-166h572v163c0 370-256 606-611 606" id="bB"/><path d="M763 24c-353 0-583-224-583-531v-983h190v968c0 214 149 370 393 370 243 0 391-156 391-370v-968h190v983c0 307-230 531-581 531" id="bC"/><g id="N"><use transform="matrix(0.010850694444444444,0,0,0.010850694444444444,0,0)" xlink:href="#bz"/><use transform="matrix(0.010850694444444444,0,0,0.010850694444444444,20.07378472222222,0)" xlink:href="#bo"/><use transform="matrix(0.010850694444444444,0,0,0.010850694444444444,33.21397569444444,0)" xlink:href="#bs"/><use transform="matrix(0.010850694444444444,0,0,0.010850694444444444,38.92144097222222,0)" xlink:href="#by"/><use transform="matrix(0.010850694444444444,0,0,0.010850694444444444,46.19140625,0)" xlink:href="#bm"/><use transform="matrix(0.010850694444444444,0,0,0.010850694444444444,51.57335069444444,0)" xlink:href="#bA"/><use transform="matrix(0.010850694444444444,0,0,0.010850694444444444,61.79470486111111,0)" xlink:href="#bB"/><use transform="matrix(0.010850694444444444,0,0,0.010850694444444444,78.37456597222221,0)" xlink:href="#bu"/><use transform="matrix(0.010850694444444444,0,0,0.010850694444444444,92.56727430555556,0)" xlink:href="#bC"/></g><path d="M678-1118v154H420V0H240v-964H20v-154h220v-149c0-194 155-293 318-293 85 0 141 18 168 30l-50 154c-19-6-47-17-97-17-111 0-159 58-159 166v109h258" id="bD"/><path d="M611 442c-248 0-391-105-460-228l146-94c47 65 117 165 314 165 178 0 307-82 307-266v-224h-17C863-141 792-18 576-18c-268 0-472-195-472-546 0-346 197-568 476-568 216 0 288 133 326 193h17v-179h175V29c0 289-215 413-487 413zm-5-620c203 0 314-146 314-390 0-237-108-403-314-403-213 0-319 180-319 403 0 230 109 390 319 390" id="bE"/><path d="M158 0v-1118h174v172h12c41-113 157-188 290-188 26 0 70 2 91 3v181c-11-2-60-10-108-10-161 0-279 109-279 260V0H158" id="bF"/><path d="M471 26C259 26 90-98 90-318c0-256 228-303 435-329 202-27 287-16 287-108 0-139-79-219-234-219-161 0-248 86-283 164l-173-57c86-203 278-265 451-265 150 0 419 46 419 395V0H815v-152h-12C765-73 660 26 471 26zm31-159c199 0 310-134 310-271v-155c-30 35-226 55-295 64-131 17-246 59-246 186 0 116 97 176 231 176" id="bG"/><path d="M538 24C308 24 148-78 108-271l171-41c32 123 123 178 257 178 156 0 256-77 256-169 0-77-54-128-164-154l-186-44c-203-48-300-148-300-305 0-192 176-326 414-326 230 0 351 112 402 269l-163 42c-31-80-94-158-238-158-133 0-233 69-233 162 0 83 57 129 188 160l169 40c203 48 298 149 298 302 0 196-179 339-441 339" id="bH"/><g id="O"><use transform="matrix(0.010850694444444444,0,0,0.010850694444444444,0,0)" xlink:href="#bv"/><use transform="matrix(0.010850694444444444,0,0,0.010850694444444444,16.23263888888889,0)" xlink:href="#br"/><use transform="matrix(0.010850694444444444,0,0,0.010850694444444444,29.557291666666664,0)" xlink:href="#bx"/><use transform="matrix(0.010850694444444444,0,0,0.010850694444444444,42.68663194444444,0)" xlink:href="#bD"/><use transform="matrix(0.010850694444444444,0,0,0.010850694444444444,50.91145833333333,0)" xlink:href="#bm"/><use transform="matrix(0.010850694444444444,0,0,0.010850694444444444,56.29340277777778,0)" xlink:href="#bE"/><use transform="matrix(0.010850694444444444,0,0,0.010850694444444444,69.921875,0)" xlink:href="#bo"/><use transform="matrix(0.010850694444444444,0,0,0.010850694444444444,83.06206597222223,0)" xlink:href="#bF"/><use transform="matrix(0.010850694444444444,0,0,0.010850694444444444,91.4279513888889,0)" xlink:href="#bG"/><use transform="matrix(0.010850694444444444,0,0,0.010850694444444444,103.90625000000001,0)" xlink:href="#by"/><use transform="matrix(0.010850694444444444,0,0,0.010850694444444444,111.1762152777778,0)" xlink:href="#bm"/><use transform="matrix(0.010850694444444444,0,0,0.010850694444444444,116.55815972222224,0)" xlink:href="#br"/><use transform="matrix(0.010850694444444444,0,0,0.010850694444444444,129.8828125,0)" xlink:href="#bx"/><use transform="matrix(0.010850694444444444,0,0,0.010850694444444444,143.01215277777777,0)" xlink:href="#bH"/></g><path d="M657 26c-323 0-524-166-541-416h195c15 169 171 246 346 246 202 0 356-106 356-265 5-203-294-238-475-293-239-73-380-191-380-389 0-252 224-419 512-419 294 0 499 171 508 396H992c-17-145-151-228-328-228-193 0-321 102-321 242 0 156 175 211 284 241l149 41c160 44 422 134 422 412 0 244-197 432-541 432" id="bI"/><path d="M57 0l534-763-501-727h220c122 187 296 416 391 605 94-191 272-419 396-605h215L811-770 1340 0h-219C986-204 811-426 699-640 588-430 407-202 273 0H57" id="bJ"/><g id="P"><use transform="matrix(0.010850694444444444,0,0,0.010850694444444444,0,0)" xlink:href="#bI"/><use transform="matrix(0.010850694444444444,0,0,0.010850694444444444,14.04079861111111,0)" xlink:href="#bJ"/><use transform="matrix(0.010850694444444444,0,0,0.010850694444444444,29.19921875,0)" xlink:href="#bz"/></g></defs></g></svg>