<svg xmlns="http://www.w3.org/2000/svg" xmlns:xlink="http://www.w3.org/1999/xlink" xmlns:lucid="lucid" width="1145.78" height="685.07"><g transform="translate(7535.223390784136 -5028.787734524473)" lucid:page-tab-id="0_0"><path d="M-10500 0H4000v12500h-14500z" fill="#fff"/><path d="M-7326.7 5102.03a6 6 0 0 1 6-6h153.72a6 6 0 0 1 6 6v58.77a6 6 0 0 1-6 6h-153.7a6 6 0 0 1-6-6z" stroke="#282c33" stroke-width="2" fill="#fff"/><use xlink:href="#a" transform="matrix(1,0,0,1,-7314.691482358852,5108.030874254356) translate(38.892795138888886 32.564670138888886)"/><use xlink:href="#b" transform="matrix(1,0,0,1,-7314.691482358852,5108.030874254356) translate(90.40104166666666 32.564670138888886)"/><path d="M-7534.22 5102.03a6 6 0 0 1 6-6h179a6 6 0 0 1 6 6v58.77a6 6 0 0 1-6 6h-179a6 6 0 0 1-6-6z" stroke="#282c33" stroke-width="2" fill="#fff"/><use xlink:href="#c" transform="matrix(1,0,0,1,-7522.223390717278,5108.0308742543575) translate(49.90711805555556 23.75217013888889)"/><use xlink:href="#d" transform="matrix(1,0,0,1,-7522.223390717278,5108.0308742543575) translate(46.320963541666664 54.01475694444444)"/><path d="M-7144.46 5102.03a6 6 0 0 1 6-6h213.72a6 6 0 0 1 6 6v58.77a6 6 0 0 1-6 6h-213.72a6 6 0 0 1-6-6z" stroke="#282c33" stroke-width="2" fill="#fff"/><use xlink:href="#a" transform="matrix(1,0,0,1,-7132.458272626545,5108.030874254355) translate(9.550347222222214 32.564670138888886)"/><use xlink:href="#e" transform="matrix(1,0,0,1,-7132.458272626545,5108.030874254355) translate(61.05859374999999 32.564670138888886)"/><use xlink:href="#f" transform="matrix(1,0,0,1,-7132.458272626545,5108.030874254355) translate(145.66145833333331 32.564670138888886)"/><use xlink:href="#g" transform="matrix(1,0,0,1,-7132.458272626545,5108.030874254355) translate(179.74348958333331 32.564670138888886)"/><path d="M-7328.2 5131.4h-13.52" stroke="#3a414a" fill="none"/><path d="M-7327.7 5131.9h-.5v-.96h.5zM-7341.7 5131.9h-.52v-.96h.52z" stroke="#3a414a" stroke-width=".05" fill="#3a414a"/><path d="M-7159.48 5131.4h13.52" stroke="#3a414a" fill="none"/><path d="M-7159.47 5131.9h-.5v-.96h.5zM-7145.46 5131.9h-.5v-.96h.5z" stroke="#3a414a" stroke-width=".05" fill="#3a414a"/><path d="M-7326.7 5180.04a6 6 0 0 1 6-6h153.72a6 6 0 0 1 6 6v58.77a6 6 0 0 1-6 6h-153.7a6 6 0 0 1-6-6z" stroke="#282c33" stroke-width="2" fill="#fff"/><use xlink:href="#a" transform="matrix(1,0,0,1,-7314.691482358852,5186.040046031158) translate(38.892795138888886 32.564670138888886)"/><use xlink:href="#h" transform="matrix(1,0,0,1,-7314.691482358852,5186.040046031158) translate(90.40104166666666 32.564670138888886)"/><path d="M-7534.22 5180.04a6 6 0 0 1 6-6h179a6 6 0 0 1 6 6v58.77a6 6 0 0 1-6 6h-179a6 6 0 0 1-6-6z" stroke="#282c33" stroke-width="2" fill="#fff"/><use xlink:href="#c" transform="matrix(1,0,0,1,-7522.223390717278,5186.04004603116) translate(49.90711805555556 23.75217013888889)"/><use xlink:href="#i" transform="matrix(1,0,0,1,-7522.223390717278,5186.04004603116) translate(45.474609375 54.01475694444444)"/><path d="M-7144.46 5180.04a6 6 0 0 1 6-6h213.72a6 6 0 0 1 6 6v58.77a6 6 0 0 1-6 6h-213.72a6 6 0 0 1-6-6z" stroke="#282c33" stroke-width="2" fill="#fff"/><use xlink:href="#a" transform="matrix(1,0,0,1,-7132.458272626545,5186.0400460311575) translate(9.550347222222214 32.564670138888886)"/><use xlink:href="#e" transform="matrix(1,0,0,1,-7132.458272626545,5186.0400460311575) translate(61.05859374999999 32.564670138888886)"/><use xlink:href="#f" transform="matrix(1,0,0,1,-7132.458272626545,5186.0400460311575) translate(145.66145833333331 32.564670138888886)"/><use xlink:href="#j" transform="matrix(1,0,0,1,-7132.458272626545,5186.0400460311575) translate(179.74348958333331 32.564670138888886)"/><path d="M-7328.2 5209.42h-13.52" stroke="#3a414a" fill="none"/><path d="M-7327.7 5209.9h-.5v-.95h.5zM-7341.7 5209.9h-.52v-.95h.52z" stroke="#3a414a" stroke-width=".05" fill="#3a414a"/><path d="M-7159.48 5209.42h13.52" stroke="#3a414a" fill="none"/><path d="M-7159.47 5209.9h-.5v-.95h.5zM-7145.46 5209.9h-.5v-.95h.5z" stroke="#3a414a" stroke-width=".05" fill="#3a414a"/><path d="M-7326.7 5258.05a6 6 0 0 1 6-6h153.72a6 6 0 0 1 6 6v58.76a6 6 0 0 1-6 6h-153.7a6 6 0 0 1-6-6z" stroke="#282c33" stroke-width="2" fill="#fff"/><use xlink:href="#a" transform="matrix(1,0,0,1,-7314.691482358852,5264.049217807961) translate(38.892795138888886 32.564670138888886)"/><use xlink:href="#g" transform="matrix(1,0,0,1,-7314.691482358852,5264.049217807961) translate(90.40104166666666 32.564670138888886)"/><path d="M-7534.22 5258.05a6 6 0 0 1 6-6h179a6 6 0 0 1 6 6v58.76a6 6 0 0 1-6 6h-179a6 6 0 0 1-6-6z" stroke="#282c33" stroke-width="2" fill="#fff"/><use xlink:href="#c" transform="matrix(1,0,0,1,-7522.223390717278,5264.049217807963) translate(49.90711805555556 23.75217013888889)"/><use xlink:href="#k" transform="matrix(1,0,0,1,-7522.223390717278,5264.049217807963) translate(45.66449652777778 54.01475694444444)"/><path d="M-7144.46 5258.05a6 6 0 0 1 6-6h213.72a6 6 0 0 1 6 6v58.76a6 6 0 0 1-6 6h-213.72a6 6 0 0 1-6-6z" stroke="#282c33" stroke-width="2" fill="#fff"/><use xlink:href="#a" transform="matrix(1,0,0,1,-7132.458272626545,5264.04921780796) translate(9.550347222222214 32.564670138888886)"/><use xlink:href="#e" transform="matrix(1,0,0,1,-7132.458272626545,5264.04921780796) translate(61.05859374999999 32.564670138888886)"/><use xlink:href="#f" transform="matrix(1,0,0,1,-7132.458272626545,5264.04921780796) translate(145.66145833333331 32.564670138888886)"/><use xlink:href="#h" transform="matrix(1,0,0,1,-7132.458272626545,5264.04921780796) translate(179.74348958333331 32.564670138888886)"/><path d="M-7328.2 5287.43h-13.52" stroke="#3a414a" fill="none"/><path d="M-7327.7 5287.9h-.5v-.94h.5zM-7341.7 5287.9h-.52v-.94h.52z" stroke="#3a414a" stroke-width=".05" fill="#3a414a"/><path d="M-7159.48 5287.43h13.52" stroke="#3a414a" fill="none"/><path d="M-7159.47 5287.9h-.5v-.94h.5zM-7145.46 5287.9h-.5v-.94h.5z" stroke="#3a414a" stroke-width=".05" fill="#3a414a"/><path d="M-7326.7 5336.06a6 6 0 0 1 6-6h153.72a6 6 0 0 1 6 6v58.76a6 6 0 0 1-6 6h-153.7a6 6 0 0 1-6-6z" stroke="#282c33" stroke-width="2" fill="#fff"/><use xlink:href="#a" transform="matrix(1,0,0,1,-7314.691482358852,5342.058389584764) translate(38.892795138888886 32.564670138888886)"/><use xlink:href="#l" transform="matrix(1,0,0,1,-7314.691482358852,5342.058389584764) translate(90.40104166666666 32.564670138888886)"/><path d="M-7534.22 5336.06a6 6 0 0 1 6-6h179a6 6 0 0 1 6 6v58.76a6 6 0 0 1-6 6h-179a6 6 0 0 1-6-6z" stroke="#282c33" stroke-width="2" fill="#fff"/><use xlink:href="#c" transform="matrix(1,0,0,1,-7522.223390717278,5342.058389584764) translate(49.90711805555556 23.75217013888889)"/><use xlink:href="#m" transform="matrix(1,0,0,1,-7522.223390717278,5342.058389584764) translate(44.574001736111114 54.01475694444444)"/><path d="M-7144.46 5336.06a6 6 0 0 1 6-6h213.72a6 6 0 0 1 6 6v58.76a6 6 0 0 1-6 6h-213.72a6 6 0 0 1-6-6z" stroke="#282c33" stroke-width="2" fill="#fff"/><use xlink:href="#a" transform="matrix(1,0,0,1,-7132.458272626545,5342.058389584763) translate(9.550347222222214 32.564670138888886)"/><use xlink:href="#e" transform="matrix(1,0,0,1,-7132.458272626545,5342.058389584763) translate(61.05859374999999 32.564670138888886)"/><use xlink:href="#f" transform="matrix(1,0,0,1,-7132.458272626545,5342.058389584763) translate(145.66145833333331 32.564670138888886)"/><use xlink:href="#l" transform="matrix(1,0,0,1,-7132.458272626545,5342.058389584763) translate(179.74348958333331 32.564670138888886)"/><path d="M-7328.2 5365.44h-13.52" stroke="#3a414a" fill="none"/><path d="M-7327.7 5365.92h-.5v-.95h.5zM-7341.7 5365.92h-.52v-.95h.52z" stroke="#3a414a" stroke-width=".05" fill="#3a414a"/><path d="M-7159.48 5365.44h13.52" stroke="#3a414a" fill="none"/><path d="M-7159.47 5365.92h-.5v-.95h.5zM-7145.46 5365.92h-.5v-.95h.5z" stroke="#3a414a" stroke-width=".05" fill="#3a414a"/><path d="M-7326.7 5414.07a6 6 0 0 1 6-6h153.72a6 6 0 0 1 6 6v58.76a6 6 0 0 1-6 6h-153.7a6 6 0 0 1-6-6z" stroke="#282c33" stroke-width="2" fill="#fff"/><use xlink:href="#a" transform="matrix(1,0,0,1,-7314.691482358852,5420.067561361567) translate(38.892795138888886 32.564670138888886)"/><use xlink:href="#j" transform="matrix(1,0,0,1,-7314.691482358852,5420.067561361567) translate(90.40104166666666 32.564670138888886)"/><path d="M-7534.22 5414.07a6 6 0 0 1 6-6h179a6 6 0 0 1 6 6v58.76a6 6 0 0 1-6 6h-179a6 6 0 0 1-6-6z" stroke="#282c33" stroke-width="2" fill="#fff"/><use xlink:href="#c" transform="matrix(1,0,0,1,-7522.223390717278,5420.067561361567) translate(49.90711805555556 23.75217013888889)"/><use xlink:href="#n" transform="matrix(1,0,0,1,-7522.223390717278,5420.067561361567) translate(45.474609375 54.01475694444444)"/><path d="M-7144.46 5414.07a6 6 0 0 1 6-6h213.72a6 6 0 0 1 6 6v58.76a6 6 0 0 1-6 6h-213.72a6 6 0 0 1-6-6z" stroke="#282c33" stroke-width="2" fill="#fff"/><use xlink:href="#a" transform="matrix(1,0,0,1,-7132.458272626545,5420.067561361566) translate(9.550347222222214 32.564670138888886)"/><use xlink:href="#e" transform="matrix(1,0,0,1,-7132.458272626545,5420.067561361566) translate(61.05859374999999 32.564670138888886)"/><use xlink:href="#f" transform="matrix(1,0,0,1,-7132.458272626545,5420.067561361566) translate(145.66145833333331 32.564670138888886)"/><use xlink:href="#o" transform="matrix(1,0,0,1,-7132.458272626545,5420.067561361566) translate(179.74348958333331 32.564670138888886)"/><path d="M-7328.2 5443.45h-13.52" stroke="#3a414a" fill="none"/><path d="M-7327.7 5443.93h-.5v-.95h.5zM-7341.7 5443.93h-.52v-.95h.52z" stroke="#3a414a" stroke-width=".05" fill="#3a414a"/><path d="M-7159.48 5443.45h13.52" stroke="#3a414a" fill="none"/><path d="M-7159.47 5443.93h-.5v-.95h.5zM-7145.46 5443.93h-.5v-.95h.5z" stroke="#3a414a" stroke-width=".05" fill="#3a414a"/><path d="M-7326.7 5492.08a6 6 0 0 1 6-6h153.72a6 6 0 0 1 6 6v58.76a6 6 0 0 1-6 6h-153.7a6 6 0 0 1-6-6z" stroke="#282c33" stroke-width="2" fill="#fff"/><use xlink:href="#a" transform="matrix(1,0,0,1,-7314.691482358852,5498.0767331383695) translate(38.892795138888886 32.564670138888886)"/><use xlink:href="#p" transform="matrix(1,0,0,1,-7314.691482358852,5498.0767331383695) translate(90.40104166666666 32.564670138888886)"/><path d="M-7534.22 5492.08a6 6 0 0 1 6-6h179a6 6 0 0 1 6 6v58.76a6 6 0 0 1-6 6h-179a6 6 0 0 1-6-6z" stroke="#282c33" stroke-width="2" fill="#fff"/><use xlink:href="#c" transform="matrix(1,0,0,1,-7522.223390717278,5498.0767331383695) translate(49.90711805555556 23.75217013888889)"/><use xlink:href="#q" transform="matrix(1,0,0,1,-7522.223390717278,5498.0767331383695) translate(44.628255208333336 54.01475694444444)"/><path d="M-7144.46 5492.08a6 6 0 0 1 6-6h213.72a6 6 0 0 1 6 6v58.76a6 6 0 0 1-6 6h-213.72a6 6 0 0 1-6-6z" stroke="#282c33" stroke-width="2" fill="#fff"/><use xlink:href="#a" transform="matrix(1,0,0,1,-7132.458272626545,5498.076733138369) translate(9.550347222222214 32.564670138888886)"/><use xlink:href="#e" transform="matrix(1,0,0,1,-7132.458272626545,5498.076733138369) translate(61.05859374999999 32.564670138888886)"/><use xlink:href="#f" transform="matrix(1,0,0,1,-7132.458272626545,5498.076733138369) translate(145.66145833333331 32.564670138888886)"/><use xlink:href="#p" transform="matrix(1,0,0,1,-7132.458272626545,5498.076733138369) translate(179.74348958333331 32.564670138888886)"/><path d="M-7328.2 5521.46h-13.52" stroke="#3a414a" fill="none"/><path d="M-7327.7 5521.94h-.5v-.95l.5-.02zM-7341.7 5521.94h-.52v-.95l.52-.02z" stroke="#3a414a" stroke-width=".05" fill="#3a414a"/><path d="M-7159.48 5521.46h13.52" stroke="#3a414a" fill="none"/><path d="M-7159.47 5521.94h-.5v-.95l.5-.02zM-7145.46 5521.94h-.5v-.95l.5-.02z" stroke="#3a414a" stroke-width=".05" fill="#3a414a"/><path d="M-7326.7 5570.1a6 6 0 0 1 6-6h153.72a6 6 0 0 1 6 6v58.75a6 6 0 0 1-6 6h-153.7a6 6 0 0 1-6-6z" stroke="#282c33" stroke-width="2" fill="#fff"/><use xlink:href="#a" transform="matrix(1,0,0,1,-7314.691482358852,5576.085904915172) translate(38.892795138888886 32.564670138888886)"/><use xlink:href="#r" transform="matrix(1,0,0,1,-7314.691482358852,5576.085904915172) translate(90.40104166666666 32.564670138888886)"/><path d="M-7534.22 5570.1a6 6 0 0 1 6-6h179a6 6 0 0 1 6 6v58.75a6 6 0 0 1-6 6h-179a6 6 0 0 1-6-6z" stroke="#282c33" stroke-width="2" fill="#fff"/><use xlink:href="#c" transform="matrix(1,0,0,1,-7522.223390717278,5576.085904915172) translate(49.90711805555556 23.75217013888889)"/><use xlink:href="#s" transform="matrix(1,0,0,1,-7522.223390717278,5576.085904915172) translate(44.818142361111114 54.01475694444444)"/><path d="M-7144.46 5570.1a6 6 0 0 1 6-6h213.72a6 6 0 0 1 6 6v58.75a6 6 0 0 1-6 6h-213.72a6 6 0 0 1-6-6z" stroke="#282c33" stroke-width="2" fill="#fff"/><use xlink:href="#a" transform="matrix(1,0,0,1,-7132.458272626545,5576.085904915171) translate(9.550347222222214 32.564670138888886)"/><use xlink:href="#e" transform="matrix(1,0,0,1,-7132.458272626545,5576.085904915171) translate(61.05859374999999 32.564670138888886)"/><use xlink:href="#f" transform="matrix(1,0,0,1,-7132.458272626545,5576.085904915171) translate(145.66145833333331 32.564670138888886)"/><use xlink:href="#r" transform="matrix(1,0,0,1,-7132.458272626545,5576.085904915171) translate(179.74348958333331 32.564670138888886)"/><path d="M-7328.2 5599.47h-13.52" stroke="#3a414a" fill="none"/><path d="M-7327.7 5599.94h-.5v-.95h.5zM-7341.7 5599.94h-.52v-.95h.52z" stroke="#3a414a" stroke-width=".05" fill="#3a414a"/><path d="M-7159.48 5599.47h13.52" stroke="#3a414a" fill="none"/><path d="M-7159.47 5599.94h-.5v-.95h.5zM-7145.46 5599.94h-.5v-.95h.5z" stroke="#3a414a" stroke-width=".05" fill="#3a414a"/><path d="M-7326.7 5648.1a6 6 0 0 1 6-6h153.72a6 6 0 0 1 6 6v58.76a6 6 0 0 1-6 6h-153.7a6 6 0 0 1-6-6z" stroke="#282c33" stroke-width="2" fill="#fff"/><use xlink:href="#a" transform="matrix(1,0,0,1,-7314.691482358852,5654.095076691973) translate(38.892795138888886 32.564670138888886)"/><use xlink:href="#o" transform="matrix(1,0,0,1,-7314.691482358852,5654.095076691973) translate(90.40104166666666 32.564670138888886)"/><path d="M-7534.22 5648.1a6 6 0 0 1 6-6h179a6 6 0 0 1 6 6v58.76a6 6 0 0 1-6 6h-179a6 6 0 0 1-6-6z" stroke="#282c33" stroke-width="2" fill="#fff"/><use xlink:href="#c" transform="matrix(1,0,0,1,-7522.223390717278,5654.095076691975) translate(49.90711805555556 23.75217013888889)"/><use xlink:href="#t" transform="matrix(1,0,0,1,-7522.223390717278,5654.095076691975) translate(43.72764756944445 54.01475694444444)"/><path d="M-7144.46 5648.1a6 6 0 0 1 6-6h213.72a6 6 0 0 1 6 6v58.76a6 6 0 0 1-6 6h-213.72a6 6 0 0 1-6-6z" stroke="#282c33" stroke-width="2" fill="#fff"/><use xlink:href="#a" transform="matrix(1,0,0,1,-7132.458272626545,5654.095076691972) translate(9.550347222222214 32.564670138888886)"/><use xlink:href="#e" transform="matrix(1,0,0,1,-7132.458272626545,5654.095076691972) translate(61.05859374999999 32.564670138888886)"/><use xlink:href="#f" transform="matrix(1,0,0,1,-7132.458272626545,5654.095076691972) translate(145.66145833333331 32.564670138888886)"/><use xlink:href="#u" transform="matrix(1,0,0,1,-7132.458272626545,5654.095076691972) translate(179.74348958333331 32.564670138888886)"/><path d="M-7328.2 5677.48h-13.52" stroke="#3a414a" fill="none"/><path d="M-7327.7 5677.95h-.5v-.95h.5zM-7341.7 5677.95h-.52v-.95h.52z" stroke="#3a414a" stroke-width=".05" fill="#3a414a"/><path d="M-7159.48 5677.48h13.52" stroke="#3a414a" fill="none"/><path d="M-7159.47 5677.95h-.5v-.95h.5zM-7145.46 5677.95h-.5v-.95h.5z" stroke="#3a414a" stroke-width=".05" fill="#3a414a"/><path d="M-6776.07 5102.03a6 6 0 0 1 6-6h88.2a6 6 0 0 1 6 6v290.22a6 6 0 0 1-6 6h-88.2a6 6 0 0 1-6-6z" stroke="#282c33" stroke-width="2" fill="#fff"/><g><use xlink:href="#v" transform="matrix(1,0,0,1,-6764.072463321692,5108.0308742543575) translate(6.392795138888886 119.65842013888889)"/><use xlink:href="#w" transform="matrix(1,0,0,1,-6764.072463321692,5108.0308742543575) translate(24.871527777777775 119.65842013888889)"/><use xlink:href="#x" transform="matrix(1,0,0,1,-6764.072463321692,5108.0308742543575) translate(4.488498263888886 149.92100694444446)"/><use xlink:href="#y" transform="matrix(1,0,0,1,-6764.072463321692,5108.0308742543575) translate(5.758029513888893 180.18359375)"/></g><path d="M-6776.07 5411.5a6 6 0 0 1 6-6h88.2a6 6 0 0 1 6 6v295.36a6 6 0 0 1-6 6h-88.2a6 6 0 0 1-6-6z" stroke="#282c33" stroke-width="2" fill="#fff"/><g><use xlink:href="#v" transform="matrix(1,0,0,1,-6764.072463321692,5417.490906891245) translate(6.392795138888886 121.37717013888889)"/><use xlink:href="#w" transform="matrix(1,0,0,1,-6764.072463321692,5417.490906891245) translate(24.871527777777775 121.37717013888889)"/><use xlink:href="#x" transform="matrix(1,0,0,1,-6764.072463321692,5417.490906891245) translate(4.488498263888886 151.63975694444446)"/><use xlink:href="#y" transform="matrix(1,0,0,1,-6764.072463321692,5417.490906891245) translate(5.758029513888893 181.90234375)"/></g><path d="M-6657.38 5102.03a6 6 0 0 1 6-6h88.22a6 6 0 0 1 6 6V5235a6 6 0 0 1-6 6h-88.22a6 6 0 0 1-6-6z" stroke="#282c33" stroke-width="2" fill="#fff"/><g><use xlink:href="#z" transform="matrix(1,0,0,1,-6645.375393819551,5108.030874254357) translate(6.392795138888886 38.877170138888886)"/><use xlink:href="#w" transform="matrix(1,0,0,1,-6645.375393819551,5108.030874254357) translate(24.871527777777775 38.877170138888886)"/><use xlink:href="#x" transform="matrix(1,0,0,1,-6645.375393819551,5108.030874254357) translate(4.488498263888886 69.13975694444444)"/><use xlink:href="#y" transform="matrix(1,0,0,1,-6645.375393819551,5108.030874254357) translate(5.758029513888893 99.40234375)"/></g><path d="M-6657.38 5255.47a6 6 0 0 1 6-6h88.22a6 6 0 0 1 6 6v136.78a6 6 0 0 1-6 6h-88.22a6 6 0 0 1-6-6z" stroke="#282c33" stroke-width="2" fill="#fff"/><g><use xlink:href="#z" transform="matrix(1,0,0,1,-6645.375393819551,5261.472563337639) translate(6.392795138888886 39.377170138888886)"/><use xlink:href="#w" transform="matrix(1,0,0,1,-6645.375393819551,5261.472563337639) translate(24.871527777777775 39.377170138888886)"/><use xlink:href="#x" transform="matrix(1,0,0,1,-6645.375393819551,5261.472563337639) translate(4.488498263888886 69.63975694444444)"/><use xlink:href="#y" transform="matrix(1,0,0,1,-6645.375393819551,5261.472563337639) translate(5.758029513888893 99.90234375)"/></g><path d="M-6657.38 5411.5a6 6 0 0 1 6-6h88.22a6 6 0 0 1 6 6v136.77a6 6 0 0 1-6 6h-88.22a6 6 0 0 1-6-6z" stroke="#282c33" stroke-width="2" fill="#fff"/><g><use xlink:href="#z" transform="matrix(1,0,0,1,-6645.375393819551,5417.490906891243) translate(6.392795138888886 39.377170138888886)"/><use xlink:href="#w" transform="matrix(1,0,0,1,-6645.375393819551,5417.490906891243) translate(24.871527777777775 39.377170138888886)"/><use xlink:href="#x" transform="matrix(1,0,0,1,-6645.375393819551,5417.490906891243) translate(4.488498263888886 69.63975694444444)"/><use xlink:href="#y" transform="matrix(1,0,0,1,-6645.375393819551,5417.490906891243) translate(5.758029513888893 99.90234375)"/></g><path d="M-6657.38 5567.5a6 6 0 0 1 6-6h88.22a6 6 0 0 1 6 6v139.36a6 6 0 0 1-6 6h-88.22a6 6 0 0 1-6-6z" stroke="#282c33" stroke-width="2" fill="#fff"/><g><use xlink:href="#z" transform="matrix(1,0,0,1,-6645.375393819551,5573.50925044485) translate(6.392795138888886 43.752170138888886)"/><use xlink:href="#w" transform="matrix(1,0,0,1,-6645.375393819551,5573.50925044485) translate(24.871527777777775 43.752170138888886)"/><use xlink:href="#x" transform="matrix(1,0,0,1,-6645.375393819551,5573.50925044485) translate(4.488498263888886 74.01475694444444)"/><use xlink:href="#y" transform="matrix(1,0,0,1,-6645.375393819551,5573.50925044485) translate(5.758029513888893 104.27734375)"/></g><path d="M-6897.5 5102.03a6 6 0 0 1 6-6h88.2a6 6 0 0 1 6 6v604.83a6 6 0 0 1-6 6h-88.2a6 6 0 0 1-6-6z" stroke="#282c33" stroke-width="2" fill="#fff"/><g><use xlink:href="#A" transform="matrix(1,0,0,1,-6885.514481743243,5108.0308742543575) translate(6.392795138888886 273.9240451388889)"/><use xlink:href="#w" transform="matrix(1,0,0,1,-6885.514481743243,5108.0308742543575) translate(24.871527777777775 273.9240451388889)"/><use xlink:href="#x" transform="matrix(1,0,0,1,-6885.514481743243,5108.0308742543575) translate(4.488498263888886 304.18663194444446)"/><use xlink:href="#y" transform="matrix(1,0,0,1,-6885.514481743243,5108.0308742543575) translate(5.758029513888893 334.44921875)"/></g><path d="M-6538.68 5102.03a6 6 0 0 1 6-6h136.24a6 6 0 0 1 6 6v58.77a6 6 0 0 1-6 6h-136.24a6 6 0 0 1-6-6z" stroke="#282c33" stroke-width="2" fill="#fff"/><g><use xlink:href="#B" transform="matrix(1,0,0,1,-6526.678324317412,5108.030874254355) translate(10.889639648437502 29.7144572265625)"/></g><path d="M-6538.68 5180.04a6 6 0 0 1 6-6h136.24a6 6 0 0 1 6 6v58.77a6 6 0 0 1-6 6h-136.24a6 6 0 0 1-6-6z" stroke="#282c33" stroke-width="2" fill="#fff"/><g><use xlink:href="#B" transform="matrix(1,0,0,1,-6526.678324317412,5186.0400460311575) translate(10.889639648437502 29.7144572265625)"/></g><path d="M-6538.68 5258.05a6 6 0 0 1 6-6h136.24a6 6 0 0 1 6 6v58.76a6 6 0 0 1-6 6h-136.24a6 6 0 0 1-6-6z" stroke="#282c33" stroke-width="2" fill="#fff"/><g><use xlink:href="#B" transform="matrix(1,0,0,1,-6526.678324317412,5264.04921780796) translate(10.889639648437502 29.7144572265625)"/></g><path d="M-6538.68 5336.06a6 6 0 0 1 6-6h136.24a6 6 0 0 1 6 6v58.76a6 6 0 0 1-6 6h-136.24a6 6 0 0 1-6-6z" stroke="#282c33" stroke-width="2" fill="#fff"/><g><use xlink:href="#B" transform="matrix(1,0,0,1,-6526.678324317412,5342.058389584763) translate(10.889639648437502 29.7144572265625)"/></g><path d="M-6538.68 5414.07a6 6 0 0 1 6-6h136.24a6 6 0 0 1 6 6v58.76a6 6 0 0 1-6 6h-136.24a6 6 0 0 1-6-6z" stroke="#282c33" stroke-width="2" fill="#fff"/><g><use xlink:href="#B" transform="matrix(1,0,0,1,-6526.678324317412,5420.067561361566) translate(10.889639648437502 29.7144572265625)"/></g><path d="M-6538.68 5492.08a6 6 0 0 1 6-6h136.24a6 6 0 0 1 6 6v58.76a6 6 0 0 1-6 6h-136.24a6 6 0 0 1-6-6z" stroke="#282c33" stroke-width="2" fill="#fff"/><g><use xlink:href="#B" transform="matrix(1,0,0,1,-6526.678324317412,5498.076733138369) translate(10.889639648437502 29.7144572265625)"/></g><path d="M-6538.68 5570.1a6 6 0 0 1 6-6h136.24a6 6 0 0 1 6 6v58.75a6 6 0 0 1-6 6h-136.24a6 6 0 0 1-6-6z" stroke="#282c33" stroke-width="2" fill="#fff"/><g><use xlink:href="#B" transform="matrix(1,0,0,1,-6526.678324317412,5576.085904915171) translate(10.889639648437502 29.7144572265625)"/></g><path d="M-6538.68 5648.1a6 6 0 0 1 6-6h136.24a6 6 0 0 1 6 6v58.76a6 6 0 0 1-6 6h-136.24a6 6 0 0 1-6-6z" stroke="#282c33" stroke-width="2" fill="#fff"/><g><use xlink:href="#B" transform="matrix(1,0,0,1,-6526.678324317412,5654.095076691972) translate(10.889639648437502 29.7144572265625)"/></g><path d="M-7076.3 5034.8a6 6 0 0 1 6-6h228a6 6 0 0 1 6 6v48a6 6 0 0 1-6 6h-228a6 6 0 0 1-6-6z" fill="none"/><g><use xlink:href="#C" transform="matrix(1,0,0,1,-7076.299660574432,5028.787734524473) translate(17.553325195312482 36.4941064453125)"/><use xlink:href="#D" transform="matrix(1,0,0,1,-7076.299660574432,5028.787734524473) translate(56.101098632812494 36.4941064453125)"/><use xlink:href="#E" transform="matrix(1,0,0,1,-7076.299660574432,5028.787734524473) translate(101.5148876953125 36.4941064453125)"/><use xlink:href="#F" transform="matrix(1,0,0,1,-7076.299660574432,5028.787734524473) translate(140.3160498046875 36.4941064453125)"/></g><path d="M-7076.8 5058.8h-456.35" stroke="#3a414a" fill="none"/><path d="M-7076.3 5059.26h-.5v-.95h.5z" stroke="#3a414a" stroke-width=".05" fill="#3a414a"/><path d="M-7533.13 5058.8h-.52M-6835.8 5058.8h443.93" stroke="#3a414a" fill="none"/><path d="M-6835.8 5059.26h-.5v-.95h.5z" stroke="#3a414a" stroke-width=".05" fill="#3a414a"/><path d="M-6391.88 5058.8h.5" stroke="#3a414a" fill="none"/><defs><path d="M305-731c0 386 189 602 569 602 101 0 200-12 297-35v-450H844v-152h497v711c-160 50-302 75-514 75-450 0-708-292-702-751 7-475 281-752 758-752 156 0 301 29 436 86l-66 150c-132-56-259-84-381-84-359-3-567 235-567 600" id="G"/><path d="M1128-1036c0 321-241 464-585 461H371V0H201v-1462h379c365 0 548 142 548 426zm-176 8c0-218-150-286-391-287H371v594h153c270-3 428-62 428-307" id="H"/><path d="M750-129c245 0 385-137 385-381v-952h170v946c3 336-225 536-566 536-344 0-553-202-553-540v-942h170v954c0 248 141 379 394 379" id="I"/><g id="a"><use transform="matrix(0.010850694444444444,0,0,0.010850694444444444,0,0)" xlink:href="#G"/><use transform="matrix(0.010850694444444444,0,0,0.010850694444444444,16.178385416666668,0)" xlink:href="#H"/><use transform="matrix(0.010850694444444444,0,0,0.010850694444444444,29.557291666666664,0)" xlink:href="#I"/></g><path d="M1069-733c0 253-39 441-119 566S748 20 584 20c-157 0-277-64-359-192S102-486 102-733c0-255 40-444 119-567s200-185 363-185c159 0 280 64 362 193s123 315 123 559zm-724-463c-95 160-94 768 0 928 55 94 130 145 239 145 111 0 185-52 240-147 94-164 94-761 0-924-55-95-129-147-240-147-109 0-184 52-239 145" id="J"/><use transform="matrix(0.010850694444444444,0,0,0.010850694444444444,0,0)" xlink:href="#J" id="b"/><path d="M1214-416C1213-138 1004 0 711 0H201v-1462h413c194 0 334 29 421 87s130 150 130 275c0 188-114 295-284 324v10c222 38 333 155 333 350zm-225-667c0-194-147-232-368-232H371v479h280c219-3 338-46 338-247zm43 655c0-204-147-264-370-264H371v547h305c220-1 356-73 356-283" id="K"/><path d="M563 20c-271 0-399-123-399-399v-717h168v711c1 177 76 266 252 266 250 0 331-135 331-401v-576h166V0H944l-24-147h-9C848-44 724 20 563 20" id="L"/><path d="M502-977c-130 0-238 32-238 139 0 75 39 101 95 134 33 19 97 46 192 81 130 48 217 95 263 143s69 108 69 181C883-73 695 20 449 20 304 20 190-3 109-49v-154c91 47 216 86 344 86 149 0 270-36 270-168 0-43-21-76-55-109-56-55-367-158-434-208-74-55-128-109-128-225 0-327 490-342 754-217l-59 135c-110-45-210-68-299-68" id="M"/><path d="M84-473v-152h491v152H84" id="N"/><path d="M201 0v-1462h170V0H201" id="O"/><path d="M649-1462c450-4 719 268 719 717 0 484-276 748-762 745H201v-1462h448zM578-147c400 1 610-197 610-592 1-379-192-576-570-576H371v1168h207" id="P"/><g id="c"><use transform="matrix(0.010850694444444444,0,0,0.010850694444444444,0,0)" xlink:href="#K"/><use transform="matrix(0.010850694444444444,0,0,0.010850694444444444,14.398871527777777,0)" xlink:href="#L"/><use transform="matrix(0.010850694444444444,0,0,0.010850694444444444,28.038194444444443,0)" xlink:href="#M"/><use transform="matrix(0.010850694444444444,0,0,0.010850694444444444,38.639322916666664,0)" xlink:href="#N"/><use transform="matrix(0.010850694444444444,0,0,0.010850694444444444,45.78993055555556,0)" xlink:href="#O"/><use transform="matrix(0.010850694444444444,0,0,0.010850694444444444,51.98567708333333,0)" xlink:href="#P"/></g><path d="M715 0H553c4-427-9-874 8-1288-79 77-94 81-285 239l-88-114 387-299h140V0" id="Q"/><path d="M106-991c0-291 181-498 463-492 348 8 492 281 492 645 0 572-221 858-664 858-77 0-139-7-184-20v-143c53 17 114 26 182 26 356 0 482-232 496-604h-12c-67 103-189 169-351 170-262 2-422-172-422-440zm787 35c0-214-113-380-324-385-199-4-300 142-299 348 1 191 96 313 291 309 180-3 332-102 332-272" id="R"/><path d="M270 29c-76 0-118-48-118-135 0-84 38-135 118-136 81 0 123 51 123 136 0 82-44 135-123 135zm0-883c-76 0-118-48-118-135 0-90 39-135 118-135 82 0 123 45 123 135 0 82-44 135-123 135" id="S"/><path d="M270 29c-76 0-118-48-118-135 0-84 38-135 118-136 81 0 123 51 123 136 0 82-44 135-123 135" id="T"/><g id="d"><use transform="matrix(0.010850694444444444,0,0,0.010850694444444444,0,0)" xlink:href="#Q"/><use transform="matrix(0.010850694444444444,0,0,0.010850694444444444,12.706163194444445,0)" xlink:href="#R"/><use transform="matrix(0.010850694444444444,0,0,0.010850694444444444,25.41232638888889,0)" xlink:href="#S"/><use transform="matrix(0.010850694444444444,0,0,0.010850694444444444,31.32595486111111,0)" xlink:href="#J"/><use transform="matrix(0.010850694444444444,0,0,0.010850694444444444,44.03211805555556,0)" xlink:href="#J"/><use transform="matrix(0.010850694444444444,0,0,0.010850694444444444,56.73828125,0)" xlink:href="#T"/><use transform="matrix(0.010850694444444444,0,0,0.010850694444444444,62.65190972222222,0)" xlink:href="#J"/></g><path d="M848 0L352-1296h-8c27 395 8 875 14 1296H201v-1462h256L920-256h8l467-1206h254V0h-170c6-439-13-873 14-1294h-8L985 0H848" id="U"/><path d="M621-1116c316 0 501 239 501 567 0 339-180 575-508 569S119-212 115-549c-4-339 178-567 506-567zm-5 141c-239 0-329 168-329 426 0 255 93 430 331 430s332-174 332-430-95-426-334-426" id="V"/><path d="M115-545c0-330 146-571 454-571 149 0 263 54 342 162h13c-20-185-8-401-11-602h166V0H944l-22-147h-9C836-36 722 20 569 20c-309 0-454-234-454-565zm172 2c0 249 78 424 303 424 257 0 327-150 323-426-4-282-68-432-325-432-220 0-301 191-301 434" id="W"/><path d="M342 0H176v-1556h166V0" id="X"/><path d="M995-51C878-2 799 19 639 20c-329 2-524-221-524-559 0-326 172-577 481-577 278 0 451 210 446 493v105H287c4 242 121 392 358 393 118 0 235-25 350-74v148zM864-653c2-195-85-324-270-324-190 0-288 139-303 324h573" id="Y"/><g id="e"><use transform="matrix(0.010850694444444444,0,0,0.010850694444444444,0,0)" xlink:href="#U"/><use transform="matrix(0.010850694444444444,0,0,0.010850694444444444,20.06293402777778,0)" xlink:href="#V"/><use transform="matrix(0.010850694444444444,0,0,0.010850694444444444,33.48524305555556,0)" xlink:href="#W"/><use transform="matrix(0.010850694444444444,0,0,0.010850694444444444,47.10286458333333,0)" xlink:href="#L"/><use transform="matrix(0.010850694444444444,0,0,0.010850694444444444,60.7421875,0)" xlink:href="#X"/><use transform="matrix(0.010850694444444444,0,0,0.010850694444444444,66.36284722222223,0)" xlink:href="#Y"/></g><g id="f"><use transform="matrix(0.010850694444444444,0,0,0.010850694444444444,0,0)" xlink:href="#O"/><use transform="matrix(0.010850694444444444,0,0,0.010850694444444444,6.195746527777778,0)" xlink:href="#P"/><use transform="matrix(0.010850694444444444,0,0,0.010850694444444444,22.395833333333332,0)" xlink:href="#S"/></g><path d="M559-1483c258 0 441 142 440 389 0 93-26 184-78 275-109 192-433 475-612 657v8h752V0H100v-143c177-182 479-462 617-641 67-87 110-168 112-303 2-158-106-258-268-254-165 4-240 52-354 139l-88-113c135-112 281-168 440-168" id="Z"/><use transform="matrix(0.010850694444444444,0,0,0.010850694444444444,0,0)" xlink:href="#Z" id="g"/><use transform="matrix(0.010850694444444444,0,0,0.010850694444444444,0,0)" xlink:href="#Q" id="h"/><path d="M557-1483c261-2 449 121 449 365 0 202-125 312-301 348v8c212 25 346 130 346 348 0 303-232 437-557 434C328 19 210-2 94-59v-158c108 55 257 96 406 96 253 0 379-99 379-297 0-177-139-266-418-266H317v-143h146c207 3 370-92 371-285 1-150-117-233-273-229-171 4-249 44-375 122l-84-112c109-87 268-150 455-152" id="aa"/><g id="i"><use transform="matrix(0.010850694444444444,0,0,0.010850694444444444,0,0)" xlink:href="#aa"/><use transform="matrix(0.010850694444444444,0,0,0.010850694444444444,12.706163194444445,0)" xlink:href="#K"/><use transform="matrix(0.010850694444444444,0,0,0.010850694444444444,27.10503472222222,0)" xlink:href="#S"/><use transform="matrix(0.010850694444444444,0,0,0.010850694444444444,33.01866319444444,0)" xlink:href="#J"/><use transform="matrix(0.010850694444444444,0,0,0.010850694444444444,45.724826388888886,0)" xlink:href="#J"/><use transform="matrix(0.010850694444444444,0,0,0.010850694444444444,58.43098958333333,0)" xlink:href="#T"/><use transform="matrix(0.010850694444444444,0,0,0.010850694444444444,64.34461805555556,0)" xlink:href="#J"/></g><path d="M1130-336H913V0H754v-336H43v-145l694-989h176v983h217v151zM754-487c2-284-7-530 10-809h-8c-32 64-61 118-90 159L209-487h545" id="ab"/><use transform="matrix(0.010850694444444444,0,0,0.010850694444444444,0,0)" xlink:href="#ab" id="j"/><path d="M125-733c6-459 248-750 704-750 153 0 287 28 402 84l-72 146c-111-52-221-78-332-78-334-1-520 251-520 600 0 361 171 600 518 600 102 0 218-18 349-55v149C1073 1 948 20 799 20c-445 1-680-294-674-753" id="ac"/><g id="k"><use transform="matrix(0.010850694444444444,0,0,0.010850694444444444,0,0)" xlink:href="#ab"/><use transform="matrix(0.010850694444444444,0,0,0.010850694444444444,12.706163194444445,0)" xlink:href="#ac"/><use transform="matrix(0.010850694444444444,0,0,0.010850694444444444,26.725260416666664,0)" xlink:href="#S"/><use transform="matrix(0.010850694444444444,0,0,0.010850694444444444,32.638888888888886,0)" xlink:href="#J"/><use transform="matrix(0.010850694444444444,0,0,0.010850694444444444,45.34505208333333,0)" xlink:href="#J"/><use transform="matrix(0.010850694444444444,0,0,0.010850694444444444,58.05121527777778,0)" xlink:href="#T"/><use transform="matrix(0.010850694444444444,0,0,0.010850694444444444,63.96484375,0)" xlink:href="#J"/></g><use transform="matrix(0.010850694444444444,0,0,0.010850694444444444,0,0)" xlink:href="#aa" id="l"/><path d="M512-123c223 0 372-106 371-323 0-204-125-306-375-306-63 0-148 10-254 29l-86-55 55-684h727v153H365l-37 439c77-15 153-23 229-23 289 0 496 151 496 428 0 312-221 485-543 485-165 0-290-26-377-79v-160c85 57 241 96 379 96" id="ad"/><g id="m"><use transform="matrix(0.010850694444444444,0,0,0.010850694444444444,0,0)" xlink:href="#ad"/><use transform="matrix(0.010850694444444444,0,0,0.010850694444444444,12.706163194444445,0)" xlink:href="#P"/><use transform="matrix(0.010850694444444444,0,0,0.010850694444444444,28.90625,0)" xlink:href="#S"/><use transform="matrix(0.010850694444444444,0,0,0.010850694444444444,34.81987847222222,0)" xlink:href="#J"/><use transform="matrix(0.010850694444444444,0,0,0.010850694444444444,47.526041666666664,0)" xlink:href="#J"/><use transform="matrix(0.010850694444444444,0,0,0.010850694444444444,60.23220486111111,0)" xlink:href="#T"/><use transform="matrix(0.010850694444444444,0,0,0.010850694444444444,66.14583333333333,0)" xlink:href="#J"/></g><g id="n"><use transform="matrix(0.010850694444444444,0,0,0.010850694444444444,0,0)" xlink:href="#R"/><use transform="matrix(0.010850694444444444,0,0,0.010850694444444444,12.706163194444445,0)" xlink:href="#K"/><use transform="matrix(0.010850694444444444,0,0,0.010850694444444444,27.10503472222222,0)" xlink:href="#S"/><use transform="matrix(0.010850694444444444,0,0,0.010850694444444444,33.01866319444444,0)" xlink:href="#J"/><use transform="matrix(0.010850694444444444,0,0,0.010850694444444444,45.724826388888886,0)" xlink:href="#J"/><use transform="matrix(0.010850694444444444,0,0,0.010850694444444444,58.43098958333333,0)" xlink:href="#T"/><use transform="matrix(0.010850694444444444,0,0,0.010850694444444444,64.34461805555556,0)" xlink:href="#J"/></g><path d="M285 0l606-1309H94v-153h973v133L469 0H285" id="ae"/><use transform="matrix(0.010850694444444444,0,0,0.010850694444444444,0,0)" xlink:href="#ae" id="o"/><use transform="matrix(0.010850694444444444,0,0,0.010850694444444444,0,0)" xlink:href="#ad" id="p"/><g id="q"><use transform="matrix(0.010850694444444444,0,0,0.010850694444444444,0,0)" xlink:href="#K"/><use transform="matrix(0.010850694444444444,0,0,0.010850694444444444,14.398871527777777,0)" xlink:href="#K"/><use transform="matrix(0.010850694444444444,0,0,0.010850694444444444,28.797743055555554,0)" xlink:href="#S"/><use transform="matrix(0.010850694444444444,0,0,0.010850694444444444,34.71137152777778,0)" xlink:href="#J"/><use transform="matrix(0.010850694444444444,0,0,0.010850694444444444,47.41753472222222,0)" xlink:href="#J"/><use transform="matrix(0.010850694444444444,0,0,0.010850694444444444,60.123697916666664,0)" xlink:href="#T"/><use transform="matrix(0.010850694444444444,0,0,0.010850694444444444,66.03732638888889,0)" xlink:href="#J"/></g><path d="M610 20c-332-4-493-282-493-645 0-287 55-503 167-645s277-213 496-213c75 0 135 6 178 19v143c-51-17-110-25-176-25-157 0-276 48-359 146S295-948 287-739h12c73-115 189-172 348-172 263 0 424 177 424 442 0 293-175 492-461 489zM287-506c0 212 112 385 321 385 200 0 299-137 299-348 0-191-98-312-291-311-128 1-231 59-284 139-30 43-45 88-45 135" id="af"/><use transform="matrix(0.010850694444444444,0,0,0.010850694444444444,0,0)" xlink:href="#af" id="r"/><g id="s"><use transform="matrix(0.010850694444444444,0,0,0.010850694444444444,0,0)" xlink:href="#ac"/><use transform="matrix(0.010850694444444444,0,0,0.010850694444444444,14.019097222222221,0)" xlink:href="#K"/><use transform="matrix(0.010850694444444444,0,0,0.010850694444444444,28.41796875,0)" xlink:href="#S"/><use transform="matrix(0.010850694444444444,0,0,0.010850694444444444,34.33159722222222,0)" xlink:href="#J"/><use transform="matrix(0.010850694444444444,0,0,0.010850694444444444,47.037760416666664,0)" xlink:href="#J"/><use transform="matrix(0.010850694444444444,0,0,0.010850694444444444,59.74392361111111,0)" xlink:href="#T"/><use transform="matrix(0.010850694444444444,0,0,0.010850694444444444,65.65755208333333,0)" xlink:href="#J"/></g><g id="t"><use transform="matrix(0.010850694444444444,0,0,0.010850694444444444,0,0)" xlink:href="#P"/><use transform="matrix(0.010850694444444444,0,0,0.010850694444444444,16.200086805555554,0)" xlink:href="#K"/><use transform="matrix(0.010850694444444444,0,0,0.010850694444444444,30.59895833333333,0)" xlink:href="#S"/><use transform="matrix(0.010850694444444444,0,0,0.010850694444444444,36.51258680555555,0)" xlink:href="#J"/><use transform="matrix(0.010850694444444444,0,0,0.010850694444444444,49.218749999999986,0)" xlink:href="#J"/><use transform="matrix(0.010850694444444444,0,0,0.010850694444444444,61.924913194444436,0)" xlink:href="#T"/><use transform="matrix(0.010850694444444444,0,0,0.010850694444444444,67.83854166666666,0)" xlink:href="#J"/></g><path d="M152-1135c0-225 192-348 432-348 245 0 434 118 434 350 0 72-22 138-67 197S835-823 737-774c119 57 203 116 253 178s75 135 75 217c0 256-203 399-475 399-288 0-486-123-486-393 0-167 102-298 306-391-92-52-158-108-198-168s-60-128-60-203zM586-115c184 0 314-89 315-262 0-65-26-123-78-173s-143-99-272-146c-99 43-171 90-216 142s-67 113-67 185c1 172 134 254 318 254zm268-1013c-1-144-117-220-272-220-153 0-266 77-267 220 0 61 20 114 59 158s112 88 218 132c95-40 162-83 202-129s60-100 60-161" id="ag"/><use transform="matrix(0.010850694444444444,0,0,0.010850694444444444,0,0)" xlink:href="#ag" id="u"/><use transform="matrix(0.010850694444444444,0,0,0.010850694444444444,0,0)" xlink:href="#ab" id="v"/><g id="w"><use transform="matrix(0.010850694444444444,0,0,0.010850694444444444,0,0)" xlink:href="#G"/><use transform="matrix(0.010850694444444444,0,0,0.010850694444444444,16.178385416666668,0)" xlink:href="#H"/><use transform="matrix(0.010850694444444444,0,0,0.010850694444444444,29.557291666666664,0)" xlink:href="#I"/></g><path d="M516-150c94-315 146-423 332-946h178L610 0H416L0-1096h178c98 281 253 670 330 946h8" id="ah"/><path d="M342 0H176v-1096h166V0zm-82-1282c-61 0-98-43-98-111 0-69 36-110 98-110 59 0 98 43 98 110s-39 111-98 111" id="ai"/><path d="M287-543c-1 247 91 418 323 418 91 0 185-20 281-59v147C818 1 725 20 614 20c-329 0-499-221-499-561 0-349 172-575 510-575 96 0 221 26 282 57l-51 141c-61-25-157-50-235-51-223 0-334 142-334 426" id="aj"/><g id="x"><use transform="matrix(0.010850694444444444,0,0,0.010850694444444444,0,0)" xlink:href="#P"/><use transform="matrix(0.010850694444444444,0,0,0.010850694444444444,16.200086805555554,0)" xlink:href="#Y"/><use transform="matrix(0.010850694444444444,0,0,0.010850694444444444,28.22265625,0)" xlink:href="#ah"/><use transform="matrix(0.010850694444444444,0,0,0.010850694444444444,39.35546875,0)" xlink:href="#ai"/><use transform="matrix(0.010850694444444444,0,0,0.010850694444444444,44.97612847222222,0)" xlink:href="#aj"/><use transform="matrix(0.010850694444444444,0,0,0.010850694444444444,55.55555555555556,0)" xlink:href="#Y"/></g><path d="M340-893c80-153 237-262 467-211l-23 154c-45-10-85-15-120-15-184-3-322 182-322 377V0H176v-1096h137l19 203h8" id="ak"/><path d="M1141-549c0 329-147 569-455 569-159 0-273-61-344-161h-12c23 199 7 418 12 633H176v-1588h135l23 150h8c77-108 175-170 344-170 311 0 455 237 455 567zm-172-2c0-242-88-424-307-424-256 0-323 154-320 426 3 280 68 430 324 430 213 0 303-196 303-432" id="al"/><g id="y"><use transform="matrix(0.010850694444444444,0,0,0.010850694444444444,0,0)" xlink:href="#G"/><use transform="matrix(0.010850694444444444,0,0,0.010850694444444444,16.178385416666668,0)" xlink:href="#ak"/><use transform="matrix(0.010850694444444444,0,0,0.010850694444444444,24.8046875,0)" xlink:href="#V"/><use transform="matrix(0.010850694444444444,0,0,0.010850694444444444,38.22699652777778,0)" xlink:href="#L"/><use transform="matrix(0.010850694444444444,0,0,0.010850694444444444,51.86631944444444,0)" xlink:href="#al"/></g><use transform="matrix(0.010850694444444444,0,0,0.010850694444444444,0,0)" xlink:href="#Z" id="z"/><use transform="matrix(0.010850694444444444,0,0,0.010850694444444444,0,0)" xlink:href="#ag" id="A"/><path d="M1311 0h-170v-688H371V0H201v-1462h170v622h770v-622h170V0" id="am"/><g id="B"><use transform="matrix(0.009548632812500001,0,0,0.009548632812500001,0,0)" xlink:href="#am"/><use transform="matrix(0.009548632812500001,0,0,0.009548632812500001,14.4279841796875,0)" xlink:href="#Q"/><use transform="matrix(0.009548632812500001,0,0,0.009548632812500001,25.609433203125004,0)" xlink:href="#J"/><use transform="matrix(0.009548632812500001,0,0,0.009548632812500001,36.7908822265625,0)" xlink:href="#J"/><use transform="matrix(0.009548632812500001,0,0,0.009548632812500001,47.97233125,0)" xlink:href="#P"/><use transform="matrix(0.009548632812500001,0,0,0.009548632812500001,62.228440039062505,0)" xlink:href="#N"/><use transform="matrix(0.009548632812500001,0,0,0.009548632812500001,68.5209890625,0)" xlink:href="#ag"/><use transform="matrix(0.009548632812500001,0,0,0.009548632812500001,79.7024380859375,0)" xlink:href="#J"/><use transform="matrix(0.009548632812500001,0,0,0.009548632812500001,90.883887109375,0)" xlink:href="#ac"/></g><path d="M1174 0H981L588-643 188 0H8l486-764-453-698h188l363 579 366-579h181L686-770" id="an"/><g id="C"><use transform="matrix(0.008173828125000001,0,0,0.008173828125000001,0,0)" xlink:href="#am"/><use transform="matrix(0.008173828125000001,0,0,0.008173828125000001,12.350654296875001,0)" xlink:href="#G"/><use transform="matrix(0.008173828125000001,0,0,0.008173828125000001,24.537832031250005,0)" xlink:href="#an"/></g><g id="D"><use transform="matrix(0.008173828125000001,0,0,0.008173828125000001,0,0)" xlink:href="#am"/><use transform="matrix(0.008173828125000001,0,0,0.008173828125000001,12.350654296875001,0)" xlink:href="#Q"/><use transform="matrix(0.008173828125000001,0,0,0.008173828125000001,21.922207031250004,0)" xlink:href="#J"/><use transform="matrix(0.008173828125000001,0,0,0.008173828125000001,31.493759765625004,0)" xlink:href="#J"/></g><g id="E"><use transform="matrix(0.008173828125000001,0,0,0.008173828125000001,0,0)" xlink:href="#G"/><use transform="matrix(0.008173828125000001,0,0,0.008173828125000001,12.187177734375002,0)" xlink:href="#H"/><use transform="matrix(0.008173828125000001,0,0,0.008173828125000001,22.265507812500008,0)" xlink:href="#I"/></g><path d="M588-1114c260 0 384 106 385 366V0H850l-33-156h-8C708-34 639 17 442 20 231 23 94-94 94-303c0-221 177-337 531-348l186-6c11-203-40-320-233-320-91 0-195 28-310 84l-51-127c97-53 229-94 371-94zM268-301c-1 123 81 184 207 184 203 0 334-120 332-323v-99c-257 14-539-7-539 238" id="ao"/><path d="M1368-1116c259 2 372 131 371 401V0h-166v-713c0-168-66-262-230-262-221 0-303 131-303 363V0H874v-713c-1-169-66-262-231-262-235 0-301 142-301 400V0H176v-1096h135l27 150h8c56-99 174-170 324-170 171 0 283 62 336 186h8c60-108 189-187 354-186" id="ap"/><path d="M694-1116c270 0 399 125 398 401V0H926v-709c-1-177-76-266-252-266-250 0-332 133-332 400V0H176v-1096h135l27 150h8c62-101 190-170 348-170" id="aq"/><path d="M354-322c-2 123 60 204 176 205 51 1 114-10 150-20v127C647 7 557 20 506 20 294 20 188-92 188-315v-652H31v-80l157-69 70-234h96v254h318v129H354v645" id="ar"/><g id="F"><use transform="matrix(0.008173828125000001,0,0,0.008173828125000001,0,0)" xlink:href="#H"/><use transform="matrix(0.008173828125000001,0,0,0.008173828125000001,10.078330078125001,0)" xlink:href="#X"/><use transform="matrix(0.008173828125000001,0,0,0.008173828125000001,14.312373046875003,0)" xlink:href="#ao"/><use transform="matrix(0.008173828125000001,0,0,0.008173828125000001,23.622363281250003,0)" xlink:href="#aj"/><use transform="matrix(0.008173828125000001,0,0,0.008173828125000001,31.591845703125003,0)" xlink:href="#Y"/><use transform="matrix(0.008173828125000001,0,0,0.008173828125000001,40.98357421875001,0)" xlink:href="#ap"/><use transform="matrix(0.008173828125000001,0,0,0.008173828125000001,56.55471679687501,0)" xlink:href="#Y"/><use transform="matrix(0.008173828125000001,0,0,0.008173828125000001,65.94644531250002,0)" xlink:href="#aq"/><use transform="matrix(0.008173828125000001,0,0,0.008173828125000001,76.22094726562501,0)" xlink:href="#ar"/></g></defs></g></svg>