<svg xmlns="http://www.w3.org/2000/svg" xmlns:xlink="http://www.w3.org/1999/xlink" xmlns:lucid="lucid" width="1256.81" height="879.93"><g transform="translate(15572.79948262947 -6725.409857253051)" lucid:page-tab-id="0_0"><path d="M-16000 0H4000v12500h-20000z" fill="#fff"/><path d="M-15364.27 6989.59a6 6 0 0 1 6-6.02h153.7a6 6 0 0 1 6 6v58.77a6 6 0 0 1-6 6h-153.7a6 6 0 0 1-6-6z" stroke="#282c33" stroke-width="2" fill="#14b8a6"/><use xlink:href="#a" transform="matrix(1,0,0,1,-15352.267574204187,6995.584837786177) translate(38.892795138888886 32.564670138888886)"/><use xlink:href="#b" transform="matrix(1,0,0,1,-15352.267574204187,6995.584837786177) translate(90.40104166666666 32.564670138888886)"/><path d="M-15571.8 6989.59a6 6 0 0 1 6-6.02h179a6 6 0 0 1 6 6v58.77a6 6 0 0 1-6 6h-179a6 6 0 0 1-6-6z" stroke="#282c33" stroke-width="2" fill="#14b8a6"/><use xlink:href="#c" transform="matrix(1,0,0,1,-15559.799482562612,6995.5848377861785) translate(49.90711805555556 23.75217013888889)"/><use xlink:href="#d" transform="matrix(1,0,0,1,-15559.799482562612,6995.5848377861785) translate(46.320963541666664 54.01475694444444)"/><path d="M-15182.03 6989.59a6 6 0 0 1 6-6.02h213.7a6 6 0 0 1 6 6v58.77a6 6 0 0 1-6 6h-213.7a6 6 0 0 1-6-6z" stroke="#282c33" stroke-width="2" fill="#14b8a6"/><use xlink:href="#a" transform="matrix(1,0,0,1,-15170.034364471881,6995.584837786176) translate(9.550347222222214 32.564670138888886)"/><use xlink:href="#e" transform="matrix(1,0,0,1,-15170.034364471881,6995.584837786176) translate(61.05859374999999 32.564670138888886)"/><use xlink:href="#f" transform="matrix(1,0,0,1,-15170.034364471881,6995.584837786176) translate(145.66145833333331 32.564670138888886)"/><use xlink:href="#g" transform="matrix(1,0,0,1,-15170.034364471881,6995.584837786176) translate(179.74348958333331 32.564670138888886)"/><path d="M-15365.77 7018.97h-13.52" stroke="#3a414a" fill="none"/><path d="M-15365.27 7019.44h-.5v-.95h.5zM-15379.28 7019.44h-.5v-.95h.5z" stroke="#3a414a" stroke-width=".05" fill="#3a414a"/><path d="M-15197.06 7018.97h13.53" stroke="#3a414a" fill="none"/><path d="M-15197.05 7019.44h-.5v-.95h.5zM-15183.03 7019.44h-.52v-.95h.52z" stroke="#3a414a" stroke-width=".05" fill="#3a414a"/><path d="M-15364.27 7067.6a6 6 0 0 1 6-6h153.7a6 6 0 0 1 6 6v58.76a6 6 0 0 1-6 6h-153.7a6 6 0 0 1-6-6z" stroke="#282c33" stroke-width="2" fill="#14b8a6"/><use xlink:href="#a" transform="matrix(1,0,0,1,-15352.267574204187,7073.5940095629785) translate(38.892795138888886 32.564670138888886)"/><use xlink:href="#h" transform="matrix(1,0,0,1,-15352.267574204187,7073.5940095629785) translate(90.40104166666666 32.564670138888886)"/><path d="M-15571.8 7067.6a6 6 0 0 1 6-6h179a6 6 0 0 1 6 6v58.76a6 6 0 0 1-6 6h-179a6 6 0 0 1-6-6z" stroke="#282c33" stroke-width="2" fill="#14b8a6"/><use xlink:href="#c" transform="matrix(1,0,0,1,-15559.799482562612,7073.594009562982) translate(49.90711805555556 23.75217013888889)"/><use xlink:href="#i" transform="matrix(1,0,0,1,-15559.799482562612,7073.594009562982) translate(45.474609375 54.01475694444444)"/><path d="M-15182.03 7067.6a6 6 0 0 1 6-6h213.7a6 6 0 0 1 6 6v58.76a6 6 0 0 1-6 6h-213.7a6 6 0 0 1-6-6z" stroke="#282c33" stroke-width="2" fill="#14b8a6"/><use xlink:href="#a" transform="matrix(1,0,0,1,-15170.034364471881,7073.594009562978) translate(9.550347222222214 32.564670138888886)"/><use xlink:href="#e" transform="matrix(1,0,0,1,-15170.034364471881,7073.594009562978) translate(61.05859374999999 32.564670138888886)"/><use xlink:href="#f" transform="matrix(1,0,0,1,-15170.034364471881,7073.594009562978) translate(145.66145833333331 32.564670138888886)"/><use xlink:href="#j" transform="matrix(1,0,0,1,-15170.034364471881,7073.594009562978) translate(179.74348958333331 32.564670138888886)"/><path d="M-15365.77 7096.98h-13.52" stroke="#3a414a" fill="none"/><path d="M-15365.27 7097.45h-.5v-.95h.5zM-15379.28 7097.45h-.5v-.95h.5z" stroke="#3a414a" stroke-width=".05" fill="#3a414a"/><path d="M-15197.06 7096.98h13.53" stroke="#3a414a" fill="none"/><path d="M-15197.05 7097.45h-.5v-.95h.5zM-15183.03 7097.45h-.52v-.95h.52z" stroke="#3a414a" stroke-width=".05" fill="#3a414a"/><path d="M-15364.27 7145.6a6 6 0 0 1 6-6h153.7a6 6 0 0 1 6 6v58.77a6 6 0 0 1-6 6h-153.7a6 6 0 0 1-6-6z" stroke="#282c33" stroke-width="2" fill="#14b8a6"/><use xlink:href="#a" transform="matrix(1,0,0,1,-15352.267574204187,7151.60318133978) translate(38.892795138888886 32.564670138888886)"/><use xlink:href="#g" transform="matrix(1,0,0,1,-15352.267574204187,7151.60318133978) translate(90.40104166666666 32.564670138888886)"/><path d="M-15571.8 7145.6a6 6 0 0 1 6-6h179a6 6 0 0 1 6 6v58.77a6 6 0 0 1-6 6h-179a6 6 0 0 1-6-6z" stroke="#282c33" stroke-width="2" fill="#14b8a6"/><use xlink:href="#c" transform="matrix(1,0,0,1,-15559.799482562612,7151.603181339784) translate(49.90711805555556 23.75217013888889)"/><use xlink:href="#k" transform="matrix(1,0,0,1,-15559.799482562612,7151.603181339784) translate(45.66449652777778 54.01475694444444)"/><path d="M-15182.03 7145.6a6 6 0 0 1 6-6h213.7a6 6 0 0 1 6 6v58.77a6 6 0 0 1-6 6h-213.7a6 6 0 0 1-6-6z" stroke="#282c33" stroke-width="2" fill="#14b8a6"/><use xlink:href="#a" transform="matrix(1,0,0,1,-15170.034364471881,7151.603181339779) translate(9.550347222222214 32.564670138888886)"/><use xlink:href="#e" transform="matrix(1,0,0,1,-15170.034364471881,7151.603181339779) translate(61.05859374999999 32.564670138888886)"/><use xlink:href="#f" transform="matrix(1,0,0,1,-15170.034364471881,7151.603181339779) translate(145.66145833333331 32.564670138888886)"/><use xlink:href="#h" transform="matrix(1,0,0,1,-15170.034364471881,7151.603181339779) translate(179.74348958333331 32.564670138888886)"/><path d="M-15365.77 7175h-13.52" stroke="#3a414a" fill="none"/><path d="M-15365.27 7175.46h-.5v-.95h.5zM-15379.28 7175.46h-.5v-.95h.5z" stroke="#3a414a" stroke-width=".05" fill="#3a414a"/><path d="M-15197.06 7175h13.53" stroke="#3a414a" fill="none"/><path d="M-15197.05 7175.46h-.5v-.95h.5zM-15183.03 7175.46h-.52v-.95h.52z" stroke="#3a414a" stroke-width=".05" fill="#3a414a"/><path d="M-15364.27 7223.6a6 6 0 0 1 6-6h153.7a6 6 0 0 1 6 6v58.78a6 6 0 0 1-6 6h-153.7a6 6 0 0 1-6-6z" stroke="#282c33" stroke-width="2" fill="#14b8a6"/><use xlink:href="#a" transform="matrix(1,0,0,1,-15352.267574204187,7229.612353116585) translate(38.892795138888886 32.564670138888886)"/><use xlink:href="#l" transform="matrix(1,0,0,1,-15352.267574204187,7229.612353116585) translate(90.40104166666666 32.564670138888886)"/><path d="M-15571.8 7223.6a6 6 0 0 1 6-6h179a6 6 0 0 1 6 6v58.78a6 6 0 0 1-6 6h-179a6 6 0 0 1-6-6z" stroke="#282c33" stroke-width="2" fill="#14b8a6"/><use xlink:href="#c" transform="matrix(1,0,0,1,-15559.799482562612,7229.612353116585) translate(49.90711805555556 23.75217013888889)"/><use xlink:href="#m" transform="matrix(1,0,0,1,-15559.799482562612,7229.612353116585) translate(44.574001736111114 54.01475694444444)"/><path d="M-15182.03 7223.6a6 6 0 0 1 6-6h213.7a6 6 0 0 1 6 6v58.78a6 6 0 0 1-6 6h-213.7a6 6 0 0 1-6-6z" stroke="#282c33" stroke-width="2" fill="#14b8a6"/><use xlink:href="#a" transform="matrix(1,0,0,1,-15170.034364471881,7229.612353116584) translate(9.550347222222214 32.564670138888886)"/><use xlink:href="#e" transform="matrix(1,0,0,1,-15170.034364471881,7229.612353116584) translate(61.05859374999999 32.564670138888886)"/><use xlink:href="#f" transform="matrix(1,0,0,1,-15170.034364471881,7229.612353116584) translate(145.66145833333331 32.564670138888886)"/><use xlink:href="#l" transform="matrix(1,0,0,1,-15170.034364471881,7229.612353116584) translate(179.74348958333331 32.564670138888886)"/><path d="M-15365.77 7253h-13.52" stroke="#3a414a" fill="none"/><path d="M-15365.27 7253.47h-.5v-.95h.5zM-15379.28 7253.47h-.5v-.95h.5z" stroke="#3a414a" stroke-width=".05" fill="#3a414a"/><path d="M-15197.06 7253h13.53" stroke="#3a414a" fill="none"/><path d="M-15197.05 7253.47h-.5v-.95h.5zM-15183.03 7253.47h-.52v-.95h.52z" stroke="#3a414a" stroke-width=".05" fill="#3a414a"/><path d="M-15364.27 7301.62a6 6 0 0 1 6-6h153.7a6 6 0 0 1 6 6v58.77a6 6 0 0 1-6 6h-153.7a6 6 0 0 1-6-6z" stroke="#282c33" stroke-width="2" fill="#99f6e4"/><use xlink:href="#n" transform="matrix(1,0,0,1,-15352.267574204187,7307.621524893386) translate(38.892795138888886 32.564670138888886)"/><use xlink:href="#o" transform="matrix(1,0,0,1,-15352.267574204187,7307.621524893386) translate(90.40104166666666 32.564670138888886)"/><path d="M-15571.8 7301.62a6 6 0 0 1 6-6h179a6 6 0 0 1 6 6v58.77a6 6 0 0 1-6 6h-179a6 6 0 0 1-6-6z" stroke="#282c33" stroke-width="2" fill="#99f6e4"/><use xlink:href="#p" transform="matrix(1,0,0,1,-15559.799482562612,7307.621524893386) translate(49.90711805555556 23.75217013888889)"/><use xlink:href="#q" transform="matrix(1,0,0,1,-15559.799482562612,7307.621524893386) translate(45.474609375 54.01475694444444)"/><path d="M-15182.03 7301.62a6 6 0 0 1 6-6h213.7a6 6 0 0 1 6 6v58.77a6 6 0 0 1-6 6h-213.7a6 6 0 0 1-6-6z" stroke="#282c33" stroke-width="2" fill="#99f6e4"/><use xlink:href="#n" transform="matrix(1,0,0,1,-15170.034364471881,7307.621524893385) translate(9.550347222222214 32.564670138888886)"/><use xlink:href="#r" transform="matrix(1,0,0,1,-15170.034364471881,7307.621524893385) translate(61.05859374999999 32.564670138888886)"/><use xlink:href="#s" transform="matrix(1,0,0,1,-15170.034364471881,7307.621524893385) translate(145.66145833333331 32.564670138888886)"/><use xlink:href="#t" transform="matrix(1,0,0,1,-15170.034364471881,7307.621524893385) translate(179.74348958333331 32.564670138888886)"/><path d="M-15365.77 7331h-13.52" stroke="#3a414a" fill="none"/><path d="M-15365.27 7331.48h-.5v-.95h.5zM-15379.28 7331.48h-.5v-.95h.5z" stroke="#3a414a" stroke-width=".05" fill="#3a414a"/><path d="M-15197.06 7331h13.53" stroke="#3a414a" fill="none"/><path d="M-15197.05 7331.48h-.5v-.95h.5zM-15183.03 7331.48h-.52v-.95h.52z" stroke="#3a414a" stroke-width=".05" fill="#3a414a"/><path d="M-15364.27 7379.63a6 6 0 0 1 6-6h153.7a6 6 0 0 1 6 6v58.77a6 6 0 0 1-6 6h-153.7a6 6 0 0 1-6-6z" stroke="#282c33" stroke-width="2" fill="#99f6e4"/><use xlink:href="#n" transform="matrix(1,0,0,1,-15352.267574204187,7385.63069667019) translate(38.892795138888886 32.564670138888886)"/><use xlink:href="#u" transform="matrix(1,0,0,1,-15352.267574204187,7385.63069667019) translate(90.40104166666666 32.564670138888886)"/><path d="M-15571.8 7379.63a6 6 0 0 1 6-6h179a6 6 0 0 1 6 6v58.77a6 6 0 0 1-6 6h-179a6 6 0 0 1-6-6z" stroke="#282c33" stroke-width="2" fill="#99f6e4"/><use xlink:href="#p" transform="matrix(1,0,0,1,-15559.799482562612,7385.63069667019) translate(49.90711805555556 23.75217013888889)"/><use xlink:href="#v" transform="matrix(1,0,0,1,-15559.799482562612,7385.63069667019) translate(44.628255208333336 54.01475694444444)"/><path d="M-15182.03 7379.63a6 6 0 0 1 6-6h213.7a6 6 0 0 1 6 6v58.77a6 6 0 0 1-6 6h-213.7a6 6 0 0 1-6-6z" stroke="#282c33" stroke-width="2" fill="#99f6e4"/><use xlink:href="#n" transform="matrix(1,0,0,1,-15170.034364471881,7385.6306966701895) translate(9.550347222222214 32.564670138888886)"/><use xlink:href="#r" transform="matrix(1,0,0,1,-15170.034364471881,7385.6306966701895) translate(61.05859374999999 32.564670138888886)"/><use xlink:href="#s" transform="matrix(1,0,0,1,-15170.034364471881,7385.6306966701895) translate(145.66145833333331 32.564670138888886)"/><use xlink:href="#u" transform="matrix(1,0,0,1,-15170.034364471881,7385.6306966701895) translate(179.74348958333331 32.564670138888886)"/><path d="M-15365.77 7409h-13.52" stroke="#3a414a" fill="none"/><path d="M-15365.27 7409.5h-.5v-.96h.5zM-15379.28 7409.5h-.5v-.96h.5z" stroke="#3a414a" stroke-width=".05" fill="#3a414a"/><path d="M-15197.06 7409h13.53" stroke="#3a414a" fill="none"/><path d="M-15197.05 7409.5h-.5v-.96h.5zM-15183.03 7409.5h-.52v-.96h.52z" stroke="#3a414a" stroke-width=".05" fill="#3a414a"/><path d="M-15364.27 7457.64a6 6 0 0 1 6-6h153.7a6 6 0 0 1 6 6v58.77a6 6 0 0 1-6 6h-153.7a6 6 0 0 1-6-6z" stroke="#282c33" stroke-width="2" fill="#0891b2"/><use xlink:href="#a" transform="matrix(1,0,0,1,-15352.267574204187,7463.639868446991) translate(38.892795138888886 32.564670138888886)"/><use xlink:href="#w" transform="matrix(1,0,0,1,-15352.267574204187,7463.639868446991) translate(90.40104166666666 32.564670138888886)"/><path d="M-15571.8 7457.64a6 6 0 0 1 6-6h179a6 6 0 0 1 6 6v58.77a6 6 0 0 1-6 6h-179a6 6 0 0 1-6-6z" stroke="#282c33" stroke-width="2" fill="#0891b2"/><use xlink:href="#c" transform="matrix(1,0,0,1,-15559.799482562612,7463.639868446991) translate(49.90711805555556 23.75217013888889)"/><use xlink:href="#x" transform="matrix(1,0,0,1,-15559.799482562612,7463.639868446991) translate(44.818142361111114 54.01475694444444)"/><path d="M-15182.03 7457.64a6 6 0 0 1 6-6h213.7a6 6 0 0 1 6 6v58.77a6 6 0 0 1-6 6h-213.7a6 6 0 0 1-6-6z" stroke="#282c33" stroke-width="2" fill="#0891b2"/><use xlink:href="#a" transform="matrix(1,0,0,1,-15170.034364471881,7463.6398684469905) translate(9.550347222222214 32.564670138888886)"/><use xlink:href="#e" transform="matrix(1,0,0,1,-15170.034364471881,7463.6398684469905) translate(61.05859374999999 32.564670138888886)"/><use xlink:href="#f" transform="matrix(1,0,0,1,-15170.034364471881,7463.6398684469905) translate(145.66145833333331 32.564670138888886)"/><use xlink:href="#w" transform="matrix(1,0,0,1,-15170.034364471881,7463.6398684469905) translate(179.74348958333331 32.564670138888886)"/><path d="M-15365.77 7487.02h-13.52" stroke="#3a414a" fill="none"/><path d="M-15365.27 7487.5h-.5v-.95h.5zM-15379.28 7487.5h-.5v-.95h.5z" stroke="#3a414a" stroke-width=".05" fill="#3a414a"/><path d="M-15197.06 7487.02h13.53" stroke="#3a414a" fill="none"/><path d="M-15197.05 7487.5h-.5v-.95h.5zM-15183.03 7487.5h-.52v-.95h.52z" stroke="#3a414a" stroke-width=".05" fill="#3a414a"/><path d="M-15364.27 7535.65a6 6 0 0 1 6-6h153.7a6 6 0 0 1 6 6v58.77a6 6 0 0 1-6 6h-153.7a6 6 0 0 1-6-6z" stroke="#282c33" stroke-width="2" fill="#0891b2"/><use xlink:href="#a" transform="matrix(1,0,0,1,-15352.267574204187,7541.649040223796) translate(38.892795138888886 32.564670138888886)"/><use xlink:href="#y" transform="matrix(1,0,0,1,-15352.267574204187,7541.649040223796) translate(90.40104166666666 32.564670138888886)"/><path d="M-15571.8 7535.65a6 6 0 0 1 6-6h179a6 6 0 0 1 6 6v58.77a6 6 0 0 1-6 6h-179a6 6 0 0 1-6-6z" stroke="#282c33" stroke-width="2" fill="#0891b2"/><use xlink:href="#c" transform="matrix(1,0,0,1,-15559.799482562612,7541.649040223796) translate(49.90711805555556 23.75217013888889)"/><use xlink:href="#z" transform="matrix(1,0,0,1,-15559.799482562612,7541.649040223796) translate(43.72764756944445 54.01475694444444)"/><path d="M-15182.03 7535.65a6 6 0 0 1 6-6h213.7a6 6 0 0 1 6 6v58.77a6 6 0 0 1-6 6h-213.7a6 6 0 0 1-6-6z" stroke="#282c33" stroke-width="2" fill="#0891b2"/><use xlink:href="#a" transform="matrix(1,0,0,1,-15170.034364471881,7541.649040223791) translate(9.550347222222214 32.564670138888886)"/><use xlink:href="#e" transform="matrix(1,0,0,1,-15170.034364471881,7541.649040223791) translate(61.05859374999999 32.564670138888886)"/><use xlink:href="#f" transform="matrix(1,0,0,1,-15170.034364471881,7541.649040223791) translate(145.66145833333331 32.564670138888886)"/><use xlink:href="#A" transform="matrix(1,0,0,1,-15170.034364471881,7541.649040223791) translate(179.74348958333331 32.564670138888886)"/><path d="M-15365.77 7565.03h-13.52" stroke="#3a414a" fill="none"/><path d="M-15365.27 7565.5h-.5v-.94h.5zM-15379.28 7565.5h-.5v-.94h.5z" stroke="#3a414a" stroke-width=".05" fill="#3a414a"/><path d="M-15197.06 7565.03h13.52" stroke="#3a414a" fill="none"/><path d="M-15197.05 7565.5h-.5v-.94h.5zM-15183.03 7565.5h-.52v-.94h.52z" stroke="#3a414a" stroke-width=".05" fill="#3a414a"/><path d="M-14703.6 6992.16a6 6 0 0 1 6-6h88.2a6 6 0 0 1 6 6v290.22a6 6 0 0 1-6 6h-88.22a6 6 0 0 1-6-6z" stroke="#000" stroke-width="2" fill="#14b8a6"/><use xlink:href="#B" transform="matrix(1,0,0,1,-14691.615226015007,6998.161492256503) translate(6.392795138888886 119.65842013888889)"/><use xlink:href="#C" transform="matrix(1,0,0,1,-14691.615226015007,6998.161492256503) translate(24.871527777777775 119.65842013888889)"/><use xlink:href="#D" transform="matrix(1,0,0,1,-14691.615226015007,6998.161492256503) translate(4.488498263888886 149.92100694444446)"/><use xlink:href="#E" transform="matrix(1,0,0,1,-14691.615226015007,6998.161492256503) translate(5.758029513888893 180.18359375)"/><path d="M-14703.6 7301.62a6 6 0 0 1 6-6h88.2a6 6 0 0 1 6 6V7597a6 6 0 0 1-6 6h-88.22a6 6 0 0 1-6-6z" stroke="#979ea8" stroke-width="2" fill="#fff"/><use xlink:href="#F" transform="matrix(1,0,0,1,-14691.615226015007,7307.6215248933895) translate(6.392795138888886 121.37717013888889)"/><use xlink:href="#G" transform="matrix(1,0,0,1,-14691.615226015007,7307.6215248933895) translate(24.871527777777775 121.37717013888889)"/><use xlink:href="#H" transform="matrix(1,0,0,1,-14691.615226015007,7307.6215248933895) translate(4.488498263888886 151.63975694444446)"/><use xlink:href="#I" transform="matrix(1,0,0,1,-14691.615226015007,7307.6215248933895) translate(5.758029513888893 181.90234375)"/><path d="M-14584.92 6992.16a6 6 0 0 1 6-6h88.22a6 6 0 0 1 6 6v132.98a6 6 0 0 1-6 6h-88.22a6 6 0 0 1-6-6z" stroke="#6f7681" stroke-width="2" fill="#fff"/><use xlink:href="#J" transform="matrix(1,0,0,1,-14572.918156512866,6998.161492256502) translate(6.392795138888886 38.877170138888886)"/><use xlink:href="#K" transform="matrix(1,0,0,1,-14572.918156512866,6998.161492256502) translate(24.871527777777775 38.877170138888886)"/><use xlink:href="#L" transform="matrix(1,0,0,1,-14572.918156512866,6998.161492256502) translate(4.488498263888886 69.13975694444444)"/><use xlink:href="#M" transform="matrix(1,0,0,1,-14572.918156512866,6998.161492256502) translate(5.758029513888893 99.40234375)"/><path d="M-14584.92 7145.6a6 6 0 0 1 6-6h88.22a6 6 0 0 1 6 6v136.78a6 6 0 0 1-6 6h-88.22a6 6 0 0 1-6-6z" stroke="#6f7681" stroke-width="2" fill="#fff"/><use xlink:href="#J" transform="matrix(1,0,0,1,-14572.918156512866,7151.603181339784) translate(6.392795138888886 39.377170138888886)"/><use xlink:href="#K" transform="matrix(1,0,0,1,-14572.918156512866,7151.603181339784) translate(24.871527777777775 39.377170138888886)"/><use xlink:href="#L" transform="matrix(1,0,0,1,-14572.918156512866,7151.603181339784) translate(4.488498263888886 69.63975694444444)"/><use xlink:href="#M" transform="matrix(1,0,0,1,-14572.918156512866,7151.603181339784) translate(5.758029513888893 99.90234375)"/><path d="M-14584.92 7301.62a6 6 0 0 1 6-6h88.22a6 6 0 0 1 6 6v136.78a6 6 0 0 1-6 6h-88.22a6 6 0 0 1-6-6z" stroke="#282c33" stroke-width="2" fill="#99f6e4"/><use xlink:href="#N" transform="matrix(1,0,0,1,-14572.918156512866,7307.621524893388) translate(6.392795138888886 39.377170138888886)"/><use xlink:href="#O" transform="matrix(1,0,0,1,-14572.918156512866,7307.621524893388) translate(24.871527777777775 39.377170138888886)"/><use xlink:href="#P" transform="matrix(1,0,0,1,-14572.918156512866,7307.621524893388) translate(4.488498263888886 69.63975694444444)"/><use xlink:href="#Q" transform="matrix(1,0,0,1,-14572.918156512866,7307.621524893388) translate(5.758029513888893 99.90234375)"/><path d="M-14584.92 7459a6 6 0 0 1 6-6h88.22a6 6 0 0 1 6 6v139.34a6 6 0 0 1-6 6h-88.22a6 6 0 0 1-6-6z" stroke="#282c33" stroke-width="2" fill="#0891b2"/><g><use xlink:href="#R" transform="matrix(1,0,0,1,-14572.918156512866,7464.991068153999) translate(6.392795138888886 43.752170138888886)"/><use xlink:href="#C" transform="matrix(1,0,0,1,-14572.918156512866,7464.991068153999) translate(24.871527777777775 43.752170138888886)"/><use xlink:href="#D" transform="matrix(1,0,0,1,-14572.918156512866,7464.991068153999) translate(4.488498263888886 74.01475694444444)"/><use xlink:href="#E" transform="matrix(1,0,0,1,-14572.918156512866,7464.991068153999) translate(5.758029513888893 104.27734375)"/></g><path d="M-14825.06 6992.16a6 6 0 0 1 6-6h88.22a6 6 0 0 1 6 6V7597a6 6 0 0 1-6 6h-88.22a6 6 0 0 1-6-6z" stroke="#979ea8" stroke-width="2" fill="#fff"/><g><use xlink:href="#S" transform="matrix(1,0,0,1,-14813.057244436555,6998.161492256502) translate(6.392795138888886 273.9240451388889)"/><use xlink:href="#O" transform="matrix(1,0,0,1,-14813.057244436555,6998.161492256502) translate(24.871527777777775 273.9240451388889)"/><use xlink:href="#P" transform="matrix(1,0,0,1,-14813.057244436555,6998.161492256502) translate(4.488498263888886 304.18663194444446)"/><use xlink:href="#Q" transform="matrix(1,0,0,1,-14813.057244436555,6998.161492256502) translate(5.758029513888893 334.44921875)"/></g><path d="M-14465.22 6991.26a6 6 0 0 1 6-6h136.23a6 6 0 0 1 6 6v58.76a6 6 0 0 1-6 6h-136.22a6 6 0 0 1-6-6z" stroke="#282c33" stroke-width="2" fill="#14b8a6"/><g><use xlink:href="#T" transform="matrix(1,0,0,1,-14453.221137008879,6997.258495847969) translate(10.889639648437502 29.7144572265625)"/></g><path d="M-14466.22 7070.17a6 6 0 0 1 6-6h136.23a6 6 0 0 1 6 6v58.77a6 6 0 0 1-6 6h-136.22a6 6 0 0 1-6-6z" stroke="#282c33" stroke-width="2" fill="#14b8a6"/><g><use xlink:href="#T" transform="matrix(1,0,0,1,-14454.221087010726,7076.170664033298) translate(10.889639648437502 29.7144572265625)"/></g><path d="M-14466.22 7148.18a6 6 0 0 1 6-6h136.23a6 6 0 0 1 6 6v58.77a6 6 0 0 1-6 6h-136.22a6 6 0 0 1-6-6z" stroke="#282c33" stroke-width="2" fill="#14b8a6"/><g><use xlink:href="#T" transform="matrix(1,0,0,1,-14454.221087010726,7154.179835810104) translate(10.889639648437502 29.7144572265625)"/></g><path d="M-14466.22 7226.2a6 6 0 0 1 6-6h136.23a6 6 0 0 1 6 6v58.76a6 6 0 0 1-6 6h-136.22a6 6 0 0 1-6-6z" stroke="#282c33" stroke-width="2" fill="#14b8a6"/><g><use xlink:href="#T" transform="matrix(1,0,0,1,-14454.221087010726,7232.189007586905) translate(10.889639648437502 29.7144572265625)"/></g><path d="M-14466.22 7304.2a6 6 0 0 1 6-6h136.23a6 6 0 0 1 6 6v58.76a6 6 0 0 1-6 6h-136.22a6 6 0 0 1-6-6z" stroke="#282c33" stroke-width="2" fill="#99f6e4"/><g><use xlink:href="#U" transform="matrix(1,0,0,1,-14454.221087010726,7310.19817936371) translate(10.889639648437502 29.7144572265625)"/></g><path d="M-14466.22 7382.2a6 6 0 0 1 6-6h136.23a6 6 0 0 1 6 6v58.77a6 6 0 0 1-6 6h-136.22a6 6 0 0 1-6-6z" stroke="#282c33" stroke-width="2" fill="#99f6e4"/><g><use xlink:href="#U" transform="matrix(1,0,0,1,-14454.221087010726,7388.207351140511) translate(10.889639648437502 29.7144572265625)"/></g><path d="M-14466.22 7460.22a6 6 0 0 1 6-6h136.23a6 6 0 0 1 6 6v58.76a6 6 0 0 1-6 6h-136.22a6 6 0 0 1-6-6z" stroke="#282c33" stroke-width="2" fill="#0891b2"/><g><use xlink:href="#T" transform="matrix(1,0,0,1,-14454.221087010726,7466.2165229173115) translate(10.889639648437502 29.7144572265625)"/></g><path d="M-14466.22 7538.23a6 6 0 0 1 6-6h136.23a6 6 0 0 1 6 6V7597a6 6 0 0 1-6 6h-136.22a6 6 0 0 1-6-6z" stroke="#282c33" stroke-width="2" fill="#0891b2"/><g><use xlink:href="#T" transform="matrix(1,0,0,1,-14454.221087010726,7544.2256946941125) translate(10.889639648437502 29.7144572265625)"/></g><path d="M-14940.8 7301.75a6 6 0 0 1 6-6h88.22a6 6 0 0 1 6 6v136.65a6 6 0 0 1-6 6h-88.22a6 6 0 0 1-6-6z" stroke="#282c33" stroke-width="2" fill="#99f6e4"/><g><use xlink:href="#V" transform="matrix(1,0,0,1,-14928.79491822334,7307.7472698370675) translate(-5.901041666666671 55.98958333333333)"/><use xlink:href="#s" transform="matrix(1,0,0,1,-14928.79491822334,7307.7472698370675) translate(15.105902777777779 86.25217013888889)"/><use xlink:href="#u" transform="matrix(1,0,0,1,-14928.79491822334,7307.7472698370675) translate(49.18793402777778 86.25217013888889)"/></g><path d="M-14839.08 7370.07h1.5m2.03 0h3.04m2 0h3.04m2.02 0h3.03m2 0h3.04m2.02 0h3.03m2 0h3.05m2.02 0h3.03m2.02 0h3.03m2.02 0h3.03m2.02 0h3.03m2.02 0h3.04m2.03 0h3.03m2.02 0h3.03m2.03 0h3.03m2.02 0h3.03m2.03 0h3.04m2.02 0h3.02m2.02 0h3.03m2.02 0h3.02m2.02 0h3.03m2.03 0h3.03m2.02 0h3.03m2.02 0h3.03m2.02 0h3.03m2.02 0h1.52a.03.03 0 0 0 .03-.03.03.03 0 0 1 .03-.03h1.52m2.02 0h3.03m2.02 0h3.03m2.02 0h3.03m2.02 0h3.03m2.03 0h3.03m2.02 0h3.03m2.03 0h3.03m2.02 0h3.03m2.03 0h3.03m2.03 0h3.02m2.02 0h3.03m2.02 0h3.02m2.02 0h3.03m2.02 0h3.02m2.03 0h3.03m2.02 0h3.03m2.02 0h3.03m2.02 0h3.03m2.02 0h3.03m2.03 0h3.04m2.02 0h3.03m2 0h3.04m2.02 0h3.03m2 0h3.05m2.02 0h1.5" stroke="#3a414a" fill="none"/><path d="M-14839.07 7370.55h-.5v-.95h.5zM-14585.92 7370.48h-.5v-.95h.5z" stroke="#3a414a" stroke-width=".05" fill="#3a414a"/><path d="M-15010.7 6908.7a6 6 0 0 1 6-6h228a6 6 0 0 1 6 6v48a6 6 0 0 1-6 6h-228a6 6 0 0 1-6-6z" fill="none"/><g><use xlink:href="#W" transform="matrix(1,0,0,1,-15010.688211224264,6902.7008717082645) translate(17.553325195312482 36.4941064453125)"/><use xlink:href="#X" transform="matrix(1,0,0,1,-15010.688211224264,6902.7008717082645) translate(56.101098632812494 36.4941064453125)"/><use xlink:href="#Y" transform="matrix(1,0,0,1,-15010.688211224264,6902.7008717082645) translate(101.5148876953125 36.4941064453125)"/><use xlink:href="#Z" transform="matrix(1,0,0,1,-15010.688211224264,6902.7008717082645) translate(140.3160498046875 36.4941064453125)"/></g><path d="M-15011.2 6932.7h-557.16" stroke="#3a414a" fill="none"/><path d="M-15010.7 6933.18h-.5v-.95h.5z" stroke="#3a414a" stroke-width=".05" fill="#3a414a"/><path d="M-15568.35 6932.7h-.5M-14770.2 6932.7h450.15" stroke="#3a414a" fill="none"/><path d="M-14770.17 6933.18h-.52v-.95h.53z" stroke="#3a414a" stroke-width=".05" fill="#3a414a"/><path d="M-14320.06 6932.7h.5" stroke="#3a414a" fill="none"/><path d="M-14940.8 6791.8a6 6 0 0 1 6-6h90.1a6 6 0 0 1 6 6v55.92a6 6 0 0 1-6 6h-90.1a6 6 0 0 1-6-6z" stroke="#000" stroke-width="2" fill="#14b8a6"/><g><use xlink:href="#aa" transform="matrix(1,0,0,1,-14935.79491822334,6790.805289113859) translate(27.02680121527778 38.18055555555556)"/></g><path d="M-14889.75 6855.22v1.37m0 1.82v2.75m0 1.83v2.75m0 1.83v1.38a.4.4 0 0 1-.4.38h-.23a.14.14 0 0 0-.14.14" stroke="#3a414a" fill="none"/><path d="M-14889.27 6855.23h-.95v-.5h.95z" stroke="#3a414a" stroke-width=".05" fill="#3a414a"/><path d="M-14890.52 6882.97l-7.5-13h15z" stroke="#3a414a" fill="#3a414a"/><path d="M-15133.48 6732.4a6 6 0 0 1 6-6h475.46a6 6 0 0 1 6 6v27.08a6 6 0 0 1-6 6h-475.46a6 6 0 0 1-6-6z" stroke="#000" stroke-width="2" fill="#14b8a6"/><g><use xlink:href="#ab" transform="matrix(1,0,0,1,-15128.47980900878,6731.409857261315) translate(9.564778645833343 25.555555555555554)"/></g><path d="M-14889.75 6784.3v-1.73m0-2.3v-3.47m0-2.3V6771m0-2.3v-1.74" stroke="#3a414a" fill="none"/><path d="M-14889.27 6784.8h-.95v-.5h.95zM-14889.27 6767h-.95v-.52h.95z" stroke="#3a414a" stroke-width=".05" fill="#3a414a"/><path d="M-14939.63 7460.34a6 6 0 0 1 6-6h88.22a6 6 0 0 1 6 6V7597a6 6 0 0 1-6 6h-88.23a6 6 0 0 1-6-6z" stroke="#282c33" stroke-width="2" fill="#0891b2"/><g><use xlink:href="#ac" transform="matrix(1,0,0,1,-14927.627736423527,7466.342267861) translate(-5.901041666666671 55.98958333333333)"/><use xlink:href="#f" transform="matrix(1,0,0,1,-14927.627736423527,7466.342267861) translate(15.105902777777779 86.25217013888889)"/><use xlink:href="#w" transform="matrix(1,0,0,1,-14927.627736423527,7466.342267861) translate(49.18793402777778 86.25217013888889)"/></g><path d="M-14837.9 7528.67h1.5m2 0h3.02m2.02 0h3m2.03 0h3m2.03 0h3m2.03 0h3m2.03 0h3m2.03 0h3m2.02 0h3m2.03 0h3m2.03 0h3m2.03 0h3.02m2.02 0h3m2.03 0h3m2.03 0h3m2.03 0h3m2.02 0h3.02m2 0h3.03m2 0h3.03m2.02 0h3m2.02 0h3.02m2 0h3.02m2.02 0h3m2.02 0h3.02m2 0h3.03m2.03 0h3m2.02 0h3.02m2 0h3.03m2.02 0h3m2.02 0h3.02m2 0h3.03m2 0h3.02m2 0h3.03m2 0h3.03m2 0h3.03m2.02 0h3.02m2 0h3.03m2 0h3.03m2 0h3.03m2 0h3.03m2 0h3.03m2 0h3.02m2 0h3.03m2 0h3.03m2 0h3.03m2.02 0h3.02m2 0h3.03m2 0h3.03m2 0h3.03m2 0h3.03m2 0h1.52" stroke="#3a414a" fill="none"/><path d="M-14837.9 7529.14h-.5v-.95h.5zM-14585.92 7529.14h-.5v-.95h.5z" stroke="#3a414a" stroke-width=".05" fill="#3a414a"/><path d="M-14941.57 6992.16a6 6 0 0 1 6-6h88.22a6 6 0 0 1 6 6v290.22a6 6 0 0 1-6 6h-88.22a6 6 0 0 1-6-6z" stroke="#000" stroke-width="2" fill="#14b8a6"/><g><use xlink:href="#ac" transform="matrix(1,0,0,1,-14929.567328055982,6998.161492256501) translate(-5.901041666666671 132.98958333333334)"/><use xlink:href="#f" transform="matrix(1,0,0,1,-14929.567328055982,6998.161492256501) translate(15.105902777777779 163.25217013888889)"/><use xlink:href="#h" transform="matrix(1,0,0,1,-14929.567328055982,6998.161492256501) translate(49.18793402777778 163.25217013888889)"/></g><path d="M-14839.85 7137.27h1.55m2.07 0h3.1m2.1 0h3.1m2.07 0h3.1m2.08 0h3.1m2.08 0h3.1m2.08 0h3.1m2.1 0h3.1m2.07 0h3.1m2.08 0h3.1m2.08 0h3.12m2.08 0h3.1m2.08 0h3.1m2.08 0H-14770.93m2.07 0h3.1m2.1 0h3.1m2.07 0h3.12m2.07 0h3.1m2.07 0h3.1m2.08 0h3.1m2.1 0h3.1m2.07 0h3.1m2.08 0h3.1m2.08 0h3.1m2.1 0h3.1m2.07 0h3.1m2.08 0h1.55" stroke="#3a414a" fill="none"/><path d="M-14839.84 7137.74h-.5v-.94h.5zM-14704.6 7137.74h-.53v-.94h.5z" stroke="#3a414a" stroke-width=".05" fill="#3a414a"/><defs><path fill="#fff" d="M305-731c0 386 189 602 569 602 101 0 200-12 297-35v-450H844v-152h497v711c-160 50-302 75-514 75-450 0-708-292-702-751 7-475 281-752 758-752 156 0 301 29 436 86l-66 150c-132-56-259-84-381-84-359-3-567 235-567 600" id="ad"/><path fill="#fff" d="M1128-1036c0 321-241 464-585 461H371V0H201v-1462h379c365 0 548 142 548 426zm-176 8c0-218-150-286-391-287H371v594h153c270-3 428-62 428-307" id="ae"/><path fill="#fff" d="M750-129c245 0 385-137 385-381v-952h170v946c3 336-225 536-566 536-344 0-553-202-553-540v-942h170v954c0 248 141 379 394 379" id="af"/><g id="a"><use transform="matrix(0.010850694444444444,0,0,0.010850694444444444,0,0)" xlink:href="#ad"/><use transform="matrix(0.010850694444444444,0,0,0.010850694444444444,16.178385416666668,0)" xlink:href="#ae"/><use transform="matrix(0.010850694444444444,0,0,0.010850694444444444,29.557291666666664,0)" xlink:href="#af"/></g><path fill="#fff" d="M1069-733c0 253-39 441-119 566S748 20 584 20c-157 0-277-64-359-192S102-486 102-733c0-255 40-444 119-567s200-185 363-185c159 0 280 64 362 193s123 315 123 559zm-724-463c-95 160-94 768 0 928 55 94 130 145 239 145 111 0 185-52 240-147 94-164 94-761 0-924-55-95-129-147-240-147-109 0-184 52-239 145" id="ag"/><use transform="matrix(0.010850694444444444,0,0,0.010850694444444444,0,0)" xlink:href="#ag" id="b"/><path fill="#fff" d="M1214-416C1213-138 1004 0 711 0H201v-1462h413c194 0 334 29 421 87s130 150 130 275c0 188-114 295-284 324v10c222 38 333 155 333 350zm-225-667c0-194-147-232-368-232H371v479h280c219-3 338-46 338-247zm43 655c0-204-147-264-370-264H371v547h305c220-1 356-73 356-283" id="ah"/><path fill="#fff" d="M563 20c-271 0-399-123-399-399v-717h168v711c1 177 76 266 252 266 250 0 331-135 331-401v-576h166V0H944l-24-147h-9C848-44 724 20 563 20" id="ai"/><path fill="#fff" d="M502-977c-130 0-238 32-238 139 0 75 39 101 95 134 33 19 97 46 192 81 130 48 217 95 263 143s69 108 69 181C883-73 695 20 449 20 304 20 190-3 109-49v-154c91 47 216 86 344 86 149 0 270-36 270-168 0-43-21-76-55-109-56-55-367-158-434-208-74-55-128-109-128-225 0-327 490-342 754-217l-59 135c-110-45-210-68-299-68" id="aj"/><path fill="#fff" d="M84-473v-152h491v152H84" id="ak"/><path fill="#fff" d="M201 0v-1462h170V0H201" id="al"/><path fill="#fff" d="M649-1462c450-4 719 268 719 717 0 484-276 748-762 745H201v-1462h448zM578-147c400 1 610-197 610-592 1-379-192-576-570-576H371v1168h207" id="am"/><g id="c"><use transform="matrix(0.010850694444444444,0,0,0.010850694444444444,0,0)" xlink:href="#ah"/><use transform="matrix(0.010850694444444444,0,0,0.010850694444444444,14.398871527777777,0)" xlink:href="#ai"/><use transform="matrix(0.010850694444444444,0,0,0.010850694444444444,28.038194444444443,0)" xlink:href="#aj"/><use transform="matrix(0.010850694444444444,0,0,0.010850694444444444,38.639322916666664,0)" xlink:href="#ak"/><use transform="matrix(0.010850694444444444,0,0,0.010850694444444444,45.78993055555556,0)" xlink:href="#al"/><use transform="matrix(0.010850694444444444,0,0,0.010850694444444444,51.98567708333333,0)" xlink:href="#am"/></g><path fill="#fff" d="M715 0H553c4-427-9-874 8-1288-79 77-94 81-285 239l-88-114 387-299h140V0" id="an"/><path fill="#fff" d="M106-991c0-291 181-498 463-492 348 8 492 281 492 645 0 572-221 858-664 858-77 0-139-7-184-20v-143c53 17 114 26 182 26 356 0 482-232 496-604h-12c-67 103-189 169-351 170-262 2-422-172-422-440zm787 35c0-214-113-380-324-385-199-4-300 142-299 348 1 191 96 313 291 309 180-3 332-102 332-272" id="ao"/><path fill="#fff" d="M270 29c-76 0-118-48-118-135 0-84 38-135 118-136 81 0 123 51 123 136 0 82-44 135-123 135zm0-883c-76 0-118-48-118-135 0-90 39-135 118-135 82 0 123 45 123 135 0 82-44 135-123 135" id="ap"/><path fill="#fff" d="M270 29c-76 0-118-48-118-135 0-84 38-135 118-136 81 0 123 51 123 136 0 82-44 135-123 135" id="aq"/><g id="d"><use transform="matrix(0.010850694444444444,0,0,0.010850694444444444,0,0)" xlink:href="#an"/><use transform="matrix(0.010850694444444444,0,0,0.010850694444444444,12.706163194444445,0)" xlink:href="#ao"/><use transform="matrix(0.010850694444444444,0,0,0.010850694444444444,25.41232638888889,0)" xlink:href="#ap"/><use transform="matrix(0.010850694444444444,0,0,0.010850694444444444,31.32595486111111,0)" xlink:href="#ag"/><use transform="matrix(0.010850694444444444,0,0,0.010850694444444444,44.03211805555556,0)" xlink:href="#ag"/><use transform="matrix(0.010850694444444444,0,0,0.010850694444444444,56.73828125,0)" xlink:href="#aq"/><use transform="matrix(0.010850694444444444,0,0,0.010850694444444444,62.65190972222222,0)" xlink:href="#ag"/></g><path fill="#fff" d="M848 0L352-1296h-8c27 395 8 875 14 1296H201v-1462h256L920-256h8l467-1206h254V0h-170c6-439-13-873 14-1294h-8L985 0H848" id="ar"/><path fill="#fff" d="M621-1116c316 0 501 239 501 567 0 339-180 575-508 569S119-212 115-549c-4-339 178-567 506-567zm-5 141c-239 0-329 168-329 426 0 255 93 430 331 430s332-174 332-430-95-426-334-426" id="as"/><path fill="#fff" d="M115-545c0-330 146-571 454-571 149 0 263 54 342 162h13c-20-185-8-401-11-602h166V0H944l-22-147h-9C836-36 722 20 569 20c-309 0-454-234-454-565zm172 2c0 249 78 424 303 424 257 0 327-150 323-426-4-282-68-432-325-432-220 0-301 191-301 434" id="at"/><path fill="#fff" d="M342 0H176v-1556h166V0" id="au"/><path fill="#fff" d="M995-51C878-2 799 19 639 20c-329 2-524-221-524-559 0-326 172-577 481-577 278 0 451 210 446 493v105H287c4 242 121 392 358 393 118 0 235-25 350-74v148zM864-653c2-195-85-324-270-324-190 0-288 139-303 324h573" id="av"/><g id="e"><use transform="matrix(0.010850694444444444,0,0,0.010850694444444444,0,0)" xlink:href="#ar"/><use transform="matrix(0.010850694444444444,0,0,0.010850694444444444,20.06293402777778,0)" xlink:href="#as"/><use transform="matrix(0.010850694444444444,0,0,0.010850694444444444,33.48524305555556,0)" xlink:href="#at"/><use transform="matrix(0.010850694444444444,0,0,0.010850694444444444,47.10286458333333,0)" xlink:href="#ai"/><use transform="matrix(0.010850694444444444,0,0,0.010850694444444444,60.7421875,0)" xlink:href="#au"/><use transform="matrix(0.010850694444444444,0,0,0.010850694444444444,66.36284722222223,0)" xlink:href="#av"/></g><g id="f"><use transform="matrix(0.010850694444444444,0,0,0.010850694444444444,0,0)" xlink:href="#al"/><use transform="matrix(0.010850694444444444,0,0,0.010850694444444444,6.195746527777778,0)" xlink:href="#am"/><use transform="matrix(0.010850694444444444,0,0,0.010850694444444444,22.395833333333332,0)" xlink:href="#ap"/></g><path fill="#fff" d="M559-1483c258 0 441 142 440 389 0 93-26 184-78 275-109 192-433 475-612 657v8h752V0H100v-143c177-182 479-462 617-641 67-87 110-168 112-303 2-158-106-258-268-254-165 4-240 52-354 139l-88-113c135-112 281-168 440-168" id="aw"/><use transform="matrix(0.010850694444444444,0,0,0.010850694444444444,0,0)" xlink:href="#aw" id="g"/><use transform="matrix(0.010850694444444444,0,0,0.010850694444444444,0,0)" xlink:href="#an" id="h"/><path fill="#fff" d="M557-1483c261-2 449 121 449 365 0 202-125 312-301 348v8c212 25 346 130 346 348 0 303-232 437-557 434C328 19 210-2 94-59v-158c108 55 257 96 406 96 253 0 379-99 379-297 0-177-139-266-418-266H317v-143h146c207 3 370-92 371-285 1-150-117-233-273-229-171 4-249 44-375 122l-84-112c109-87 268-150 455-152" id="ax"/><g id="i"><use transform="matrix(0.010850694444444444,0,0,0.010850694444444444,0,0)" xlink:href="#ax"/><use transform="matrix(0.010850694444444444,0,0,0.010850694444444444,12.706163194444445,0)" xlink:href="#ah"/><use transform="matrix(0.010850694444444444,0,0,0.010850694444444444,27.10503472222222,0)" xlink:href="#ap"/><use transform="matrix(0.010850694444444444,0,0,0.010850694444444444,33.01866319444444,0)" xlink:href="#ag"/><use transform="matrix(0.010850694444444444,0,0,0.010850694444444444,45.724826388888886,0)" xlink:href="#ag"/><use transform="matrix(0.010850694444444444,0,0,0.010850694444444444,58.43098958333333,0)" xlink:href="#aq"/><use transform="matrix(0.010850694444444444,0,0,0.010850694444444444,64.34461805555556,0)" xlink:href="#ag"/></g><path fill="#fff" d="M1130-336H913V0H754v-336H43v-145l694-989h176v983h217v151zM754-487c2-284-7-530 10-809h-8c-32 64-61 118-90 159L209-487h545" id="ay"/><use transform="matrix(0.010850694444444444,0,0,0.010850694444444444,0,0)" xlink:href="#ay" id="j"/><path fill="#fff" d="M125-733c6-459 248-750 704-750 153 0 287 28 402 84l-72 146c-111-52-221-78-332-78-334-1-520 251-520 600 0 361 171 600 518 600 102 0 218-18 349-55v149C1073 1 948 20 799 20c-445 1-680-294-674-753" id="az"/><g id="k"><use transform="matrix(0.010850694444444444,0,0,0.010850694444444444,0,0)" xlink:href="#ay"/><use transform="matrix(0.010850694444444444,0,0,0.010850694444444444,12.706163194444445,0)" xlink:href="#az"/><use transform="matrix(0.010850694444444444,0,0,0.010850694444444444,26.725260416666664,0)" xlink:href="#ap"/><use transform="matrix(0.010850694444444444,0,0,0.010850694444444444,32.638888888888886,0)" xlink:href="#ag"/><use transform="matrix(0.010850694444444444,0,0,0.010850694444444444,45.34505208333333,0)" xlink:href="#ag"/><use transform="matrix(0.010850694444444444,0,0,0.010850694444444444,58.05121527777778,0)" xlink:href="#aq"/><use transform="matrix(0.010850694444444444,0,0,0.010850694444444444,63.96484375,0)" xlink:href="#ag"/></g><use transform="matrix(0.010850694444444444,0,0,0.010850694444444444,0,0)" xlink:href="#ax" id="l"/><path fill="#fff" d="M512-123c223 0 372-106 371-323 0-204-125-306-375-306-63 0-148 10-254 29l-86-55 55-684h727v153H365l-37 439c77-15 153-23 229-23 289 0 496 151 496 428 0 312-221 485-543 485-165 0-290-26-377-79v-160c85 57 241 96 379 96" id="aA"/><g id="m"><use transform="matrix(0.010850694444444444,0,0,0.010850694444444444,0,0)" xlink:href="#aA"/><use transform="matrix(0.010850694444444444,0,0,0.010850694444444444,12.706163194444445,0)" xlink:href="#am"/><use transform="matrix(0.010850694444444444,0,0,0.010850694444444444,28.90625,0)" xlink:href="#ap"/><use transform="matrix(0.010850694444444444,0,0,0.010850694444444444,34.81987847222222,0)" xlink:href="#ag"/><use transform="matrix(0.010850694444444444,0,0,0.010850694444444444,47.526041666666664,0)" xlink:href="#ag"/><use transform="matrix(0.010850694444444444,0,0,0.010850694444444444,60.23220486111111,0)" xlink:href="#aq"/><use transform="matrix(0.010850694444444444,0,0,0.010850694444444444,66.14583333333333,0)" xlink:href="#ag"/></g><path d="M305-731c0 386 189 602 569 602 101 0 200-12 297-35v-450H844v-152h497v711c-160 50-302 75-514 75-450 0-708-292-702-751 7-475 281-752 758-752 156 0 301 29 436 86l-66 150c-132-56-259-84-381-84-359-3-567 235-567 600" id="aB"/><path d="M1128-1036c0 321-241 464-585 461H371V0H201v-1462h379c365 0 548 142 548 426zm-176 8c0-218-150-286-391-287H371v594h153c270-3 428-62 428-307" id="aC"/><path d="M750-129c245 0 385-137 385-381v-952h170v946c3 336-225 536-566 536-344 0-553-202-553-540v-942h170v954c0 248 141 379 394 379" id="aD"/><g id="n"><use transform="matrix(0.010850694444444444,0,0,0.010850694444444444,0,0)" xlink:href="#aB"/><use transform="matrix(0.010850694444444444,0,0,0.010850694444444444,16.178385416666668,0)" xlink:href="#aC"/><use transform="matrix(0.010850694444444444,0,0,0.010850694444444444,29.557291666666664,0)" xlink:href="#aD"/></g><path d="M1130-336H913V0H754v-336H43v-145l694-989h176v983h217v151zM754-487c2-284-7-530 10-809h-8c-32 64-61 118-90 159L209-487h545" id="aE"/><use transform="matrix(0.010850694444444444,0,0,0.010850694444444444,0,0)" xlink:href="#aE" id="o"/><path d="M1214-416C1213-138 1004 0 711 0H201v-1462h413c194 0 334 29 421 87s130 150 130 275c0 188-114 295-284 324v10c222 38 333 155 333 350zm-225-667c0-194-147-232-368-232H371v479h280c219-3 338-46 338-247zm43 655c0-204-147-264-370-264H371v547h305c220-1 356-73 356-283" id="aF"/><path d="M563 20c-271 0-399-123-399-399v-717h168v711c1 177 76 266 252 266 250 0 331-135 331-401v-576h166V0H944l-24-147h-9C848-44 724 20 563 20" id="aG"/><path d="M502-977c-130 0-238 32-238 139 0 75 39 101 95 134 33 19 97 46 192 81 130 48 217 95 263 143s69 108 69 181C883-73 695 20 449 20 304 20 190-3 109-49v-154c91 47 216 86 344 86 149 0 270-36 270-168 0-43-21-76-55-109-56-55-367-158-434-208-74-55-128-109-128-225 0-327 490-342 754-217l-59 135c-110-45-210-68-299-68" id="aH"/><path d="M84-473v-152h491v152H84" id="aI"/><path d="M201 0v-1462h170V0H201" id="aJ"/><path d="M649-1462c450-4 719 268 719 717 0 484-276 748-762 745H201v-1462h448zM578-147c400 1 610-197 610-592 1-379-192-576-570-576H371v1168h207" id="aK"/><g id="p"><use transform="matrix(0.010850694444444444,0,0,0.010850694444444444,0,0)" xlink:href="#aF"/><use transform="matrix(0.010850694444444444,0,0,0.010850694444444444,14.398871527777777,0)" xlink:href="#aG"/><use transform="matrix(0.010850694444444444,0,0,0.010850694444444444,28.038194444444443,0)" xlink:href="#aH"/><use transform="matrix(0.010850694444444444,0,0,0.010850694444444444,38.639322916666664,0)" xlink:href="#aI"/><use transform="matrix(0.010850694444444444,0,0,0.010850694444444444,45.78993055555556,0)" xlink:href="#aJ"/><use transform="matrix(0.010850694444444444,0,0,0.010850694444444444,51.98567708333333,0)" xlink:href="#aK"/></g><path d="M106-991c0-291 181-498 463-492 348 8 492 281 492 645 0 572-221 858-664 858-77 0-139-7-184-20v-143c53 17 114 26 182 26 356 0 482-232 496-604h-12c-67 103-189 169-351 170-262 2-422-172-422-440zm787 35c0-214-113-380-324-385-199-4-300 142-299 348 1 191 96 313 291 309 180-3 332-102 332-272" id="aL"/><path d="M270 29c-76 0-118-48-118-135 0-84 38-135 118-136 81 0 123 51 123 136 0 82-44 135-123 135zm0-883c-76 0-118-48-118-135 0-90 39-135 118-135 82 0 123 45 123 135 0 82-44 135-123 135" id="aM"/><path d="M1069-733c0 253-39 441-119 566S748 20 584 20c-157 0-277-64-359-192S102-486 102-733c0-255 40-444 119-567s200-185 363-185c159 0 280 64 362 193s123 315 123 559zm-724-463c-95 160-94 768 0 928 55 94 130 145 239 145 111 0 185-52 240-147 94-164 94-761 0-924-55-95-129-147-240-147-109 0-184 52-239 145" id="aN"/><path d="M270 29c-76 0-118-48-118-135 0-84 38-135 118-136 81 0 123 51 123 136 0 82-44 135-123 135" id="aO"/><g id="q"><use transform="matrix(0.010850694444444444,0,0,0.010850694444444444,0,0)" xlink:href="#aL"/><use transform="matrix(0.010850694444444444,0,0,0.010850694444444444,12.706163194444445,0)" xlink:href="#aF"/><use transform="matrix(0.010850694444444444,0,0,0.010850694444444444,27.10503472222222,0)" xlink:href="#aM"/><use transform="matrix(0.010850694444444444,0,0,0.010850694444444444,33.01866319444444,0)" xlink:href="#aN"/><use transform="matrix(0.010850694444444444,0,0,0.010850694444444444,45.724826388888886,0)" xlink:href="#aN"/><use transform="matrix(0.010850694444444444,0,0,0.010850694444444444,58.43098958333333,0)" xlink:href="#aO"/><use transform="matrix(0.010850694444444444,0,0,0.010850694444444444,64.34461805555556,0)" xlink:href="#aN"/></g><path d="M848 0L352-1296h-8c27 395 8 875 14 1296H201v-1462h256L920-256h8l467-1206h254V0h-170c6-439-13-873 14-1294h-8L985 0H848" id="aP"/><path d="M621-1116c316 0 501 239 501 567 0 339-180 575-508 569S119-212 115-549c-4-339 178-567 506-567zm-5 141c-239 0-329 168-329 426 0 255 93 430 331 430s332-174 332-430-95-426-334-426" id="aQ"/><path d="M115-545c0-330 146-571 454-571 149 0 263 54 342 162h13c-20-185-8-401-11-602h166V0H944l-22-147h-9C836-36 722 20 569 20c-309 0-454-234-454-565zm172 2c0 249 78 424 303 424 257 0 327-150 323-426-4-282-68-432-325-432-220 0-301 191-301 434" id="aR"/><path d="M342 0H176v-1556h166V0" id="aS"/><path d="M995-51C878-2 799 19 639 20c-329 2-524-221-524-559 0-326 172-577 481-577 278 0 451 210 446 493v105H287c4 242 121 392 358 393 118 0 235-25 350-74v148zM864-653c2-195-85-324-270-324-190 0-288 139-303 324h573" id="aT"/><g id="r"><use transform="matrix(0.010850694444444444,0,0,0.010850694444444444,0,0)" xlink:href="#aP"/><use transform="matrix(0.010850694444444444,0,0,0.010850694444444444,20.06293402777778,0)" xlink:href="#aQ"/><use transform="matrix(0.010850694444444444,0,0,0.010850694444444444,33.48524305555556,0)" xlink:href="#aR"/><use transform="matrix(0.010850694444444444,0,0,0.010850694444444444,47.10286458333333,0)" xlink:href="#aG"/><use transform="matrix(0.010850694444444444,0,0,0.010850694444444444,60.7421875,0)" xlink:href="#aS"/><use transform="matrix(0.010850694444444444,0,0,0.010850694444444444,66.36284722222223,0)" xlink:href="#aT"/></g><g id="s"><use transform="matrix(0.010850694444444444,0,0,0.010850694444444444,0,0)" xlink:href="#aJ"/><use transform="matrix(0.010850694444444444,0,0,0.010850694444444444,6.195746527777778,0)" xlink:href="#aK"/><use transform="matrix(0.010850694444444444,0,0,0.010850694444444444,22.395833333333332,0)" xlink:href="#aM"/></g><path d="M285 0l606-1309H94v-153h973v133L469 0H285" id="aU"/><use transform="matrix(0.010850694444444444,0,0,0.010850694444444444,0,0)" xlink:href="#aU" id="t"/><path d="M512-123c223 0 372-106 371-323 0-204-125-306-375-306-63 0-148 10-254 29l-86-55 55-684h727v153H365l-37 439c77-15 153-23 229-23 289 0 496 151 496 428 0 312-221 485-543 485-165 0-290-26-377-79v-160c85 57 241 96 379 96" id="aV"/><use transform="matrix(0.010850694444444444,0,0,0.010850694444444444,0,0)" xlink:href="#aV" id="u"/><g id="v"><use transform="matrix(0.010850694444444444,0,0,0.010850694444444444,0,0)" xlink:href="#aF"/><use transform="matrix(0.010850694444444444,0,0,0.010850694444444444,14.398871527777777,0)" xlink:href="#aF"/><use transform="matrix(0.010850694444444444,0,0,0.010850694444444444,28.797743055555554,0)" xlink:href="#aM"/><use transform="matrix(0.010850694444444444,0,0,0.010850694444444444,34.71137152777778,0)" xlink:href="#aN"/><use transform="matrix(0.010850694444444444,0,0,0.010850694444444444,47.41753472222222,0)" xlink:href="#aN"/><use transform="matrix(0.010850694444444444,0,0,0.010850694444444444,60.123697916666664,0)" xlink:href="#aO"/><use transform="matrix(0.010850694444444444,0,0,0.010850694444444444,66.03732638888889,0)" xlink:href="#aN"/></g><path fill="#fff" d="M610 20c-332-4-493-282-493-645 0-287 55-503 167-645s277-213 496-213c75 0 135 6 178 19v143c-51-17-110-25-176-25-157 0-276 48-359 146S295-948 287-739h12c73-115 189-172 348-172 263 0 424 177 424 442 0 293-175 492-461 489zM287-506c0 212 112 385 321 385 200 0 299-137 299-348 0-191-98-312-291-311-128 1-231 59-284 139-30 43-45 88-45 135" id="aW"/><use transform="matrix(0.010850694444444444,0,0,0.010850694444444444,0,0)" xlink:href="#aW" id="w"/><g id="x"><use transform="matrix(0.010850694444444444,0,0,0.010850694444444444,0,0)" xlink:href="#az"/><use transform="matrix(0.010850694444444444,0,0,0.010850694444444444,14.019097222222221,0)" xlink:href="#ah"/><use transform="matrix(0.010850694444444444,0,0,0.010850694444444444,28.41796875,0)" xlink:href="#ap"/><use transform="matrix(0.010850694444444444,0,0,0.010850694444444444,34.33159722222222,0)" xlink:href="#ag"/><use transform="matrix(0.010850694444444444,0,0,0.010850694444444444,47.037760416666664,0)" xlink:href="#ag"/><use transform="matrix(0.010850694444444444,0,0,0.010850694444444444,59.74392361111111,0)" xlink:href="#aq"/><use transform="matrix(0.010850694444444444,0,0,0.010850694444444444,65.65755208333333,0)" xlink:href="#ag"/></g><path fill="#fff" d="M285 0l606-1309H94v-153h973v133L469 0H285" id="aX"/><use transform="matrix(0.010850694444444444,0,0,0.010850694444444444,0,0)" xlink:href="#aX" id="y"/><g id="z"><use transform="matrix(0.010850694444444444,0,0,0.010850694444444444,0,0)" xlink:href="#am"/><use transform="matrix(0.010850694444444444,0,0,0.010850694444444444,16.200086805555554,0)" xlink:href="#ah"/><use transform="matrix(0.010850694444444444,0,0,0.010850694444444444,30.59895833333333,0)" xlink:href="#ap"/><use transform="matrix(0.010850694444444444,0,0,0.010850694444444444,36.51258680555555,0)" xlink:href="#ag"/><use transform="matrix(0.010850694444444444,0,0,0.010850694444444444,49.218749999999986,0)" xlink:href="#ag"/><use transform="matrix(0.010850694444444444,0,0,0.010850694444444444,61.924913194444436,0)" xlink:href="#aq"/><use transform="matrix(0.010850694444444444,0,0,0.010850694444444444,67.83854166666666,0)" xlink:href="#ag"/></g><path fill="#fff" d="M152-1135c0-225 192-348 432-348 245 0 434 118 434 350 0 72-22 138-67 197S835-823 737-774c119 57 203 116 253 178s75 135 75 217c0 256-203 399-475 399-288 0-486-123-486-393 0-167 102-298 306-391-92-52-158-108-198-168s-60-128-60-203zM586-115c184 0 314-89 315-262 0-65-26-123-78-173s-143-99-272-146c-99 43-171 90-216 142s-67 113-67 185c1 172 134 254 318 254zm268-1013c-1-144-117-220-272-220-153 0-266 77-267 220 0 61 20 114 59 158s112 88 218 132c95-40 162-83 202-129s60-100 60-161" id="aY"/><use transform="matrix(0.010850694444444444,0,0,0.010850694444444444,0,0)" xlink:href="#aY" id="A"/><use transform="matrix(0.010850694444444444,0,0,0.010850694444444444,0,0)" xlink:href="#ay" id="B"/><g id="C"><use transform="matrix(0.010850694444444444,0,0,0.010850694444444444,0,0)" xlink:href="#ad"/><use transform="matrix(0.010850694444444444,0,0,0.010850694444444444,16.178385416666668,0)" xlink:href="#ae"/><use transform="matrix(0.010850694444444444,0,0,0.010850694444444444,29.557291666666664,0)" xlink:href="#af"/></g><path fill="#fff" d="M516-150c94-315 146-423 332-946h178L610 0H416L0-1096h178c98 281 253 670 330 946h8" id="aZ"/><path fill="#fff" d="M342 0H176v-1096h166V0zm-82-1282c-61 0-98-43-98-111 0-69 36-110 98-110 59 0 98 43 98 110s-39 111-98 111" id="ba"/><path fill="#fff" d="M287-543c-1 247 91 418 323 418 91 0 185-20 281-59v147C818 1 725 20 614 20c-329 0-499-221-499-561 0-349 172-575 510-575 96 0 221 26 282 57l-51 141c-61-25-157-50-235-51-223 0-334 142-334 426" id="bb"/><g id="D"><use transform="matrix(0.010850694444444444,0,0,0.010850694444444444,0,0)" xlink:href="#am"/><use transform="matrix(0.010850694444444444,0,0,0.010850694444444444,16.200086805555554,0)" xlink:href="#av"/><use transform="matrix(0.010850694444444444,0,0,0.010850694444444444,28.22265625,0)" xlink:href="#aZ"/><use transform="matrix(0.010850694444444444,0,0,0.010850694444444444,39.35546875,0)" xlink:href="#ba"/><use transform="matrix(0.010850694444444444,0,0,0.010850694444444444,44.97612847222222,0)" xlink:href="#bb"/><use transform="matrix(0.010850694444444444,0,0,0.010850694444444444,55.55555555555556,0)" xlink:href="#av"/></g><path fill="#fff" d="M340-893c80-153 237-262 467-211l-23 154c-45-10-85-15-120-15-184-3-322 182-322 377V0H176v-1096h137l19 203h8" id="bc"/><path fill="#fff" d="M1141-549c0 329-147 569-455 569-159 0-273-61-344-161h-12c23 199 7 418 12 633H176v-1588h135l23 150h8c77-108 175-170 344-170 311 0 455 237 455 567zm-172-2c0-242-88-424-307-424-256 0-323 154-320 426 3 280 68 430 324 430 213 0 303-196 303-432" id="bd"/><g id="E"><use transform="matrix(0.010850694444444444,0,0,0.010850694444444444,0,0)" xlink:href="#ad"/><use transform="matrix(0.010850694444444444,0,0,0.010850694444444444,16.178385416666668,0)" xlink:href="#bc"/><use transform="matrix(0.010850694444444444,0,0,0.010850694444444444,24.8046875,0)" xlink:href="#as"/><use transform="matrix(0.010850694444444444,0,0,0.010850694444444444,38.22699652777778,0)" xlink:href="#ai"/><use transform="matrix(0.010850694444444444,0,0,0.010850694444444444,51.86631944444444,0)" xlink:href="#bd"/></g><path fill="#4c535d" d="M1130-336H913V0H754v-336H43v-145l694-989h176v983h217v151zM754-487c2-284-7-530 10-809h-8c-32 64-61 118-90 159L209-487h545" id="be"/><use transform="matrix(0.010850694444444444,0,0,0.010850694444444444,0,0)" xlink:href="#be" id="F"/><path fill="#4c535d" d="M305-731c0 386 189 602 569 602 101 0 200-12 297-35v-450H844v-152h497v711c-160 50-302 75-514 75-450 0-708-292-702-751 7-475 281-752 758-752 156 0 301 29 436 86l-66 150c-132-56-259-84-381-84-359-3-567 235-567 600" id="bf"/><path fill="#4c535d" d="M1128-1036c0 321-241 464-585 461H371V0H201v-1462h379c365 0 548 142 548 426zm-176 8c0-218-150-286-391-287H371v594h153c270-3 428-62 428-307" id="bg"/><path fill="#4c535d" d="M750-129c245 0 385-137 385-381v-952h170v946c3 336-225 536-566 536-344 0-553-202-553-540v-942h170v954c0 248 141 379 394 379" id="bh"/><g id="G"><use transform="matrix(0.010850694444444444,0,0,0.010850694444444444,0,0)" xlink:href="#bf"/><use transform="matrix(0.010850694444444444,0,0,0.010850694444444444,16.178385416666668,0)" xlink:href="#bg"/><use transform="matrix(0.010850694444444444,0,0,0.010850694444444444,29.557291666666664,0)" xlink:href="#bh"/></g><path fill="#4c535d" d="M649-1462c450-4 719 268 719 717 0 484-276 748-762 745H201v-1462h448zM578-147c400 1 610-197 610-592 1-379-192-576-570-576H371v1168h207" id="bi"/><path fill="#4c535d" d="M995-51C878-2 799 19 639 20c-329 2-524-221-524-559 0-326 172-577 481-577 278 0 451 210 446 493v105H287c4 242 121 392 358 393 118 0 235-25 350-74v148zM864-653c2-195-85-324-270-324-190 0-288 139-303 324h573" id="bj"/><path fill="#4c535d" d="M516-150c94-315 146-423 332-946h178L610 0H416L0-1096h178c98 281 253 670 330 946h8" id="bk"/><path fill="#4c535d" d="M342 0H176v-1096h166V0zm-82-1282c-61 0-98-43-98-111 0-69 36-110 98-110 59 0 98 43 98 110s-39 111-98 111" id="bl"/><path fill="#4c535d" d="M287-543c-1 247 91 418 323 418 91 0 185-20 281-59v147C818 1 725 20 614 20c-329 0-499-221-499-561 0-349 172-575 510-575 96 0 221 26 282 57l-51 141c-61-25-157-50-235-51-223 0-334 142-334 426" id="bm"/><g id="H"><use transform="matrix(0.010850694444444444,0,0,0.010850694444444444,0,0)" xlink:href="#bi"/><use transform="matrix(0.010850694444444444,0,0,0.010850694444444444,16.200086805555554,0)" xlink:href="#bj"/><use transform="matrix(0.010850694444444444,0,0,0.010850694444444444,28.22265625,0)" xlink:href="#bk"/><use transform="matrix(0.010850694444444444,0,0,0.010850694444444444,39.35546875,0)" xlink:href="#bl"/><use transform="matrix(0.010850694444444444,0,0,0.010850694444444444,44.97612847222222,0)" xlink:href="#bm"/><use transform="matrix(0.010850694444444444,0,0,0.010850694444444444,55.55555555555556,0)" xlink:href="#bj"/></g><path fill="#4c535d" d="M340-893c80-153 237-262 467-211l-23 154c-45-10-85-15-120-15-184-3-322 182-322 377V0H176v-1096h137l19 203h8" id="bn"/><path fill="#4c535d" d="M621-1116c316 0 501 239 501 567 0 339-180 575-508 569S119-212 115-549c-4-339 178-567 506-567zm-5 141c-239 0-329 168-329 426 0 255 93 430 331 430s332-174 332-430-95-426-334-426" id="bo"/><path fill="#4c535d" d="M563 20c-271 0-399-123-399-399v-717h168v711c1 177 76 266 252 266 250 0 331-135 331-401v-576h166V0H944l-24-147h-9C848-44 724 20 563 20" id="bp"/><path fill="#4c535d" d="M1141-549c0 329-147 569-455 569-159 0-273-61-344-161h-12c23 199 7 418 12 633H176v-1588h135l23 150h8c77-108 175-170 344-170 311 0 455 237 455 567zm-172-2c0-242-88-424-307-424-256 0-323 154-320 426 3 280 68 430 324 430 213 0 303-196 303-432" id="bq"/><g id="I"><use transform="matrix(0.010850694444444444,0,0,0.010850694444444444,0,0)" xlink:href="#bf"/><use transform="matrix(0.010850694444444444,0,0,0.010850694444444444,16.178385416666668,0)" xlink:href="#bn"/><use transform="matrix(0.010850694444444444,0,0,0.010850694444444444,24.8046875,0)" xlink:href="#bo"/><use transform="matrix(0.010850694444444444,0,0,0.010850694444444444,38.22699652777778,0)" xlink:href="#bp"/><use transform="matrix(0.010850694444444444,0,0,0.010850694444444444,51.86631944444444,0)" xlink:href="#bq"/></g><path fill="#6f7681" d="M559-1483c258 0 441 142 440 389 0 93-26 184-78 275-109 192-433 475-612 657v8h752V0H100v-143c177-182 479-462 617-641 67-87 110-168 112-303 2-158-106-258-268-254-165 4-240 52-354 139l-88-113c135-112 281-168 440-168" id="br"/><use transform="matrix(0.010850694444444444,0,0,0.010850694444444444,0,0)" xlink:href="#br" id="J"/><path fill="#6f7681" d="M305-731c0 386 189 602 569 602 101 0 200-12 297-35v-450H844v-152h497v711c-160 50-302 75-514 75-450 0-708-292-702-751 7-475 281-752 758-752 156 0 301 29 436 86l-66 150c-132-56-259-84-381-84-359-3-567 235-567 600" id="bs"/><path fill="#6f7681" d="M1128-1036c0 321-241 464-585 461H371V0H201v-1462h379c365 0 548 142 548 426zm-176 8c0-218-150-286-391-287H371v594h153c270-3 428-62 428-307" id="bt"/><path fill="#6f7681" d="M750-129c245 0 385-137 385-381v-952h170v946c3 336-225 536-566 536-344 0-553-202-553-540v-942h170v954c0 248 141 379 394 379" id="bu"/><g id="K"><use transform="matrix(0.010850694444444444,0,0,0.010850694444444444,0,0)" xlink:href="#bs"/><use transform="matrix(0.010850694444444444,0,0,0.010850694444444444,16.178385416666668,0)" xlink:href="#bt"/><use transform="matrix(0.010850694444444444,0,0,0.010850694444444444,29.557291666666664,0)" xlink:href="#bu"/></g><path fill="#6f7681" d="M649-1462c450-4 719 268 719 717 0 484-276 748-762 745H201v-1462h448zM578-147c400 1 610-197 610-592 1-379-192-576-570-576H371v1168h207" id="bv"/><path fill="#6f7681" d="M995-51C878-2 799 19 639 20c-329 2-524-221-524-559 0-326 172-577 481-577 278 0 451 210 446 493v105H287c4 242 121 392 358 393 118 0 235-25 350-74v148zM864-653c2-195-85-324-270-324-190 0-288 139-303 324h573" id="bw"/><path fill="#6f7681" d="M516-150c94-315 146-423 332-946h178L610 0H416L0-1096h178c98 281 253 670 330 946h8" id="bx"/><path fill="#6f7681" d="M342 0H176v-1096h166V0zm-82-1282c-61 0-98-43-98-111 0-69 36-110 98-110 59 0 98 43 98 110s-39 111-98 111" id="by"/><path fill="#6f7681" d="M287-543c-1 247 91 418 323 418 91 0 185-20 281-59v147C818 1 725 20 614 20c-329 0-499-221-499-561 0-349 172-575 510-575 96 0 221 26 282 57l-51 141c-61-25-157-50-235-51-223 0-334 142-334 426" id="bz"/><g id="L"><use transform="matrix(0.010850694444444444,0,0,0.010850694444444444,0,0)" xlink:href="#bv"/><use transform="matrix(0.010850694444444444,0,0,0.010850694444444444,16.200086805555554,0)" xlink:href="#bw"/><use transform="matrix(0.010850694444444444,0,0,0.010850694444444444,28.22265625,0)" xlink:href="#bx"/><use transform="matrix(0.010850694444444444,0,0,0.010850694444444444,39.35546875,0)" xlink:href="#by"/><use transform="matrix(0.010850694444444444,0,0,0.010850694444444444,44.97612847222222,0)" xlink:href="#bz"/><use transform="matrix(0.010850694444444444,0,0,0.010850694444444444,55.55555555555556,0)" xlink:href="#bw"/></g><path fill="#6f7681" d="M340-893c80-153 237-262 467-211l-23 154c-45-10-85-15-120-15-184-3-322 182-322 377V0H176v-1096h137l19 203h8" id="bA"/><path fill="#6f7681" d="M621-1116c316 0 501 239 501 567 0 339-180 575-508 569S119-212 115-549c-4-339 178-567 506-567zm-5 141c-239 0-329 168-329 426 0 255 93 430 331 430s332-174 332-430-95-426-334-426" id="bB"/><path fill="#6f7681" d="M563 20c-271 0-399-123-399-399v-717h168v711c1 177 76 266 252 266 250 0 331-135 331-401v-576h166V0H944l-24-147h-9C848-44 724 20 563 20" id="bC"/><path fill="#6f7681" d="M1141-549c0 329-147 569-455 569-159 0-273-61-344-161h-12c23 199 7 418 12 633H176v-1588h135l23 150h8c77-108 175-170 344-170 311 0 455 237 455 567zm-172-2c0-242-88-424-307-424-256 0-323 154-320 426 3 280 68 430 324 430 213 0 303-196 303-432" id="bD"/><g id="M"><use transform="matrix(0.010850694444444444,0,0,0.010850694444444444,0,0)" xlink:href="#bs"/><use transform="matrix(0.010850694444444444,0,0,0.010850694444444444,16.178385416666668,0)" xlink:href="#bA"/><use transform="matrix(0.010850694444444444,0,0,0.010850694444444444,24.8046875,0)" xlink:href="#bB"/><use transform="matrix(0.010850694444444444,0,0,0.010850694444444444,38.22699652777778,0)" xlink:href="#bC"/><use transform="matrix(0.010850694444444444,0,0,0.010850694444444444,51.86631944444444,0)" xlink:href="#bD"/></g><path d="M559-1483c258 0 441 142 440 389 0 93-26 184-78 275-109 192-433 475-612 657v8h752V0H100v-143c177-182 479-462 617-641 67-87 110-168 112-303 2-158-106-258-268-254-165 4-240 52-354 139l-88-113c135-112 281-168 440-168" id="bE"/><use transform="matrix(0.010850694444444444,0,0,0.010850694444444444,0,0)" xlink:href="#bE" id="N"/><g id="O"><use transform="matrix(0.010850694444444444,0,0,0.010850694444444444,0,0)" xlink:href="#aB"/><use transform="matrix(0.010850694444444444,0,0,0.010850694444444444,16.178385416666668,0)" xlink:href="#aC"/><use transform="matrix(0.010850694444444444,0,0,0.010850694444444444,29.557291666666664,0)" xlink:href="#aD"/></g><path d="M516-150c94-315 146-423 332-946h178L610 0H416L0-1096h178c98 281 253 670 330 946h8" id="bF"/><path d="M342 0H176v-1096h166V0zm-82-1282c-61 0-98-43-98-111 0-69 36-110 98-110 59 0 98 43 98 110s-39 111-98 111" id="bG"/><path d="M287-543c-1 247 91 418 323 418 91 0 185-20 281-59v147C818 1 725 20 614 20c-329 0-499-221-499-561 0-349 172-575 510-575 96 0 221 26 282 57l-51 141c-61-25-157-50-235-51-223 0-334 142-334 426" id="bH"/><g id="P"><use transform="matrix(0.010850694444444444,0,0,0.010850694444444444,0,0)" xlink:href="#aK"/><use transform="matrix(0.010850694444444444,0,0,0.010850694444444444,16.200086805555554,0)" xlink:href="#aT"/><use transform="matrix(0.010850694444444444,0,0,0.010850694444444444,28.22265625,0)" xlink:href="#bF"/><use transform="matrix(0.010850694444444444,0,0,0.010850694444444444,39.35546875,0)" xlink:href="#bG"/><use transform="matrix(0.010850694444444444,0,0,0.010850694444444444,44.97612847222222,0)" xlink:href="#bH"/><use transform="matrix(0.010850694444444444,0,0,0.010850694444444444,55.55555555555556,0)" xlink:href="#aT"/></g><path d="M340-893c80-153 237-262 467-211l-23 154c-45-10-85-15-120-15-184-3-322 182-322 377V0H176v-1096h137l19 203h8" id="bI"/><path d="M1141-549c0 329-147 569-455 569-159 0-273-61-344-161h-12c23 199 7 418 12 633H176v-1588h135l23 150h8c77-108 175-170 344-170 311 0 455 237 455 567zm-172-2c0-242-88-424-307-424-256 0-323 154-320 426 3 280 68 430 324 430 213 0 303-196 303-432" id="bJ"/><g id="Q"><use transform="matrix(0.010850694444444444,0,0,0.010850694444444444,0,0)" xlink:href="#aB"/><use transform="matrix(0.010850694444444444,0,0,0.010850694444444444,16.178385416666668,0)" xlink:href="#bI"/><use transform="matrix(0.010850694444444444,0,0,0.010850694444444444,24.8046875,0)" xlink:href="#aQ"/><use transform="matrix(0.010850694444444444,0,0,0.010850694444444444,38.22699652777778,0)" xlink:href="#aG"/><use transform="matrix(0.010850694444444444,0,0,0.010850694444444444,51.86631944444444,0)" xlink:href="#bJ"/></g><use transform="matrix(0.010850694444444444,0,0,0.010850694444444444,0,0)" xlink:href="#aw" id="R"/><path d="M152-1135c0-225 192-348 432-348 245 0 434 118 434 350 0 72-22 138-67 197S835-823 737-774c119 57 203 116 253 178s75 135 75 217c0 256-203 399-475 399-288 0-486-123-486-393 0-167 102-298 306-391-92-52-158-108-198-168s-60-128-60-203zM586-115c184 0 314-89 315-262 0-65-26-123-78-173s-143-99-272-146c-99 43-171 90-216 142s-67 113-67 185c1 172 134 254 318 254zm268-1013c-1-144-117-220-272-220-153 0-266 77-267 220 0 61 20 114 59 158s112 88 218 132c95-40 162-83 202-129s60-100 60-161" id="bK"/><use transform="matrix(0.010850694444444444,0,0,0.010850694444444444,0,0)" xlink:href="#bK" id="S"/><path fill="#fff" d="M1311 0h-170v-688H371V0H201v-1462h170v622h770v-622h170V0" id="bL"/><g id="T"><use transform="matrix(0.009548632812500001,0,0,0.009548632812500001,0,0)" xlink:href="#bL"/><use transform="matrix(0.009548632812500001,0,0,0.009548632812500001,14.4279841796875,0)" xlink:href="#an"/><use transform="matrix(0.009548632812500001,0,0,0.009548632812500001,25.609433203125004,0)" xlink:href="#ag"/><use transform="matrix(0.009548632812500001,0,0,0.009548632812500001,36.7908822265625,0)" xlink:href="#ag"/><use transform="matrix(0.009548632812500001,0,0,0.009548632812500001,47.97233125,0)" xlink:href="#am"/><use transform="matrix(0.009548632812500001,0,0,0.009548632812500001,62.228440039062505,0)" xlink:href="#ak"/><use transform="matrix(0.009548632812500001,0,0,0.009548632812500001,68.5209890625,0)" xlink:href="#aY"/><use transform="matrix(0.009548632812500001,0,0,0.009548632812500001,79.7024380859375,0)" xlink:href="#ag"/><use transform="matrix(0.009548632812500001,0,0,0.009548632812500001,90.883887109375,0)" xlink:href="#az"/></g><path d="M1311 0h-170v-688H371V0H201v-1462h170v622h770v-622h170V0" id="bM"/><path d="M715 0H553c4-427-9-874 8-1288-79 77-94 81-285 239l-88-114 387-299h140V0" id="bN"/><path d="M125-733c6-459 248-750 704-750 153 0 287 28 402 84l-72 146c-111-52-221-78-332-78-334-1-520 251-520 600 0 361 171 600 518 600 102 0 218-18 349-55v149C1073 1 948 20 799 20c-445 1-680-294-674-753" id="bO"/><g id="U"><use transform="matrix(0.009548632812500001,0,0,0.009548632812500001,0,0)" xlink:href="#bM"/><use transform="matrix(0.009548632812500001,0,0,0.009548632812500001,14.4279841796875,0)" xlink:href="#bN"/><use transform="matrix(0.009548632812500001,0,0,0.009548632812500001,25.609433203125004,0)" xlink:href="#aN"/><use transform="matrix(0.009548632812500001,0,0,0.009548632812500001,36.7908822265625,0)" xlink:href="#aN"/><use transform="matrix(0.009548632812500001,0,0,0.009548632812500001,47.97233125,0)" xlink:href="#aK"/><use transform="matrix(0.009548632812500001,0,0,0.009548632812500001,62.228440039062505,0)" xlink:href="#aI"/><use transform="matrix(0.009548632812500001,0,0,0.009548632812500001,68.5209890625,0)" xlink:href="#bK"/><use transform="matrix(0.009548632812500001,0,0,0.009548632812500001,79.7024380859375,0)" xlink:href="#aN"/><use transform="matrix(0.009548632812500001,0,0,0.009548632812500001,90.883887109375,0)" xlink:href="#bO"/></g><path d="M588-1114c260 0 384 106 385 366V0H850l-33-156h-8C708-34 639 17 442 20 231 23 94-94 94-303c0-221 177-337 531-348l186-6c11-203-40-320-233-320-91 0-195 28-310 84l-51-127c97-53 229-94 371-94zM268-301c-1 123 81 184 207 184 203 0 334-120 332-323v-99c-257 14-539-7-539 238" id="bP"/><path d="M354-322c-2 123 60 204 176 205 51 1 114-10 150-20v127C647 7 557 20 506 20 294 20 188-92 188-315v-652H31v-80l157-69 70-234h96v254h318v129H354v645" id="bQ"/><path d="M694-1116c270 0 399 125 398 401V0H926v-709c-1-177-76-266-252-266-250 0-332 133-332 400V0H176v-1096h135l27 150h8c62-101 190-170 348-170" id="bR"/><g id="V"><use transform="matrix(0.010850694444444444,0,0,0.010850694444444444,0,0)" xlink:href="#aC"/><use transform="matrix(0.010850694444444444,0,0,0.010850694444444444,13.37890625,0)" xlink:href="#bP"/><use transform="matrix(0.010850694444444444,0,0,0.010850694444444444,25.73784722222222,0)" xlink:href="#bI"/><use transform="matrix(0.010850694444444444,0,0,0.010850694444444444,34.80902777777778,0)" xlink:href="#bQ"/><use transform="matrix(0.010850694444444444,0,0,0.010850694444444444,42.654079861111114,0)" xlink:href="#bG"/><use transform="matrix(0.010850694444444444,0,0,0.010850694444444444,48.27473958333333,0)" xlink:href="#bQ"/><use transform="matrix(0.010850694444444444,0,0,0.010850694444444444,56.11979166666667,0)" xlink:href="#bG"/><use transform="matrix(0.010850694444444444,0,0,0.010850694444444444,61.7404513888889,0)" xlink:href="#aQ"/><use transform="matrix(0.010850694444444444,0,0,0.010850694444444444,75.16276041666667,0)" xlink:href="#bR"/></g><path d="M1174 0H981L588-643 188 0H8l486-764-453-698h188l363 579 366-579h181L686-770" id="bS"/><g id="W"><use transform="matrix(0.008173828125000001,0,0,0.008173828125000001,0,0)" xlink:href="#bM"/><use transform="matrix(0.008173828125000001,0,0,0.008173828125000001,12.350654296875001,0)" xlink:href="#aB"/><use transform="matrix(0.008173828125000001,0,0,0.008173828125000001,24.537832031250005,0)" xlink:href="#bS"/></g><g id="X"><use transform="matrix(0.008173828125000001,0,0,0.008173828125000001,0,0)" xlink:href="#bM"/><use transform="matrix(0.008173828125000001,0,0,0.008173828125000001,12.350654296875001,0)" xlink:href="#bN"/><use transform="matrix(0.008173828125000001,0,0,0.008173828125000001,21.922207031250004,0)" xlink:href="#aN"/><use transform="matrix(0.008173828125000001,0,0,0.008173828125000001,31.493759765625004,0)" xlink:href="#aN"/></g><g id="Y"><use transform="matrix(0.008173828125000001,0,0,0.008173828125000001,0,0)" xlink:href="#aB"/><use transform="matrix(0.008173828125000001,0,0,0.008173828125000001,12.187177734375002,0)" xlink:href="#aC"/><use transform="matrix(0.008173828125000001,0,0,0.008173828125000001,22.265507812500008,0)" xlink:href="#aD"/></g><path d="M1368-1116c259 2 372 131 371 401V0h-166v-713c0-168-66-262-230-262-221 0-303 131-303 363V0H874v-713c-1-169-66-262-231-262-235 0-301 142-301 400V0H176v-1096h135l27 150h8c56-99 174-170 324-170 171 0 283 62 336 186h8c60-108 189-187 354-186" id="bT"/><g id="Z"><use transform="matrix(0.008173828125000001,0,0,0.008173828125000001,0,0)" xlink:href="#aC"/><use transform="matrix(0.008173828125000001,0,0,0.008173828125000001,10.078330078125001,0)" xlink:href="#aS"/><use transform="matrix(0.008173828125000001,0,0,0.008173828125000001,14.312373046875003,0)" xlink:href="#bP"/><use transform="matrix(0.008173828125000001,0,0,0.008173828125000001,23.622363281250003,0)" xlink:href="#bH"/><use transform="matrix(0.008173828125000001,0,0,0.008173828125000001,31.591845703125003,0)" xlink:href="#aT"/><use transform="matrix(0.008173828125000001,0,0,0.008173828125000001,40.98357421875001,0)" xlink:href="#bT"/><use transform="matrix(0.008173828125000001,0,0,0.008173828125000001,56.55471679687501,0)" xlink:href="#aT"/><use transform="matrix(0.008173828125000001,0,0,0.008173828125000001,65.94644531250002,0)" xlink:href="#bR"/><use transform="matrix(0.008173828125000001,0,0,0.008173828125000001,76.22094726562501,0)" xlink:href="#bQ"/></g><path fill="#fff" d="M600 0L52-1490h200c166 485 304 806 458 1336 156-533 285-846 449-1336h202L819 0H600" id="bU"/><path fill="#fff" d="M180 0v-1490h270l367 940c28 72 75 218 110 339 35-117 81-264 110-339l362-940h271V0h-187c2-448-5-837 7-1287-157 497-311 829-483 1287H842C666-458 514-784 354-1284c12 438 5 843 7 1284H180" id="bV"/><g id="aa"><use transform="matrix(0.011935763888888888,0,0,0.011935763888888888,0,0)" xlink:href="#bU"/><use transform="matrix(0.011935763888888888,0,0,0.011935763888888888,16.865234375,0)" xlink:href="#bV"/></g><path fill="#fff" d="M180 0v-1490h224l606 953c40 63 108 177 176 312-27-437-7-821-13-1265h190V0h-226C860-448 622-778 356-1262c27 476 11 792 15 1262H180" id="bW"/><path fill="#fff" d="M481 0L54-1118h197c107 314 236 620 325 951 87-331 217-637 324-951h197L670 0H481" id="bX"/><path fill="#fff" d="M158 0v-1118h180V0H158zm91-1301c-68 0-125-53-125-119s57-119 125-119c69 0 126 53 126 119s-57 119-126 119" id="bY"/><path fill="#fff" d="M577 24c-279 0-473-224-473-580 0-354 195-576 474-576 218 0 287 134 324 193h14v-551h180V0H922v-173h-20C865-111 790 24 577 24zm27-161c203 0 314-172 314-421 0-247-108-413-314-413-212 0-317 181-317 413 0 235 108 421 317 421" id="bZ"/><path fill="#fff" d="M471 26C259 26 90-98 90-318c0-256 228-303 435-329 202-27 287-16 287-108 0-139-79-219-234-219-161 0-248 86-283 164l-173-57c86-203 278-265 451-265 150 0 419 46 419 395V0H815v-152h-12C765-73 660 26 471 26zm31-159c199 0 310-134 310-271v-155c-30 35-226 55-295 64-131 17-246 59-246 186 0 116 97 176 231 176" id="ca"/><path fill="#fff" d="M295 13c-75 0-135-60-135-135s60-135 135-135 135 60 135 135S370 13 295 13zm0-809c-75 0-135-60-135-135s60-135 135-135 135 60 135 135-60 135-135 135" id="cb"/><path fill="#fff" d="M120-303v-155l652-1032h231v1020h202v167h-202V0H821v-303H120zm702-167v-782h-12L323-482v12h499" id="cc"/><path fill="#fff" d="M1044 395c-595 0-922-332-922-920 0-569 336-913 901-913 548 0 833 392 833 798 0 285-36 610-344 610-104 0-258-44-276-168h-8c-35 86-122 161-273 161-266 0-403-216-403-498 0-268 174-469 413-469 128 0 216 57 252 108h10v-84h158v659c0 80 45 150 131 150 146 0 181-145 181-471 0-331-218-652-680-652-458 0-728 289-728 774 0 492 266 770 762 770 159 0 323-57 382-77l43 140c-92 39-281 82-432 82zm-82-585c193 0 271-116 271-353 0-239-92-310-266-310-164 0-260 143-260 310 0 185 69 353 255 353" id="cd"/><path fill="#fff" d="M338-670V0H158v-1118h173l1 207c72-158 192-221 342-221 226 0 378 139 378 422V0H872v-695c0-172-96-275-252-275-161 0-282 109-282 300" id="ce"/><path fill="#fff" d="M934 0v166H0V0h934" id="cf"/><path fill="#fff" d="M338-670V0H158v-1490h180v566c73-149 190-208 336-208 226 0 379 139 379 422V0H872v-695c0-172-96-275-252-275-161 0-282 109-282 300" id="cg"/><path fill="#fff" d="M653-1490V0H466v-1314h-10L96-1047v-204l324-239h233" id="ch"/><path fill="#fff" d="M646 20c-332 0-524-278-524-764 0-483 194-766 524-766s524 283 524 766c0 485-191 764-524 764zm0-166c218 0 341-220 341-598 0-380-123-601-341-601s-341 222-341 601c0 378 123 598 341 598" id="ci"/><path fill="#fff" d="M65 0l393-574-370-544h210c88 136 192 297 267 435 67-142 176-302 264-435h206L661-564 1053 0H844c-94-144-206-310-287-458C484-308 366-142 273 0H65" id="cj"/><path fill="#fff" d="M158 0v-1118h175l1 205c55-151 181-225 313-225 147 0 245 90 285 228 53-141 190-228 352-228 194 0 352 125 352 384V0h-181v-749c0-161-105-225-225-225-151 0-243 103-243 244V0H807v-767c0-124-93-207-219-207-131 0-250 92-250 270V0H158" id="ck"/><path fill="#fff" d="M798-719v166H144v-166h654" id="cl"/><path fill="#fff" d="M633 20c-303 0-511-173-511-416 0-188 124-348 291-378v-8c-145-37-237-174-237-332 0-227 192-396 457-396 261 0 456 169 456 396 0 158-94 295-235 332v8c162 30 291 190 291 378 0 243-212 416-512 416zm0-165c197 0 322-103 322-261 0-165-138-283-322-283-188 0-324 118-324 283 0 158 123 261 324 261zm0-703c157 0 272-101 272-252 0-149-110-246-272-246-165 0-273 97-273 246 0 151 112 252 273 252" id="cm"/><path fill="#fff" d="M613 24c-304 0-509-231-509-576 0-350 205-580 509-580 216 0 392 114 453 309l-173 49c-33-115-133-197-280-197-223 0-326 196-326 419 0 220 103 415 326 415 150 0 252-85 285-206l172 49C1010-95 832 24 613 24" id="cn"/><path fill="#fff" d="M1490 29c-191 0-293-139-293-303v-78c0-164 105-302 293-302 192 0 291 139 291 302v78c0 164-102 303-291 303zM523-831c-191 0-293-139-293-303v-78c0-164 105-302 293-302 192 0 291 139 291 302v78c0 164-102 303-291 303zM404 0l1024-1490h169L573 0H404zm1086-102c130-4 138-119 138-250 0-88-34-172-138-172-129 0-140 119-140 250 0 89 37 172 140 172zM523-962c130-4 138-119 138-250 0-88-34-172-138-172-129 0-140 119-140 250 0 89 37 172 140 172" id="co"/><path fill="#fff" d="M180 0v-1490h190v1322h690V0H180" id="cp"/><path fill="#fff" d="M370-1490V0H180v-1490h190" id="cq"/><path fill="#fff" d="M180 0v-1490h190c0 262 1 526-3 784 217-279 467-523 702-784h249L716-845 1319 0h-225L585-716 370-489V0H180" id="cr"/><g id="ab"><use transform="matrix(0.011935763888888888,0,0,0.011935763888888888,0,0)" xlink:href="#bW"/><use transform="matrix(0.011935763888888888,0,0,0.011935763888888888,18.536241319444443,0)" xlink:href="#bX"/><use transform="matrix(0.011935763888888888,0,0,0.011935763888888888,32.27430555555556,0)" xlink:href="#bY"/><use transform="matrix(0.011935763888888888,0,0,0.011935763888888888,38.19444444444444,0)" xlink:href="#bZ"/><use transform="matrix(0.011935763888888888,0,0,0.011935763888888888,53.16189236111111,0)" xlink:href="#bY"/><use transform="matrix(0.011935763888888888,0,0,0.011935763888888888,59.08203124999999,0)" xlink:href="#ca"/><use transform="matrix(0.011935763888888888,0,0,0.011935763888888888,72.80815972222221,0)" xlink:href="#cb"/><use transform="matrix(0.011935763888888888,0,0,0.011935763888888888,79.85026041666666,0)" xlink:href="#cc"/><use transform="matrix(0.011935763888888888,0,0,0.011935763888888888,95.64127604166666,0)" xlink:href="#cd"/><use transform="matrix(0.011935763888888888,0,0,0.011935763888888888,119.25021701388889,0)" xlink:href="#ce"/><use transform="matrix(0.011935763888888888,0,0,0.011935763888888888,133.33441840277777,0)" xlink:href="#bX"/><use transform="matrix(0.011935763888888888,0,0,0.011935763888888888,147.07248263888889,0)" xlink:href="#bY"/><use transform="matrix(0.011935763888888888,0,0,0.011935763888888888,152.99262152777777,0)" xlink:href="#bZ"/><use transform="matrix(0.011935763888888888,0,0,0.011935763888888888,167.96006944444443,0)" xlink:href="#bY"/><use transform="matrix(0.011935763888888888,0,0,0.011935763888888888,173.88020833333331,0)" xlink:href="#ca"/><use transform="matrix(0.011935763888888888,0,0,0.011935763888888888,187.60633680555554,0)" xlink:href="#cf"/><use transform="matrix(0.011935763888888888,0,0,0.011935763888888888,199.5779079861111,0)" xlink:href="#cg"/><use transform="matrix(0.011935763888888888,0,0,0.011935763888888888,213.06532118055554,0)" xlink:href="#ch"/><use transform="matrix(0.011935763888888888,0,0,0.011935763888888888,223.00781249999997,0)" xlink:href="#ci"/><use transform="matrix(0.011935763888888888,0,0,0.011935763888888888,238.42881944444449,0)" xlink:href="#ci"/><use transform="matrix(0.011935763888888888,0,0,0.011935763888888888,253.8498263888889,0)" xlink:href="#cj"/><use transform="matrix(0.011935763888888888,0,0,0.011935763888888888,267.1940104166667,0)" xlink:href="#ck"/><use transform="matrix(0.011935763888888888,0,0,0.011935763888888888,288.60677083333337,0)" xlink:href="#cl"/><use transform="matrix(0.011935763888888888,0,0,0.011935763888888888,299.8502604166667,0)" xlink:href="#cm"/><use transform="matrix(0.011935763888888888,0,0,0.011935763888888888,314.9728732638889,0)" xlink:href="#ci"/><use transform="matrix(0.011935763888888888,0,0,0.011935763888888888,330.39388020833337,0)" xlink:href="#cn"/><use transform="matrix(0.011935763888888888,0,0,0.011935763888888888,344.35872395833337,0)" xlink:href="#co"/><use transform="matrix(0.011935763888888888,0,0,0.011935763888888888,368.3615451388889,0)" xlink:href="#bW"/><use transform="matrix(0.011935763888888888,0,0,0.011935763888888888,386.77842881944446,0)" xlink:href="#bU"/><use transform="matrix(0.011935763888888888,0,0,0.011935763888888888,403.6436631944444,0)" xlink:href="#cp"/><use transform="matrix(0.011935763888888888,0,0,0.011935763888888888,417.46527777777777,0)" xlink:href="#cq"/><use transform="matrix(0.011935763888888888,0,0,0.011935763888888888,424.02994791666674,0)" xlink:href="#bW"/><use transform="matrix(0.011935763888888888,0,0,0.011935763888888888,442.4468315972222,0)" xlink:href="#cr"/></g><path fill="#fff" d="M588-1114c260 0 384 106 385 366V0H850l-33-156h-8C708-34 639 17 442 20 231 23 94-94 94-303c0-221 177-337 531-348l186-6c11-203-40-320-233-320-91 0-195 28-310 84l-51-127c97-53 229-94 371-94zM268-301c-1 123 81 184 207 184 203 0 334-120 332-323v-99c-257 14-539-7-539 238" id="cs"/><path fill="#fff" d="M354-322c-2 123 60 204 176 205 51 1 114-10 150-20v127C647 7 557 20 506 20 294 20 188-92 188-315v-652H31v-80l157-69 70-234h96v254h318v129H354v645" id="ct"/><path fill="#fff" d="M694-1116c270 0 399 125 398 401V0H926v-709c-1-177-76-266-252-266-250 0-332 133-332 400V0H176v-1096h135l27 150h8c62-101 190-170 348-170" id="cu"/><g id="ac"><use transform="matrix(0.010850694444444444,0,0,0.010850694444444444,0,0)" xlink:href="#ae"/><use transform="matrix(0.010850694444444444,0,0,0.010850694444444444,13.37890625,0)" xlink:href="#cs"/><use transform="matrix(0.010850694444444444,0,0,0.010850694444444444,25.73784722222222,0)" xlink:href="#bc"/><use transform="matrix(0.010850694444444444,0,0,0.010850694444444444,34.80902777777778,0)" xlink:href="#ct"/><use transform="matrix(0.010850694444444444,0,0,0.010850694444444444,42.654079861111114,0)" xlink:href="#ba"/><use transform="matrix(0.010850694444444444,0,0,0.010850694444444444,48.27473958333333,0)" xlink:href="#ct"/><use transform="matrix(0.010850694444444444,0,0,0.010850694444444444,56.11979166666667,0)" xlink:href="#ba"/><use transform="matrix(0.010850694444444444,0,0,0.010850694444444444,61.7404513888889,0)" xlink:href="#as"/><use transform="matrix(0.010850694444444444,0,0,0.010850694444444444,75.16276041666667,0)" xlink:href="#cu"/></g></defs></g></svg>